  0
SECTION
  2
HEADER
  9
$ACADVER
  1
AC1003
  9
$EXTMIN
 10
1.00480581410418
 20
9.37060343505012
  9
$EXTMAX
 10
3.16691951489158
 20
0.999798596260331
  9
$INSBASE
 10
2.08586266449788
 20
5.18520101565522
999
Created with OMAX Layout for Windows. (http://www.omax.com) 5/13/2015
  0
ENDSEC
  0
SECTION
  2
TABLES
  0
TABLE
  2
LAYER
 70
    10
  0
LAYER
  2
0
 70
     0
 62
     7
  6
CONTINUOUS
  0
LAYER
  2
1
 70
     0
 62
     7
  6
CONTINUOUS
  0
LAYER
  2
2
 70
     0
 62
     7
  6
CONTINUOUS
  0
LAYER
  2
3
 70
     0
 62
     7
  6
CONTINUOUS
  0
LAYER
  2
4
 70
     0
 62
     7
  6
CONTINUOUS
  0
LAYER
  2
5
 70
     0
 62
     7
  6
CONTINUOUS
  0
LAYER
  2
6
 70
     0
 62
     7
  6
CONTINUOUS
  0
LAYER
  2
7
 70
     0
 62
     7
  6
CONTINUOUS
  0
LAYER
  2
8
 70
     0
 62
     7
  6
CONTINUOUS
  0
LAYER
  2
9
 70
     0
 62
     7
  6
CONTINUOUS
  0
LAYER
  2
10
 70
     0
 62
     7
  6
CONTINUOUS
  0
LAYER
  2
11
 70
     0
 62
     7
  6
CONTINUOUS
  0
LAYER
  2
12
 70
     0
 62
     7
  6
CONTINUOUS
  0
LAYER
  2
13
 70
     0
 62
     7
  6
CONTINUOUS
  0
LAYER
  2
14
 70
     0
 62
     7
  6
CONTINUOUS
  0
LAYER
  2
15
 70
     0
 62
     7
  6
CONTINUOUS
  0
LAYER
  2
16
 70
     0
 62
     7
  6
CONTINUOUS
  0
LAYER
  2
17
 70
     0
 62
     7
  6
CONTINUOUS
  0
LAYER
  2
18
 70
     0
 62
     7
  6
CONTINUOUS
  0
LAYER
  2
19
 70
     0
 62
     7
  6
CONTINUOUS
  0
LAYER
  2
20
 70
     0
 62
     7
  6
CONTINUOUS
  0
LAYER
  2
21
 70
     0
 62
     7
  6
CONTINUOUS
  0
LAYER
  2
22
 70
     0
 62
     7
  6
CONTINUOUS
  0
LAYER
  2
23
 70
     0
 62
     7
  6
CONTINUOUS
  0
LAYER
  2
24
 70
     0
 62
     7
  6
CONTINUOUS
  0
LAYER
  2
25
 70
     0
 62
     7
  6
CONTINUOUS
  0
LAYER
  2
26
 70
     0
 62
     7
  6
CONTINUOUS
  0
LAYER
  2
27
 70
     0
 62
     7
  6
CONTINUOUS
  0
LAYER
  2
28
 70
     0
 62
     7
  6
CONTINUOUS
  0
LAYER
  2
29
 70
     0
 62
     7
  6
CONTINUOUS
  0
LAYER
  2
30
 70
     0
 62
     7
  6
CONTINUOUS
  0
LAYER
  2
31
 70
     0
 62
     7
  6
CONTINUOUS
  0
ENDTAB
  0
ENDSEC
  0
SECTION
  2
ENTITIES
  0
LINE
  8
5
  6
CONTINUOUS
 62
5
 10
1.00480581410418
 20
1.07853875374065
 30
0.0
 11
1.00480581410418
 21
1.42814505295324
 31
0.0
  0
LINE
  8
5
  6
CONTINUOUS
 62
5
 10
1.00480581410418
 20
1.75255450177214
 30
0.0
 11
1.00480581410418
 21
2.10216080098474
 31
0.0
  0
LINE
  8
5
  6
CONTINUOUS
 62
5
 10
1.60323101095457
 20
1.50688521043356
 30
0.0
 11
1.60323101095457
 21
1.67381434429183
 31
0.0
  0
LINE
  8
5
  6
CONTINUOUS
 62
5
 10
1.0835459715845
 20
1.50688521043356
 30
0.0
 11
1.60323101095457
 21
1.50688521043356
 31
0.0
  0
LINE
  8
5
  6
CONTINUOUS
 62
5
 10
1.60323101095457
 20
1.67381434429183
 30
0.0
 11
1.08354597158449
 21
1.67381434429183
 31
0.0
  0
LINE
  8
5
  6
CONTINUOUS
 62
5
 10
1.0835459715845
 20
0.999798596260331
 30
0.0
 11
3.08817935741127
 21
0.999798596260331
 31
0.0
  0
LINE
  8
5
  6
CONTINUOUS
 62
5
 10
3.16691951489158
 20
1.07853875374065
 30
0.0
 11
3.16691951489158
 21
2.10216080098474
 31
0.0
  0
LINE
  8
5
  6
CONTINUOUS
 62
5
 10
3.08817935741127
 20
2.18090095846505
 30
0.0
 11
1.0835459715845
 21
2.18090095846506
 31
0.0
  0
ARC
  8
5
  6
CONTINUOUS
 62
5
 10
3.08817935741127
 20
2.10216080098474
 30
0.0
 40
0.078740157480313
 50
1.1068330291493E-12
 51
90.0000000000011
  0
ARC
  8
5
  6
CONTINUOUS
 62
5
 10
1.22016014481284
 20
1.98405056476427
 30
0.0
 40
0.0669291338582676
 50
269.999999999999
 51
89.9999999999998
  0
ARC
  8
5
  6
CONTINUOUS
 62
5
 10
1.22016014481284
 20
1.98405056476427
 30
0.0
 40
0.0669291338582676
 50
89.9999999999998
 51
270
  0
ARC
  8
5
  6
CONTINUOUS
 62
5
 10
1.22016014481284
 20
1.19664898996112
 30
0.0
 40
0.0669291338582677
 50
269.999999999999
 51
89.9999999999998
  0
ARC
  8
5
  6
CONTINUOUS
 62
5
 10
1.22016014481284
 20
1.19664898996112
 30
0.0
 40
0.0669291338582677
 50
89.9999999999998
 51
270
  0
ARC
  8
5
  6
CONTINUOUS
 62
5
 10
2.48188014481284
 20
1.92499544665403
 30
0.0
 40
0.0669291338582676
 50
269.999999999999
 51
89.9999999999998
  0
ARC
  8
5
  6
CONTINUOUS
 62
5
 10
2.48188014481284
 20
1.92499544665403
 30
0.0
 40
0.0669291338582676
 50
89.9999999999998
 51
270
  0
ARC
  8
5
  6
CONTINUOUS
 62
5
 10
1.0835459715845
 20
2.10216080098474
 30
0.0
 40
0.0787401574803151
 50
90
 51
180
  0
ARC
  8
5
  6
CONTINUOUS
 62
5
 10
1.0835459715845
 20
1.07853875374065
 30
0.0
 40
0.0787401574803148
 50
180
 51
270
  0
ARC
  8
5
  6
CONTINUOUS
 62
5
 10
1.08354597158449
 20
1.42814505295324
 30
0.0
 40
0.0787401574803149
 50
89.9999999999999
 51
180
  0
ARC
  8
5
  6
CONTINUOUS
 62
5
 10
1.0835459715845
 20
1.75255450177214
 30
0.0
 40
0.0787401574803147
 50
180
 51
270
  0
ARC
  8
5
  6
CONTINUOUS
 62
5
 10
3.08817935741127
 20
1.07853875374065
 30
0.0
 40
0.0787401574803148
 50
269.999999999999
 51
359.999999999999
  0
ARC
  8
5
  6
CONTINUOUS
 62
5
 10
2.48188014481284
 20
1.59034977736269
 30
0.0
 40
0.177165354330709
 50
269.999999999999
 51
89.9999999999998
  0
ARC
  8
5
  6
CONTINUOUS
 62
5
 10
2.48188014481284
 20
1.59034977736269
 30
0.0
 40
0.177165354330709
 50
89.9999999999998
 51
270
  0
ARC
  8
5
  6
CONTINUOUS
 62
5
 10
2.48188014481284
 20
1.25570410807135
 30
0.0
 40
0.0669291338582676
 50
269.999999999999
 51
89.9999999999998
  0
ARC
  8
5
  6
CONTINUOUS
 62
5
 10
2.48188014481284
 20
1.25570410807135
 30
0.0
 40
0.0669291338582676
 50
89.9999999999998
 51
270
  0
LINE
  8
5
  6
CONTINUOUS
 62
5
 10
1.00480581410418
 20
2.51647924905766
 30
0.0
 11
1.00480581410418
 21
2.86608554827026
 31
0.0
  0
LINE
  8
5
  6
CONTINUOUS
 62
5
 10
1.00480581410418
 20
3.19049499708915
 30
0.0
 11
1.00480581410418
 21
3.54010129630175
 31
0.0
  0
LINE
  8
5
  6
CONTINUOUS
 62
5
 10
1.60323101095457
 20
2.94482570575057
 30
0.0
 11
1.60323101095457
 21
3.11175483960884
 31
0.0
  0
LINE
  8
5
  6
CONTINUOUS
 62
5
 10
1.0835459715845
 20
2.94482570575057
 30
0.0
 11
1.60323101095457
 21
2.94482570575057
 31
0.0
  0
LINE
  8
5
  6
CONTINUOUS
 62
5
 10
1.60323101095457
 20
3.11175483960884
 30
0.0
 11
1.08354597158449
 21
3.11175483960884
 31
0.0
  0
LINE
  8
5
  6
CONTINUOUS
 62
5
 10
1.0835459715845
 20
2.43773909157734
 30
0.0
 11
3.08817935741127
 21
2.43773909157734
 31
0.0
  0
LINE
  8
5
  6
CONTINUOUS
 62
5
 10
3.16691951489158
 20
2.51647924905766
 30
0.0
 11
3.16691951489158
 21
3.54010129630175
 31
0.0
  0
LINE
  8
5
  6
CONTINUOUS
 62
5
 10
3.08817935741127
 20
3.61884145378206
 30
0.0
 11
1.0835459715845
 21
3.61884145378207
 31
0.0
  0
ARC
  8
5
  6
CONTINUOUS
 62
5
 10
3.08817935741127
 20
3.54010129630175
 30
0.0
 40
0.078740157480313
 50
1.1068330291493E-12
 51
90.0000000000011
  0
ARC
  8
5
  6
CONTINUOUS
 62
5
 10
1.22016014481284
 20
3.42199106008128
 30
0.0
 40
0.0669291338582676
 50
269.999999999999
 51
89.9999999999998
  0
ARC
  8
5
  6
CONTINUOUS
 62
5
 10
1.22016014481284
 20
3.42199106008128
 30
0.0
 40
0.0669291338582676
 50
89.9999999999998
 51
270
  0
ARC
  8
5
  6
CONTINUOUS
 62
5
 10
1.22016014481284
 20
2.63458948527813
 30
0.0
 40
0.0669291338582676
 50
269.999999999999
 51
89.9999999999998
  0
ARC
  8
5
  6
CONTINUOUS
 62
5
 10
1.22016014481284
 20
2.63458948527813
 30
0.0
 40
0.0669291338582676
 50
89.9999999999998
 51
270
  0
ARC
  8
5
  6
CONTINUOUS
 62
5
 10
2.48188014481284
 20
3.36293594197104
 30
0.0
 40
0.0669291338582676
 50
269.999999999999
 51
89.9999999999998
  0
ARC
  8
5
  6
CONTINUOUS
 62
5
 10
2.48188014481284
 20
3.36293594197104
 30
0.0
 40
0.0669291338582676
 50
89.9999999999998
 51
270
  0
ARC
  8
5
  6
CONTINUOUS
 62
5
 10
1.0835459715845
 20
3.54010129630175
 30
0.0
 40
0.0787401574803151
 50
90
 51
180
  0
ARC
  8
5
  6
CONTINUOUS
 62
5
 10
1.0835459715845
 20
2.51647924905766
 30
0.0
 40
0.0787401574803148
 50
180
 51
270
  0
ARC
  8
5
  6
CONTINUOUS
 62
5
 10
1.08354597158449
 20
2.86608554827026
 30
0.0
 40
0.0787401574803148
 50
89.9999999999998
 51
180
  0
ARC
  8
5
  6
CONTINUOUS
 62
5
 10
1.0835459715845
 20
3.19049499708915
 30
0.0
 40
0.0787401574803147
 50
180
 51
270
  0
ARC
  8
5
  6
CONTINUOUS
 62
5
 10
3.08817935741127
 20
2.51647924905766
 30
0.0
 40
0.0787401574803146
 50
269.999999999999
 51
359.999999999999
  0
ARC
  8
5
  6
CONTINUOUS
 62
5
 10
2.48188014481284
 20
3.0282902726797
 30
0.0
 40
0.177165354330709
 50
269.999999999999
 51
89.9999999999998
  0
ARC
  8
5
  6
CONTINUOUS
 62
5
 10
2.48188014481284
 20
3.0282902726797
 30
0.0
 40
0.177165354330709
 50
89.9999999999998
 51
270
  0
ARC
  8
5
  6
CONTINUOUS
 62
5
 10
2.48188014481284
 20
2.69364460338837
 30
0.0
 40
0.0669291338582676
 50
269.999999999999
 51
89.9999999999998
  0
ARC
  8
5
  6
CONTINUOUS
 62
5
 10
2.48188014481284
 20
2.69364460338837
 30
0.0
 40
0.0669291338582676
 50
89.9999999999998
 51
270
  0
LINE
  8
5
  6
CONTINUOUS
 62
5
 10
1.00480581410418
 20
3.95441974437467
 30
0.0
 11
1.00480581410418
 21
4.30402604358727
 31
0.0
  0
LINE
  8
5
  6
CONTINUOUS
 62
5
 10
1.00480581410418
 20
4.62843549240617
 30
0.0
 11
1.00480581410418
 21
4.97804179161876
 31
0.0
  0
LINE
  8
5
  6
CONTINUOUS
 62
5
 10
1.60323101095457
 20
4.38276620106758
 30
0.0
 11
1.60323101095457
 21
4.54969533492585
 31
0.0
  0
LINE
  8
5
  6
CONTINUOUS
 62
5
 10
1.0835459715845
 20
4.38276620106758
 30
0.0
 11
1.60323101095457
 21
4.38276620106758
 31
0.0
  0
LINE
  8
5
  6
CONTINUOUS
 62
5
 10
1.60323101095457
 20
4.54969533492585
 30
0.0
 11
1.08354597158449
 21
4.54969533492585
 31
0.0
  0
LINE
  8
5
  6
CONTINUOUS
 62
5
 10
1.0835459715845
 20
3.87567958689436
 30
0.0
 11
3.08817935741127
 21
3.87567958689436
 31
0.0
  0
LINE
  8
5
  6
CONTINUOUS
 62
5
 10
3.16691951489158
 20
3.95441974437467
 30
0.0
 11
3.16691951489158
 21
4.97804179161876
 31
0.0
  0
LINE
  8
5
  6
CONTINUOUS
 62
5
 10
3.08817935741127
 20
5.05678194909908
 30
0.0
 11
1.0835459715845
 21
5.05678194909908
 31
0.0
  0
ARC
  8
5
  6
CONTINUOUS
 62
5
 10
3.08817935741127
 20
4.97804179161876
 30
0.0
 40
0.078740157480313
 50
1.1068330291493E-12
 51
90.0000000000011
  0
ARC
  8
5
  6
CONTINUOUS
 62
5
 10
1.22016014481284
 20
4.85993155539829
 30
0.0
 40
0.0669291338582676
 50
269.999999999999
 51
89.9999999999998
  0
ARC
  8
5
  6
CONTINUOUS
 62
5
 10
1.22016014481284
 20
4.85993155539829
 30
0.0
 40
0.0669291338582676
 50
89.9999999999998
 51
270
  0
ARC
  8
5
  6
CONTINUOUS
 62
5
 10
1.22016014481284
 20
4.07252998059514
 30
0.0
 40
0.0669291338582676
 50
269.999999999999
 51
89.9999999999998
  0
ARC
  8
5
  6
CONTINUOUS
 62
5
 10
1.22016014481284
 20
4.07252998059514
 30
0.0
 40
0.0669291338582676
 50
89.9999999999998
 51
270
  0
ARC
  8
5
  6
CONTINUOUS
 62
5
 10
2.48188014481284
 20
4.80087643728806
 30
0.0
 40
0.0669291338582676
 50
269.999999999999
 51
89.9999999999998
  0
ARC
  8
5
  6
CONTINUOUS
 62
5
 10
2.48188014481284
 20
4.80087643728806
 30
0.0
 40
0.0669291338582676
 50
89.9999999999998
 51
270
  0
ARC
  8
5
  6
CONTINUOUS
 62
5
 10
1.0835459715845
 20
4.97804179161876
 30
0.0
 40
0.0787401574803153
 50
90.0000000000001
 51
180
  0
ARC
  8
5
  6
CONTINUOUS
 62
5
 10
1.0835459715845
 20
3.95441974437467
 30
0.0
 40
0.0787401574803148
 50
180
 51
270
  0
ARC
  8
5
  6
CONTINUOUS
 62
5
 10
1.08354597158449
 20
4.30402604358727
 30
0.0
 40
0.0787401574803148
 50
89.9999999999998
 51
180
  0
ARC
  8
5
  6
CONTINUOUS
 62
5
 10
1.0835459715845
 20
4.62843549240617
 30
0.0
 40
0.0787401574803147
 50
180
 51
270
  0
ARC
  8
5
  6
CONTINUOUS
 62
5
 10
3.08817935741127
 20
3.95441974437467
 30
0.0
 40
0.0787401574803146
 50
269.999999999999
 51
359.999999999999
  0
ARC
  8
5
  6
CONTINUOUS
 62
5
 10
2.48188014481284
 20
4.46623076799672
 30
0.0
 40
0.177165354330709
 50
269.999999999999
 51
89.9999999999998
  0
ARC
  8
5
  6
CONTINUOUS
 62
5
 10
2.48188014481284
 20
4.46623076799672
 30
0.0
 40
0.177165354330709
 50
89.9999999999998
 51
270
  0
ARC
  8
5
  6
CONTINUOUS
 62
5
 10
2.48188014481284
 20
4.13158509870538
 30
0.0
 40
0.0669291338582676
 50
269.999999999999
 51
89.9999999999998
  0
ARC
  8
5
  6
CONTINUOUS
 62
5
 10
2.48188014481284
 20
4.13158509870538
 30
0.0
 40
0.0669291338582676
 50
89.9999999999998
 51
270
  0
LINE
  8
5
  6
CONTINUOUS
 62
5
 10
1.00480581410418
 20
5.39236023969168
 30
0.0
 11
1.00480581410418
 21
5.74196653890428
 31
0.0
  0
LINE
  8
5
  6
CONTINUOUS
 62
5
 10
1.00480581410418
 20
6.06637598772318
 30
0.0
 11
1.00480581410418
 21
6.41598228693578
 31
0.0
  0
LINE
  8
5
  6
CONTINUOUS
 62
5
 10
1.60323101095457
 20
5.8207066963846
 30
0.0
 11
1.60323101095457
 21
5.98763583024286
 31
0.0
  0
LINE
  8
5
  6
CONTINUOUS
 62
5
 10
1.0835459715845
 20
5.8207066963846
 30
0.0
 11
1.60323101095457
 21
5.8207066963846
 31
0.0
  0
LINE
  8
5
  6
CONTINUOUS
 62
5
 10
1.60323101095457
 20
5.98763583024286
 30
0.0
 11
1.08354597158449
 21
5.98763583024286
 31
0.0
  0
LINE
  8
5
  6
CONTINUOUS
 62
5
 10
1.0835459715845
 20
5.31362008221137
 30
0.0
 11
3.08817935741127
 21
5.31362008221137
 31
0.0
  0
LINE
  8
5
  6
CONTINUOUS
 62
5
 10
3.16691951489158
 20
5.39236023969168
 30
0.0
 11
3.16691951489158
 21
6.41598228693578
 31
0.0
  0
LINE
  8
5
  6
CONTINUOUS
 62
5
 10
3.08817935741127
 20
6.49472244441609
 30
0.0
 11
1.0835459715845
 21
6.49472244441609
 31
0.0
  0
ARC
  8
5
  6
CONTINUOUS
 62
5
 10
3.08817935741127
 20
6.41598228693578
 30
0.0
 40
0.078740157480313
 50
1.1068330291493E-12
 51
90.0000000000011
  0
ARC
  8
5
  6
CONTINUOUS
 62
5
 10
1.22016014481284
 20
6.2978720507153
 30
0.0
 40
0.0669291338582676
 50
269.999999999999
 51
89.9999999999998
  0
ARC
  8
5
  6
CONTINUOUS
 62
5
 10
1.22016014481284
 20
6.2978720507153
 30
0.0
 40
0.0669291338582676
 50
89.9999999999998
 51
270
  0
ARC
  8
5
  6
CONTINUOUS
 62
5
 10
1.22016014481284
 20
5.51047047591216
 30
0.0
 40
0.0669291338582676
 50
269.999999999999
 51
89.9999999999998
  0
ARC
  8
5
  6
CONTINUOUS
 62
5
 10
1.22016014481284
 20
5.51047047591216
 30
0.0
 40
0.0669291338582676
 50
89.9999999999998
 51
270
  0
ARC
  8
5
  6
CONTINUOUS
 62
5
 10
2.48188014481284
 20
6.23881693260507
 30
0.0
 40
0.0669291338582676
 50
269.999999999999
 51
89.9999999999998
  0
ARC
  8
5
  6
CONTINUOUS
 62
5
 10
2.48188014481284
 20
6.23881693260507
 30
0.0
 40
0.0669291338582676
 50
89.9999999999998
 51
270
  0
ARC
  8
5
  6
CONTINUOUS
 62
5
 10
1.08354597158449
 20
6.41598228693578
 30
0.0
 40
0.0787401574803148
 50
89.9999999999998
 51
180
  0
ARC
  8
5
  6
CONTINUOUS
 62
5
 10
1.0835459715845
 20
5.39236023969168
 30
0.0
 40
0.0787401574803148
 50
180
 51
270
  0
ARC
  8
5
  6
CONTINUOUS
 62
5
 10
1.08354597158449
 20
5.74196653890428
 30
0.0
 40
0.0787401574803148
 50
89.9999999999998
 51
180
  0
ARC
  8
5
  6
CONTINUOUS
 62
5
 10
1.0835459715845
 20
6.06637598772318
 30
0.0
 40
0.0787401574803147
 50
180
 51
270
  0
ARC
  8
5
  6
CONTINUOUS
 62
5
 10
3.08817935741127
 20
5.39236023969168
 30
0.0
 40
0.0787401574803146
 50
269.999999999999
 51
359.999999999999
  0
ARC
  8
5
  6
CONTINUOUS
 62
5
 10
2.48188014481284
 20
5.90417126331373
 30
0.0
 40
0.177165354330709
 50
269.999999999999
 51
89.9999999999998
  0
ARC
  8
5
  6
CONTINUOUS
 62
5
 10
2.48188014481284
 20
5.90417126331373
 30
0.0
 40
0.177165354330709
 50
89.9999999999998
 51
270
  0
ARC
  8
5
  6
CONTINUOUS
 62
5
 10
2.48188014481284
 20
5.56952559402239
 30
0.0
 40
0.0669291338582676
 50
269.999999999999
 51
89.9999999999998
  0
ARC
  8
5
  6
CONTINUOUS
 62
5
 10
2.48188014481284
 20
5.56952559402239
 30
0.0
 40
0.0669291338582676
 50
89.9999999999998
 51
270
  0
LINE
  8
5
  6
CONTINUOUS
 62
5
 10
1.00480581410418
 20
6.8303007350087
 30
0.0
 11
1.00480581410418
 21
7.17990703422129
 31
0.0
  0
LINE
  8
5
  6
CONTINUOUS
 62
5
 10
1.00480581410418
 20
7.50431648304019
 30
0.0
 11
1.00480581410418
 21
7.85392278225279
 31
0.0
  0
LINE
  8
5
  6
CONTINUOUS
 62
5
 10
1.60323101095457
 20
7.25864719170161
 30
0.0
 11
1.60323101095457
 21
7.42557632555988
 31
0.0
  0
LINE
  8
5
  6
CONTINUOUS
 62
5
 10
1.0835459715845
 20
7.25864719170161
 30
0.0
 11
1.60323101095457
 21
7.25864719170161
 31
0.0
  0
LINE
  8
5
  6
CONTINUOUS
 62
5
 10
1.60323101095457
 20
7.42557632555988
 30
0.0
 11
1.08354597158449
 21
7.42557632555988
 31
0.0
  0
LINE
  8
5
  6
CONTINUOUS
 62
5
 10
1.0835459715845
 20
6.75156057752838
 30
0.0
 11
3.08817935741127
 21
6.75156057752838
 31
0.0
  0
LINE
  8
5
  6
CONTINUOUS
 62
5
 10
3.16691951489158
 20
6.8303007350087
 30
0.0
 11
3.16691951489158
 21
7.85392278225279
 31
0.0
  0
LINE
  8
5
  6
CONTINUOUS
 62
5
 10
3.08817935741127
 20
7.9326629397331
 30
0.0
 11
1.0835459715845
 21
7.9326629397331
 31
0.0
  0
ARC
  8
5
  6
CONTINUOUS
 62
5
 10
3.08817935741127
 20
7.85392278225279
 30
0.0
 40
0.078740157480313
 50
1.1068330291493E-12
 51
90.0000000000011
  0
ARC
  8
5
  6
CONTINUOUS
 62
5
 10
1.22016014481284
 20
7.73581254603232
 30
0.0
 40
0.0669291338582676
 50
269.999999999999
 51
89.9999999999998
  0
ARC
  8
5
  6
CONTINUOUS
 62
5
 10
1.22016014481284
 20
7.73581254603232
 30
0.0
 40
0.0669291338582676
 50
89.9999999999998
 51
270
  0
ARC
  8
5
  6
CONTINUOUS
 62
5
 10
1.22016014481284
 20
6.94841097122917
 30
0.0
 40
0.0669291338582676
 50
269.999999999999
 51
89.9999999999998
  0
ARC
  8
5
  6
CONTINUOUS
 62
5
 10
1.22016014481284
 20
6.94841097122917
 30
0.0
 40
0.0669291338582676
 50
89.9999999999998
 51
270
  0
ARC
  8
5
  6
CONTINUOUS
 62
5
 10
2.48188014481284
 20
7.67675742792208
 30
0.0
 40
0.0669291338582676
 50
269.999999999999
 51
89.9999999999998
  0
ARC
  8
5
  6
CONTINUOUS
 62
5
 10
2.48188014481284
 20
7.67675742792208
 30
0.0
 40
0.0669291338582676
 50
89.9999999999998
 51
270
  0
ARC
  8
5
  6
CONTINUOUS
 62
5
 10
1.0835459715845
 20
7.85392278225279
 30
0.0
 40
0.0787401574803153
 50
90.0000000000001
 51
180
  0
ARC
  8
5
  6
CONTINUOUS
 62
5
 10
1.08354597158449
 20
6.8303007350087
 30
0.0
 40
0.0787401574803144
 50
180
 51
270
  0
ARC
  8
5
  6
CONTINUOUS
 62
5
 10
1.08354597158449
 20
7.17990703422129
 30
0.0
 40
0.0787401574803148
 50
89.9999999999998
 51
180
  0
ARC
  8
5
  6
CONTINUOUS
 62
5
 10
1.0835459715845
 20
7.50431648304019
 30
0.0
 40
0.0787401574803147
 50
180
 51
270
  0
ARC
  8
5
  6
CONTINUOUS
 62
5
 10
3.08817935741127
 20
6.8303007350087
 30
0.0
 40
0.0787401574803146
 50
269.999999999999
 51
359.999999999999
  0
ARC
  8
5
  6
CONTINUOUS
 62
5
 10
2.48188014481284
 20
7.34211175863074
 30
0.0
 40
0.177165354330709
 50
269.999999999999
 51
89.9999999999998
  0
ARC
  8
5
  6
CONTINUOUS
 62
5
 10
2.48188014481284
 20
7.34211175863074
 30
0.0
 40
0.177165354330709
 50
89.9999999999998
 51
270
  0
ARC
  8
5
  6
CONTINUOUS
 62
5
 10
2.48188014481284
 20
7.0074660893394
 30
0.0
 40
0.0669291338582676
 50
269.999999999999
 51
89.9999999999998
  0
ARC
  8
5
  6
CONTINUOUS
 62
5
 10
2.48188014481284
 20
7.0074660893394
 30
0.0
 40
0.0669291338582676
 50
89.9999999999998
 51
270
  0
LINE
  8
5
  6
CONTINUOUS
 62
5
 10
1.00480581410418
 20
8.26824123032571
 30
0.0
 11
1.00480581410418
 21
8.61784752953831
 31
0.0
  0
LINE
  8
5
  6
CONTINUOUS
 62
5
 10
1.00480581410418
 20
8.9422569783572
 30
0.0
 11
1.00480581410418
 21
9.2918632775698
 31
0.0
  0
LINE
  8
5
  6
CONTINUOUS
 62
5
 10
1.60323101095457
 20
8.69658768701862
 30
0.0
 11
1.60323101095457
 21
8.86351682087689
 31
0.0
  0
LINE
  8
5
  6
CONTINUOUS
 62
5
 10
1.0835459715845
 20
8.69658768701862
 30
0.0
 11
1.60323101095457
 21
8.69658768701862
 31
0.0
  0
LINE
  8
5
  6
CONTINUOUS
 62
5
 10
1.60323101095457
 20
8.86351682087689
 30
0.0
 11
1.08354597158449
 21
8.86351682087689
 31
0.0
  0
LINE
  8
5
  6
CONTINUOUS
 62
5
 10
1.0835459715845
 20
8.18950107284539
 30
0.0
 11
3.08817935741127
 21
8.18950107284539
 31
0.0
  0
LINE
  8
5
  6
CONTINUOUS
 62
5
 10
3.16691951489158
 20
8.26824123032571
 30
0.0
 11
3.16691951489158
 21
9.2918632775698
 31
0.0
  0
LINE
  8
5
  6
CONTINUOUS
 62
5
 10
3.08817935741127
 20
9.37060343505011
 30
0.0
 11
1.0835459715845
 21
9.37060343505012
 31
0.0
  0
ARC
  8
5
  6
CONTINUOUS
 62
5
 10
3.08817935741127
 20
9.2918632775698
 30
0.0
 40
0.078740157480313
 50
1.1068330291493E-12
 51
90.0000000000011
  0
ARC
  8
5
  6
CONTINUOUS
 62
5
 10
1.22016014481284
 20
9.17375304134933
 30
0.0
 40
0.0669291338582676
 50
269.999999999999
 51
89.9999999999998
  0
ARC
  8
5
  6
CONTINUOUS
 62
5
 10
1.22016014481284
 20
9.17375304134933
 30
0.0
 40
0.0669291338582676
 50
89.9999999999998
 51
270
  0
ARC
  8
5
  6
CONTINUOUS
 62
5
 10
1.22016014481284
 20
8.38635146654618
 30
0.0
 40
0.0669291338582676
 50
269.999999999999
 51
89.9999999999998
  0
ARC
  8
5
  6
CONTINUOUS
 62
5
 10
1.22016014481284
 20
8.38635146654618
 30
0.0
 40
0.0669291338582676
 50
89.9999999999998
 51
270
  0
ARC
  8
5
  6
CONTINUOUS
 62
5
 10
2.48188014481284
 20
9.1146979232391
 30
0.0
 40
0.0669291338582676
 50
269.999999999999
 51
89.9999999999998
  0
ARC
  8
5
  6
CONTINUOUS
 62
5
 10
2.48188014481284
 20
9.1146979232391
 30
0.0
 40
0.0669291338582676
 50
89.9999999999998
 51
270
  0
ARC
  8
5
  6
CONTINUOUS
 62
5
 10
1.08354597158449
 20
9.2918632775698
 30
0.0
 40
0.0787401574803148
 50
89.9999999999998
 51
180
  0
ARC
  8
5
  6
CONTINUOUS
 62
5
 10
1.0835459715845
 20
8.26824123032571
 30
0.0
 40
0.0787401574803148
 50
180
 51
270
  0
ARC
  8
5
  6
CONTINUOUS
 62
5
 10
1.08354597158449
 20
8.61784752953831
 30
0.0
 40
0.0787401574803148
 50
89.9999999999998
 51
180
  0
ARC
  8
5
  6
CONTINUOUS
 62
5
 10
1.0835459715845
 20
8.9422569783572
 30
0.0
 40
0.0787401574803147
 50
180
 51
270
  0
ARC
  8
5
  6
CONTINUOUS
 62
5
 10
3.08817935741127
 20
8.26824123032571
 30
0.0
 40
0.0787401574803151
 50
269.999999999999
 51
359.999999999999
  0
ARC
  8
5
  6
CONTINUOUS
 62
5
 10
2.48188014481284
 20
8.78005225394775
 30
0.0
 40
0.177165354330708
 50
269.999999999999
 51
89.9999999999998
  0
ARC
  8
5
  6
CONTINUOUS
 62
5
 10
2.48188014481284
 20
8.78005225394775
 30
0.0
 40
0.177165354330708
 50
89.9999999999998
 51
270
  0
ARC
  8
5
  6
CONTINUOUS
 62
5
 10
2.48188014481284
 20
8.44540658465642
 30
0.0
 40
0.0669291338582676
 50
269.999999999999
 51
89.9999999999998
  0
ARC
  8
5
  6
CONTINUOUS
 62
5
 10
2.48188014481284
 20
8.44540658465642
 30
0.0
 40
0.0669291338582676
 50
89.9999999999998
 51
270
  0
ENDSEC
  0
EOF
