  0
SECTION
  2
HEADER
  9
$ACADVER
  1
AC1003
  9
$EXTMIN
 10
1
 20
9.31553825496176
  9
$EXTMAX
 10
3.18413356465394
 20
1
  9
$INSBASE
 10
2.09206678232697
 20
5.15776912748088
999
Created with OMAX Layout for Windows. (http://www.omax.com) 5/13/2015
  0
ENDSEC
  0
SECTION
  2
TABLES
  0
TABLE
  2
LAYER
 70
    10
  0
LAYER
  2
0
 70
     0
 62
     7
  6
CONTINUOUS
  0
LAYER
  2
1
 70
     0
 62
     7
  6
CONTINUOUS
  0
LAYER
  2
2
 70
     0
 62
     7
  6
CONTINUOUS
  0
LAYER
  2
3
 70
     0
 62
     7
  6
CONTINUOUS
  0
LAYER
  2
4
 70
     0
 62
     7
  6
CONTINUOUS
  0
LAYER
  2
5
 70
     0
 62
     7
  6
CONTINUOUS
  0
LAYER
  2
6
 70
     0
 62
     7
  6
CONTINUOUS
  0
LAYER
  2
7
 70
     0
 62
     7
  6
CONTINUOUS
  0
LAYER
  2
8
 70
     0
 62
     7
  6
CONTINUOUS
  0
LAYER
  2
9
 70
     0
 62
     7
  6
CONTINUOUS
  0
LAYER
  2
10
 70
     0
 62
     7
  6
CONTINUOUS
  0
LAYER
  2
11
 70
     0
 62
     7
  6
CONTINUOUS
  0
LAYER
  2
12
 70
     0
 62
     7
  6
CONTINUOUS
  0
LAYER
  2
13
 70
     0
 62
     7
  6
CONTINUOUS
  0
LAYER
  2
14
 70
     0
 62
     7
  6
CONTINUOUS
  0
LAYER
  2
15
 70
     0
 62
     7
  6
CONTINUOUS
  0
LAYER
  2
16
 70
     0
 62
     7
  6
CONTINUOUS
  0
LAYER
  2
17
 70
     0
 62
     7
  6
CONTINUOUS
  0
LAYER
  2
18
 70
     0
 62
     7
  6
CONTINUOUS
  0
LAYER
  2
19
 70
     0
 62
     7
  6
CONTINUOUS
  0
LAYER
  2
20
 70
     0
 62
     7
  6
CONTINUOUS
  0
LAYER
  2
21
 70
     0
 62
     7
  6
CONTINUOUS
  0
LAYER
  2
22
 70
     0
 62
     7
  6
CONTINUOUS
  0
LAYER
  2
23
 70
     0
 62
     7
  6
CONTINUOUS
  0
LAYER
  2
24
 70
     0
 62
     7
  6
CONTINUOUS
  0
LAYER
  2
25
 70
     0
 62
     7
  6
CONTINUOUS
  0
LAYER
  2
26
 70
     0
 62
     7
  6
CONTINUOUS
  0
LAYER
  2
27
 70
     0
 62
     7
  6
CONTINUOUS
  0
LAYER
  2
28
 70
     0
 62
     7
  6
CONTINUOUS
  0
LAYER
  2
29
 70
     0
 62
     7
  6
CONTINUOUS
  0
LAYER
  2
30
 70
     0
 62
     7
  6
CONTINUOUS
  0
LAYER
  2
31
 70
     0
 62
     7
  6
CONTINUOUS
  0
ENDTAB
  0
ENDSEC
  0
SECTION
  2
ENTITIES
  0
LINE
  8
5
  6
CONTINUOUS
 62
5
 10
3.1621137007874
 20
1.07874015748031
 30
0.0
 11
3.1621137007874
 21
2.10236220472441
 31
0.0
  0
LINE
  8
5
  6
CONTINUOUS
 62
5
 10
1.07874015748031
 20
2.18110236220472
 30
0.0
 11
3.08337354330709
 21
2.18110236220472
 31
0.0
  0
LINE
  8
5
  6
CONTINUOUS
 62
5
 10
1
 20
1.07874015748031
 30
0.0
 11
1
 21
2.10236220472441
 31
0.0
  0
LINE
  8
5
  6
CONTINUOUS
 62
5
 10
3.08337354330709
 20
1
 30
0.0
 11
1.07874015748031
 21
1
 31
0.0
  0
ARC
  8
5
  6
CONTINUOUS
 62
5
 10
3.08337354330709
 20
2.10236220472441
 30
0.0
 40
0.0787401574803153
 50
359.999999999999
 51
89.9999999999998
  0
ARC
  8
5
  6
CONTINUOUS
 62
5
 10
3.08337354330709
 20
1.07874015748032
 30
0.0
 40
0.0787401574803147
 50
269.999999999999
 51
359.999999999999
  0
ARC
  8
5
  6
CONTINUOUS
 62
5
 10
2.78809795275591
 20
1.94488188976378
 30
0.0
 40
0.0669291338582678
 50
180
 51
360
  0
ARC
  8
5
  6
CONTINUOUS
 62
5
 10
2.78809795275591
 20
1.94488188976378
 30
0.0
 40
0.0669291338582678
 50
360
 51
180
  0
ARC
  8
5
  6
CONTINUOUS
 62
5
 10
2.78809795275591
 20
1.23622047244094
 30
0.0
 40
0.0669291338582678
 50
179.999999999999
 51
359.999999999999
  0
ARC
  8
5
  6
CONTINUOUS
 62
5
 10
2.78809795275591
 20
1.23622047244095
 30
0.0
 40
0.0669291338582678
 50
359.999999999999
 51
180
  0
ARC
  8
5
  6
CONTINUOUS
 62
5
 10
1.5748031496063
 20
1.59055118110236
 30
0.0
 40
0.177165354330709
 50
180
 51
360
  0
ARC
  8
5
  6
CONTINUOUS
 62
5
 10
1.5748031496063
 20
1.59055118110236
 30
0.0
 40
0.177165354330709
 50
359.999999999999
 51
180
  0
ARC
  8
5
  6
CONTINUOUS
 62
5
 10
1.07874015748031
 20
2.10236220472441
 30
0.0
 40
0.0787401574803151
 50
89.9999999999999
 51
180
  0
ARC
  8
5
  6
CONTINUOUS
 62
5
 10
1.07874015748031
 20
1.07874015748031
 30
0.0
 40
0.0787401574803148
 50
180
 51
270
  0
ARC
  8
5
  6
CONTINUOUS
 62
5
 10
1.5748031496063
 20
1.25590551181102
 30
0.0
 40
0.0669291338582676
 50
179.999999999999
 51
359.999999999999
  0
ARC
  8
5
  6
CONTINUOUS
 62
5
 10
1.5748031496063
 20
1.25590551181102
 30
0.0
 40
0.0669291338582676
 50
359.999999999999
 51
180
  0
ARC
  8
5
  6
CONTINUOUS
 62
5
 10
1.5748031496063
 20
1.9251968503937
 30
0.0
 40
0.0669291338582675
 50
179.999999999999
 51
359.999999999999
  0
ARC
  8
5
  6
CONTINUOUS
 62
5
 10
1.5748031496063
 20
1.9251968503937
 30
0.0
 40
0.0669291338582675
 50
359.999999999999
 51
180
  0
LINE
  8
5
  6
CONTINUOUS
 62
5
 10
3.16651767356071
 20
2.50562733603172
 30
0.0
 11
3.16651767356071
 21
3.52924938327582
 31
0.0
  0
LINE
  8
5
  6
CONTINUOUS
 62
5
 10
1.08314413025362
 20
3.60798954075613
 30
0.0
 11
3.08777751608039
 21
3.60798954075613
 31
0.0
  0
LINE
  8
5
  6
CONTINUOUS
 62
5
 10
1.00440397277331
 20
2.50562733603172
 30
0.0
 11
1.00440397277331
 21
3.52924938327582
 31
0.0
  0
LINE
  8
5
  6
CONTINUOUS
 62
5
 10
3.08777751608039
 20
2.42688717855141
 30
0.0
 11
1.08314413025362
 21
2.42688717855141
 31
0.0
  0
ARC
  8
5
  6
CONTINUOUS
 62
5
 10
3.08777751608039
 20
3.52924938327582
 30
0.0
 40
0.0787401574803153
 50
359.999999999999
 51
89.9999999999998
  0
ARC
  8
5
  6
CONTINUOUS
 62
5
 10
3.08777751608039
 20
2.50562733603172
 30
0.0
 40
0.0787401574803148
 50
269.999999999999
 51
359.999999999999
  0
ARC
  8
5
  6
CONTINUOUS
 62
5
 10
2.79250192552921
 20
3.37176906831519
 30
0.0
 40
0.0669291338582678
 50
179.999999999999
 51
359.999999999999
  0
ARC
  8
5
  6
CONTINUOUS
 62
5
 10
2.79250192552921
 20
3.37176906831519
 30
0.0
 40
0.0669291338582678
 50
359.999999999999
 51
180
  0
ARC
  8
5
  6
CONTINUOUS
 62
5
 10
2.79250192552921
 20
2.66310765099235
 30
0.0
 40
0.0669291338582678
 50
179.999999999999
 51
359.999999999999
  0
ARC
  8
5
  6
CONTINUOUS
 62
5
 10
2.79250192552921
 20
2.66310765099235
 30
0.0
 40
0.0669291338582678
 50
359.999999999999
 51
180
  0
ARC
  8
5
  6
CONTINUOUS
 62
5
 10
1.57920712237961
 20
3.01743835965377
 30
0.0
 40
0.177165354330709
 50
180
 51
360
  0
ARC
  8
5
  6
CONTINUOUS
 62
5
 10
1.57920712237961
 20
3.01743835965377
 30
0.0
 40
0.177165354330709
 50
359.999999999999
 51
180
  0
ARC
  8
5
  6
CONTINUOUS
 62
5
 10
1.08314413025362
 20
3.52924938327582
 30
0.0
 40
0.0787401574803151
 50
89.9999999999999
 51
180
  0
ARC
  8
5
  6
CONTINUOUS
 62
5
 10
1.08314413025362
 20
2.50562733603172
 30
0.0
 40
0.0787401574803148
 50
180
 51
270
  0
ARC
  8
5
  6
CONTINUOUS
 62
5
 10
1.57920712237961
 20
2.68279269036243
 30
0.0
 40
0.0669291338582676
 50
179.999999999999
 51
359.999999999999
  0
ARC
  8
5
  6
CONTINUOUS
 62
5
 10
1.57920712237961
 20
2.68279269036243
 30
0.0
 40
0.0669291338582676
 50
359.999999999999
 51
180
  0
ARC
  8
5
  6
CONTINUOUS
 62
5
 10
1.57920712237961
 20
3.35208402894511
 30
0.0
 40
0.0669291338582675
 50
179.999999999999
 51
359.999999999999
  0
ARC
  8
5
  6
CONTINUOUS
 62
5
 10
1.57920712237961
 20
3.35208402894511
 30
0.0
 40
0.0669291338582675
 50
359.999999999999
 51
180
  0
LINE
  8
5
  6
CONTINUOUS
 62
5
 10
3.17092164633402
 20
3.93251451458313
 30
0.0
 11
3.17092164633402
 21
4.95613656182722
 31
0.0
  0
LINE
  8
5
  6
CONTINUOUS
 62
5
 10
1.08754810302693
 20
5.03487671930754
 30
0.0
 11
3.0921814888537
 21
5.03487671930754
 31
0.0
  0
LINE
  8
5
  6
CONTINUOUS
 62
5
 10
1.00880794554661
 20
3.93251451458313
 30
0.0
 11
1.00880794554661
 21
4.95613656182722
 31
0.0
  0
LINE
  8
5
  6
CONTINUOUS
 62
5
 10
3.0921814888537
 20
3.85377435710281
 30
0.0
 11
1.08754810302693
 21
3.85377435710281
 31
0.0
  0
ARC
  8
5
  6
CONTINUOUS
 62
5
 10
3.0921814888537
 20
4.95613656182722
 30
0.0
 40
0.0787401574803151
 50
360
 51
90
  0
ARC
  8
5
  6
CONTINUOUS
 62
5
 10
3.0921814888537
 20
3.93251451458313
 30
0.0
 40
0.0787401574803148
 50
269.999999999999
 51
359.999999999999
  0
ARC
  8
5
  6
CONTINUOUS
 62
5
 10
2.79690589830252
 20
4.79865624686659
 30
0.0
 40
0.0669291338582678
 50
179.999999999999
 51
359.999999999999
  0
ARC
  8
5
  6
CONTINUOUS
 62
5
 10
2.79690589830252
 20
4.7986562468666
 30
0.0
 40
0.0669291338582678
 50
359.999999999999
 51
180
  0
ARC
  8
5
  6
CONTINUOUS
 62
5
 10
2.79690589830252
 20
4.08999482954376
 30
0.0
 40
0.0669291338582678
 50
179.999999999999
 51
359.999999999999
  0
ARC
  8
5
  6
CONTINUOUS
 62
5
 10
2.79690589830252
 20
4.08999482954376
 30
0.0
 40
0.0669291338582678
 50
359.999999999999
 51
180
  0
ARC
  8
5
  6
CONTINUOUS
 62
5
 10
1.58361109515291
 20
4.44432553820518
 30
0.0
 40
0.177165354330709
 50
180
 51
360
  0
ARC
  8
5
  6
CONTINUOUS
 62
5
 10
1.58361109515291
 20
4.44432553820518
 30
0.0
 40
0.177165354330709
 50
359.999999999999
 51
180
  0
ARC
  8
5
  6
CONTINUOUS
 62
5
 10
1.08754810302693
 20
4.95613656182722
 30
0.0
 40
0.0787401574803149
 50
89.9999999999997
 51
180
  0
ARC
  8
5
  6
CONTINUOUS
 62
5
 10
1.08754810302693
 20
3.93251451458313
 30
0.0
 40
0.0787401574803148
 50
180
 51
270
  0
ARC
  8
5
  6
CONTINUOUS
 62
5
 10
1.58361109515291
 20
4.10967986891384
 30
0.0
 40
0.0669291338582676
 50
179.999999999999
 51
359.999999999999
  0
ARC
  8
5
  6
CONTINUOUS
 62
5
 10
1.58361109515291
 20
4.10967986891384
 30
0.0
 40
0.0669291338582676
 50
359.999999999999
 51
180
  0
ARC
  8
5
  6
CONTINUOUS
 62
5
 10
1.58361109515291
 20
4.77897120749651
 30
0.0
 40
0.0669291338582675
 50
179.999999999999
 51
359.999999999999
  0
ARC
  8
5
  6
CONTINUOUS
 62
5
 10
1.58361109515291
 20
4.77897120749652
 30
0.0
 40
0.0669291338582675
 50
359.999999999999
 51
180
  0
LINE
  8
5
  6
CONTINUOUS
 62
5
 10
3.17532561910732
 20
5.35940169313454
 30
0.0
 11
3.17532561910732
 21
6.38302374037863
 31
0.0
  0
LINE
  8
5
  6
CONTINUOUS
 62
5
 10
1.09195207580024
 20
6.46176389785895
 30
0.0
 11
3.09658546162701
 21
6.46176389785895
 31
0.0
  0
LINE
  8
5
  6
CONTINUOUS
 62
5
 10
1.01321191831992
 20
5.35940169313454
 30
0.0
 11
1.01321191831992
 21
6.38302374037863
 31
0.0
  0
LINE
  8
5
  6
CONTINUOUS
 62
5
 10
3.09658546162701
 20
5.28066153565422
 30
0.0
 11
1.09195207580024
 21
5.28066153565422
 31
0.0
  0
ARC
  8
5
  6
CONTINUOUS
 62
5
 10
3.09658546162701
 20
6.38302374037863
 30
0.0
 40
0.0787401574803151
 50
360
 51
90
  0
ARC
  8
5
  6
CONTINUOUS
 62
5
 10
3.09658546162701
 20
5.35940169313454
 30
0.0
 40
0.0787401574803148
 50
269.999999999999
 51
359.999999999999
  0
ARC
  8
5
  6
CONTINUOUS
 62
5
 10
2.80130987107583
 20
6.225543425418
 30
0.0
 40
0.0669291338582678
 50
179.999999999999
 51
359.999999999999
  0
ARC
  8
5
  6
CONTINUOUS
 62
5
 10
2.80130987107583
 20
6.225543425418
 30
0.0
 40
0.0669291338582678
 50
359.999999999999
 51
180
  0
ARC
  8
5
  6
CONTINUOUS
 62
5
 10
2.80130987107583
 20
5.51688200809517
 30
0.0
 40
0.0669291338582678
 50
179.999999999999
 51
359.999999999999
  0
ARC
  8
5
  6
CONTINUOUS
 62
5
 10
2.80130987107583
 20
5.51688200809517
 30
0.0
 40
0.0669291338582678
 50
359.999999999999
 51
180
  0
ARC
  8
5
  6
CONTINUOUS
 62
5
 10
1.58801506792622
 20
5.87121271675658
 30
0.0
 40
0.177165354330709
 50
180
 51
360
  0
ARC
  8
5
  6
CONTINUOUS
 62
5
 10
1.58801506792622
 20
5.87121271675658
 30
0.0
 40
0.177165354330709
 50
359.999999999999
 51
180
  0
ARC
  8
5
  6
CONTINUOUS
 62
5
 10
1.09195207580024
 20
6.38302374037863
 30
0.0
 40
0.0787401574803149
 50
89.9999999999997
 51
180
  0
ARC
  8
5
  6
CONTINUOUS
 62
5
 10
1.09195207580024
 20
5.35940169313454
 30
0.0
 40
0.0787401574803148
 50
180
 51
270
  0
ARC
  8
5
  6
CONTINUOUS
 62
5
 10
1.58801506792622
 20
5.53656704746524
 30
0.0
 40
0.0669291338582676
 50
179.999999999999
 51
359.999999999999
  0
ARC
  8
5
  6
CONTINUOUS
 62
5
 10
1.58801506792622
 20
5.53656704746525
 30
0.0
 40
0.0669291338582676
 50
359.999999999999
 51
180
  0
ARC
  8
5
  6
CONTINUOUS
 62
5
 10
1.58801506792622
 20
6.20585838604792
 30
0.0
 40
0.0669291338582675
 50
179.999999999999
 51
359.999999999999
  0
ARC
  8
5
  6
CONTINUOUS
 62
5
 10
1.58801506792622
 20
6.20585838604792
 30
0.0
 40
0.0669291338582675
 50
359.999999999999
 51
180
  0
LINE
  8
5
  6
CONTINUOUS
 62
5
 10
3.17972959188063
 20
6.78628887168594
 30
0.0
 11
3.17972959188063
 21
7.80991091893004
 31
0.0
  0
LINE
  8
5
  6
CONTINUOUS
 62
5
 10
1.09635604857354
 20
7.88865107641035
 30
0.0
 11
3.10098943440031
 21
7.88865107641035
 31
0.0
  0
LINE
  8
5
  6
CONTINUOUS
 62
5
 10
1.01761589109323
 20
6.78628887168594
 30
0.0
 11
1.01761589109323
 21
7.80991091893004
 31
0.0
  0
LINE
  8
5
  6
CONTINUOUS
 62
5
 10
3.10098943440032
 20
6.70754871420563
 30
0.0
 11
1.09635604857354
 21
6.70754871420563
 31
0.0
  0
ARC
  8
5
  6
CONTINUOUS
 62
5
 10
3.10098943440031
 20
7.80991091893004
 30
0.0
 40
0.0787401574803151
 50
360
 51
90
  0
ARC
  8
5
  6
CONTINUOUS
 62
5
 10
3.10098943440032
 20
6.78628887168594
 30
0.0
 40
0.0787401574803148
 50
269.999999999999
 51
359.999999999999
  0
ARC
  8
5
  6
CONTINUOUS
 62
5
 10
2.80571384384913
 20
7.65243060396941
 30
0.0
 40
0.0669291338582678
 50
179.999999999999
 51
359.999999999999
  0
ARC
  8
5
  6
CONTINUOUS
 62
5
 10
2.80571384384913
 20
7.65243060396941
 30
0.0
 40
0.0669291338582678
 50
359.999999999999
 51
180
  0
ARC
  8
5
  6
CONTINUOUS
 62
5
 10
2.80571384384913
 20
6.94376918664657
 30
0.0
 40
0.0669291338582678
 50
179.999999999999
 51
359.999999999999
  0
ARC
  8
5
  6
CONTINUOUS
 62
5
 10
2.80571384384913
 20
6.94376918664657
 30
0.0
 40
0.0669291338582678
 50
359.999999999999
 51
180
  0
ARC
  8
5
  6
CONTINUOUS
 62
5
 10
1.59241904069953
 20
7.29809989530799
 30
0.0
 40
0.177165354330709
 50
180
 51
360
  0
ARC
  8
5
  6
CONTINUOUS
 62
5
 10
1.59241904069953
 20
7.29809989530799
 30
0.0
 40
0.177165354330709
 50
359.999999999999
 51
180
  0
ARC
  8
5
  6
CONTINUOUS
 62
5
 10
1.09635604857354
 20
7.80991091893004
 30
0.0
 40
0.0787401574803149
 50
89.9999999999997
 51
180
  0
ARC
  8
5
  6
CONTINUOUS
 62
5
 10
1.09635604857354
 20
6.78628887168594
 30
0.0
 40
0.0787401574803148
 50
180
 51
270
  0
ARC
  8
5
  6
CONTINUOUS
 62
5
 10
1.59241904069953
 20
6.96345422601665
 30
0.0
 40
0.0669291338582676
 50
179.999999999999
 51
359.999999999999
  0
ARC
  8
5
  6
CONTINUOUS
 62
5
 10
1.59241904069953
 20
6.96345422601665
 30
0.0
 40
0.0669291338582676
 50
359.999999999999
 51
180
  0
ARC
  8
5
  6
CONTINUOUS
 62
5
 10
1.59241904069953
 20
7.63274556459933
 30
0.0
 40
0.0669291338582675
 50
179.999999999999
 51
359.999999999999
  0
ARC
  8
5
  6
CONTINUOUS
 62
5
 10
1.59241904069953
 20
7.63274556459933
 30
0.0
 40
0.0669291338582675
 50
359.999999999999
 51
180
  0
LINE
  8
5
  6
CONTINUOUS
 62
5
 10
3.18413356465394
 20
8.21317605023735
 30
0.0
 11
3.18413356465394
 21
9.23679809748145
 31
0.0
  0
LINE
  8
5
  6
CONTINUOUS
 62
5
 10
1.10076002134685
 20
9.31553825496176
 30
0.0
 11
3.10539340717362
 21
9.31553825496176
 31
0.0
  0
LINE
  8
5
  6
CONTINUOUS
 62
5
 10
1.02201986386654
 20
8.21317605023735
 30
0.0
 11
1.02201986386654
 21
9.23679809748145
 31
0.0
  0
LINE
  8
5
  6
CONTINUOUS
 62
5
 10
3.10539340717362
 20
8.13443589275704
 30
0.0
 11
1.10076002134685
 21
8.13443589275704
 31
0.0
  0
ARC
  8
5
  6
CONTINUOUS
 62
5
 10
3.10539340717362
 20
9.23679809748145
 30
0.0
 40
0.0787401574803151
 50
360
 51
90
  0
ARC
  8
5
  6
CONTINUOUS
 62
5
 10
3.10539340717362
 20
8.21317605023735
 30
0.0
 40
0.0787401574803148
 50
269.999999999999
 51
359.999999999999
  0
ARC
  8
5
  6
CONTINUOUS
 62
5
 10
2.81011781662244
 20
9.07931778252082
 30
0.0
 40
0.0669291338582678
 50
179.999999999999
 51
359.999999999999
  0
ARC
  8
5
  6
CONTINUOUS
 62
5
 10
2.81011781662244
 20
9.07931778252082
 30
0.0
 40
0.0669291338582678
 50
359.999999999999
 51
180
  0
ARC
  8
5
  6
CONTINUOUS
 62
5
 10
2.81011781662244
 20
8.37065636519798
 30
0.0
 40
0.0669291338582678
 50
179.999999999999
 51
359.999999999999
  0
ARC
  8
5
  6
CONTINUOUS
 62
5
 10
2.81011781662244
 20
8.37065636519798
 30
0.0
 40
0.0669291338582678
 50
359.999999999999
 51
180
  0
ARC
  8
5
  6
CONTINUOUS
 62
5
 10
1.59682301347283
 20
8.7249870738594
 30
0.0
 40
0.177165354330709
 50
180
 51
360
  0
ARC
  8
5
  6
CONTINUOUS
 62
5
 10
1.59682301347283
 20
8.7249870738594
 30
0.0
 40
0.177165354330709
 50
359.999999999999
 51
180
  0
ARC
  8
5
  6
CONTINUOUS
 62
5
 10
1.10076002134685
 20
9.23679809748145
 30
0.0
 40
0.0787401574803149
 50
89.9999999999997
 51
180
  0
ARC
  8
5
  6
CONTINUOUS
 62
5
 10
1.10076002134685
 20
8.21317605023735
 30
0.0
 40
0.0787401574803148
 50
180
 51
270
  0
ARC
  8
5
  6
CONTINUOUS
 62
5
 10
1.59682301347283
 20
8.39034140456806
 30
0.0
 40
0.0669291338582676
 50
179.999999999999
 51
359.999999999999
  0
ARC
  8
5
  6
CONTINUOUS
 62
5
 10
1.59682301347283
 20
8.39034140456806
 30
0.0
 40
0.0669291338582676
 50
359.999999999999
 51
180
  0
ARC
  8
5
  6
CONTINUOUS
 62
5
 10
1.59682301347283
 20
9.05963274315074
 30
0.0
 40
0.0669291338582675
 50
179.999999999999
 51
359.999999999999
  0
ARC
  8
5
  6
CONTINUOUS
 62
5
 10
1.59682301347283
 20
9.05963274315074
 30
0.0
 40
0.0669291338582675
 50
359.999999999999
 51
180
  0
ENDSEC
  0
EOF
