  0
SECTION
  2
HEADER
  9
$ACADVER
  1
AC1003
  9
$EXTMIN
 10
0.982308407278508
 20
8.92159918909126
  9
$EXTMAX
 10
1.43070866141733
 20
0.999999999999995
  9
$INSBASE
 10
1.20650853434792
 20
4.96079959454563
999
Created with OMAX Layout for Windows. (http://www.omax.com) 5/4/2015
  0
ENDSEC
  0
SECTION
  2
TABLES
  0
TABLE
  2
LAYER
 70
    10
  0
LAYER
  2
0
 70
     0
 62
     7
  6
CONTINUOUS
  0
LAYER
  2
1
 70
     0
 62
     7
  6
CONTINUOUS
  0
LAYER
  2
2
 70
     0
 62
     7
  6
CONTINUOUS
  0
LAYER
  2
3
 70
     0
 62
     7
  6
CONTINUOUS
  0
LAYER
  2
4
 70
     0
 62
     7
  6
CONTINUOUS
  0
LAYER
  2
5
 70
     0
 62
     7
  6
CONTINUOUS
  0
LAYER
  2
6
 70
     0
 62
     7
  6
CONTINUOUS
  0
LAYER
  2
7
 70
     0
 62
     7
  6
CONTINUOUS
  0
LAYER
  2
8
 70
     0
 62
     7
  6
CONTINUOUS
  0
LAYER
  2
9
 70
     0
 62
     7
  6
CONTINUOUS
  0
LAYER
  2
10
 70
     0
 62
     7
  6
CONTINUOUS
  0
LAYER
  2
11
 70
     0
 62
     7
  6
CONTINUOUS
  0
LAYER
  2
12
 70
     0
 62
     7
  6
CONTINUOUS
  0
LAYER
  2
13
 70
     0
 62
     7
  6
CONTINUOUS
  0
LAYER
  2
14
 70
     0
 62
     7
  6
CONTINUOUS
  0
LAYER
  2
15
 70
     0
 62
     7
  6
CONTINUOUS
  0
LAYER
  2
16
 70
     0
 62
     7
  6
CONTINUOUS
  0
LAYER
  2
17
 70
     0
 62
     7
  6
CONTINUOUS
  0
LAYER
  2
18
 70
     0
 62
     7
  6
CONTINUOUS
  0
LAYER
  2
19
 70
     0
 62
     7
  6
CONTINUOUS
  0
LAYER
  2
20
 70
     0
 62
     7
  6
CONTINUOUS
  0
LAYER
  2
21
 70
     0
 62
     7
  6
CONTINUOUS
  0
LAYER
  2
22
 70
     0
 62
     7
  6
CONTINUOUS
  0
LAYER
  2
23
 70
     0
 62
     7
  6
CONTINUOUS
  0
LAYER
  2
24
 70
     0
 62
     7
  6
CONTINUOUS
  0
LAYER
  2
25
 70
     0
 62
     7
  6
CONTINUOUS
  0
LAYER
  2
26
 70
     0
 62
     7
  6
CONTINUOUS
  0
LAYER
  2
27
 70
     0
 62
     7
  6
CONTINUOUS
  0
LAYER
  2
28
 70
     0
 62
     7
  6
CONTINUOUS
  0
LAYER
  2
29
 70
     0
 62
     7
  6
CONTINUOUS
  0
LAYER
  2
30
 70
     0
 62
     7
  6
CONTINUOUS
  0
LAYER
  2
31
 70
     0
 62
     7
  6
CONTINUOUS
  0
ENDTAB
  0
ENDSEC
  0
SECTION
  2
ENTITIES
  0
LINE
  8
5
  6
CONTINUOUS
 62
5
 10
1
 20
1.07874015748031
 30
0.0
 11
1
 21
2.10236220472441
 31
0.0
  0
LINE
  8
5
  6
CONTINUOUS
 62
5
 10
1.43070866141732
 20
2.10236220472441
 30
0.0
 11
1.43070866141732
 21
1.07874015748031
 31
0.0
  0
LINE
  8
5
  6
CONTINUOUS
 62
5
 10
1.07874015748031
 20
2.18110236220472
 30
0.0
 11
1.35196850393701
 21
2.18110236220472
 31
0.0
  0
LINE
  8
5
  6
CONTINUOUS
 62
5
 10
1.35196850393701
 20
1
 30
0.0
 11
1.07874015748031
 21
1
 31
0.0
  0
ARC
  8
5
  6
CONTINUOUS
 62
5
 10
1.21535433070866
 20
1.98425196850394
 30
0.0
 40
0.0669291338582678
 50
179.999999999999
 51
359.999999999999
  0
ARC
  8
5
  6
CONTINUOUS
 62
5
 10
1.21535433070866
 20
1.98425196850394
 30
0.0
 40
0.0669291338582678
 50
359.999999999999
 51
180
  0
ARC
  8
5
  6
CONTINUOUS
 62
5
 10
1.21535433070866
 20
1.19685039370079
 30
0.0
 40
0.0669291338582676
 50
179.999999999999
 51
359.999999999999
  0
ARC
  8
5
  6
CONTINUOUS
 62
5
 10
1.21535433070866
 20
1.19685039370079
 30
0.0
 40
0.0669291338582675
 50
359.999999999998
 51
89.9999999999993
  0
ARC
  8
5
  6
CONTINUOUS
 62
5
 10
1.21535433070866
 20
1.19685039370079
 30
0.0
 40
0.0669291338582676
 50
89.9999999999993
 51
180
  0
ARC
  8
5
  6
CONTINUOUS
 62
5
 10
1.07874015748031
 20
2.10236220472441
 30
0.0
 40
0.0787401574803149
 50
89.9999999999998
 51
180
  0
ARC
  8
5
  6
CONTINUOUS
 62
5
 10
1.07874015748031
 20
1.07874015748031
 30
0.0
 40
0.0787401574803148
 50
180
 51
270
  0
ARC
  8
5
  6
CONTINUOUS
 62
5
 10
1.35196850393701
 20
2.10236220472441
 30
0.0
 40
0.0787401574803152
 50
359.999999999998
 51
89.9999999999995
  0
ARC
  8
5
  6
CONTINUOUS
 62
5
 10
1.35196850393701
 20
1.07874015748032
 30
0.0
 40
0.0787401574803148
 50
269.999999999998
 51
359.999999999998
  0
LINE
  8
5
  6
CONTINUOUS
 62
5
 10
0.996461681455703
 20
2.42683952285762
 30
0.0
 11
0.996461681455703
 21
3.45046157010172
 31
0.0
  0
LINE
  8
5
  6
CONTINUOUS
 62
5
 10
1.42717034287302
 20
3.45046157010172
 30
0.0
 11
1.42717034287302
 21
2.42683952285762
 31
0.0
  0
LINE
  8
5
  6
CONTINUOUS
 62
5
 10
1.07520183893601
 20
3.52920172758203
 30
0.0
 11
1.34843018539271
 21
3.52920172758203
 31
0.0
  0
LINE
  8
5
  6
CONTINUOUS
 62
5
 10
1.34843018539271
 20
2.34809936537731
 30
0.0
 11
1.07520183893601
 21
2.34809936537731
 31
0.0
  0
ARC
  8
5
  6
CONTINUOUS
 62
5
 10
1.21181601216436
 20
3.33235133388125
 30
0.0
 40
0.0669291338582678
 50
179.999999999999
 51
359.999999999999
  0
ARC
  8
5
  6
CONTINUOUS
 62
5
 10
1.21181601216436
 20
3.33235133388125
 30
0.0
 40
0.0669291338582678
 50
359.999999999999
 51
180
  0
ARC
  8
5
  6
CONTINUOUS
 62
5
 10
1.21181601216436
 20
2.5449497590781
 30
0.0
 40
0.0669291338582676
 50
179.999999999999
 51
359.999999999999
  0
ARC
  8
5
  6
CONTINUOUS
 62
5
 10
1.21181601216436
 20
2.5449497590781
 30
0.0
 40
0.0669291338582676
 50
359.999999999998
 51
89.9999999999992
  0
ARC
  8
5
  6
CONTINUOUS
 62
5
 10
1.21181601216436
 20
2.5449497590781
 30
0.0
 40
0.0669291338582676
 50
89.9999999999993
 51
180
  0
ARC
  8
5
  6
CONTINUOUS
 62
5
 10
1.07520183893601
 20
3.45046157010172
 30
0.0
 40
0.0787401574803149
 50
89.9999999999998
 51
180
  0
ARC
  8
5
  6
CONTINUOUS
 62
5
 10
1.07520183893601
 20
2.42683952285762
 30
0.0
 40
0.0787401574803148
 50
180
 51
270
  0
ARC
  8
5
  6
CONTINUOUS
 62
5
 10
1.34843018539271
 20
3.45046157010172
 30
0.0
 40
0.0787401574803152
 50
359.999999999998
 51
89.9999999999995
  0
ARC
  8
5
  6
CONTINUOUS
 62
5
 10
1.34843018539271
 20
2.42683952285763
 30
0.0
 40
0.0787401574803151
 50
269.999999999999
 51
359.999999999999
  0
LINE
  8
5
  6
CONTINUOUS
 62
5
 10
0.992923362911405
 20
3.77493888823492
 30
0.0
 11
0.992923362911405
 21
4.79856093547902
 31
0.0
  0
LINE
  8
5
  6
CONTINUOUS
 62
5
 10
1.42363202432873
 20
4.79856093547902
 30
0.0
 11
1.42363202432873
 21
3.77493888823492
 31
0.0
  0
LINE
  8
5
  6
CONTINUOUS
 62
5
 10
1.07166352039172
 20
4.87730109295933
 30
0.0
 11
1.34489186684842
 21
4.87730109295933
 31
0.0
  0
LINE
  8
5
  6
CONTINUOUS
 62
5
 10
1.34489186684842
 20
3.69619873075461
 30
0.0
 11
1.07166352039172
 21
3.69619873075461
 31
0.0
  0
ARC
  8
5
  6
CONTINUOUS
 62
5
 10
1.20827769362007
 20
4.68045069925855
 30
0.0
 40
0.0669291338582678
 50
179.999999999999
 51
359.999999999999
  0
ARC
  8
5
  6
CONTINUOUS
 62
5
 10
1.20827769362007
 20
4.68045069925855
 30
0.0
 40
0.0669291338582678
 50
359.999999999999
 51
180
  0
ARC
  8
5
  6
CONTINUOUS
 62
5
 10
1.20827769362007
 20
3.8930491244554
 30
0.0
 40
0.0669291338582676
 50
179.999999999999
 51
359.999999999999
  0
ARC
  8
5
  6
CONTINUOUS
 62
5
 10
1.20827769362007
 20
3.8930491244554
 30
0.0
 40
0.0669291338582674
 50
359.999999999999
 51
89.9999999999994
  0
ARC
  8
5
  6
CONTINUOUS
 62
5
 10
1.20827769362006
 20
3.8930491244554
 30
0.0
 40
0.0669291338582676
 50
89.9999999999993
 51
180
  0
ARC
  8
5
  6
CONTINUOUS
 62
5
 10
1.07166352039171
 20
4.79856093547902
 30
0.0
 40
0.0787401574803149
 50
89.9999999999998
 51
180
  0
ARC
  8
5
  6
CONTINUOUS
 62
5
 10
1.07166352039172
 20
3.77493888823492
 30
0.0
 40
0.0787401574803148
 50
180
 51
270
  0
ARC
  8
5
  6
CONTINUOUS
 62
5
 10
1.34489186684842
 20
4.79856093547902
 30
0.0
 40
0.0787401574803152
 50
359.999999999998
 51
89.9999999999995
  0
ARC
  8
5
  6
CONTINUOUS
 62
5
 10
1.34489186684842
 20
3.77493888823493
 30
0.0
 40
0.0787401574803146
 50
269.999999999998
 51
359.999999999998
  0
LINE
  8
5
  6
CONTINUOUS
 62
5
 10
0.989385044367108
 20
5.12303825361223
 30
0.0
 11
0.989385044367108
 21
6.14666030085633
 31
0.0
  0
LINE
  8
5
  6
CONTINUOUS
 62
5
 10
1.42009370578443
 20
6.14666030085633
 30
0.0
 11
1.42009370578443
 21
5.12303825361223
 31
0.0
  0
LINE
  8
5
  6
CONTINUOUS
 62
5
 10
1.06812520184742
 20
6.22540045833664
 30
0.0
 11
1.34135354830412
 21
6.22540045833664
 31
0.0
  0
LINE
  8
5
  6
CONTINUOUS
 62
5
 10
1.34135354830412
 20
5.04429809613192
 30
0.0
 11
1.06812520184742
 21
5.04429809613192
 31
0.0
  0
ARC
  8
5
  6
CONTINUOUS
 62
5
 10
1.20473937507577
 20
6.02855006463586
 30
0.0
 40
0.0669291338582678
 50
179.999999999999
 51
359.999999999999
  0
ARC
  8
5
  6
CONTINUOUS
 62
5
 10
1.20473937507577
 20
6.02855006463586
 30
0.0
 40
0.0669291338582678
 50
359.999999999999
 51
180
  0
ARC
  8
5
  6
CONTINUOUS
 62
5
 10
1.20473937507577
 20
5.24114848983271
 30
0.0
 40
0.0669291338582676
 50
179.999999999999
 51
359.999999999999
  0
ARC
  8
5
  6
CONTINUOUS
 62
5
 10
1.20473937507577
 20
5.24114848983271
 30
0.0
 40
0.0669291338582674
 50
359.999999999999
 51
89.9999999999994
  0
ARC
  8
5
  6
CONTINUOUS
 62
5
 10
1.20473937507577
 20
5.24114848983271
 30
0.0
 40
0.0669291338582676
 50
89.9999999999993
 51
180
  0
ARC
  8
5
  6
CONTINUOUS
 62
5
 10
1.06812520184742
 20
6.14666030085633
 30
0.0
 40
0.0787401574803149
 50
89.9999999999998
 51
180
  0
ARC
  8
5
  6
CONTINUOUS
 62
5
 10
1.06812520184742
 20
5.12303825361223
 30
0.0
 40
0.0787401574803148
 50
180
 51
270
  0
ARC
  8
5
  6
CONTINUOUS
 62
5
 10
1.34135354830412
 20
6.14666030085633
 30
0.0
 40
0.0787401574803152
 50
359.999999999998
 51
89.9999999999995
  0
ARC
  8
5
  6
CONTINUOUS
 62
5
 10
1.34135354830412
 20
5.12303825361224
 30
0.0
 40
0.0787401574803146
 50
269.999999999998
 51
359.999999999998
  0
LINE
  8
5
  6
CONTINUOUS
 62
5
 10
0.98584672582281
 20
6.47113761898954
 30
0.0
 11
0.98584672582281
 21
7.49475966623364
 31
0.0
  0
LINE
  8
5
  6
CONTINUOUS
 62
5
 10
1.41655538724013
 20
7.49475966623364
 30
0.0
 11
1.41655538724013
 21
6.47113761898954
 31
0.0
  0
LINE
  8
5
  6
CONTINUOUS
 62
5
 10
1.06458688330312
 20
7.57349982371395
 30
0.0
 11
1.33781522975982
 21
7.57349982371395
 31
0.0
  0
LINE
  8
5
  6
CONTINUOUS
 62
5
 10
1.33781522975982
 20
6.39239746150923
 30
0.0
 11
1.06458688330312
 21
6.39239746150923
 31
0.0
  0
ARC
  8
5
  6
CONTINUOUS
 62
5
 10
1.20120105653147
 20
7.37664943001317
 30
0.0
 40
0.0669291338582678
 50
179.999999999999
 51
359.999999999999
  0
ARC
  8
5
  6
CONTINUOUS
 62
5
 10
1.20120105653147
 20
7.37664943001317
 30
0.0
 40
0.0669291338582678
 50
359.999999999999
 51
180
  0
ARC
  8
5
  6
CONTINUOUS
 62
5
 10
1.20120105653147
 20
6.58924785521002
 30
0.0
 40
0.0669291338582676
 50
179.999999999999
 51
359.999999999999
  0
ARC
  8
5
  6
CONTINUOUS
 62
5
 10
1.20120105653147
 20
6.58924785521002
 30
0.0
 40
0.0669291338582674
 50
359.999999999999
 51
89.9999999999994
  0
ARC
  8
5
  6
CONTINUOUS
 62
5
 10
1.20120105653147
 20
6.58924785521002
 30
0.0
 40
0.0669291338582676
 50
89.9999999999993
 51
180
  0
ARC
  8
5
  6
CONTINUOUS
 62
5
 10
1.06458688330312
 20
7.49475966623364
 30
0.0
 40
0.0787401574803149
 50
89.9999999999998
 51
180
  0
ARC
  8
5
  6
CONTINUOUS
 62
5
 10
1.06458688330312
 20
6.47113761898954
 30
0.0
 40
0.0787401574803148
 50
180
 51
270
  0
ARC
  8
5
  6
CONTINUOUS
 62
5
 10
1.33781522975982
 20
7.49475966623364
 30
0.0
 40
0.0787401574803152
 50
359.999999999998
 51
89.9999999999995
  0
ARC
  8
5
  6
CONTINUOUS
 62
5
 10
1.33781522975982
 20
6.47113761898955
 30
0.0
 40
0.0787401574803146
 50
269.999999999998
 51
359.999999999998
  0
LINE
  8
5
  6
CONTINUOUS
 62
5
 10
0.982308407278513
 20
7.81923698436684
 30
0.0
 11
0.982308407278513
 21
8.84285903161095
 31
0.0
  0
LINE
  8
5
  6
CONTINUOUS
 62
5
 10
1.41301706869583
 20
8.84285903161095
 30
0.0
 11
1.41301706869583
 21
7.81923698436684
 31
0.0
  0
LINE
  8
5
  6
CONTINUOUS
 62
5
 10
1.06104856475882
 20
8.92159918909126
 30
0.0
 11
1.33427691121552
 21
8.92159918909126
 31
0.0
  0
LINE
  8
5
  6
CONTINUOUS
 62
5
 10
1.33427691121552
 20
7.74049682688653
 30
0.0
 11
1.06104856475882
 21
7.74049682688653
 31
0.0
  0
ARC
  8
5
  6
CONTINUOUS
 62
5
 10
1.19766273798717
 20
8.72474879539048
 30
0.0
 40
0.0669291338582678
 50
179.999999999999
 51
359.999999999999
  0
ARC
  8
5
  6
CONTINUOUS
 62
5
 10
1.19766273798717
 20
8.72474879539048
 30
0.0
 40
0.0669291338582678
 50
359.999999999999
 51
180
  0
ARC
  8
5
  6
CONTINUOUS
 62
5
 10
1.19766273798717
 20
7.93734722058732
 30
0.0
 40
0.0669291338582676
 50
179.999999999999
 51
359.999999999999
  0
ARC
  8
5
  6
CONTINUOUS
 62
5
 10
1.19766273798717
 20
7.93734722058733
 30
0.0
 40
0.0669291338582674
 50
359.999999999999
 51
89.9999999999994
  0
ARC
  8
5
  6
CONTINUOUS
 62
5
 10
1.19766273798717
 20
7.93734722058732
 30
0.0
 40
0.0669291338582676
 50
89.9999999999993
 51
180
  0
ARC
  8
5
  6
CONTINUOUS
 62
5
 10
1.06104856475882
 20
8.84285903161095
 30
0.0
 40
0.0787401574803149
 50
89.9999999999998
 51
180
  0
ARC
  8
5
  6
CONTINUOUS
 62
5
 10
1.06104856475882
 20
7.81923698436684
 30
0.0
 40
0.0787401574803148
 50
180
 51
270
  0
ARC
  8
5
  6
CONTINUOUS
 62
5
 10
1.33427691121552
 20
8.84285903161095
 30
0.0
 40
0.0787401574803152
 50
359.999999999998
 51
89.9999999999995
  0
ARC
  8
5
  6
CONTINUOUS
 62
5
 10
1.33427691121552
 20
7.81923698436685
 30
0.0
 40
0.0787401574803146
 50
269.999999999998
 51
359.999999999998
  0
ENDSEC
  0
EOF
