  0
SECTION
  2
HEADER
  9
$ACADVER
  1
AC1003
  9
$EXTMIN
 10
1
 20
5.71902530115003
  9
$EXTMAX
 10
1.62992125984252
 20
1
  9
$INSBASE
 10
1.31496062992126
 20
3.35951265057502
999
Created with OMAX Layout for Windows. (http://www.omax.com) 5/13/2015
  0
ENDSEC
  0
SECTION
  2
TABLES
  0
TABLE
  2
LAYER
 70
    10
  0
LAYER
  2
0
 70
     0
 62
     7
  6
CONTINUOUS
  0
LAYER
  2
1
 70
     0
 62
     7
  6
CONTINUOUS
  0
LAYER
  2
2
 70
     0
 62
     7
  6
CONTINUOUS
  0
LAYER
  2
3
 70
     0
 62
     7
  6
CONTINUOUS
  0
LAYER
  2
4
 70
     0
 62
     7
  6
CONTINUOUS
  0
LAYER
  2
5
 70
     0
 62
     7
  6
CONTINUOUS
  0
LAYER
  2
6
 70
     0
 62
     7
  6
CONTINUOUS
  0
LAYER
  2
7
 70
     0
 62
     7
  6
CONTINUOUS
  0
LAYER
  2
8
 70
     0
 62
     7
  6
CONTINUOUS
  0
LAYER
  2
9
 70
     0
 62
     7
  6
CONTINUOUS
  0
LAYER
  2
10
 70
     0
 62
     7
  6
CONTINUOUS
  0
LAYER
  2
11
 70
     0
 62
     7
  6
CONTINUOUS
  0
LAYER
  2
12
 70
     0
 62
     7
  6
CONTINUOUS
  0
LAYER
  2
13
 70
     0
 62
     7
  6
CONTINUOUS
  0
LAYER
  2
14
 70
     0
 62
     7
  6
CONTINUOUS
  0
LAYER
  2
15
 70
     0
 62
     7
  6
CONTINUOUS
  0
LAYER
  2
16
 70
     0
 62
     7
  6
CONTINUOUS
  0
LAYER
  2
17
 70
     0
 62
     7
  6
CONTINUOUS
  0
LAYER
  2
18
 70
     0
 62
     7
  6
CONTINUOUS
  0
LAYER
  2
19
 70
     0
 62
     7
  6
CONTINUOUS
  0
LAYER
  2
20
 70
     0
 62
     7
  6
CONTINUOUS
  0
LAYER
  2
21
 70
     0
 62
     7
  6
CONTINUOUS
  0
LAYER
  2
22
 70
     0
 62
     7
  6
CONTINUOUS
  0
LAYER
  2
23
 70
     0
 62
     7
  6
CONTINUOUS
  0
LAYER
  2
24
 70
     0
 62
     7
  6
CONTINUOUS
  0
LAYER
  2
25
 70
     0
 62
     7
  6
CONTINUOUS
  0
LAYER
  2
26
 70
     0
 62
     7
  6
CONTINUOUS
  0
LAYER
  2
27
 70
     0
 62
     7
  6
CONTINUOUS
  0
LAYER
  2
28
 70
     0
 62
     7
  6
CONTINUOUS
  0
LAYER
  2
29
 70
     0
 62
     7
  6
CONTINUOUS
  0
LAYER
  2
30
 70
     0
 62
     7
  6
CONTINUOUS
  0
LAYER
  2
31
 70
     0
 62
     7
  6
CONTINUOUS
  0
ENDTAB
  0
ENDSEC
  0
SECTION
  2
ENTITIES
  0
LINE
  8
5
  6
CONTINUOUS
 62
5
 10
1.28060462957707
 20
1.38581031333887
 30
0.0
 11
1.38930557416105
 21
1.34089982162046
 31
0.0
  0
ARC
  8
5
  6
CONTINUOUS
 62
5
 10
1.31496062992126
 20
1.31496062992126
 30
0.0
 40
0.078740157480315
 50
115.869394
 51
247.5517195
  0
ARC
  8
5
  6
CONTINUOUS
 62
5
 10
1.31496062992126
 20
1.31496062992126
 30
0.0
 40
0.0787401574803151
 50
247.551719499999
 51
19.2340449999998
  0
ARC
  8
5
  6
CONTINUOUS
 62
5
 10
1.23979342519685
 20
1.13302665354331
 30
0.0
 40
0.0590551181102362
 50
179.999999999999
 51
359.999999999999
  0
ARC
  8
5
  6
CONTINUOUS
 62
5
 10
1.23979342519685
 20
1.13302665354331
 30
0.0
 40
0.0590551181102362
 50
359.999999999999
 51
180
  0
ARC
  8
5
  6
CONTINUOUS
 62
5
 10
1.31496062992126
 20
1.31496062992126
 30
0.0
 40
0.31496062992126
 50
179.999999999999
 51
359.999999999999
  0
ARC
  8
5
  6
CONTINUOUS
 62
5
 10
1.31496062992126
 20
1.31496062992127
 30
0.0
 40
0.31496062992126
 50
359.999999999999
 51
180
  0
LINE
  8
5
  6
CONTINUOUS
 62
5
 10
1.28060462957707
 20
2.20363112160037
 30
0.0
 11
1.38930557416105
 21
2.15872062988196
 31
0.0
  0
ARC
  8
5
  6
CONTINUOUS
 62
5
 10
1.31496062992126
 20
2.13278143818276
 30
0.0
 40
0.078740157480315
 50
115.869394
 51
247.5517195
  0
ARC
  8
5
  6
CONTINUOUS
 62
5
 10
1.31496062992126
 20
2.13278143818276
 30
0.0
 40
0.0787401574803151
 50
247.551719499999
 51
19.2340449999998
  0
ARC
  8
5
  6
CONTINUOUS
 62
5
 10
1.23979342519685
 20
1.95084746180481
 30
0.0
 40
0.0590551181102362
 50
179.999999999999
 51
359.999999999999
  0
ARC
  8
5
  6
CONTINUOUS
 62
5
 10
1.23979342519685
 20
1.95084746180481
 30
0.0
 40
0.0590551181102362
 50
359.999999999999
 51
180
  0
ARC
  8
5
  6
CONTINUOUS
 62
5
 10
1.31496062992126
 20
2.13278143818276
 30
0.0
 40
0.31496062992126
 50
179.999999999999
 51
359.999999999999
  0
ARC
  8
5
  6
CONTINUOUS
 62
5
 10
1.31496062992126
 20
2.13278143818277
 30
0.0
 40
0.31496062992126
 50
359.999999999999
 51
180
  0
LINE
  8
5
  6
CONTINUOUS
 62
5
 10
1.28060462957707
 20
3.02145192986187
 30
0.0
 11
1.38930557416105
 21
2.97654143814346
 31
0.0
  0
ARC
  8
5
  6
CONTINUOUS
 62
5
 10
1.31496062992126
 20
2.95060224644427
 30
0.0
 40
0.078740157480315
 50
115.869394
 51
247.5517195
  0
ARC
  8
5
  6
CONTINUOUS
 62
5
 10
1.31496062992126
 20
2.95060224644427
 30
0.0
 40
0.0787401574803151
 50
247.551719499999
 51
19.2340449999998
  0
ARC
  8
5
  6
CONTINUOUS
 62
5
 10
1.23979342519685
 20
2.76866827006631
 30
0.0
 40
0.0590551181102362
 50
179.999999999999
 51
359.999999999999
  0
ARC
  8
5
  6
CONTINUOUS
 62
5
 10
1.23979342519685
 20
2.76866827006631
 30
0.0
 40
0.0590551181102362
 50
359.999999999999
 51
180
  0
ARC
  8
5
  6
CONTINUOUS
 62
5
 10
1.31496062992126
 20
2.95060224644426
 30
0.0
 40
0.31496062992126
 50
179.999999999999
 51
359.999999999999
  0
ARC
  8
5
  6
CONTINUOUS
 62
5
 10
1.31496062992126
 20
2.95060224644427
 30
0.0
 40
0.31496062992126
 50
359.999999999999
 51
180
  0
LINE
  8
5
  6
CONTINUOUS
 62
5
 10
1.28060462957707
 20
3.83927273812337
 30
0.0
 11
1.38930557416105
 21
3.79436224640496
 31
0.0
  0
ARC
  8
5
  6
CONTINUOUS
 62
5
 10
1.31496062992126
 20
3.76842305470577
 30
0.0
 40
0.078740157480315
 50
115.869394
 51
247.5517195
  0
ARC
  8
5
  6
CONTINUOUS
 62
5
 10
1.31496062992126
 20
3.76842305470577
 30
0.0
 40
0.0787401574803151
 50
247.551719499999
 51
19.2340449999998
  0
ARC
  8
5
  6
CONTINUOUS
 62
5
 10
1.23979342519685
 20
3.58648907832781
 30
0.0
 40
0.0590551181102362
 50
179.999999999999
 51
359.999999999999
  0
ARC
  8
5
  6
CONTINUOUS
 62
5
 10
1.23979342519685
 20
3.58648907832782
 30
0.0
 40
0.0590551181102362
 50
359.999999999999
 51
180
  0
ARC
  8
5
  6
CONTINUOUS
 62
5
 10
1.31496062992126
 20
3.76842305470576
 30
0.0
 40
0.31496062992126
 50
179.999999999999
 51
359.999999999999
  0
ARC
  8
5
  6
CONTINUOUS
 62
5
 10
1.31496062992126
 20
3.76842305470577
 30
0.0
 40
0.31496062992126
 50
359.999999999999
 51
180
  0
LINE
  8
5
  6
CONTINUOUS
 62
5
 10
1.28060462957707
 20
4.65709354638488
 30
0.0
 11
1.38930557416105
 21
4.61218305466647
 31
0.0
  0
ARC
  8
5
  6
CONTINUOUS
 62
5
 10
1.31496062992126
 20
4.58624386296727
 30
0.0
 40
0.078740157480315
 50
115.869394
 51
247.5517195
  0
ARC
  8
5
  6
CONTINUOUS
 62
5
 10
1.31496062992126
 20
4.58624386296727
 30
0.0
 40
0.0787401574803148
 50
247.551719499999
 51
19.2340449999996
  0
ARC
  8
5
  6
CONTINUOUS
 62
5
 10
1.23979342519685
 20
4.40430988658932
 30
0.0
 40
0.0590551181102362
 50
179.999999999999
 51
359.999999999999
  0
ARC
  8
5
  6
CONTINUOUS
 62
5
 10
1.23979342519685
 20
4.40430988658932
 30
0.0
 40
0.0590551181102362
 50
359.999999999999
 51
180
  0
ARC
  8
5
  6
CONTINUOUS
 62
5
 10
1.31496062992126
 20
4.58624386296727
 30
0.0
 40
0.31496062992126
 50
179.999999999999
 51
359.999999999999
  0
ARC
  8
5
  6
CONTINUOUS
 62
5
 10
1.31496062992126
 20
4.58624386296727
 30
0.0
 40
0.31496062992126
 50
359.999999999999
 51
180
  0
LINE
  8
5
  6
CONTINUOUS
 62
5
 10
1.28060462957707
 20
5.47491435464638
 30
0.0
 11
1.38930557416105
 21
5.43000386292797
 31
0.0
  0
ARC
  8
5
  6
CONTINUOUS
 62
5
 10
1.31496062992126
 20
5.40406467122877
 30
0.0
 40
0.078740157480315
 50
115.869394
 51
247.5517195
  0
ARC
  8
5
  6
CONTINUOUS
 62
5
 10
1.31496062992126
 20
5.40406467122877
 30
0.0
 40
0.0787401574803148
 50
247.551719499999
 51
19.2340449999996
  0
ARC
  8
5
  6
CONTINUOUS
 62
5
 10
1.23979342519685
 20
5.22213069485082
 30
0.0
 40
0.0590551181102362
 50
179.999999999999
 51
359.999999999999
  0
ARC
  8
5
  6
CONTINUOUS
 62
5
 10
1.23979342519685
 20
5.22213069485082
 30
0.0
 40
0.0590551181102362
 50
359.999999999999
 51
180
  0
ARC
  8
5
  6
CONTINUOUS
 62
5
 10
1.31496062992126
 20
5.40406467122877
 30
0.0
 40
0.31496062992126
 50
179.999999999999
 51
359.999999999999
  0
ARC
  8
5
  6
CONTINUOUS
 62
5
 10
1.31496062992126
 20
5.40406467122877
 30
0.0
 40
0.31496062992126
 50
359.999999999999
 51
180
  0
ENDSEC
  0
EOF
