  0
SECTION
  2
HEADER
  9
$ACADVER
  1
AC1003
  9
$EXTMIN
 10
1
 20
6.13527342412356
  9
$EXTMAX
 10
3.36220472440945
 20
1
  9
$INSBASE
 10
2.18110236220472
 20
3.56763671206178
999
Created with OMAX Layout for Windows. (http://www.omax.com) 5/13/2015
  0
ENDSEC
  0
SECTION
  2
TABLES
  0
TABLE
  2
LAYER
 70
    10
  0
LAYER
  2
0
 70
     0
 62
     7
  6
CONTINUOUS
  0
LAYER
  2
1
 70
     0
 62
     7
  6
CONTINUOUS
  0
LAYER
  2
2
 70
     0
 62
     7
  6
CONTINUOUS
  0
LAYER
  2
3
 70
     0
 62
     7
  6
CONTINUOUS
  0
LAYER
  2
4
 70
     0
 62
     7
  6
CONTINUOUS
  0
LAYER
  2
5
 70
     0
 62
     7
  6
CONTINUOUS
  0
LAYER
  2
6
 70
     0
 62
     7
  6
CONTINUOUS
  0
LAYER
  2
7
 70
     0
 62
     7
  6
CONTINUOUS
  0
LAYER
  2
8
 70
     0
 62
     7
  6
CONTINUOUS
  0
LAYER
  2
9
 70
     0
 62
     7
  6
CONTINUOUS
  0
LAYER
  2
10
 70
     0
 62
     7
  6
CONTINUOUS
  0
LAYER
  2
11
 70
     0
 62
     7
  6
CONTINUOUS
  0
LAYER
  2
12
 70
     0
 62
     7
  6
CONTINUOUS
  0
LAYER
  2
13
 70
     0
 62
     7
  6
CONTINUOUS
  0
LAYER
  2
14
 70
     0
 62
     7
  6
CONTINUOUS
  0
LAYER
  2
15
 70
     0
 62
     7
  6
CONTINUOUS
  0
LAYER
  2
16
 70
     0
 62
     7
  6
CONTINUOUS
  0
LAYER
  2
17
 70
     0
 62
     7
  6
CONTINUOUS
  0
LAYER
  2
18
 70
     0
 62
     7
  6
CONTINUOUS
  0
LAYER
  2
19
 70
     0
 62
     7
  6
CONTINUOUS
  0
LAYER
  2
20
 70
     0
 62
     7
  6
CONTINUOUS
  0
LAYER
  2
21
 70
     0
 62
     7
  6
CONTINUOUS
  0
LAYER
  2
22
 70
     0
 62
     7
  6
CONTINUOUS
  0
LAYER
  2
23
 70
     0
 62
     7
  6
CONTINUOUS
  0
LAYER
  2
24
 70
     0
 62
     7
  6
CONTINUOUS
  0
LAYER
  2
25
 70
     0
 62
     7
  6
CONTINUOUS
  0
LAYER
  2
26
 70
     0
 62
     7
  6
CONTINUOUS
  0
LAYER
  2
27
 70
     0
 62
     7
  6
CONTINUOUS
  0
LAYER
  2
28
 70
     0
 62
     7
  6
CONTINUOUS
  0
LAYER
  2
29
 70
     0
 62
     7
  6
CONTINUOUS
  0
LAYER
  2
30
 70
     0
 62
     7
  6
CONTINUOUS
  0
LAYER
  2
31
 70
     0
 62
     7
  6
CONTINUOUS
  0
ENDTAB
  0
ENDSEC
  0
SECTION
  2
ENTITIES
  0
LINE
  8
5
  6
CONTINUOUS
 62
5
 10
2.5748031496063
 20
1.43307086614173
 30
0.0
 11
3.36220472440945
 21
1.43307086614173
 31
0.0
  0
LINE
  8
5
  6
CONTINUOUS
 62
5
 10
3.36220472440945
 20
1.43307086614173
 30
0.0
 11
3.36220472440945
 21
1.2755905511811
 31
0.0
  0
LINE
  8
5
  6
CONTINUOUS
 62
5
 10
2.49606299212598
 20
1.62992125984252
 30
0.0
 11
2.49606299212598
 21
1.51181102362205
 31
0.0
  0
LINE
  8
5
  6
CONTINUOUS
 62
5
 10
3.36220472440945
 20
1.2755905511811
 30
0.0
 11
2.5748031496063
 21
1.2755905511811
 31
0.0
  0
LINE
  8
5
  6
CONTINUOUS
 62
5
 10
2.49606299212598
 20
1.19685039370079
 30
0.0
 11
2.49606299212598
 21
1.07874015748032
 31
0.0
  0
LINE
  8
5
  6
CONTINUOUS
 62
5
 10
2.41732283464567
 20
1
 30
0.0
 11
2.25984251968504
 21
1
 31
0.0
  0
LINE
  8
5
  6
CONTINUOUS
 62
5
 10
2.18110236220472
 20
1.07874015748031
 30
0.0
 11
2.18110236220472
 21
1.19685039370079
 31
0.0
  0
LINE
  8
5
  6
CONTINUOUS
 62
5
 10
2.10236220472441
 20
1.2755905511811
 30
0.0
 11
1
 21
1.2755905511811
 31
0.0
  0
LINE
  8
5
  6
CONTINUOUS
 62
5
 10
1
 20
1.43307086614173
 30
0.0
 11
2.10236220472441
 21
1.43307086614173
 31
0.0
  0
LINE
  8
5
  6
CONTINUOUS
 62
5
 10
2.18110236220472
 20
1.51181102362205
 30
0.0
 11
2.18110236220472
 21
1.62992125984252
 31
0.0
  0
LINE
  8
5
  6
CONTINUOUS
 62
5
 10
2.2755905511811
 20
1.56692913385827
 30
0.0
 11
2.2755905511811
 21
1.14173228346457
 31
0.0
  0
LINE
  8
5
  6
CONTINUOUS
 62
5
 10
2.25984251968504
 20
1.70866141732283
 30
0.0
 11
2.41732283464567
 21
1.70866141732283
 31
0.0
  0
LINE
  8
5
  6
CONTINUOUS
 62
5
 10
2.40157480314961
 20
1.14173228346457
 30
0.0
 11
2.40157480314961
 21
1.56692913385827
 31
0.0
  0
LINE
  8
5
  6
CONTINUOUS
 62
5
 10
1
 20
1.2755905511811
 30
0.0
 11
1
 21
1.43307086614173
 31
0.0
  0
ARC
  8
5
  6
CONTINUOUS
 62
5
 10
2.10236220472441
 20
1.19685039370079
 30
0.0
 40
0.0787401574803151
 50
360
 51
90
  0
ARC
  8
5
  6
CONTINUOUS
 62
5
 10
2.25984251968504
 20
1.07874015748031
 30
0.0
 40
0.0787401574803149
 50
180
 51
270
  0
ARC
  8
5
  6
CONTINUOUS
 62
5
 10
2.41732283464567
 20
1.07874015748032
 30
0.0
 40
0.0787401574803148
 50
269.999999999999
 51
359.999999999999
  0
ARC
  8
5
  6
CONTINUOUS
 62
5
 10
2.41732283464567
 20
1.62992125984252
 30
0.0
 40
0.0787401574803149
 50
359.999999999999
 51
89.9999999999997
  0
ARC
  8
5
  6
CONTINUOUS
 62
5
 10
2.25984251968504
 20
1.62992125984252
 30
0.0
 40
0.0787401574803148
 50
89.9999999999998
 51
180
  0
ARC
  8
5
  6
CONTINUOUS
 62
5
 10
2.33858267716536
 20
1.14173228346457
 30
0.0
 40
0.0629921259842521
 50
269.999999999999
 51
359.999999999999
  0
ARC
  8
5
  6
CONTINUOUS
 62
5
 10
2.33858267716535
 20
1.14173228346457
 30
0.0
 40
0.0629921259842519
 50
180
 51
270
  0
ARC
  8
5
  6
CONTINUOUS
 62
5
 10
2.33858267716535
 20
1.56692913385827
 30
0.0
 40
0.0629921259842521
 50
359.999999999999
 51
180
  0
ARC
  8
5
  6
CONTINUOUS
 62
5
 10
2.10236220472441
 20
1.51181102362205
 30
0.0
 40
0.0787401574803151
 50
269.999999999999
 51
359.999999999999
  0
ARC
  8
5
  6
CONTINUOUS
 62
5
 10
2.5748031496063
 20
1.51181102362205
 30
0.0
 40
0.0787401574803149
 50
180
 51
270
  0
ARC
  8
5
  6
CONTINUOUS
 62
5
 10
2.5748031496063
 20
1.19685039370079
 30
0.0
 40
0.0787401574803149
 50
89.9999999999999
 51
180
  0
LINE
  8
5
  6
CONTINUOUS
 62
5
 10
2.5748031496063
 20
2.31839326750188
 30
0.0
 11
3.36220472440945
 21
2.31839326750188
 31
0.0
  0
LINE
  8
5
  6
CONTINUOUS
 62
5
 10
3.36220472440945
 20
2.31839326750188
 30
0.0
 11
3.36220472440945
 21
2.16091295254125
 31
0.0
  0
LINE
  8
5
  6
CONTINUOUS
 62
5
 10
2.49606299212598
 20
2.51524366120266
 30
0.0
 11
2.49606299212598
 21
2.39713342498219
 31
0.0
  0
LINE
  8
5
  6
CONTINUOUS
 62
5
 10
3.36220472440945
 20
2.16091295254125
 30
0.0
 11
2.5748031496063
 21
2.16091295254125
 31
0.0
  0
LINE
  8
5
  6
CONTINUOUS
 62
5
 10
2.49606299212598
 20
2.08217279506093
 30
0.0
 11
2.49606299212598
 21
1.96406255884046
 31
0.0
  0
LINE
  8
5
  6
CONTINUOUS
 62
5
 10
2.41732283464567
 20
1.88532240136014
 30
0.0
 11
2.25984251968504
 21
1.88532240136014
 31
0.0
  0
LINE
  8
5
  6
CONTINUOUS
 62
5
 10
2.18110236220472
 20
1.96406255884046
 30
0.0
 11
2.18110236220472
 21
2.08217279506093
 31
0.0
  0
LINE
  8
5
  6
CONTINUOUS
 62
5
 10
2.10236220472441
 20
2.16091295254125
 30
0.0
 11
1
 21
2.16091295254125
 31
0.0
  0
LINE
  8
5
  6
CONTINUOUS
 62
5
 10
1
 20
2.31839326750188
 30
0.0
 11
2.10236220472441
 21
2.31839326750188
 31
0.0
  0
LINE
  8
5
  6
CONTINUOUS
 62
5
 10
2.18110236220472
 20
2.39713342498219
 30
0.0
 11
2.18110236220472
 21
2.51524366120266
 31
0.0
  0
LINE
  8
5
  6
CONTINUOUS
 62
5
 10
2.2755905511811
 20
2.45225153521841
 30
0.0
 11
2.2755905511811
 21
2.02705468482471
 31
0.0
  0
LINE
  8
5
  6
CONTINUOUS
 62
5
 10
2.25984251968504
 20
2.59398381868298
 30
0.0
 11
2.41732283464567
 21
2.59398381868298
 31
0.0
  0
LINE
  8
5
  6
CONTINUOUS
 62
5
 10
2.40157480314961
 20
2.02705468482471
 30
0.0
 11
2.40157480314961
 21
2.45225153521841
 31
0.0
  0
LINE
  8
5
  6
CONTINUOUS
 62
5
 10
1
 20
2.16091295254125
 30
0.0
 11
1
 21
2.31839326750188
 31
0.0
  0
ARC
  8
5
  6
CONTINUOUS
 62
5
 10
2.10236220472441
 20
2.08217279506093
 30
0.0
 40
0.0787401574803151
 50
360
 51
90
  0
ARC
  8
5
  6
CONTINUOUS
 62
5
 10
2.25984251968504
 20
1.96406255884046
 30
0.0
 40
0.0787401574803148
 50
180
 51
270
  0
ARC
  8
5
  6
CONTINUOUS
 62
5
 10
2.41732283464567
 20
1.96406255884046
 30
0.0
 40
0.0787401574803148
 50
269.999999999999
 51
359.999999999999
  0
ARC
  8
5
  6
CONTINUOUS
 62
5
 10
2.41732283464567
 20
2.51524366120266
 30
0.0
 40
0.0787401574803151
 50
359.999999999999
 51
89.9999999999996
  0
ARC
  8
5
  6
CONTINUOUS
 62
5
 10
2.25984251968504
 20
2.51524366120266
 30
0.0
 40
0.0787401574803148
 50
89.9999999999998
 51
180
  0
ARC
  8
5
  6
CONTINUOUS
 62
5
 10
2.33858267716536
 20
2.02705468482471
 30
0.0
 40
0.062992125984252
 50
269.999999999999
 51
359.999999999999
  0
ARC
  8
5
  6
CONTINUOUS
 62
5
 10
2.33858267716535
 20
2.02705468482471
 30
0.0
 40
0.0629921259842517
 50
180
 51
270
  0
ARC
  8
5
  6
CONTINUOUS
 62
5
 10
2.33858267716535
 20
2.45225153521841
 30
0.0
 40
0.0629921259842521
 50
359.999999999999
 51
180
  0
ARC
  8
5
  6
CONTINUOUS
 62
5
 10
2.10236220472441
 20
2.39713342498219
 30
0.0
 40
0.0787401574803151
 50
269.999999999999
 51
359.999999999999
  0
ARC
  8
5
  6
CONTINUOUS
 62
5
 10
2.5748031496063
 20
2.39713342498219
 30
0.0
 40
0.0787401574803148
 50
180
 51
270
  0
ARC
  8
5
  6
CONTINUOUS
 62
5
 10
2.5748031496063
 20
2.08217279506093
 30
0.0
 40
0.0787401574803151
 50
90
 51
180
  0
LINE
  8
5
  6
CONTINUOUS
 62
5
 10
2.5748031496063
 20
3.20371566886202
 30
0.0
 11
3.36220472440945
 21
3.20371566886202
 31
0.0
  0
LINE
  8
5
  6
CONTINUOUS
 62
5
 10
3.36220472440945
 20
3.20371566886202
 30
0.0
 11
3.36220472440945
 21
3.04623535390139
 31
0.0
  0
LINE
  8
5
  6
CONTINUOUS
 62
5
 10
2.49606299212598
 20
3.40056606256281
 30
0.0
 11
2.49606299212598
 21
3.28245582634234
 31
0.0
  0
LINE
  8
5
  6
CONTINUOUS
 62
5
 10
3.36220472440945
 20
3.04623535390139
 30
0.0
 11
2.5748031496063
 21
3.04623535390139
 31
0.0
  0
LINE
  8
5
  6
CONTINUOUS
 62
5
 10
2.49606299212598
 20
2.96749519642108
 30
0.0
 11
2.49606299212598
 21
2.8493849602006
 31
0.0
  0
LINE
  8
5
  6
CONTINUOUS
 62
5
 10
2.41732283464567
 20
2.77064480272029
 30
0.0
 11
2.25984251968504
 21
2.77064480272029
 31
0.0
  0
LINE
  8
5
  6
CONTINUOUS
 62
5
 10
2.18110236220472
 20
2.8493849602006
 30
0.0
 11
2.18110236220472
 21
2.96749519642108
 31
0.0
  0
LINE
  8
5
  6
CONTINUOUS
 62
5
 10
2.10236220472441
 20
3.04623535390139
 30
0.0
 11
1
 21
3.04623535390139
 31
0.0
  0
LINE
  8
5
  6
CONTINUOUS
 62
5
 10
1
 20
3.20371566886202
 30
0.0
 11
2.10236220472441
 21
3.20371566886202
 31
0.0
  0
LINE
  8
5
  6
CONTINUOUS
 62
5
 10
2.18110236220472
 20
3.28245582634234
 30
0.0
 11
2.18110236220472
 21
3.40056606256281
 31
0.0
  0
LINE
  8
5
  6
CONTINUOUS
 62
5
 10
2.2755905511811
 20
3.33757393657856
 30
0.0
 11
2.2755905511811
 21
2.91237708618486
 31
0.0
  0
LINE
  8
5
  6
CONTINUOUS
 62
5
 10
2.25984251968504
 20
3.47930622004312
 30
0.0
 11
2.41732283464567
 21
3.47930622004312
 31
0.0
  0
LINE
  8
5
  6
CONTINUOUS
 62
5
 10
2.40157480314961
 20
2.91237708618486
 30
0.0
 11
2.40157480314961
 21
3.33757393657856
 31
0.0
  0
LINE
  8
5
  6
CONTINUOUS
 62
5
 10
1
 20
3.04623535390139
 30
0.0
 11
1
 21
3.20371566886202
 31
0.0
  0
ARC
  8
5
  6
CONTINUOUS
 62
5
 10
2.10236220472441
 20
2.96749519642108
 30
0.0
 40
0.0787401574803151
 50
360
 51
90
  0
ARC
  8
5
  6
CONTINUOUS
 62
5
 10
2.25984251968504
 20
2.8493849602006
 30
0.0
 40
0.0787401574803148
 50
180
 51
270
  0
ARC
  8
5
  6
CONTINUOUS
 62
5
 10
2.41732283464567
 20
2.8493849602006
 30
0.0
 40
0.0787401574803148
 50
269.999999999999
 51
359.999999999999
  0
ARC
  8
5
  6
CONTINUOUS
 62
5
 10
2.41732283464567
 20
3.40056606256281
 30
0.0
 40
0.0787401574803151
 50
359.999999999999
 51
89.9999999999996
  0
ARC
  8
5
  6
CONTINUOUS
 62
5
 10
2.25984251968504
 20
3.40056606256281
 30
0.0
 40
0.0787401574803148
 50
89.9999999999998
 51
180
  0
ARC
  8
5
  6
CONTINUOUS
 62
5
 10
2.33858267716536
 20
2.91237708618486
 30
0.0
 40
0.0629921259842521
 50
269.999999999999
 51
359.999999999999
  0
ARC
  8
5
  6
CONTINUOUS
 62
5
 10
2.33858267716535
 20
2.91237708618486
 30
0.0
 40
0.0629921259842519
 50
180
 51
270
  0
ARC
  8
5
  6
CONTINUOUS
 62
5
 10
2.33858267716535
 20
3.33757393657856
 30
0.0
 40
0.0629921259842521
 50
359.999999999999
 51
180
  0
ARC
  8
5
  6
CONTINUOUS
 62
5
 10
2.10236220472441
 20
3.28245582634234
 30
0.0
 40
0.0787401574803151
 50
269.999999999999
 51
359.999999999999
  0
ARC
  8
5
  6
CONTINUOUS
 62
5
 10
2.5748031496063
 20
3.28245582634234
 30
0.0
 40
0.0787401574803148
 50
180
 51
270
  0
ARC
  8
5
  6
CONTINUOUS
 62
5
 10
2.5748031496063
 20
2.96749519642108
 30
0.0
 40
0.0787401574803151
 50
90
 51
180
  0
LINE
  8
5
  6
CONTINUOUS
 62
5
 10
2.5748031496063
 20
4.08903807022217
 30
0.0
 11
3.36220472440945
 21
4.08903807022217
 31
0.0
  0
LINE
  8
5
  6
CONTINUOUS
 62
5
 10
3.36220472440945
 20
4.08903807022217
 30
0.0
 11
3.36220472440945
 21
3.93155775526154
 31
0.0
  0
LINE
  8
5
  6
CONTINUOUS
 62
5
 10
2.49606299212598
 20
4.28588846392295
 30
0.0
 11
2.49606299212598
 21
4.16777822770248
 31
0.0
  0
LINE
  8
5
  6
CONTINUOUS
 62
5
 10
3.36220472440945
 20
3.93155775526154
 30
0.0
 11
2.5748031496063
 21
3.93155775526154
 31
0.0
  0
LINE
  8
5
  6
CONTINUOUS
 62
5
 10
2.49606299212598
 20
3.85281759778122
 30
0.0
 11
2.49606299212598
 21
3.73470736156075
 31
0.0
  0
LINE
  8
5
  6
CONTINUOUS
 62
5
 10
2.41732283464567
 20
3.65596720408043
 30
0.0
 11
2.25984251968504
 21
3.65596720408043
 31
0.0
  0
LINE
  8
5
  6
CONTINUOUS
 62
5
 10
2.18110236220472
 20
3.73470736156075
 30
0.0
 11
2.18110236220472
 21
3.85281759778122
 31
0.0
  0
LINE
  8
5
  6
CONTINUOUS
 62
5
 10
2.10236220472441
 20
3.93155775526154
 30
0.0
 11
1
 21
3.93155775526154
 31
0.0
  0
LINE
  8
5
  6
CONTINUOUS
 62
5
 10
1
 20
4.08903807022217
 30
0.0
 11
2.10236220472441
 21
4.08903807022217
 31
0.0
  0
LINE
  8
5
  6
CONTINUOUS
 62
5
 10
2.18110236220472
 20
4.16777822770248
 30
0.0
 11
2.18110236220472
 21
4.28588846392295
 31
0.0
  0
LINE
  8
5
  6
CONTINUOUS
 62
5
 10
2.2755905511811
 20
4.2228963379387
 30
0.0
 11
2.2755905511811
 21
3.797699487545
 31
0.0
  0
LINE
  8
5
  6
CONTINUOUS
 62
5
 10
2.25984251968504
 20
4.36462862140327
 30
0.0
 11
2.41732283464567
 21
4.36462862140327
 31
0.0
  0
LINE
  8
5
  6
CONTINUOUS
 62
5
 10
2.40157480314961
 20
3.797699487545
 30
0.0
 11
2.40157480314961
 21
4.2228963379387
 31
0.0
  0
LINE
  8
5
  6
CONTINUOUS
 62
5
 10
1
 20
3.93155775526154
 30
0.0
 11
1
 21
4.08903807022217
 31
0.0
  0
ARC
  8
5
  6
CONTINUOUS
 62
5
 10
2.10236220472441
 20
3.85281759778122
 30
0.0
 40
0.0787401574803151
 50
360
 51
90
  0
ARC
  8
5
  6
CONTINUOUS
 62
5
 10
2.25984251968504
 20
3.73470736156075
 30
0.0
 40
0.0787401574803148
 50
180
 51
270
  0
ARC
  8
5
  6
CONTINUOUS
 62
5
 10
2.41732283464567
 20
3.73470736156075
 30
0.0
 40
0.0787401574803148
 50
269.999999999999
 51
359.999999999999
  0
ARC
  8
5
  6
CONTINUOUS
 62
5
 10
2.41732283464567
 20
4.28588846392295
 30
0.0
 40
0.0787401574803148
 50
359.999999999999
 51
89.9999999999998
  0
ARC
  8
5
  6
CONTINUOUS
 62
5
 10
2.25984251968504
 20
4.28588846392295
 30
0.0
 40
0.0787401574803148
 50
89.9999999999998
 51
180
  0
ARC
  8
5
  6
CONTINUOUS
 62
5
 10
2.33858267716536
 20
3.797699487545
 30
0.0
 40
0.0629921259842521
 50
269.999999999999
 51
359.999999999999
  0
ARC
  8
5
  6
CONTINUOUS
 62
5
 10
2.33858267716535
 20
3.797699487545
 30
0.0
 40
0.0629921259842519
 50
180
 51
270
  0
ARC
  8
5
  6
CONTINUOUS
 62
5
 10
2.33858267716535
 20
4.2228963379387
 30
0.0
 40
0.0629921259842521
 50
359.999999999999
 51
180
  0
ARC
  8
5
  6
CONTINUOUS
 62
5
 10
2.10236220472441
 20
4.16777822770248
 30
0.0
 40
0.0787401574803151
 50
269.999999999999
 51
359.999999999999
  0
ARC
  8
5
  6
CONTINUOUS
 62
5
 10
2.5748031496063
 20
4.16777822770248
 30
0.0
 40
0.0787401574803148
 50
180
 51
270
  0
ARC
  8
5
  6
CONTINUOUS
 62
5
 10
2.5748031496063
 20
3.85281759778122
 30
0.0
 40
0.0787401574803151
 50
90
 51
180
  0
LINE
  8
5
  6
CONTINUOUS
 62
5
 10
2.5748031496063
 20
4.97436047158231
 30
0.0
 11
3.36220472440945
 21
4.97436047158231
 31
0.0
  0
LINE
  8
5
  6
CONTINUOUS
 62
5
 10
3.36220472440945
 20
4.97436047158231
 30
0.0
 11
3.36220472440945
 21
4.81688015662168
 31
0.0
  0
LINE
  8
5
  6
CONTINUOUS
 62
5
 10
2.49606299212598
 20
5.1712108652831
 30
0.0
 11
2.49606299212598
 21
5.05310062906263
 31
0.0
  0
LINE
  8
5
  6
CONTINUOUS
 62
5
 10
3.36220472440945
 20
4.81688015662168
 30
0.0
 11
2.5748031496063
 21
4.81688015662168
 31
0.0
  0
LINE
  8
5
  6
CONTINUOUS
 62
5
 10
2.49606299212598
 20
4.73813999914137
 30
0.0
 11
2.49606299212598
 21
4.62002976292089
 31
0.0
  0
LINE
  8
5
  6
CONTINUOUS
 62
5
 10
2.41732283464567
 20
4.54128960544058
 30
0.0
 11
2.25984251968504
 21
4.54128960544058
 31
0.0
  0
LINE
  8
5
  6
CONTINUOUS
 62
5
 10
2.18110236220472
 20
4.62002976292089
 30
0.0
 11
2.18110236220472
 21
4.73813999914137
 31
0.0
  0
LINE
  8
5
  6
CONTINUOUS
 62
5
 10
2.10236220472441
 20
4.81688015662168
 30
0.0
 11
1
 21
4.81688015662168
 31
0.0
  0
LINE
  8
5
  6
CONTINUOUS
 62
5
 10
1
 20
4.97436047158231
 30
0.0
 11
2.10236220472441
 21
4.97436047158231
 31
0.0
  0
LINE
  8
5
  6
CONTINUOUS
 62
5
 10
2.18110236220472
 20
5.05310062906263
 30
0.0
 11
2.18110236220472
 21
5.1712108652831
 31
0.0
  0
LINE
  8
5
  6
CONTINUOUS
 62
5
 10
2.2755905511811
 20
5.10821873929885
 30
0.0
 11
2.2755905511811
 21
4.68302188890515
 31
0.0
  0
LINE
  8
5
  6
CONTINUOUS
 62
5
 10
2.25984251968504
 20
5.24995102276341
 30
0.0
 11
2.41732283464567
 21
5.24995102276341
 31
0.0
  0
LINE
  8
5
  6
CONTINUOUS
 62
5
 10
2.40157480314961
 20
4.68302188890515
 30
0.0
 11
2.40157480314961
 21
5.10821873929885
 31
0.0
  0
LINE
  8
5
  6
CONTINUOUS
 62
5
 10
1
 20
4.81688015662168
 30
0.0
 11
1
 21
4.97436047158231
 31
0.0
  0
ARC
  8
5
  6
CONTINUOUS
 62
5
 10
2.10236220472441
 20
4.73813999914137
 30
0.0
 40
0.0787401574803151
 50
360
 51
90
  0
ARC
  8
5
  6
CONTINUOUS
 62
5
 10
2.25984251968504
 20
4.62002976292089
 30
0.0
 40
0.0787401574803148
 50
180
 51
270
  0
ARC
  8
5
  6
CONTINUOUS
 62
5
 10
2.41732283464567
 20
4.62002976292089
 30
0.0
 40
0.0787401574803148
 50
269.999999999999
 51
359.999999999999
  0
ARC
  8
5
  6
CONTINUOUS
 62
5
 10
2.41732283464567
 20
5.1712108652831
 30
0.0
 40
0.0787401574803153
 50
359.999999999999
 51
89.9999999999995
  0
ARC
  8
5
  6
CONTINUOUS
 62
5
 10
2.25984251968504
 20
5.1712108652831
 30
0.0
 40
0.0787401574803148
 50
89.9999999999998
 51
180
  0
ARC
  8
5
  6
CONTINUOUS
 62
5
 10
2.33858267716536
 20
4.68302188890515
 30
0.0
 40
0.0629921259842521
 50
269.999999999999
 51
359.999999999999
  0
ARC
  8
5
  6
CONTINUOUS
 62
5
 10
2.33858267716535
 20
4.68302188890515
 30
0.0
 40
0.0629921259842519
 50
180
 51
270
  0
ARC
  8
5
  6
CONTINUOUS
 62
5
 10
2.33858267716535
 20
5.10821873929885
 30
0.0
 40
0.0629921259842521
 50
359.999999999999
 51
180
  0
ARC
  8
5
  6
CONTINUOUS
 62
5
 10
2.10236220472441
 20
5.05310062906263
 30
0.0
 40
0.0787401574803151
 50
269.999999999999
 51
359.999999999999
  0
ARC
  8
5
  6
CONTINUOUS
 62
5
 10
2.5748031496063
 20
5.05310062906263
 30
0.0
 40
0.0787401574803148
 50
180
 51
270
  0
ARC
  8
5
  6
CONTINUOUS
 62
5
 10
2.5748031496063
 20
4.73813999914137
 30
0.0
 40
0.0787401574803148
 50
89.9999999999998
 51
180
  0
LINE
  8
5
  6
CONTINUOUS
 62
5
 10
2.5748031496063
 20
5.85968287294246
 30
0.0
 11
3.36220472440945
 21
5.85968287294246
 31
0.0
  0
LINE
  8
5
  6
CONTINUOUS
 62
5
 10
3.36220472440945
 20
5.85968287294246
 30
0.0
 11
3.36220472440945
 21
5.70220255798182
 31
0.0
  0
LINE
  8
5
  6
CONTINUOUS
 62
5
 10
2.49606299212598
 20
6.05653326664324
 30
0.0
 11
2.49606299212598
 21
5.93842303042277
 31
0.0
  0
LINE
  8
5
  6
CONTINUOUS
 62
5
 10
3.36220472440945
 20
5.70220255798182
 30
0.0
 11
2.5748031496063
 21
5.70220255798183
 31
0.0
  0
LINE
  8
5
  6
CONTINUOUS
 62
5
 10
2.49606299212598
 20
5.62346240050151
 30
0.0
 11
2.49606299212598
 21
5.50535216428104
 31
0.0
  0
LINE
  8
5
  6
CONTINUOUS
 62
5
 10
2.41732283464567
 20
5.42661200680072
 30
0.0
 11
2.25984251968504
 21
5.42661200680072
 31
0.0
  0
LINE
  8
5
  6
CONTINUOUS
 62
5
 10
2.18110236220472
 20
5.50535216428104
 30
0.0
 11
2.18110236220472
 21
5.62346240050151
 31
0.0
  0
LINE
  8
5
  6
CONTINUOUS
 62
5
 10
2.10236220472441
 20
5.70220255798182
 30
0.0
 11
1
 21
5.70220255798183
 31
0.0
  0
LINE
  8
5
  6
CONTINUOUS
 62
5
 10
1
 20
5.85968287294246
 30
0.0
 11
2.10236220472441
 21
5.85968287294246
 31
0.0
  0
LINE
  8
5
  6
CONTINUOUS
 62
5
 10
2.18110236220472
 20
5.93842303042277
 30
0.0
 11
2.18110236220472
 21
6.05653326664324
 31
0.0
  0
LINE
  8
5
  6
CONTINUOUS
 62
5
 10
2.2755905511811
 20
5.99354114065899
 30
0.0
 11
2.2755905511811
 21
5.56834429026529
 31
0.0
  0
LINE
  8
5
  6
CONTINUOUS
 62
5
 10
2.25984251968504
 20
6.13527342412356
 30
0.0
 11
2.41732283464567
 21
6.13527342412356
 31
0.0
  0
LINE
  8
5
  6
CONTINUOUS
 62
5
 10
2.40157480314961
 20
5.56834429026529
 30
0.0
 11
2.40157480314961
 21
5.99354114065899
 31
0.0
  0
LINE
  8
5
  6
CONTINUOUS
 62
5
 10
1
 20
5.70220255798183
 30
0.0
 11
1
 21
5.85968287294246
 31
0.0
  0
ARC
  8
5
  6
CONTINUOUS
 62
5
 10
2.10236220472441
 20
5.62346240050151
 30
0.0
 40
0.0787401574803151
 50
360
 51
90
  0
ARC
  8
5
  6
CONTINUOUS
 62
5
 10
2.25984251968504
 20
5.50535216428104
 30
0.0
 40
0.0787401574803148
 50
180
 51
270
  0
ARC
  8
5
  6
CONTINUOUS
 62
5
 10
2.41732283464567
 20
5.50535216428104
 30
0.0
 40
0.0787401574803148
 50
269.999999999999
 51
359.999999999999
  0
ARC
  8
5
  6
CONTINUOUS
 62
5
 10
2.41732283464567
 20
6.05653326664324
 30
0.0
 40
0.0787401574803148
 50
359.999999999999
 51
89.9999999999998
  0
ARC
  8
5
  6
CONTINUOUS
 62
5
 10
2.25984251968504
 20
6.05653326664324
 30
0.0
 40
0.0787401574803148
 50
89.9999999999998
 51
180
  0
ARC
  8
5
  6
CONTINUOUS
 62
5
 10
2.33858267716536
 20
5.56834429026529
 30
0.0
 40
0.0629921259842521
 50
269.999999999999
 51
359.999999999999
  0
ARC
  8
5
  6
CONTINUOUS
 62
5
 10
2.33858267716535
 20
5.56834429026529
 30
0.0
 40
0.0629921259842519
 50
180
 51
270
  0
ARC
  8
5
  6
CONTINUOUS
 62
5
 10
2.33858267716535
 20
5.99354114065899
 30
0.0
 40
0.0629921259842521
 50
359.999999999999
 51
180
  0
ARC
  8
5
  6
CONTINUOUS
 62
5
 10
2.10236220472441
 20
5.93842303042277
 30
0.0
 40
0.0787401574803151
 50
269.999999999999
 51
359.999999999999
  0
ARC
  8
5
  6
CONTINUOUS
 62
5
 10
2.5748031496063
 20
5.93842303042277
 30
0.0
 40
0.0787401574803148
 50
180
 51
270
  0
ARC
  8
5
  6
CONTINUOUS
 62
5
 10
2.5748031496063
 20
5.62346240050151
 30
0.0
 40
0.0787401574803153
 50
90.0000000000001
 51
180
  0
ENDSEC
  0
EOF
