  0
SECTION
  2
HEADER
  9
$ACADVER
  1
AC1003
  9
$EXTMIN
 10
0.849999999999999
 20
9.51933472440945
  9
$EXTMAX
 10
8.7326831496063
 20
1
  9
$INSBASE
 10
4.79134157480315
 20
5.25966736220473
999
Created with OMAX Layout for Windows. (http://www.omax.com) 4/29/2015
  0
ENDSEC
  0
SECTION
  2
TABLES
  0
TABLE
  2
LAYER
 70
    10
  0
LAYER
  2
0
 70
     0
 62
     7
  6
CONTINUOUS
  0
LAYER
  2
1
 70
     0
 62
     7
  6
CONTINUOUS
  0
LAYER
  2
2
 70
     0
 62
     7
  6
CONTINUOUS
  0
LAYER
  2
3
 70
     0
 62
     7
  6
CONTINUOUS
  0
LAYER
  2
4
 70
     0
 62
     7
  6
CONTINUOUS
  0
LAYER
  2
5
 70
     0
 62
     7
  6
CONTINUOUS
  0
LAYER
  2
6
 70
     0
 62
     7
  6
CONTINUOUS
  0
LAYER
  2
7
 70
     0
 62
     7
  6
CONTINUOUS
  0
LAYER
  2
8
 70
     0
 62
     7
  6
CONTINUOUS
  0
LAYER
  2
9
 70
     0
 62
     7
  6
CONTINUOUS
  0
LAYER
  2
10
 70
     0
 62
     7
  6
CONTINUOUS
  0
LAYER
  2
11
 70
     0
 62
     7
  6
CONTINUOUS
  0
LAYER
  2
12
 70
     0
 62
     7
  6
CONTINUOUS
  0
LAYER
  2
13
 70
     0
 62
     7
  6
CONTINUOUS
  0
LAYER
  2
14
 70
     0
 62
     7
  6
CONTINUOUS
  0
LAYER
  2
15
 70
     0
 62
     7
  6
CONTINUOUS
  0
LAYER
  2
16
 70
     0
 62
     7
  6
CONTINUOUS
  0
LAYER
  2
17
 70
     0
 62
     7
  6
CONTINUOUS
  0
LAYER
  2
18
 70
     0
 62
     7
  6
CONTINUOUS
  0
LAYER
  2
19
 70
     0
 62
     7
  6
CONTINUOUS
  0
LAYER
  2
20
 70
     0
 62
     7
  6
CONTINUOUS
  0
LAYER
  2
21
 70
     0
 62
     7
  6
CONTINUOUS
  0
LAYER
  2
22
 70
     0
 62
     7
  6
CONTINUOUS
  0
LAYER
  2
23
 70
     0
 62
     7
  6
CONTINUOUS
  0
LAYER
  2
24
 70
     0
 62
     7
  6
CONTINUOUS
  0
LAYER
  2
25
 70
     0
 62
     7
  6
CONTINUOUS
  0
LAYER
  2
26
 70
     0
 62
     7
  6
CONTINUOUS
  0
LAYER
  2
27
 70
     0
 62
     7
  6
CONTINUOUS
  0
LAYER
  2
28
 70
     0
 62
     7
  6
CONTINUOUS
  0
LAYER
  2
29
 70
     0
 62
     7
  6
CONTINUOUS
  0
LAYER
  2
30
 70
     0
 62
     7
  6
CONTINUOUS
  0
LAYER
  2
31
 70
     0
 62
     7
  6
CONTINUOUS
  0
ENDTAB
  0
ENDSEC
  0
SECTION
  2
ENTITIES
  0
LINE
  8
3
  6
CONTINUOUS
 62
3
 10
1
 20
8.81342070866142
 30
0.0
 11
1
 21
5.31638439497038
 31
0.0
  0
LINE
  8
3
  6
CONTINUOUS
 62
3
 10
0.999999999999999
 20
5.26638439497038
 30
0.0
 11
1
 21
1.85516401574803
 31
0.0
  0
LINE
  8
3
  6
CONTINUOUS
 62
3
 10
7.87676913385827
 20
1.85516401574803
 30
0.0
 11
7.87676913385827
 21
1.14925
 31
0.0
  0
LINE
  8
3
  6
CONTINUOUS
 62
3
 10
1.70591401574803
 20
1.14925
 30
0.0
 11
1.70591401574803
 21
1.85516401574803
 31
0.0
  0
LINE
  8
3
  6
CONTINUOUS
 62
3
 10
7.87676913385827
 20
1.14925
 30
0.0
 11
1.70591401574803
 21
1.14925
 31
0.0
  0
LINE
  8
3
  6
CONTINUOUS
 62
3
 10
7.87676913385827
 20
9.51933472440945
 30
0.0
 11
1.70591401574803
 21
9.51933472440945
 31
0.0
  0
LINE
  8
3
  6
CONTINUOUS
 62
3
 10
1.70591401574803
 20
9.51933472440945
 30
0.0
 11
1.70591401574803
 21
8.81342070866142
 31
0.0
  0
LINE
  8
3
  6
CONTINUOUS
 62
3
 10
7.87676913385827
 20
8.81342070866142
 30
0.0
 11
7.87676913385827
 21
9.51933472440945
 31
0.0
  0
LINE
  8
3
  6
CONTINUOUS
 62
3
 10
8.5826831496063
 20
1.85516401574803
 30
0.0
 11
7.87676913385827
 21
1.85516401574803
 31
0.0
  0
LINE
  8
3
  6
CONTINUOUS
 62
3
 10
8.5826831496063
 20
8.81342070866142
 30
0.0
 11
8.5826831496063
 21
5.26804710734963
 31
0.0
  0
LINE
  8
3
  6
CONTINUOUS
 62
3
 10
8.5826831496063
 20
5.21804710734963
 30
0.0
 11
8.5826831496063
 21
1.85516401574803
 31
0.0
  0
LINE
  8
3
  6
CONTINUOUS
 62
3
 10
7.87676913385827
 20
8.81342070866142
 30
0.0
 11
8.5826831496063
 21
8.81342070866142
 31
0.0
  0
LINE
  8
3
  6
CONTINUOUS
 62
3
 10
5.74342818897638
 20
6.92366244094488
 30
0.0
 11
5.52823133858268
 21
6.92366244094488
 31
0.0
  0
LINE
  8
3
  6
CONTINUOUS
 62
3
 10
5.52823133858268
 20
7.13626086614173
 30
0.0
 11
5.74342818897638
 21
7.13626086614173
 31
0.0
  0
LINE
  8
3
  6
CONTINUOUS
 62
3
 10
3.83925496062992
 20
7.13626086614173
 30
0.0
 11
4.05445181102362
 21
7.13626086614173
 31
0.0
  0
LINE
  8
3
  6
CONTINUOUS
 62
3
 10
3.83925496062992
 20
5.43941047244095
 30
0.0
 11
4.05445181102362
 21
5.43941047244095
 31
0.0
  0
LINE
  8
3
  6
CONTINUOUS
 62
3
 10
3.83925496062992
 20
3.74256007874016
 30
0.0
 11
4.05445181102362
 21
3.74256007874016
 31
0.0
  0
LINE
  8
3
  6
CONTINUOUS
 62
3
 10
4.05445181102362
 20
3.74256007874016
 30
0.0
 11
4.05445181102362
 21
3.52996165354331
 31
0.0
  0
LINE
  8
3
  6
CONTINUOUS
 62
3
 10
3.83925496062992
 20
3.52996165354331
 30
0.0
 11
3.83925496062992
 21
3.74256007874016
 31
0.0
  0
LINE
  8
3
  6
CONTINUOUS
 62
3
 10
4.05445181102362
 20
5.43941047244095
 30
0.0
 11
4.05445181102362
 21
5.22681204724409
 31
0.0
  0
LINE
  8
3
  6
CONTINUOUS
 62
3
 10
3.83925496062992
 20
5.22681204724409
 30
0.0
 11
3.83925496062992
 21
5.43941047244095
 31
0.0
  0
LINE
  8
3
  6
CONTINUOUS
 62
3
 10
4.05445181102362
 20
7.13626086614173
 30
0.0
 11
4.05445181102362
 21
6.92366244094488
 31
0.0
  0
LINE
  8
3
  6
CONTINUOUS
 62
3
 10
3.83925496062992
 20
6.92366244094488
 30
0.0
 11
3.83925496062992
 21
7.13626086614173
 31
0.0
  0
LINE
  8
3
  6
CONTINUOUS
 62
3
 10
5.74342818897638
 20
3.74256007874016
 30
0.0
 11
5.74342818897638
 21
3.52996165354331
 31
0.0
  0
LINE
  8
3
  6
CONTINUOUS
 62
3
 10
5.52823133858268
 20
3.52996165354331
 30
0.0
 11
5.52823133858268
 21
3.74256007874016
 31
0.0
  0
LINE
  8
3
  6
CONTINUOUS
 62
3
 10
5.74342818897638
 20
3.52996165354331
 30
0.0
 11
5.52823133858268
 21
3.52996165354331
 31
0.0
  0
LINE
  8
3
  6
CONTINUOUS
 62
3
 10
5.74342818897638
 20
5.43941047244095
 30
0.0
 11
5.74342818897638
 21
5.22681204724409
 31
0.0
  0
LINE
  8
3
  6
CONTINUOUS
 62
3
 10
5.52823133858268
 20
5.22681204724409
 30
0.0
 11
5.52823133858268
 21
5.43941047244095
 31
0.0
  0
LINE
  8
3
  6
CONTINUOUS
 62
3
 10
5.74342818897638
 20
5.22681204724409
 30
0.0
 11
5.52823133858268
 21
5.22681204724409
 31
0.0
  0
LINE
  8
3
  6
CONTINUOUS
 62
3
 10
5.74342818897638
 20
7.13626086614173
 30
0.0
 11
5.74342818897638
 21
6.92366244094488
 31
0.0
  0
ARC
  8
3
  6
CONTINUOUS
 62
3
 10
7.28621795272674
 20
9.20437409448455
 30
0.0
 40
0.108267716531787
 50
269.999999999999
 51
89.9999999999998
  0
ARC
  8
3
  6
CONTINUOUS
 62
3
 10
7.28621795275591
 20
9.20437409448455
 30
0.0
 40
0.108267716531787
 50
89.9999999999998
 51
270
  0
ARC
  8
3
  6
CONTINUOUS
 62
3
 10
1.31496062992751
 20
8.22286952755803
 30
0.0
 40
0.108267716529174
 50
341.99999997994
 51
90.0000000033065
  0
ARC
  8
3
  6
CONTINUOUS
 62
3
 10
1.3149606299079
 20
8.22286952756513
 30
0.0
 40
0.10826771652207
 50
89.9999999929276
 51
180.000000003218
  0
ARC
  8
3
  6
CONTINUOUS
 62
3
 10
2.29638645669291
 20
1.46421062989695
 30
0.0
 40
0.108267716535433
 50
2.57180923765013E-9
 51
179.999999987136
  0
ARC
  8
3
  6
CONTINUOUS
 62
3
 10
8.26772251967775
 20
2.44571519684067
 30
0.0
 40
0.108267716535433
 50
179.999999994854
 51
359.999999994854
  0
ARC
  8
3
  6
CONTINUOUS
 62
3
 10
8.26772251968376
 20
2.44571519685762
 30
0.0
 40
0.108267716529419
 50
359.999999985883
 51
135.000000003824
  0
ARC
  8
3
  6
CONTINUOUS
 62
3
 10
5.65177464565681
 20
6.6362608661446
 30
0.0
 40
0.088582677162263
 50
90.9999999893602
 51
269.999999997782
  0
ARC
  8
3
  6
CONTINUOUS
 62
3
 10
5.65177464567227
 20
6.63626086614471
 30
0.0
 40
0.0885826771623722
 50
269.99999998778
 51
359.99999999807
  0
ARC
  8
3
  6
CONTINUOUS
 62
3
 10
5.65177464564145
 20
7.4236624409419
 30
0.0
 40
0.0885826771623708
 50
269.999999999999
 51
89.9999999999998
  0
ARC
  8
3
  6
CONTINUOUS
 62
3
 10
5.65177464566929
 20
7.4236624409419
 30
0.0
 40
0.0885826771623708
 50
89.9999999999998
 51
270
  0
ARC
  8
3
  6
CONTINUOUS
 62
3
 10
5.65177464566332
 20
5.72681204723614
 30
0.0
 40
0.0885826771653546
 50
179.999999994854
 51
359.999999994854
  0
ARC
  8
3
  6
CONTINUOUS
 62
3
 10
5.65177464563615
 20
5.72681204728133
 30
0.0
 40
0.0885826771381783
 50
81.9999999762769
 51
180.00000002408
  0
ARC
  8
3
  6
CONTINUOUS
 62
3
 10
5.65177464566332
 20
4.93941047243299
 30
0.0
 40
0.0885826771653546
 50
179.999999994854
 51
359.999999994854
  0
ARC
  8
3
  6
CONTINUOUS
 62
3
 10
5.65177464568955
 20
4.93941047246569
 30
0.0
 40
0.0885826771391288
 50
359.999999973706
 51
99.0000000160017
  0
ARC
  8
3
  6
CONTINUOUS
 62
3
 10
5.65177464566332
 20
4.02996165353535
 30
0.0
 40
0.0885826771653551
 50
179.999999994854
 51
359.999999994854
  0
ARC
  8
3
  6
CONTINUOUS
 62
3
 10
5.65177464563615
 20
4.02996165358054
 30
0.0
 40
0.0885826771381783
 50
81.9999999762768
 51
180.000000024079
  0
ARC
  8
3
  6
CONTINUOUS
 62
3
 10
5.65177464566332
 20
3.2425600787322
 30
0.0
 40
0.0885826771653551
 50
179.999999994854
 51
359.999999994854
  0
ARC
  8
3
  6
CONTINUOUS
 62
3
 10
5.65177464568955
 20
3.2425600787649
 30
0.0
 40
0.0885826771391308
 50
359.999999973707
 51
99.0000000160007
  0
ARC
  8
3
  6
CONTINUOUS
 62
3
 10
3.93090850390701
 20
7.42366244091478
 30
0.0
 40
0.0885826771353595
 50
179.999999975387
 51
279.000000002184
  0
ARC
  8
3
  6
CONTINUOUS
 62
3
 10
3.93090850393999
 20
7.42366244093693
 30
0.0
 40
0.0885826771683378
 50
359.999999994854
 51
179.99999998971
  0
ARC
  8
3
  6
CONTINUOUS
 62
3
 10
3.93090850391315
 20
6.63626086613875
 30
0.0
 40
0.0885826771623717
 50
269.999999999999
 51
89.9999999999998
  0
ARC
  8
3
  6
CONTINUOUS
 62
3
 10
3.93090850393701
 20
6.63626086613875
 30
0.0
 40
0.0885826771623717
 50
89.9999999999998
 51
270
  0
ARC
  8
3
  6
CONTINUOUS
 62
3
 10
3.93090850391315
 20
5.72681204724111
 30
0.0
 40
0.0885826771623761
 50
269.999999999999
 51
89.9999999999998
  0
ARC
  8
3
  6
CONTINUOUS
 62
3
 10
3.93090850393701
 20
5.72681204724111
 30
0.0
 40
0.0885826771623761
 50
89.9999999999998
 51
270
  0
ARC
  8
3
  6
CONTINUOUS
 62
3
 10
3.93090850391315
 20
4.93941047243796
 30
0.0
 40
0.0885826771623761
 50
269.999999999999
 51
89.9999999999998
  0
ARC
  8
3
  6
CONTINUOUS
 62
3
 10
3.93090850393701
 20
4.93941047243796
 30
0.0
 40
0.0885826771623761
 50
89.9999999999998
 51
270
  0
ARC
  8
3
  6
CONTINUOUS
 62
3
 10
3.93090850391315
 20
4.02996165354033
 30
0.0
 40
0.0885826771623712
 50
269.999999999999
 51
89.9999999999998
  0
ARC
  8
3
  6
CONTINUOUS
 62
3
 10
3.93090850393701
 20
4.02996165354033
 30
0.0
 40
0.0885826771623712
 50
89.9999999999998
 51
270
  0
ARC
  8
3
  6
CONTINUOUS
 62
3
 10
3.93090850393701
 20
3.24256007872027
 30
0.0
 40
0.0885826771653548
 50
2.57177107099395E-9
 51
179.999999987135
  0
LINE
  8
9
  6
CONTINUOUS
 62
9
 10
1.70591401572793
 20
1
 30
0.0
 11
1.70591401574803
 21
1.14925
 31
0.0
  0
LINE
  8
9
  6
CONTINUOUS
 62
9
 10
1.65616401574803
 20
1.14925000000447
 30
0.0
 11
1.70591401574803
 21
1.14925
 31
0.0
  0
LINE
  8
9
  6
CONTINUOUS
 62
9
 10
2.29205943806614
 20
1.46622957773461
 30
0.0
 11
2.23274828960928
 21
1.37662020730535
 31
0.0
  0
LINE
  8
9
  6
CONTINUOUS
 62
9
 10
2.26371839278852
 20
1.41555496310358
 30
0.0
 11
2.23274828960928
 21
1.37662020730535
 31
0.0
  0
LINE
  8
9
  6
CONTINUOUS
 62
9
 10
3.92706729459809
 20
3.24316783502187
 30
0.0
 11
3.90353495127963
 21
3.15831294639315
 31
0.0
  0
LINE
  8
9
  6
CONTINUOUS
 62
9
 10
3.92095776850648
 20
3.20491238780482
 30
0.0
 11
3.90353495127963
 21
3.15831294639315
 31
0.0
  0
LINE
  8
9
  6
CONTINUOUS
 62
9
 10
3.93713996484506
 20
3.63508275622905
 30
0.0
 11
3.94172965129359
 21
3.52996165354331
 31
0.0
  0
LINE
  8
9
  6
CONTINUOUS
 62
9
 10
3.94389971582164
 20
3.57966430256672
 30
0.0
 11
3.94172965129359
 21
3.52996165354331
 31
0.0
  0
LINE
  8
9
  6
CONTINUOUS
 62
9
 10
3.92706748974528
 20
4.02935266515074
 30
0.0
 11
3.93090850392905
 21
3.94137897637796
 31
0.0
  0
LINE
  8
9
  6
CONTINUOUS
 62
9
 10
3.93307856846117
 20
3.99108162540119
 30
0.0
 11
3.93090850392905
 21
3.94137897637796
 31
0.0
  0
LINE
  8
9
  6
CONTINUOUS
 62
9
 10
3.92706748974528
 20
4.93880148404837
 30
0.0
 11
3.93090850392905
 21
4.85082779527559
 31
0.0
  0
LINE
  8
9
  6
CONTINUOUS
 62
9
 10
3.93307856846117
 20
4.90053044429882
 30
0.0
 11
3.93090850392905
 21
4.85082779527559
 31
0.0
  0
LINE
  8
9
  6
CONTINUOUS
 62
9
 10
3.93713996484506
 20
5.33193314992983
 30
0.0
 11
3.94172965129359
 21
5.22681204724409
 31
0.0
  0
LINE
  8
9
  6
CONTINUOUS
 62
9
 10
3.94389971582164
 20
5.2765146962675
 30
0.0
 11
3.94172965129359
 21
5.22681204724409
 31
0.0
  0
LINE
  8
9
  6
CONTINUOUS
 62
9
 10
3.92706748974528
 20
5.72620305885152
 30
0.0
 11
3.93090850392905
 21
5.63822937007874
 31
0.0
  0
LINE
  8
9
  6
CONTINUOUS
 62
9
 10
3.93307856846117
 20
5.68793201910197
 30
0.0
 11
3.93090850392905
 21
5.63822937007874
 31
0.0
  0
LINE
  8
9
  6
CONTINUOUS
 62
9
 10
3.92706748974528
 20
6.63565187774915
 30
0.0
 11
3.93090850392905
 21
6.54767818897638
 31
0.0
  0
LINE
  8
9
  6
CONTINUOUS
 62
9
 10
3.93307856846117
 20
6.59738083799961
 30
0.0
 11
3.93090850392905
 21
6.54767818897638
 31
0.0
  0
LINE
  8
9
  6
CONTINUOUS
 62
9
 10
3.93713996484506
 20
7.02878354363062
 30
0.0
 11
3.94172965129359
 21
6.92366244094488
 31
0.0
  0
LINE
  8
9
  6
CONTINUOUS
 62
9
 10
3.94389971582164
 20
6.97336508996829
 30
0.0
 11
3.94172965129359
 21
6.92366244094488
 31
0.0
  0
LINE
  8
9
  6
CONTINUOUS
 62
9
 10
3.92765638074531
 20
7.42026627678359
 30
0.0
 11
3.94476588763556
 21
7.3361703635325
 31
0.0
  0
LINE
  8
9
  6
CONTINUOUS
 62
9
 10
3.93913402776901
 20
7.38560056335451
 30
0.0
 11
3.94476588763556
 21
7.3361703635325
 31
0.0
  0
LINE
  8
9
  6
CONTINUOUS
 62
9
 10
5.63484352073893
 20
7.0093071055991
 30
0.0
 11
5.52823133858268
 21
7.00465231721035
 31
0.0
  0
LINE
  8
9
  6
CONTINUOUS
 62
9
 10
5.5779339876058
 20
7.00248225267559
 30
0.0
 11
5.52823133858268
 21
7.00465231721035
 31
0.0
  0
LINE
  8
9
  6
CONTINUOUS
 62
9
 10
5.64793363147753
 20
7.42305345255248
 30
0.0
 11
5.65177464565736
 21
7.33507976377953
 31
0.0
  0
LINE
  8
9
  6
CONTINUOUS
 62
9
 10
5.65394471019171
 20
7.38478241280266
 30
0.0
 11
5.65177464565736
 21
7.33507976377953
 31
0.0
  0
LINE
  8
9
  6
CONTINUOUS
 62
9
 10
5.65555888906586
 20
6.63768165481645
 30
0.0
 11
5.65022866478812
 21
6.72483005173636
 31
0.0
  0
LINE
  8
9
  6
CONTINUOUS
 62
9
 10
5.64892636159868
 20
6.67509709981912
 30
0.0
 11
5.65022866478812
 21
6.72483005173636
 31
0.0
  0
LINE
  8
9
  6
CONTINUOUS
 62
9
 10
5.65587760884637
 20
5.72910898639317
 30
0.0
 11
5.66410297154113
 21
5.81453264388981
 31
0.0
  0
LINE
  8
9
  6
CONTINUOUS
 62
9
 10
5.65503675413618
 20
5.76561571224067
 30
0.0
 11
5.66410297154113
 21
5.81453264388981
 31
0.0
  0
LINE
  8
9
  6
CONTINUOUS
 62
9
 10
5.63529571568543
 20
5.33428936975479
 30
0.0
 11
5.63070602924635
 21
5.43941047244095
 31
0.0
  0
LINE
  8
9
  6
CONTINUOUS
 62
9
 10
5.62853596471383
 20
5.38970782341774
 30
0.0
 11
5.63070602924635
 21
5.43941047244095
 31
0.0
  0
LINE
  8
9
  6
CONTINUOUS
 62
9
 10
5.65502676885592
 20
4.94280663660192
 30
0.0
 11
5.63791726195502
 21
5.02690254985084
 31
0.0
  0
LINE
  8
9
  6
CONTINUOUS
 62
9
 10
5.64354912182783
 20
4.97747235002955
 30
0.0
 11
5.63791726195502
 21
5.02690254985084
 31
0.0
  0
LINE
  8
9
  6
CONTINUOUS
 62
9
 10
5.65587760884637
 20
4.03225859269238
 30
0.0
 11
5.66410297154113
 21
4.11768225018902
 31
0.0
  0
LINE
  8
9
  6
CONTINUOUS
 62
9
 10
5.65503675413618
 20
4.06876531853988
 30
0.0
 11
5.66410297154113
 21
4.11768225018902
 31
0.0
  0
LINE
  8
9
  6
CONTINUOUS
 62
9
 10
5.63529571568543
 20
3.637438976054
 30
0.0
 11
5.63070602924635
 21
3.74256007874016
 31
0.0
  0
LINE
  8
9
  6
CONTINUOUS
 62
9
 10
5.62853596471383
 20
3.69285742971695
 30
0.0
 11
5.63070602924635
 21
3.74256007874016
 31
0.0
  0
LINE
  8
9
  6
CONTINUOUS
 62
9
 10
5.65502676885592
 20
3.24595624290112
 30
0.0
 11
5.63791726195502
 21
3.33005215615005
 31
0.0
  0
LINE
  8
9
  6
CONTINUOUS
 62
9
 10
5.64354912182783
 20
3.28062195632876
 30
0.0
 11
5.63791726195502
 21
3.33005215615005
 31
0.0
  0
LINE
  8
9
  6
CONTINUOUS
 62
9
 10
8.26874292609531
 20
2.45118558724171
 30
0.0
 11
8.19116568313712
 21
2.52227203339404
 31
0.0
  0
LINE
  8
9
  6
CONTINUOUS
 62
9
 10
8.22477629595699
 20
2.48559248587948
 30
0.0
 11
8.19116568313712
 21
2.52227203339404
 31
0.0
  0
LINE
  8
9
  6
CONTINUOUS
 62
9
 10
7.28153061340201
 20
9.20346409984491
 30
0.0
 11
7.28621795274619
 21
9.09610637795276
 31
0.0
  0
LINE
  8
9
  6
CONTINUOUS
 62
9
 10
7.28838801727772
 20
9.14580902697601
 30
0.0
 11
7.28621795274619
 21
9.09610637795276
 31
0.0
  0
LINE
  8
9
  6
CONTINUOUS
 62
9
 10
1.31437761873745
 20
8.21813039911291
 30
0.0
 11
1.41792934723127
 21
8.18941296319079
 31
0.0
  0
LINE
  8
9
  6
CONTINUOUS
 62
9
 10
1.37132990582096
 20
8.20683578042127
 30
0.0
 11
1.41792934723127
 21
8.18941296319079
 31
0.0
  0
LINE
  8
0
  6
CONTINUOUS
 62
0
 10
0.999999999999999
 20
9.51933472440945
 30
0.0
 11
1.31437761873745
 21
8.21813039911291
 31
0.0
  0
LINE
  8
0
  6
CONTINUOUS
 62
0
 10
1.37132990582096
 20
8.20683578042127
 30
0.0
 11
7.28153061340201
 21
9.20346409984491
 31
0.0
  0
LINE
  8
0
  6
CONTINUOUS
 62
0
 10
7.28838801727772
 20
9.14580902697601
 30
0.0
 11
8.26874292609531
 21
2.45118558724171
 31
0.0
  0
LINE
  8
0
  6
CONTINUOUS
 62
0
 10
8.22477629595699
 20
2.48559248587948
 30
0.0
 11
5.65502676885592
 21
3.24595624290112
 31
0.0
  0
LINE
  8
0
  6
CONTINUOUS
 62
0
 10
5.64354912182783
 20
3.28062195632876
 30
0.0
 11
5.63529571568543
 21
3.637438976054
 31
0.0
  0
LINE
  8
0
  6
CONTINUOUS
 62
0
 10
5.62853596471383
 20
3.69285742971695
 30
0.0
 11
5.65587760884637
 21
4.03225859269238
 31
0.0
  0
LINE
  8
0
  6
CONTINUOUS
 62
0
 10
5.65503675413618
 20
4.06876531853988
 30
0.0
 11
5.65502676885592
 21
4.94280663660192
 31
0.0
  0
LINE
  8
0
  6
CONTINUOUS
 62
0
 10
5.64354912182783
 20
4.97747235002955
 30
0.0
 11
5.63529571568543
 21
5.33428936975479
 31
0.0
  0
LINE
  8
0
  6
CONTINUOUS
 62
0
 10
5.62853596471383
 20
5.38970782341774
 30
0.0
 11
5.65587760884637
 21
5.72910898639317
 31
0.0
  0
LINE
  8
0
  6
CONTINUOUS
 62
0
 10
5.65503675413618
 20
5.76561571224067
 30
0.0
 11
5.65555888906586
 21
6.63768165481645
 31
0.0
  0
LINE
  8
0
  6
CONTINUOUS
 62
0
 10
5.64892636159868
 20
6.67509709981912
 30
0.0
 11
5.64793363147753
 21
7.42305345255248
 31
0.0
  0
LINE
  8
0
  6
CONTINUOUS
 62
0
 10
5.65394471019171
 20
7.38478241280266
 30
0.0
 11
5.63484352073893
 21
7.0093071055991
 31
0.0
  0
LINE
  8
0
  6
CONTINUOUS
 62
0
 10
5.5779339876058
 20
7.00248225267559
 30
0.0
 11
3.92765638074531
 21
7.42026627678359
 31
0.0
  0
LINE
  8
0
  6
CONTINUOUS
 62
0
 10
3.93913402776901
 20
7.38560056335451
 30
0.0
 11
3.93713996484506
 21
7.02878354363062
 31
0.0
  0
LINE
  8
0
  6
CONTINUOUS
 62
0
 10
3.94389971582164
 20
6.97336508996829
 30
0.0
 11
3.92706748974528
 21
6.63565187774915
 31
0.0
  0
LINE
  8
0
  6
CONTINUOUS
 62
0
 10
3.93307856846117
 20
6.59738083799961
 30
0.0
 11
3.92706748974528
 21
5.72620305885152
 31
0.0
  0
LINE
  8
0
  6
CONTINUOUS
 62
0
 10
3.93307856846117
 20
5.68793201910197
 30
0.0
 11
3.93713996484506
 21
5.33193314992983
 31
0.0
  0
LINE
  8
0
  6
CONTINUOUS
 62
0
 10
3.94389971582164
 20
5.2765146962675
 30
0.0
 11
3.92706748974528
 21
4.93880148404837
 31
0.0
  0
LINE
  8
0
  6
CONTINUOUS
 62
0
 10
3.93307856846117
 20
4.90053044429882
 30
0.0
 11
3.92706748974528
 21
4.02935266515074
 31
0.0
  0
LINE
  8
0
  6
CONTINUOUS
 62
0
 10
3.93307856846117
 20
3.99108162540119
 30
0.0
 11
3.93713996484506
 21
3.63508275622905
 31
0.0
  0
LINE
  8
0
  6
CONTINUOUS
 62
0
 10
3.94389971582164
 20
3.57966430256672
 30
0.0
 11
3.92706729459809
 21
3.24316783502187
 31
0.0
  0
LINE
  8
0
  6
CONTINUOUS
 62
0
 10
3.92095776850648
 20
3.20491238780482
 30
0.0
 11
2.29205943806614
 21
1.46622957773461
 31
0.0
  0
LINE
  8
0
  6
CONTINUOUS
 62
0
 10
2.26371839278852
 20
1.41555496310358
 30
0.0
 11
1.70591401572793
 21
1
 31
0.0
  0
ARC
  8
3
  6
CONTINUOUS
 62
3
 10
2.29638645667383
 20
1.46421062991154
 30
0.0
 40
0.108267716516353
 50
179.999999994854
 51
233.999999991767
  0
ARC
  8
3
  6
CONTINUOUS
 62
3
 10
2.29638645669786
 20
1.46421062991154
 30
0.0
 40
0.108267716530479
 50
233.999999981477
 51
359.999999994854
  0
ARC
  8
3
  6
CONTINUOUS
 62
3
 10
3.93090850392606
 20
3.24256007873221
 30
0.0
 40
0.0885826771544066
 50
179.999999994854
 51
251.999999990738
  0
ARC
  8
3
  6
CONTINUOUS
 62
3
 10
3.93090850394279
 20
3.24256007873221
 30
0.0
 40
0.0885826771595757
 50
251.999999980447
 51
359.999999994853
  0
LINE
  8
3
  6
CONTINUOUS
 62
3
 10
4.05445181102362
 20
3.52996165354331
 30
0.0
 11
3.94172965129359
 21
3.52996165354331
 31
0.0
  0
LINE
  8
3
  6
CONTINUOUS
 62
3
 10
3.94172965129359
 20
3.52996165354331
 30
0.0
 11
3.83925496062992
 21
3.52996165354331
 31
0.0
  0
LINE
  8
3
  6
CONTINUOUS
 62
3
 10
4.05445181102362
 20
5.22681204724409
 30
0.0
 11
3.94172965129359
 21
5.22681204724409
 31
0.0
  0
LINE
  8
3
  6
CONTINUOUS
 62
3
 10
3.94172965129359
 20
5.22681204724409
 30
0.0
 11
3.83925496062992
 21
5.22681204724409
 31
0.0
  0
LINE
  8
3
  6
CONTINUOUS
 62
3
 10
4.05445181102362
 20
6.92366244094488
 30
0.0
 11
3.94172965129359
 21
6.92366244094488
 31
0.0
  0
LINE
  8
3
  6
CONTINUOUS
 62
3
 10
3.94172965129359
 20
6.92366244094488
 30
0.0
 11
3.83925496062992
 21
6.92366244094488
 31
0.0
  0
ARC
  8
3
  6
CONTINUOUS
 62
3
 10
3.93090850395229
 20
7.42366244094289
 30
0.0
 40
0.0885826771560409
 50
278.999999970416
 51
359.999999990996
  0
LINE
  8
3
  6
CONTINUOUS
 62
3
 10
5.52823133858268
 20
6.92366244094488
 30
0.0
 11
5.52823133858268
 21
7.00465231721035
 31
0.0
  0
LINE
  8
3
  6
CONTINUOUS
 62
3
 10
5.52823133858268
 20
7.00465231721035
 30
0.0
 11
5.52823133858268
 21
7.13626086614173
 31
0.0
  0
ARC
  8
3
  6
CONTINUOUS
 62
3
 10
5.65177464567711
 20
6.63626086614969
 30
0.0
 40
0.0885826771575379
 50
359.999999994855
 51
91.0000000025439
  0
ARC
  8
3
  6
CONTINUOUS
 62
3
 10
5.65177464566332
 20
5.72681204725007
 30
0.0
 40
0.0885826771653549
 50
359.99999998585
 51
81.9999999964977
  0
LINE
  8
3
  6
CONTINUOUS
 62
3
 10
5.52823133858268
 20
5.43941047244095
 30
0.0
 11
5.63070602924635
 21
5.43941047244095
 31
0.0
  0
LINE
  8
3
  6
CONTINUOUS
 62
3
 10
5.63070602924635
 20
5.43941047244095
 30
0.0
 11
5.74342818897638
 21
5.43941047244095
 31
0.0
  0
ARC
  8
3
  6
CONTINUOUS
 62
3
 10
5.65177464565401
 20
4.93941047244294
 30
0.0
 40
0.0885826771560411
 50
98.9999999909955
 51
180.000000001286
  0
ARC
  8
3
  6
CONTINUOUS
 62
3
 10
5.65177464566332
 20
4.02996165354928
 30
0.0
 40
0.0885826771653546
 50
359.99999998585
 51
81.9999999964984
  0
LINE
  8
3
  6
CONTINUOUS
 62
3
 10
5.52823133858268
 20
3.74256007874016
 30
0.0
 11
5.63070602924635
 21
3.74256007874016
 31
0.0
  0
LINE
  8
3
  6
CONTINUOUS
 62
3
 10
5.63070602924635
 20
3.74256007874016
 30
0.0
 11
5.74342818897638
 21
3.74256007874016
 31
0.0
  0
ARC
  8
3
  6
CONTINUOUS
 62
3
 10
5.65177464565401
 20
3.24256007874215
 30
0.0
 40
0.0885826771560414
 50
98.9999999909956
 51
180.000000001286
  0
ARC
  8
3
  6
CONTINUOUS
 62
3
 10
8.26772251965428
 20
2.44571519685282
 30
0.0
 40
0.108267716511963
 50
134.999999990995
 51
180.000000001286
  0
ARC
  8
3
  6
CONTINUOUS
 62
3
 10
1.31496062991972
 20
8.22286952754933
 30
0.0
 40
0.108267716533893
 50
179.999999994854
 51
341.999999985593
  0
LINE
  8
3
  6
CONTINUOUS
 62
3
 10
1.70591401574803
 20
8.81342070866142
 30
0.0
 11
1
 21
8.81342070866142
 31
0.0
  0
LINE
  8
3
  6
CONTINUOUS
 62
3
 10
1
 20
1.85516401574803
 30
0.0
 11
1.70591401574803
 21
1.85516401574803
 31
0.0
  0
LINE
  8
0
  6
CONTINUOUS
 62
0
 10
0.85
 20
5.31638439497038
 30
0.0
 11
0.849999999999999
 21
5.26638439497038
 31
0.0
  0
LINE
  8
2
  6
CONTINUOUS
 62
2
 10
0.999999999999999
 20
5.26638439497038
 30
0.0
 11
0.849999999999999
 21
5.26638439497038
 31
0.0
  0
LINE
  8
2
  6
CONTINUOUS
 62
2
 10
1
 20
5.31638439497038
 30
0.0
 11
0.85
 21
5.31638439497038
 31
0.0
  0
LINE
  8
0
  6
CONTINUOUS
 62
0
 10
8.7326831496063
 20
5.26804710734963
 30
0.0
 11
8.7326831496063
 21
5.21804710734963
 31
0.0
  0
LINE
  8
2
  6
CONTINUOUS
 62
2
 10
8.5826831496063
 20
5.21804710734963
 30
0.0
 11
8.7326831496063
 21
5.21804710734963
 31
0.0
  0
LINE
  8
2
  6
CONTINUOUS
 62
2
 10
8.5826831496063
 20
5.26804710734963
 30
0.0
 11
8.7326831496063
 21
5.26804710734963
 31
0.0
  0
ENDSEC
  0
EOF
