  0
SECTION
  2
HEADER
  9
$ACADVER
  1
AC1003
  9
$EXTMIN
 10
0.849999999999999
 20
9.51933472440945
  9
$EXTMAX
 10
8.7326831496063
 20
1
  9
$INSBASE
 10
4.79134157480315
 20
5.25966736220473
999
Created with OMAX Layout for Windows. (http://www.omax.com) 4/30/2015
  0
ENDSEC
  0
SECTION
  2
TABLES
  0
TABLE
  2
LAYER
 70
    10
  0
LAYER
  2
0
 70
     0
 62
     7
  6
CONTINUOUS
  0
LAYER
  2
1
 70
     0
 62
     7
  6
CONTINUOUS
  0
LAYER
  2
2
 70
     0
 62
     7
  6
CONTINUOUS
  0
LAYER
  2
3
 70
     0
 62
     7
  6
CONTINUOUS
  0
LAYER
  2
4
 70
     0
 62
     7
  6
CONTINUOUS
  0
LAYER
  2
5
 70
     0
 62
     7
  6
CONTINUOUS
  0
LAYER
  2
6
 70
     0
 62
     7
  6
CONTINUOUS
  0
LAYER
  2
7
 70
     0
 62
     7
  6
CONTINUOUS
  0
LAYER
  2
8
 70
     0
 62
     7
  6
CONTINUOUS
  0
LAYER
  2
9
 70
     0
 62
     7
  6
CONTINUOUS
  0
LAYER
  2
10
 70
     0
 62
     7
  6
CONTINUOUS
  0
LAYER
  2
11
 70
     0
 62
     7
  6
CONTINUOUS
  0
LAYER
  2
12
 70
     0
 62
     7
  6
CONTINUOUS
  0
LAYER
  2
13
 70
     0
 62
     7
  6
CONTINUOUS
  0
LAYER
  2
14
 70
     0
 62
     7
  6
CONTINUOUS
  0
LAYER
  2
15
 70
     0
 62
     7
  6
CONTINUOUS
  0
LAYER
  2
16
 70
     0
 62
     7
  6
CONTINUOUS
  0
LAYER
  2
17
 70
     0
 62
     7
  6
CONTINUOUS
  0
LAYER
  2
18
 70
     0
 62
     7
  6
CONTINUOUS
  0
LAYER
  2
19
 70
     0
 62
     7
  6
CONTINUOUS
  0
LAYER
  2
20
 70
     0
 62
     7
  6
CONTINUOUS
  0
LAYER
  2
21
 70
     0
 62
     7
  6
CONTINUOUS
  0
LAYER
  2
22
 70
     0
 62
     7
  6
CONTINUOUS
  0
LAYER
  2
23
 70
     0
 62
     7
  6
CONTINUOUS
  0
LAYER
  2
24
 70
     0
 62
     7
  6
CONTINUOUS
  0
LAYER
  2
25
 70
     0
 62
     7
  6
CONTINUOUS
  0
LAYER
  2
26
 70
     0
 62
     7
  6
CONTINUOUS
  0
LAYER
  2
27
 70
     0
 62
     7
  6
CONTINUOUS
  0
LAYER
  2
28
 70
     0
 62
     7
  6
CONTINUOUS
  0
LAYER
  2
29
 70
     0
 62
     7
  6
CONTINUOUS
  0
LAYER
  2
30
 70
     0
 62
     7
  6
CONTINUOUS
  0
LAYER
  2
31
 70
     0
 62
     7
  6
CONTINUOUS
  0
ENDTAB
  0
ENDSEC
  0
SECTION
  2
ENTITIES
  0
LINE
  8
3
  6
CONTINUOUS
 62
3
 10
1
 20
8.81342070866142
 30
0.0
 11
0.999999999999999
 21
5.38405659763943
 31
0.0
  0
LINE
  8
3
  6
CONTINUOUS
 62
3
 10
0.999999999999999
 20
5.33405659763943
 30
0.0
 11
1
 21
1.85516401574803
 31
0.0
  0
LINE
  8
3
  6
CONTINUOUS
 62
3
 10
1
 20
1.85516401574803
 30
0.0
 11
1.70591401574803
 21
1.85516401574803
 31
0.0
  0
LINE
  8
3
  6
CONTINUOUS
 62
3
 10
1.70591401574803
 20
8.81342070866142
 30
0.0
 11
1
 21
8.81342070866142
 31
0.0
  0
LINE
  8
3
  6
CONTINUOUS
 62
3
 10
7.87676913385827
 20
1.85516401574803
 30
0.0
 11
7.87676913385827
 21
1.14925
 31
0.0
  0
LINE
  8
3
  6
CONTINUOUS
 62
3
 10
1.70591401574803
 20
1.14925
 30
0.0
 11
1.70591401574803
 21
1.85516401574803
 31
0.0
  0
LINE
  8
3
  6
CONTINUOUS
 62
3
 10
7.87676913385827
 20
1.14925
 30
0.0
 11
1.70591401574803
 21
1.14925
 31
0.0
  0
LINE
  8
3
  6
CONTINUOUS
 62
3
 10
7.87676913385827
 20
9.51933472440945
 30
0.0
 11
1.70591401574803
 21
9.51933472440945
 31
0.0
  0
LINE
  8
3
  6
CONTINUOUS
 62
3
 10
1.70591401574803
 20
9.51933472440945
 30
0.0
 11
1.70591401574803
 21
8.81342070866142
 31
0.0
  0
LINE
  8
3
  6
CONTINUOUS
 62
3
 10
7.87676913385827
 20
8.81342070866142
 30
0.0
 11
7.87676913385827
 21
9.51933472440945
 31
0.0
  0
LINE
  8
3
  6
CONTINUOUS
 62
3
 10
8.5826831496063
 20
1.85516401574803
 30
0.0
 11
7.87676913385827
 21
1.85516401574803
 31
0.0
  0
LINE
  8
3
  6
CONTINUOUS
 62
3
 10
8.5826831496063
 20
8.81342070866142
 30
0.0
 11
8.5826831496063
 21
5.30671693744623
 31
0.0
  0
LINE
  8
3
  6
CONTINUOUS
 62
3
 10
8.5826831496063
 20
5.25671693744623
 30
0.0
 11
8.5826831496063
 21
1.85516401574803
 31
0.0
  0
LINE
  8
3
  6
CONTINUOUS
 62
3
 10
7.87676913385827
 20
8.81342070866142
 30
0.0
 11
8.5826831496063
 21
8.81342070866142
 31
0.0
  0
LINE
  8
3
  6
CONTINUOUS
 62
3
 10
5.74342818897638
 20
6.92366244094488
 30
0.0
 11
5.52823133858268
 21
6.92366244094488
 31
0.0
  0
LINE
  8
3
  6
CONTINUOUS
 62
3
 10
5.52823133858268
 20
7.13626086614173
 30
0.0
 11
5.74342818897638
 21
7.13626086614173
 31
0.0
  0
LINE
  8
3
  6
CONTINUOUS
 62
3
 10
5.52823133858268
 20
5.43941047244095
 30
0.0
 11
5.74342818897638
 21
5.43941047244095
 31
0.0
  0
LINE
  8
3
  6
CONTINUOUS
 62
3
 10
5.52823133858268
 20
3.74256007874016
 30
0.0
 11
5.74342818897638
 21
3.74256007874016
 31
0.0
  0
LINE
  8
3
  6
CONTINUOUS
 62
3
 10
3.83925496062992
 20
7.13626086614173
 30
0.0
 11
4.05445181102362
 21
7.13626086614173
 31
0.0
  0
LINE
  8
3
  6
CONTINUOUS
 62
3
 10
3.83925496062992
 20
5.43941047244095
 30
0.0
 11
4.05445181102362
 21
5.43941047244095
 31
0.0
  0
LINE
  8
3
  6
CONTINUOUS
 62
3
 10
3.83925496062992
 20
3.74256007874016
 30
0.0
 11
4.05445181102362
 21
3.74256007874016
 31
0.0
  0
LINE
  8
3
  6
CONTINUOUS
 62
3
 10
3.83925496062992
 20
3.52996165354331
 30
0.0
 11
3.83925496062992
 21
3.74256007874016
 31
0.0
  0
LINE
  8
3
  6
CONTINUOUS
 62
3
 10
4.05445181102362
 20
3.52996165354331
 30
0.0
 11
3.83925496062992
 21
3.52996165354331
 31
0.0
  0
LINE
  8
3
  6
CONTINUOUS
 62
3
 10
4.05445181102362
 20
5.43941047244095
 30
0.0
 11
4.05445181102362
 21
5.22681204724409
 31
0.0
  0
LINE
  8
3
  6
CONTINUOUS
 62
3
 10
3.83925496062992
 20
5.22681204724409
 30
0.0
 11
3.83925496062992
 21
5.43941047244095
 31
0.0
  0
LINE
  8
3
  6
CONTINUOUS
 62
3
 10
4.05445181102362
 20
7.13626086614173
 30
0.0
 11
4.05445181102362
 21
6.92366244094488
 31
0.0
  0
LINE
  8
3
  6
CONTINUOUS
 62
3
 10
4.05445181102362
 20
6.92366244094488
 30
0.0
 11
3.83925496062992
 21
6.92366244094488
 31
0.0
  0
LINE
  8
3
  6
CONTINUOUS
 62
3
 10
5.52823133858268
 20
3.52996165354331
 30
0.0
 11
5.52823133858268
 21
3.74256007874016
 31
0.0
  0
LINE
  8
3
  6
CONTINUOUS
 62
3
 10
5.74342818897638
 20
3.52996165354331
 30
0.0
 11
5.52823133858268
 21
3.52996165354331
 31
0.0
  0
LINE
  8
3
  6
CONTINUOUS
 62
3
 10
5.74342818897638
 20
5.43941047244095
 30
0.0
 11
5.74342818897638
 21
5.22681204724409
 31
0.0
  0
LINE
  8
3
  6
CONTINUOUS
 62
3
 10
5.74342818897638
 20
5.22681204724409
 30
0.0
 11
5.52823133858268
 21
5.22681204724409
 31
0.0
  0
LINE
  8
3
  6
CONTINUOUS
 62
3
 10
5.74342818897638
 20
7.13626086614173
 30
0.0
 11
5.74342818897638
 21
6.92366244094488
 31
0.0
  0
ARC
  8
3
  6
CONTINUOUS
 62
3
 10
7.28621795272674
 20
9.20437409448455
 30
0.0
 40
0.108267716531787
 50
269.999999999999
 51
89.9999999999998
  0
ARC
  8
3
  6
CONTINUOUS
 62
3
 10
7.28621795275591
 20
9.20437409448455
 30
0.0
 40
0.108267716531787
 50
89.9999999999998
 51
270
  0
ARC
  8
3
  6
CONTINUOUS
 62
3
 10
1.31496062992751
 20
8.22286952755803
 30
0.0
 40
0.108267716529174
 50
341.99999997994
 51
90.0000000033065
  0
ARC
  8
3
  6
CONTINUOUS
 62
3
 10
1.3149606299079
 20
8.22286952756513
 30
0.0
 40
0.10826771652207
 50
89.9999999929276
 51
180.000000003218
  0
ARC
  8
3
  6
CONTINUOUS
 62
3
 10
2.29638645669291
 20
1.46421062989695
 30
0.0
 40
0.108267716535433
 50
2.57180923765013E-9
 51
179.999999987136
  0
ARC
  8
3
  6
CONTINUOUS
 62
3
 10
8.26772251967775
 20
2.44571519684067
 30
0.0
 40
0.108267716535433
 50
179.999999994854
 51
359.999999994854
  0
ARC
  8
3
  6
CONTINUOUS
 62
3
 10
8.26772251968094
 20
2.44571519685639
 30
0.0
 40
0.108267716532243
 50
359.999999986534
 51
153.000000003174
  0
ARC
  8
3
  6
CONTINUOUS
 62
3
 10
6.74173492125387
 20
6.67563094487394
 30
0.0
 40
0.0885826771653542
 50
179.999999994854
 51
359.999999994854
  0
ARC
  8
3
  6
CONTINUOUS
 62
3
 10
6.7417349212267
 20
6.67563094491912
 30
0.0
 40
0.0885826771381783
 50
81.9999999762769
 51
180.000000024078
  0
ARC
  8
3
  6
CONTINUOUS
 62
3
 10
6.74173492125876
 20
7.38429236220783
 30
0.0
 40
0.0885826771664315
 50
188.999999981328
 51
359.999999997991
  0
ARC
  8
3
  6
CONTINUOUS
 62
3
 10
6.74173492125885
 20
7.3842923622087
 30
0.0
 40
0.0885826771663498
 50
359.999999997427
 51
179.999999992282
  0
ARC
  8
3
  6
CONTINUOUS
 62
3
 10
6.74173492125387
 20
5.68744196849598
 30
0.0
 40
0.0885826771653546
 50
179.999999994854
 51
359.999999994854
  0
ARC
  8
3
  6
CONTINUOUS
 62
3
 10
6.7417349212267
 20
5.68744196854117
 30
0.0
 40
0.088582677138177
 50
81.9999999762759
 51
180.00000002408
  0
ARC
  8
3
  6
CONTINUOUS
 62
3
 10
6.74173492124736
 20
4.97878055118397
 30
0.0
 40
0.0885826771622639
 50
90.9999999893602
 51
269.999999997782
  0
ARC
  8
3
  6
CONTINUOUS
 62
3
 10
6.74173492126282
 20
4.97878055118408
 30
0.0
 40
0.0885826771623727
 50
269.99999998778
 51
359.99999999807
  0
ARC
  8
3
  6
CONTINUOUS
 62
3
 10
6.74173492125387
 20
3.99059157479917
 30
0.0
 40
0.0885826771653546
 50
179.999999997427
 51
359.999999992282
  0
ARC
  8
3
  6
CONTINUOUS
 62
3
 10
6.7417349212267
 20
3.99059157484038
 30
0.0
 40
0.0885826771381779
 50
81.9999999762766
 51
180.00000002408
  0
ARC
  8
3
  6
CONTINUOUS
 62
3
 10
6.74173492125387
 20
3.28193015747634
 30
0.0
 40
0.0885826771653551
 50
179.999999997428
 51
359.999999992283
  0
ARC
  8
3
  6
CONTINUOUS
 62
3
 10
6.7417349212267
 20
3.28193015751755
 30
0.0
 40
0.0885826771381779
 50
81.9999999762771
 51
180.00000002408
  0
ARC
  8
3
  6
CONTINUOUS
 62
3
 10
2.84094751966118
 20
7.38429236220174
 30
0.0
 40
0.088582677162377
 50
269.999999999999
 51
89.9999999999998
  0
ARC
  8
3
  6
CONTINUOUS
 62
3
 10
2.84094751968504
 20
7.38429236220174
 30
0.0
 40
0.088582677162377
 50
89.9999999999998
 51
270
  0
ARC
  8
3
  6
CONTINUOUS
 62
3
 10
2.84094751966118
 20
6.67563094487891
 30
0.0
 40
0.0885826771623721
 50
269.999999999999
 51
89.9999999999998
  0
ARC
  8
3
  6
CONTINUOUS
 62
3
 10
2.84094751968504
 20
6.67563094487891
 30
0.0
 40
0.0885826771623721
 50
89.9999999999998
 51
270
  0
ARC
  8
3
  6
CONTINUOUS
 62
3
 10
2.84094751966118
 20
5.68744196850096
 30
0.0
 40
0.0885826771623721
 50
269.999999999999
 51
89.9999999999998
  0
ARC
  8
3
  6
CONTINUOUS
 62
3
 10
2.84094751968504
 20
5.68744196850096
 30
0.0
 40
0.0885826771623721
 50
89.9999999999998
 51
270
  0
ARC
  8
3
  6
CONTINUOUS
 62
3
 10
2.84094751966118
 20
4.97878055117812
 30
0.0
 40
0.0885826771623717
 50
269.999999999999
 51
89.9999999999998
  0
ARC
  8
3
  6
CONTINUOUS
 62
3
 10
2.84094751968504
 20
4.97878055117812
 30
0.0
 40
0.0885826771623717
 50
89.9999999999998
 51
270
  0
ARC
  8
3
  6
CONTINUOUS
 62
3
 10
2.8409475196572
 20
3.99059157480017
 30
0.0
 40
0.0885826771623717
 50
269.999999999999
 51
89.9999999999998
  0
ARC
  8
3
  6
CONTINUOUS
 62
3
 10
2.84094751968504
 20
3.99059157480017
 30
0.0
 40
0.0885826771623717
 50
89.9999999999998
 51
270
  0
ARC
  8
3
  6
CONTINUOUS
 62
3
 10
2.84094751966118
 20
3.28193015747733
 30
0.0
 40
0.088582677162377
 50
269.999999999999
 51
89.9999999999998
  0
ARC
  8
3
  6
CONTINUOUS
 62
3
 10
2.84094751968504
 20
3.28193015747733
 30
0.0
 40
0.088582677162377
 50
89.9999999999998
 51
270
  0
LINE
  8
9
  6
CONTINUOUS
 62
9
 10
1.70591401572793
 20
1
 30
0.0
 11
1.70591401574803
 21
1.14925
 31
0.0
  0
LINE
  8
9
  6
CONTINUOUS
 62
9
 10
1.65616401574803
 20
1.14925000000447
 30
0.0
 11
1.70591401574803
 21
1.14925
 31
0.0
  0
LINE
  8
9
  6
CONTINUOUS
 62
9
 10
2.29205943806614
 20
1.46622957773461
 30
0.0
 11
2.23274828960928
 21
1.37662020730535
 31
0.0
  0
LINE
  8
9
  6
CONTINUOUS
 62
9
 10
2.26371839278852
 20
1.41555496310358
 30
0.0
 11
2.23274828960928
 21
1.37662020730535
 31
0.0
  0
LINE
  8
9
  6
CONTINUOUS
 62
9
 10
2.83710650549331
 20
3.28132116908774
 30
0.0
 11
2.84094751967708
 21
3.19334748031495
 31
0.0
  0
LINE
  8
9
  6
CONTINUOUS
 62
9
 10
2.8431175842092
 20
3.24305012933819
 30
0.0
 11
2.84094751967708
 21
3.19334748031495
 31
0.0
  0
LINE
  8
9
  6
CONTINUOUS
 62
9
 10
2.83710650549328
 20
3.98998258641075
 30
0.0
 11
2.84094751967311
 21
3.9020088976378
 31
0.0
  0
LINE
  8
9
  6
CONTINUOUS
 62
9
 10
2.84311758420746
 20
3.95171154666093
 30
0.0
 11
2.84094751967311
 21
3.9020088976378
 31
0.0
  0
LINE
  8
9
  6
CONTINUOUS
 62
9
 10
2.83710650549331
 20
4.97817156278852
 30
0.0
 11
2.84094751967708
 21
4.89019787401575
 31
0.0
  0
LINE
  8
9
  6
CONTINUOUS
 62
9
 10
2.8431175842092
 20
4.93990052303898
 30
0.0
 11
2.84094751967708
 21
4.89019787401575
 31
0.0
  0
LINE
  8
9
  6
CONTINUOUS
 62
9
 10
2.83710650549331
 20
5.68683298011137
 30
0.0
 11
2.84094751967708
 21
5.59885929133859
 31
0.0
  0
LINE
  8
9
  6
CONTINUOUS
 62
9
 10
2.8431175842092
 20
5.64856194036182
 30
0.0
 11
2.84094751967708
 21
5.59885929133859
 31
0.0
  0
LINE
  8
9
  6
CONTINUOUS
 62
9
 10
2.83710650549331
 20
6.67502195648932
 30
0.0
 11
2.84094751967708
 21
6.58704826771654
 31
0.0
  0
LINE
  8
9
  6
CONTINUOUS
 62
9
 10
2.8431175842092
 20
6.63675091673977
 30
0.0
 11
2.84094751967708
 21
6.58704826771654
 31
0.0
  0
LINE
  8
9
  6
CONTINUOUS
 62
9
 10
2.83710650549331
 20
7.38368337381214
 30
0.0
 11
2.84094751967708
 21
7.29570968503937
 31
0.0
  0
LINE
  8
9
  6
CONTINUOUS
 62
9
 10
2.8431175842092
 20
7.3454123340626
 30
0.0
 11
2.84094751967708
 21
7.29570968503937
 31
0.0
  0
LINE
  8
9
  6
CONTINUOUS
 62
9
 10
3.94586714278618
 20
7.12066818546411
 30
0.0
 11
3.83925496062992
 21
7.11601339707536
 31
0.0
  0
LINE
  8
9
  6
CONTINUOUS
 62
9
 10
3.88895760965304
 20
7.11384333254061
 30
0.0
 11
3.83925496062992
 21
7.11601339707536
 31
0.0
  0
LINE
  8
9
  6
CONTINUOUS
 62
9
 10
5.63484352073893
 20
6.97893590199955
 30
0.0
 11
5.52823133858268
 21
6.9742811136108
 31
0.0
  0
LINE
  8
9
  6
CONTINUOUS
 62
9
 10
5.5779339876058
 20
6.97211104907604
 30
0.0
 11
5.52823133858268
 21
6.9742811136108
 31
0.0
  0
LINE
  8
9
  6
CONTINUOUS
 62
9
 10
6.7383387570903
 20
7.38754448540407
 30
0.0
 11
6.65424284384075
 21
7.37043497850626
 31
0.0
  0
LINE
  8
9
  6
CONTINUOUS
 62
9
 10
6.70367304366225
 20
7.37606683837726
 30
0.0
 11
6.65424284384075
 21
7.37043497850626
 31
0.0
  0
LINE
  8
9
  6
CONTINUOUS
 62
9
 10
6.74583788443692
 20
6.67792788403096
 30
0.0
 11
6.75406324713168
 21
6.7633515415276
 31
0.0
  0
LINE
  8
9
  6
CONTINUOUS
 62
9
 10
6.74499702972674
 20
6.71443460987846
 30
0.0
 11
6.75406324713168
 21
6.7633515415276
 31
0.0
  0
LINE
  8
9
  6
CONTINUOUS
 62
9
 10
6.74583788443692
 20
5.68973890765301
 30
0.0
 11
6.75406324713168
 21
5.77516256514964
 31
0.0
  0
LINE
  8
9
  6
CONTINUOUS
 62
9
 10
6.74499702972673
 20
5.72624563350051
 30
0.0
 11
6.75406324713168
 21
5.77516256514964
 31
0.0
  0
LINE
  8
9
  6
CONTINUOUS
 62
9
 10
6.74551916465642
 20
4.98020133985582
 30
0.0
 11
6.74018894037867
 21
5.06734973677573
 31
0.0
  0
LINE
  8
9
  6
CONTINUOUS
 62
9
 10
6.73888663718922
 20
5.01761678485849
 30
0.0
 11
6.74018894037867
 21
5.06734973677573
 31
0.0
  0
LINE
  8
9
  6
CONTINUOUS
 62
9
 10
6.74583788443692
 20
3.99288851395222
 30
0.0
 11
6.75406324713168
 21
4.07831217144886
 31
0.0
  0
LINE
  8
9
  6
CONTINUOUS
 62
9
 10
6.74499702972673
 20
4.02939523979972
 30
0.0
 11
6.75406324713168
 21
4.07831217144886
 31
0.0
  0
LINE
  8
9
  6
CONTINUOUS
 62
9
 10
6.74583788443692
 20
3.28422709662939
 30
0.0
 11
6.75406324713168
 21
3.36965075412603
 31
0.0
  0
LINE
  8
9
  6
CONTINUOUS
 62
9
 10
6.74499702972673
 20
3.32073382247689
 30
0.0
 11
6.75406324713168
 21
3.36965075412603
 31
0.0
  0
LINE
  8
9
  6
CONTINUOUS
 62
9
 10
5.63681600681971
 20
3.64679167956233
 30
0.0
 11
5.74342818897638
 21
3.65144646794151
 31
0.0
  0
LINE
  8
9
  6
CONTINUOUS
 62
9
 10
5.69372553995307
 20
3.6536165324718
 30
0.0
 11
5.74342818897638
 21
3.65144646794151
 31
0.0
  0
LINE
  8
9
  6
CONTINUOUS
 62
9
 10
3.94783962886695
 20
3.68728661769506
 30
0.0
 11
4.05445181102362
 21
3.69194140607424
 31
0.0
  0
LINE
  8
9
  6
CONTINUOUS
 62
9
 10
4.00474916200031
 20
3.69411147060453
 30
0.0
 11
4.05445181102362
 21
3.69194140607424
 31
0.0
  0
LINE
  8
9
  6
CONTINUOUS
 62
9
 10
3.93713996484506
 20
5.33193314992983
 30
0.0
 11
3.94172965129359
 21
5.22681204724409
 31
0.0
  0
LINE
  8
9
  6
CONTINUOUS
 62
9
 10
3.94389971582164
 20
5.2765146962675
 30
0.0
 11
3.94172965129359
 21
5.22681204724409
 31
0.0
  0
LINE
  8
9
  6
CONTINUOUS
 62
9
 10
5.63484352073893
 20
5.39344658816378
 30
0.0
 11
5.52823133858268
 21
5.38879179977503
 31
0.0
  0
LINE
  8
9
  6
CONTINUOUS
 62
9
 10
5.5779339876058
 20
5.38662173524028
 30
0.0
 11
5.52823133858268
 21
5.38879179977503
 31
0.0
  0
LINE
  8
9
  6
CONTINUOUS
 62
9
 10
8.2670025402514
 20
2.45123317020257
 30
0.0
 11
8.17125527788901
 21
2.49486771158518
 31
0.0
  0
LINE
  8
9
  6
CONTINUOUS
 62
9
 10
8.214555473756
 20
2.47036963945939
 30
0.0
 11
8.17125527788901
 21
2.49486771158518
 31
0.0
  0
LINE
  8
9
  6
CONTINUOUS
 62
9
 10
7.28153061340201
 20
9.20346409984491
 30
0.0
 11
7.28621795274619
 21
9.09610637795276
 31
0.0
  0
LINE
  8
9
  6
CONTINUOUS
 62
9
 10
7.28838801727772
 20
9.14580902697601
 30
0.0
 11
7.28621795274619
 21
9.09610637795276
 31
0.0
  0
LINE
  8
9
  6
CONTINUOUS
 62
9
 10
1.31437761873745
 20
8.21813039911291
 30
0.0
 11
1.41792934723127
 21
8.18941296319079
 31
0.0
  0
LINE
  8
9
  6
CONTINUOUS
 62
9
 10
1.37132990582096
 20
8.20683578042127
 30
0.0
 11
1.41792934723127
 21
8.18941296319079
 31
0.0
  0
LINE
  8
0
  6
CONTINUOUS
 62
0
 10
0.999999999999999
 20
9.51933472440945
 30
0.0
 11
1.31437761873745
 21
8.21813039911291
 31
0.0
  0
LINE
  8
0
  6
CONTINUOUS
 62
0
 10
1.37132990582096
 20
8.20683578042127
 30
0.0
 11
7.28153061340201
 21
9.20346409984491
 31
0.0
  0
LINE
  8
0
  6
CONTINUOUS
 62
0
 10
7.28838801727772
 20
9.14580902697601
 30
0.0
 11
8.2670025402514
 21
2.45123317020257
 31
0.0
  0
LINE
  8
0
  6
CONTINUOUS
 62
0
 10
8.214555473756
 20
2.47036963945939
 30
0.0
 11
5.63484352073893
 21
5.39344658816378
 31
0.0
  0
LINE
  8
0
  6
CONTINUOUS
 62
0
 10
5.5779339876058
 20
5.38662173524028
 30
0.0
 11
3.93713996484506
 21
5.33193314992983
 31
0.0
  0
LINE
  8
0
  6
CONTINUOUS
 62
0
 10
3.94389971582164
 20
5.2765146962675
 30
0.0
 11
3.94783962886695
 21
3.68728661769506
 31
0.0
  0
LINE
  8
0
  6
CONTINUOUS
 62
0
 10
4.00474916200031
 20
3.69411147060453
 30
0.0
 11
5.63681600681971
 21
3.64679167956233
 31
0.0
  0
LINE
  8
0
  6
CONTINUOUS
 62
0
 10
5.69372553995307
 20
3.6536165324718
 30
0.0
 11
6.74583788443692
 21
3.28422709662939
 31
0.0
  0
LINE
  8
0
  6
CONTINUOUS
 62
0
 10
6.74499702972673
 20
3.32073382247689
 30
0.0
 11
6.74583788443692
 21
3.99288851395222
 31
0.0
  0
LINE
  8
0
  6
CONTINUOUS
 62
0
 10
6.74499702972673
 20
4.02939523979972
 30
0.0
 11
6.74551916465642
 21
4.98020133985582
 31
0.0
  0
LINE
  8
0
  6
CONTINUOUS
 62
0
 10
6.73888663718922
 20
5.01761678485849
 30
0.0
 11
6.74583788443692
 21
5.68973890765301
 31
0.0
  0
LINE
  8
0
  6
CONTINUOUS
 62
0
 10
6.74499702972673
 20
5.72624563350051
 30
0.0
 11
6.74583788443692
 21
6.67792788403096
 31
0.0
  0
LINE
  8
0
  6
CONTINUOUS
 62
0
 10
6.74499702972674
 20
6.71443460987846
 30
0.0
 11
6.7383387570903
 21
7.38754448540407
 31
0.0
  0
LINE
  8
0
  6
CONTINUOUS
 62
0
 10
6.70367304366225
 20
7.37606683837726
 30
0.0
 11
5.63484352073893
 21
6.97893590199955
 31
0.0
  0
LINE
  8
0
  6
CONTINUOUS
 62
0
 10
5.5779339876058
 20
6.97211104907604
 30
0.0
 11
3.94586714278618
 21
7.12066818546411
 31
0.0
  0
LINE
  8
0
  6
CONTINUOUS
 62
0
 10
3.88895760965304
 20
7.11384333254061
 30
0.0
 11
2.83710650549331
 21
7.38368337381214
 31
0.0
  0
LINE
  8
0
  6
CONTINUOUS
 62
0
 10
2.8431175842092
 20
7.3454123340626
 30
0.0
 11
2.83710650549331
 21
6.67502195648932
 31
0.0
  0
LINE
  8
0
  6
CONTINUOUS
 62
0
 10
2.8431175842092
 20
6.63675091673977
 30
0.0
 11
2.83710650549331
 21
5.68683298011137
 31
0.0
  0
LINE
  8
0
  6
CONTINUOUS
 62
0
 10
2.8431175842092
 20
5.64856194036182
 30
0.0
 11
2.83710650549331
 21
4.97817156278852
 31
0.0
  0
LINE
  8
0
  6
CONTINUOUS
 62
0
 10
2.8431175842092
 20
4.93990052303898
 30
0.0
 11
2.83710650549328
 21
3.98998258641075
 31
0.0
  0
LINE
  8
0
  6
CONTINUOUS
 62
0
 10
2.84311758420746
 20
3.95171154666093
 30
0.0
 11
2.83710650549331
 21
3.28132116908774
 31
0.0
  0
LINE
  8
0
  6
CONTINUOUS
 62
0
 10
2.8431175842092
 20
3.24305012933819
 30
0.0
 11
2.29205943806614
 21
1.46622957773461
 31
0.0
  0
LINE
  8
0
  6
CONTINUOUS
 62
0
 10
2.26371839278852
 20
1.41555496310358
 30
0.0
 11
1.70591401572793
 21
1
 31
0.0
  0
ARC
  8
3
  6
CONTINUOUS
 62
3
 10
2.29638645667383
 20
1.46421062991154
 30
0.0
 40
0.108267716516353
 50
179.999999994854
 51
233.999999991767
  0
ARC
  8
3
  6
CONTINUOUS
 62
3
 10
2.29638645669786
 20
1.46421062991154
 30
0.0
 40
0.108267716530479
 50
233.999999981477
 51
359.999999994854
  0
LINE
  8
3
  6
CONTINUOUS
 62
3
 10
3.83925496062992
 20
6.92366244094488
 30
0.0
 11
3.83925496062992
 21
7.11601339707536
 31
0.0
  0
LINE
  8
3
  6
CONTINUOUS
 62
3
 10
3.83925496062992
 20
7.11601339707536
 30
0.0
 11
3.83925496062992
 21
7.13626086614173
 31
0.0
  0
LINE
  8
3
  6
CONTINUOUS
 62
3
 10
5.52823133858268
 20
6.92366244094488
 30
0.0
 11
5.52823133858268
 21
6.9742811136108
 31
0.0
  0
LINE
  8
3
  6
CONTINUOUS
 62
3
 10
5.52823133858268
 20
6.9742811136108
 30
0.0
 11
5.52823133858268
 21
7.13626086614173
 31
0.0
  0
ARC
  8
3
  6
CONTINUOUS
 62
3
 10
6.74173492115678
 20
7.38429236219876
 30
0.0
 40
0.0885826770642886
 50
179.999999985852
 51
188.999999985852
  0
ARC
  8
3
  6
CONTINUOUS
 62
3
 10
6.74173492125387
 20
6.67563094488786
 30
0.0
 40
0.0885826771653549
 50
359.99999998585
 51
81.999999996497
  0
ARC
  8
3
  6
CONTINUOUS
 62
3
 10
6.74173492125387
 20
5.68744196850991
 30
0.0
 40
0.0885826771653549
 50
359.99999998585
 51
81.9999999964977
  0
ARC
  8
3
  6
CONTINUOUS
 62
3
 10
6.74173492126766
 20
4.97878055118906
 30
0.0
 40
0.0885826771575388
 50
359.999999994855
 51
91.0000000025439
  0
ARC
  8
3
  6
CONTINUOUS
 62
3
 10
6.74173492125387
 20
3.99059157480912
 30
0.0
 40
0.0885826771653544
 50
359.99999998585
 51
81.9999999964979
  0
ARC
  8
3
  6
CONTINUOUS
 62
3
 10
6.74173492125388
 20
3.28193015748629
 30
0.0
 40
0.0885826771653543
 50
359.999999985851
 51
81.9999999964992
  0
LINE
  8
3
  6
CONTINUOUS
 62
3
 10
5.74342818897638
 20
3.74256007874016
 30
0.0
 11
5.74342818897638
 21
3.65144646794151
 31
0.0
  0
LINE
  8
3
  6
CONTINUOUS
 62
3
 10
5.74342818897638
 20
3.65144646794151
 30
0.0
 11
5.74342818897638
 21
3.52996165354331
 31
0.0
  0
LINE
  8
3
  6
CONTINUOUS
 62
3
 10
4.05445181102362
 20
3.74256007874016
 30
0.0
 11
4.05445181102362
 21
3.69194140607424
 31
0.0
  0
LINE
  8
3
  6
CONTINUOUS
 62
3
 10
4.05445181102362
 20
3.69194140607424
 30
0.0
 11
4.05445181102362
 21
3.52996165354331
 31
0.0
  0
LINE
  8
3
  6
CONTINUOUS
 62
3
 10
4.05445181102362
 20
5.22681204724409
 30
0.0
 11
3.94172965129359
 21
5.22681204724409
 31
0.0
  0
LINE
  8
3
  6
CONTINUOUS
 62
3
 10
3.94172965129359
 20
5.22681204724409
 30
0.0
 11
3.83925496062992
 21
5.22681204724409
 31
0.0
  0
LINE
  8
3
  6
CONTINUOUS
 62
3
 10
5.52823133858268
 20
5.22681204724409
 30
0.0
 11
5.52823133858268
 21
5.38879179977503
 31
0.0
  0
LINE
  8
3
  6
CONTINUOUS
 62
3
 10
5.52823133858268
 20
5.38879179977503
 30
0.0
 11
5.52823133858268
 21
5.43941047244095
 31
0.0
  0
ARC
  8
3
  6
CONTINUOUS
 62
3
 10
8.26772251963725
 20
2.44571519685282
 30
0.0
 40
0.10826771649494
 50
152.999999990996
 51
180.000000001286
  0
ARC
  8
3
  6
CONTINUOUS
 62
3
 10
1.31496062991972
 20
8.22286952754933
 30
0.0
 40
0.108267716533893
 50
179.999999994854
 51
341.999999985593
  0
LINE
  8
0
  6
CONTINUOUS
 62
0
 10
0.849999999999999
 20
5.38405659763943
 30
0.0
 11
0.849999999999999
 21
5.33405659763943
 31
0.0
  0
LINE
  8
2
  6
CONTINUOUS
 62
2
 10
0.999999999999999
 20
5.33405659763943
 30
0.0
 11
0.849999999999999
 21
5.33405659763943
 31
0.0
  0
LINE
  8
2
  6
CONTINUOUS
 62
2
 10
0.999999999999999
 20
5.38405659763943
 30
0.0
 11
0.849999999999999
 21
5.38405659763943
 31
0.0
  0
LINE
  8
0
  6
CONTINUOUS
 62
0
 10
8.7326831496063
 20
5.30671693744623
 30
0.0
 11
8.7326831496063
 21
5.25671693744623
 31
0.0
  0
LINE
  8
2
  6
CONTINUOUS
 62
2
 10
8.5826831496063
 20
5.25671693744623
 30
0.0
 11
8.7326831496063
 21
5.25671693744623
 31
0.0
  0
LINE
  8
2
  6
CONTINUOUS
 62
2
 10
8.5826831496063
 20
5.30671693744623
 30
0.0
 11
8.7326831496063
 21
5.30671693744623
 31
0.0
  0
ENDSEC
  0
EOF
