  0
SECTION
  2
HEADER
  9
$ACADVER
  1
AC1003
  9
$EXTMIN
 10
1
 20
9.37008472440945
  9
$EXTMAX
 10
8.5826831496063
 20
1
  9
$INSBASE
 10
4.79134157480315
 20
5.18504236220472
999
Created with OMAX Layout for Windows. (http://www.omax.com) 5/4/2015
  0
ENDSEC
  0
SECTION
  2
TABLES
  0
TABLE
  2
LAYER
 70
    10
  0
LAYER
  2
0
 70
     0
 62
     7
  6
CONTINUOUS
  0
LAYER
  2
1
 70
     0
 62
     7
  6
CONTINUOUS
  0
LAYER
  2
2
 70
     0
 62
     7
  6
CONTINUOUS
  0
LAYER
  2
3
 70
     0
 62
     7
  6
CONTINUOUS
  0
LAYER
  2
4
 70
     0
 62
     7
  6
CONTINUOUS
  0
LAYER
  2
5
 70
     0
 62
     7
  6
CONTINUOUS
  0
LAYER
  2
6
 70
     0
 62
     7
  6
CONTINUOUS
  0
LAYER
  2
7
 70
     0
 62
     7
  6
CONTINUOUS
  0
LAYER
  2
8
 70
     0
 62
     7
  6
CONTINUOUS
  0
LAYER
  2
9
 70
     0
 62
     7
  6
CONTINUOUS
  0
LAYER
  2
10
 70
     0
 62
     7
  6
CONTINUOUS
  0
LAYER
  2
11
 70
     0
 62
     7
  6
CONTINUOUS
  0
LAYER
  2
12
 70
     0
 62
     7
  6
CONTINUOUS
  0
LAYER
  2
13
 70
     0
 62
     7
  6
CONTINUOUS
  0
LAYER
  2
14
 70
     0
 62
     7
  6
CONTINUOUS
  0
LAYER
  2
15
 70
     0
 62
     7
  6
CONTINUOUS
  0
LAYER
  2
16
 70
     0
 62
     7
  6
CONTINUOUS
  0
LAYER
  2
17
 70
     0
 62
     7
  6
CONTINUOUS
  0
LAYER
  2
18
 70
     0
 62
     7
  6
CONTINUOUS
  0
LAYER
  2
19
 70
     0
 62
     7
  6
CONTINUOUS
  0
LAYER
  2
20
 70
     0
 62
     7
  6
CONTINUOUS
  0
LAYER
  2
21
 70
     0
 62
     7
  6
CONTINUOUS
  0
LAYER
  2
22
 70
     0
 62
     7
  6
CONTINUOUS
  0
LAYER
  2
23
 70
     0
 62
     7
  6
CONTINUOUS
  0
LAYER
  2
24
 70
     0
 62
     7
  6
CONTINUOUS
  0
LAYER
  2
25
 70
     0
 62
     7
  6
CONTINUOUS
  0
LAYER
  2
26
 70
     0
 62
     7
  6
CONTINUOUS
  0
LAYER
  2
27
 70
     0
 62
     7
  6
CONTINUOUS
  0
LAYER
  2
28
 70
     0
 62
     7
  6
CONTINUOUS
  0
LAYER
  2
29
 70
     0
 62
     7
  6
CONTINUOUS
  0
LAYER
  2
30
 70
     0
 62
     7
  6
CONTINUOUS
  0
LAYER
  2
31
 70
     0
 62
     7
  6
CONTINUOUS
  0
ENDTAB
  0
ENDSEC
  0
SECTION
  2
ENTITIES
  0
LINE
  8
3
  6
CONTINUOUS
 62
3
 10
1
 20
1.70591401574803
 30
0.0
 11
1
 21
8.66417070866142
 31
0.0
  0
LINE
  8
3
  6
CONTINUOUS
 62
3
 10
1.70591401574803
 20
1.70591401574803
 30
0.0
 11
1
 21
1.70591401574803
 31
0.0
  0
LINE
  8
3
  6
CONTINUOUS
 62
3
 10
1
 20
8.66417070866142
 30
0.0
 11
1.70591401574803
 21
8.66417070866142
 31
0.0
  0
LINE
  8
3
  6
CONTINUOUS
 62
3
 10
7.87676913385827
 20
1
 30
0.0
 11
7.87676913385827
 21
1.70591401574803
 31
0.0
  0
LINE
  8
3
  6
CONTINUOUS
 62
3
 10
1.70591401574803
 20
1.70591401574803
 30
0.0
 11
1.70591401574803
 21
1
 31
0.0
  0
LINE
  8
3
  6
CONTINUOUS
 62
3
 10
1.70591401574803
 20
1
 30
0.0
 11
7.87676913385827
 21
1
 31
0.0
  0
LINE
  8
3
  6
CONTINUOUS
 62
3
 10
1.70591401574803
 20
9.37008472440945
 30
0.0
 11
7.87676913385827
 21
9.37008472440945
 31
0.0
  0
LINE
  8
3
  6
CONTINUOUS
 62
3
 10
1.70591401574803
 20
8.66417070866142
 30
0.0
 11
1.70591401574803
 21
9.37008472440945
 31
0.0
  0
LINE
  8
3
  6
CONTINUOUS
 62
3
 10
7.87676913385827
 20
9.37008472440945
 30
0.0
 11
7.87676913385827
 21
8.66417070866142
 31
0.0
  0
LINE
  8
3
  6
CONTINUOUS
 62
3
 10
7.87676913385827
 20
1.70591401574803
 30
0.0
 11
8.5826831496063
 21
1.70591401574803
 31
0.0
  0
LINE
  8
3
  6
CONTINUOUS
 62
3
 10
8.5826831496063
 20
1.70591401574803
 30
0.0
 11
8.5826831496063
 21
8.66417070866142
 31
0.0
  0
LINE
  8
3
  6
CONTINUOUS
 62
3
 10
8.5826831496063
 20
8.66417070866142
 30
0.0
 11
7.87676913385827
 21
8.66417070866142
 31
0.0
  0
LINE
  8
3
  6
CONTINUOUS
 62
3
 10
5.54004236220472
 20
6.78622346456693
 30
0.0
 11
5.72901874015748
 21
6.78622346456693
 31
0.0
  0
LINE
  8
3
  6
CONTINUOUS
 62
3
 10
5.72901874015748
 20
6.97519984251969
 30
0.0
 11
5.54004236220472
 21
6.97519984251969
 31
0.0
  0
LINE
  8
3
  6
CONTINUOUS
 62
3
 10
5.72901874015748
 20
5.2783494488189
 30
0.0
 11
5.54004236220472
 21
5.2783494488189
 31
0.0
  0
LINE
  8
3
  6
CONTINUOUS
 62
3
 10
5.72901874015748
 20
3.58149905511811
 30
0.0
 11
5.54004236220472
 21
3.58149905511811
 31
0.0
  0
LINE
  8
3
  6
CONTINUOUS
 62
3
 10
4.04004236220472
 20
6.97519984251969
 30
0.0
 11
3.85106598425197
 21
6.97519984251969
 31
0.0
  0
LINE
  8
3
  6
CONTINUOUS
 62
3
 10
4.04004236220472
 20
5.2783494488189
 30
0.0
 11
3.85106598425197
 21
5.2783494488189
 31
0.0
  0
LINE
  8
3
  6
CONTINUOUS
 62
3
 10
4.04004236220472
 20
3.58149905511811
 30
0.0
 11
3.85106598425197
 21
3.58149905511811
 31
0.0
  0
LINE
  8
3
  6
CONTINUOUS
 62
3
 10
4.04004236220472
 20
3.39252267716535
 30
0.0
 11
4.04004236220472
 21
3.58149905511811
 31
0.0
  0
LINE
  8
3
  6
CONTINUOUS
 62
3
 10
3.85106598425197
 20
3.58149905511811
 30
0.0
 11
3.85106598425197
 21
3.39252267716535
 31
0.0
  0
LINE
  8
3
  6
CONTINUOUS
 62
3
 10
3.85106598425197
 20
3.39252267716535
 30
0.0
 11
4.04004236220472
 21
3.39252267716535
 31
0.0
  0
LINE
  8
3
  6
CONTINUOUS
 62
3
 10
4.04004236220472
 20
5.08937307086614
 30
0.0
 11
4.04004236220472
 21
5.2783494488189
 31
0.0
  0
LINE
  8
3
  6
CONTINUOUS
 62
3
 10
3.85106598425197
 20
5.2783494488189
 30
0.0
 11
3.85106598425197
 21
5.08937307086614
 31
0.0
  0
LINE
  8
3
  6
CONTINUOUS
 62
3
 10
3.85106598425197
 20
5.08937307086614
 30
0.0
 11
4.04004236220472
 21
5.08937307086614
 31
0.0
  0
LINE
  8
3
  6
CONTINUOUS
 62
3
 10
4.04004236220472
 20
6.78622346456693
 30
0.0
 11
4.04004236220472
 21
6.97519984251969
 31
0.0
  0
LINE
  8
3
  6
CONTINUOUS
 62
3
 10
3.85106598425197
 20
6.97519984251969
 30
0.0
 11
3.85106598425197
 21
6.78622346456693
 31
0.0
  0
LINE
  8
3
  6
CONTINUOUS
 62
3
 10
3.85106598425197
 20
6.78622346456693
 30
0.0
 11
4.04004236220472
 21
6.78622346456693
 31
0.0
  0
LINE
  8
3
  6
CONTINUOUS
 62
3
 10
5.72901874015748
 20
3.39252267716535
 30
0.0
 11
5.72901874015748
 21
3.58149905511811
 31
0.0
  0
LINE
  8
3
  6
CONTINUOUS
 62
3
 10
5.54004236220472
 20
3.58149905511811
 30
0.0
 11
5.54004236220472
 21
3.39252267716535
 31
0.0
  0
LINE
  8
3
  6
CONTINUOUS
 62
3
 10
5.54004236220472
 20
3.39252267716535
 30
0.0
 11
5.72901874015748
 21
3.39252267716535
 31
0.0
  0
LINE
  8
3
  6
CONTINUOUS
 62
3
 10
5.72901874015748
 20
5.08937307086614
 30
0.0
 11
5.72901874015748
 21
5.2783494488189
 31
0.0
  0
LINE
  8
3
  6
CONTINUOUS
 62
3
 10
5.54004236220472
 20
5.2783494488189
 30
0.0
 11
5.54004236220472
 21
5.08937307086614
 31
0.0
  0
LINE
  8
3
  6
CONTINUOUS
 62
3
 10
5.54004236220472
 20
5.08937307086614
 30
0.0
 11
5.72901874015748
 21
5.08937307086614
 31
0.0
  0
LINE
  8
3
  6
CONTINUOUS
 62
3
 10
5.72901874015748
 20
6.78622346456693
 30
0.0
 11
5.72901874015748
 21
6.97519984251969
 31
0.0
  0
LINE
  8
3
  6
CONTINUOUS
 62
3
 10
5.54004236220472
 20
6.97519984251969
 30
0.0
 11
5.54004236220472
 21
6.78622346456693
 31
0.0
  0
ARC
  8
3
  6
CONTINUOUS
 62
3
 10
7.28621795275591
 20
9.05512409448819
 30
0.0
 40
0.108267716535433
 50
179.999999999999
 51
359.999999999999
  0
ARC
  8
3
  6
CONTINUOUS
 62
3
 10
7.28621795275591
 20
9.05512409448819
 30
0.0
 40
0.108267716535433
 50
359.999999999999
 51
180
  0
ARC
  8
3
  6
CONTINUOUS
 62
3
 10
1.31496062992126
 20
8.07361952755905
 30
0.0
 40
0.108267716535433
 50
179.999999999999
 51
359.999999999999
  0
ARC
  8
3
  6
CONTINUOUS
 62
3
 10
1.31496062992126
 20
8.07361952755906
 30
0.0
 40
0.108267716535433
 50
359.999999999999
 51
180
  0
ARC
  8
3
  6
CONTINUOUS
 62
3
 10
2.29638645669291
 20
1.31496062992126
 30
0.0
 40
0.108267716535433
 50
179.999999999999
 51
359.999999999999
  0
ARC
  8
3
  6
CONTINUOUS
 62
3
 10
2.29638645669291
 20
1.31496062992126
 30
0.0
 40
0.108267716535433
 50
359.999999999999
 51
180
  0
ARC
  8
3
  6
CONTINUOUS
 62
3
 10
8.26772251968504
 20
2.29646519685039
 30
0.0
 40
0.108267716535433
 50
179.999999999999
 51
359.999999999999
  0
ARC
  8
3
  6
CONTINUOUS
 62
3
 10
8.26772251968504
 20
2.29646519685039
 30
0.0
 40
0.108267716535433
 50
359.999999999999
 51
180
  0
ARC
  8
3
  6
CONTINUOUS
 62
3
 10
6.84567192913386
 20
6.52638094488189
 30
0.0
 40
0.0885826771653542
 50
180
 51
360
  0
ARC
  8
3
  6
CONTINUOUS
 62
3
 10
6.84567192913386
 20
6.52638094488189
 30
0.0
 40
0.0885826771653542
 50
359.999999999999
 51
180
  0
ARC
  8
3
  6
CONTINUOUS
 62
3
 10
6.84567192913386
 20
7.23504236220472
 30
0.0
 40
0.0885826771653546
 50
179.999999999999
 51
359.999999999999
  0
ARC
  8
3
  6
CONTINUOUS
 62
3
 10
6.84567192913386
 20
7.23504236220473
 30
0.0
 40
0.0885826771653546
 50
359.999999999999
 51
180
  0
ARC
  8
3
  6
CONTINUOUS
 62
3
 10
6.84567192913386
 20
5.53819196850394
 30
0.0
 40
0.0885826771653546
 50
179.999999999999
 51
359.999999999999
  0
ARC
  8
3
  6
CONTINUOUS
 62
3
 10
6.84567192913386
 20
5.53819196850394
 30
0.0
 40
0.0885826771653546
 50
359.999999999999
 51
180
  0
ARC
  8
3
  6
CONTINUOUS
 62
3
 10
6.84567192913386
 20
4.8295305511811
 30
0.0
 40
0.0885826771653551
 50
180
 51
8.90555310809785E-14
  0
ARC
  8
3
  6
CONTINUOUS
 62
3
 10
6.84567192913386
 20
4.8295305511811
 30
0.0
 40
0.0885826771653551
 50
1.01777749806833E-13
 51
180
  0
ARC
  8
3
  6
CONTINUOUS
 62
3
 10
6.84567192913386
 20
3.84134157480315
 30
0.0
 40
0.0885826771653546
 50
179.999999999999
 51
359.999999999999
  0
ARC
  8
3
  6
CONTINUOUS
 62
3
 10
6.84567192913386
 20
3.84134157480315
 30
0.0
 40
0.0885826771653546
 50
359.999999999999
 51
180
  0
ARC
  8
3
  6
CONTINUOUS
 62
3
 10
6.84567192913386
 20
3.13268015748031
 30
0.0
 40
0.0885826771653546
 50
180
 51
360
  0
ARC
  8
3
  6
CONTINUOUS
 62
3
 10
6.84567192913386
 20
3.13268015748032
 30
0.0
 40
0.0885826771653546
 50
359.999999999999
 51
180
  0
ARC
  8
3
  6
CONTINUOUS
 62
3
 10
2.73701051181102
 20
7.23504236220472
 30
0.0
 40
0.0885826771653544
 50
179.999999999999
 51
359.999999999999
  0
ARC
  8
3
  6
CONTINUOUS
 62
3
 10
2.73701051181102
 20
7.23504236220473
 30
0.0
 40
0.0885826771653544
 50
359.999999999999
 51
180
  0
ARC
  8
3
  6
CONTINUOUS
 62
3
 10
2.73701051181102
 20
6.52638094488189
 30
0.0
 40
0.0885826771653544
 50
179.999999999999
 51
359.999999999999
  0
ARC
  8
3
  6
CONTINUOUS
 62
3
 10
2.73701051181102
 20
6.52638094488189
 30
0.0
 40
0.0885826771653544
 50
359.999999999999
 51
180
  0
ARC
  8
3
  6
CONTINUOUS
 62
3
 10
2.73701051181102
 20
5.53819196850394
 30
0.0
 40
0.0885826771653544
 50
179.999999999999
 51
359.999999999999
  0
ARC
  8
3
  6
CONTINUOUS
 62
3
 10
2.73701051181102
 20
5.53819196850394
 30
0.0
 40
0.0885826771653544
 50
359.999999999999
 51
180
  0
ARC
  8
3
  6
CONTINUOUS
 62
3
 10
2.73701051181102
 20
4.8295305511811
 30
0.0
 40
0.0885826771653546
 50
179.999999999999
 51
359.999999999999
  0
ARC
  8
3
  6
CONTINUOUS
 62
3
 10
2.73701051181102
 20
4.8295305511811
 30
0.0
 40
0.0885826771653546
 50
359.999999999999
 51
180
  0
ARC
  8
3
  6
CONTINUOUS
 62
3
 10
2.73701051181102
 20
3.84134157480315
 30
0.0
 40
0.0885826771653544
 50
179.999999999999
 51
359.999999999999
  0
ARC
  8
3
  6
CONTINUOUS
 62
3
 10
2.73701051181102
 20
3.84134157480315
 30
0.0
 40
0.0885826771653544
 50
359.999999999999
 51
180
  0
ARC
  8
3
  6
CONTINUOUS
 62
3
 10
2.73701051181102
 20
3.13268015748032
 30
0.0
 40
0.0885826771653542
 50
180
 51
360
  0
ARC
  8
3
  6
CONTINUOUS
 62
3
 10
2.73701051181102
 20
3.13268015748032
 30
0.0
 40
0.0885826771653542
 50
359.999999999999
 51
180
  0
ENDSEC
  0
EOF
