  0
SECTION
  2
HEADER
  9
$ACADVER
  1
AC1003
  9
$EXTMIN
 10
0.900078744543097
 20
6.14120467085967
  9
$EXTMAX
 10
4.49604168260362
 20
1.00000000004184
  9
$INSBASE
 10
2.69806021357336
 20
3.57060233545075
999
Created with OMAX Layout for Windows. (http://www.omax.com) 5/13/2015
  0
ENDSEC
  0
SECTION
  2
TABLES
  0
TABLE
  2
LAYER
 70
    10
  0
LAYER
  2
0
 70
     0
 62
     7
  6
CONTINUOUS
  0
LAYER
  2
1
 70
     0
 62
     7
  6
CONTINUOUS
  0
LAYER
  2
2
 70
     0
 62
     7
  6
CONTINUOUS
  0
LAYER
  2
3
 70
     0
 62
     7
  6
CONTINUOUS
  0
LAYER
  2
4
 70
     0
 62
     7
  6
CONTINUOUS
  0
LAYER
  2
5
 70
     0
 62
     7
  6
CONTINUOUS
  0
LAYER
  2
6
 70
     0
 62
     7
  6
CONTINUOUS
  0
LAYER
  2
7
 70
     0
 62
     7
  6
CONTINUOUS
  0
LAYER
  2
8
 70
     0
 62
     7
  6
CONTINUOUS
  0
LAYER
  2
9
 70
     0
 62
     7
  6
CONTINUOUS
  0
LAYER
  2
10
 70
     0
 62
     7
  6
CONTINUOUS
  0
LAYER
  2
11
 70
     0
 62
     7
  6
CONTINUOUS
  0
LAYER
  2
12
 70
     0
 62
     7
  6
CONTINUOUS
  0
LAYER
  2
13
 70
     0
 62
     7
  6
CONTINUOUS
  0
LAYER
  2
14
 70
     0
 62
     7
  6
CONTINUOUS
  0
LAYER
  2
15
 70
     0
 62
     7
  6
CONTINUOUS
  0
LAYER
  2
16
 70
     0
 62
     7
  6
CONTINUOUS
  0
LAYER
  2
17
 70
     0
 62
     7
  6
CONTINUOUS
  0
LAYER
  2
18
 70
     0
 62
     7
  6
CONTINUOUS
  0
LAYER
  2
19
 70
     0
 62
     7
  6
CONTINUOUS
  0
LAYER
  2
20
 70
     0
 62
     7
  6
CONTINUOUS
  0
LAYER
  2
21
 70
     0
 62
     7
  6
CONTINUOUS
  0
LAYER
  2
22
 70
     0
 62
     7
  6
CONTINUOUS
  0
LAYER
  2
23
 70
     0
 62
     7
  6
CONTINUOUS
  0
LAYER
  2
24
 70
     0
 62
     7
  6
CONTINUOUS
  0
LAYER
  2
25
 70
     0
 62
     7
  6
CONTINUOUS
  0
LAYER
  2
26
 70
     0
 62
     7
  6
CONTINUOUS
  0
LAYER
  2
27
 70
     0
 62
     7
  6
CONTINUOUS
  0
LAYER
  2
28
 70
     0
 62
     7
  6
CONTINUOUS
  0
LAYER
  2
29
 70
     0
 62
     7
  6
CONTINUOUS
  0
LAYER
  2
30
 70
     0
 62
     7
  6
CONTINUOUS
  0
LAYER
  2
31
 70
     0
 62
     7
  6
CONTINUOUS
  0
ENDTAB
  0
ENDSEC
  0
SECTION
  2
ENTITIES
  0
LINE
  8
5
  6
CONTINUOUS
 62
5
 10
1.38930557415265
 20
1.3408998216325
 30
0.0
 11
1.28060462956262
 21
1.38581031333626
 31
0.0
  0
ARC
  8
5
  6
CONTINUOUS
 62
5
 10
1.31496062991351
 20
1.31496062992103
 30
0.0
 40
0.0787401574811036
 50
115.869394005144
 51
247.551719505144
  0
ARC
  8
5
  6
CONTINUOUS
 62
5
 10
1.23979342519818
 20
1.13302665354331
 30
0.0
 40
0.0590551181128876
 50
180.000000010288
 51
1.02882928947547E-8
  0
ARC
  8
5
  6
CONTINUOUS
 62
5
 10
1.23979342519076
 20
1.13302665354981
 30
0.0
 40
0.0590551181054719
 50
63.0000000111195
 51
180.000000016595
  0
ARC
  8
5
  6
CONTINUOUS
 62
5
 10
1.31496062992852
 20
1.31496062992131
 30
0.0
 40
0.314960629933114
 50
180.000000010297
 51
181.21246640139
  0
ARC
  8
5
  6
CONTINUOUS
 62
5
 10
1.31496062992539
 20
1.3149606299751
 30
0.0
 40
0.314960629933258
 50
185.760318909869
 51
4.95632197121823E-10
  0
ARC
  8
5
  6
CONTINUOUS
 62
5
 10
1.31496062999595
 20
1.31496062996133
 30
0.0
 40
0.314960629862691
 50
3.00059253647695E-9
 51
4.46141663080064
  0
ARC
  8
5
  6
CONTINUOUS
 62
5
 10
1.31496062999595
 20
1.31496062996133
 30
0.0
 40
0.314960629862692
 50
9.00926913049685
 51
81.8971531873042
  0
ARC
  8
5
  6
CONTINUOUS
 62
5
 10
1.31496062981224
 20
1.31496063003381
 30
0.0
 40
0.31496062981683
 50
81.8971531523586
 51
180.000000030763
  0
LINE
  8
5
  6
CONTINUOUS
 62
5
 10
1.38930557415265
 20
2.158720629894
 30
0.0
 11
1.28060462956262
 21
2.20363112159776
 31
0.0
  0
ARC
  8
5
  6
CONTINUOUS
 62
5
 10
1.31496062991351
 20
2.13278143818253
 30
0.0
 40
0.0787401574811031
 50
115.869394005144
 51
247.551719505144
  0
ARC
  8
5
  6
CONTINUOUS
 62
5
 10
1.23979342519818
 20
1.95084746180481
 30
0.0
 40
0.0590551181128876
 50
180.000000010288
 51
1.02887127279727E-8
  0
ARC
  8
5
  6
CONTINUOUS
 62
5
 10
1.23979342519076
 20
1.95084746181131
 30
0.0
 40
0.0590551181054717
 50
63.0000000111195
 51
180.000000016596
  0
ARC
  8
5
  6
CONTINUOUS
 62
5
 10
1.31496062992699
 20
2.13278143823665
 30
0.0
 40
0.314960629931654
 50
184.547852523967
 51
355.452061136227
  0
ARC
  8
5
  6
CONTINUOUS
 62
5
 10
1.31496062999595
 20
2.13278143822283
 30
0.0
 40
0.314960629862693
 50
3.00008364772791E-9
 51
81.8971531873042
  0
ARC
  8
5
  6
CONTINUOUS
 62
5
 10
1.31496062981224
 20
2.13278143829531
 30
0.0
 40
0.31496062981683
 50
81.8971531523586
 51
180.000000030763
  0
LINE
  8
5
  6
CONTINUOUS
 62
5
 10
1.38930557415265
 20
2.97654143815551
 30
0.0
 11
1.28060462956262
 21
3.02145192985927
 31
0.0
  0
ARC
  8
5
  6
CONTINUOUS
 62
5
 10
1.31496062991351
 20
2.95060224644404
 30
0.0
 40
0.0787401574811036
 50
115.869394005144
 51
247.551719505144
  0
ARC
  8
5
  6
CONTINUOUS
 62
5
 10
1.23979342519818
 20
2.76866827006631
 30
0.0
 40
0.0590551181128877
 50
180.000000010288
 51
1.02887127279727E-8
  0
ARC
  8
5
  6
CONTINUOUS
 62
5
 10
1.23979342519076
 20
2.76866827007281
 30
0.0
 40
0.0590551181054714
 50
63.0000000111192
 51
180.000000016595
  0
ARC
  8
5
  6
CONTINUOUS
 62
5
 10
1.31496062992622
 20
2.95060224649813
 30
0.0
 40
0.314960629932423
 50
184.547915923123
 51
4.88533199072796E-10
  0
ARC
  8
5
  6
CONTINUOUS
 62
5
 10
1.31496062999599
 20
2.95060224648434
 30
0.0
 40
0.314960629862658
 50
2.99883687029278E-9
 51
0.523650404744824
  0
ARC
  8
5
  6
CONTINUOUS
 62
5
 10
1.31496062999595
 20
2.95060224648433
 30
0.0
 40
0.314960629862692
 50
5.07150290444254
 51
81.8971531873042
  0
ARC
  8
5
  6
CONTINUOUS
 62
5
 10
1.31496062981224
 20
2.95060224655681
 30
0.0
 40
0.314960629816831
 50
81.8971531523588
 51
180.000000030762
  0
LINE
  8
5
  6
CONTINUOUS
 62
5
 10
1.38930557415265
 20
3.79436224641701
 30
0.0
 11
1.28060462956262
 21
3.83927273812077
 31
0.0
  0
ARC
  8
5
  6
CONTINUOUS
 62
5
 10
1.31496062991351
 20
3.76842305470554
 30
0.0
 40
0.0787401574811036
 50
115.869394005144
 51
247.551719505144
  0
ARC
  8
5
  6
CONTINUOUS
 62
5
 10
1.23979342519818
 20
3.58648907832782
 30
0.0
 40
0.0590551181128877
 50
180.000000010289
 51
1.02891452834094E-8
  0
ARC
  8
5
  6
CONTINUOUS
 62
5
 10
1.23979342519076
 20
3.58648907833432
 30
0.0
 40
0.0590551181054715
 50
63.0000000111194
 51
180.000000016596
  0
ARC
  8
5
  6
CONTINUOUS
 62
5
 10
1.31496062992625
 20
3.76842305475963
 30
0.0
 40
0.3149606299324
 50
184.5479104288
 51
4.88545921291522E-10
  0
ARC
  8
5
  6
CONTINUOUS
 62
5
 10
1.31496062999595
 20
3.76842305474583
 30
0.0
 40
0.314960629862693
 50
4.54785253341552
 51
81.8971531873041
  0
ARC
  8
5
  6
CONTINUOUS
 62
5
 10
1.31496062981224
 20
3.76842305481831
 30
0.0
 40
0.31496062981683
 50
81.8971531523586
 51
180.000000030763
  0
LINE
  8
5
  6
CONTINUOUS
 62
5
 10
1.38930557415265
 20
4.61218305467851
 30
0.0
 11
1.28060462956262
 21
4.65709354638227
 31
0.0
  0
ARC
  8
5
  6
CONTINUOUS
 62
5
 10
1.31496062991351
 20
4.58624386296704
 30
0.0
 40
0.0787401574811036
 50
115.869394005144
 51
247.551719505144
  0
ARC
  8
5
  6
CONTINUOUS
 62
5
 10
1.23979342519818
 20
4.40430988658932
 30
0.0
 40
0.0590551181128877
 50
180.000000010289
 51
1.02891452834094E-8
  0
ARC
  8
5
  6
CONTINUOUS
 62
5
 10
1.23979342519076
 20
4.40430988659582
 30
0.0
 40
0.0590551181054714
 50
63.0000000111192
 51
180.000000016596
  0
ARC
  8
5
  6
CONTINUOUS
 62
5
 10
1.31496062992672
 20
4.58624386302114
 30
0.0
 40
0.31496062993193
 50
184.54785615069
 51
4.86675755138822E-10
  0
ARC
  8
5
  6
CONTINUOUS
 62
5
 10
1.31496062999595
 20
4.58624386300733
 30
0.0
 40
0.314960629862693
 50
4.54786781863523
 51
81.8971531873041
  0
ARC
  8
5
  6
CONTINUOUS
 62
5
 10
1.31496062981224
 20
4.58624386307981
 30
0.0
 40
0.31496062981683
 50
81.8971531523586
 51
180.000000030762
  0
LINE
  8
5
  6
CONTINUOUS
 62
5
 10
1.38930557415265
 20
5.43000386294001
 30
0.0
 11
1.28060462956262
 21
5.47491435464377
 31
0.0
  0
ARC
  8
5
  6
CONTINUOUS
 62
5
 10
1.31496062991351
 20
5.40406467122854
 30
0.0
 40
0.0787401574811027
 50
115.869394005144
 51
247.551719505144
  0
ARC
  8
5
  6
CONTINUOUS
 62
5
 10
1.23979342519818
 20
5.22213069485082
 30
0.0
 40
0.0590551181128877
 50
180.000000010289
 51
1.02891452834094E-8
  0
ARC
  8
5
  6
CONTINUOUS
 62
5
 10
1.23979342519076
 20
5.22213069485732
 30
0.0
 40
0.0590551181054716
 50
63.0000000111196
 51
180.000000016595
  0
ARC
  8
5
  6
CONTINUOUS
 62
5
 10
1.31496062988338
 20
5.40406467118287
 30
0.0
 40
0.314960629927657
 50
139.485765772395
 51
181.015558360657
  0
ARC
  8
5
  6
CONTINUOUS
 62
5
 10
1.31496062988338
 20
5.40406467118287
 30
0.0
 40
0.314960629927656
 50
185.563410859415
 51
318.89295434924
  0
ARC
  8
5
  6
CONTINUOUS
 62
5
 10
1.31496062988156
 20
5.40406467120263
 30
0.0
 40
0.314960629942018
 50
318.892954346749
 51
353.897790118728
  0
ARC
  8
5
  6
CONTINUOUS
 62
5
 10
1.31496062988156
 20
5.40406467120263
 30
0.0
 40
0.314960629942023
 50
358.445642617279
 51
90.0000000030662
  0
ARC
  8
5
  6
CONTINUOUS
 62
5
 10
1.31496062988131
 20
5.40406467128476
 30
0.0
 40
0.314960629859891
 50
90.0000000030225
 51
139.485765786243
  0
LINE
  8
5
  6
CONTINUOUS
 62
5
 10
4.34679168260362
 20
1.43900211287784
 30
0.0
 11
3.55939010780047
 21
1.43900211288315
 31
0.0
  0
LINE
  8
5
  6
CONTINUOUS
 62
5
 10
4.34679168260362
 20
1.28152179791721
 30
0.0
 11
4.34679168260362
 21
1.43900211287784
 31
0.0
  0
LINE
  8
5
  6
CONTINUOUS
 62
5
 10
3.48064995031485
 20
1.51774227035816
 30
0.0
 11
3.48064995032546
 21
1.63585250659277
 31
0.0
  0
LINE
  8
5
  6
CONTINUOUS
 62
5
 10
3.55939010778633
 20
1.28152179791545
 30
0.0
 11
4.34679168260362
 21
1.28152179791721
 31
0.0
  0
LINE
  8
5
  6
CONTINUOUS
 62
5
 10
3.48064995031485
 20
1.08467140423057
 30
0.0
 11
3.48064995031839
 21
1.20278164042276
 31
0.0
  0
LINE
  8
5
  6
CONTINUOUS
 62
5
 10
3.24442947787921
 20
1.00593124674141
 30
0.0
 11
3.40190979283984
 21
1.00593124673081
 31
0.0
  0
LINE
  8
5
  6
CONTINUOUS
 62
5
 10
3.1656893204042
 20
1.20278164045104
 30
0.0
 11
3.16568932039359
 21
1.08467140421642
 31
0.0
  0
LINE
  8
5
  6
CONTINUOUS
 62
5
 10
1.98458695819417
 20
1.28152179791721
 30
0.0
 11
2.98711441178793
 21
1.28152179791239
 31
0.0
  0
LINE
  8
5
  6
CONTINUOUS
 62
5
 10
3.01211441178793
 20
1.28152179791227
 30
0.0
 11
3.08694916290444
 21
1.28152179791191
 31
0.0
  0
LINE
  8
5
  6
CONTINUOUS
 62
5
 10
3.08694916291858
 20
1.43900211287254
 30
0.0
 11
3.01804565852369
 21
1.43900211287287
 31
0.0
  0
LINE
  8
5
  6
CONTINUOUS
 62
5
 10
2.99304565852369
 20
1.43900211287299
 30
0.0
 11
1.98458695819417
 21
1.43900211287784
 31
0.0
  0
LINE
  8
5
  6
CONTINUOUS
 62
5
 10
3.16568932039713
 20
1.63585250656449
 30
0.0
 11
3.16568932039359
 21
1.5177422703723
 31
0.0
  0
LINE
  8
5
  6
CONTINUOUS
 62
5
 10
3.26017750937103
 20
1.14766353020068
 30
0.0
 11
3.26017750937385
 21
1.57286038058307
 31
0.0
  0
LINE
  8
5
  6
CONTINUOUS
 62
5
 10
3.4019097928257
 20
1.71459266405364
 30
0.0
 11
3.24442947786507
 21
1.71459266405718
 31
0.0
  0
LINE
  8
5
  6
CONTINUOUS
 62
5
 10
1.98458695819417
 20
1.43900211287784
 30
0.0
 11
1.98458695819417
 21
1.28152179791721
 31
0.0
  0
ARC
  8
5
  6
CONTINUOUS
 62
5
 10
3.08694916293095
 20
1.20278164043867
 30
0.0
 40
0.0787401574732445
 50
9.00229285928924E-9
 51
90.0000000192938
  0
ARC
  8
5
  6
CONTINUOUS
 62
5
 10
3.24442947786684
 20
1.08467140421465
 30
0.0
 40
0.0787401574732443
 50
179.999999998714
 51
270.000000009003
  0
ARC
  8
5
  6
CONTINUOUS
 62
5
 10
3.40190979283454
 20
1.08467140421113
 30
0.0
 40
0.0787401574803146
 50
270.000000003856
 51
1.41459176956989E-8
  0
ARC
  8
5
  6
CONTINUOUS
 62
5
 10
3.40190979285221
 20
1.6358525065804
 30
0.0
 40
0.0787401574732439
 50
9.00183485941511E-9
 51
90.000000019293
  0
ARC
  8
5
  6
CONTINUOUS
 62
5
 10
3.24442947787037
 20
1.63585250658393
 30
0.0
 40
0.0787401574732441
 50
90.0000000038578
 51
180.000000014148
  0
ARC
  8
5
  6
CONTINUOUS
 62
5
 10
3.3231696353574
 20
1.14766353020916
 30
0.0
 40
0.062992125986377
 50
180.000000007716
 51
359.999999992283
  0
ARC
  8
5
  6
CONTINUOUS
 62
5
 10
3.32316963535882
 20
1.57286038058589
 30
0.0
 40
0.0629921259849631
 50
7.71789582338319E-9
 51
180.000000002571
  0
ARC
  8
5
  6
CONTINUOUS
 62
5
 10
3.08694916291328
 20
1.51774227035286
 30
0.0
 40
0.0787401574803153
 50
270.000000003856
 51
1.41467191954786E-8
  0
ARC
  8
5
  6
CONTINUOUS
 62
5
 10
3.5593901077881
 20
1.51774227035639
 30
0.0
 40
0.0787401574732443
 50
179.999999998714
 51
270.000000009003
  0
ARC
  8
5
  6
CONTINUOUS
 62
5
 10
3.55939010779163
 20
1.2027816404422
 30
0.0
 40
0.0787401574732441
 50
90.0000000038582
 51
180.000000014148
  0
LINE
  8
5
  6
CONTINUOUS
 62
5
 10
4.34679168260362
 20
2.32432451423799
 30
0.0
 11
3.55939010780047
 21
2.32432451424329
 31
0.0
  0
LINE
  8
5
  6
CONTINUOUS
 62
5
 10
4.34679168260362
 20
2.16684419927736
 30
0.0
 11
4.34679168260362
 21
2.32432451423799
 31
0.0
  0
LINE
  8
5
  6
CONTINUOUS
 62
5
 10
3.48064995031485
 20
2.4030646717183
 30
0.0
 11
3.48064995032546
 21
2.52117490795291
 31
0.0
  0
LINE
  8
5
  6
CONTINUOUS
 62
5
 10
3.55939010778633
 20
2.16684419927559
 30
0.0
 11
4.34679168260362
 21
2.16684419927736
 31
0.0
  0
LINE
  8
5
  6
CONTINUOUS
 62
5
 10
3.48064995031485
 20
1.96999380559071
 30
0.0
 11
3.48064995031839
 21
2.0881040417829
 31
0.0
  0
LINE
  8
5
  6
CONTINUOUS
 62
5
 10
3.24442947787921
 20
1.89125364810156
 30
0.0
 11
3.40190979283984
 21
1.89125364809095
 31
0.0
  0
LINE
  8
5
  6
CONTINUOUS
 62
5
 10
3.1656893204042
 20
2.08810404181118
 30
0.0
 11
3.16568932039359
 21
1.96999380557657
 31
0.0
  0
LINE
  8
5
  6
CONTINUOUS
 62
5
 10
1.98458695819417
 20
2.16684419927736
 30
0.0
 11
2.99304565852431
 21
2.1668441992725
 31
0.0
  0
LINE
  8
5
  6
CONTINUOUS
 62
5
 10
3.01804565852431
 20
2.16684419927238
 30
0.0
 11
3.08694916290444
 21
2.16684419927205
 31
0.0
  0
LINE
  8
5
  6
CONTINUOUS
 62
5
 10
3.08694916291858
 20
2.32432451423268
 30
0.0
 11
3.02397690525977
 21
2.32432451423298
 31
0.0
  0
LINE
  8
5
  6
CONTINUOUS
 62
5
 10
2.99897690525977
 20
2.3243245142331
 30
0.0
 11
1.98458695819417
 21
2.32432451423799
 31
0.0
  0
LINE
  8
5
  6
CONTINUOUS
 62
5
 10
3.16568932039713
 20
2.52117490792463
 30
0.0
 11
3.16568932039359
 21
2.40306467173244
 31
0.0
  0
LINE
  8
5
  6
CONTINUOUS
 62
5
 10
3.26017750937103
 20
2.03298593156082
 30
0.0
 11
3.26017750937385
 21
2.45818278194321
 31
0.0
  0
LINE
  8
5
  6
CONTINUOUS
 62
5
 10
3.4019097928257
 20
2.59991506541378
 30
0.0
 11
3.24442947786507
 21
2.59991506541732
 31
0.0
  0
LINE
  8
5
  6
CONTINUOUS
 62
5
 10
1.98458695819417
 20
2.32432451423799
 30
0.0
 11
1.98458695819417
 21
2.16684419927736
 31
0.0
  0
ARC
  8
5
  6
CONTINUOUS
 62
5
 10
3.08694916293095
 20
2.08810404179881
 30
0.0
 40
0.0787401574732447
 50
9.0024709703514E-9
 51
90.000000019293
  0
ARC
  8
5
  6
CONTINUOUS
 62
5
 10
3.24442947786684
 20
1.9699938055748
 30
0.0
 40
0.0787401574732443
 50
179.999999998714
 51
270.000000009003
  0
ARC
  8
5
  6
CONTINUOUS
 62
5
 10
3.40190979283454
 20
1.96999380557127
 30
0.0
 40
0.0787401574803149
 50
270.000000003856
 51
1.41463947789011E-8
  0
ARC
  8
5
  6
CONTINUOUS
 62
5
 10
3.40190979285221
 20
2.52117490794054
 30
0.0
 40
0.0787401574732445
 50
9.00102063741666E-9
 51
90.0000000192928
  0
ARC
  8
5
  6
CONTINUOUS
 62
5
 10
3.24442947787037
 20
2.52117490794407
 30
0.0
 40
0.0787401574732441
 50
90.0000000038578
 51
180.000000014148
  0
ARC
  8
5
  6
CONTINUOUS
 62
5
 10
3.3231696353574
 20
2.0329859315693
 30
0.0
 40
0.062992125986377
 50
180.000000007716
 51
359.999999992283
  0
ARC
  8
5
  6
CONTINUOUS
 62
5
 10
3.32316963535882
 20
2.45818278194603
 30
0.0
 40
0.0629921259849631
 50
7.71850648988203E-9
 51
180.000000002571
  0
ARC
  8
5
  6
CONTINUOUS
 62
5
 10
3.08694916291328
 20
2.403064671713
 30
0.0
 40
0.0787401574803153
 50
270.000000003856
 51
1.41467191954786E-8
  0
ARC
  8
5
  6
CONTINUOUS
 62
5
 10
3.5593901077881
 20
2.40306467171653
 30
0.0
 40
0.0787401574732443
 50
179.999999998714
 51
270.000000009003
  0
ARC
  8
5
  6
CONTINUOUS
 62
5
 10
3.55939010779163
 20
2.08810404180234
 30
0.0
 40
0.0787401574732442
 50
90.0000000038577
 51
180.000000014148
  0
LINE
  8
5
  6
CONTINUOUS
 62
5
 10
4.34679168260362
 20
3.20964691559813
 30
0.0
 11
3.55939010780047
 21
3.20964691560344
 31
0.0
  0
LINE
  8
5
  6
CONTINUOUS
 62
5
 10
4.34679168260362
 20
3.0521666006375
 30
0.0
 11
4.34679168260362
 21
3.20964691559813
 31
0.0
  0
LINE
  8
5
  6
CONTINUOUS
 62
5
 10
3.48064995031485
 20
3.28838707307845
 30
0.0
 11
3.48064995032546
 21
3.40649730931306
 31
0.0
  0
LINE
  8
5
  6
CONTINUOUS
 62
5
 10
3.55939010778633
 20
3.05216660063574
 30
0.0
 11
4.34679168260362
 21
3.0521666006375
 31
0.0
  0
LINE
  8
5
  6
CONTINUOUS
 62
5
 10
3.48064995031485
 20
2.85531620695085
 30
0.0
 11
3.48064995031839
 21
2.97342644314305
 31
0.0
  0
LINE
  8
5
  6
CONTINUOUS
 62
5
 10
3.24442947787921
 20
2.7765760494617
 30
0.0
 11
3.40190979283984
 21
2.77657604945109
 31
0.0
  0
LINE
  8
5
  6
CONTINUOUS
 62
5
 10
3.1656893204042
 20
2.97342644317133
 30
0.0
 11
3.16568932039359
 21
2.85531620693671
 31
0.0
  0
LINE
  8
5
  6
CONTINUOUS
 62
5
 10
1.98458695819417
 20
3.0521666006375
 30
0.0
 11
2.98711441178809
 21
3.05216660063268
 31
0.0
  0
LINE
  8
5
  6
CONTINUOUS
 62
5
 10
3.01211441178809
 20
3.05216660063256
 30
0.0
 11
3.08694916290444
 21
3.0521666006322
 31
0.0
  0
LINE
  8
5
  6
CONTINUOUS
 62
5
 10
3.08694916291858
 20
3.20964691559283
 30
0.0
 11
3.01211441178756
 21
3.20964691559319
 31
0.0
  0
LINE
  8
5
  6
CONTINUOUS
 62
5
 10
2.98711441178756
 20
3.20964691559331
 30
0.0
 11
1.98458695819417
 21
3.20964691559813
 31
0.0
  0
LINE
  8
5
  6
CONTINUOUS
 62
5
 10
3.16568932039713
 20
3.40649730928478
 30
0.0
 11
3.16568932039359
 21
3.28838707309259
 31
0.0
  0
LINE
  8
5
  6
CONTINUOUS
 62
5
 10
3.26017750937103
 20
2.91830833292097
 30
0.0
 11
3.26017750937385
 21
3.34350518330336
 31
0.0
  0
LINE
  8
5
  6
CONTINUOUS
 62
5
 10
3.4019097928257
 20
3.48523746677393
 30
0.0
 11
3.24442947786507
 21
3.48523746677747
 31
0.0
  0
LINE
  8
5
  6
CONTINUOUS
 62
5
 10
1.98458695819417
 20
3.20964691559813
 30
0.0
 11
1.98458695819417
 21
3.0521666006375
 31
0.0
  0
ARC
  8
5
  6
CONTINUOUS
 62
5
 10
3.08694916293095
 20
2.97342644315896
 30
0.0
 40
0.0787401574732447
 50
9.0024709703514E-9
 51
90.000000019293
  0
ARC
  8
5
  6
CONTINUOUS
 62
5
 10
3.24442947786684
 20
2.85531620693494
 30
0.0
 40
0.0787401574732443
 50
179.999999998714
 51
270.000000009003
  0
ARC
  8
5
  6
CONTINUOUS
 62
5
 10
3.40190979283454
 20
2.85531620693141
 30
0.0
 40
0.0787401574803149
 50
270.000000003856
 51
1.41463947789011E-8
  0
ARC
  8
5
  6
CONTINUOUS
 62
5
 10
3.40190979285221
 20
3.40649730930069
 30
0.0
 40
0.0787401574732447
 50
9.00150408172824E-9
 51
90.000000019293
  0
ARC
  8
5
  6
CONTINUOUS
 62
5
 10
3.24442947787037
 20
3.40649730930422
 30
0.0
 40
0.0787401574732443
 50
90.000000003858
 51
180.000000014148
  0
ARC
  8
5
  6
CONTINUOUS
 62
5
 10
3.3231696353574
 20
2.91830833292945
 30
0.0
 40
0.062992125986377
 50
180.000000007716
 51
359.999999992283
  0
ARC
  8
5
  6
CONTINUOUS
 62
5
 10
3.32316963535882
 20
3.34350518330618
 30
0.0
 40
0.0629921259849633
 50
7.71830293438242E-9
 51
180.000000002571
  0
ARC
  8
5
  6
CONTINUOUS
 62
5
 10
3.08694916291328
 20
3.28838707307315
 30
0.0
 40
0.0787401574803153
 50
270.000000003856
 51
1.41467191954786E-8
  0
ARC
  8
5
  6
CONTINUOUS
 62
5
 10
3.5593901077881
 20
3.28838707307668
 30
0.0
 40
0.0787401574732443
 50
179.999999998714
 51
270.000000009003
  0
ARC
  8
5
  6
CONTINUOUS
 62
5
 10
3.55939010779163
 20
2.97342644316249
 30
0.0
 40
0.078740157473245
 50
90.0000000038582
 51
180.000000014148
  0
LINE
  8
5
  6
CONTINUOUS
 62
5
 10
4.34679168260362
 20
4.09496931695828
 30
0.0
 11
3.55939010780047
 21
4.09496931696358
 31
0.0
  0
LINE
  8
5
  6
CONTINUOUS
 62
5
 10
4.34679168260362
 20
3.93748900199765
 30
0.0
 11
4.34679168260362
 21
4.09496931695828
 31
0.0
  0
LINE
  8
5
  6
CONTINUOUS
 62
5
 10
3.48064995031485
 20
4.17370947443859
 30
0.0
 11
3.48064995032546
 21
4.2918197106732
 31
0.0
  0
LINE
  8
5
  6
CONTINUOUS
 62
5
 10
3.55939010778633
 20
3.93748900199588
 30
0.0
 11
4.34679168260362
 21
3.93748900199765
 31
0.0
  0
LINE
  8
5
  6
CONTINUOUS
 62
5
 10
3.48064995031485
 20
3.740638608311
 30
0.0
 11
3.48064995031839
 21
3.85874884450319
 31
0.0
  0
LINE
  8
5
  6
CONTINUOUS
 62
5
 10
3.24442947787921
 20
3.66189845082185
 30
0.0
 11
3.40190979283984
 21
3.66189845081124
 31
0.0
  0
LINE
  8
5
  6
CONTINUOUS
 62
5
 10
3.1656893204042
 20
3.85874884453147
 30
0.0
 11
3.16568932039359
 21
3.74063860829686
 31
0.0
  0
LINE
  8
5
  6
CONTINUOUS
 62
5
 10
1.98458695819417
 20
3.93748900199765
 30
0.0
 11
2.99304565852429
 21
3.93748900199279
 31
0.0
  0
LINE
  8
5
  6
CONTINUOUS
 62
5
 10
3.01804565852429
 20
3.93748900199267
 30
0.0
 11
3.08694916290444
 21
3.93748900199234
 31
0.0
  0
LINE
  8
5
  6
CONTINUOUS
 62
5
 10
3.08694916291858
 20
4.09496931695297
 30
0.0
 11
3.01211441178757
 21
4.09496931695333
 31
0.0
  0
LINE
  8
5
  6
CONTINUOUS
 62
5
 10
2.98711441178757
 20
4.09496931695345
 30
0.0
 11
1.98458695819417
 21
4.09496931695828
 31
0.0
  0
LINE
  8
5
  6
CONTINUOUS
 62
5
 10
3.16568932039713
 20
4.29181971064492
 30
0.0
 11
3.16568932039359
 21
4.17370947445273
 31
0.0
  0
LINE
  8
5
  6
CONTINUOUS
 62
5
 10
3.26017750937103
 20
3.80363073428111
 30
0.0
 11
3.26017750937385
 21
4.2288275846635
 31
0.0
  0
LINE
  8
5
  6
CONTINUOUS
 62
5
 10
3.4019097928257
 20
4.37055986813407
 30
0.0
 11
3.24442947786507
 21
4.37055986813761
 31
0.0
  0
LINE
  8
5
  6
CONTINUOUS
 62
5
 10
1.98458695819417
 20
4.09496931695828
 30
0.0
 11
1.98458695819417
 21
3.93748900199765
 31
0.0
  0
ARC
  8
5
  6
CONTINUOUS
 62
5
 10
3.08694916293095
 20
3.8587488445191
 30
0.0
 40
0.0787401574732447
 50
9.0024709703514E-9
 51
90.000000019293
  0
ARC
  8
5
  6
CONTINUOUS
 62
5
 10
3.24442947786684
 20
3.74063860829509
 30
0.0
 40
0.0787401574732443
 50
179.999999998714
 51
270.000000009003
  0
ARC
  8
5
  6
CONTINUOUS
 62
5
 10
3.40190979283454
 20
3.74063860829156
 30
0.0
 40
0.0787401574803149
 50
270.000000003856
 51
1.41463947789011E-8
  0
ARC
  8
5
  6
CONTINUOUS
 62
5
 10
3.40190979285221
 20
4.29181971066083
 30
0.0
 40
0.0787401574732439
 50
9.00183485941511E-9
 51
90.000000019293
  0
ARC
  8
5
  6
CONTINUOUS
 62
5
 10
3.24442947787037
 20
4.29181971066436
 30
0.0
 40
0.0787401574732438
 50
90.0000000038577
 51
180.000000014148
  0
ARC
  8
5
  6
CONTINUOUS
 62
5
 10
3.3231696353574
 20
3.80363073428959
 30
0.0
 40
0.062992125986377
 50
180.000000007715
 51
359.999999992283
  0
ARC
  8
5
  6
CONTINUOUS
 62
5
 10
3.32316963535882
 20
4.22882758466633
 30
0.0
 40
0.0629921259849628
 50
7.7164709348859E-9
 51
180.000000002573
  0
ARC
  8
5
  6
CONTINUOUS
 62
5
 10
3.08694916291328
 20
4.17370947443329
 30
0.0
 40
0.0787401574803144
 50
270.000000003856
 51
1.41460703623236E-8
  0
ARC
  8
5
  6
CONTINUOUS
 62
5
 10
3.5593901077881
 20
4.17370947443682
 30
0.0
 40
0.0787401574732445
 50
179.999999998713
 51
270.000000009003
  0
ARC
  8
5
  6
CONTINUOUS
 62
5
 10
3.55939010779163
 20
3.85874884452263
 30
0.0
 40
0.0787401574732447
 50
90.0000000038583
 51
180.000000014148
  0
LINE
  8
5
  6
CONTINUOUS
 62
5
 10
4.34679168260362
 20
4.98029171831842
 30
0.0
 11
3.55939010780047
 21
4.98029171832373
 31
0.0
  0
LINE
  8
5
  6
CONTINUOUS
 62
5
 10
4.34679168260362
 20
4.82281140335779
 30
0.0
 11
4.34679168260362
 21
4.98029171831842
 31
0.0
  0
LINE
  8
5
  6
CONTINUOUS
 62
5
 10
3.48064995031485
 20
5.05903187579874
 30
0.0
 11
3.48064995032546
 21
5.17714211203335
 31
0.0
  0
LINE
  8
5
  6
CONTINUOUS
 62
5
 10
3.55939010778633
 20
4.82281140335603
 30
0.0
 11
4.34679168260362
 21
4.82281140335779
 31
0.0
  0
LINE
  8
5
  6
CONTINUOUS
 62
5
 10
3.48064995031485
 20
4.62596100967114
 30
0.0
 11
3.48064995031839
 21
4.74407124586334
 31
0.0
  0
LINE
  8
5
  6
CONTINUOUS
 62
5
 10
3.24442947787921
 20
4.54722085218199
 30
0.0
 11
3.40190979283984
 21
4.54722085217138
 31
0.0
  0
LINE
  8
5
  6
CONTINUOUS
 62
5
 10
3.1656893204042
 20
4.74407124589162
 30
0.0
 11
3.16568932039359
 21
4.625961009657
 31
0.0
  0
LINE
  8
5
  6
CONTINUOUS
 62
5
 10
1.98458695819417
 20
4.82281140335779
 30
0.0
 11
2.99304565852427
 21
4.82281140335294
 31
0.0
  0
LINE
  8
5
  6
CONTINUOUS
 62
5
 10
3.01804565852427
 20
4.82281140335282
 30
0.0
 11
3.08694916290444
 21
4.82281140335249
 31
0.0
  0
LINE
  8
5
  6
CONTINUOUS
 62
5
 10
3.08694916291858
 20
4.98029171831312
 30
0.0
 11
3.01211441178764
 21
4.98029171831348
 31
0.0
  0
LINE
  8
5
  6
CONTINUOUS
 62
5
 10
2.98711441178764
 20
4.9802917183136
 30
0.0
 11
1.98458695819417
 21
4.98029171831842
 31
0.0
  0
LINE
  8
5
  6
CONTINUOUS
 62
5
 10
3.16568932039713
 20
5.17714211200507
 30
0.0
 11
3.16568932039359
 21
5.05903187581288
 31
0.0
  0
LINE
  8
5
  6
CONTINUOUS
 62
5
 10
3.26017750937103
 20
4.68895313564126
 30
0.0
 11
3.26017750937385
 21
5.11414998602365
 31
0.0
  0
LINE
  8
5
  6
CONTINUOUS
 62
5
 10
3.4019097928257
 20
5.25588226949422
 30
0.0
 11
3.24442947786507
 21
5.25588226949776
 31
0.0
  0
LINE
  8
5
  6
CONTINUOUS
 62
5
 10
1.98458695819417
 20
4.98029171831842
 30
0.0
 11
1.98458695819417
 21
4.82281140335779
 31
0.0
  0
ARC
  8
5
  6
CONTINUOUS
 62
5
 10
3.08694916293095
 20
4.74407124587925
 30
0.0
 40
0.0787401574732442
 50
9.00341241453712E-9
 51
90.0000000192933
  0
ARC
  8
5
  6
CONTINUOUS
 62
5
 10
3.24442947786684
 20
4.62596100965523
 30
0.0
 40
0.0787401574732441
 50
179.999999998714
 51
270.000000009004
  0
ARC
  8
5
  6
CONTINUOUS
 62
5
 10
3.40190979283454
 20
4.6259610096517
 30
0.0
 40
0.0787401574803153
 50
270.000000003856
 51
1.41467191954786E-8
  0
ARC
  8
5
  6
CONTINUOUS
 62
5
 10
3.40190979285221
 20
5.17714211202098
 30
0.0
 40
0.0787401574732453
 50
9.00160585947805E-9
 51
90.0000000192922
  0
ARC
  8
5
  6
CONTINUOUS
 62
5
 10
3.24442947787037
 20
5.17714211202451
 30
0.0
 40
0.0787401574732446
 50
90.0000000038582
 51
180.000000014149
  0
ARC
  8
5
  6
CONTINUOUS
 62
5
 10
3.3231696353574
 20
4.68895313564974
 30
0.0
 40
0.062992125986377
 50
180.000000007716
 51
359.999999992283
  0
ARC
  8
5
  6
CONTINUOUS
 62
5
 10
3.32316963535882
 20
5.11414998602647
 30
0.0
 40
0.0629921259849628
 50
7.71728515688435E-9
 51
180.000000002572
  0
ARC
  8
5
  6
CONTINUOUS
 62
5
 10
3.08694916291328
 20
5.05903187579344
 30
0.0
 40
0.0787401574803153
 50
270.000000003856
 51
1.41467191954786E-8
  0
ARC
  8
5
  6
CONTINUOUS
 62
5
 10
3.5593901077881
 20
5.05903187579697
 30
0.0
 40
0.0787401574732441
 50
179.999999998714
 51
270.000000009004
  0
ARC
  8
5
  6
CONTINUOUS
 62
5
 10
3.55939010779163
 20
4.74407124588278
 30
0.0
 40
0.0787401574732447
 50
90.0000000038583
 51
180.000000014149
  0
LINE
  8
5
  6
CONTINUOUS
 62
5
 10
4.34679168260362
 20
5.86561411967857
 30
0.0
 11
3.55939010780047
 21
5.86561411968387
 31
0.0
  0
LINE
  8
5
  6
CONTINUOUS
 62
5
 10
4.34679168260362
 20
5.70813380471793
 30
0.0
 11
4.34679168260362
 21
5.86561411967857
 31
0.0
  0
LINE
  8
5
  6
CONTINUOUS
 62
5
 10
3.48064995031485
 20
5.94435427715888
 30
0.0
 11
3.48064995032546
 21
6.06246451339349
 31
0.0
  0
LINE
  8
5
  6
CONTINUOUS
 62
5
 10
3.55939010778633
 20
5.70813380471617
 30
0.0
 11
4.34679168260362
 21
5.70813380471793
 31
0.0
  0
LINE
  8
5
  6
CONTINUOUS
 62
5
 10
3.48064995031485
 20
5.51128341103129
 30
0.0
 11
3.48064995031839
 21
5.62939364722348
 31
0.0
  0
LINE
  8
5
  6
CONTINUOUS
 62
5
 10
3.24442947787921
 20
5.43254325354214
 30
0.0
 11
3.40190979283984
 21
5.43254325353153
 31
0.0
  0
LINE
  8
5
  6
CONTINUOUS
 62
5
 10
3.1656893204042
 20
5.62939364725176
 30
0.0
 11
3.16568932039359
 21
5.51128341101715
 31
0.0
  0
LINE
  8
5
  6
CONTINUOUS
 62
5
 10
1.98458695819417
 20
5.70813380471794
 30
0.0
 11
2.98645543036502
 21
5.70813380471312
 31
0.0
  0
LINE
  8
5
  6
CONTINUOUS
 62
5
 10
3.01145543036502
 20
5.708133804713
 30
0.0
 11
3.08694916290444
 21
5.70813380471263
 31
0.0
  0
LINE
  8
5
  6
CONTINUOUS
 62
5
 10
3.08694916291858
 20
5.86561411967326
 30
0.0
 11
3.01799378065445
 21
5.86561411967359
 31
0.0
  0
LINE
  8
5
  6
CONTINUOUS
 62
5
 10
2.99299378065445
 20
5.86561411967372
 30
0.0
 11
1.98458695819417
 21
5.86561411967857
 31
0.0
  0
LINE
  8
5
  6
CONTINUOUS
 62
5
 10
3.16568932039713
 20
6.06246451336521
 30
0.0
 11
3.16568932039359
 21
5.94435427717302
 31
0.0
  0
LINE
  8
5
  6
CONTINUOUS
 62
5
 10
3.26017750937103
 20
5.5742755370014
 30
0.0
 11
3.26017750937385
 21
5.99947238738379
 31
0.0
  0
LINE
  8
5
  6
CONTINUOUS
 62
5
 10
3.4019097928257
 20
6.14120467085436
 30
0.0
 11
3.24442947786507
 21
6.1412046708579
 31
0.0
  0
LINE
  8
5
  6
CONTINUOUS
 62
5
 10
1.98458695819417
 20
5.86561411967857
 30
0.0
 11
1.98458695819417
 21
5.70813380471794
 31
0.0
  0
ARC
  8
5
  6
CONTINUOUS
 62
5
 10
3.08694916293095
 20
5.62939364723939
 30
0.0
 40
0.0787401574732442
 50
9.00341241453712E-9
 51
90.0000000192933
  0
ARC
  8
5
  6
CONTINUOUS
 62
5
 10
3.24442947786684
 20
5.51128341101538
 30
0.0
 40
0.0787401574732445
 50
179.999999998713
 51
270.000000009003
  0
ARC
  8
5
  6
CONTINUOUS
 62
5
 10
3.40190979283454
 20
5.51128341101185
 30
0.0
 40
0.0787401574803144
 50
270.000000003856
 51
1.41460703623236E-8
  0
ARC
  8
5
  6
CONTINUOUS
 62
5
 10
3.40190979285221
 20
6.06246451338112
 30
0.0
 40
0.0787401574732447
 50
9.00119874847882E-9
 51
90.0000000192923
  0
ARC
  8
5
  6
CONTINUOUS
 62
5
 10
3.24442947787037
 20
6.06246451338465
 30
0.0
 40
0.0787401574732446
 50
90.0000000038582
 51
180.000000014149
  0
ARC
  8
5
  6
CONTINUOUS
 62
5
 10
3.3231696353574
 20
5.57427553700988
 30
0.0
 40
0.062992125986377
 50
180.000000007716
 51
359.999999992283
  0
ARC
  8
5
  6
CONTINUOUS
 62
5
 10
3.32316963535882
 20
5.99947238738662
 30
0.0
 40
0.0629921259849628
 50
7.71728515688435E-9
 51
180.000000002572
  0
ARC
  8
5
  6
CONTINUOUS
 62
5
 10
3.08694916291328
 20
5.94435427715358
 30
0.0
 40
0.0787401574803153
 50
270.000000003856
 51
1.41467191954786E-8
  0
ARC
  8
5
  6
CONTINUOUS
 62
5
 10
3.5593901077881
 20
5.94435427715711
 30
0.0
 40
0.0787401574732441
 50
179.999999998714
 51
270.000000009004
  0
ARC
  8
5
  6
CONTINUOUS
 62
5
 10
3.55939010779163
 20
5.62939364724292
 30
0.0
 40
0.0787401574732455
 50
90.0000000038589
 51
180.000000014149
  0
LINE
  8
9
  6
CONTINUOUS
 62
9
 10
1.66832529525888
 20
5.10432543455052
 30
0.0
 11
1.55227796825021
 21
5.19698816523661
 31
0.0
  0
LINE
  8
9
  6
CONTINUOUS
 62
9
 10
1.58830129916345
 20
5.1626751628918
 30
0.0
 11
1.55227796825021
 21
5.19698816523661
 31
0.0
  0
LINE
  8
9
  6
CONTINUOUS
 62
9
 10
1.31390449245558
 20
5.40033287448975
 30
0.0
 11
1.36967858719069
 21
5.3474434953996
 31
0.0
  0
LINE
  8
9
  6
CONTINUOUS
 62
9
 10
1.33669978825991
 20
5.38469213726857
 30
0.0
 11
1.36967858719069
 21
5.3474434953996
 31
0.0
  0
LINE
  8
9
  6
CONTINUOUS
 62
9
 10
1.24277509570169
 20
5.22246167829095
 30
0.0
 11
1.26660388777088
 21
5.2747491903764
 31
0.0
  0
LINE
  8
9
  6
CONTINUOUS
 62
9
 10
1.24210581567272
 20
5.23144899449377
 30
0.0
 11
1.26660388777088
 21
5.2747491903764
 31
0.0
  0
LINE
  8
9
  6
CONTINUOUS
 62
9
 10
1.37385323377641
 20
5.0458544132257
 30
0.0
 11
1.35935446384883
 21
4.89806013243429
 31
0.0
  0
LINE
  8
9
  6
CONTINUOUS
 62
9
 10
1.36850847324467
 20
4.94696071128548
 30
0.0
 11
1.35935446384883
 21
4.89806013243429
 31
0.0
  0
LINE
  8
9
  6
CONTINUOUS
 62
9
 10
1.31390449245558
 20
4.58251206622825
 30
0.0
 11
1.36967858719069
 21
4.5296226871381
 31
0.0
  0
LINE
  8
9
  6
CONTINUOUS
 62
9
 10
1.33669978825991
 20
4.56687132900707
 30
0.0
 11
1.36967858719069
 21
4.5296226871381
 31
0.0
  0
LINE
  8
9
  6
CONTINUOUS
 62
9
 10
1.24277509570169
 20
4.40464087002945
 30
0.0
 11
1.26660388777088
 21
4.4569283821149
 31
0.0
  0
LINE
  8
9
  6
CONTINUOUS
 62
9
 10
1.24210581567272
 20
4.41362818623227
 30
0.0
 11
1.26660388777088
 21
4.4569283821149
 31
0.0
  0
LINE
  8
9
  6
CONTINUOUS
 62
9
 10
1.37385323377641
 20
4.2280336049642
 30
0.0
 11
1.35935446384883
 21
4.08023932417279
 31
0.0
  0
LINE
  8
9
  6
CONTINUOUS
 62
9
 10
1.36850847324467
 20
4.12913990302398
 30
0.0
 11
1.35935446384883
 21
4.08023932417279
 31
0.0
  0
LINE
  8
9
  6
CONTINUOUS
 62
9
 10
1.31390449245558
 20
3.76469125796675
 30
0.0
 11
1.36967858719069
 21
3.7118018788766
 31
0.0
  0
LINE
  8
9
  6
CONTINUOUS
 62
9
 10
1.33669978825991
 20
3.74905052074557
 30
0.0
 11
1.36967858719069
 21
3.7118018788766
 31
0.0
  0
LINE
  8
9
  6
CONTINUOUS
 62
9
 10
1.24277509570169
 20
3.58682006176795
 30
0.0
 11
1.26660388777088
 21
3.6391075738534
 31
0.0
  0
LINE
  8
9
  6
CONTINUOUS
 62
9
 10
1.24210581567272
 20
3.59580737797077
 30
0.0
 11
1.26660388777088
 21
3.6391075738534
 31
0.0
  0
LINE
  8
9
  6
CONTINUOUS
 62
9
 10
1.37385323377641
 20
3.4102127967027
 30
0.0
 11
1.35935446384883
 21
3.26241851591129
 31
0.0
  0
LINE
  8
9
  6
CONTINUOUS
 62
9
 10
1.36850847324466
 20
3.31131909476248
 30
0.0
 11
1.35935446384883
 21
3.26241851591129
 31
0.0
  0
LINE
  8
9
  6
CONTINUOUS
 62
9
 10
1.31390449245558
 20
2.94687044970525
 30
0.0
 11
1.36967858719069
 21
2.8939810706151
 31
0.0
  0
LINE
  8
9
  6
CONTINUOUS
 62
9
 10
1.33669978825991
 20
2.93122971248407
 30
0.0
 11
1.36967858719069
 21
2.8939810706151
 31
0.0
  0
LINE
  8
9
  6
CONTINUOUS
 62
9
 10
1.24277509570169
 20
2.76899925350644
 30
0.0
 11
1.26660388777088
 21
2.82128676559189
 31
0.0
  0
LINE
  8
9
  6
CONTINUOUS
 62
9
 10
1.24210581567272
 20
2.77798656970926
 30
0.0
 11
1.26660388777088
 21
2.82128676559189
 31
0.0
  0
LINE
  8
9
  6
CONTINUOUS
 62
9
 10
1.37385323377641
 20
2.5923919884412
 30
0.0
 11
1.35935446384883
 21
2.44459770764979
 31
0.0
  0
LINE
  8
9
  6
CONTINUOUS
 62
9
 10
1.36850847324467
 20
2.49349828650098
 30
0.0
 11
1.35935446384883
 21
2.44459770764979
 31
0.0
  0
LINE
  8
9
  6
CONTINUOUS
 62
9
 10
1.31390449245558
 20
2.12904964144374
 30
0.0
 11
1.36967858719069
 21
2.07616026235359
 31
0.0
  0
LINE
  8
9
  6
CONTINUOUS
 62
9
 10
1.33669978825991
 20
2.11340890422256
 30
0.0
 11
1.36967858719069
 21
2.07616026235359
 31
0.0
  0
LINE
  8
9
  6
CONTINUOUS
 62
9
 10
1.24277509570169
 20
1.95117844524494
 30
0.0
 11
1.26660388777088
 21
2.00346595733039
 31
0.0
  0
LINE
  8
9
  6
CONTINUOUS
 62
9
 10
1.24210581567272
 20
1.96016576144777
 30
0.0
 11
1.26660388777088
 21
2.00346595733039
 31
0.0
  0
LINE
  8
9
  6
CONTINUOUS
 62
9
 10
1.37385323377641
 20
1.7745711801797
 30
0.0
 11
1.35935446384883
 21
1.62677689938829
 31
0.0
  0
LINE
  8
9
  6
CONTINUOUS
 62
9
 10
1.36850847324467
 20
1.67567747823948
 30
0.0
 11
1.35935446384883
 21
1.62677689938829
 31
0.0
  0
LINE
  8
9
  6
CONTINUOUS
 62
9
 10
1.31390449245558
 20
1.31122883318224
 30
0.0
 11
1.36967858719069
 21
1.25833945409209
 31
0.0
  0
LINE
  8
9
  6
CONTINUOUS
 62
9
 10
1.33669978825991
 20
1.29558809596106
 30
0.0
 11
1.36967858719069
 21
1.25833945409209
 31
0.0
  0
LINE
  8
9
  6
CONTINUOUS
 62
9
 10
1.24277509570169
 20
1.13335763698344
 30
0.0
 11
1.26660388777088
 21
1.18564514906889
 31
0.0
  0
LINE
  8
9
  6
CONTINUOUS
 62
9
 10
1.24210581567272
 20
1.14234495318626
 30
0.0
 11
1.26660388777088
 21
1.18564514906889
 31
0.0
  0
LINE
  8
9
  6
CONTINUOUS
 62
9
 10
4.49604168260362
 20
1.28152179794401
 30
0.0
 11
4.34679168260362
 21
1.28152179791721
 31
0.0
  0
LINE
  8
9
  6
CONTINUOUS
 62
9
 10
4.34679168260585
 20
1.23177179791721
 30
0.0
 11
4.34679168260362
 21
1.28152179791721
 31
0.0
  0
LINE
  8
9
  6
CONTINUOUS
 62
9
 10
3.32428196330952
 20
1.44867383586153
 30
0.0
 11
3.38616176134378
 21
1.45137556619618
 31
0.0
  0
LINE
  8
9
  6
CONTINUOUS
 62
9
 10
3.33645911231989
 20
1.45354563071308
 30
0.0
 11
3.38616176134378
 21
1.45137556619618
 31
0.0
  0
LINE
  8
9
  6
CONTINUOUS
 62
9
 10
4.49604168260362
 20
2.16684419930416
 30
0.0
 11
4.34679168260362
 21
2.16684419927736
 31
0.0
  0
LINE
  8
9
  6
CONTINUOUS
 62
9
 10
4.34679168260585
 20
2.11709419927736
 30
0.0
 11
4.34679168260362
 21
2.16684419927736
 31
0.0
  0
LINE
  8
9
  6
CONTINUOUS
 62
9
 10
3.32428196330952
 20
2.33399623722167
 30
0.0
 11
3.38616176134378
 21
2.33669796755632
 31
0.0
  0
LINE
  8
9
  6
CONTINUOUS
 62
9
 10
3.33645911231989
 20
2.33886803207322
 30
0.0
 11
3.38616176134378
 21
2.33669796755632
 31
0.0
  0
LINE
  8
9
  6
CONTINUOUS
 62
9
 10
4.49604168260362
 20
3.0521666006643
 30
0.0
 11
4.34679168260362
 21
3.0521666006375
 31
0.0
  0
LINE
  8
9
  6
CONTINUOUS
 62
9
 10
4.34679168260585
 20
3.0024166006375
 30
0.0
 11
4.34679168260362
 21
3.0521666006375
 31
0.0
  0
LINE
  8
9
  6
CONTINUOUS
 62
9
 10
3.32428196330952
 20
3.01684394791815
 30
0.0
 11
3.38616176134378
 21
3.0195456782528
 31
0.0
  0
LINE
  8
9
  6
CONTINUOUS
 62
9
 10
3.33645911231989
 20
3.0217157427697
 30
0.0
 11
3.38616176134378
 21
3.0195456782528
 31
0.0
  0
LINE
  8
9
  6
CONTINUOUS
 62
9
 10
4.49604168260362
 20
3.93748900202445
 30
0.0
 11
4.34679168260362
 21
3.93748900199765
 31
0.0
  0
LINE
  8
9
  6
CONTINUOUS
 62
9
 10
4.34679168260585
 20
3.88773900199765
 30
0.0
 11
4.34679168260362
 21
3.93748900199765
 31
0.0
  0
LINE
  8
9
  6
CONTINUOUS
 62
9
 10
3.32428196330952
 20
4.10464103994196
 30
0.0
 11
3.38616176134378
 21
4.10734277027661
 31
0.0
  0
LINE
  8
9
  6
CONTINUOUS
 62
9
 10
3.33645911231989
 20
4.10951283479351
 30
0.0
 11
3.38616176134378
 21
4.10734277027661
 31
0.0
  0
LINE
  8
9
  6
CONTINUOUS
 62
9
 10
4.49604168260362
 20
4.82281140338459
 30
0.0
 11
4.34679168260362
 21
4.82281140335779
 31
0.0
  0
LINE
  8
9
  6
CONTINUOUS
 62
9
 10
4.34679168260585
 20
4.77306140335779
 30
0.0
 11
4.34679168260362
 21
4.82281140335779
 31
0.0
  0
LINE
  8
9
  6
CONTINUOUS
 62
9
 10
3.32428196330952
 20
4.98996344130211
 30
0.0
 11
3.38616176134378
 21
4.99266517163676
 31
0.0
  0
LINE
  8
9
  6
CONTINUOUS
 62
9
 10
3.33645911231989
 20
4.99483523615366
 30
0.0
 11
3.38616176134378
 21
4.99266517163676
 31
0.0
  0
LINE
  8
9
  6
CONTINUOUS
 62
9
 10
4.34679168258352
 20
6.01486411967857
 30
0.0
 11
4.34679168260362
 21
5.86561411967857
 31
0.0
  0
LINE
  8
9
  6
CONTINUOUS
 62
9
 10
4.39654168260362
 20
5.8656141196875
 30
0.0
 11
4.34679168260362
 21
5.86561411967857
 31
0.0
  0
LINE
  8
9
  6
CONTINUOUS
 62
9
 10
3.32428196330952
 20
5.89553331172861
 30
0.0
 11
3.38616176134378
 21
5.89823504206327
 31
0.0
  0
LINE
  8
9
  6
CONTINUOUS
 62
9
 10
3.33645911231989
 20
5.90040510658017
 30
0.0
 11
3.38616176134378
 21
5.89823504206327
 31
0.0
  0
LINE
  8
0
  6
CONTINUOUS
 62
0
 10
0.999999999982151
 20
6.14120467085967
 30
0.0
 11
3.32428196330952
 21
5.89553331172861
 31
0.0
  0
LINE
  8
0
  6
CONTINUOUS
 62
0
 10
3.33645911231989
 20
5.90040510658017
 30
0.0
 11
4.34679168258352
 21
6.01486411967857
 31
0.0
  0
LINE
  8
0
  6
CONTINUOUS
 62
0
 10
4.39654168260362
 20
5.8656141196875
 30
0.0
 11
3.32428196330952
 21
4.98996344130211
 31
0.0
  0
LINE
  8
0
  6
CONTINUOUS
 62
0
 10
3.33645911231989
 20
4.99483523615366
 30
0.0
 11
4.49604168260362
 21
4.82281140338459
 31
0.0
  0
LINE
  8
0
  6
CONTINUOUS
 62
0
 10
4.34679168260585
 20
4.77306140335779
 30
0.0
 11
3.32428196330952
 21
4.10464103994196
 31
0.0
  0
LINE
  8
0
  6
CONTINUOUS
 62
0
 10
3.33645911231989
 20
4.10951283479351
 30
0.0
 11
4.49604168260362
 21
3.93748900202445
 31
0.0
  0
LINE
  8
0
  6
CONTINUOUS
 62
0
 10
4.34679168260585
 20
3.88773900199765
 30
0.0
 11
3.32428196330952
 21
3.01684394791815
 31
0.0
  0
LINE
  8
0
  6
CONTINUOUS
 62
0
 10
3.33645911231989
 20
3.0217157427697
 30
0.0
 11
4.49604168260362
 21
3.0521666006643
 31
0.0
  0
LINE
  8
0
  6
CONTINUOUS
 62
0
 10
4.34679168260585
 20
3.0024166006375
 30
0.0
 11
3.32428196330952
 21
2.33399623722167
 31
0.0
  0
LINE
  8
0
  6
CONTINUOUS
 62
0
 10
3.33645911231989
 20
2.33886803207322
 30
0.0
 11
4.49604168260362
 21
2.16684419930416
 31
0.0
  0
LINE
  8
0
  6
CONTINUOUS
 62
0
 10
4.34679168260585
 20
2.11709419927736
 30
0.0
 11
3.32428196330952
 21
1.44867383586153
 31
0.0
  0
LINE
  8
0
  6
CONTINUOUS
 62
0
 10
3.33645911231989
 20
1.45354563071308
 30
0.0
 11
4.49604168260362
 21
1.28152179794401
 31
0.0
  0
LINE
  8
0
  6
CONTINUOUS
 62
0
 10
4.34679168260585
 20
1.23177179791721
 30
0.0
 11
1.24277509570169
 21
1.13335763698344
 31
0.0
  0
LINE
  8
0
  6
CONTINUOUS
 62
0
 10
1.24210581567272
 20
1.14234495318626
 30
0.0
 11
1.31390449245558
 21
1.31122883318224
 31
0.0
  0
LINE
  8
0
  6
CONTINUOUS
 62
0
 10
1.33669978825991
 20
1.29558809596106
 30
0.0
 11
1.37385323377641
 21
1.7745711801797
 31
0.0
  0
LINE
  8
0
  6
CONTINUOUS
 62
0
 10
1.36850847324467
 20
1.67567747823948
 30
0.0
 11
1.24277509570169
 21
1.95117844524494
 31
0.0
  0
LINE
  8
0
  6
CONTINUOUS
 62
0
 10
1.24210581567272
 20
1.96016576144777
 30
0.0
 11
1.31390449245558
 21
2.12904964144374
 31
0.0
  0
LINE
  8
0
  6
CONTINUOUS
 62
0
 10
1.33669978825991
 20
2.11340890422256
 30
0.0
 11
1.37385323377641
 21
2.5923919884412
 31
0.0
  0
LINE
  8
0
  6
CONTINUOUS
 62
0
 10
1.36850847324467
 20
2.49349828650098
 30
0.0
 11
1.24277509570169
 21
2.76899925350644
 31
0.0
  0
LINE
  8
0
  6
CONTINUOUS
 62
0
 10
1.24210581567272
 20
2.77798656970926
 30
0.0
 11
1.31390449245558
 21
2.94687044970525
 31
0.0
  0
LINE
  8
0
  6
CONTINUOUS
 62
0
 10
1.33669978825991
 20
2.93122971248407
 30
0.0
 11
1.37385323377641
 21
3.4102127967027
 31
0.0
  0
LINE
  8
0
  6
CONTINUOUS
 62
0
 10
1.36850847324466
 20
3.31131909476248
 30
0.0
 11
1.24277509570169
 21
3.58682006176795
 31
0.0
  0
LINE
  8
0
  6
CONTINUOUS
 62
0
 10
1.24210581567272
 20
3.59580737797077
 30
0.0
 11
1.31390449245558
 21
3.76469125796675
 31
0.0
  0
LINE
  8
0
  6
CONTINUOUS
 62
0
 10
1.33669978825991
 20
3.74905052074557
 30
0.0
 11
1.37385323377641
 21
4.2280336049642
 31
0.0
  0
LINE
  8
0
  6
CONTINUOUS
 62
0
 10
1.36850847324467
 20
4.12913990302398
 30
0.0
 11
1.24277509570169
 21
4.40464087002945
 31
0.0
  0
LINE
  8
0
  6
CONTINUOUS
 62
0
 10
1.24210581567272
 20
4.41362818623227
 30
0.0
 11
1.31390449245558
 21
4.58251206622825
 31
0.0
  0
LINE
  8
0
  6
CONTINUOUS
 62
0
 10
1.33669978825991
 20
4.56687132900707
 30
0.0
 11
1.37385323377641
 21
5.0458544132257
 31
0.0
  0
LINE
  8
0
  6
CONTINUOUS
 62
0
 10
1.36850847324467
 20
4.94696071128548
 30
0.0
 11
1.24277509570169
 21
5.22246167829095
 31
0.0
  0
LINE
  8
0
  6
CONTINUOUS
 62
0
 10
1.24210581567272
 20
5.23144899449377
 30
0.0
 11
1.31390449245558
 21
5.40033287448975
 31
0.0
  0
LINE
  8
0
  6
CONTINUOUS
 62
0
 10
1.33669978825991
 20
5.38469213726857
 30
0.0
 11
1.66832529525888
 21
5.10432543455052
 31
0.0
  0
ARC
  8
5
  6
CONTINUOUS
 62
5
 10
1.31496062991811
 20
5.40406467122579
 30
0.0
 40
0.0787401574803147
 50
314.020687800544
 51
19.2340450115817
  0
ARC
  8
5
  6
CONTINUOUS
 62
5
 10
1.31496062992052
 20
5.40406467121312
 30
0.0
 40
0.0787401574695239
 50
247.551719496145
 51
314.020687805689
  0
ARC
  8
5
  6
CONTINUOUS
 62
5
 10
1.23979342520948
 20
5.22213069485215
 30
0.0
 40
0.0590551181015821
 50
9.00262363697611E-9
 51
63.0000000295826
  0
ARC
  8
5
  6
CONTINUOUS
 62
5
 10
1.31496062991811
 20
4.58624386296429
 30
0.0
 40
0.0787401574803148
 50
314.020687800544
 51
19.2340450115816
  0
ARC
  8
5
  6
CONTINUOUS
 62
5
 10
1.31496062992052
 20
4.58624386295161
 30
0.0
 40
0.078740157469524
 50
247.551719496146
 51
314.02068780569
  0
ARC
  8
5
  6
CONTINUOUS
 62
5
 10
1.23979342520948
 20
4.40430988659065
 30
0.0
 40
0.0590551181015824
 50
9.00280174803827E-9
 51
63.0000000295824
  0
ARC
  8
5
  6
CONTINUOUS
 62
5
 10
1.31496062991811
 20
3.76842305470279
 30
0.0
 40
0.0787401574803153
 50
314.020687800544
 51
19.234045011582
  0
ARC
  8
5
  6
CONTINUOUS
 62
5
 10
1.31496062992052
 20
3.76842305469011
 30
0.0
 40
0.0787401574695244
 50
247.551719496145
 51
314.020687805689
  0
ARC
  8
5
  6
CONTINUOUS
 62
5
 10
1.23979342520948
 20
3.58648907832915
 30
0.0
 40
0.0590551181015824
 50
9.00280174803827E-9
 51
63.0000000295824
  0
ARC
  8
5
  6
CONTINUOUS
 62
5
 10
1.31496062991811
 20
2.95060224644129
 30
0.0
 40
0.0787401574803153
 50
314.020687800544
 51
19.234045011582
  0
ARC
  8
5
  6
CONTINUOUS
 62
5
 10
1.31496062992052
 20
2.95060224642862
 30
0.0
 40
0.0787401574695243
 50
247.551719496145
 51
314.020687805689
  0
ARC
  8
5
  6
CONTINUOUS
 62
5
 10
1.23979342520948
 20
2.76866827006764
 30
0.0
 40
0.0590551181015824
 50
9.00280174803827E-9
 51
63.0000000295824
  0
ARC
  8
5
  6
CONTINUOUS
 62
5
 10
1.31496062991811
 20
2.13278143817978
 30
0.0
 40
0.0787401574803149
 50
314.020687800544
 51
19.2340450115814
  0
ARC
  8
5
  6
CONTINUOUS
 62
5
 10
1.31496062992052
 20
2.1327814381671
 30
0.0
 40
0.078740157469524
 50
247.551719496145
 51
314.020687805689
  0
ARC
  8
5
  6
CONTINUOUS
 62
5
 10
1.23979342520948
 20
1.95084746180614
 30
0.0
 40
0.0590551181015825
 50
9.0008934152294E-9
 51
63.0000000295819
  0
ARC
  8
5
  6
CONTINUOUS
 62
5
 10
1.31496062991811
 20
1.31496062991828
 30
0.0
 40
0.0787401574803153
 50
314.020687800544
 51
19.234045011582
  0
ARC
  8
5
  6
CONTINUOUS
 62
5
 10
1.31496062992052
 20
1.3149606299056
 30
0.0
 40
0.0787401574695243
 50
247.551719496145
 51
314.020687805689
  0
ARC
  8
5
  6
CONTINUOUS
 62
5
 10
1.23979342520948
 20
1.13302665354464
 30
0.0
 40
0.0590551181015827
 50
9.00091885966685E-9
 51
63.0000000295815
  0
LINE
  8
5
  6
CONTINUOUS
 62
5
 10
3.38616176134378
 20
1.57286038059438
 30
0.0
 11
3.38616176134378
 21
1.45137556619618
 31
0.0
  0
LINE
  8
5
  6
CONTINUOUS
 62
5
 10
3.38616176134378
 20
1.45137556619618
 30
0.0
 11
3.38616176134378
 21
1.14766353020068
 31
0.0
  0
LINE
  8
5
  6
CONTINUOUS
 62
5
 10
3.38616176134378
 20
2.45818278195452
 30
0.0
 11
3.38616176134378
 21
2.33669796755632
 31
0.0
  0
LINE
  8
5
  6
CONTINUOUS
 62
5
 10
3.38616176134378
 20
2.33669796755632
 30
0.0
 11
3.38616176134378
 21
2.03298593156082
 31
0.0
  0
LINE
  8
5
  6
CONTINUOUS
 62
5
 10
3.38616176134378
 20
3.34350518331467
 30
0.0
 11
3.38616176134378
 21
3.0195456782528
 31
0.0
  0
LINE
  8
5
  6
CONTINUOUS
 62
5
 10
3.38616176134378
 20
3.0195456782528
 30
0.0
 11
3.38616176134378
 21
2.91830833292097
 31
0.0
  0
LINE
  8
5
  6
CONTINUOUS
 62
5
 10
3.38616176134378
 20
4.22882758467481
 30
0.0
 11
3.38616176134378
 21
4.10734277027661
 31
0.0
  0
LINE
  8
5
  6
CONTINUOUS
 62
5
 10
3.38616176134378
 20
4.10734277027661
 30
0.0
 11
3.38616176134378
 21
3.80363073428111
 31
0.0
  0
LINE
  8
5
  6
CONTINUOUS
 62
5
 10
3.38616176134378
 20
5.11414998603496
 30
0.0
 11
3.38616176134378
 21
4.99266517163676
 31
0.0
  0
LINE
  8
5
  6
CONTINUOUS
 62
5
 10
3.38616176134378
 20
4.99266517163676
 30
0.0
 11
3.38616176134378
 21
4.68895313564126
 31
0.0
  0
LINE
  8
5
  6
CONTINUOUS
 62
5
 10
3.38616176134378
 20
5.9994723873951
 30
0.0
 11
3.38616176134378
 21
5.89823504206327
 31
0.0
  0
LINE
  8
5
  6
CONTINUOUS
 62
5
 10
3.38616176134378
 20
5.89823504206327
 30
0.0
 11
3.38616176134378
 21
5.5742755370014
 31
0.0
  0
LINE
  8
0
  6
CONTINUOUS
 62
0
 10
0.900214237785459
 20
5.39274425740912
 30
0.0
 11
0.901648381283691
 21
5.36779199987622
 31
0.0
  0
LINE
  8
2
  6
CONTINUOUS
 62
2
 10
1.00148361772584
 20
5.37353008008997
 30
0.0
 11
0.901648381283691
 21
5.36779199987622
 31
0.0
  0
LINE
  8
2
  6
CONTINUOUS
 62
2
 10
1.00004947422761
 20
5.39848233762287
 30
0.0
 11
0.900214237785459
 21
5.39274425740912
 31
0.0
  0
LINE
  8
0
  6
CONTINUOUS
 62
0
 10
1.72791350712925
 20
5.3639069482713
 30
0.0
 11
1.72958223021974
 21
5.388844616302
 31
0.0
  0
LINE
  8
2
  6
CONTINUOUS
 62
2
 10
1.62980536710917
 20
5.39552126125391
 30
0.0
 11
1.72958223021974
 21
5.388844616302
 31
0.0
  0
LINE
  8
2
  6
CONTINUOUS
 62
2
 10
1.62813664401867
 20
5.37058359322322
 30
0.0
 11
1.72791350712925
 21
5.3639069482713
 31
0.0
  0
LINE
  8
0
  6
CONTINUOUS
 62
0
 10
0.900078744668584
 20
4.58227615149076
 30
0.0
 11
0.901070412938396
 21
4.5573023749481
 31
0.0
  0
LINE
  8
2
  6
CONTINUOUS
 62
2
 10
0.999999999995407
 20
4.58624386291071
 30
0.0
 11
0.900078744668584
 21
4.58227615149076
 31
0.0
  0
LINE
  8
2
  6
CONTINUOUS
 62
2
 10
1.00099166826522
 20
4.56127008636805
 30
0.0
 11
0.901070412938396
 21
4.5573023749481
 31
0.0
  0
LINE
  8
0
  6
CONTINUOUS
 62
0
 10
1.72984251478196
 20
4.59021158460552
 30
0.0
 11
1.72885084142598
 21
4.61518542517455
 31
0.0
  0
LINE
  8
2
  6
CONTINUOUS
 62
2
 10
1.62992125985865
 20
4.58624386302382
 30
0.0
 11
1.72984251478196
 21
4.59021158460552
 31
0.0
  0
LINE
  8
2
  6
CONTINUOUS
 62
2
 10
1.62892958650266
 20
4.61121770359285
 30
0.0
 11
1.72885084142598
 21
4.61518542517455
 31
0.0
  0
LINE
  8
0
  6
CONTINUOUS
 62
0
 10
0.900078746547816
 20
3.76445529590373
 30
0.0
 11
0.901070438475281
 21
3.73948122192828
 31
0.0
  0
LINE
  8
2
  6
CONTINUOUS
 62
2
 10
0.999999999995407
 20
3.76842305464921
 30
0.0
 11
0.900078746547816
 21
3.76445529590373
 31
0.0
  0
LINE
  8
2
  6
CONTINUOUS
 62
2
 10
1.00099169192287
 20
3.74344898067375
 30
0.0
 11
0.901070438475281
 21
3.73948122192828
 31
0.0
  0
LINE
  8
0
  6
CONTINUOUS
 62
0
 10
1.72984251531121
 20
3.77239076301566
 30
0.0
 11
1.72885084861767
 21
3.79736451982486
 31
0.0
  0
LINE
  8
2
  6
CONTINUOUS
 62
2
 10
1.62992125985865
 20
3.76842305476232
 30
0.0
 11
1.72984251531121
 21
3.77239076301566
 31
0.0
  0
LINE
  8
2
  6
CONTINUOUS
 62
2
 10
1.62892959316511
 20
3.79339681157152
 30
0.0
 11
1.72885084861767
 21
3.79736451982486
 31
0.0
  0
LINE
  8
0
  6
CONTINUOUS
 62
0
 10
0.90007874673805
 20
2.9466344828515
 30
0.0
 11
0.901070441060335
 21
2.92166037876829
 31
0.0
  0
LINE
  8
2
  6
CONTINUOUS
 62
2
 10
0.999999999995407
 20
2.9506022463877
 30
0.0
 11
0.90007874673805
 21
2.9466344828515
 31
0.0
  0
LINE
  8
2
  6
CONTINUOUS
 62
2
 10
1.00099169431769
 20
2.9256281423045
 30
0.0
 11
0.901070441060335
 21
2.92166037876829
 31
0.0
  0
LINE
  8
0
  6
CONTINUOUS
 62
0
 10
1.72978892602333
 20
2.95836151754235
 30
0.0
 11
1.72856905819508
 21
2.98332516803749
 31
0.0
  0
LINE
  8
2
  6
CONTINUOUS
 62
2
 10
1.62990810576668
 20
2.9534807650533
 30
0.0
 11
1.72978892602333
 21
2.95836151754235
 31
0.0
  0
LINE
  8
2
  6
CONTINUOUS
 62
2
 10
1.62868823793843
 20
2.97844441554844
 30
0.0
 11
1.72856905819508
 21
2.98332516803749
 31
0.0
  0
LINE
  8
0
  6
CONTINUOUS
 62
0
 10
0.900078744543097
 20
2.12881372986649
 30
0.0
 11
0.901070411232662
 21
2.10383997319754
 31
0.0
  0
LINE
  8
2
  6
CONTINUOUS
 62
2
 10
0.999999999995407
 20
2.13278143812621
 30
0.0
 11
0.900078744543097
 21
2.12881372986649
 31
0.0
  0
LINE
  8
2
  6
CONTINUOUS
 62
2
 10
1.00099166668497
 20
2.10780768145726
 30
0.0
 11
0.901070411232662
 21
2.10383997319754
 31
0.0
  0
LINE
  8
0
  6
CONTINUOUS
 62
0
 10
1.72885080799884
 20
2.10383942480468
 30
0.0
 11
1.72984251232213
 21
2.1288136547109
 31
0.0
  0
LINE
  8
2
  6
CONTINUOUS
 62
2
 10
1.62992125985865
 20
2.13278143823932
 30
0.0
 11
1.72984251232213
 21
2.1288136547109
 31
0.0
  0
LINE
  8
2
  6
CONTINUOUS
 62
2
 10
1.62892955553535
 20
2.1078072083331
 30
0.0
 11
1.72885080799884
 21
2.10383942480468
 31
0.0
  0
LINE
  8
0
  6
CONTINUOUS
 62
0
 10
0.900255591797058
 20
1.30221492951099
 30
0.0
 11
0.901775479924002
 21
1.27726774803409
 31
0.0
  0
LINE
  8
2
  6
CONTINUOUS
 62
2
 10
1.00159040681114
 20
1.28334889681669
 30
0.0
 11
0.901775479924002
 21
1.27726774803409
 31
0.0
  0
LINE
  8
2
  6
CONTINUOUS
 62
2
 10
1.00007051868419
 20
1.30829607829359
 30
0.0
 11
0.900255591797058
 21
1.30221492951099
 31
0.0
  0
LINE
  8
0
  6
CONTINUOUS
 62
0
 10
1.72827676029422
 20
1.35118904294886
 30
0.0
 11
1.72534544615792
 21
1.37600998815641
 31
0.0
  0
LINE
  8
2
  6
CONTINUOUS
 62
2
 10
1.62603559692902
 20
1.36428165297483
 30
0.0
 11
1.72534544615792
 21
1.37600998815641
 31
0.0
  0
LINE
  8
2
  6
CONTINUOUS
 62
2
 10
1.62896691106531
 20
1.33946070776728
 30
0.0
 11
1.72827676029422
 21
1.35118904294886
 31
0.0
  0
LINE
  8
0
  6
CONTINUOUS
 62
0
 10
3.01211441178812
 20
5.08029171831348
 30
0.0
 11
2.98711441178812
 21
5.0802917183136
 31
0.0
  0
LINE
  8
2
  6
CONTINUOUS
 62
2
 10
2.98711441178764
 20
4.9802917183136
 30
0.0
 11
2.98711441178812
 21
5.0802917183136
 31
0.0
  0
LINE
  8
2
  6
CONTINUOUS
 62
2
 10
3.01211441178764
 20
4.98029171831348
 30
0.0
 11
3.01211441178812
 21
5.08029171831348
 31
0.0
  0
LINE
  8
0
  6
CONTINUOUS
 62
0
 10
2.99304565852379
 20
4.72281140335294
 30
0.0
 11
3.01804565852379
 21
4.72281140335282
 31
0.0
  0
LINE
  8
2
  6
CONTINUOUS
 62
2
 10
3.01804565852427
 20
4.82281140335282
 30
0.0
 11
3.01804565852379
 21
4.72281140335282
 31
0.0
  0
LINE
  8
2
  6
CONTINUOUS
 62
2
 10
2.99304565852427
 20
4.82281140335294
 30
0.0
 11
2.99304565852379
 21
4.72281140335294
 31
0.0
  0
LINE
  8
0
  6
CONTINUOUS
 62
0
 10
3.01211441178805
 20
4.19496931695333
 30
0.0
 11
2.98711441178805
 21
4.19496931695345
 31
0.0
  0
LINE
  8
2
  6
CONTINUOUS
 62
2
 10
2.98711441178757
 20
4.09496931695345
 30
0.0
 11
2.98711441178805
 21
4.19496931695345
 31
0.0
  0
LINE
  8
2
  6
CONTINUOUS
 62
2
 10
3.01211441178757
 20
4.09496931695333
 30
0.0
 11
3.01211441178805
 21
4.19496931695333
 31
0.0
  0
LINE
  8
0
  6
CONTINUOUS
 62
0
 10
2.99304565852381
 20
3.83748900199279
 30
0.0
 11
3.01804565852381
 21
3.83748900199267
 31
0.0
  0
LINE
  8
2
  6
CONTINUOUS
 62
2
 10
2.99304565852429
 20
3.93748900199279
 30
0.0
 11
2.99304565852381
 21
3.83748900199279
 31
0.0
  0
LINE
  8
2
  6
CONTINUOUS
 62
2
 10
3.01804565852429
 20
3.93748900199267
 30
0.0
 11
3.01804565852381
 21
3.83748900199267
 31
0.0
  0
LINE
  8
0
  6
CONTINUOUS
 62
0
 10
3.01211441178804
 20
3.30964691559319
 30
0.0
 11
2.98711441178804
 21
3.30964691559331
 31
0.0
  0
LINE
  8
2
  6
CONTINUOUS
 62
2
 10
2.98711441178756
 20
3.20964691559331
 30
0.0
 11
2.98711441178804
 21
3.30964691559331
 31
0.0
  0
LINE
  8
2
  6
CONTINUOUS
 62
2
 10
3.01211441178756
 20
3.20964691559319
 30
0.0
 11
3.01211441178804
 21
3.30964691559319
 31
0.0
  0
LINE
  8
0
  6
CONTINUOUS
 62
0
 10
2.98711441178761
 20
2.95216660063268
 30
0.0
 11
3.01211441178761
 21
2.95216660063256
 31
0.0
  0
LINE
  8
2
  6
CONTINUOUS
 62
2
 10
3.01211441178809
 20
3.05216660063256
 30
0.0
 11
3.01211441178761
 21
2.95216660063256
 31
0.0
  0
LINE
  8
2
  6
CONTINUOUS
 62
2
 10
2.98711441178809
 20
3.05216660063268
 30
0.0
 11
2.98711441178761
 21
2.95216660063268
 31
0.0
  0
LINE
  8
0
  6
CONTINUOUS
 62
0
 10
3.02397690526025
 20
2.42432451423298
 30
0.0
 11
2.99897690526026
 21
2.4243245142331
 31
0.0
  0
LINE
  8
2
  6
CONTINUOUS
 62
2
 10
2.99897690525977
 20
2.3243245142331
 30
0.0
 11
2.99897690526026
 21
2.4243245142331
 31
0.0
  0
LINE
  8
2
  6
CONTINUOUS
 62
2
 10
3.02397690525977
 20
2.32432451423298
 30
0.0
 11
3.02397690526025
 21
2.42432451423298
 31
0.0
  0
LINE
  8
0
  6
CONTINUOUS
 62
0
 10
2.99304565852382
 20
2.0668441992725
 30
0.0
 11
3.01804565852382
 21
2.06684419927238
 31
0.0
  0
LINE
  8
2
  6
CONTINUOUS
 62
2
 10
2.99304565852431
 20
2.1668441992725
 30
0.0
 11
2.99304565852382
 21
2.0668441992725
 31
0.0
  0
LINE
  8
2
  6
CONTINUOUS
 62
2
 10
3.01804565852431
 20
2.16684419927238
 30
0.0
 11
3.01804565852382
 21
2.06684419927238
 31
0.0
  0
LINE
  8
0
  6
CONTINUOUS
 62
0
 10
3.01804565852417
 20
1.53900211287287
 30
0.0
 11
2.99304565852417
 21
1.53900211287299
 31
0.0
  0
LINE
  8
2
  6
CONTINUOUS
 62
2
 10
2.99304565852369
 20
1.43900211287299
 30
0.0
 11
2.99304565852417
 21
1.53900211287299
 31
0.0
  0
LINE
  8
2
  6
CONTINUOUS
 62
2
 10
3.01804565852369
 20
1.43900211287287
 30
0.0
 11
3.01804565852417
 21
1.53900211287287
 31
0.0
  0
LINE
  8
0
  6
CONTINUOUS
 62
0
 10
2.98711441178745
 20
1.18152179791239
 30
0.0
 11
3.01211441178745
 21
1.18152179791227
 31
0.0
  0
LINE
  8
2
  6
CONTINUOUS
 62
2
 10
2.98711441178793
 20
1.28152179791239
 30
0.0
 11
2.98711441178745
 21
1.18152179791239
 31
0.0
  0
LINE
  8
2
  6
CONTINUOUS
 62
2
 10
3.01211441178793
 20
1.28152179791227
 30
0.0
 11
3.01211441178745
 21
1.18152179791227
 31
0.0
  0
LINE
  8
0
  6
CONTINUOUS
 62
0
 10
2.98645543036453
 20
5.60813380471312
 30
0.0
 11
3.01145543036454
 21
5.608133804713
 31
0.0
  0
LINE
  8
2
  6
CONTINUOUS
 62
2
 10
3.01145543036502
 20
5.708133804713
 30
0.0
 11
3.01145543036454
 21
5.608133804713
 31
0.0
  0
LINE
  8
2
  6
CONTINUOUS
 62
2
 10
2.98645543036502
 20
5.70813380471312
 30
0.0
 11
2.98645543036453
 21
5.60813380471312
 31
0.0
  0
LINE
  8
0
  6
CONTINUOUS
 62
0
 10
3.01799378065493
 20
5.96561411967359
 30
0.0
 11
2.99299378065493
 21
5.96561411967372
 31
0.0
  0
LINE
  8
2
  6
CONTINUOUS
 62
2
 10
2.99299378065445
 20
5.86561411967372
 30
0.0
 11
2.99299378065493
 21
5.96561411967372
 31
0.0
  0
LINE
  8
2
  6
CONTINUOUS
 62
2
 10
3.01799378065445
 20
5.86561411967359
 30
0.0
 11
3.01799378065493
 21
5.96561411967359
 31
0.0
  0
ENDSEC
  0
EOF
