  0
SECTION
  2
HEADER
  9
$ACADVER
  1
AC1003
  9
$EXTMIN
 10
0.950250000000001
 20
9.52008472440945
  9
$EXTMAX
 10
16.9466078104618
 20
0.849999999999999
  9
$INSBASE
 10
8.9484289052309
 20
5.18504236220473
999
Created with OMAX Layout for Windows. (http://www.omax.com) 5/4/2015
  0
ENDSEC
  0
SECTION
  2
TABLES
  0
TABLE
  2
LAYER
 70
    10
  0
LAYER
  2
0
 70
     0
 62
     7
  6
CONTINUOUS
  0
LAYER
  2
1
 70
     0
 62
     7
  6
CONTINUOUS
  0
LAYER
  2
2
 70
     0
 62
     7
  6
CONTINUOUS
  0
LAYER
  2
3
 70
     0
 62
     7
  6
CONTINUOUS
  0
LAYER
  2
4
 70
     0
 62
     7
  6
CONTINUOUS
  0
LAYER
  2
5
 70
     0
 62
     7
  6
CONTINUOUS
  0
LAYER
  2
6
 70
     0
 62
     7
  6
CONTINUOUS
  0
LAYER
  2
7
 70
     0
 62
     7
  6
CONTINUOUS
  0
LAYER
  2
8
 70
     0
 62
     7
  6
CONTINUOUS
  0
LAYER
  2
9
 70
     0
 62
     7
  6
CONTINUOUS
  0
LAYER
  2
10
 70
     0
 62
     7
  6
CONTINUOUS
  0
LAYER
  2
11
 70
     0
 62
     7
  6
CONTINUOUS
  0
LAYER
  2
12
 70
     0
 62
     7
  6
CONTINUOUS
  0
LAYER
  2
13
 70
     0
 62
     7
  6
CONTINUOUS
  0
LAYER
  2
14
 70
     0
 62
     7
  6
CONTINUOUS
  0
LAYER
  2
15
 70
     0
 62
     7
  6
CONTINUOUS
  0
LAYER
  2
16
 70
     0
 62
     7
  6
CONTINUOUS
  0
LAYER
  2
17
 70
     0
 62
     7
  6
CONTINUOUS
  0
LAYER
  2
18
 70
     0
 62
     7
  6
CONTINUOUS
  0
LAYER
  2
19
 70
     0
 62
     7
  6
CONTINUOUS
  0
LAYER
  2
20
 70
     0
 62
     7
  6
CONTINUOUS
  0
LAYER
  2
21
 70
     0
 62
     7
  6
CONTINUOUS
  0
LAYER
  2
22
 70
     0
 62
     7
  6
CONTINUOUS
  0
LAYER
  2
23
 70
     0
 62
     7
  6
CONTINUOUS
  0
LAYER
  2
24
 70
     0
 62
     7
  6
CONTINUOUS
  0
LAYER
  2
25
 70
     0
 62
     7
  6
CONTINUOUS
  0
LAYER
  2
26
 70
     0
 62
     7
  6
CONTINUOUS
  0
LAYER
  2
27
 70
     0
 62
     7
  6
CONTINUOUS
  0
LAYER
  2
28
 70
     0
 62
     7
  6
CONTINUOUS
  0
LAYER
  2
29
 70
     0
 62
     7
  6
CONTINUOUS
  0
LAYER
  2
30
 70
     0
 62
     7
  6
CONTINUOUS
  0
LAYER
  2
31
 70
     0
 62
     7
  6
CONTINUOUS
  0
ENDTAB
  0
ENDSEC
  0
SECTION
  2
ENTITIES
  0
LINE
  8
3
  6
CONTINUOUS
 62
3
 10
0.950250000000001
 20
1.70591401574803
 30
0.0
 11
0.950250000000001
 21
8.66417070866142
 31
0.0
  0
LINE
  8
3
  6
CONTINUOUS
 62
3
 10
1.65616401574803
 20
1.70591401574803
 30
0.0
 11
0.950250000000001
 21
1.70591401574803
 31
0.0
  0
LINE
  8
3
  6
CONTINUOUS
 62
3
 10
0.950250000000001
 20
8.66417070866142
 30
0.0
 11
1.65616401574803
 21
8.66417070866142
 31
0.0
  0
LINE
  8
3
  6
CONTINUOUS
 62
3
 10
7.82701913385827
 20
1
 30
0.0
 11
7.82701913385827
 21
1.70591401574803
 31
0.0
  0
LINE
  8
3
  6
CONTINUOUS
 62
3
 10
1.65616401574803
 20
1.70591401574803
 30
0.0
 11
1.65616401574803
 21
1
 31
0.0
  0
LINE
  8
3
  6
CONTINUOUS
 62
3
 10
1.65616401574803
 20
1
 30
0.0
 11
4.55770845105904
 21
1
 31
0.0
  0
LINE
  8
3
  6
CONTINUOUS
 62
3
 10
4.60770845105904
 20
1
 30
0.0
 11
7.82701913385827
 21
1
 31
0.0
  0
LINE
  8
3
  6
CONTINUOUS
 62
3
 10
1.65616401574803
 20
9.37008472440945
 30
0.0
 11
4.5142642111248
 21
9.37008472440945
 31
0.0
  0
LINE
  8
3
  6
CONTINUOUS
 62
3
 10
4.5642642111248
 20
9.37008472440945
 30
0.0
 11
7.82701913385827
 21
9.37008472440945
 31
0.0
  0
LINE
  8
3
  6
CONTINUOUS
 62
3
 10
7.82701913385827
 20
1.70591401574803
 30
0.0
 11
8.5329331496063
 21
1.70591401574803
 31
0.0
  0
LINE
  8
3
  6
CONTINUOUS
 62
3
 10
8.5329331496063
 20
1.70591401574803
 30
0.0
 11
8.5329331496063
 21
8.66417070866142
 31
0.0
  0
LINE
  8
3
  6
CONTINUOUS
 62
3
 10
8.5329331496063
 20
8.66417070866142
 30
0.0
 11
7.82701913385827
 21
8.66417070866142
 31
0.0
  0
LINE
  8
3
  6
CONTINUOUS
 62
3
 10
5.67926874015748
 20
6.97519984251969
 30
0.0
 11
5.49029236220472
 21
6.97519984251969
 31
0.0
  0
LINE
  8
3
  6
CONTINUOUS
 62
3
 10
5.67926874015748
 20
5.2783494488189
 30
0.0
 11
5.49029236220472
 21
5.2783494488189
 31
0.0
  0
LINE
  8
3
  6
CONTINUOUS
 62
3
 10
5.67926874015748
 20
3.58149905511811
 30
0.0
 11
5.49029236220472
 21
3.58149905511811
 31
0.0
  0
LINE
  8
3
  6
CONTINUOUS
 62
3
 10
3.99029236220472
 20
6.97519984251969
 30
0.0
 11
3.80131598425197
 21
6.97519984251969
 31
0.0
  0
LINE
  8
3
  6
CONTINUOUS
 62
3
 10
3.99029236220472
 20
5.2783494488189
 30
0.0
 11
3.80131598425197
 21
5.2783494488189
 31
0.0
  0
LINE
  8
3
  6
CONTINUOUS
 62
3
 10
3.99029236220472
 20
3.58149905511811
 30
0.0
 11
3.80131598425197
 21
3.58149905511811
 31
0.0
  0
LINE
  8
3
  6
CONTINUOUS
 62
3
 10
3.99029236220472
 20
3.39252267716535
 30
0.0
 11
3.99029236220472
 21
3.58149905511811
 31
0.0
  0
LINE
  8
3
  6
CONTINUOUS
 62
3
 10
3.80131598425197
 20
3.39252267716535
 30
0.0
 11
3.99029236220472
 21
3.39252267716535
 31
0.0
  0
LINE
  8
3
  6
CONTINUOUS
 62
3
 10
3.99029236220472
 20
5.08937307086614
 30
0.0
 11
3.99029236220472
 21
5.2783494488189
 31
0.0
  0
LINE
  8
3
  6
CONTINUOUS
 62
3
 10
3.80131598425197
 20
5.2783494488189
 30
0.0
 11
3.80131598425197
 21
5.08937307086614
 31
0.0
  0
LINE
  8
3
  6
CONTINUOUS
 62
3
 10
3.80131598425197
 20
6.97519984251969
 30
0.0
 11
3.80131598425197
 21
6.78622346456693
 31
0.0
  0
LINE
  8
3
  6
CONTINUOUS
 62
3
 10
3.80131598425197
 20
6.78622346456693
 30
0.0
 11
3.99029236220472
 21
6.78622346456693
 31
0.0
  0
LINE
  8
3
  6
CONTINUOUS
 62
3
 10
5.49029236220472
 20
3.58149905511811
 30
0.0
 11
5.49029236220472
 21
3.39252267716535
 31
0.0
  0
LINE
  8
3
  6
CONTINUOUS
 62
3
 10
5.49029236220472
 20
3.39252267716535
 30
0.0
 11
5.67926874015748
 21
3.39252267716535
 31
0.0
  0
LINE
  8
3
  6
CONTINUOUS
 62
3
 10
5.67926874015748
 20
5.08937307086614
 30
0.0
 11
5.67926874015748
 21
5.2783494488189
 31
0.0
  0
LINE
  8
3
  6
CONTINUOUS
 62
3
 10
5.49029236220472
 20
5.2783494488189
 30
0.0
 11
5.49029236220472
 21
5.08937307086614
 31
0.0
  0
LINE
  8
3
  6
CONTINUOUS
 62
3
 10
5.67926874015748
 20
6.78622346456693
 30
0.0
 11
5.67926874015748
 21
6.97519984251969
 31
0.0
  0
LINE
  8
3
  6
CONTINUOUS
 62
3
 10
5.49029236220472
 20
6.97519984251969
 30
0.0
 11
5.49029236220472
 21
6.78622346456693
 31
0.0
  0
ARC
  8
3
  6
CONTINUOUS
 62
3
 10
7.23646795277117
 20
9.05512409448468
 30
0.0
 40
0.108267716531654
 50
270.999999991931
 51
89.999999997782
  0
ARC
  8
3
  6
CONTINUOUS
 62
3
 10
7.23646795274254
 20
9.05512409449427
 30
0.0
 40
0.108267716522064
 50
89.9999999826341
 51
179.999999992925
  0
ARC
  8
3
  6
CONTINUOUS
 62
3
 10
1.26521062993749
 20
8.07361952755802
 30
0.0
 40
0.108267716529179
 50
288.999999992026
 51
89.9999999982982
  0
ARC
  8
3
  6
CONTINUOUS
 62
3
 10
1.26521062990789
 20
8.07361952756513
 30
0.0
 40
0.108267716522068
 50
89.9999999826372
 51
179.999999992928
  0
ARC
  8
3
  6
CONTINUOUS
 62
3
 10
2.24663645669048
 20
1.31496062993098
 30
0.0
 40
0.108267716540293
 50
179.999999994854
 51
359.999999984564
  0
ARC
  8
3
  6
CONTINUOUS
 62
3
 10
2.24663645672663
 20
1.31496062995215
 30
0.0
 40
0.108267716504141
 50
359.999999973362
 51
99.0000000001588
  0
ARC
  8
3
  6
CONTINUOUS
 62
3
 10
8.21797251968504
 20
2.29646519685525
 30
0.0
 40
0.108267716535433
 50
359.999999997427
 51
179.999999992281
  0
ARC
  8
3
  6
CONTINUOUS
 62
3
 10
6.79592192913187
 20
6.52638094488984
 30
0.0
 40
0.088582677169331
 50
179.999999994854
 51
359.999999984564
  0
ARC
  8
3
  6
CONTINUOUS
 62
3
 10
6.79592192910426
 20
6.52638094490884
 30
0.0
 40
0.088582677141717
 50
80.9999999575956
 51
180.00000000714
  0
ARC
  8
3
  6
CONTINUOUS
 62
3
 10
6.79592192913386
 20
7.2350423622087
 30
0.0
 40
0.0885826771653555
 50
359.999999997427
 51
179.999999992281
  0
ARC
  8
3
  6
CONTINUOUS
 62
3
 10
6.79592192914714
 20
5.5381919685031
 30
0.0
 40
0.0885826771602336
 50
288.999999992028
 51
89.9999999982983
  0
ARC
  8
3
  6
CONTINUOUS
 62
3
 10
6.79592192912292
 20
5.53819196850891
 30
0.0
 40
0.0885826771544164
 50
89.9999999826343
 51
179.999999992925
  0
ARC
  8
3
  6
CONTINUOUS
 62
3
 10
6.79592192914977
 20
4.82953055118309
 30
0.0
 40
0.0885826771613782
 50
89.9999999999998
 51
270
  0
ARC
  8
3
  6
CONTINUOUS
 62
3
 10
6.79592192914031
 20
4.82953055118248
 30
0.0
 40
0.0885826771607714
 50
269.999999995827
 51
71.9999999827753
  0
ARC
  8
3
  6
CONTINUOUS
 62
3
 10
6.79592192913187
 20
3.8413415748111
 30
0.0
 40
0.088582677169331
 50
179.999999994854
 51
359.999999984564
  0
ARC
  8
3
  6
CONTINUOUS
 62
3
 10
6.79592192910426
 20
3.8413415748301
 30
0.0
 40
0.0885826771417155
 50
80.9999999575944
 51
180.00000000714
  0
ARC
  8
3
  6
CONTINUOUS
 62
3
 10
6.79592192913187
 20
3.13268015748827
 30
0.0
 40
0.088582677169331
 50
179.999999994854
 51
359.999999984564
  0
ARC
  8
3
  6
CONTINUOUS
 62
3
 10
6.79592192910426
 20
3.13268015750727
 30
0.0
 40
0.0885826771417155
 50
80.9999999575944
 51
180.00000000714
  0
ARC
  8
3
  6
CONTINUOUS
 62
3
 10
2.68726051182516
 20
7.2350423622083
 30
0.0
 40
0.08858267715582
 50
324.999999992826
 51
89.9999999988569
  0
ARC
  8
3
  6
CONTINUOUS
 62
3
 10
2.68726051180009
 20
7.2350423622097
 30
0.0
 40
0.0885826771544217
 50
89.9999999826377
 51
179.999999992928
  0
ARC
  8
3
  6
CONTINUOUS
 62
3
 10
2.68726051180903
 20
6.52638094488984
 30
0.0
 40
0.0885826771693301
 50
179.999999994854
 51
359.999999984564
  0
ARC
  8
3
  6
CONTINUOUS
 62
3
 10
2.68726051178142
 20
6.52638094490884
 30
0.0
 40
0.0885826771417155
 50
80.9999999575944
 51
180.00000000714
  0
ARC
  8
3
  6
CONTINUOUS
 62
3
 10
2.68726051180903
 20
5.53819196851189
 30
0.0
 40
0.0885826771693301
 50
179.999999994854
 51
359.999999984564
  0
ARC
  8
3
  6
CONTINUOUS
 62
3
 10
2.68726051178142
 20
5.53819196853089
 30
0.0
 40
0.088582677141715
 50
80.999999957594
 51
180.000000007141
  0
ARC
  8
3
  6
CONTINUOUS
 62
3
 10
2.68726051180903
 20
4.82953055118905
 30
0.0
 40
0.0885826771693301
 50
179.999999994854
 51
359.999999984564
  0
ARC
  8
3
  6
CONTINUOUS
 62
3
 10
2.68726051178142
 20
4.82953055120805
 30
0.0
 40
0.0885826771417155
 50
80.9999999575944
 51
180.00000000714
  0
ARC
  8
3
  6
CONTINUOUS
 62
3
 10
2.68726051180903
 20
3.8413415748111
 30
0.0
 40
0.0885826771693301
 50
179.999999994854
 51
359.999999984564
  0
ARC
  8
3
  6
CONTINUOUS
 62
3
 10
2.68726051178142
 20
3.8413415748301
 30
0.0
 40
0.0885826771417155
 50
80.9999999575944
 51
180.00000000714
  0
ARC
  8
3
  6
CONTINUOUS
 62
3
 10
2.68726051180903
 20
3.13268015748827
 30
0.0
 40
0.0885826771693301
 50
179.999999994854
 51
359.999999984564
  0
ARC
  8
3
  6
CONTINUOUS
 62
3
 10
2.68726051178142
 20
3.13268015750727
 30
0.0
 40
0.0885826771417155
 50
80.9999999575944
 51
180.00000000714
  0
LINE
  8
3
  6
CONTINUOUS
 62
3
 10
16.2466215112492
 20
1.70591401574803
 30
0.0
 11
16.8968578104618
 21
1.70591401574803
 31
0.0
  0
LINE
  8
3
  6
CONTINUOUS
 62
3
 10
16.8968578104618
 20
1.70591401574803
 30
0.0
 11
16.8968578104618
 21
8.66417070866142
 31
0.0
  0
LINE
  8
3
  6
CONTINUOUS
 62
3
 10
16.8968578104618
 20
8.66417070866142
 30
0.0
 11
16.2466215112492
 21
8.66417070866142
 31
0.0
  0
LINE
  8
3
  6
CONTINUOUS
 62
3
 10
10.0200886766036
 20
8.71984842519685
 30
0.0
 11
10.0200886766036
 21
9.37008472440945
 31
0.0
  0
LINE
  8
3
  6
CONTINUOUS
 62
3
 10
16.1909437947138
 20
9.37008472440945
 30
0.0
 11
16.1909437947138
 21
8.71984842519685
 31
0.0
  0
LINE
  8
3
  6
CONTINUOUS
 62
3
 10
10.0200886766036
 20
9.37008472440945
 30
0.0
 11
13.4058519843316
 21
9.37008472440945
 31
0.0
  0
LINE
  8
3
  6
CONTINUOUS
 62
3
 10
13.4558519843317
 20
9.37008472440945
 30
0.0
 11
16.1909437947138
 21
9.37008472440945
 31
0.0
  0
LINE
  8
3
  6
CONTINUOUS
 62
3
 10
10.0200886766036
 20
1.6502362992126
 30
0.0
 11
10.0200886766036
 21
1
 31
0.0
  0
LINE
  8
3
  6
CONTINUOUS
 62
3
 10
10.0200886766036
 20
1
 30
0.0
 11
13.4637776375773
 21
1
 31
0.0
  0
LINE
  8
3
  6
CONTINUOUS
 62
3
 10
13.5137776375773
 20
1
 30
0.0
 11
16.1909437947138
 21
1
 31
0.0
  0
LINE
  8
3
  6
CONTINUOUS
 62
3
 10
16.1909437947138
 20
1
 30
0.0
 11
16.1909437947138
 21
1.6502362992126
 31
0.0
  0
LINE
  8
3
  6
CONTINUOUS
 62
3
 10
9.31417466085555
 20
1.70591401574803
 30
0.0
 11
9.31417466085555
 21
8.66417070866142
 31
0.0
  0
LINE
  8
3
  6
CONTINUOUS
 62
3
 10
9.31417466085555
 20
8.66417070866142
 30
0.0
 11
9.9644109994382
 21
8.66417070866142
 31
0.0
  0
LINE
  8
3
  6
CONTINUOUS
 62
3
 10
11.1763822199178
 20
3.01968803149518
 30
0.0
 11
11.01890190495
 21
3.01968803149341
 31
0.0
  0
LINE
  8
3
  6
CONTINUOUS
 62
3
 10
15.2315003301477
 20
3.92519984251262
 30
0.0
 11
15.2315003301495
 21
3.05905811023622
 31
0.0
  0
LINE
  8
3
  6
CONTINUOUS
 62
3
 10
14.9559097789658
 20
2.46850692913651
 30
0.0
 11
11.255122377391
 21
2.46850692913121
 31
0.0
  0
LINE
  8
3
  6
CONTINUOUS
 62
3
 10
11.2157522986535
 20
7.38976677165354
 30
0.0
 11
11.2157522986482
 21
7.8622077165425
 31
0.0
  0
LINE
  8
3
  6
CONTINUOUS
 62
3
 10
14.9952798577068
 20
7.86220771652836
 30
0.0
 11
14.9952798577086
 21
7.38976677166061
 31
0.0
  0
LINE
  8
3
  6
CONTINUOUS
 62
3
 10
11.2157522986535
 20
2.50787700788109
 30
0.0
 11
11.2157522986517
 21
2.98031795274884
 31
0.0
  0
LINE
  8
3
  6
CONTINUOUS
 62
3
 10
11.2551223773981
 20
7.90157779527294
 30
0.0
 11
14.9559097789729
 21
7.9015777952747
 31
0.0
  0
LINE
  8
3
  6
CONTINUOUS
 62
3
 10
11.2157522986535
 20
4.00394
 30
0.0
 11
11.2157522986517
 21
6.36614472440238
 31
0.0
  0
LINE
  8
3
  6
CONTINUOUS
 62
3
 10
14.9952798577033
 20
6.36614472441652
 30
0.0
 11
14.9952798577086
 21
4.00394000000707
 31
0.0
  0
LINE
  8
3
  6
CONTINUOUS
 62
3
 10
14.9952798577033
 20
2.98031795276298
 30
0.0
 11
14.9952798577086
 21
2.50787700787402
 31
0.0
  0
LINE
  8
3
  6
CONTINUOUS
 62
3
 10
11.0189019049571
 20
7.35039669291074
 30
0.0
 11
11.1763822199107
 21
7.35039669291603
 31
0.0
  0
LINE
  8
3
  6
CONTINUOUS
 62
3
 10
11.1763822199178
 20
6.40551480314872
 30
0.0
 11
11.01890190495
 21
6.40551480314695
 31
0.0
  0
LINE
  8
3
  6
CONTINUOUS
 62
3
 10
10.9795318262125
 20
6.44488488189683
 30
0.0
 11
10.9795318262072
 21
7.3110266141803
 31
0.0
  0
LINE
  8
3
  6
CONTINUOUS
 62
3
 10
15.0346499364461
 20
7.35039669291073
 30
0.0
 11
15.1921302514138
 21
7.3503966929125
 31
0.0
  0
LINE
  8
3
  6
CONTINUOUS
 62
3
 10
15.2315003301477
 20
7.31102661416616
 30
0.0
 11
15.2315003301495
 21
6.44488488188976
 31
0.0
  0
LINE
  8
3
  6
CONTINUOUS
 62
3
 10
15.1921302514067
 20
6.40551480315226
 30
0.0
 11
15.0346499364532
 21
6.40551480314696
 31
0.0
  0
LINE
  8
3
  6
CONTINUOUS
 62
3
 10
15.1921302514067
 20
3.01968803149871
 30
0.0
 11
15.0346499364532
 21
3.01968803149342
 31
0.0
  0
LINE
  8
3
  6
CONTINUOUS
 62
3
 10
15.0346499364461
 20
3.96456992125719
 30
0.0
 11
15.1921302514138
 21
3.96456992125896
 31
0.0
  0
LINE
  8
3
  6
CONTINUOUS
 62
3
 10
10.9795318262125
 20
3.05905811024329
 30
0.0
 11
10.9795318262072
 21
3.92519984252676
 31
0.0
  0
LINE
  8
3
  6
CONTINUOUS
 62
3
 10
11.0189019049571
 20
3.9645699212572
 30
0.0
 11
11.1763822199107
 21
3.96456992126249
 31
0.0
  0
LINE
  8
3
  6
CONTINUOUS
 62
3
 10
9.9644109994382
 20
1.70591401574803
 30
0.0
 11
9.31417466085555
 21
1.70591401574803
 31
0.0
  0
LINE
  8
3
  6
CONTINUOUS
 62
3
 10
9.9644109994382
 20
1.70591401574803
 30
0.0
 11
10.110281323018
 21
1.85178436146966
 31
0.0
  0
LINE
  8
3
  6
CONTINUOUS
 62
3
 10
10.0200886766036
 20
1.6502362992126
 30
0.0
 11
10.1659590223171
 21
1.79610666216051
 31
0.0
  0
LINE
  8
3
  6
CONTINUOUS
 62
3
 10
16.1007511483082
 20
1.85178436145841
 30
0.0
 11
16.2466215112492
 21
1.70591401574803
 31
0.0
  0
LINE
  8
3
  6
CONTINUOUS
 62
3
 10
16.1909437947138
 20
1.6502362992126
 30
0.0
 11
16.0450734489965
 21
1.79610666215675
 31
0.0
  0
LINE
  8
3
  6
CONTINUOUS
 62
3
 10
16.2466215112492
 20
8.66417070866142
 30
0.0
 11
16.1007511483057
 21
8.51830036294354
 31
0.0
  0
LINE
  8
3
  6
CONTINUOUS
 62
3
 10
16.045073449004
 20
8.57397806225519
 30
0.0
 11
16.1909437947138
 21
8.71984842519685
 31
0.0
  0
LINE
  8
3
  6
CONTINUOUS
 62
3
 10
10.0200886766036
 20
8.71984842519685
 30
0.0
 11
10.1659590223271
 21
8.57397806224894
 31
0.0
  0
LINE
  8
3
  6
CONTINUOUS
 62
3
 10
10.1102813230155
 20
8.51830036294728
 30
0.0
 11
9.9644109994382
 21
8.66417070866142
 31
0.0
  0
ARC
  8
3
  6
CONTINUOUS
 62
3
 10
11.0189019049438
 20
3.92519984252057
 30
0.0
 40
0.0393700787366221
 50
89.9999999807064
 51
179.999999990996
  0
ARC
  8
3
  6
CONTINUOUS
 62
3
 10
10.5917365506346
 20
3.49212897637444
 30
0.0
 40
0.108267716531654
 50
270.999999991932
 51
89.9999999977817
  0
ARC
  8
3
  6
CONTINUOUS
 62
3
 10
10.5917365506059
 20
3.49212897638403
 30
0.0
 40
0.108267716522064
 50
89.9999999826349
 51
179.999999992925
  0
ARC
  8
3
  6
CONTINUOUS
 62
3
 10
15.619295605735
 20
3.49212897638767
 30
0.0
 40
0.108267716540294
 50
179.999999994853
 51
359.999999984564
  0
ARC
  8
3
  6
CONTINUOUS
 62
3
 10
15.6192956057012
 20
3.49212897641089
 30
0.0
 40
0.10826771650654
 50
80.9999999575937
 51
180.00000000714
  0
ARC
  8
3
  6
CONTINUOUS
 62
3
 10
15.6192956057568
 20
6.87795574803393
 30
0.0
 40
0.108267716530579
 50
89.9999999999998
 51
270
  0
ARC
  8
3
  6
CONTINUOUS
 62
3
 10
15.6192956057548
 20
6.87795574803469
 30
0.0
 40
0.108267716529814
 50
278.999999991205
 51
89.9999999989077
  0
ARC
  8
3
  6
CONTINUOUS
 62
3
 10
10.5917365506346
 20
6.87795574802798
 30
0.0
 40
0.108267716531658
 50
270.999999991931
 51
89.9999999977817
  0
ARC
  8
3
  6
CONTINUOUS
 62
3
 10
10.5917365506059
 20
6.87795574803757
 30
0.0
 40
0.108267716522069
 50
89.9999999826375
 51
179.999999992928
  0
ARC
  8
3
  6
CONTINUOUS
 62
3
 10
11.0189019049527
 20
3.05905811023357
 30
0.0
 40
0.039370078740158
 50
179.999999985852
 51
269.999999996142
  0
ARC
  8
3
  6
CONTINUOUS
 62
3
 10
11.1763822199169
 20
4.00393999999912
 30
0.0
 40
0.0393700787366239
 50
269.999999990992
 51
1.28253323086271E-9
  0
ARC
  8
3
  6
CONTINUOUS
 62
3
 10
11.1763822199151
 20
2.98031795275856
 30
0.0
 40
0.039370078736623
 50
359.999999985849
 51
89.9999999961394
  0
ARC
  8
3
  6
CONTINUOUS
 62
3
 10
15.7236263143989
 20
4.82468350394099
 30
0.0
 40
0.0885826771653537
 50
359.999999997427
 51
179.99999999228
  0
ARC
  8
3
  6
CONTINUOUS
 62
3
 10
15.1960672592966
 20
4.824683503939
 30
0.0
 40
0.0885826771613778
 50
89.9999999999998
 51
270
  0
ARC
  8
3
  6
CONTINUOUS
 62
3
 10
15.1960672592872
 20
4.82468350393838
 30
0.0
 40
0.0885826771607592
 50
269.999999995844
 51
71.999999982823
  0
ARC
  8
3
  6
CONTINUOUS
 62
3
 10
15.196067259295
 20
5.44673074803747
 30
0.0
 40
0.0885826771534214
 50
342.999999993573
 51
89.9999999989606
  0
ARC
  8
3
  6
CONTINUOUS
 62
3
 10
15.1960672592698
 20
5.44673074803647
 30
0.0
 40
0.0885826771544173
 50
89.9999999826337
 51
179.999999992925
  0
ARC
  8
3
  6
CONTINUOUS
 62
3
 10
15.7236263143958
 20
5.44673074803211
 30
0.0
 40
0.0885826771599956
 50
107.999999978651
 51
270.000000001991
  0
ARC
  8
3
  6
CONTINUOUS
 62
3
 10
15.7236263143989
 20
5.4467307480315
 30
0.0
 40
0.0885826771593887
 50
269.999999999999
 51
89.9999999999998
  0
ARC
  8
3
  6
CONTINUOUS
 62
3
 10
11.014964897076
 20
4.82468350394099
 30
0.0
 40
0.0885826771653537
 50
359.999999997427
 51
179.99999999228
  0
ARC
  8
3
  6
CONTINUOUS
 62
3
 10
10.4874058419704
 20
4.82468350393414
 30
0.0
 40
0.088582677162263
 50
270.999999991931
 51
89.9999999977816
  0
ARC
  8
3
  6
CONTINUOUS
 62
3
 10
10.487405841947
 20
4.82468350394198
 30
0.0
 40
0.0885826771544164
 50
89.9999999826343
 51
179.999999992925
  0
ARC
  8
3
  6
CONTINUOUS
 62
3
 10
11.0149648970885
 20
5.44673074802863
 30
0.0
 40
0.088582677162263
 50
270.999999991931
 51
89.9999999977816
  0
ARC
  8
3
  6
CONTINUOUS
 62
3
 10
11.0149648970651
 20
5.44673074803647
 30
0.0
 40
0.0885826771544164
 50
89.9999999826343
 51
179.999999992925
  0
ARC
  8
3
  6
CONTINUOUS
 62
3
 10
10.4874058419722
 20
5.44673074803747
 30
0.0
 40
0.0885826771534205
 50
342.999999993573
 51
89.9999999989602
  0
ARC
  8
3
  6
CONTINUOUS
 62
3
 10
10.487405841947
 20
5.44673074803647
 30
0.0
 40
0.0885826771544164
 50
89.9999999826343
 51
179.999999992925
  0
ARC
  8
3
  6
CONTINUOUS
 62
3
 10
14.955909778972
 20
2.50787700787314
 30
0.0
 40
0.0393700787366306
 50
269.999999990994
 51
1.28444156367159E-9
  0
ARC
  8
3
  6
CONTINUOUS
 62
3
 10
14.9559097789702
 20
7.86220771653808
 30
0.0
 40
0.0393700787366222
 50
359.999999985847
 51
89.9999999961381
  0
ARC
  8
3
  6
CONTINUOUS
 62
3
 10
11.2551223773848
 20
7.86220771653631
 30
0.0
 40
0.0393700787366212
 50
89.999999980705
 51
179.999999990995
  0
ARC
  8
3
  6
CONTINUOUS
 62
3
 10
11.2551223773937
 20
2.50787700787137
 30
0.0
 40
0.0393700787401571
 50
179.999999985851
 51
269.999999996141
  0
ARC
  8
3
  6
CONTINUOUS
 62
3
 10
15.1921302514129
 20
3.05905811023534
 30
0.0
 40
0.0393700787366208
 50
269.999999990995
 51
1.28573922998163E-9
  0
ARC
  8
3
  6
CONTINUOUS
 62
3
 10
15.1921302514111
 20
3.92519984252234
 30
0.0
 40
0.039370078736621
 50
359.999999985849
 51
89.9999999961396
  0
ARC
  8
3
  6
CONTINUOUS
 62
3
 10
15.0346499364399
 20
2.98031795275679
 30
0.0
 40
0.0393700787366219
 50
89.999999980706
 51
179.999999990996
  0
ARC
  8
3
  6
CONTINUOUS
 62
3
 10
15.0346499364488
 20
4.00393999999735
 30
0.0
 40
0.0393700787401538
 50
179.999999985851
 51
269.99999999614
  0
ARC
  8
3
  6
CONTINUOUS
 62
3
 10
15.1921302514129
 20
6.44488488188888
 30
0.0
 40
0.0393700787366208
 50
269.999999990993
 51
1.28317570290837E-9
  0
ARC
  8
3
  6
CONTINUOUS
 62
3
 10
15.0346499364399
 20
6.36614472441033
 30
0.0
 40
0.0393700787366219
 50
89.999999980706
 51
179.999999990996
  0
ARC
  8
3
  6
CONTINUOUS
 62
3
 10
15.0346499364488
 20
7.38976677165089
 30
0.0
 40
0.0393700787401571
 50
179.999999985853
 51
269.999999996143
  0
ARC
  8
3
  6
CONTINUOUS
 62
3
 10
11.0189019049438
 20
7.31102661417411
 30
0.0
 40
0.0393700787366226
 50
89.9999999807044
 51
179.999999990996
  0
ARC
  8
3
  6
CONTINUOUS
 62
3
 10
11.0189019049527
 20
6.44488488188711
 30
0.0
 40
0.0393700787401578
 50
179.999999985852
 51
269.999999996142
  0
ARC
  8
3
  6
CONTINUOUS
 62
3
 10
11.1763822199169
 20
7.38976677165266
 30
0.0
 40
0.0393700787366226
 50
269.999999990993
 51
1.28317570290837E-9
  0
ARC
  8
3
  6
CONTINUOUS
 62
3
 10
11.1763822199151
 20
6.3661447244121
 30
0.0
 40
0.0393700787366222
 50
359.999999985849
 51
89.9999999961406
  0
ARC
  8
3
  6
CONTINUOUS
 62
3
 10
10.1381201726672
 20
1.82394551181477
 30
0.0
 40
0.039370078738828
 50
314.999999995496
 51
134.999999994213
  0
ARC
  8
3
  6
CONTINUOUS
 62
3
 10
16.0729122986567
 20
1.82394551180321
 30
0.0
 40
0.0393700787406022
 50
45.0000000038605
 51
224.999999985851
  0
ARC
  8
3
  6
CONTINUOUS
 62
3
 10
16.0729122986574
 20
8.54613921260186
 30
0.0
 40
0.0393700787406003
 50
135.000000000002
 51
314.999999989716
  0
ARC
  8
3
  6
CONTINUOUS
 62
3
 10
10.1381201726704
 20
8.54613921259904
 30
0.0
 40
0.039370078740601
 50
224.999999996782
 51
44.9999999929292
  0
ARC
  8
3
  6
CONTINUOUS
 62
3
 10
15.6003924561484
 20
9.05512409449256
 30
0.0
 40
0.108267716523777
 50
324.99999999283
 51
89.9999999988574
  0
ARC
  8
3
  6
CONTINUOUS
 62
3
 10
15.6003924561177
 20
9.05512409449427
 30
0.0
 40
0.108267716522065
 50
89.9999999826344
 51
179.999999992925
  0
ARC
  8
3
  6
CONTINUOUS
 62
3
 10
9.62913529079304
 20
8.07361937007771
 30
0.0
 40
0.108267716529174
 50
288.999999992028
 51
89.9999999982978
  0
ARC
  8
3
  6
CONTINUOUS
 62
3
 10
9.62913529076344
 20
8.07361937008482
 30
0.0
 40
0.108267716522064
 50
89.999999982634
 51
179.999999992925
  0
ARC
  8
3
  6
CONTINUOUS
 62
3
 10
10.6105613144164
 20
1.31496062992856
 30
0.0
 40
0.108267716520846
 50
342.999999993573
 51
89.9999999989612
  0
ARC
  8
3
  6
CONTINUOUS
 62
3
 10
10.6105613143855
 20
1.31496062992734
 30
0.0
 40
0.108267716522065
 50
89.9999999826344
 51
179.999999992925
  0
ARC
  8
3
  6
CONTINUOUS
 62
3
 10
16.5818971805382
 20
2.29646535434043
 30
0.0
 40
0.10826771654029
 50
179.999999994854
 51
359.999999984565
  0
ARC
  8
3
  6
CONTINUOUS
 62
3
 10
16.5818971805436
 20
2.29646535433849
 30
0.0
 40
0.108267716534879
 50
359.999999985589
 51
143.999999985211
  0
LINE
  8
9
  6
CONTINUOUS
 62
9
 10
16.8968578104819
 20
8.81342070866142
 30
0.0
 11
16.8968578104618
 21
8.66417070866142
 31
0.0
  0
LINE
  8
9
  6
CONTINUOUS
 62
9
 10
16.9466078104618
 20
8.66417070865695
 30
0.0
 11
16.8968578104618
 21
8.66417070866142
 31
0.0
  0
LINE
  8
9
  6
CONTINUOUS
 62
9
 10
15.598449332705
 20
9.05076249939527
 30
0.0
 11
15.6890801774616
 21
8.99302428346589
 31
0.0
  0
LINE
  8
9
  6
CONTINUOUS
 62
9
 10
15.6496108487875
 20
9.02331016456613
 30
0.0
 11
15.6890801774616
 21
8.99302428346589
 31
0.0
  0
LINE
  8
9
  6
CONTINUOUS
 62
9
 10
15.1196414217534
 20
7.22937701453056
 30
0.0
 11
15.219969101065
 21
7.33886546382098
 31
0.0
  0
LINE
  8
9
  6
CONTINUOUS
 62
9
 10
15.1832895535534
 20
7.30525485099782
 30
0.0
 11
15.219969101065
 21
7.33886546382098
 31
0.0
  0
LINE
  8
9
  6
CONTINUOUS
 62
9
 10
15.6149571081694
 20
6.87559242670574
 30
0.0
 11
15.6362324080548
 21
6.77102098675273
 31
0.0
  0
LINE
  8
9
  6
CONTINUOUS
 62
9
 10
15.630600548182
 20
6.82045118657403
 30
0.0
 11
15.6362324080548
 21
6.77102098675273
 31
0.0
  0
LINE
  8
9
  6
CONTINUOUS
 62
9
 10
15.7270911482068
 20
5.44849686906498
 30
0.0
 11
15.6962527617624
 21
5.53097788038128
 31
0.0
  0
LINE
  8
9
  6
CONTINUOUS
 62
9
 10
15.7095478709545
 20
5.4830372653292
 30
0.0
 11
15.6962527617624
 21
5.53097788038128
 31
0.0
  0
LINE
  8
9
  6
CONTINUOUS
 62
9
 10
15.1962491140879
 20
5.44269267084405
 30
0.0
 11
15.2807792947499
 21
5.42083167969972
 31
0.0
  0
LINE
  8
9
  6
CONTINUOUS
 62
9
 10
15.233882880571
 20
5.43743857095499
 30
0.0
 11
15.2807792947499
 21
5.42083167969972
 31
0.0
  0
LINE
  8
9
  6
CONTINUOUS
 62
9
 10
15.1999084686216
 20
4.82407574765299
 30
0.0
 11
15.2234408119473
 21
4.9089306362797
 31
0.0
  0
LINE
  8
9
  6
CONTINUOUS
 62
9
 10
15.2060179947164
 20
4.86233119486951
 30
0.0
 11
15.2234408119473
 21
4.9089306362797
 31
0.0
  0
LINE
  8
9
  6
CONTINUOUS
 62
9
 10
15.721105668551
 20
4.82784348543255
 30
0.0
 11
15.6398697476627
 21
4.79584380521545
 31
0.0
  0
LINE
  8
9
  6
CONTINUOUS
 62
9
 10
15.6875710294749
 20
4.80997356860594
 30
0.0
 11
15.6398697476627
 21
4.79584380521545
 31
0.0
  0
LINE
  8
9
  6
CONTINUOUS
 62
9
 10
15.6243210243887
 20
3.49451886504191
 30
0.0
 11
15.636232408074
 21
3.59906373765777
 31
0.0
  0
LINE
  8
9
  6
CONTINUOUS
 62
9
 10
15.6263138533235
 20
3.55031248360556
 30
0.0
 11
15.636232408074
 21
3.59906373765777
 31
0.0
  0
LINE
  8
9
  6
CONTINUOUS
 62
9
 10
16.5830155316599
 20
2.30138846489426
 30
0.0
 11
16.4943067579297
 21
2.36010352142396
 31
0.0
  0
LINE
  8
9
  6
CONTINUOUS
 62
9
 10
16.5332415137219
 20
2.3291334182372
 30
0.0
 11
16.4943067579297
 21
2.36010352142396
 31
0.0
  0
LINE
  8
9
  6
CONTINUOUS
 62
9
 10
10.6100611012088
 20
1.31021204832586
 30
0.0
 11
10.714098246639
 21
1.2833062130713
 31
0.0
  0
LINE
  8
9
  6
CONTINUOUS
 62
9
 10
10.6672018324601
 20
1.29991310432657
 30
0.0
 11
10.714098246639
 21
1.2833062130713
 31
0.0
  0
LINE
  8
9
  6
CONTINUOUS
 62
9
 10
10.5870658067733
 20
3.49113731497976
 30
0.0
 11
10.5936260828123
 21
3.38387774954015
 31
0.0
  0
LINE
  8
9
  6
CONTINUOUS
 62
9
 10
10.5949283859995
 20
3.43361070145745
 30
0.0
 11
10.5936260828123
 21
3.38387774954015
 31
0.0
  0
LINE
  8
9
  6
CONTINUOUS
 62
9
 10
10.4836215985614
 20
4.82326271526212
 30
0.0
 11
10.488951822843
 21
4.73611431834245
 31
0.0
  0
LINE
  8
9
  6
CONTINUOUS
 62
9
 10
10.4902541260303
 20
4.78584727025975
 30
0.0
 11
10.488951822843
 21
4.73611431834245
 31
0.0
  0
LINE
  8
9
  6
CONTINUOUS
 62
9
 10
11.0124442512281
 20
4.82784348543255
 30
0.0
 11
10.9312083303398
 21
4.79584380521545
 31
0.0
  0
LINE
  8
9
  6
CONTINUOUS
 62
9
 10
10.978909612152
 20
4.80997356860594
 30
0.0
 11
10.9312083303398
 21
4.79584380521545
 31
0.0
  0
LINE
  8
9
  6
CONTINUOUS
 62
9
 10
11.0111806536795
 20
5.44530995935662
 30
0.0
 11
11.0165108779611
 21
5.35816156243694
 31
0.0
  0
LINE
  8
9
  6
CONTINUOUS
 62
9
 10
11.0178131811484
 20
5.40789451435424
 30
0.0
 11
11.0165108779611
 21
5.35816156243694
 31
0.0
  0
LINE
  8
9
  6
CONTINUOUS
 62
9
 10
10.4875876967651
 20
5.44269267084405
 30
0.0
 11
10.5721178774271
 21
5.42083167969972
 31
0.0
  0
LINE
  8
9
  6
CONTINUOUS
 62
9
 10
10.5252214632482
 20
5.43743857095499
 30
0.0
 11
10.5721178774271
 21
5.42083167969972
 31
0.0
  0
LINE
  8
9
  6
CONTINUOUS
 62
9
 10
10.5870658067733
 20
6.8769640866333
 30
0.0
 11
10.5936260828123
 21
6.76970452119369
 31
0.0
  0
LINE
  8
9
  6
CONTINUOUS
 62
9
 10
10.5949283859995
 20
6.81943747311099
 30
0.0
 11
10.5936260828123
 21
6.76970452119369
 31
0.0
  0
LINE
  8
9
  6
CONTINUOUS
 62
9
 10
9.62499958963083
 20
8.07123290481924
 30
0.0
 11
9.66438381143649
 21
7.97125023295675
 31
0.0
  0
LINE
  8
9
  6
CONTINUOUS
 62
9
 10
9.650254048046
 20
8.01895151476897
 30
0.0
 11
9.66438381143649
 21
7.97125023295675
 31
0.0
  0
LINE
  8
9
  6
CONTINUOUS
 62
9
 10
8.6821831496063
 20
1.70591401573463
 30
0.0
 11
8.5329331496063
 21
1.70591401574803
 31
0.0
  0
LINE
  8
9
  6
CONTINUOUS
 62
9
 10
8.53293314960407
 20
1.65616401574803
 30
0.0
 11
8.5329331496063
 21
1.70591401574803
 31
0.0
  0
LINE
  8
9
  6
CONTINUOUS
 62
9
 10
6.79276194763832
 20
5.53567132265604
 30
0.0
 11
6.82476162785542
 21
5.45443540176777
 31
0.0
  0
LINE
  8
9
  6
CONTINUOUS
 62
9
 10
6.81063186446493
 20
5.50213668357998
 30
0.0
 11
6.82476162785542
 21
5.45443540176777
 31
0.0
  0
LINE
  8
9
  6
CONTINUOUS
 62
9
 10
6.79976313847472
 20
4.82892279489708
 30
0.0
 11
6.82329548180041
 21
4.91377768352379
 31
0.0
  0
LINE
  8
9
  6
CONTINUOUS
 62
9
 10
6.80587266456959
 20
4.8671782421136
 30
0.0
 11
6.82329548180041
 21
4.91377768352379
 31
0.0
  0
LINE
  8
9
  6
CONTINUOUS
 62
9
 10
6.80006435453795
 20
3.84356655752733
 30
0.0
 11
6.80977931286379
 21
3.92883365221391
 31
0.0
  0
LINE
  8
9
  6
CONTINUOUS
 62
9
 10
6.79986075811277
 20
3.88008239816182
 30
0.0
 11
6.80977931286379
 21
3.92883365221391
 31
0.0
  0
LINE
  8
9
  6
CONTINUOUS
 62
9
 10
6.80006435453795
 20
3.1349051402045
 30
0.0
 11
6.80977931286379
 21
3.22017223489108
 31
0.0
  0
LINE
  8
9
  6
CONTINUOUS
 62
9
 10
6.79986075811277
 20
3.17142098083899
 30
0.0
 11
6.80977931286379
 21
3.22017223489108
 31
0.0
  0
LINE
  8
9
  6
CONTINUOUS
 62
9
 10
5.58607627323731
 20
3.49344068284495
 30
0.0
 11
5.67926874015748
 21
3.49750955380577
 31
0.0
  0
LINE
  8
9
  6
CONTINUOUS
 62
9
 10
5.62956609113456
 20
3.49967961834499
 30
0.0
 11
5.67926874015748
 21
3.49750955380577
 31
0.0
  0
LINE
  8
9
  6
CONTINUOUS
 62
9
 10
5.58071168023283
 20
5.18256553778686
 30
0.0
 11
5.5847805511811
 21
5.08937307086614
 31
0.0
  0
LINE
  8
9
  6
CONTINUOUS
 62
9
 10
5.58695061571808
 20
5.13907571988916
 30
0.0
 11
5.5847805511811
 21
5.08937307086614
 31
0.0
  0
LINE
  8
9
  6
CONTINUOUS
 62
9
 10
5.58071168023283
 20
6.87941593148765
 30
0.0
 11
5.5847805511811
 21
6.78622346456693
 31
0.0
  0
LINE
  8
9
  6
CONTINUOUS
 62
9
 10
5.58695061571808
 20
6.83592611358995
 30
0.0
 11
5.5847805511811
 21
6.78622346456693
 31
0.0
  0
LINE
  8
9
  6
CONTINUOUS
 62
9
 10
6.79254816449091
 20
7.23726876079363
 30
0.0
 11
6.72517665757453
 21
7.18173197629562
 31
0.0
  0
LINE
  8
9
  6
CONTINUOUS
 62
9
 10
6.76617693546351
 20
7.2099106865753
 30
0.0
 11
6.72517665757453
 21
7.18173197629562
 31
0.0
  0
LINE
  8
9
  6
CONTINUOUS
 62
9
 10
6.80006435453795
 20
6.52860592760607
 30
0.0
 11
6.80977931286379
 21
6.61387302229265
 31
0.0
  0
LINE
  8
9
  6
CONTINUOUS
 62
9
 10
6.79986075811277
 20
6.56512176824056
 30
0.0
 11
6.80977931286379
 21
6.61387302229265
 31
0.0
  0
LINE
  8
9
  6
CONTINUOUS
 62
9
 10
7.2317972089099
 20
9.05413243309
 30
0.0
 11
7.23835748494887
 21
8.94687286765039
 31
0.0
  0
LINE
  8
9
  6
CONTINUOUS
 62
9
 10
7.23965978813608
 20
8.99660581956769
 30
0.0
 11
7.23835748494887
 21
8.94687286765039
 31
0.0
  0
LINE
  8
9
  6
CONTINUOUS
 62
9
 10
3.89709989528455
 20
6.90813884557462
 30
0.0
 11
3.99029236220472
 21
6.91220771653544
 31
0.0
  0
LINE
  8
9
  6
CONTINUOUS
 62
9
 10
3.9405897131818
 20
6.91437778107465
 30
0.0
 11
3.99029236220472
 21
6.91220771653544
 31
0.0
  0
LINE
  8
9
  6
CONTINUOUS
 62
9
 10
2.68618563153486
 20
7.23114572635637
 30
0.0
 11
2.75982319289958
 21
7.18423342591374
 31
0.0
  0
LINE
  8
9
  6
CONTINUOUS
 62
9
 10
2.72035386422551
 20
7.21451930701399
 30
0.0
 11
2.75982319289958
 21
7.18423342591374
 31
0.0
  0
LINE
  8
9
  6
CONTINUOUS
 62
9
 10
2.69140293721511
 20
6.52860592760607
 30
0.0
 11
2.70111789554095
 21
6.61387302229265
 31
0.0
  0
LINE
  8
9
  6
CONTINUOUS
 62
9
 10
2.69119934078993
 20
6.56512176824056
 30
0.0
 11
2.70111789554095
 21
6.61387302229265
 31
0.0
  0
LINE
  8
9
  6
CONTINUOUS
 62
9
 10
2.69140293721511
 20
5.54041695122812
 30
0.0
 11
2.70111789554095
 21
5.6256840459147
 31
0.0
  0
LINE
  8
9
  6
CONTINUOUS
 62
9
 10
2.69119934078993
 20
5.57693279186261
 30
0.0
 11
2.70111789554095
 21
5.6256840459147
 31
0.0
  0
LINE
  8
9
  6
CONTINUOUS
 62
9
 10
2.69140293721511
 20
4.83175553390528
 30
0.0
 11
2.70111789554095
 21
4.91702262859186
 31
0.0
  0
LINE
  8
9
  6
CONTINUOUS
 62
9
 10
2.69119934078993
 20
4.86827137453977
 30
0.0
 11
2.70111789554095
 21
4.91702262859186
 31
0.0
  0
LINE
  8
9
  6
CONTINUOUS
 62
9
 10
2.69140293721511
 20
3.84356655752733
 30
0.0
 11
2.70111789554095
 21
3.92883365221391
 31
0.0
  0
LINE
  8
9
  6
CONTINUOUS
 62
9
 10
2.69119934078993
 20
3.88008239816182
 30
0.0
 11
2.70111789554095
 21
3.92883365221391
 31
0.0
  0
LINE
  8
9
  6
CONTINUOUS
 62
9
 10
2.69140293721511
 20
3.1349051402045
 30
0.0
 11
2.70111789554095
 21
3.22017223489108
 31
0.0
  0
LINE
  8
9
  6
CONTINUOUS
 62
9
 10
2.69119934078993
 20
3.17142098083899
 30
0.0
 11
2.70111789554095
 21
3.22017223489108
 31
0.0
  0
LINE
  8
9
  6
CONTINUOUS
 62
9
 10
3.89450845117178
 20
3.44908498645475
 30
0.0
 11
3.80131598425197
 21
3.44501611548556
 31
0.0
  0
LINE
  8
9
  6
CONTINUOUS
 62
9
 10
3.85101863327548
 20
3.44284605095974
 30
0.0
 11
3.80131598425197
 21
3.44501611548556
 31
0.0
  0
LINE
  8
9
  6
CONTINUOUS
 62
9
 10
3.93373005293624
 20
5.18256553778686
 30
0.0
 11
3.93779892388451
 21
5.08937307086614
 31
0.0
  0
LINE
  8
9
  6
CONTINUOUS
 62
9
 10
3.93996898842149
 20
5.13907571988916
 30
0.0
 11
3.93779892388451
 21
5.08937307086614
 31
0.0
  0
LINE
  8
9
  6
CONTINUOUS
 62
9
 10
1.26107492877528
 20
8.07123306229955
 30
0.0
 11
1.30045915058094
 21
7.97125039043706
 31
0.0
  0
LINE
  8
9
  6
CONTINUOUS
 62
9
 10
1.28632938719045
 20
8.01895167224928
 30
0.0
 11
1.30045915058094
 21
7.97125039043706
 31
0.0
  0
LINE
  8
9
  6
CONTINUOUS
 62
9
 10
2.25067739762655
 20
1.31878648886936
 30
0.0
 11
2.22969965439468
 21
1.42189539120306
 31
0.0
  0
LINE
  8
9
  6
CONTINUOUS
 62
9
 10
2.23533151426181
 20
1.37246519138112
 30
0.0
 11
2.22969965439468
 21
1.42189539120306
 31
0.0
  0
LINE
  8
9
  6
CONTINUOUS
 62
9
 10
8.21442485441132
 20
2.29966102405305
 30
0.0
 11
8.13150607666808
 21
2.23130805851704
 31
0.0
  0
LINE
  8
9
  6
CONTINUOUS
 62
9
 10
8.17250635455706
 20
2.25948676879672
 30
0.0
 11
8.13150607666808
 21
2.23130805851704
 31
0.0
  0
LINE
  8
0
  6
CONTINUOUS
 62
0
 10
0.950250000000001
 20
9.37008472440945
 30
0.0
 11
8.21442485441132
 21
2.29966102405305
 31
0.0
  0
LINE
  8
0
  6
CONTINUOUS
 62
0
 10
8.17250635455706
 20
2.25948676879672
 30
0.0
 11
2.25067739762655
 21
1.31878648886936
 31
0.0
  0
LINE
  8
0
  6
CONTINUOUS
 62
0
 10
2.23533151426181
 20
1.37246519138112
 30
0.0
 11
1.26107492877528
 21
8.07123306229955
 31
0.0
  0
LINE
  8
0
  6
CONTINUOUS
 62
0
 10
1.28632938719045
 20
8.01895167224928
 30
0.0
 11
3.93373005293624
 21
5.18256553778686
 31
0.0
  0
LINE
  8
0
  6
CONTINUOUS
 62
0
 10
3.93996898842149
 20
5.13907571988916
 30
0.0
 11
3.89450845117178
 21
3.44908498645475
 31
0.0
  0
LINE
  8
0
  6
CONTINUOUS
 62
0
 10
3.85101863327548
 20
3.44284605095974
 30
0.0
 11
2.69140293721511
 21
3.1349051402045
 31
0.0
  0
LINE
  8
0
  6
CONTINUOUS
 62
0
 10
2.69119934078993
 20
3.17142098083899
 30
0.0
 11
2.69140293721511
 21
3.84356655752733
 31
0.0
  0
LINE
  8
0
  6
CONTINUOUS
 62
0
 10
2.69119934078993
 20
3.88008239816182
 30
0.0
 11
2.69140293721511
 21
4.83175553390528
 31
0.0
  0
LINE
  8
0
  6
CONTINUOUS
 62
0
 10
2.69119934078993
 20
4.86827137453977
 30
0.0
 11
2.69140293721511
 21
5.54041695122812
 31
0.0
  0
LINE
  8
0
  6
CONTINUOUS
 62
0
 10
2.69119934078993
 20
5.57693279186261
 30
0.0
 11
2.69140293721511
 21
6.52860592760607
 31
0.0
  0
LINE
  8
0
  6
CONTINUOUS
 62
0
 10
2.69119934078993
 20
6.56512176824056
 30
0.0
 11
2.68618563153486
 21
7.23114572635637
 31
0.0
  0
LINE
  8
0
  6
CONTINUOUS
 62
0
 10
2.72035386422551
 20
7.21451930701399
 30
0.0
 11
3.89709989528455
 21
6.90813884557462
 31
0.0
  0
LINE
  8
0
  6
CONTINUOUS
 62
0
 10
3.9405897131818
 20
6.91437778107465
 30
0.0
 11
7.2317972089099
 21
9.05413243309
 31
0.0
  0
LINE
  8
0
  6
CONTINUOUS
 62
0
 10
7.23965978813608
 20
8.99660581956769
 30
0.0
 11
6.80006435453795
 21
6.52860592760607
 31
0.0
  0
LINE
  8
0
  6
CONTINUOUS
 62
0
 10
6.79986075811277
 20
6.56512176824056
 30
0.0
 11
6.79254816449091
 21
7.23726876079363
 31
0.0
  0
LINE
  8
0
  6
CONTINUOUS
 62
0
 10
6.76617693546351
 20
7.2099106865753
 30
0.0
 11
5.58071168023283
 21
6.87941593148765
 31
0.0
  0
LINE
  8
0
  6
CONTINUOUS
 62
0
 10
5.58695061571808
 20
6.83592611358995
 30
0.0
 11
5.58071168023283
 21
5.18256553778686
 31
0.0
  0
LINE
  8
0
  6
CONTINUOUS
 62
0
 10
5.58695061571808
 20
5.13907571988916
 30
0.0
 11
5.58607627323731
 21
3.49344068284495
 31
0.0
  0
LINE
  8
0
  6
CONTINUOUS
 62
0
 10
5.62956609113456
 20
3.49967961834499
 30
0.0
 11
6.80006435453795
 21
3.1349051402045
 31
0.0
  0
LINE
  8
0
  6
CONTINUOUS
 62
0
 10
6.79986075811277
 20
3.17142098083899
 30
0.0
 11
6.80006435453795
 21
3.84356655752733
 31
0.0
  0
LINE
  8
0
  6
CONTINUOUS
 62
0
 10
6.79986075811277
 20
3.88008239816182
 30
0.0
 11
6.79976313847472
 21
4.82892279489708
 31
0.0
  0
LINE
  8
0
  6
CONTINUOUS
 62
0
 10
6.80587266456959
 20
4.8671782421136
 30
0.0
 11
6.79276194763832
 21
5.53567132265604
 31
0.0
  0
LINE
  8
0
  6
CONTINUOUS
 62
0
 10
6.81063186446493
 20
5.50213668357998
 30
0.0
 11
8.6821831496063
 21
1.70591401573463
 31
0.0
  0
LINE
  8
0
  6
CONTINUOUS
 62
0
 10
8.53293314960407
 20
1.65616401574803
 30
0.0
 11
9.62499958963083
 21
8.07123290481924
 31
0.0
  0
LINE
  8
0
  6
CONTINUOUS
 62
0
 10
9.650254048046
 20
8.01895151476897
 30
0.0
 11
10.5870658067733
 21
6.8769640866333
 31
0.0
  0
LINE
  8
0
  6
CONTINUOUS
 62
0
 10
10.5949283859995
 20
6.81943747311099
 30
0.0
 11
10.4875876967651
 21
5.44269267084405
 31
0.0
  0
LINE
  8
0
  6
CONTINUOUS
 62
0
 10
10.5252214632482
 20
5.43743857095499
 30
0.0
 11
11.0111806536795
 21
5.44530995935662
 31
0.0
  0
LINE
  8
0
  6
CONTINUOUS
 62
0
 10
11.0178131811484
 20
5.40789451435424
 30
0.0
 11
11.0124442512281
 21
4.82784348543255
 31
0.0
  0
LINE
  8
0
  6
CONTINUOUS
 62
0
 10
10.978909612152
 20
4.80997356860594
 30
0.0
 11
10.4836215985614
 21
4.82326271526212
 31
0.0
  0
LINE
  8
0
  6
CONTINUOUS
 62
0
 10
10.4902541260303
 20
4.78584727025975
 30
0.0
 11
10.5870658067733
 21
3.49113731497976
 31
0.0
  0
LINE
  8
0
  6
CONTINUOUS
 62
0
 10
10.5949283859995
 20
3.43361070145745
 30
0.0
 11
10.6100611012088
 21
1.31021204832586
 31
0.0
  0
LINE
  8
0
  6
CONTINUOUS
 62
0
 10
10.6672018324601
 20
1.29991310432657
 30
0.0
 11
16.5830155316599
 21
2.30138846489426
 31
0.0
  0
LINE
  8
0
  6
CONTINUOUS
 62
0
 10
16.5332415137219
 20
2.3291334182372
 30
0.0
 11
15.6243210243887
 21
3.49451886504191
 31
0.0
  0
LINE
  8
0
  6
CONTINUOUS
 62
0
 10
15.6263138533235
 20
3.55031248360556
 30
0.0
 11
15.721105668551
 21
4.82784348543255
 31
0.0
  0
LINE
  8
0
  6
CONTINUOUS
 62
0
 10
15.6875710294749
 20
4.80997356860594
 30
0.0
 11
15.1999084686216
 21
4.82407574765299
 31
0.0
  0
LINE
  8
0
  6
CONTINUOUS
 62
0
 10
15.2060179947164
 20
4.86233119486951
 30
0.0
 11
15.1962491140879
 21
5.44269267084405
 31
0.0
  0
LINE
  8
0
  6
CONTINUOUS
 62
0
 10
15.233882880571
 20
5.43743857095499
 30
0.0
 11
15.7270911482068
 21
5.44849686906498
 31
0.0
  0
LINE
  8
0
  6
CONTINUOUS
 62
0
 10
15.7095478709545
 20
5.4830372653292
 30
0.0
 11
15.6149571081694
 21
6.87559242670574
 31
0.0
  0
LINE
  8
0
  6
CONTINUOUS
 62
0
 10
15.630600548182
 20
6.82045118657403
 30
0.0
 11
15.1196414217534
 21
7.22937701453056
 31
0.0
  0
LINE
  8
0
  6
CONTINUOUS
 62
0
 10
15.1832895535534
 20
7.30525485099782
 30
0.0
 11
15.598449332705
 21
9.05076249939527
 31
0.0
  0
LINE
  8
0
  6
CONTINUOUS
 62
0
 10
15.6496108487875
 20
9.02331016456613
 30
0.0
 11
16.8968578104819
 21
8.81342070866142
 31
0.0
  0
ARC
  8
3
  6
CONTINUOUS
 62
3
 10
15.6003924561311
 20
9.05512409448819
 30
0.0
 40
0.108267716535433
 50
179.999999989709
 51
324.99999999997
  0
ARC
  8
3
  6
CONTINUOUS
 62
3
 10
15.1921302514161
 20
7.31102661417588
 30
0.0
 40
0.039370078731621
 50
359.999999985852
 51
44.9999999858529
  0
ARC
  8
3
  6
CONTINUOUS
 62
3
 10
15.1921302514111
 20
7.31102661418088
 30
0.0
 40
0.0393700787316218
 50
44.9999999755586
 51
89.9999999961388
  0
ARC
  8
3
  6
CONTINUOUS
 62
3
 10
15.6192956057544
 20
6.87795574791526
 30
0.0
 40
0.108267716411909
 50
269.999999990996
 51
279.000000001286
  0
ARC
  8
3
  6
CONTINUOUS
 62
3
 10
15.723626314385
 20
5.44673074807576
 30
0.0
 40
0.0885826771151315
 50
89.999999980706
 51
107.999999980706
  0
ARC
  8
3
  6
CONTINUOUS
 62
3
 10
15.1960672592807
 20
5.4467307480315
 30
0.0
 40
0.0885826771653556
 50
179.999999989709
 51
342.99999999997
  0
ARC
  8
3
  6
CONTINUOUS
 62
3
 10
15.1960672592906
 20
4.82468350398524
 30
0.0
 40
0.0885826771151347
 50
71.9999999755595
 51
89.9999999961392
  0
ARC
  8
3
  6
CONTINUOUS
 62
3
 10
15.7236263143989
 20
4.82468350393701
 30
0.0
 40
0.0885826771653547
 50
179.999999989709
 51
198.999999999971
  0
ARC
  8
3
  6
CONTINUOUS
 62
3
 10
15.7236263144002
 20
4.82468350392905
 30
0.0
 40
0.0885826771640226
 50
198.999999994826
 51
5.1435930308628E-9
  0
ARC
  8
3
  6
CONTINUOUS
 62
3
 10
15.6192956057512
 20
3.49212897638524
 30
0.0
 40
0.10826771652405
 50
359.999999985849
 51
80.9999999858505
  0
ARC
  8
3
  6
CONTINUOUS
 62
3
 10
16.5818971805034
 20
2.29646535433314
 30
0.0
 40
0.108267716505507
 50
143.999999970417
 51
179.999999990997
  0
ARC
  8
3
  6
CONTINUOUS
 62
3
 10
10.6105613143989
 20
1.31496062992126
 30
0.0
 40
0.108267716535433
 50
179.999999989709
 51
342.999999999971
  0
ARC
  8
3
  6
CONTINUOUS
 62
3
 10
10.5917365506193
 20
3.49212897637795
 30
0.0
 40
0.108267716535431
 50
179.999999989709
 51
270.999999999971
  0
ARC
  8
3
  6
CONTINUOUS
 62
3
 10
10.4874058419579
 20
4.82468350393701
 30
0.0
 40
0.088582677165354
 50
179.999999989709
 51
270.999999999971
  0
ARC
  8
3
  6
CONTINUOUS
 62
3
 10
11.014964897076
 20
4.82468350393701
 30
0.0
 40
0.0885826771653547
 50
179.999999989709
 51
198.999999999971
  0
ARC
  8
3
  6
CONTINUOUS
 62
3
 10
11.0149648970773
 20
4.82468350392905
 30
0.0
 40
0.0885826771640226
 50
198.999999994826
 51
5.1435930308628E-9
  0
ARC
  8
3
  6
CONTINUOUS
 62
3
 10
11.014964897076
 20
5.4467307480315
 30
0.0
 40
0.088582677165354
 50
179.999999989709
 51
270.999999999971
  0
ARC
  8
3
  6
CONTINUOUS
 62
3
 10
10.4874058419579
 20
5.4467307480315
 30
0.0
 40
0.0885826771653538
 50
179.999999989709
 51
342.99999999997
  0
ARC
  8
3
  6
CONTINUOUS
 62
3
 10
10.5917365506193
 20
6.87795574803149
 30
0.0
 40
0.108267716535431
 50
179.999999989709
 51
270.999999999971
  0
ARC
  8
3
  6
CONTINUOUS
 62
3
 10
9.62913529077681
 20
8.07361937007874
 30
0.0
 40
0.108267716535433
 50
179.999999989709
 51
288.999999999971
  0
ARC
  8
3
  6
CONTINUOUS
 62
3
 10
6.79592192913386
 20
5.53819196850394
 30
0.0
 40
0.0885826771653552
 50
179.999999989709
 51
288.999999999971
  0
ARC
  8
3
  6
CONTINUOUS
 62
3
 10
6.7959219291438
 20
4.82953055122933
 30
0.0
 40
0.0885826771151359
 50
71.9999999755596
 51
89.9999999961391
  0
ARC
  8
3
  6
CONTINUOUS
 62
3
 10
6.79592192914516
 20
3.84134157480912
 30
0.0
 40
0.0885826771560404
 50
359.999999985849
 51
80.99999998585
  0
ARC
  8
3
  6
CONTINUOUS
 62
3
 10
6.79592192914516
 20
3.13268015748629
 30
0.0
 40
0.0885826771560404
 50
359.999999985849
 51
80.99999998585
  0
LINE
  8
3
  6
CONTINUOUS
 62
3
 10
5.67926874015748
 20
3.39252267716535
 30
0.0
 11
5.67926874015748
 21
3.49750955380577
 31
0.0
  0
LINE
  8
3
  6
CONTINUOUS
 62
3
 10
5.67926874015748
 20
3.49750955380577
 30
0.0
 11
5.67926874015748
 21
3.58149905511811
 31
0.0
  0
LINE
  8
3
  6
CONTINUOUS
 62
3
 10
5.49029236220472
 20
5.08937307086614
 30
0.0
 11
5.5847805511811
 21
5.08937307086614
 31
0.0
  0
LINE
  8
3
  6
CONTINUOUS
 62
3
 10
5.5847805511811
 20
5.08937307086614
 30
0.0
 11
5.67926874015748
 21
5.08937307086614
 31
0.0
  0
LINE
  8
3
  6
CONTINUOUS
 62
3
 10
5.49029236220472
 20
6.78622346456693
 30
0.0
 11
5.5847805511811
 21
6.78622346456693
 31
0.0
  0
LINE
  8
3
  6
CONTINUOUS
 62
3
 10
5.5847805511811
 20
6.78622346456693
 30
0.0
 11
5.67926874015748
 21
6.78622346456693
 31
0.0
  0
ARC
  8
3
  6
CONTINUOUS
 62
3
 10
6.79592192913386
 20
7.23504236220472
 30
0.0
 40
0.088582677165354
 50
179.99999998971
 51
216.999999999973
  0
ARC
  8
3
  6
CONTINUOUS
 62
3
 10
6.79592192913652
 20
7.23504236219677
 30
0.0
 40
0.0885826771626933
 50
216.999999994826
 51
5.14340219758191E-9
  0
ARC
  8
3
  6
CONTINUOUS
 62
3
 10
6.79592192914516
 20
6.52638094488786
 30
0.0
 40
0.0885826771560403
 50
359.999999985849
 51
80.99999998585
  0
ARC
  8
3
  6
CONTINUOUS
 62
3
 10
7.23646795275591
 20
9.05512409448819
 30
0.0
 40
0.108267716535433
 50
179.999999989709
 51
270.999999999971
  0
LINE
  8
3
  6
CONTINUOUS
 62
3
 10
3.99029236220472
 20
6.78622346456693
 30
0.0
 11
3.99029236220472
 21
6.91220771653544
 31
0.0
  0
LINE
  8
3
  6
CONTINUOUS
 62
3
 10
3.99029236220472
 20
6.91220771653544
 30
0.0
 11
3.99029236220472
 21
6.97519984251969
 31
0.0
  0
ARC
  8
3
  6
CONTINUOUS
 62
3
 10
2.68726051181102
 20
7.23504236220472
 30
0.0
 40
0.0885826771653535
 50
179.999999989709
 51
324.99999999997
  0
ARC
  8
3
  6
CONTINUOUS
 62
3
 10
2.68726051182232
 20
6.52638094488786
 30
0.0
 40
0.0885826771560396
 50
359.999999985849
 51
80.9999999858493
  0
ARC
  8
3
  6
CONTINUOUS
 62
3
 10
2.68726051182232
 20
5.53819196850991
 30
0.0
 40
0.0885826771560401
 50
359.999999985848
 51
80.999999985849
  0
ARC
  8
3
  6
CONTINUOUS
 62
3
 10
2.68726051182232
 20
4.82953055118707
 30
0.0
 40
0.0885826771560401
 50
359.999999985848
 51
80.999999985849
  0
ARC
  8
3
  6
CONTINUOUS
 62
3
 10
2.68726051182232
 20
3.84134157480912
 30
0.0
 40
0.0885826771560401
 50
359.999999985848
 51
80.999999985849
  0
ARC
  8
3
  6
CONTINUOUS
 62
3
 10
2.68726051182232
 20
3.13268015748629
 30
0.0
 40
0.0885826771560401
 50
359.999999985848
 51
80.999999985849
  0
LINE
  8
3
  6
CONTINUOUS
 62
3
 10
3.80131598425197
 20
3.58149905511811
 30
0.0
 11
3.80131598425197
 21
3.44501611548556
 31
0.0
  0
LINE
  8
3
  6
CONTINUOUS
 62
3
 10
3.80131598425197
 20
3.44501611548556
 30
0.0
 11
3.80131598425197
 21
3.39252267716535
 31
0.0
  0
LINE
  8
3
  6
CONTINUOUS
 62
3
 10
3.80131598425197
 20
5.08937307086614
 30
0.0
 11
3.93779892388451
 21
5.08937307086614
 31
0.0
  0
LINE
  8
3
  6
CONTINUOUS
 62
3
 10
3.93779892388451
 20
5.08937307086614
 30
0.0
 11
3.99029236220472
 21
5.08937307086614
 31
0.0
  0
ARC
  8
3
  6
CONTINUOUS
 62
3
 10
1.26521062992126
 20
8.07361952755905
 30
0.0
 40
0.108267716535433
 50
179.999999989709
 51
288.99999999997
  0
ARC
  8
3
  6
CONTINUOUS
 62
3
 10
2.24663645667424
 20
1.31496062992369
 30
0.0
 40
0.10826771652405
 50
98.999999970416
 51
179.999999990997
  0
ARC
  8
3
  6
CONTINUOUS
 62
3
 10
8.21797251968504
 20
2.29646519685039
 30
0.0
 40
0.108267716535434
 50
179.999999989709
 51
216.99999999997
  0
ARC
  8
3
  6
CONTINUOUS
 62
3
 10
8.21797251968829
 20
2.29646519684067
 30
0.0
 40
0.108267716532181
 50
216.999999994825
 51
5.14383475301859E-9
  0
LINE
  8
3
  6
CONTINUOUS
 62
3
 10
7.82701913385827
 20
9.37008472440945
 30
0.0
 11
7.82701913385827
 21
8.66417070866142
 31
0.0
  0
LINE
  8
3
  6
CONTINUOUS
 62
3
 10
1.65616401574803
 20
8.66417070866142
 30
0.0
 11
1.65616401574803
 21
9.37008472440945
 31
0.0
  0
LINE
  8
0
  6
CONTINUOUS
 62
0
 10
4.5142642111248
 20
9.52008472440945
 30
0.0
 11
4.5642642111248
 21
9.52008472440945
 31
0.0
  0
LINE
  8
2
  6
CONTINUOUS
 62
2
 10
4.5642642111248
 20
9.37008472440945
 30
0.0
 11
4.5642642111248
 21
9.52008472440945
 31
0.0
  0
LINE
  8
2
  6
CONTINUOUS
 62
2
 10
4.5142642111248
 20
9.37008472440945
 30
0.0
 11
4.5142642111248
 21
9.52008472440945
 31
0.0
  0
LINE
  8
0
  6
CONTINUOUS
 62
0
 10
13.4058519843316
 20
9.52008472440945
 30
0.0
 11
13.4558519843317
 21
9.52008472440945
 31
0.0
  0
LINE
  8
2
  6
CONTINUOUS
 62
2
 10
13.4558519843317
 20
9.37008472440945
 30
0.0
 11
13.4558519843317
 21
9.52008472440945
 31
0.0
  0
LINE
  8
2
  6
CONTINUOUS
 62
2
 10
13.4058519843316
 20
9.37008472440945
 30
0.0
 11
13.4058519843316
 21
9.52008472440945
 31
0.0
  0
LINE
  8
0
  6
CONTINUOUS
 62
0
 10
13.4637776375773
 20
0.85
 30
0.0
 11
13.5137776375773
 21
0.85
 31
0.0
  0
LINE
  8
2
  6
CONTINUOUS
 62
2
 10
13.5137776375773
 20
1
 30
0.0
 11
13.5137776375773
 21
0.85
 31
0.0
  0
LINE
  8
2
  6
CONTINUOUS
 62
2
 10
13.4637776375773
 20
1
 30
0.0
 11
13.4637776375773
 21
0.85
 31
0.0
  0
LINE
  8
0
  6
CONTINUOUS
 62
0
 10
4.55770845105903
 20
0.85
 30
0.0
 11
4.60770845105903
 21
0.849999999999999
 31
0.0
  0
LINE
  8
2
  6
CONTINUOUS
 62
2
 10
4.60770845105904
 20
1
 30
0.0
 11
4.60770845105903
 21
0.849999999999999
 31
0.0
  0
LINE
  8
2
  6
CONTINUOUS
 62
2
 10
4.55770845105904
 20
1
 30
0.0
 11
4.55770845105903
 21
0.85
 31
0.0
  0
ENDSEC
  0
EOF
