  0
SECTION
  2
HEADER
  9
$ACADVER
  1
AC1003
  9
$EXTMIN
 10
0.856443406767282
 20
8.08266293972857
  9
$EXTMAX
 10
5.60170468405693
 20
0.849798596259079
  9
$INSBASE
 10
3.2290740454121
 20
4.46623076799383
999
Created with OMAX Layout for Windows. (http://www.omax.com) 5/19/2015
  0
ENDSEC
  0
SECTION
  2
TABLES
  0
TABLE
  2
LAYER
 70
    10
  0
LAYER
  2
0
 70
     0
 62
     7
  6
CONTINUOUS
  0
LAYER
  2
1
 70
     0
 62
     7
  6
CONTINUOUS
  0
LAYER
  2
2
 70
     0
 62
     7
  6
CONTINUOUS
  0
LAYER
  2
3
 70
     0
 62
     7
  6
CONTINUOUS
  0
LAYER
  2
4
 70
     0
 62
     7
  6
CONTINUOUS
  0
LAYER
  2
5
 70
     0
 62
     7
  6
CONTINUOUS
  0
LAYER
  2
6
 70
     0
 62
     7
  6
CONTINUOUS
  0
LAYER
  2
7
 70
     0
 62
     7
  6
CONTINUOUS
  0
LAYER
  2
8
 70
     0
 62
     7
  6
CONTINUOUS
  0
LAYER
  2
9
 70
     0
 62
     7
  6
CONTINUOUS
  0
LAYER
  2
10
 70
     0
 62
     7
  6
CONTINUOUS
  0
LAYER
  2
11
 70
     0
 62
     7
  6
CONTINUOUS
  0
LAYER
  2
12
 70
     0
 62
     7
  6
CONTINUOUS
  0
LAYER
  2
13
 70
     0
 62
     7
  6
CONTINUOUS
  0
LAYER
  2
14
 70
     0
 62
     7
  6
CONTINUOUS
  0
LAYER
  2
15
 70
     0
 62
     7
  6
CONTINUOUS
  0
LAYER
  2
16
 70
     0
 62
     7
  6
CONTINUOUS
  0
LAYER
  2
17
 70
     0
 62
     7
  6
CONTINUOUS
  0
LAYER
  2
18
 70
     0
 62
     7
  6
CONTINUOUS
  0
LAYER
  2
19
 70
     0
 62
     7
  6
CONTINUOUS
  0
LAYER
  2
20
 70
     0
 62
     7
  6
CONTINUOUS
  0
LAYER
  2
21
 70
     0
 62
     7
  6
CONTINUOUS
  0
LAYER
  2
22
 70
     0
 62
     7
  6
CONTINUOUS
  0
LAYER
  2
23
 70
     0
 62
     7
  6
CONTINUOUS
  0
LAYER
  2
24
 70
     0
 62
     7
  6
CONTINUOUS
  0
LAYER
  2
25
 70
     0
 62
     7
  6
CONTINUOUS
  0
LAYER
  2
26
 70
     0
 62
     7
  6
CONTINUOUS
  0
LAYER
  2
27
 70
     0
 62
     7
  6
CONTINUOUS
  0
LAYER
  2
28
 70
     0
 62
     7
  6
CONTINUOUS
  0
LAYER
  2
29
 70
     0
 62
     7
  6
CONTINUOUS
  0
LAYER
  2
30
 70
     0
 62
     7
  6
CONTINUOUS
  0
LAYER
  2
31
 70
     0
 62
     7
  6
CONTINUOUS
  0
ENDTAB
  0
ENDSEC
  0
SECTION
  2
ENTITIES
  0
LINE
  8
5
  6
CONTINUOUS
 62
5
 10
1.00480581409888
 20
2.10216080097944
 30
0.0
 11
1.00480581410242
 21
1.75255450178099
 31
0.0
  0
LINE
  8
5
  6
CONTINUOUS
 62
5
 10
1.60323101095457
 20
1.67381434428653
 30
0.0
 11
1.60323101095457
 21
1.50688521042826
 31
0.0
  0
LINE
  8
5
  6
CONTINUOUS
 62
5
 10
1.60323101095457
 20
1.50688521042826
 30
0.0
 11
1.08354597158449
 21
1.50688521042296
 31
0.0
  0
LINE
  8
5
  6
CONTINUOUS
 62
5
 10
1.08354597157036
 20
1.6738143442883
 30
0.0
 11
1.60323101095457
 21
1.67381434428653
 31
0.0
  0
LINE
  8
5
  6
CONTINUOUS
 62
5
 10
3.08817935739713
 20
0.999798596260343
 30
0.0
 11
2.42170532627951
 21
0.999798596259167
 31
0.0
  0
LINE
  8
5
  6
CONTINUOUS
 62
5
 10
2.37170532627951
 20
0.999798596259079
 30
0.0
 11
1.08354597157036
 21
0.999798596256808
 31
0.0
  0
LINE
  8
5
  6
CONTINUOUS
 62
5
 10
3.16691951488628
 20
2.1021608009653
 30
0.0
 11
3.16691951489689
 21
1.07853875372121
 31
0.0
  0
LINE
  8
5
  6
CONTINUOUS
 62
5
 10
1.0835459715845
 20
2.18090095845446
 30
0.0
 11
2.33032962872241
 21
2.18090095846105
 31
0.0
  0
LINE
  8
5
  6
CONTINUOUS
 62
5
 10
2.38032962872241
 20
2.18090095846132
 30
0.0
 11
3.08817935741127
 21
2.18090095846506
 31
0.0
  0
ARC
  8
5
  6
CONTINUOUS
 62
5
 10
3.08817935740597
 20
2.10216080098475
 30
0.0
 40
0.0787401574803126
 50
359.999999985852
 51
89.9999999961421
  0
ARC
  8
5
  6
CONTINUOUS
 62
5
 10
1.2201601448307
 20
1.98405056473476
 30
0.0
 40
0.0669291338359006
 50
260.999999960892
 51
1.04347574378361E-8
  0
ARC
  8
5
  6
CONTINUOUS
 62
5
 10
1.22016014480984
 20
1.98405056474996
 30
0.0
 40
0.0669291338567651
 50
359.999999997427
 51
179.999999981992
  0
ARC
  8
5
  6
CONTINUOUS
 62
5
 10
1.22016014480833
 20
1.19664898995282
 30
0.0
 40
0.0669291338582676
 50
179.999999997425
 51
359.999999992282
  0
ARC
  8
5
  6
CONTINUOUS
 62
5
 10
1.22016014480894
 20
1.19664898995906
 30
0.0
 40
0.0669291338576584
 50
359.999999986939
 51
171.000000002768
  0
ARC
  8
5
  6
CONTINUOUS
 62
5
 10
2.48188014480833
 20
1.92499544664573
 30
0.0
 40
0.0669291338582676
 50
179.999999997425
 51
359.999999992283
  0
ARC
  8
5
  6
CONTINUOUS
 62
5
 10
2.4818801448063
 20
1.92499544665815
 30
0.0
 40
0.0669291338562338
 50
44.9999999919364
 51
180.000000008061
  0
ARC
  8
5
  6
CONTINUOUS
 62
5
 10
1.08354597157213
 20
2.10216080098121
 30
0.0
 40
0.0787401574732446
 50
89.9999999909958
 51
180.000000001286
  0
ARC
  8
5
  6
CONTINUOUS
 62
5
 10
1.08354597156948
 20
1.07853875372209
 30
0.0
 40
0.0787401574652875
 50
179.999999990351
 51
270.000000000641
  0
ARC
  8
5
  6
CONTINUOUS
 62
5
 10
1.08354597157477
 20
1.42814505295237
 30
0.0
 40
0.0787401574705901
 50
89.9999999929266
 51
180.000000003217
  0
ARC
  8
5
  6
CONTINUOUS
 62
5
 10
1.08354597157566
 20
1.75255450176154
 30
0.0
 40
0.0787401574732444
 50
179.999999985851
 51
269.999999996141
  0
ARC
  8
5
  6
CONTINUOUS
 62
5
 10
3.08817935742364
 20
1.07853875373359
 30
0.0
 40
0.0787401574732439
 50
269.999999980703
 51
359.999999990993
  0
ARC
  8
5
  6
CONTINUOUS
 62
5
 10
2.48188014478559
 20
1.59034977737757
 30
0.0
 40
0.177165354325321
 50
229.485765773578
 51
49.4857657619907
  0
ARC
  8
5
  6
CONTINUOUS
 62
5
 10
2.48188014480767
 20
1.25570410806908
 30
0.0
 40
0.0669291338597857
 50
269.999999994133
 51
44.9999999966403
  0
ARC
  8
5
  6
CONTINUOUS
 62
5
 10
2.48188014480531
 20
1.2557041080821
 30
0.0
 40
0.0669291338522421
 50
44.9999999873248
 51
180.00000000345
  0
ARC
  8
5
  6
CONTINUOUS
 62
5
 10
2.48188014480533
 20
1.25570410806155
 30
0.0
 40
0.0669291338522575
 50
179.999999985852
 51
269.999999996141
  0
LINE
  8
5
  6
CONTINUOUS
 62
5
 10
1.00480581409887
 20
2.86608554826496
 30
0.0
 11
1.00480581410242
 21
2.51647924906651
 31
0.0
  0
LINE
  8
5
  6
CONTINUOUS
 62
5
 10
1.00480581409888
 20
3.54010129629646
 30
0.0
 11
1.00480581410242
 21
3.190494997098
 31
0.0
  0
LINE
  8
5
  6
CONTINUOUS
 62
5
 10
1.60323101095457
 20
3.11175483960354
 30
0.0
 11
1.60323101095457
 21
2.94482570574527
 31
0.0
  0
LINE
  8
5
  6
CONTINUOUS
 62
5
 10
1.60323101095457
 20
2.94482570574527
 30
0.0
 11
1.08354597158449
 21
2.94482570573998
 31
0.0
  0
LINE
  8
5
  6
CONTINUOUS
 62
5
 10
1.08354597157036
 20
3.11175483960531
 30
0.0
 11
1.60323101095457
 21
3.11175483960354
 31
0.0
  0
LINE
  8
5
  6
CONTINUOUS
 62
5
 10
3.08817935739713
 20
2.43773909157735
 30
0.0
 11
1.98312293216963
 21
2.4377390915754
 31
0.0
  0
LINE
  8
5
  6
CONTINUOUS
 62
5
 10
1.93312293216963
 20
2.43773909157532
 30
0.0
 11
1.08354597157036
 21
2.43773909157382
 31
0.0
  0
LINE
  8
5
  6
CONTINUOUS
 62
5
 10
3.16691951488628
 20
3.54010129628231
 30
0.0
 11
3.16691951489689
 21
2.51647924903822
 31
0.0
  0
LINE
  8
5
  6
CONTINUOUS
 62
5
 10
1.0835459715845
 20
3.61884145377147
 30
0.0
 11
1.89655302869446
 21
3.61884145377577
 31
0.0
  0
LINE
  8
5
  6
CONTINUOUS
 62
5
 10
1.94655302869446
 20
3.61884145377603
 30
0.0
 11
3.08817935741127
 21
3.61884145378207
 31
0.0
  0
ARC
  8
5
  6
CONTINUOUS
 62
5
 10
3.08817935740597
 20
3.54010129630176
 30
0.0
 40
0.0787401574803135
 50
359.999999985851
 51
89.9999999961414
  0
ARC
  8
5
  6
CONTINUOUS
 62
5
 10
1.2201601448307
 20
3.42199106005177
 30
0.0
 40
0.0669291338359002
 50
260.999999960891
 51
1.04343757712744E-8
  0
ARC
  8
5
  6
CONTINUOUS
 62
5
 10
1.22016014480984
 20
3.42199106006697
 30
0.0
 40
0.0669291338567651
 50
359.999999997426
 51
179.999999981991
  0
ARC
  8
5
  6
CONTINUOUS
 62
5
 10
1.22016014480833
 20
2.63458948526983
 30
0.0
 40
0.0669291338582677
 50
179.999999997425
 51
359.999999992282
  0
ARC
  8
5
  6
CONTINUOUS
 62
5
 10
1.22016014480894
 20
2.63458948527607
 30
0.0
 40
0.0669291338576585
 50
359.99999998694
 51
171.000000002768
  0
ARC
  8
5
  6
CONTINUOUS
 62
5
 10
2.48188014480833
 20
3.36293594196274
 30
0.0
 40
0.0669291338582676
 50
179.999999997426
 51
359.999999992283
  0
ARC
  8
5
  6
CONTINUOUS
 62
5
 10
2.4818801448063
 20
3.36293594197516
 30
0.0
 40
0.0669291338562341
 50
44.999999991937
 51
180.000000008061
  0
ARC
  8
5
  6
CONTINUOUS
 62
5
 10
1.08354597157213
 20
3.54010129629822
 30
0.0
 40
0.0787401574732448
 50
89.9999999909961
 51
180.000000001286
  0
ARC
  8
5
  6
CONTINUOUS
 62
5
 10
1.08354597157212
 20
2.86608554826673
 30
0.0
 40
0.0787401574732445
 50
89.9999999909958
 51
180.000000001286
  0
ARC
  8
5
  6
CONTINUOUS
 62
5
 10
1.08354597157566
 20
3.19049499707855
 30
0.0
 40
0.0787401574732445
 50
179.999999985851
 51
269.999999996141
  0
ARC
  8
5
  6
CONTINUOUS
 62
5
 10
3.08817935742364
 20
2.5164792490506
 30
0.0
 40
0.0787401574732447
 50
269.999999980704
 51
359.999999990994
  0
ARC
  8
5
  6
CONTINUOUS
 62
5
 10
2.48188014478559
 20
3.02829027269458
 30
0.0
 40
0.177165354325321
 50
229.485765773578
 51
49.485765761991
  0
ARC
  8
5
  6
CONTINUOUS
 62
5
 10
2.48188014480767
 20
2.6936446033861
 30
0.0
 40
0.0669291338597857
 50
269.999999994133
 51
44.9999999966403
  0
ARC
  8
5
  6
CONTINUOUS
 62
5
 10
2.48188014480531
 20
2.69364460339912
 30
0.0
 40
0.0669291338522423
 50
44.9999999873251
 51
180.00000000345
  0
ARC
  8
5
  6
CONTINUOUS
 62
5
 10
2.48188014480533
 20
2.69364460337857
 30
0.0
 40
0.0669291338522569
 50
179.999999985852
 51
269.999999996142
  0
LINE
  8
5
  6
CONTINUOUS
 62
5
 10
1.00480581409887
 20
4.30402604358198
 30
0.0
 11
1.00480581410242
 21
3.95441974438352
 31
0.0
  0
LINE
  8
5
  6
CONTINUOUS
 62
5
 10
1.00480581409888
 20
4.97804179161346
 30
0.0
 11
1.00480581410242
 21
4.62843549241502
 31
0.0
  0
LINE
  8
5
  6
CONTINUOUS
 62
5
 10
1.60323101095457
 20
4.54969533492055
 30
0.0
 11
1.60323101095457
 21
4.38276620106228
 31
0.0
  0
LINE
  8
5
  6
CONTINUOUS
 62
5
 10
1.60323101095457
 20
4.38276620106228
 30
0.0
 11
1.08354597158449
 21
4.38276620105699
 31
0.0
  0
LINE
  8
5
  6
CONTINUOUS
 62
5
 10
1.08354597157036
 20
4.54969533492233
 30
0.0
 11
1.60323101095457
 21
4.54969533492055
 31
0.0
  0
LINE
  8
5
  6
CONTINUOUS
 62
5
 10
3.08817935739713
 20
3.87567958689436
 30
0.0
 11
2.37178448894678
 21
3.8756795868931
 31
0.0
  0
LINE
  8
5
  6
CONTINUOUS
 62
5
 10
2.32178448894678
 20
3.87567958689301
 30
0.0
 11
1.08354597157036
 21
3.87567958689083
 31
0.0
  0
LINE
  8
5
  6
CONTINUOUS
 62
5
 10
3.16691951488628
 20
4.97804179159932
 30
0.0
 11
3.16691951489689
 21
3.95441974435523
 31
0.0
  0
LINE
  8
5
  6
CONTINUOUS
 62
5
 10
1.0835459715845
 20
5.05678194908848
 30
0.0
 11
2.30153537179245
 21
5.05678194909492
 31
0.0
  0
LINE
  8
5
  6
CONTINUOUS
 62
5
 10
2.35153537179245
 20
5.05678194909518
 30
0.0
 11
3.08817935741127
 21
5.05678194909908
 31
0.0
  0
ARC
  8
5
  6
CONTINUOUS
 62
5
 10
3.08817935740597
 20
4.97804179161877
 30
0.0
 40
0.0787401574803129
 50
359.999999985852
 51
89.9999999961416
  0
ARC
  8
5
  6
CONTINUOUS
 62
5
 10
1.2201601448307
 20
4.85993155536878
 30
0.0
 40
0.0669291338359007
 50
260.999999960892
 51
1.04352917710226E-8
  0
ARC
  8
5
  6
CONTINUOUS
 62
5
 10
1.22016014480983
 20
4.85993155538398
 30
0.0
 40
0.066929133856765
 50
359.999999997427
 51
179.999999981992
  0
ARC
  8
5
  6
CONTINUOUS
 62
5
 10
1.22016014480833
 20
4.07252998058684
 30
0.0
 40
0.0669291338582675
 50
179.999999997426
 51
359.999999992283
  0
ARC
  8
5
  6
CONTINUOUS
 62
5
 10
1.22016014480894
 20
4.07252998059308
 30
0.0
 40
0.0669291338576584
 50
359.999999986941
 51
171.000000002768
  0
ARC
  8
5
  6
CONTINUOUS
 62
5
 10
2.48188014480833
 20
4.80087643727976
 30
0.0
 40
0.0669291338582676
 50
179.999999997427
 51
359.999999992282
  0
ARC
  8
5
  6
CONTINUOUS
 62
5
 10
2.48188014482815
 20
4.80087643730146
 30
0.0
 40
0.0669291338384528
 50
359.999999973707
 51
99.0000000160013
  0
ARC
  8
5
  6
CONTINUOUS
 62
5
 10
1.08354597157213
 20
4.97804179161523
 30
0.0
 40
0.0787401574732452
 50
89.9999999909962
 51
180.000000001286
  0
ARC
  8
5
  6
CONTINUOUS
 62
5
 10
1.08354597157212
 20
4.30402604358374
 30
0.0
 40
0.0787401574732443
 50
89.9999999909956
 51
180.000000001286
  0
ARC
  8
5
  6
CONTINUOUS
 62
5
 10
1.08354597157566
 20
4.62843549239557
 30
0.0
 40
0.078740157473244
 50
179.999999985851
 51
269.999999996141
  0
ARC
  8
5
  6
CONTINUOUS
 62
5
 10
3.08817935742364
 20
3.95441974436761
 30
0.0
 40
0.0787401574732438
 50
269.999999980705
 51
359.999999990995
  0
ARC
  8
5
  6
CONTINUOUS
 62
5
 10
2.48188014478559
 20
4.4662307680116
 30
0.0
 40
0.17716535432532
 50
229.485765773578
 51
49.4857657619909
  0
ARC
  8
5
  6
CONTINUOUS
 62
5
 10
2.48188014480082
 20
4.13158509869858
 30
0.0
 40
0.0669291338552629
 50
269.999999999999
 51
89.9999999999998
  0
ARC
  8
5
  6
CONTINUOUS
 62
5
 10
2.4818801448021
 20
4.13158509869811
 30
0.0
 40
0.0669291338547906
 50
98.9999999912061
 51
269.999999998908
  0
LINE
  8
5
  6
CONTINUOUS
 62
5
 10
1.00480581409887
 20
5.74196653889898
 30
0.0
 11
1.00480581410242
 21
5.39236023970053
 31
0.0
  0
LINE
  8
5
  6
CONTINUOUS
 62
5
 10
1.00480581409887
 20
6.41598228693048
 30
0.0
 11
1.00480581410242
 21
6.06637598773203
 31
0.0
  0
LINE
  8
5
  6
CONTINUOUS
 62
5
 10
1.60323101095457
 20
5.98763583023757
 30
0.0
 11
1.60323101095457
 21
5.8207066963793
 31
0.0
  0
LINE
  8
5
  6
CONTINUOUS
 62
5
 10
1.60323101095457
 20
5.8207066963793
 30
0.0
 11
1.08354597158449
 21
5.820706696374
 31
0.0
  0
LINE
  8
5
  6
CONTINUOUS
 62
5
 10
1.08354597157036
 20
5.98763583023934
 30
0.0
 11
1.60323101095457
 21
5.98763583023757
 31
0.0
  0
LINE
  8
5
  6
CONTINUOUS
 62
5
 10
3.08817935739713
 20
5.31362008221137
 30
0.0
 11
1.89930508866593
 21
5.31362008220928
 31
0.0
  0
LINE
  8
5
  6
CONTINUOUS
 62
5
 10
1.84930508866593
 20
5.31362008220919
 30
0.0
 11
1.08354597157036
 21
5.31362008220784
 31
0.0
  0
LINE
  8
5
  6
CONTINUOUS
 62
5
 10
3.16691951488628
 20
6.41598228691634
 30
0.0
 11
3.16691951489689
 21
5.39236023967224
 31
0.0
  0
LINE
  8
5
  6
CONTINUOUS
 62
5
 10
1.08354597158449
 20
6.4947224444055
 30
0.0
 11
1.8965530286946
 21
6.4947224444098
 31
0.0
  0
LINE
  8
5
  6
CONTINUOUS
 62
5
 10
1.9465530286946
 20
6.49472244441006
 30
0.0
 11
3.08817935741127
 21
6.4947224444161
 31
0.0
  0
ARC
  8
5
  6
CONTINUOUS
 62
5
 10
3.08817935740597
 20
6.41598228693579
 30
0.0
 40
0.0787401574803129
 50
359.999999985851
 51
89.9999999961419
  0
ARC
  8
5
  6
CONTINUOUS
 62
5
 10
1.2201601448307
 20
6.29787205068579
 30
0.0
 40
0.0669291338359004
 50
260.999999960892
 51
1.04348910211328E-8
  0
ARC
  8
5
  6
CONTINUOUS
 62
5
 10
1.22016014480983
 20
6.29787205070099
 30
0.0
 40
0.066929133856765
 50
359.999999997426
 51
179.999999981993
  0
ARC
  8
5
  6
CONTINUOUS
 62
5
 10
1.22016014481025
 20
5.51047047590302
 30
0.0
 40
0.0669291338563541
 50
188.999999976335
 51
359.999999992996
  0
ARC
  8
5
  6
CONTINUOUS
 62
5
 10
1.22016014480984
 20
5.51047047589785
 30
0.0
 40
0.0669291338567651
 50
359.999999997427
 51
179.999999981992
  0
ARC
  8
5
  6
CONTINUOUS
 62
5
 10
2.48188014480833
 20
6.23881693259677
 30
0.0
 40
0.0669291338582676
 50
179.999999997426
 51
359.999999992283
  0
ARC
  8
5
  6
CONTINUOUS
 62
5
 10
2.4818801448063
 20
6.23881693260919
 30
0.0
 40
0.0669291338562341
 50
44.9999999919381
 51
180.000000008061
  0
ARC
  8
5
  6
CONTINUOUS
 62
5
 10
1.08354597157212
 20
6.41598228693225
 30
0.0
 40
0.0787401574732442
 50
89.999999990996
 51
180.000000001286
  0
ARC
  8
5
  6
CONTINUOUS
 62
5
 10
1.08354597157212
 20
5.74196653890075
 30
0.0
 40
0.0787401574732443
 50
89.9999999909956
 51
180.000000001286
  0
ARC
  8
5
  6
CONTINUOUS
 62
5
 10
1.08354597157566
 20
6.06637598771258
 30
0.0
 40
0.078740157473244
 50
179.999999985851
 51
269.999999996141
  0
ARC
  8
5
  6
CONTINUOUS
 62
5
 10
3.08817935742364
 20
5.39236023968462
 30
0.0
 40
0.0787401574732443
 50
269.999999980704
 51
359.999999990994
  0
ARC
  8
5
  6
CONTINUOUS
 62
5
 10
2.48188014478559
 20
5.90417126332861
 30
0.0
 40
0.17716535432532
 50
229.485765773578
 51
49.4857657619907
  0
ARC
  8
5
  6
CONTINUOUS
 62
5
 10
2.48188014480767
 20
5.56952559402011
 30
0.0
 40
0.0669291338597858
 50
269.999999994133
 51
44.9999999966399
  0
ARC
  8
5
  6
CONTINUOUS
 62
5
 10
2.48188014480531
 20
5.56952559403314
 30
0.0
 40
0.0669291338522422
 50
44.999999987324
 51
180.000000003449
  0
ARC
  8
5
  6
CONTINUOUS
 62
5
 10
2.48188014480533
 20
5.56952559401259
 30
0.0
 40
0.0669291338522577
 50
179.999999985851
 51
269.999999996141
  0
LINE
  8
5
  6
CONTINUOUS
 62
5
 10
1.00480581409887
 20
7.17990703421599
 30
0.0
 11
1.00480581410241
 21
6.83030073501755
 31
0.0
  0
LINE
  8
5
  6
CONTINUOUS
 62
5
 10
1.00480581409888
 20
7.8539227822475
 30
0.0
 11
1.00480581410242
 21
7.50431648304904
 31
0.0
  0
LINE
  8
5
  6
CONTINUOUS
 62
5
 10
1.60323101095457
 20
7.42557632555458
 30
0.0
 11
1.60323101095457
 21
7.25864719169631
 31
0.0
  0
LINE
  8
5
  6
CONTINUOUS
 62
5
 10
1.60323101095457
 20
7.25864719169631
 30
0.0
 11
1.08354597158449
 21
7.25864719169101
 31
0.0
  0
LINE
  8
5
  6
CONTINUOUS
 62
5
 10
1.08354597157036
 20
7.42557632555635
 30
0.0
 11
1.60323101095457
 21
7.42557632555458
 31
0.0
  0
LINE
  8
5
  6
CONTINUOUS
 62
5
 10
3.08817935739713
 20
6.75156057752839
 30
0.0
 11
2.25703949173572
 21
6.75156057752693
 31
0.0
  0
LINE
  8
5
  6
CONTINUOUS
 62
5
 10
2.20703949173572
 20
6.75156057752684
 30
0.0
 11
1.08354597157035
 21
6.75156057752486
 31
0.0
  0
LINE
  8
5
  6
CONTINUOUS
 62
5
 10
3.16691951488628
 20
7.85392278223336
 30
0.0
 11
3.16691951489689
 21
6.83030073498926
 31
0.0
  0
LINE
  8
5
  6
CONTINUOUS
 62
5
 10
1.0835459715845
 20
7.93266293972251
 30
0.0
 11
2.18004066886294
 21
7.93266293972831
 31
0.0
  0
LINE
  8
5
  6
CONTINUOUS
 62
5
 10
2.23004066886294
 20
7.93266293972857
 30
0.0
 11
3.08817935741127
 21
7.93266293973311
 31
0.0
  0
ARC
  8
5
  6
CONTINUOUS
 62
5
 10
3.08817935740597
 20
7.8539227822528
 30
0.0
 40
0.0787401574803129
 50
359.999999985852
 51
89.9999999961416
  0
ARC
  8
5
  6
CONTINUOUS
 62
5
 10
1.2201601448307
 20
7.73581254600281
 30
0.0
 40
0.0669291338359003
 50
260.999999960891
 51
1.04357497708968E-8
  0
ARC
  8
5
  6
CONTINUOUS
 62
5
 10
1.22016014480983
 20
7.73581254601801
 30
0.0
 40
0.0669291338567654
 50
359.999999997427
 51
179.999999981992
  0
ARC
  8
5
  6
CONTINUOUS
 62
5
 10
1.22016014480833
 20
6.94841097122087
 30
0.0
 40
0.0669291338582676
 50
179.999999997426
 51
359.999999992283
  0
ARC
  8
5
  6
CONTINUOUS
 62
5
 10
1.22016014480894
 20
6.94841097122711
 30
0.0
 40
0.0669291338576585
 50
359.999999986941
 51
171.000000002768
  0
ARC
  8
5
  6
CONTINUOUS
 62
5
 10
2.4818801448307
 20
7.67675742789257
 30
0.0
 40
0.0669291338359009
 50
260.999999960892
 51
1.04343566879463E-8
  0
ARC
  8
5
  6
CONTINUOUS
 62
5
 10
2.48188014480983
 20
7.67675742790777
 30
0.0
 40
0.066929133856765
 50
359.999999997428
 51
179.999999981992
  0
ARC
  8
5
  6
CONTINUOUS
 62
5
 10
1.08354597157213
 20
7.85392278224926
 30
0.0
 40
0.0787401574732453
 50
89.9999999909961
 51
180.000000001286
  0
ARC
  8
5
  6
CONTINUOUS
 62
5
 10
1.08354597157212
 20
7.17990703421776
 30
0.0
 40
0.0787401574732443
 50
89.9999999909956
 51
180.000000001286
  0
ARC
  8
5
  6
CONTINUOUS
 62
5
 10
1.08354597157566
 20
7.50431648302959
 30
0.0
 40
0.078740157473244
 50
179.999999985851
 51
269.999999996141
  0
ARC
  8
5
  6
CONTINUOUS
 62
5
 10
3.08817935742364
 20
6.83030073500164
 30
0.0
 40
0.0787401574732443
 50
269.999999980704
 51
359.999999990994
  0
ARC
  8
5
  6
CONTINUOUS
 62
5
 10
2.48188014478559
 20
7.34211175864562
 30
0.0
 40
0.17716535432532
 50
229.485765773578
 51
49.485765761991
  0
ARC
  8
5
  6
CONTINUOUS
 62
5
 10
2.4818801447661
 20
7.34211175861773
 30
0.0
 40
0.177165354291455
 50
143.537189184807
 51
229.485765772511
  0
ARC
  8
5
  6
CONTINUOUS
 62
5
 10
2.48188014480833
 20
7.0074660893311
 30
0.0
 40
0.0669291338582678
 50
179.999999997426
 51
359.999999992283
  0
ARC
  8
5
  6
CONTINUOUS
 62
5
 10
2.48188014482815
 20
7.0074660893528
 30
0.0
 40
0.0669291338384534
 50
359.999999973707
 51
99.000000016001
  0
LINE
  8
5
  6
CONTINUOUS
 62
5
 10
5.60170468404632
 20
2.11196689361546
 30
0.0
 11
5.60170468405693
 21
1.08834484637137
 31
0.0
  0
LINE
  8
5
  6
CONTINUOUS
 62
5
 10
5.52296452657131
 20
2.19070705111522
 30
0.0
 11
4.44083936708804
 21
2.1907070511095
 31
0.0
  0
LINE
  8
5
  6
CONTINUOUS
 62
5
 10
4.39083936708804
 20
2.19070705110923
 30
0.0
 11
3.51833114074453
 21
2.19070705110462
 31
0.0
  0
LINE
  8
5
  6
CONTINUOUS
 62
5
 10
3.43959098325891
 20
2.1119668936296
 30
0.0
 11
3.43959098326245
 21
1.08834484639965
 31
0.0
  0
LINE
  8
5
  6
CONTINUOUS
 62
5
 10
3.51833114073039
 20
1.00960468890696
 30
0.0
 11
4.43221506464502
 21
1.00960468890857
 31
0.0
  0
LINE
  8
5
  6
CONTINUOUS
 62
5
 10
4.48221506464502
 20
1.00960468890866
 30
0.0
 11
5.52296452655717
 21
1.0096046889105
 31
0.0
  0
ARC
  8
5
  6
CONTINUOUS
 62
5
 10
5.52296452656601
 20
2.11196689363491
 30
0.0
 40
0.0787401574803149
 50
359.999999985848
 51
89.9999999961408
  0
ARC
  8
5
  6
CONTINUOUS
 62
5
 10
5.52296452658369
 20
1.08834484638375
 30
0.0
 40
0.0787401574732436
 50
269.999999980703
 51
359.999999990994
  0
ARC
  8
5
  6
CONTINUOUS
 62
5
 10
5.22768893601562
 20
1.95448657866297
 30
0.0
 40
0.0669291338582676
 50
179.999999994855
 51
359.999999994855
  0
ARC
  8
5
  6
CONTINUOUS
 62
5
 10
5.22768893601839
 20
1.954486578673
 30
0.0
 40
0.0669291338554969
 50
359.999999986268
 51
144.000000003442
  0
ARC
  8
5
  6
CONTINUOUS
 62
5
 10
5.22768893601562
 20
1.24582516134013
 30
0.0
 40
0.0669291338582676
 50
179.999999994854
 51
359.999999994854
  0
ARC
  8
5
  6
CONTINUOUS
 62
5
 10
5.22768893601359
 20
1.24582516135556
 30
0.0
 40
0.066929133856234
 50
44.9999999919372
 51
180.000000008061
  0
ARC
  8
5
  6
CONTINUOUS
 62
5
 10
4.01439413287276
 20
1.60015587000231
 30
0.0
 40
0.177165354325493
 50
253.622532269783
 51
49.4857657745812
  0
ARC
  8
5
  6
CONTINUOUS
 62
5
 10
4.01439413284551
 20
1.60015587004722
 30
0.0
 40
0.177165354309046
 50
49.4857657584452
 51
180.000000002538
  0
ARC
  8
5
  6
CONTINUOUS
 62
5
 10
3.51833114073216
 20
2.11196689363137
 30
0.0
 40
0.0787401574732445
 50
89.9999999909958
 51
180.000000001286
  0
ARC
  8
5
  6
CONTINUOUS
 62
5
 10
4.01439413285249
 20
1.26551020071396
 30
0.0
 40
0.0669291338560138
 50
269.999999999999
 51
89.9999999999998
  0
ARC
  8
5
  6
CONTINUOUS
 62
5
 10
4.01439413287052
 20
1.26551020071396
 30
0.0
 40
0.0669291338560138
 50
89.9999999999998
 51
270
  0
ARC
  8
5
  6
CONTINUOUS
 62
5
 10
4.01439413285249
 20
1.93480153929664
 30
0.0
 40
0.0669291338560138
 50
269.999999999999
 51
89.9999999999998
  0
ARC
  8
5
  6
CONTINUOUS
 62
5
 10
4.01439413287052
 20
1.93480153929664
 30
0.0
 40
0.0669291338560138
 50
89.9999999999998
 51
270
  0
LINE
  8
5
  6
CONTINUOUS
 62
5
 10
3.44296691878178
 20
3.53886335172126
 30
0.0
 11
3.44296691878178
 21
2.94906221462454
 31
0.0
  0
LINE
  8
5
  6
CONTINUOUS
 62
5
 10
3.44296691878532
 20
2.89906221462454
 30
0.0
 11
3.44296691878532
 21
2.5152413044913
 31
0.0
  0
LINE
  8
5
  6
CONTINUOUS
 62
5
 10
3.87367558020972
 20
2.51524130446302
 30
0.0
 11
3.87367558020972
 21
2.91561249364756
 31
0.0
  0
LINE
  8
5
  6
CONTINUOUS
 62
5
 10
3.87367558019911
 20
2.96561249364756
 30
0.0
 11
3.87367558019911
 21
3.53886335170711
 31
0.0
  0
LINE
  8
5
  6
CONTINUOUS
 62
5
 10
3.7949354227241
 20
3.61760350920687
 30
0.0
 11
3.5217070762674
 21
3.61760350919627
 31
0.0
  0
ARC
  8
5
  6
CONTINUOUS
 62
5
 10
3.65832124949575
 20
3.42075311548576
 30
0.0
 40
0.0669291338582676
 50
2.57241990414897E-9
 51
179.999999987135
  0
ARC
  8
5
  6
CONTINUOUS
 62
5
 10
3.65832124949575
 20
2.63335154070214
 30
0.0
 40
0.0669291338582676
 50
89.9999999999998
 51
270
  0
ARC
  8
5
  6
CONTINUOUS
 62
5
 10
3.65832124949728
 20
2.63335154070191
 30
0.0
 40
0.0669291338585021
 50
278.999999978107
 51
90.0000000013089
  0
ARC
  8
5
  6
CONTINUOUS
 62
5
 10
3.52170707625503
 20
3.53886335172302
 30
0.0
 40
0.0787401574732441
 50
89.9999999909954
 51
180.000000001286
  0
ARC
  8
5
  6
CONTINUOUS
 62
5
 10
3.52170707626651
 20
2.51524130447804
 30
0.0
 40
0.0787401574811961
 50
179.999999990355
 51
270.000000000644
  0
ARC
  8
5
  6
CONTINUOUS
 62
5
 10
3.7949354227188
 20
3.53886335172656
 30
0.0
 40
0.0787401574803162
 50
359.999999985847
 51
89.9999999961398
  0
ARC
  8
5
  6
CONTINUOUS
 62
5
 10
3.79493542274089
 20
2.51524130446568
 30
0.0
 40
0.0787401574688261
 50
269.999999987773
 51
359.999999998065
  0
LINE
  8
9
  6
CONTINUOUS
 62
9
 10
0.856443406767282
 20
1.20573410792348
 30
0.0
 11
1.00480581410419
 21
1.21221175049311
 31
0.0
  0
LINE
  8
9
  6
CONTINUOUS
 62
9
 10
0.95510316508088
 20
1.2143818150234
 30
0.0
 11
1.00480581410419
 21
1.21221175049311
 31
0.0
  0
LINE
  8
9
  6
CONTINUOUS
 62
9
 10
1.21930288341153
 20
1.19968495814216
 30
0.0
 11
1.1540550196511
 21
1.20711901320649
 31
0.0
  0
LINE
  8
9
  6
CONTINUOUS
 62
9
 10
1.20280627370354
 20
1.19720045845726
 30
0.0
 11
1.1540550196511
 21
1.20711901320649
 31
0.0
  0
LINE
  8
9
  6
CONTINUOUS
 62
9
 10
1.2171241766178
 20
1.98319330336425
 30
0.0
 11
1.20969012155023
 21
1.91794543960418
 31
0.0
  0
LINE
  8
9
  6
CONTINUOUS
 62
9
 10
1.21960867630188
 20
1.96669669365614
 30
0.0
 11
1.20969012155023
 21
1.91794543960418
 31
0.0
  0
LINE
  8
9
  6
CONTINUOUS
 62
9
 10
0.955298956101814
 20
2.32894195190982
 30
0.0
 11
1.03726366824261
 21
2.45277712352007
 31
0.0
  0
LINE
  8
9
  6
CONTINUOUS
 62
9
 10
1.00629356505167
 20
2.41384236773116
 30
0.0
 11
1.03726366824261
 21
2.45277712352007
 31
0.0
  0
LINE
  8
9
  6
CONTINUOUS
 62
9
 10
1.21930288341153
 20
2.63762545345917
 30
0.0
 11
1.1540550196511
 21
2.6450595085235
 31
0.0
  0
LINE
  8
9
  6
CONTINUOUS
 62
9
 10
1.20280627370354
 20
2.63514095377427
 30
0.0
 11
1.1540550196511
 21
2.6450595085235
 31
0.0
  0
LINE
  8
9
  6
CONTINUOUS
 62
9
 10
1.2171241766178
 20
3.42113379868126
 30
0.0
 11
1.20969012155023
 21
3.35588593492119
 31
0.0
  0
LINE
  8
9
  6
CONTINUOUS
 62
9
 10
1.21960867630188
 20
3.40463718897315
 30
0.0
 11
1.20969012155023
 21
3.35588593492119
 31
0.0
  0
LINE
  8
9
  6
CONTINUOUS
 62
9
 10
0.927540592922244
 20
3.78925359581475
 30
0.0
 11
1.02786827226796
 21
3.89874204507386
 31
0.0
  0
LINE
  8
9
  6
CONTINUOUS
 62
9
 10
0.991188724745924
 20
3.86513143226215
 30
0.0
 11
1.02786827226796
 21
3.89874204507386
 31
0.0
  0
LINE
  8
9
  6
CONTINUOUS
 62
9
 10
1.21930288341153
 20
4.07556594877618
 30
0.0
 11
1.1540550196511
 21
4.08300000384051
 31
0.0
  0
LINE
  8
9
  6
CONTINUOUS
 62
9
 10
1.20280627370354
 20
4.07308144909128
 30
0.0
 11
1.1540550196511
 21
4.08300000384051
 31
0.0
  0
LINE
  8
9
  6
CONTINUOUS
 62
9
 10
1.2171241766178
 20
4.85907429399827
 30
0.0
 11
1.20969012155023
 21
4.7938264302382
 31
0.0
  0
LINE
  8
9
  6
CONTINUOUS
 62
9
 10
1.21960867630188
 20
4.84257768429015
 30
0.0
 11
1.20969012155023
 21
4.7938264302382
 31
0.0
  0
LINE
  8
9
  6
CONTINUOUS
 62
9
 10
0.884136892831199
 20
5.28348621105221
 30
0.0
 11
1.01338797754653
 21
5.35661295625512
 31
0.0
  0
LINE
  8
9
  6
CONTINUOUS
 62
9
 10
0.968117404310773
 20
5.33598196745415
 30
0.0
 11
1.01338797754653
 21
5.35661295625512
 31
0.0
  0
LINE
  8
9
  6
CONTINUOUS
 62
9
 10
1.2184066750081
 20
5.51309294490204
 30
0.0
 11
1.15405501965175
 21
5.50000045266803
 31
0.0
  0
LINE
  8
9
  6
CONTINUOUS
 62
9
 10
1.20348521947332
 20
5.50563231253838
 30
0.0
 11
1.15405501965175
 21
5.50000045266803
 31
0.0
  0
LINE
  8
9
  6
CONTINUOUS
 62
9
 10
1.2171241766178
 20
6.29701478931528
 30
0.0
 11
1.20969012155023
 21
6.23176692555521
 31
0.0
  0
LINE
  8
9
  6
CONTINUOUS
 62
9
 10
1.21960867630188
 20
6.28051817960717
 30
0.0
 11
1.20969012155023
 21
6.23176692555521
 31
0.0
  0
LINE
  8
9
  6
CONTINUOUS
 62
9
 10
0.9552989561018
 20
6.64276343786087
 30
0.0
 11
1.0372636682426
 21
6.76659860947111
 31
0.0
  0
LINE
  8
9
  6
CONTINUOUS
 62
9
 10
1.00629356505165
 20
6.7276638536822
 30
0.0
 11
1.0372636682426
 21
6.76659860947111
 31
0.0
  0
LINE
  8
9
  6
CONTINUOUS
 62
9
 10
1.21930288341153
 20
6.95144693941021
 30
0.0
 11
1.1540550196511
 21
6.95888099447454
 31
0.0
  0
LINE
  8
9
  6
CONTINUOUS
 62
9
 10
1.20280627370354
 20
6.94896243972531
 30
0.0
 11
1.1540550196511
 21
6.95888099447454
 31
0.0
  0
LINE
  8
9
  6
CONTINUOUS
 62
9
 10
1.2171241766178
 20
7.7349552846323
 30
0.0
 11
1.20969012155023
 21
7.66970742087223
 31
0.0
  0
LINE
  8
9
  6
CONTINUOUS
 62
9
 10
1.21960867630188
 20
7.71845867492419
 30
0.0
 11
1.20969012155023
 21
7.66970742087223
 31
0.0
  0
LINE
  8
9
  6
CONTINUOUS
 62
9
 10
2.46256525158555
 20
7.36443897313526
 30
0.0
 11
2.33939618857942
 21
7.44740128796709
 31
0.0
  0
LINE
  8
9
  6
CONTINUOUS
 62
9
 10
2.37807951366037
 20
7.41611770024634
 30
0.0
 11
2.33939618857942
 21
7.44740128796709
 31
0.0
  0
LINE
  8
9
  6
CONTINUOUS
 62
9
 10
2.4788441766178
 20
7.67590016652206
 30
0.0
 11
2.47141012155023
 21
7.61065230276199
 31
0.0
  0
LINE
  8
9
  6
CONTINUOUS
 62
9
 10
2.48132867630188
 20
7.65940355681395
 30
0.0
 11
2.47141012155023
 21
7.61065230276199
 31
0.0
  0
LINE
  8
9
  6
CONTINUOUS
 62
9
 10
2.48450261379927
 20
7.00921955913255
 30
0.0
 11
2.47141012156206
 21
7.07357121448825
 31
0.0
  0
LINE
  8
9
  6
CONTINUOUS
 62
9
 10
2.47704198143487
 20
7.02414101466695
 30
0.0
 11
2.47141012156206
 21
7.07357121448825
 31
0.0
  0
LINE
  8
9
  6
CONTINUOUS
 62
9
 10
2.48484018027551
 20
6.23772597431391
 30
0.0
 11
2.52920618922164
 21
6.28614297701122
 31
0.0
  0
LINE
  8
9
  6
CONTINUOUS
 62
9
 10
2.49252664170708
 20
6.25253236419135
 30
0.0
 11
2.52920618922164
 21
6.28614297701122
 31
0.0
  0
LINE
  8
9
  6
CONTINUOUS
 62
9
 10
2.4996402311778
 20
5.92775407358872
 30
0.0
 11
2.55481029981419
 21
6.06562947854087
 31
0.0
  0
LINE
  8
9
  6
CONTINUOUS
 62
9
 10
2.53237252319984
 20
6.02122667817193
 30
0.0
 11
2.55481029981419
 21
6.06562947854087
 31
0.0
  0
LINE
  8
9
  6
CONTINUOUS
 62
9
 10
2.48484018027551
 20
5.56843463573123
 30
0.0
 11
2.52920618922164
 21
5.61685163842854
 31
0.0
  0
LINE
  8
9
  6
CONTINUOUS
 62
9
 10
2.49252664170708
 20
5.58324102560867
 30
0.0
 11
2.52920618922164
 21
5.61685163842854
 31
0.0
  0
LINE
  8
9
  6
CONTINUOUS
 62
9
 10
2.48450261379927
 20
4.8026299070812
 30
0.0
 11
2.47141012156206
 21
4.8669815624369
 31
0.0
  0
LINE
  8
9
  6
CONTINUOUS
 62
9
 10
2.47704198143487
 20
4.81755136261561
 30
0.0
 11
2.47141012156206
 21
4.8669815624369
 31
0.0
  0
LINE
  8
9
  6
CONTINUOUS
 62
9
 10
2.4996402311778
 20
4.48981357827171
 30
0.0
 11
2.55481029981419
 21
4.62768898322386
 31
0.0
  0
LINE
  8
9
  6
CONTINUOUS
 62
9
 10
2.53237252319984
 20
4.58328618285492
 30
0.0
 11
2.55481029981419
 21
4.62768898322386
 31
0.0
  0
LINE
  8
9
  6
CONTINUOUS
 62
9
 10
2.48450261379927
 20
4.13333856849852
 30
0.0
 11
2.47141012156206
 21
4.19769022385422
 31
0.0
  0
LINE
  8
9
  6
CONTINUOUS
 62
9
 10
2.47704198143487
 20
4.14826002403293
 30
0.0
 11
2.47141012156206
 21
4.19769022385422
 31
0.0
  0
LINE
  8
9
  6
CONTINUOUS
 62
9
 10
2.48484018027551
 20
3.36184498367988
 30
0.0
 11
2.52920618922164
 21
3.41026198637719
 31
0.0
  0
LINE
  8
9
  6
CONTINUOUS
 62
9
 10
2.49252664170708
 20
3.37665137355732
 30
0.0
 11
2.52920618922164
 21
3.41026198637719
 31
0.0
  0
LINE
  8
9
  6
CONTINUOUS
 62
9
 10
2.4996402311778
 20
3.05187308295469
 30
0.0
 11
2.55481029981418
 21
3.18974848790684
 31
0.0
  0
LINE
  8
9
  6
CONTINUOUS
 62
9
 10
2.53237252319984
 20
3.1453456875379
 30
0.0
 11
2.55481029981418
 21
3.18974848790684
 31
0.0
  0
LINE
  8
9
  6
CONTINUOUS
 62
9
 10
2.48484018027551
 20
2.69255364509721
 30
0.0
 11
2.52920618922164
 21
2.74097064779452
 31
0.0
  0
LINE
  8
9
  6
CONTINUOUS
 62
9
 10
2.49252664170708
 20
2.70736003497465
 30
0.0
 11
2.52920618922164
 21
2.74097064779452
 31
0.0
  0
LINE
  8
9
  6
CONTINUOUS
 62
9
 10
2.48484018027551
 20
1.92390448836287
 30
0.0
 11
2.52920618922164
 21
1.97232149106018
 31
0.0
  0
LINE
  8
9
  6
CONTINUOUS
 62
9
 10
2.49252664170708
 20
1.93871087824031
 30
0.0
 11
2.52920618922164
 21
1.97232149106018
 31
0.0
  0
LINE
  8
9
  6
CONTINUOUS
 62
9
 10
2.4996402311778
 20
1.61393258763768
 30
0.0
 11
2.55481029981419
 21
1.75180799258983
 31
0.0
  0
LINE
  8
9
  6
CONTINUOUS
 62
9
 10
2.53237252319984
 20
1.70740519222089
 30
0.0
 11
2.55481029981419
 21
1.75180799258983
 31
0.0
  0
LINE
  8
9
  6
CONTINUOUS
 62
9
 10
2.48484018027551
 20
1.25461314978019
 30
0.0
 11
2.52920618922164
 21
1.3030301524775
 31
0.0
  0
LINE
  8
9
  6
CONTINUOUS
 62
9
 10
2.49252664170708
 20
1.26941953965763
 30
0.0
 11
2.52920618922164
 21
1.3030301524775
 31
0.0
  0
LINE
  8
9
  6
CONTINUOUS
 62
9
 10
3.29503791189313
 20
1.04642028616463
 30
0.0
 11
3.4405604052609
 21
1.07602717198688
 31
0.0
  0
LINE
  8
9
  6
CONTINUOUS
 62
9
 10
3.39113020543835
 20
1.07039531212505
 30
0.0
 11
3.4405604052609
 21
1.07602717198688
 31
0.0
  0
LINE
  8
9
  6
CONTINUOUS
 62
9
 10
4.0114970967437
 20
1.26493410330525
 30
0.0
 11
4.01439413286451
 21
1.19858106685795
 31
0.0
  0
LINE
  8
9
  6
CONTINUOUS
 62
9
 10
4.01656419739727
 20
1.24828371588115
 30
0.0
 11
4.01439413286451
 21
1.19858106685795
 31
0.0
  0
LINE
  8
9
  6
CONTINUOUS
 62
9
 10
4.00005792192965
 20
1.57434806760419
 30
0.0
 11
3.96443985028595
 21
1.43017901150529
 31
0.0
  0
LINE
  8
9
  6
CONTINUOUS
 62
9
 10
3.98053623061857
 20
1.4772530918488
 30
0.0
 11
3.96443985028595
 21
1.43017901150529
 31
0.0
  0
LINE
  8
9
  6
CONTINUOUS
 62
9
 10
4.0114970967437
 20
1.93422544188793
 30
0.0
 11
4.01439413286451
 21
1.86787240544063
 31
0.0
  0
LINE
  8
9
  6
CONTINUOUS
 62
9
 10
4.01656419739727
 20
1.91757505446383
 30
0.0
 11
4.01439413286451
 21
1.86787240544063
 31
0.0
  0
LINE
  8
9
  6
CONTINUOUS
 62
9
 10
3.63327254439064
 20
2.28813873965965
 30
0.0
 11
3.62679490182767
 21
2.43650114699685
 31
0.0
  0
LINE
  8
9
  6
CONTINUOUS
 62
9
 10
3.62462483729515
 20
2.38679849797364
 30
0.0
 11
3.62679490182767
 21
2.43650114699685
 31
0.0
  0
LINE
  8
9
  6
CONTINUOUS
 62
9
 10
3.65569878050643
 20
2.63159807089914
 30
0.0
 11
3.66879127273466
 21
2.56724641554161
 31
0.0
  0
LINE
  8
9
  6
CONTINUOUS
 62
9
 10
3.66315941286874
 20
2.61667661536369
 30
0.0
 11
3.66879127273466
 21
2.56724641554161
 31
0.0
  0
LINE
  8
9
  6
CONTINUOUS
 62
9
 10
3.65542421336894
 20
3.42017701808982
 30
0.0
 11
3.65832124948974
 21
3.35382398164252
 31
0.0
  0
LINE
  8
9
  6
CONTINUOUS
 62
9
 10
3.6604913140225
 20
3.40352663066572
 30
0.0
 11
3.65832124948974
 21
3.35382398164252
 31
0.0
  0
LINE
  8
9
  6
CONTINUOUS
 62
9
 10
5.22836907974277
 20
1.95753736962207
 30
0.0
 11
5.17354212930814
 21
1.99382653649871
 31
0.0
  0
LINE
  8
9
  6
CONTINUOUS
 62
9
 10
5.21247688510394
 20
1.96285643331642
 30
0.0
 11
5.17354212930814
 21
1.99382653649871
 31
0.0
  0
LINE
  8
9
  6
CONTINUOUS
 62
9
 10
5.23115313067537
 20
1.24528439627275
 30
0.0
 11
5.27501498042893
 21
1.29315120575759
 31
0.0
  0
LINE
  8
9
  6
CONTINUOUS
 62
9
 10
5.23833543291437
 20
1.25954059293772
 30
0.0
 11
5.27501498042893
 21
1.29315120575759
 31
0.0
  0
LINE
  8
0
  6
CONTINUOUS
 62
0
 10
0.856443406767282
 20
7.93266293973311
 30
0.0
 11
5.23115313067537
 21
1.24528439627275
 31
0.0
  0
LINE
  8
0
  6
CONTINUOUS
 62
0
 10
5.23833543291437
 20
1.25954059293772
 30
0.0
 11
5.22836907974277
 21
1.95753736962207
 31
0.0
  0
LINE
  8
0
  6
CONTINUOUS
 62
0
 10
5.21247688510394
 20
1.96285643331642
 30
0.0
 11
3.65542421336894
 21
3.42017701808982
 31
0.0
  0
LINE
  8
0
  6
CONTINUOUS
 62
0
 10
3.6604913140225
 20
3.40352663066572
 30
0.0
 11
3.65569878050643
 21
2.63159807089914
 31
0.0
  0
LINE
  8
0
  6
CONTINUOUS
 62
0
 10
3.66315941286874
 20
2.61667661536369
 30
0.0
 11
3.63327254439064
 21
2.28813873965965
 31
0.0
  0
LINE
  8
0
  6
CONTINUOUS
 62
0
 10
3.62462483729515
 20
2.38679849797364
 30
0.0
 11
4.0114970967437
 21
1.93422544188793
 31
0.0
  0
LINE
  8
0
  6
CONTINUOUS
 62
0
 10
4.01656419739727
 20
1.91757505446383
 30
0.0
 11
4.00005792192965
 21
1.57434806760419
 31
0.0
  0
LINE
  8
0
  6
CONTINUOUS
 62
0
 10
3.98053623061857
 20
1.4772530918488
 30
0.0
 11
4.0114970967437
 21
1.26493410330525
 31
0.0
  0
LINE
  8
0
  6
CONTINUOUS
 62
0
 10
4.01656419739727
 20
1.24828371588115
 30
0.0
 11
3.29503791189313
 21
1.04642028616463
 31
0.0
  0
LINE
  8
0
  6
CONTINUOUS
 62
0
 10
3.39113020543835
 20
1.07039531212505
 30
0.0
 11
2.48484018027551
 21
1.25461314978019
 31
0.0
  0
LINE
  8
0
  6
CONTINUOUS
 62
0
 10
2.49252664170708
 20
1.26941953965763
 30
0.0
 11
2.4996402311778
 21
1.61393258763768
 31
0.0
  0
LINE
  8
0
  6
CONTINUOUS
 62
0
 10
2.53237252319984
 20
1.70740519222089
 30
0.0
 11
2.48484018027551
 21
1.92390448836287
 31
0.0
  0
LINE
  8
0
  6
CONTINUOUS
 62
0
 10
2.49252664170708
 20
1.93871087824031
 30
0.0
 11
2.48484018027551
 21
2.69255364509721
 31
0.0
  0
LINE
  8
0
  6
CONTINUOUS
 62
0
 10
2.49252664170708
 20
2.70736003497465
 30
0.0
 11
2.4996402311778
 21
3.05187308295469
 31
0.0
  0
LINE
  8
0
  6
CONTINUOUS
 62
0
 10
2.53237252319984
 20
3.1453456875379
 30
0.0
 11
2.48484018027551
 21
3.36184498367988
 31
0.0
  0
LINE
  8
0
  6
CONTINUOUS
 62
0
 10
2.49252664170708
 20
3.37665137355732
 30
0.0
 11
2.48450261379927
 21
4.13333856849852
 31
0.0
  0
LINE
  8
0
  6
CONTINUOUS
 62
0
 10
2.47704198143487
 20
4.14826002403293
 30
0.0
 11
2.4996402311778
 21
4.48981357827171
 31
0.0
  0
LINE
  8
0
  6
CONTINUOUS
 62
0
 10
2.53237252319984
 20
4.58328618285492
 30
0.0
 11
2.48450261379927
 21
4.8026299070812
 31
0.0
  0
LINE
  8
0
  6
CONTINUOUS
 62
0
 10
2.47704198143487
 20
4.81755136261561
 30
0.0
 11
2.48484018027551
 21
5.56843463573123
 31
0.0
  0
LINE
  8
0
  6
CONTINUOUS
 62
0
 10
2.49252664170708
 20
5.58324102560867
 30
0.0
 11
2.4996402311778
 21
5.92775407358872
 31
0.0
  0
LINE
  8
0
  6
CONTINUOUS
 62
0
 10
2.53237252319984
 20
6.02122667817193
 30
0.0
 11
2.48484018027551
 21
6.23772597431391
 31
0.0
  0
LINE
  8
0
  6
CONTINUOUS
 62
0
 10
2.49252664170708
 20
6.25253236419135
 30
0.0
 11
2.48450261379927
 21
7.00921955913255
 31
0.0
  0
LINE
  8
0
  6
CONTINUOUS
 62
0
 10
2.47704198143487
 20
7.02414101466695
 30
0.0
 11
2.4788441766178
 21
7.67590016652206
 31
0.0
  0
LINE
  8
0
  6
CONTINUOUS
 62
0
 10
2.48132867630188
 20
7.65940355681395
 30
0.0
 11
2.46256525158555
 21
7.36443897313526
 31
0.0
  0
LINE
  8
0
  6
CONTINUOUS
 62
0
 10
2.37807951366037
 20
7.41611770024634
 30
0.0
 11
1.2171241766178
 21
7.7349552846323
 31
0.0
  0
LINE
  8
0
  6
CONTINUOUS
 62
0
 10
1.21960867630188
 20
7.71845867492419
 30
0.0
 11
1.21930288341153
 21
6.95144693941021
 31
0.0
  0
LINE
  8
0
  6
CONTINUOUS
 62
0
 10
1.20280627370354
 20
6.94896243972531
 30
0.0
 11
0.9552989561018
 21
6.64276343786087
 31
0.0
  0
LINE
  8
0
  6
CONTINUOUS
 62
0
 10
1.00629356505165
 20
6.7276638536822
 30
0.0
 11
1.2171241766178
 21
6.29701478931528
 31
0.0
  0
LINE
  8
0
  6
CONTINUOUS
 62
0
 10
1.21960867630188
 20
6.28051817960717
 30
0.0
 11
1.2184066750081
 21
5.51309294490204
 31
0.0
  0
LINE
  8
0
  6
CONTINUOUS
 62
0
 10
1.20348521947332
 20
5.50563231253838
 30
0.0
 11
0.884136892831199
 21
5.28348621105221
 31
0.0
  0
LINE
  8
0
  6
CONTINUOUS
 62
0
 10
0.968117404310773
 20
5.33598196745415
 30
0.0
 11
1.2171241766178
 21
4.85907429399827
 31
0.0
  0
LINE
  8
0
  6
CONTINUOUS
 62
0
 10
1.21960867630188
 20
4.84257768429015
 30
0.0
 11
1.21930288341153
 21
4.07556594877618
 31
0.0
  0
LINE
  8
0
  6
CONTINUOUS
 62
0
 10
1.20280627370354
 20
4.07308144909128
 30
0.0
 11
0.927540592922244
 21
3.78925359581475
 31
0.0
  0
LINE
  8
0
  6
CONTINUOUS
 62
0
 10
0.991188724745924
 20
3.86513143226215
 30
0.0
 11
1.2171241766178
 21
3.42113379868126
 31
0.0
  0
LINE
  8
0
  6
CONTINUOUS
 62
0
 10
1.21960867630188
 20
3.40463718897315
 30
0.0
 11
1.21930288341153
 21
2.63762545345917
 31
0.0
  0
LINE
  8
0
  6
CONTINUOUS
 62
0
 10
1.20280627370354
 20
2.63514095377427
 30
0.0
 11
0.955298956101814
 21
2.32894195190982
 31
0.0
  0
LINE
  8
0
  6
CONTINUOUS
 62
0
 10
1.00629356505167
 20
2.41384236773116
 30
0.0
 11
1.2171241766178
 21
1.98319330336425
 31
0.0
  0
LINE
  8
0
  6
CONTINUOUS
 62
0
 10
1.21960867630188
 20
1.96669669365614
 30
0.0
 11
1.21930288341153
 21
1.19968495814216
 31
0.0
  0
LINE
  8
0
  6
CONTINUOUS
 62
0
 10
1.20280627370354
 20
1.19720045845726
 30
0.0
 11
0.856443406767282
 21
1.20573410792348
 31
0.0
  0
LINE
  8
5
  6
CONTINUOUS
 62
5
 10
1.00480581410418
 20
1.42814505294794
 30
0.0
 11
1.00480581410419
 21
1.21221175049311
 31
0.0
  0
LINE
  8
5
  6
CONTINUOUS
 62
5
 10
1.00480581410419
 20
1.21221175049311
 30
0.0
 11
1.00480581410419
 21
1.07853875373536
 31
0.0
  0
ARC
  8
5
  6
CONTINUOUS
 62
5
 10
1.22016014473197
 20
1.19664898995733
 30
0.0
 40
0.0669291337819045
 50
170.999999990997
 51
180.000000001286
  0
ARC
  8
5
  6
CONTINUOUS
 62
5
 10
1.2201601448043
 20
1.98405056475447
 30
0.0
 40
0.0669291338512308
 50
179.999999985851
 51
260.999999985851
  0
ARC
  8
5
  6
CONTINUOUS
 62
5
 10
1.08354597156886
 20
2.51647924904706
 30
0.0
 40
0.0787401574664382
 50
179.999999985851
 51
233.999999985851
  0
ARC
  8
5
  6
CONTINUOUS
 62
5
 10
1.08354597157566
 20
2.51647924903237
 30
0.0
 40
0.0787401574585539
 50
233.999999975561
 51
269.999999996141
  0
ARC
  8
5
  6
CONTINUOUS
 62
5
 10
1.22016014473197
 20
2.63458948527434
 30
0.0
 40
0.0669291337819033
 50
170.999999990996
 51
180.000000001286
  0
ARC
  8
5
  6
CONTINUOUS
 62
5
 10
1.2201601448043
 20
3.42199106007148
 30
0.0
 40
0.0669291338512312
 50
179.999999985851
 51
260.999999985851
  0
ARC
  8
5
  6
CONTINUOUS
 62
5
 10
1.08354597156566
 20
3.95441974436407
 30
0.0
 40
0.0787401574632458
 50
179.999999985851
 51
224.999999985851
  0
ARC
  8
5
  6
CONTINUOUS
 62
5
 10
1.08354597157566
 20
3.95441974435407
 30
0.0
 40
0.0787401574632451
 50
224.999999975562
 51
269.999999996141
  0
ARC
  8
5
  6
CONTINUOUS
 62
5
 10
1.22016014473197
 20
4.07252998059135
 30
0.0
 40
0.066929133781904
 50
170.999999990998
 51
180.000000001288
  0
ARC
  8
5
  6
CONTINUOUS
 62
5
 10
1.2201601448043
 20
4.85993155538849
 30
0.0
 40
0.066929133851231
 50
179.999999985851
 51
260.999999985851
  0
ARC
  8
5
  6
CONTINUOUS
 62
5
 10
1.08354597155328
 20
5.39236023968108
 30
0.0
 40
0.0787401574508634
 50
179.999999985851
 51
206.999999985851
  0
ARC
  8
5
  6
CONTINUOUS
 62
5
 10
1.08354597157566
 20
5.39236023967661
 30
0.0
 40
0.0787401574687765
 50
206.999999975562
 51
269.999999996141
  0
ARC
  8
5
  6
CONTINUOUS
 62
5
 10
1.22016014473497
 20
5.51047047590236
 30
0.0
 40
0.0669291337819002
 50
179.999999985851
 51
188.999999985851
  0
ARC
  8
5
  6
CONTINUOUS
 62
5
 10
1.2201601448043
 20
6.2978720507055
 30
0.0
 40
0.066929133851231
 50
179.999999985852
 51
260.999999985851
  0
ARC
  8
5
  6
CONTINUOUS
 62
5
 10
1.08354597156885
 20
6.8303007349981
 30
0.0
 40
0.0787401574664383
 50
179.999999985851
 51
233.99999998585
  0
ARC
  8
5
  6
CONTINUOUS
 62
5
 10
1.08354597157565
 20
6.83030073498341
 30
0.0
 40
0.0787401574585539
 50
233.999999975561
 51
269.99999999614
  0
ARC
  8
5
  6
CONTINUOUS
 62
5
 10
1.22016014473197
 20
6.94841097122538
 30
0.0
 40
0.066929133781904
 50
170.999999990998
 51
180.000000001288
  0
ARC
  8
5
  6
CONTINUOUS
 62
5
 10
1.2201601448043
 20
7.73581254602252
 30
0.0
 40
0.066929133851231
 50
179.999999985851
 51
260.999999985852
  0
ARC
  8
5
  6
CONTINUOUS
 62
5
 10
2.48188014479264
 20
7.34211175879337
 30
0.0
 40
0.177165354208414
 50
49.4857657326812
 51
143.537189235592
  0
ARC
  8
5
  6
CONTINUOUS
 62
5
 10
2.4818801448043
 20
7.67675742791228
 30
0.0
 40
0.066929133851231
 50
179.999999985852
 51
260.999999985851
  0
ARC
  8
5
  6
CONTINUOUS
 62
5
 10
2.48188014480129
 20
7.00746608933561
 30
0.0
 40
0.0669291338512308
 50
98.9999999909955
 51
180.000000001287
  0
ARC
  8
5
  6
CONTINUOUS
 62
5
 10
2.48188014480833
 20
6.23881693260428
 30
0.0
 40
0.0669291338582672
 50
359.999999985851
 51
44.9999999961408
  0
ARC
  8
5
  6
CONTINUOUS
 62
5
 10
2.48188014485233
 20
5.90417126341147
 30
0.0
 40
0.177165354218969
 50
49.4857657609913
 51
65.6914594621092
  0
ARC
  8
5
  6
CONTINUOUS
 62
5
 10
2.48188014478987
 20
5.90417126332388
 30
0.0
 40
0.177165354324506
 50
65.691459455362
 51
229.485765771531
  0
ARC
  8
5
  6
CONTINUOUS
 62
5
 10
2.4818801448013
 20
4.80087643728427
 30
0.0
 40
0.0669291338512308
 50
98.9999999909955
 51
180.000000001286
  0
ARC
  8
5
  6
CONTINUOUS
 62
5
 10
2.48188014485233
 20
4.46623076809446
 30
0.0
 40
0.177165354218967
 50
49.485765760991
 51
65.691459462109
  0
ARC
  8
5
  6
CONTINUOUS
 62
5
 10
2.48188014478987
 20
4.46623076800687
 30
0.0
 40
0.177165354324506
 50
65.6914594553617
 51
229.485765771532
  0
ARC
  8
5
  6
CONTINUOUS
 62
5
 10
2.48188014480232
 20
4.13158509877194
 30
0.0
 40
0.0669291337819036
 50
89.999999990996
 51
99.000000001286
  0
ARC
  8
5
  6
CONTINUOUS
 62
5
 10
2.48188014480833
 20
3.36293594197025
 30
0.0
 40
0.0669291338582669
 50
359.999999985849
 51
44.9999999961399
  0
ARC
  8
5
  6
CONTINUOUS
 62
5
 10
2.48188014485233
 20
3.02829027277744
 30
0.0
 40
0.177165354218966
 50
49.4857657609921
 51
65.6914594621101
  0
ARC
  8
5
  6
CONTINUOUS
 62
5
 10
2.48188014478987
 20
3.02829027268985
 30
0.0
 40
0.177165354324506
 50
65.6914594553624
 51
229.485765771531
  0
ARC
  8
5
  6
CONTINUOUS
 62
5
 10
2.48188014480833
 20
1.92499544665324
 30
0.0
 40
0.0669291338582668
 50
359.999999985849
 51
44.9999999961399
  0
ARC
  8
5
  6
CONTINUOUS
 62
5
 10
2.48188014485233
 20
1.59034977746043
 30
0.0
 40
0.177165354218969
 50
49.4857657609913
 51
65.6914594621092
  0
ARC
  8
5
  6
CONTINUOUS
 62
5
 10
2.48188014478987
 20
1.59034977737284
 30
0.0
 40
0.177165354324506
 50
65.6914594553623
 51
229.485765771531
  0
ARC
  8
5
  6
CONTINUOUS
 62
5
 10
3.51833114065292
 20
1.0883448463802
 30
0.0
 40
0.0787401573904762
 50
179.999999985852
 51
188.999999985852
  0
ARC
  8
5
  6
CONTINUOUS
 62
5
 10
3.51833114073569
 20
1.08834484637899
 30
0.0
 40
0.0787401574720364
 50
188.999999975561
 51
269.999999996141
  0
ARC
  8
5
  6
CONTINUOUS
 62
5
 10
4.01439413284592
 20
1.60015586999347
 30
0.0
 40
0.177165354309452
 50
179.999999985156
 51
253.622532277306
  0
LINE
  8
5
  6
CONTINUOUS
 62
5
 10
3.5217070762674
 20
2.43650114699684
 30
0.0
 11
3.62679490182767
 21
2.43650114699685
 31
0.0
  0
LINE
  8
5
  6
CONTINUOUS
 62
5
 10
3.62679490182767
 20
2.43650114699685
 30
0.0
 11
3.79493542272409
 21
2.43650114699685
 31
0.0
  0
ARC
  8
5
  6
CONTINUOUS
 62
5
 10
3.65832124950627
 20
2.63335154062578
 30
0.0
 40
0.0669291337819058
 50
269.999999980701
 51
278.999999980702
  0
ARC
  8
5
  6
CONTINUOUS
 62
5
 10
3.65832124948974
 20
3.42075311549477
 30
0.0
 40
0.0669291338522579
 50
179.999999994854
 51
269.999999989709
  0
ARC
  8
5
  6
CONTINUOUS
 62
5
 10
3.65832124950176
 20
3.42075311549477
 30
0.0
 40
0.0669291338522579
 50
269.999999979419
 51
359.999999994854
  0
ARC
  8
5
  6
CONTINUOUS
 62
5
 10
5.22768893599713
 20
1.95448657867048
 30
0.0
 40
0.0669291338397704
 50
143.999999990997
 51
180.000000001286
  0
ARC
  8
5
  6
CONTINUOUS
 62
5
 10
5.22768893601562
 20
1.24582516135065
 30
0.0
 40
0.0669291338582675
 50
359.99999998585
 51
44.9999999961402
  0
LINE
  8
0
  6
CONTINUOUS
 62
0
 10
2.18004066886214
 20
8.08266293972831
 30
0.0
 11
2.23004066886214
 21
8.08266293972857
 31
0.0
  0
LINE
  8
2
  6
CONTINUOUS
 62
2
 10
2.23004066886294
 20
7.93266293972857
 30
0.0
 11
2.23004066886214
 21
8.08266293972857
 31
0.0
  0
LINE
  8
2
  6
CONTINUOUS
 62
2
 10
2.18004066886294
 20
7.93266293972831
 30
0.0
 11
2.18004066886214
 21
8.08266293972831
 31
0.0
  0
LINE
  8
0
  6
CONTINUOUS
 62
0
 10
2.25703949173598
 20
6.60156057752693
 30
0.0
 11
2.20703949173599
 21
6.60156057752684
 31
0.0
  0
LINE
  8
2
  6
CONTINUOUS
 62
2
 10
2.20703949173572
 20
6.75156057752684
 30
0.0
 11
2.20703949173599
 21
6.60156057752684
 31
0.0
  0
LINE
  8
2
  6
CONTINUOUS
 62
2
 10
2.25703949173572
 20
6.75156057752693
 30
0.0
 11
2.25703949173598
 21
6.60156057752693
 31
0.0
  0
LINE
  8
0
  6
CONTINUOUS
 62
0
 10
1.8965530286938
 20
6.6447224444098
 30
0.0
 11
1.9465530286938
 21
6.64472244441006
 31
0.0
  0
LINE
  8
2
  6
CONTINUOUS
 62
2
 10
1.9465530286946
 20
6.49472244441006
 30
0.0
 11
1.9465530286938
 21
6.64472244441006
 31
0.0
  0
LINE
  8
2
  6
CONTINUOUS
 62
2
 10
1.8965530286946
 20
6.4947224444098
 30
0.0
 11
1.8965530286938
 21
6.6447224444098
 31
0.0
  0
LINE
  8
0
  6
CONTINUOUS
 62
0
 10
1.8993050886662
 20
5.16362008220928
 30
0.0
 11
1.8493050886662
 21
5.16362008220919
 31
0.0
  0
LINE
  8
2
  6
CONTINUOUS
 62
2
 10
1.84930508866593
 20
5.31362008220919
 30
0.0
 11
1.8493050886662
 21
5.16362008220919
 31
0.0
  0
LINE
  8
2
  6
CONTINUOUS
 62
2
 10
1.89930508866593
 20
5.31362008220928
 30
0.0
 11
1.8993050886662
 21
5.16362008220928
 31
0.0
  0
LINE
  8
0
  6
CONTINUOUS
 62
0
 10
2.30153537179166
 20
5.20678194909492
 30
0.0
 11
2.35153537179166
 21
5.20678194909518
 31
0.0
  0
LINE
  8
2
  6
CONTINUOUS
 62
2
 10
2.35153537179245
 20
5.05678194909518
 30
0.0
 11
2.35153537179166
 21
5.20678194909518
 31
0.0
  0
LINE
  8
2
  6
CONTINUOUS
 62
2
 10
2.30153537179245
 20
5.05678194909492
 30
0.0
 11
2.30153537179166
 21
5.20678194909492
 31
0.0
  0
LINE
  8
0
  6
CONTINUOUS
 62
0
 10
2.37178448894704
 20
3.7256795868931
 30
0.0
 11
2.32178448894704
 21
3.72567958689301
 31
0.0
  0
LINE
  8
2
  6
CONTINUOUS
 62
2
 10
2.32178448894678
 20
3.87567958689301
 30
0.0
 11
2.32178448894704
 21
3.72567958689301
 31
0.0
  0
LINE
  8
2
  6
CONTINUOUS
 62
2
 10
2.37178448894678
 20
3.8756795868931
 30
0.0
 11
2.37178448894704
 21
3.7256795868931
 31
0.0
  0
LINE
  8
0
  6
CONTINUOUS
 62
0
 10
1.89655302869366
 20
3.76884145377577
 30
0.0
 11
1.94655302869366
 21
3.76884145377603
 31
0.0
  0
LINE
  8
2
  6
CONTINUOUS
 62
2
 10
1.94655302869446
 20
3.61884145377603
 30
0.0
 11
1.94655302869366
 21
3.76884145377603
 31
0.0
  0
LINE
  8
2
  6
CONTINUOUS
 62
2
 10
1.89655302869446
 20
3.61884145377577
 30
0.0
 11
1.89655302869366
 21
3.76884145377577
 31
0.0
  0
LINE
  8
0
  6
CONTINUOUS
 62
0
 10
1.98312293216989
 20
2.2877390915754
 30
0.0
 11
1.93312293216989
 21
2.28773909157532
 31
0.0
  0
LINE
  8
2
  6
CONTINUOUS
 62
2
 10
1.93312293216963
 20
2.43773909157532
 30
0.0
 11
1.93312293216989
 21
2.28773909157532
 31
0.0
  0
LINE
  8
2
  6
CONTINUOUS
 62
2
 10
1.98312293216963
 20
2.4377390915754
 30
0.0
 11
1.98312293216989
 21
2.2877390915754
 31
0.0
  0
LINE
  8
0
  6
CONTINUOUS
 62
0
 10
2.33032962872161
 20
2.33090095846105
 30
0.0
 11
2.38032962872161
 21
2.33090095846132
 31
0.0
  0
LINE
  8
2
  6
CONTINUOUS
 62
2
 10
2.38032962872241
 20
2.18090095846132
 30
0.0
 11
2.38032962872161
 21
2.33090095846132
 31
0.0
  0
LINE
  8
2
  6
CONTINUOUS
 62
2
 10
2.33032962872241
 20
2.18090095846105
 30
0.0
 11
2.33032962872161
 21
2.33090095846105
 31
0.0
  0
LINE
  8
0
  6
CONTINUOUS
 62
0
 10
2.42170532627978
 20
0.849798596259167
 30
0.0
 11
2.37170532627978
 21
0.849798596259079
 31
0.0
  0
LINE
  8
2
  6
CONTINUOUS
 62
2
 10
2.37170532627951
 20
0.999798596259079
 30
0.0
 11
2.37170532627978
 21
0.849798596259079
 31
0.0
  0
LINE
  8
2
  6
CONTINUOUS
 62
2
 10
2.42170532627951
 20
0.999798596259167
 30
0.0
 11
2.42170532627978
 21
0.849798596259167
 31
0.0
  0
LINE
  8
0
  6
CONTINUOUS
 62
0
 10
4.44083936708724
 20
2.3407070511095
 30
0.0
 11
4.39083936708724
 21
2.34070705110923
 31
0.0
  0
LINE
  8
2
  6
CONTINUOUS
 62
2
 10
4.44083936708804
 20
2.1907070511095
 30
0.0
 11
4.44083936708724
 21
2.3407070511095
 31
0.0
  0
LINE
  8
2
  6
CONTINUOUS
 62
2
 10
4.39083936708804
 20
2.19070705110923
 30
0.0
 11
4.39083936708724
 21
2.34070705110923
 31
0.0
  0
LINE
  8
0
  6
CONTINUOUS
 62
0
 10
4.43221506464528
 20
0.859604688908574
 30
0.0
 11
4.48221506464528
 21
0.859604688908662
 31
0.0
  0
LINE
  8
2
  6
CONTINUOUS
 62
2
 10
4.48221506464502
 20
1.00960468890866
 30
0.0
 11
4.48221506464528
 21
0.859604688908662
 31
0.0
  0
LINE
  8
2
  6
CONTINUOUS
 62
2
 10
4.43221506464502
 20
1.00960468890857
 30
0.0
 11
4.43221506464528
 21
0.859604688908574
 31
0.0
  0
LINE
  8
0
  6
CONTINUOUS
 62
0
 10
4.02367558020972
 20
2.91561249364756
 30
0.0
 11
4.02367558019911
 21
2.96561249364756
 31
0.0
  0
LINE
  8
2
  6
CONTINUOUS
 62
2
 10
3.87367558019911
 20
2.96561249364756
 30
0.0
 11
4.02367558019911
 21
2.96561249364756
 31
0.0
  0
LINE
  8
2
  6
CONTINUOUS
 62
2
 10
3.87367558020972
 20
2.91561249364756
 30
0.0
 11
4.02367558020972
 21
2.91561249364756
 31
0.0
  0
LINE
  8
0
  6
CONTINUOUS
 62
0
 10
3.29296691878178
 20
2.94906221462454
 30
0.0
 11
3.29296691878532
 21
2.89906221462454
 31
0.0
  0
LINE
  8
2
  6
CONTINUOUS
 62
2
 10
3.44296691878532
 20
2.89906221462454
 30
0.0
 11
3.29296691878532
 21
2.89906221462454
 31
0.0
  0
LINE
  8
2
  6
CONTINUOUS
 62
2
 10
3.44296691878178
 20
2.94906221462454
 30
0.0
 11
3.29296691878178
 21
2.94906221462454
 31
0.0
  0
ENDSEC
  0
EOF
