  0
SECTION
  2
HEADER
  9
$ACADVER
  1
AC1003
  9
$EXTMIN
 10
0.999999999998227
 20
2.3330497702603
  9
$EXTMAX
 10
6.06207659094387
 20
0.849999999999934
  9
$INSBASE
 10
3.53103829547105
 20
1.59152488513011
999
Created with OMAX Layout for Windows. (http://www.omax.com) 5/4/2015
  0
ENDSEC
  0
SECTION
  2
TABLES
  0
TABLE
  2
LAYER
 70
    10
  0
LAYER
  2
0
 70
     0
 62
     7
  6
CONTINUOUS
  0
LAYER
  2
1
 70
     0
 62
     7
  6
CONTINUOUS
  0
LAYER
  2
2
 70
     0
 62
     7
  6
CONTINUOUS
  0
LAYER
  2
3
 70
     0
 62
     7
  6
CONTINUOUS
  0
LAYER
  2
4
 70
     0
 62
     7
  6
CONTINUOUS
  0
LAYER
  2
5
 70
     0
 62
     7
  6
CONTINUOUS
  0
LAYER
  2
6
 70
     0
 62
     7
  6
CONTINUOUS
  0
LAYER
  2
7
 70
     0
 62
     7
  6
CONTINUOUS
  0
LAYER
  2
8
 70
     0
 62
     7
  6
CONTINUOUS
  0
LAYER
  2
9
 70
     0
 62
     7
  6
CONTINUOUS
  0
LAYER
  2
10
 70
     0
 62
     7
  6
CONTINUOUS
  0
LAYER
  2
11
 70
     0
 62
     7
  6
CONTINUOUS
  0
LAYER
  2
12
 70
     0
 62
     7
  6
CONTINUOUS
  0
LAYER
  2
13
 70
     0
 62
     7
  6
CONTINUOUS
  0
LAYER
  2
14
 70
     0
 62
     7
  6
CONTINUOUS
  0
LAYER
  2
15
 70
     0
 62
     7
  6
CONTINUOUS
  0
LAYER
  2
16
 70
     0
 62
     7
  6
CONTINUOUS
  0
LAYER
  2
17
 70
     0
 62
     7
  6
CONTINUOUS
  0
LAYER
  2
18
 70
     0
 62
     7
  6
CONTINUOUS
  0
LAYER
  2
19
 70
     0
 62
     7
  6
CONTINUOUS
  0
LAYER
  2
20
 70
     0
 62
     7
  6
CONTINUOUS
  0
LAYER
  2
21
 70
     0
 62
     7
  6
CONTINUOUS
  0
LAYER
  2
22
 70
     0
 62
     7
  6
CONTINUOUS
  0
LAYER
  2
23
 70
     0
 62
     7
  6
CONTINUOUS
  0
LAYER
  2
24
 70
     0
 62
     7
  6
CONTINUOUS
  0
LAYER
  2
25
 70
     0
 62
     7
  6
CONTINUOUS
  0
LAYER
  2
26
 70
     0
 62
     7
  6
CONTINUOUS
  0
LAYER
  2
27
 70
     0
 62
     7
  6
CONTINUOUS
  0
LAYER
  2
28
 70
     0
 62
     7
  6
CONTINUOUS
  0
LAYER
  2
29
 70
     0
 62
     7
  6
CONTINUOUS
  0
LAYER
  2
30
 70
     0
 62
     7
  6
CONTINUOUS
  0
LAYER
  2
31
 70
     0
 62
     7
  6
CONTINUOUS
  0
ENDTAB
  0
ENDSEC
  0
SECTION
  2
ENTITIES
  0
LINE
  8
3
  6
CONTINUOUS
 62
3
 10
3.08337354330532
 20
1.07874015748032
 30
0.0
 11
3.08337354331592
 21
2.10236220472441
 31
0.0
  0
LINE
  8
3
  6
CONTINUOUS
 62
3
 10
1.07874015748031
 20
2.18110236220649
 30
0.0
 11
2.02762807615191
 21
2.18110236220127
 31
0.0
  0
LINE
  8
3
  6
CONTINUOUS
 62
3
 10
2.07762807615191
 20
2.18110236220099
 30
0.0
 11
3.00463338582677
 21
2.18110236219589
 31
0.0
  0
LINE
  8
3
  6
CONTINUOUS
 62
3
 10
0.999999999998227
 20
1.07874015746617
 30
0.0
 11
1.00000000000176
 21
2.10236220471027
 31
0.0
  0
LINE
  8
3
  6
CONTINUOUS
 62
3
 10
3.00463338584091
 20
0.999999999998238
 30
0.0
 11
2.07762807615248
 21
0.999999999999934
 31
0.0
  0
LINE
  8
3
  6
CONTINUOUS
 62
3
 10
2.02762807615248
 20
1.00000000000003
 30
0.0
 11
1.07874015749445
 21
1.00000000000176
 31
0.0
  0
ARC
  8
3
  6
CONTINUOUS
 62
3
 10
3.00463338583207
 20
1.07874015747148
 30
0.0
 40
0.0787401574732446
 50
270.000000006428
 51
6.42877884432985E-9
  0
ARC
  8
3
  6
CONTINUOUS
 62
3
 10
2.7093577952801
 20
1.94488188976378
 30
0.0
 40
0.0669291338612723
 50
180.000000010289
 51
359.999999999999
  0
ARC
  8
3
  6
CONTINUOUS
 62
3
 10
2.70935779525902
 20
1.94488188977839
 30
0.0
 40
0.0669291338401903
 50
80.9999999831025
 51
180.000000022793
  0
ARC
  8
3
  6
CONTINUOUS
 62
3
 10
2.70935779527559
 20
1.23622047244094
 30
0.0
 40
0.0669291338582676
 50
1.02896796165959E-8
 51
179.999999999998
  0
ARC
  8
3
  6
CONTINUOUS
 62
3
 10
1.49606299212014
 20
1.59055118109299
 30
0.0
 40
0.177165354329329
 50
139.485765769398
 51
302.704220500434
  0
ARC
  8
3
  6
CONTINUOUS
 62
3
 10
1.49606299213459
 20
1.59055118111054
 30
0.0
 40
0.177165354328918
 50
325.622532304593
 51
139.485765776749
  0
ARC
  8
3
  6
CONTINUOUS
 62
3
 10
1.07874015748208
 20
2.10236220472618
 30
0.0
 40
0.078740157480315
 50
90.0000000012861
 51
180.000000011576
  0
ARC
  8
3
  6
CONTINUOUS
 62
3
 10
1.07874015747147
 20
1.07874015747501
 30
0.0
 40
0.0787401574732442
 50
180.000000006431
 51
270.000000016721
  0
ARC
  8
3
  6
CONTINUOUS
 62
3
 10
1.49606299213049
 20
1.25590551181102
 30
0.0
 40
0.0669291338612723
 50
180.000000010288
 51
359.999999999998
  0
ARC
  8
3
  6
CONTINUOUS
 62
3
 10
1.49606299213296
 20
1.25590551181725
 30
0.0
 40
0.0669291338587988
 50
359.999999994664
 51
135.000000007464
  0
ARC
  8
3
  6
CONTINUOUS
 62
3
 10
1.49606299212598
 20
1.9251968503937
 30
0.0
 40
0.0669291338582676
 50
1.02895905610648E-8
 51
179.999999999998
  0
LINE
  8
3
  6
CONTINUOUS
 62
3
 10
3.97870304762619
 20
1.08068756552536
 30
0.0
 11
3.97870304762972
 21
1.43029386473796
 31
0.0
  0
LINE
  8
3
  6
CONTINUOUS
 62
3
 10
3.97870304762619
 20
1.75470331355686
 30
0.0
 11
3.97870304762972
 21
2.10430961276945
 31
0.0
  0
LINE
  8
3
  6
CONTINUOUS
 62
3
 10
4.57712824447834
 20
1.50903402223241
 30
0.0
 11
4.57712824447834
 21
1.67596315609068
 31
0.0
  0
LINE
  8
3
  6
CONTINUOUS
 62
3
 10
4.05744320510827
 20
1.50903402223418
 30
0.0
 11
4.57712824447834
 21
1.50903402223241
 31
0.0
  0
LINE
  8
3
  6
CONTINUOUS
 62
3
 10
4.57712824447834
 20
1.67596315609068
 30
0.0
 11
4.05744320512241
 21
1.67596315609245
 31
0.0
  0
LINE
  8
3
  6
CONTINUOUS
 62
3
 10
6.06207659093328
 20
1.0806875655395
 30
0.0
 11
6.06207659094387
 21
2.10430961278359
 31
0.0
  0
LINE
  8
3
  6
CONTINUOUS
 62
3
 10
5.98333643345472
 20
2.18304977025506
 30
0.0
 11
5.08372885542617
 21
2.18304977026002
 31
0.0
  0
LINE
  8
3
  6
CONTINUOUS
 62
3
 10
5.03372885542617
 20
2.1830497702603
 30
0.0
 11
4.05744320510827
 21
2.18304977026567
 31
0.0
  0
ARC
  8
3
  6
CONTINUOUS
 62
3
 10
5.98333643347063
 20
2.10430961278182
 30
0.0
 40
0.0787401574732426
 50
1.28685242412014E-9
 51
90.0000000115765
  0
ARC
  8
3
  6
CONTINUOUS
 62
3
 10
4.19405737835161
 20
1.98619937655701
 30
0.0
 40
0.0669291338506534
 50
269.999999997448
 51
9.00000000624828
  0
ARC
  8
3
  6
CONTINUOUS
 62
3
 10
4.19405737833661
 20
1.98619937656012
 30
0.0
 40
0.0669291338537601
 50
89.9999999999998
 51
270
  0
ARC
  8
3
  6
CONTINUOUS
 62
3
 10
4.19405737834863
 20
1.19879780176147
 30
0.0
 40
0.0669291338582677
 50
269.999999999999
 51
89.9999999999998
  0
ARC
  8
3
  6
CONTINUOUS
 62
3
 10
4.1940573783415
 20
1.19879780176431
 30
0.0
 40
0.0669291338611099
 50
170.000000003056
 51
270.000000006103
  0
ARC
  8
3
  6
CONTINUOUS
 62
3
 10
5.37703722085479
 20
1.92714425844087
 30
0.0
 40
0.0669291338582729
 50
1.02900485609389E-8
 51
179.999999999998
  0
ARC
  8
3
  6
CONTINUOUS
 62
3
 10
5.37703722083519
 20
1.92714425842844
 30
0.0
 40
0.0669291338386736
 50
179.999999989363
 51
279.000000040483
  0
ARC
  8
3
  6
CONTINUOUS
 62
3
 10
4.05744320511004
 20
2.10430961278536
 30
0.0
 40
0.0787401574803151
 50
90.0000000012858
 51
180.000000011576
  0
ARC
  8
3
  6
CONTINUOUS
 62
3
 10
4.05744320509325
 20
1.08068756552624
 30
0.0
 40
0.0787401574670603
 50
180.000000000641
 51
270.000000010931
  0
ARC
  8
3
  6
CONTINUOUS
 62
3
 10
4.05744320511004
 20
1.43029386475387
 30
0.0
 40
0.0787401574803149
 50
90.000000001286
 51
180.000000011576
  0
ARC
  8
3
  6
CONTINUOUS
 62
3
 10
4.05744320509943
 20
1.7547033135657
 30
0.0
 40
0.0787401574732445
 50
180.000000006431
 51
270.000000016721
  0
ARC
  8
3
  6
CONTINUOUS
 62
3
 10
5.98333643345385
 20
1.08068756553862
 30
0.0
 40
0.0787401574794328
 50
270.000000000636
 51
6.36295408464228E-10
  0
ARC
  8
3
  6
CONTINUOUS
 62
3
 10
5.37703722089541
 20
1.5924985891594
 30
0.0
 40
0.177165354319854
 50
284.845729740232
 51
49.4857657829971
  0
ARC
  8
3
  6
CONTINUOUS
 62
3
 10
5.37703722089523
 20
1.59249858913508
 30
0.0
 40
0.177165354338462
 50
49.4857657880612
 51
229.485765768086
  0
ARC
  8
3
  6
CONTINUOUS
 62
3
 10
5.37703722085479
 20
1.25785291985819
 30
0.0
 40
0.0669291338582729
 50
1.02896541721584E-8
 51
179.999999999999
  0
ARC
  8
3
  6
CONTINUOUS
 62
3
 10
5.37703722083519
 20
1.25785291984576
 30
0.0
 40
0.0669291338386741
 50
179.999999989363
 51
279.000000040484
  0
LINE
  8
3
  6
CONTINUOUS
 62
3
 10
3.34574421464845
 20
2.10893291679612
 30
0.0
 11
3.34574421464845
 21
1.60402488513195
 31
0.0
  0
LINE
  8
3
  6
CONTINUOUS
 62
3
 10
3.34574421464492
 20
1.57902488513195
 30
0.0
 11
3.34574421464492
 21
1.08531086955201
 31
0.0
  0
LINE
  8
3
  6
CONTINUOUS
 62
3
 10
3.6977127185837
 20
2.18767307428174
 30
0.0
 11
3.424484372127
 21
2.18767307429234
 31
0.0
  0
LINE
  8
3
  6
CONTINUOUS
 62
3
 10
3.42448437214114
 20
1.0065707120876
 30
0.0
 11
3.69771271859784
 21
1.00657071208408
 31
0.0
  0
ARC
  8
3
  6
CONTINUOUS
 62
3
 10
3.56109854535986
 20
1.99082268058979
 30
0.0
 40
0.0669291338612725
 50
180.000000010289
 51
359.999999999999
  0
ARC
  8
3
  6
CONTINUOUS
 62
3
 10
3.56109854536233
 20
1.99082268059602
 30
0.0
 40
0.0669291338587986
 50
359.999999994665
 51
135.000000007464
  0
ARC
  8
3
  6
CONTINUOUS
 62
3
 10
3.56109854535986
 20
1.20342110578663
 30
0.0
 40
0.0669291338612728
 50
180.000000010293
 51
3.1296658065601E-12
  0
ARC
  8
3
  6
CONTINUOUS
 62
3
 10
3.56109854536233
 20
1.20342110579286
 30
0.0
 40
0.0669291338587973
 50
359.999999994669
 51
135.000000007467
  0
ARC
  8
3
  6
CONTINUOUS
 62
3
 10
3.42448437212877
 20
2.10893291681203
 30
0.0
 40
0.0787401574803148
 50
90.0000000012859
 51
180.000000011576
  0
ARC
  8
3
  6
CONTINUOUS
 62
3
 10
3.42448437211816
 20
1.08531086956085
 30
0.0
 40
0.0787401574732444
 50
180.000000006431
 51
270.000000016721
  0
ARC
  8
3
  6
CONTINUOUS
 62
3
 10
3.69771271859519
 20
2.10893291681292
 30
0.0
 40
0.0787401574688218
 50
359.999999998067
 51
90.0000000083586
  0
ARC
  8
3
  6
CONTINUOUS
 62
3
 10
3.69771271858989
 20
1.0853108695582
 30
0.0
 40
0.0787401574741215
 50
270.000000005785
 51
5.78544804891023E-9
  0
LINE
  8
9
  6
CONTINUOUS
 62
9
 10
5.39800313612367
 20
0.853585000724896
 30
0.0
 11
5.39152549349409
 21
1.00194740805919
 31
0.0
  0
LINE
  8
9
  6
CONTINUOUS
 62
9
 10
5.38935542898389
 20
0.952244759035
 30
0.0
 11
5.39152549349409
 21
1.00194740805919
 31
0.0
  0
LINE
  8
9
  6
CONTINUOUS
 62
9
 10
5.37441475184377
 20
1.25609945006092
 30
0.0
 11
5.38750724411769
 21
1.19174779471269
 31
0.0
  0
LINE
  8
9
  6
CONTINUOUS
 62
9
 10
5.38187538421668
 20
1.24117799453077
 30
0.0
 11
5.38750724411769
 21
1.19174779471269
 31
0.0
  0
LINE
  8
9
  6
CONTINUOUS
 62
9
 10
5.37815562135523
 20
1.56299742325482
 30
0.0
 11
5.42243005520504
 21
1.42124715598403
 31
0.0
  0
LINE
  8
9
  6
CONTINUOUS
 62
9
 10
5.41179300112333
 20
1.46984669899076
 30
0.0
 11
5.42243005520504
 21
1.42124715598403
 31
0.0
  0
LINE
  8
9
  6
CONTINUOUS
 62
9
 10
5.37441475184377
 20
1.9253907886436
 30
0.0
 11
5.38750724411769
 21
1.86103913329537
 31
0.0
  0
LINE
  8
9
  6
CONTINUOUS
 62
9
 10
5.38187538421668
 20
1.91046933311345
 30
0.0
 11
5.38750724411769
 21
1.86103913329537
 31
0.0
  0
LINE
  8
9
  6
CONTINUOUS
 62
9
 10
4.19581084815224
 20
1.98357690754187
 30
0.0
 11
4.26016250350089
 21
1.99666939981375
 31
0.0
  0
LINE
  8
9
  6
CONTINUOUS
 62
9
 10
4.21073230368263
 20
1.99103753991431
 30
0.0
 11
4.26016250350089
 21
1.99666939981375
 31
0.0
  0
LINE
  8
9
  6
CONTINUOUS
 62
9
 10
3.92481528339917
 20
1.95546961453796
 30
0.0
 11
3.77645287606401
 21
1.94899197192837
 31
0.0
  0
LINE
  8
9
  6
CONTINUOUS
 62
9
 10
3.82615552508791
 20
1.94682190741147
 30
0.0
 11
3.77645287606401
 21
1.94899197192837
 31
0.0
  0
LINE
  8
9
  6
CONTINUOUS
 62
9
 10
3.5616393104502
 20
1.99428687526828
 30
0.0
 11
3.51377250094567
 21
2.03814872500035
 31
0.0
  0
LINE
  8
9
  6
CONTINUOUS
 62
9
 10
3.547383113782
 20
2.00146917750088
 30
0.0
 11
3.51377250094567
 21
2.03814872500035
 31
0.0
  0
LINE
  8
9
  6
CONTINUOUS
 62
9
 10
3.21861905831696
 20
2.1787013609353
 30
0.0
 11
3.07951972569864
 21
2.12669425152515
 31
0.0
  0
LINE
  8
9
  6
CONTINUOUS
 62
9
 10
3.12746034074426
 20
2.13998936074049
 30
0.0
 11
3.07951972569864
 21
2.12669425152515
 31
0.0
  0
LINE
  8
9
  6
CONTINUOUS
 62
9
 10
2.71247824139529
 20
1.94648060414827
 30
0.0
 11
2.71982781852641
 21
2.01098701491538
 31
0.0
  0
LINE
  8
9
  6
CONTINUOUS
 62
9
 10
2.70990926380344
 20
1.96223576085759
 30
0.0
 11
2.71982781852641
 21
2.01098701491538
 31
0.0
  0
LINE
  8
9
  6
CONTINUOUS
 62
9
 10
2.70646075913042
 20
1.23564437502839
 30
0.0
 11
2.70935779528761
 21
1.16929133858267
 31
0.0
  0
LINE
  8
9
  6
CONTINUOUS
 62
9
 10
2.71152785979311
 20
1.21899398760707
 30
0.0
 11
2.70935779528761
 21
1.16929133858267
 31
0.0
  0
LINE
  8
9
  6
CONTINUOUS
 62
9
 10
3.5616393104502
 20
1.20688530046512
 30
0.0
 11
3.51377250094567
 21
1.25074715019719
 31
0.0
  0
LINE
  8
9
  6
CONTINUOUS
 62
9
 10
3.547383113782
 20
1.21406760269772
 30
0.0
 11
3.51377250094567
 21
1.25074715019719
 31
0.0
  0
LINE
  8
9
  6
CONTINUOUS
 62
9
 10
4.19325323246004
 20
1.20184826885731
 30
0.0
 11
4.12814504841207
 21
1.21041992388861
 31
0.0
  0
LINE
  8
9
  6
CONTINUOUS
 62
9
 10
4.17671577476826
 20
1.1996520531041
 30
0.0
 11
4.12814504841207
 21
1.21041992388861
 31
0.0
  0
LINE
  8
9
  6
CONTINUOUS
 62
9
 10
1.51617753795191
 20
1.56894158472216
 30
0.0
 11
1.6422838687941
 21
1.49051609724784
 31
0.0
  0
LINE
  8
9
  6
CONTINUOUS
 62
9
 10
1.60248781299181
 20
1.52037135545442
 30
0.0
 11
1.6422838687941
 21
1.49051609724784
 31
0.0
  0
LINE
  8
9
  6
CONTINUOUS
 62
9
 10
1.49660375722083
 20
1.25936970648951
 30
0.0
 11
1.4487369477163
 21
1.30323155622158
 31
0.0
  0
LINE
  8
9
  6
CONTINUOUS
 62
9
 10
1.48234756055263
 20
1.26655200872211
 30
0.0
 11
1.4487369477163
 21
1.30323155622158
 31
0.0
  0
LINE
  8
9
  6
CONTINUOUS
 62
9
 10
1.49316595598081
 20
1.92462075298115
 30
0.0
 11
1.496062992138
 21
1.85826771653543
 31
0.0
  0
LINE
  8
9
  6
CONTINUOUS
 62
9
 10
1.4982330566435
 20
1.90797036555982
 30
0.0
 11
1.496062992138
 21
1.85826771653543
 31
0.0
  0
LINE
  8
0
  6
CONTINUOUS
 62
0
 10
0.999999999998227
 20
2.28767307429234
 30
0.0
 11
1.49316595598081
 21
1.92462075298115
 31
0.0
  0
LINE
  8
0
  6
CONTINUOUS
 62
0
 10
1.4982330566435
 20
1.90797036555982
 30
0.0
 11
1.49660375722083
 21
1.25936970648951
 31
0.0
  0
LINE
  8
0
  6
CONTINUOUS
 62
0
 10
1.48234756055263
 20
1.26655200872211
 30
0.0
 11
1.51617753795191
 21
1.56894158472216
 31
0.0
  0
LINE
  8
0
  6
CONTINUOUS
 62
0
 10
1.60248781299181
 20
1.52037135545442
 30
0.0
 11
4.19325323246004
 21
1.20184826885731
 31
0.0
  0
LINE
  8
0
  6
CONTINUOUS
 62
0
 10
4.17671577476826
 20
1.1996520531041
 30
0.0
 11
3.5616393104502
 21
1.20688530046512
 31
0.0
  0
LINE
  8
0
  6
CONTINUOUS
 62
0
 10
3.547383113782
 20
1.21406760269772
 30
0.0
 11
2.70646075913042
 21
1.23564437502839
 31
0.0
  0
LINE
  8
0
  6
CONTINUOUS
 62
0
 10
2.71152785979311
 20
1.21899398760707
 30
0.0
 11
2.71247824139529
 21
1.94648060414827
 31
0.0
  0
LINE
  8
0
  6
CONTINUOUS
 62
0
 10
2.70990926380344
 20
1.96223576085759
 30
0.0
 11
3.21861905831696
 21
2.1787013609353
 31
0.0
  0
LINE
  8
0
  6
CONTINUOUS
 62
0
 10
3.12746034074426
 20
2.13998936074049
 30
0.0
 11
3.5616393104502
 21
1.99428687526828
 31
0.0
  0
LINE
  8
0
  6
CONTINUOUS
 62
0
 10
3.547383113782
 20
2.00146917750088
 30
0.0
 11
3.92481528339917
 21
1.95546961453796
 31
0.0
  0
LINE
  8
0
  6
CONTINUOUS
 62
0
 10
3.82615552508791
 20
1.94682190741147
 30
0.0
 11
4.19581084815224
 21
1.98357690754187
 31
0.0
  0
LINE
  8
0
  6
CONTINUOUS
 62
0
 10
4.21073230368263
 20
1.99103753991431
 30
0.0
 11
5.37441475184377
 21
1.9253907886436
 31
0.0
  0
LINE
  8
0
  6
CONTINUOUS
 62
0
 10
5.38187538421668
 20
1.91046933311345
 30
0.0
 11
5.37815562135523
 21
1.56299742325482
 31
0.0
  0
LINE
  8
0
  6
CONTINUOUS
 62
0
 10
5.41179300112333
 20
1.46984669899076
 30
0.0
 11
5.37441475184377
 21
1.25609945006092
 31
0.0
  0
LINE
  8
0
  6
CONTINUOUS
 62
0
 10
5.38187538421668
 20
1.24117799453077
 30
0.0
 11
5.39800313612367
 21
0.853585000724896
 31
0.0
  0
LINE
  8
3
  6
CONTINUOUS
 62
3
 10
4.05744320510827
 20
1.00194740805918
 30
0.0
 11
5.0337288554265
 21
1.00194740805919
 31
0.0
  0
LINE
  8
3
  6
CONTINUOUS
 62
3
 10
5.0837288554265
 20
1.00194740805919
 30
0.0
 11
5.39152549349409
 21
1.00194740805919
 31
0.0
  0
LINE
  8
3
  6
CONTINUOUS
 62
3
 10
5.39152549349409
 20
1.00194740805919
 30
0.0
 11
5.98333643345472
 21
1.00194740805919
 31
0.0
  0
ARC
  8
3
  6
CONTINUOUS
 62
3
 10
5.37703722086183
 20
1.2578529198627
 30
0.0
 40
0.066929133851231
 50
279.00000001569
 51
6.42990476068709E-9
  0
ARC
  8
3
  6
CONTINUOUS
 62
3
 10
5.37703722083662
 20
1.59249858908166
 30
0.0
 40
0.177165354259775
 50
229.485765771273
 51
284.845729765053
  0
ARC
  8
3
  6
CONTINUOUS
 62
3
 10
5.37703722086183
 20
1.92714425844538
 30
0.0
 40
0.0669291338512313
 50
279.000000015689
 51
6.42923048309462E-9
  0
ARC
  8
3
  6
CONTINUOUS
 62
3
 10
4.19405737835013
 20
1.98619937656264
 30
0.0
 40
0.066929133851231
 50
9.00000000128517
 51
90.0000000115755
  0
LINE
  8
3
  6
CONTINUOUS
 62
3
 10
3.77645287606401
 20
1.08531086956615
 30
0.0
 11
3.77645287606401
 21
1.58231024117488
 31
0.0
  0
LINE
  8
3
  6
CONTINUOUS
 62
3
 10
3.77645287606401
 20
1.60731024117487
 30
0.0
 11
3.77645287606401
 21
1.94899197192837
 31
0.0
  0
LINE
  8
3
  6
CONTINUOUS
 62
3
 10
3.77645287606401
 20
1.94899197192837
 30
0.0
 11
3.77645287606401
 21
2.10893291681026
 31
0.0
  0
ARC
  8
3
  6
CONTINUOUS
 62
3
 10
3.56109854535685
 20
1.99082268059129
 30
0.0
 40
0.0669291338582675
 50
135.000000001286
 51
180.000000011576
  0
ARC
  8
3
  6
CONTINUOUS
 62
3
 10
3.00463338584268
 20
2.1023622047253
 30
0.0
 40
0.0787401574705835
 50
18.0000000012844
 51
90.0000000115753
  0
ARC
  8
3
  6
CONTINUOUS
 62
3
 10
3.00463338588025
 20
2.10236220472264
 30
0.0
 40
0.0787401574356738
 50
1.28426981371879E-9
 51
18.0000000115743
  0
ARC
  8
3
  6
CONTINUOUS
 62
3
 10
2.70935779529014
 20
1.94488188976228
 30
0.0
 40
0.0669291338512308
 50
1.28494409131126E-9
 51
81.0000000115753
  0
ARC
  8
3
  6
CONTINUOUS
 62
3
 10
2.7093577952816
 20
1.23622047243493
 30
0.0
 40
0.0669291338522576
 50
270.000000015434
 51
1.54334698418489E-8
  0
ARC
  8
3
  6
CONTINUOUS
 62
3
 10
2.70935779527559
 20
1.23622047244094
 30
0.0
 40
0.0669291338582675
 50
179.999999999999
 51
270.000000020579
  0
ARC
  8
3
  6
CONTINUOUS
 62
3
 10
3.56109854535685
 20
1.20342110578813
 30
0.0
 40
0.0669291338582677
 50
135.000000001286
 51
180.000000011576
  0
ARC
  8
3
  6
CONTINUOUS
 62
3
 10
4.1940573783321
 20
1.19879780176864
 30
0.0
 40
0.0669291338511048
 50
89.9999999961411
 51
170.000000005302
  0
ARC
  8
3
  6
CONTINUOUS
 62
3
 10
1.49606299217843
 20
1.59055118103879
 30
0.0
 40
0.177165354252228
 50
302.704220494042
 51
325.622532315739
  0
ARC
  8
3
  6
CONTINUOUS
 62
3
 10
1.49606299212748
 20
1.25590551181252
 30
0.0
 40
0.0669291338582675
 50
135.000000001286
 51
180.000000011576
  0
ARC
  8
3
  6
CONTINUOUS
 62
3
 10
1.49606299213199
 20
1.92519685038769
 30
0.0
 40
0.0669291338522577
 50
270.000000015434
 51
1.54335652584894E-8
  0
ARC
  8
3
  6
CONTINUOUS
 62
3
 10
1.49606299212598
 20
1.9251968503937
 30
0.0
 40
0.0669291338582675
 50
179.999999999999
 51
270.000000020579
  0
LINE
  8
0
  6
CONTINUOUS
 62
0
 10
3.24574421464845
 20
1.60402488513195
 30
0.0
 11
3.24574421464492
 21
1.57902488513195
 31
0.0
  0
LINE
  8
2
  6
CONTINUOUS
 62
2
 10
3.34574421464492
 20
1.57902488513195
 30
0.0
 11
3.24574421464492
 21
1.57902488513195
 31
0.0
  0
LINE
  8
2
  6
CONTINUOUS
 62
2
 10
3.34574421464845
 20
1.60402488513195
 30
0.0
 11
3.24574421464845
 21
1.60402488513195
 31
0.0
  0
LINE
  8
0
  6
CONTINUOUS
 62
0
 10
3.87645287606401
 20
1.58231024117488
 30
0.0
 11
3.87645287606401
 21
1.60731024117487
 31
0.0
  0
LINE
  8
2
  6
CONTINUOUS
 62
2
 10
3.77645287606401
 20
1.60731024117487
 30
0.0
 11
3.87645287606401
 21
1.60731024117487
 31
0.0
  0
LINE
  8
2
  6
CONTINUOUS
 62
2
 10
3.77645287606401
 20
1.58231024117488
 30
0.0
 11
3.87645287606401
 21
1.58231024117488
 31
0.0
  0
LINE
  8
0
  6
CONTINUOUS
 62
0
 10
2.02762807615274
 20
2.33110236220127
 30
0.0
 11
2.07762807615274
 21
2.33110236220099
 31
0.0
  0
LINE
  8
2
  6
CONTINUOUS
 62
2
 10
2.07762807615191
 20
2.18110236220099
 30
0.0
 11
2.07762807615274
 21
2.33110236220099
 31
0.0
  0
LINE
  8
2
  6
CONTINUOUS
 62
2
 10
2.02762807615191
 20
2.18110236220127
 30
0.0
 11
2.02762807615274
 21
2.33110236220127
 31
0.0
  0
LINE
  8
0
  6
CONTINUOUS
 62
0
 10
2.07762807615221
 20
0.849999999999934
 30
0.0
 11
2.02762807615221
 21
0.850000000000026
 31
0.0
  0
LINE
  8
2
  6
CONTINUOUS
 62
2
 10
2.02762807615248
 20
1.00000000000003
 30
0.0
 11
2.02762807615221
 21
0.850000000000026
 31
0.0
  0
LINE
  8
2
  6
CONTINUOUS
 62
2
 10
2.07762807615248
 20
0.999999999999934
 30
0.0
 11
2.07762807615221
 21
0.849999999999934
 31
0.0
  0
LINE
  8
0
  6
CONTINUOUS
 62
0
 10
5.083728855427
 20
2.33304977026002
 30
0.0
 11
5.033728855427
 21
2.3330497702603
 31
0.0
  0
LINE
  8
2
  6
CONTINUOUS
 62
2
 10
5.03372885542617
 20
2.1830497702603
 30
0.0
 11
5.033728855427
 21
2.3330497702603
 31
0.0
  0
LINE
  8
2
  6
CONTINUOUS
 62
2
 10
5.08372885542617
 20
2.18304977026002
 30
0.0
 11
5.083728855427
 21
2.33304977026002
 31
0.0
  0
LINE
  8
0
  6
CONTINUOUS
 62
0
 10
5.0337288554265
 20
0.851947408059185
 30
0.0
 11
5.0837288554265
 21
0.851947408059186
 31
0.0
  0
LINE
  8
2
  6
CONTINUOUS
 62
2
 10
5.0837288554265
 20
1.00194740805919
 30
0.0
 11
5.0837288554265
 21
0.851947408059186
 31
0.0
  0
LINE
  8
2
  6
CONTINUOUS
 62
2
 10
5.0337288554265
 20
1.00194740805919
 30
0.0
 11
5.0337288554265
 21
0.851947408059185
 31
0.0
  0
ENDSEC
  0
EOF
