  0
SECTION
  2
HEADER
  9
$ACADVER
  1
AC1003
  9
$EXTMIN
 10
0.85
 20
9.53994001356429
  9
$EXTMAX
 10
6.75537713825186
 20
0.869135174774511
  9
$INSBASE
 10
3.80268856912593
 20
5.2045375941694
999
Created with OMAX Layout for Windows. (http://www.omax.com) 5/13/2015
  0
ENDSEC
  0
SECTION
  2
TABLES
  0
TABLE
  2
LAYER
 70
    10
  0
LAYER
  2
0
 70
     0
 62
     7
  6
CONTINUOUS
  0
LAYER
  2
1
 70
     0
 62
     7
  6
CONTINUOUS
  0
LAYER
  2
2
 70
     0
 62
     7
  6
CONTINUOUS
  0
LAYER
  2
3
 70
     0
 62
     7
  6
CONTINUOUS
  0
LAYER
  2
4
 70
     0
 62
     7
  6
CONTINUOUS
  0
LAYER
  2
5
 70
     0
 62
     7
  6
CONTINUOUS
  0
LAYER
  2
6
 70
     0
 62
     7
  6
CONTINUOUS
  0
LAYER
  2
7
 70
     0
 62
     7
  6
CONTINUOUS
  0
LAYER
  2
8
 70
     0
 62
     7
  6
CONTINUOUS
  0
LAYER
  2
9
 70
     0
 62
     7
  6
CONTINUOUS
  0
LAYER
  2
10
 70
     0
 62
     7
  6
CONTINUOUS
  0
LAYER
  2
11
 70
     0
 62
     7
  6
CONTINUOUS
  0
LAYER
  2
12
 70
     0
 62
     7
  6
CONTINUOUS
  0
LAYER
  2
13
 70
     0
 62
     7
  6
CONTINUOUS
  0
LAYER
  2
14
 70
     0
 62
     7
  6
CONTINUOUS
  0
LAYER
  2
15
 70
     0
 62
     7
  6
CONTINUOUS
  0
LAYER
  2
16
 70
     0
 62
     7
  6
CONTINUOUS
  0
LAYER
  2
17
 70
     0
 62
     7
  6
CONTINUOUS
  0
LAYER
  2
18
 70
     0
 62
     7
  6
CONTINUOUS
  0
LAYER
  2
19
 70
     0
 62
     7
  6
CONTINUOUS
  0
LAYER
  2
20
 70
     0
 62
     7
  6
CONTINUOUS
  0
LAYER
  2
21
 70
     0
 62
     7
  6
CONTINUOUS
  0
LAYER
  2
22
 70
     0
 62
     7
  6
CONTINUOUS
  0
LAYER
  2
23
 70
     0
 62
     7
  6
CONTINUOUS
  0
LAYER
  2
24
 70
     0
 62
     7
  6
CONTINUOUS
  0
LAYER
  2
25
 70
     0
 62
     7
  6
CONTINUOUS
  0
LAYER
  2
26
 70
     0
 62
     7
  6
CONTINUOUS
  0
LAYER
  2
27
 70
     0
 62
     7
  6
CONTINUOUS
  0
LAYER
  2
28
 70
     0
 62
     7
  6
CONTINUOUS
  0
LAYER
  2
29
 70
     0
 62
     7
  6
CONTINUOUS
  0
LAYER
  2
30
 70
     0
 62
     7
  6
CONTINUOUS
  0
LAYER
  2
31
 70
     0
 62
     7
  6
CONTINUOUS
  0
ENDTAB
  0
ENDSEC
  0
SECTION
  2
ENTITIES
  0
LINE
  8
5
  6
CONTINUOUS
 62
5
 10
3.1621137007874
 20
1.07874015748031
 30
0.0
 11
3.1621137007874
 21
1.55393177206225
 31
0.0
  0
LINE
  8
5
  6
CONTINUOUS
 62
5
 10
3.1621137007874
 20
1.60393177206225
 30
0.0
 11
3.1621137007874
 21
2.10236220472441
 31
0.0
  0
LINE
  8
5
  6
CONTINUOUS
 62
5
 10
1
 20
1.07874015748031
 30
0.0
 11
1
 21
1.52917302993518
 31
0.0
  0
LINE
  8
5
  6
CONTINUOUS
 62
5
 10
1
 20
1.57917302993518
 30
0.0
 11
1
 21
2.10236220472441
 31
0.0
  0
LINE
  8
5
  6
CONTINUOUS
 62
5
 10
3.08337354330709
 20
0.999999999999999
 30
0.0
 11
1.07874015748031
 21
1
 31
0.0
  0
ARC
  8
5
  6
CONTINUOUS
 62
5
 10
3.08337354331593
 20
2.10236220472971
 30
0.0
 40
0.0787401574732445
 50
6.42879156654858E-9
 51
90.0000000064307
  0
ARC
  8
5
  6
CONTINUOUS
 62
5
 10
3.08337354331239
 20
1.07874015747148
 30
0.0
 40
0.0787401574732451
 50
270.000000006428
 51
1.67177714611145E-8
  0
ARC
  8
5
  6
CONTINUOUS
 62
5
 10
2.78809795276342
 20
1.94488188976829
 30
0.0
 40
0.0669291338522569
 50
6.43042001054549E-9
 51
90.0000000064318
  0
ARC
  8
5
  6
CONTINUOUS
 62
5
 10
2.78809795275741
 20
1.9448818897773
 30
0.0
 40
0.0669291338522568
 50
90.0000000012851
 51
180.000000011576
  0
ARC
  8
5
  6
CONTINUOUS
 62
5
 10
2.78809795275591
 20
1.23622047244995
 30
0.0
 40
0.0669291338582676
 50
180.000000010288
 51
2.57283973736692E-9
  0
ARC
  8
5
  6
CONTINUOUS
 62
5
 10
2.78809795276342
 20
1.23622047244546
 30
0.0
 40
0.0669291338522578
 50
6.42813001117483E-9
 51
90.0000000064296
  0
ARC
  8
5
  6
CONTINUOUS
 62
5
 10
1.5748031496063
 20
1.59055118113418
 30
0.0
 40
0.177165354330709
 50
180.000000010289
 51
359.999999999998
  0
ARC
  8
5
  6
CONTINUOUS
 62
5
 10
1.57480314962619
 20
1.59055118111429
 30
0.0
 40
0.1771653543148
 50
6.42922412198526E-9
 51
90.0000000064301
  0
ARC
  8
5
  6
CONTINUOUS
 62
5
 10
1.07874015748208
 20
2.10236220474032
 30
0.0
 40
0.0787401574732443
 50
90.0000000012861
 51
180.000000011575
  0
ARC
  8
5
  6
CONTINUOUS
 62
5
 10
1.07874015747854
 20
1.07874015748208
 30
0.0
 40
0.0787401574803146
 50
180.000000001286
 51
270.000000011576
  0
ARC
  8
5
  6
CONTINUOUS
 62
5
 10
1.5748031496063
 20
1.25590551182304
 30
0.0
 40
0.0669291338582676
 50
180.000000010288
 51
359.999999999998
  0
ARC
  8
5
  6
CONTINUOUS
 62
5
 10
1.57480314961381
 20
1.25590551181553
 30
0.0
 40
0.0669291338522564
 50
6.42998109399944E-9
 51
90.0000000064308
  0
ARC
  8
5
  6
CONTINUOUS
 62
5
 10
1.5748031496063
 20
1.92519685040272
 30
0.0
 40
0.0669291338582676
 50
180.000000007717
 51
359.999999999998
  0
ARC
  8
5
  6
CONTINUOUS
 62
5
 10
1.5748031496078
 20
1.92519685040722
 30
0.0
 40
0.0669291338522585
 50
90.0000000012858
 51
180.000000011576
  0
LINE
  8
5
  6
CONTINUOUS
 62
5
 10
3.16651767356071
 20
2.50562733603172
 30
0.0
 11
3.16651767356071
 21
3.06037381284878
 31
0.0
  0
LINE
  8
5
  6
CONTINUOUS
 62
5
 10
3.16651767356071
 20
3.11037381284877
 30
0.0
 11
3.16651767356071
 21
3.52924938327582
 31
0.0
  0
LINE
  8
5
  6
CONTINUOUS
 62
5
 10
1.00440397277331
 20
2.50562733603172
 30
0.0
 11
1.00440397277331
 21
2.96056099420111
 31
0.0
  0
LINE
  8
5
  6
CONTINUOUS
 62
5
 10
1.00440397277331
 20
3.01056099420111
 30
0.0
 11
1.00440397277331
 21
3.52924938327582
 31
0.0
  0
LINE
  8
5
  6
CONTINUOUS
 62
5
 10
3.08777751608039
 20
2.42688717855141
 30
0.0
 11
1.08314413025362
 21
2.42688717855141
 31
0.0
  0
ARC
  8
5
  6
CONTINUOUS
 62
5
 10
3.08777751608923
 20
3.52924938328112
 30
0.0
 40
0.0787401574732445
 50
6.42879156654858E-9
 51
90.0000000064307
  0
ARC
  8
5
  6
CONTINUOUS
 62
5
 10
3.08777751608569
 20
2.50562733602288
 30
0.0
 40
0.0787401574732438
 50
270.000000006429
 51
1.67187892386126E-8
  0
ARC
  8
5
  6
CONTINUOUS
 62
5
 10
2.79250192553672
 20
3.3717690683197
 30
0.0
 40
0.0669291338522578
 50
6.42889334429838E-9
 51
90.0000000064303
  0
ARC
  8
5
  6
CONTINUOUS
 62
5
 10
2.79250192553071
 20
3.37176906832871
 30
0.0
 40
0.0669291338522577
 50
90.0000000012851
 51
180.000000011576
  0
ARC
  8
5
  6
CONTINUOUS
 62
5
 10
2.79250192553672
 20
2.66310765099686
 30
0.0
 40
0.0669291338522578
 50
6.42889334429838E-9
 51
90.0000000064303
  0
ARC
  8
5
  6
CONTINUOUS
 62
5
 10
2.79250192553071
 20
2.66310765100587
 30
0.0
 40
0.0669291338522586
 50
90.0000000012858
 51
180.000000011576
  0
ARC
  8
5
  6
CONTINUOUS
 62
5
 10
1.57920712237961
 20
3.01743835968559
 30
0.0
 40
0.177165354330709
 50
180.000000010288
 51
359.999999999998
  0
ARC
  8
5
  6
CONTINUOUS
 62
5
 10
1.5792071223995
 20
3.0174383596657
 30
0.0
 40
0.177165354314801
 50
6.4291986775478E-9
 51
90.0000000064303
  0
ARC
  8
5
  6
CONTINUOUS
 62
5
 10
1.08314413025539
 20
3.52924938329173
 30
0.0
 40
0.0787401574732442
 50
90.0000000012861
 51
180.000000011576
  0
ARC
  8
5
  6
CONTINUOUS
 62
5
 10
1.08314413025185
 20
2.50562733603349
 30
0.0
 40
0.0787401574803146
 50
180.000000001286
 51
270.000000011576
  0
ARC
  8
5
  6
CONTINUOUS
 62
5
 10
1.57920712237961
 20
2.68279269037445
 30
0.0
 40
0.0669291338582676
 50
180.000000010288
 51
359.999999999999
  0
ARC
  8
5
  6
CONTINUOUS
 62
5
 10
1.57920712238712
 20
2.68279269036694
 30
0.0
 40
0.0669291338522578
 50
6.42886789986093E-9
 51
90.0000000064296
  0
ARC
  8
5
  6
CONTINUOUS
 62
5
 10
1.57920712237961
 20
3.35208402895713
 30
0.0
 40
0.0669291338582676
 50
180.000000010288
 51
359.999999999999
  0
ARC
  8
5
  6
CONTINUOUS
 62
5
 10
1.57920712238111
 20
3.35208402895863
 30
0.0
 40
0.0669291338522577
 50
90.0000000012851
 51
180.000000011576
  0
LINE
  8
5
  6
CONTINUOUS
 62
5
 10
3.17092164633402
 20
3.93251451458313
 30
0.0
 11
3.17092164633402
 21
4.38504838389152
 31
0.0
  0
LINE
  8
5
  6
CONTINUOUS
 62
5
 10
3.17092164633402
 20
4.43504838389152
 30
0.0
 11
3.17092164633402
 21
4.95613656182722
 31
0.0
  0
LINE
  8
5
  6
CONTINUOUS
 62
5
 10
1.00880794554661
 20
3.93251451458313
 30
0.0
 11
1.00880794554661
 21
4.39473877429757
 31
0.0
  0
LINE
  8
5
  6
CONTINUOUS
 62
5
 10
1.00880794554661
 20
4.44473877429757
 30
0.0
 11
1.00880794554661
 21
4.95613656182722
 31
0.0
  0
LINE
  8
5
  6
CONTINUOUS
 62
5
 10
3.0921814888537
 20
3.85377435710281
 30
0.0
 11
1.08754810302693
 21
3.85377435710281
 31
0.0
  0
ARC
  8
5
  6
CONTINUOUS
 62
5
 10
3.09218148886254
 20
4.95613656183252
 30
0.0
 40
0.0787401574732445
 50
6.43072534379491E-9
 51
90.0000000064307
  0
ARC
  8
5
  6
CONTINUOUS
 62
5
 10
3.092181488859
 20
3.93251451457429
 30
0.0
 40
0.0787401574732438
 50
270.000000006427
 51
1.67181467665669E-8
  0
ARC
  8
5
  6
CONTINUOUS
 62
5
 10
2.79690589831003
 20
4.79865624687111
 30
0.0
 40
0.0669291338522577
 50
6.42959942743767E-9
 51
90.0000000064304
  0
ARC
  8
5
  6
CONTINUOUS
 62
5
 10
2.79690589830402
 20
4.79865624688012
 30
0.0
 40
0.0669291338522577
 50
90.0000000012851
 51
180.000000011576
  0
ARC
  8
5
  6
CONTINUOUS
 62
5
 10
2.79690589831003
 20
4.08999482954827
 30
0.0
 40
0.0669291338522577
 50
6.42959942743767E-9
 51
90.0000000064304
  0
ARC
  8
5
  6
CONTINUOUS
 62
5
 10
2.79690589830402
 20
4.08999482955728
 30
0.0
 40
0.0669291338522577
 50
90.0000000012851
 51
180.000000011576
  0
ARC
  8
5
  6
CONTINUOUS
 62
5
 10
1.58361109515291
 20
4.444325538237
 30
0.0
 40
0.177165354330709
 50
180.000000010288
 51
359.999999999998
  0
ARC
  8
5
  6
CONTINUOUS
 62
5
 10
1.5836110951728
 20
4.44432553821711
 30
0.0
 40
0.177165354314801
 50
6.42894423317329E-9
 51
90.0000000064301
  0
ARC
  8
5
  6
CONTINUOUS
 62
5
 10
1.0875481030287
 20
4.95613656184313
 30
0.0
 40
0.0787401574732442
 50
90.0000000012861
 51
180.000000011576
  0
ARC
  8
5
  6
CONTINUOUS
 62
5
 10
1.08754810302516
 20
3.9325145145849
 30
0.0
 40
0.0787401574803146
 50
180.000000001286
 51
270.000000011576
  0
ARC
  8
5
  6
CONTINUOUS
 62
5
 10
1.58361109515291
 20
4.10967986892586
 30
0.0
 40
0.0669291338582676
 50
180.000000010288
 51
359.999999999999
  0
ARC
  8
5
  6
CONTINUOUS
 62
5
 10
1.58361109516042
 20
4.10967986891835
 30
0.0
 40
0.0669291338522577
 50
6.42959942743767E-9
 51
90.0000000064304
  0
ARC
  8
5
  6
CONTINUOUS
 62
5
 10
1.58361109515291
 20
4.77897120750853
 30
0.0
 40
0.0669291338582676
 50
180.000000010288
 51
359.999999999999
  0
ARC
  8
5
  6
CONTINUOUS
 62
5
 10
1.58361109515441
 20
4.77897120751004
 30
0.0
 40
0.0669291338522577
 50
90.0000000012851
 51
180.000000011576
  0
LINE
  8
5
  6
CONTINUOUS
 62
5
 10
3.17532561910732
 20
5.35940169313454
 30
0.0
 11
3.17532561910732
 21
5.75139343114558
 31
0.0
  0
LINE
  8
5
  6
CONTINUOUS
 62
5
 10
3.17532561910732
 20
5.80139343114558
 30
0.0
 11
3.17532561910732
 21
6.38302374037863
 31
0.0
  0
LINE
  8
5
  6
CONTINUOUS
 62
5
 10
1.09195207580024
 20
6.46176389785895
 30
0.0
 11
3.09658546162701
 21
6.46176389785895
 31
0.0
  0
LINE
  8
5
  6
CONTINUOUS
 62
5
 10
1.01321191831992
 20
5.35940169313454
 30
0.0
 11
1.01321191831992
 21
5.76108382155164
 31
0.0
  0
LINE
  8
5
  6
CONTINUOUS
 62
5
 10
1.01321191831992
 20
5.81108382155164
 30
0.0
 11
1.01321191831992
 21
6.38302374037863
 31
0.0
  0
ARC
  8
5
  6
CONTINUOUS
 62
5
 10
3.09658546163585
 20
6.38302374038393
 30
0.0
 40
0.0787401574732445
 50
6.43072534379491E-9
 51
90.0000000064307
  0
ARC
  8
5
  6
CONTINUOUS
 62
5
 10
3.09658546163231
 20
5.3594016931257
 30
0.0
 40
0.0787401574732439
 50
270.000000006429
 51
1.67181340443482E-8
  0
ARC
  8
5
  6
CONTINUOUS
 62
5
 10
2.80130987108334
 20
6.22554342542251
 30
0.0
 40
0.0669291338522577
 50
6.42959942743767E-9
 51
90.0000000064304
  0
ARC
  8
5
  6
CONTINUOUS
 62
5
 10
2.80130987107733
 20
6.22554342543152
 30
0.0
 40
0.0669291338522577
 50
90.0000000012851
 51
180.000000011576
  0
ARC
  8
5
  6
CONTINUOUS
 62
5
 10
2.80130987108334
 20
5.51688200809968
 30
0.0
 40
0.0669291338522578
 50
6.43039456610803E-9
 51
90.0000000064303
  0
ARC
  8
5
  6
CONTINUOUS
 62
5
 10
2.80130987107733
 20
5.51688200810869
 30
0.0
 40
0.0669291338522576
 50
90.0000000012851
 51
180.000000011576
  0
ARC
  8
5
  6
CONTINUOUS
 62
5
 10
1.58801506792622
 20
5.8712127167884
 30
0.0
 40
0.177165354330709
 50
180.000000010288
 51
359.999999999998
  0
ARC
  8
5
  6
CONTINUOUS
 62
5
 10
1.5880150679302
 20
5.87121271679238
 30
0.0
 40
0.177165354314801
 50
90.0000000012853
 51
180.000000011576
  0
ARC
  8
5
  6
CONTINUOUS
 62
5
 10
1.09195207580201
 20
6.38302374039454
 30
0.0
 40
0.0787401574732442
 50
90.0000000012861
 51
180.000000011576
  0
ARC
  8
5
  6
CONTINUOUS
 62
5
 10
1.09195207579847
 20
5.35940169313631
 30
0.0
 40
0.0787401574803146
 50
180.000000001286
 51
270.000000011576
  0
ARC
  8
5
  6
CONTINUOUS
 62
5
 10
1.58801506792622
 20
5.53656704747726
 30
0.0
 40
0.0669291338582676
 50
180.000000010288
 51
359.999999999999
  0
ARC
  8
5
  6
CONTINUOUS
 62
5
 10
1.58801506792772
 20
5.53656704747877
 30
0.0
 40
0.0669291338522576
 50
90.0000000012851
 51
180.000000011576
  0
ARC
  8
5
  6
CONTINUOUS
 62
5
 10
1.58801506792622
 20
6.20585838605994
 30
0.0
 40
0.0669291338582676
 50
180.000000010288
 51
359.999999999999
  0
ARC
  8
5
  6
CONTINUOUS
 62
5
 10
1.58801506793373
 20
6.20585838605243
 30
0.0
 40
0.0669291338522577
 50
6.42959942743767E-9
 51
90.0000000064304
  0
LINE
  8
5
  6
CONTINUOUS
 62
5
 10
3.17972959188063
 20
6.78628887168594
 30
0.0
 11
3.17972959188063
 21
7.22433277286627
 31
0.0
  0
LINE
  8
5
  6
CONTINUOUS
 62
5
 10
3.17972959188063
 20
7.27433277286627
 30
0.0
 11
3.17972959188063
 21
7.80991091893004
 31
0.0
  0
LINE
  8
5
  6
CONTINUOUS
 62
5
 10
1.09635604857354
 20
7.88865107641035
 30
0.0
 11
3.10098943440031
 21
7.88865107641035
 31
0.0
  0
LINE
  8
5
  6
CONTINUOUS
 62
5
 10
1.01761589109323
 20
6.78628887168594
 30
0.0
 11
1.01761589109323
 21
7.21464238246021
 31
0.0
  0
LINE
  8
5
  6
CONTINUOUS
 62
5
 10
1.01761589109323
 20
7.26464238246022
 30
0.0
 11
1.01761589109323
 21
7.80991091893004
 31
0.0
  0
LINE
  8
5
  6
CONTINUOUS
 62
5
 10
3.10098943440032
 20
6.70754871420563
 30
0.0
 11
1.09635604857354
 21
6.70754871420563
 31
0.0
  0
ARC
  8
5
  6
CONTINUOUS
 62
5
 10
3.10098943440562
 20
6.7862888716771
 30
0.0
 40
0.0787401574732445
 50
270.000000006429
 51
1.67189291830186E-8
  0
ARC
  8
5
  6
CONTINUOUS
 62
5
 10
2.80571384384913
 20
7.65243060398143
 30
0.0
 40
0.0669291338582676
 50
180.000000010288
 51
359.999999999999
  0
ARC
  8
5
  6
CONTINUOUS
 62
5
 10
2.80571384385063
 20
7.65243060398293
 30
0.0
 40
0.0669291338522577
 50
90.0000000012851
 51
180.000000011576
  0
ARC
  8
5
  6
CONTINUOUS
 62
5
 10
2.80571384385664
 20
6.94376918665108
 30
0.0
 40
0.0669291338522571
 50
6.43059812160765E-9
 51
90.0000000064309
  0
ARC
  8
5
  6
CONTINUOUS
 62
5
 10
2.80571384385063
 20
6.94376918666009
 30
0.0
 40
0.0669291338522577
 50
90.0000000012851
 51
180.000000011576
  0
ARC
  8
5
  6
CONTINUOUS
 62
5
 10
1.59241904069953
 20
7.29809989533981
 30
0.0
 40
0.177165354330709
 50
180.000000010288
 51
359.999999999999
  0
ARC
  8
5
  6
CONTINUOUS
 62
5
 10
1.59241904071942
 20
7.29809989531992
 30
0.0
 40
0.177165354314801
 50
6.42894423317329E-9
 51
90.0000000064301
  0
ARC
  8
5
  6
CONTINUOUS
 62
5
 10
1.09635604857531
 20
7.80991091894595
 30
0.0
 40
0.0787401574732442
 50
90.0000000012858
 51
180.000000011576
  0
ARC
  8
5
  6
CONTINUOUS
 62
5
 10
1.09635604857177
 20
6.78628887168771
 30
0.0
 40
0.0787401574803146
 50
180.000000001286
 51
270.000000011576
  0
ARC
  8
5
  6
CONTINUOUS
 62
5
 10
1.59241904069953
 20
6.96345422602867
 30
0.0
 40
0.0669291338582676
 50
180.000000010288
 51
359.999999999999
  0
ARC
  8
5
  6
CONTINUOUS
 62
5
 10
1.59241904070704
 20
6.96345422602116
 30
0.0
 40
0.0669291338522571
 50
6.43059812160765E-9
 51
90.0000000064309
  0
ARC
  8
5
  6
CONTINUOUS
 62
5
 10
1.59241904069953
 20
7.63274556461135
 30
0.0
 40
0.0669291338582676
 50
180.000000010288
 51
359.999999999999
  0
ARC
  8
5
  6
CONTINUOUS
 62
5
 10
1.59241904070103
 20
7.63274556461285
 30
0.0
 40
0.0669291338522577
 50
90.0000000012851
 51
180.000000011576
  0
LINE
  8
5
  6
CONTINUOUS
 62
5
 10
3.18413356465394
 20
8.21317605023735
 30
0.0
 11
3.18413356465394
 21
8.62943938174456
 31
0.0
  0
LINE
  8
5
  6
CONTINUOUS
 62
5
 10
3.18413356465394
 20
8.67943938174456
 30
0.0
 11
3.18413356465394
 21
9.23679809748145
 31
0.0
  0
LINE
  8
5
  6
CONTINUOUS
 62
5
 10
1.10076002134685
 20
9.31553825496176
 30
0.0
 11
3.10539340717362
 21
9.31553825496176
 31
0.0
  0
LINE
  8
5
  6
CONTINUOUS
 62
5
 10
1.02201986386654
 20
8.21317605023735
 30
0.0
 11
1.02201986386654
 21
8.64882016255668
 31
0.0
  0
LINE
  8
5
  6
CONTINUOUS
 62
5
 10
1.02201986386654
 20
8.69882016255668
 30
0.0
 11
1.02201986386654
 21
9.23679809748145
 31
0.0
  0
LINE
  8
5
  6
CONTINUOUS
 62
5
 10
3.10539340717362
 20
8.13443589275704
 30
0.0
 11
1.10076002134685
 21
8.13443589275704
 31
0.0
  0
ARC
  8
5
  6
CONTINUOUS
 62
5
 10
3.10539340718246
 20
9.23679809748675
 30
0.0
 40
0.0787401574732442
 50
6.43113245479413E-9
 51
90.0000000064309
  0
ARC
  8
5
  6
CONTINUOUS
 62
5
 10
2.81011781662995
 20
9.07931778252533
 30
0.0
 40
0.0669291338522579
 50
6.42973301073429E-9
 51
90.0000000064303
  0
ARC
  8
5
  6
CONTINUOUS
 62
5
 10
2.81011781662394
 20
9.07931778253434
 30
0.0
 40
0.0669291338522583
 50
90.0000000012857
 51
180.000000011576
  0
ARC
  8
5
  6
CONTINUOUS
 62
5
 10
2.81011781662995
 20
8.37065636520249
 30
0.0
 40
0.0669291338522578
 50
6.42963123298448E-9
 51
90.0000000064303
  0
ARC
  8
5
  6
CONTINUOUS
 62
5
 10
2.81011781662394
 20
8.3706563652115
 30
0.0
 40
0.0669291338522583
 50
90.0000000012857
 51
180.000000011576
  0
ARC
  8
5
  6
CONTINUOUS
 62
5
 10
1.59682301349272
 20
8.72498707387133
 30
0.0
 40
0.177165354314799
 50
6.42904601092309E-9
 51
90.0000000064303
  0
ARC
  8
5
  6
CONTINUOUS
 62
5
 10
1.59682301347681
 20
8.7249870738952
 30
0.0
 40
0.177165354314801
 50
90.0000000012853
 51
180.000000011576
  0
ARC
  8
5
  6
CONTINUOUS
 62
5
 10
1.10076002134862
 20
9.23679809749736
 30
0.0
 40
0.0787401574732439
 50
90.0000000012852
 51
180.000000011576
  0
ARC
  8
5
  6
CONTINUOUS
 62
5
 10
1.10076002134508
 20
8.21317605023912
 30
0.0
 40
0.0787401574803146
 50
180.000000001286
 51
270.000000011576
  0
ARC
  8
5
  6
CONTINUOUS
 62
5
 10
1.59682301347283
 20
8.39034140458008
 30
0.0
 40
0.0669291338582676
 50
180.000000010288
 51
359.999999999998
  0
ARC
  8
5
  6
CONTINUOUS
 62
5
 10
1.59682301347433
 20
8.39034140458158
 30
0.0
 40
0.0669291338522583
 50
90.0000000012857
 51
180.000000011576
  0
ARC
  8
5
  6
CONTINUOUS
 62
5
 10
1.59682301348034
 20
9.05963274315525
 30
0.0
 40
0.0669291338522572
 50
6.43064264937319E-9
 51
90.0000000064314
  0
ARC
  8
5
  6
CONTINUOUS
 62
5
 10
1.59682301347433
 20
9.05963274316426
 30
0.0
 40
0.0669291338522567
 50
90.0000000012841
 51
180.000000011574
  0
LINE
  8
5
  6
CONTINUOUS
 62
5
 10
3.57657075649051
 20
1.09787533225483
 30
0.0
 11
3.57657075649051
 21
1.44748163146742
 31
0.0
  0
LINE
  8
5
  6
CONTINUOUS
 62
5
 10
3.57657075649051
 20
1.77189108028632
 30
0.0
 11
3.57657075649051
 21
2.12149737949892
 31
0.0
  0
LINE
  8
5
  6
CONTINUOUS
 62
5
 10
4.1749959533409
 20
1.52622178894774
 30
0.0
 11
4.1749959533409
 21
1.69315092280601
 31
0.0
  0
LINE
  8
5
  6
CONTINUOUS
 62
5
 10
3.65531091397083
 20
1.52622178894774
 30
0.0
 11
4.1749959533409
 21
1.52622178894774
 31
0.0
  0
LINE
  8
5
  6
CONTINUOUS
 62
5
 10
4.1749959533409
 20
1.69315092280601
 30
0.0
 11
3.65531091397082
 21
1.69315092280601
 31
0.0
  0
LINE
  8
5
  6
CONTINUOUS
 62
5
 10
3.65531091397083
 20
1.01913517477451
 30
0.0
 11
4.43108597846339
 21
1.01913517477451
 31
0.0
  0
LINE
  8
5
  6
CONTINUOUS
 62
5
 10
4.48108597846339
 20
1.01913517477451
 30
0.0
 11
5.6599442997976
 21
1.01913517477451
 31
0.0
  0
LINE
  8
5
  6
CONTINUOUS
 62
5
 10
5.73868445727791
 20
1.09787533225483
 30
0.0
 11
5.73868445727791
 21
2.12149737949892
 31
0.0
  0
LINE
  8
5
  6
CONTINUOUS
 62
5
 10
5.6599442997976
 20
2.20023753697923
 30
0.0
 11
4.46478226197287
 21
2.20023753697924
 31
0.0
  0
LINE
  8
5
  6
CONTINUOUS
 62
5
 10
4.41478226197287
 20
2.20023753697924
 30
0.0
 11
3.65531091397083
 21
2.20023753697924
 31
0.0
  0
ARC
  8
5
  6
CONTINUOUS
 62
5
 10
5.65994429980644
 20
2.12149737950422
 30
0.0
 40
0.0787401574732419
 50
6.4320993434173E-9
 51
90.0000000064319
  0
ARC
  8
5
  6
CONTINUOUS
 62
5
 10
3.79192508720368
 20
2.00338714327094
 30
0.0
 40
0.0669291338522573
 50
270.000000006428
 51
1.67194698773144E-8
  0
ARC
  8
5
  6
CONTINUOUS
 62
5
 10
3.79192508720668
 20
2.00338714328296
 30
0.0
 40
0.066929133852258
 50
6.4298347884841E-9
 51
90.0000000064298
  0
ARC
  8
5
  6
CONTINUOUS
 62
5
 10
3.79192508719767
 20
2.00338714327995
 30
0.0
 40
0.0669291338582667
 50
180.000000001286
 51
270.000000011576
  0
ARC
  8
5
  6
CONTINUOUS
 62
5
 10
3.79192508720368
 20
1.21598556846779
 30
0.0
 40
0.0669291338522587
 50
270.00000000643
 51
1.67199596827354E-8
  0
ARC
  8
5
  6
CONTINUOUS
 62
5
 10
3.79192508720668
 20
1.21598556847981
 30
0.0
 40
0.0669291338522569
 50
6.43194667679259E-9
 51
90.0000000064315
  0
ARC
  8
5
  6
CONTINUOUS
 62
5
 10
3.79192508719767
 20
1.2159855684768
 30
0.0
 40
0.0669291338582666
 50
180.000000001286
 51
270.000000011576
  0
ARC
  8
5
  6
CONTINUOUS
 62
5
 10
5.05364508720368
 20
1.9443320251607
 30
0.0
 40
0.066929133852259
 50
270.000000006429
 51
1.67197561272358E-8
  0
ARC
  8
5
  6
CONTINUOUS
 62
5
 10
5.05364508720067
 20
1.94433202518173
 30
0.0
 40
0.066929133852257
 50
90.0000000012853
 51
180.000000011575
  0
ARC
  8
5
  6
CONTINUOUS
 62
5
 10
5.05364508719767
 20
1.94433202516971
 30
0.0
 40
0.0669291338582677
 50
180.000000001286
 51
270.000000011574
  0
ARC
  8
5
  6
CONTINUOUS
 62
5
 10
3.6553109139726
 20
2.12149737951483
 30
0.0
 40
0.0787401574732443
 50
90.0000000012855
 51
180.000000011575
  0
ARC
  8
5
  6
CONTINUOUS
 62
5
 10
3.65531091396906
 20
1.0978753322566
 30
0.0
 40
0.0787401574803148
 50
180.000000001286
 51
270.000000011575
  0
ARC
  8
5
  6
CONTINUOUS
 62
5
 10
3.65531091397259
 20
1.44748163148333
 30
0.0
 40
0.0787401574732441
 50
90.0000000012859
 51
180.000000011577
  0
ARC
  8
5
  6
CONTINUOUS
 62
5
 10
3.65531091396906
 20
1.77189108028809
 30
0.0
 40
0.0787401574803148
 50
180.000000001286
 51
270.000000011576
  0
ARC
  8
5
  6
CONTINUOUS
 62
5
 10
5.05364508721906
 20
1.60968635588881
 30
0.0
 40
0.1771653543148
 50
6.43047089942039E-9
 51
90.0000000064309
  0
ARC
  8
5
  6
CONTINUOUS
 62
5
 10
5.05364508720315
 20
1.60968635591267
 30
0.0
 40
0.1771653543148
 50
90.0000000012858
 51
180.000000011576
  0
ARC
  8
5
  6
CONTINUOUS
 62
5
 10
5.05364508719519
 20
1.60968635588085
 30
0.0
 40
0.177165354330709
 50
180.000000001285
 51
270.000000011576
  0
ARC
  8
5
  6
CONTINUOUS
 62
5
 10
5.05364508720668
 20
1.27504068659004
 30
0.0
 40
0.0669291338522576
 50
6.43097978816942E-9
 51
90.0000000064305
  0
ARC
  8
5
  6
CONTINUOUS
 62
5
 10
5.05364508720067
 20
1.27504068659905
 30
0.0
 40
0.0669291338522583
 50
90.0000000012864
 51
180.000000011576
  0
ARC
  8
5
  6
CONTINUOUS
 62
5
 10
5.05364508719767
 20
1.27504068658703
 30
0.0
 40
0.0669291338582678
 50
180.000000001284
 51
270.000000011574
  0
LINE
  8
5
  6
CONTINUOUS
 62
5
 10
3.57657075649051
 20
2.53581582757184
 30
0.0
 11
3.57657075649051
 21
2.88542212678444
 31
0.0
  0
LINE
  8
5
  6
CONTINUOUS
 62
5
 10
3.57657075649051
 20
3.20983157560333
 30
0.0
 11
3.57657075649051
 21
3.55943787481593
 31
0.0
  0
LINE
  8
5
  6
CONTINUOUS
 62
5
 10
4.1749959533409
 20
2.96416228426475
 30
0.0
 11
4.1749959533409
 21
3.13109141812302
 31
0.0
  0
LINE
  8
5
  6
CONTINUOUS
 62
5
 10
3.65531091397083
 20
2.96416228426475
 30
0.0
 11
4.1749959533409
 21
2.96416228426475
 31
0.0
  0
LINE
  8
5
  6
CONTINUOUS
 62
5
 10
4.1749959533409
 20
3.13109141812302
 30
0.0
 11
3.65531091397082
 21
3.13109141812302
 31
0.0
  0
LINE
  8
5
  6
CONTINUOUS
 62
5
 10
3.65531091397083
 20
2.45707567009152
 30
0.0
 11
4.74076164549339
 21
2.45707567009152
 31
0.0
  0
LINE
  8
5
  6
CONTINUOUS
 62
5
 10
4.79076164549339
 20
2.45707567009152
 30
0.0
 11
5.6599442997976
 21
2.45707567009152
 31
0.0
  0
LINE
  8
5
  6
CONTINUOUS
 62
5
 10
5.73868445727791
 20
2.53581582757184
 30
0.0
 11
5.73868445727791
 21
3.55943787481593
 31
0.0
  0
LINE
  8
5
  6
CONTINUOUS
 62
5
 10
5.6599442997976
 20
3.63817803229624
 30
0.0
 11
4.82740696614728
 21
3.63817803229624
 31
0.0
  0
LINE
  8
5
  6
CONTINUOUS
 62
5
 10
4.77740696614728
 20
3.63817803229624
 30
0.0
 11
3.65531091397083
 21
3.63817803229625
 31
0.0
  0
ARC
  8
5
  6
CONTINUOUS
 62
5
 10
3.79192508720368
 20
3.44132763858795
 30
0.0
 40
0.0669291338522574
 50
270.000000006429
 51
1.67195652939549E-8
  0
ARC
  8
5
  6
CONTINUOUS
 62
5
 10
3.79192508720668
 20
3.44132763859997
 30
0.0
 40
0.066929133852258
 50
6.43059812160765E-9
 51
90.0000000064306
  0
ARC
  8
5
  6
CONTINUOUS
 62
5
 10
3.79192508719767
 20
3.44132763859696
 30
0.0
 40
0.0669291338582668
 50
180.000000001286
 51
270.000000011576
  0
ARC
  8
5
  6
CONTINUOUS
 62
5
 10
3.79192508720368
 20
2.6539260637848
 30
0.0
 40
0.0669291338522574
 50
270.000000006429
 51
1.67195652939549E-8
  0
ARC
  8
5
  6
CONTINUOUS
 62
5
 10
3.79192508720668
 20
2.65392606379682
 30
0.0
 40
0.066929133852258
 50
6.43059812160765E-9
 51
90.0000000064306
  0
ARC
  8
5
  6
CONTINUOUS
 62
5
 10
3.79192508719767
 20
2.65392606379381
 30
0.0
 40
0.0669291338582668
 50
180.000000001286
 51
270.000000011576
  0
ARC
  8
5
  6
CONTINUOUS
 62
5
 10
5.05364508720368
 20
3.38227252047771
 30
0.0
 40
0.0669291338522576
 50
270.000000006428
 51
1.6719374460674E-8
  0
ARC
  8
5
  6
CONTINUOUS
 62
5
 10
5.05364508720668
 20
3.38227252048973
 30
0.0
 40
0.0669291338522577
 50
6.42959942743767E-9
 51
90.0000000064304
  0
ARC
  8
5
  6
CONTINUOUS
 62
5
 10
5.05364508719767
 20
3.38227252048672
 30
0.0
 40
0.0669291338582675
 50
180.000000001285
 51
270.000000011575
  0
ARC
  8
5
  6
CONTINUOUS
 62
5
 10
3.6553109139726
 20
3.55943787483184
 30
0.0
 40
0.0787401574732443
 50
90.0000000012855
 51
180.000000011576
  0
ARC
  8
5
  6
CONTINUOUS
 62
5
 10
3.65531091396906
 20
2.53581582757361
 30
0.0
 40
0.0787401574803149
 50
180.000000001286
 51
270.000000011576
  0
ARC
  8
5
  6
CONTINUOUS
 62
5
 10
3.65531091397259
 20
2.88542212680035
 30
0.0
 40
0.0787401574732439
 50
90.0000000012858
 51
180.000000011576
  0
ARC
  8
5
  6
CONTINUOUS
 62
5
 10
3.65531091396906
 20
3.2098315756051
 30
0.0
 40
0.0787401574803149
 50
180.000000001286
 51
270.000000011576
  0
ARC
  8
5
  6
CONTINUOUS
 62
5
 10
5.6599442998029
 20
2.535815827563
 30
0.0
 40
0.078740157473245
 50
270.000000006429
 51
1.67198579049856E-8
  0
ARC
  8
5
  6
CONTINUOUS
 62
5
 10
5.0536450872111
 20
3.04762685117399
 30
0.0
 40
0.177165354314801
 50
270.000000006428
 51
1.67195462106268E-8
  0
ARC
  8
5
  6
CONTINUOUS
 62
5
 10
5.05364508721906
 20
3.04762685120581
 30
0.0
 40
0.1771653543148
 50
6.42973301073429E-9
 51
90.0000000064305
  0
ARC
  8
5
  6
CONTINUOUS
 62
5
 10
5.05364508720315
 20
3.04762685122967
 30
0.0
 40
0.177165354314801
 50
90.0000000012857
 51
180.000000011576
  0
ARC
  8
5
  6
CONTINUOUS
 62
5
 10
5.05364508720368
 20
2.71298118189504
 30
0.0
 40
0.0669291338522574
 50
270.000000006428
 51
1.6719584377283E-8
  0
ARC
  8
5
  6
CONTINUOUS
 62
5
 10
5.05364508720067
 20
2.71298118191607
 30
0.0
 40
0.0669291338522576
 50
90.0000000012858
 51
180.000000011576
  0
ARC
  8
5
  6
CONTINUOUS
 62
5
 10
5.05364508719767
 20
2.71298118190405
 30
0.0
 40
0.0669291338582675
 50
180.000000001285
 51
270.000000011575
  0
LINE
  8
5
  6
CONTINUOUS
 62
5
 10
3.57657075649051
 20
3.97375632288885
 30
0.0
 11
3.57657075649051
 21
4.32336262210145
 31
0.0
  0
LINE
  8
5
  6
CONTINUOUS
 62
5
 10
3.57657075649051
 20
4.64777207092035
 30
0.0
 11
3.57657075649051
 21
4.99737837013294
 31
0.0
  0
LINE
  8
5
  6
CONTINUOUS
 62
5
 10
4.1749959533409
 20
4.40210277958176
 30
0.0
 11
4.1749959533409
 21
4.56903191344003
 31
0.0
  0
LINE
  8
5
  6
CONTINUOUS
 62
5
 10
3.65531091397083
 20
4.40210277958176
 30
0.0
 11
4.1749959533409
 21
4.40210277958176
 31
0.0
  0
LINE
  8
5
  6
CONTINUOUS
 62
5
 10
4.1749959533409
 20
4.56903191344003
 30
0.0
 11
3.65531091397082
 21
4.56903191344003
 31
0.0
  0
LINE
  8
5
  6
CONTINUOUS
 62
5
 10
3.65531091397083
 20
3.89501616540854
 30
0.0
 11
4.41761654518184
 21
3.89501616540854
 31
0.0
  0
LINE
  8
5
  6
CONTINUOUS
 62
5
 10
4.46761654518184
 20
3.89501616540854
 30
0.0
 11
5.6599442997976
 21
3.89501616540854
 31
0.0
  0
LINE
  8
5
  6
CONTINUOUS
 62
5
 10
5.73868445727791
 20
3.97375632288885
 30
0.0
 11
5.73868445727791
 21
4.99737837013294
 31
0.0
  0
LINE
  8
5
  6
CONTINUOUS
 62
5
 10
5.6599442997976
 20
5.07611852761326
 30
0.0
 11
4.45434426384556
 21
5.07611852761326
 31
0.0
  0
LINE
  8
5
  6
CONTINUOUS
 62
5
 10
4.40434426384556
 20
5.07611852761326
 30
0.0
 11
3.65531091397083
 21
5.07611852761326
 31
0.0
  0
ARC
  8
5
  6
CONTINUOUS
 62
5
 10
5.65994429980644
 20
4.99737837013824
 30
0.0
 40
0.0787401574732427
 50
6.43197212123004E-9
 51
90.000000006432
  0
ARC
  8
5
  6
CONTINUOUS
 62
5
 10
3.79192508720668
 20
4.87926813391698
 30
0.0
 40
0.0669291338522578
 50
6.43039456610803E-9
 51
90.0000000064303
  0
ARC
  8
5
  6
CONTINUOUS
 62
5
 10
3.79192508720067
 20
4.87926813392599
 30
0.0
 40
0.0669291338522577
 50
90.0000000012855
 51
180.000000011576
  0
ARC
  8
5
  6
CONTINUOUS
 62
5
 10
3.79192508719767
 20
4.87926813391397
 30
0.0
 40
0.0669291338582675
 50
180.000000001285
 51
270.000000011576
  0
ARC
  8
5
  6
CONTINUOUS
 62
5
 10
3.79192508720668
 20
4.09186655911383
 30
0.0
 40
0.0669291338522578
 50
6.43039456610803E-9
 51
90.0000000064303
  0
ARC
  8
5
  6
CONTINUOUS
 62
5
 10
3.79192508720067
 20
4.09186655912284
 30
0.0
 40
0.0669291338522577
 50
90.0000000012855
 51
180.000000011576
  0
ARC
  8
5
  6
CONTINUOUS
 62
5
 10
3.79192508719767
 20
4.09186655911082
 30
0.0
 40
0.0669291338582675
 50
180.000000001285
 51
270.000000011576
  0
ARC
  8
5
  6
CONTINUOUS
 62
5
 10
5.05364508720368
 20
4.82021301579473
 30
0.0
 40
0.0669291338522576
 50
270.000000006428
 51
1.6719374460674E-8
  0
ARC
  8
5
  6
CONTINUOUS
 62
5
 10
5.05364508720668
 20
4.82021301580675
 30
0.0
 40
0.0669291338522577
 50
6.42959942743767E-9
 51
90.0000000064304
  0
ARC
  8
5
  6
CONTINUOUS
 62
5
 10
5.05364508719767
 20
4.82021301580374
 30
0.0
 40
0.0669291338582664
 50
180.000000001285
 51
270.000000011575
  0
ARC
  8
5
  6
CONTINUOUS
 62
5
 10
3.6553109139726
 20
4.99737837014885
 30
0.0
 40
0.0787401574732449
 50
90.0000000012862
 51
180.000000011576
  0
ARC
  8
5
  6
CONTINUOUS
 62
5
 10
3.65531091396906
 20
3.97375632289062
 30
0.0
 40
0.0787401574803149
 50
180.000000001286
 51
270.000000011576
  0
ARC
  8
5
  6
CONTINUOUS
 62
5
 10
3.65531091397259
 20
4.32336262211736
 30
0.0
 40
0.0787401574732445
 50
90.0000000012853
 51
180.000000011576
  0
ARC
  8
5
  6
CONTINUOUS
 62
5
 10
3.65531091396906
 20
4.64777207092212
 30
0.0
 40
0.0787401574803149
 50
180.000000001286
 51
270.000000011576
  0
ARC
  8
5
  6
CONTINUOUS
 62
5
 10
5.0536450872111
 20
4.48556734649101
 30
0.0
 40
0.177165354314801
 50
270.000000006429
 51
1.67196098217204E-8
  0
ARC
  8
5
  6
CONTINUOUS
 62
5
 10
5.05364508721906
 20
4.48556734652283
 30
0.0
 40
0.177165354314801
 50
6.429885677359E-9
 51
90.0000000064306
  0
ARC
  8
5
  6
CONTINUOUS
 62
5
 10
5.05364508720315
 20
4.48556734654669
 30
0.0
 40
0.177165354314801
 50
90.0000000012857
 51
180.000000011576
  0
ARC
  8
5
  6
CONTINUOUS
 62
5
 10
5.05364508720368
 20
4.15092167721205
 30
0.0
 40
0.0669291338522576
 50
270.000000006428
 51
1.6719374460674E-8
  0
ARC
  8
5
  6
CONTINUOUS
 62
5
 10
5.05364508720067
 20
4.15092167723308
 30
0.0
 40
0.0669291338522576
 50
90.0000000012858
 51
180.000000011576
  0
ARC
  8
5
  6
CONTINUOUS
 62
5
 10
5.05364508719767
 20
4.15092167722106
 30
0.0
 40
0.0669291338582664
 50
180.000000001284
 51
270.000000011575
  0
LINE
  8
5
  6
CONTINUOUS
 62
5
 10
3.57657075649051
 20
5.41169681820586
 30
0.0
 11
3.57657075649051
 21
5.76130311741846
 31
0.0
  0
LINE
  8
5
  6
CONTINUOUS
 62
5
 10
3.57657075649051
 20
6.08571256623736
 30
0.0
 11
3.57657075649051
 21
6.43531886544996
 31
0.0
  0
LINE
  8
5
  6
CONTINUOUS
 62
5
 10
4.1749959533409
 20
5.84004327489878
 30
0.0
 11
4.1749959533409
 21
6.00697240875704
 31
0.0
  0
LINE
  8
5
  6
CONTINUOUS
 62
5
 10
3.65531091397083
 20
5.84004327489878
 30
0.0
 11
4.1749959533409
 21
5.84004327489878
 31
0.0
  0
LINE
  8
5
  6
CONTINUOUS
 62
5
 10
4.1749959533409
 20
6.00697240875704
 30
0.0
 11
3.65531091397082
 21
6.00697240875704
 31
0.0
  0
LINE
  8
5
  6
CONTINUOUS
 62
5
 10
3.65531091397083
 20
5.33295666072555
 30
0.0
 11
4.80868874664205
 21
5.33295666072555
 31
0.0
  0
LINE
  8
5
  6
CONTINUOUS
 62
5
 10
4.85868874664205
 20
5.33295666072555
 30
0.0
 11
5.6599442997976
 21
5.33295666072555
 31
0.0
  0
LINE
  8
5
  6
CONTINUOUS
 62
5
 10
5.6599442997976
 20
6.51405902293027
 30
0.0
 11
4.87384962734018
 21
6.51405902293027
 31
0.0
  0
LINE
  8
5
  6
CONTINUOUS
 62
5
 10
4.82384962734018
 20
6.51405902293027
 30
0.0
 11
3.65531091397083
 21
6.51405902293027
 31
0.0
  0
ARC
  8
5
  6
CONTINUOUS
 62
5
 10
5.65994429980644
 20
6.43531886545526
 30
0.0
 40
0.0787401574732422
 50
6.43230289891691E-9
 51
90.0000000064324
  0
ARC
  8
5
  6
CONTINUOUS
 62
5
 10
3.79192508720368
 20
6.31720862922197
 30
0.0
 40
0.0669291338522577
 50
270.000000006429
 51
1.67201250715788E-8
  0
ARC
  8
5
  6
CONTINUOUS
 62
5
 10
3.79192508720067
 20
6.317208629243
 30
0.0
 40
0.0669291338522577
 50
90.0000000012858
 51
180.000000011576
  0
ARC
  8
5
  6
CONTINUOUS
 62
5
 10
3.79192508719767
 20
6.31720862923098
 30
0.0
 40
0.0669291338582675
 50
180.000000001285
 51
270.000000011576
  0
ARC
  8
5
  6
CONTINUOUS
 62
5
 10
3.79192508720668
 20
5.52980705443085
 30
0.0
 40
0.0669291338522578
 50
6.43039456610803E-9
 51
90.0000000064303
  0
ARC
  8
5
  6
CONTINUOUS
 62
5
 10
3.79192508720067
 20
5.52980705443986
 30
0.0
 40
0.0669291338522577
 50
90.0000000012855
 51
180.000000011576
  0
ARC
  8
5
  6
CONTINUOUS
 62
5
 10
3.79192508719767
 20
5.52980705442784
 30
0.0
 40
0.0669291338582675
 50
180.000000001286
 51
270.000000011576
  0
ARC
  8
5
  6
CONTINUOUS
 62
5
 10
5.05364508720368
 20
6.25815351111174
 30
0.0
 40
0.0669291338522576
 50
270.000000006428
 51
1.6719374460674E-8
  0
ARC
  8
5
  6
CONTINUOUS
 62
5
 10
5.05364508720668
 20
6.25815351112376
 30
0.0
 40
0.0669291338522577
 50
6.42959942743767E-9
 51
90.0000000064304
  0
ARC
  8
5
  6
CONTINUOUS
 62
5
 10
5.05364508719767
 20
6.25815351112075
 30
0.0
 40
0.0669291338582664
 50
180.000000001285
 51
270.000000011575
  0
ARC
  8
5
  6
CONTINUOUS
 62
5
 10
3.65531091397259
 20
6.43531886546587
 30
0.0
 40
0.0787401574732445
 50
90.0000000012857
 51
180.000000011576
  0
ARC
  8
5
  6
CONTINUOUS
 62
5
 10
3.65531091396906
 20
5.41169681820763
 30
0.0
 40
0.0787401574803149
 50
180.000000001286
 51
270.000000011576
  0
ARC
  8
5
  6
CONTINUOUS
 62
5
 10
3.65531091397259
 20
5.76130311743437
 30
0.0
 40
0.0787401574732445
 50
90.0000000012853
 51
180.000000011576
  0
ARC
  8
5
  6
CONTINUOUS
 62
5
 10
3.65531091396906
 20
6.08571256623913
 30
0.0
 40
0.0787401574803146
 50
180.000000001286
 51
270.000000011576
  0
ARC
  8
5
  6
CONTINUOUS
 62
5
 10
5.6599442998029
 20
5.41169681819702
 30
0.0
 40
0.0787401574732444
 50
270.000000006428
 51
1.67183884887227E-8
  0
ARC
  8
5
  6
CONTINUOUS
 62
5
 10
5.0536450872111
 20
5.92350784180802
 30
0.0
 40
0.177165354314801
 50
270.000000006429
 51
1.67196098217204E-8
  0
ARC
  8
5
  6
CONTINUOUS
 62
5
 10
5.05364508721906
 20
5.92350784183984
 30
0.0
 40
0.177165354314801
 50
6.429885677359E-9
 51
90.0000000064306
  0
ARC
  8
5
  6
CONTINUOUS
 62
5
 10
5.05364508720315
 20
5.9235078418637
 30
0.0
 40
0.177165354314801
 50
90.0000000012857
 51
180.000000011576
  0
ARC
  8
5
  6
CONTINUOUS
 62
5
 10
5.05364508720368
 20
5.58886217252906
 30
0.0
 40
0.0669291338522576
 50
270.000000006428
 51
1.6719374460674E-8
  0
ARC
  8
5
  6
CONTINUOUS
 62
5
 10
5.05364508720067
 20
5.58886217255009
 30
0.0
 40
0.0669291338522576
 50
90.0000000012858
 51
180.000000011576
  0
ARC
  8
5
  6
CONTINUOUS
 62
5
 10
5.05364508719767
 20
5.58886217253807
 30
0.0
 40
0.0669291338582664
 50
180.000000001284
 51
270.000000011575
  0
LINE
  8
5
  6
CONTINUOUS
 62
5
 10
3.57657075649051
 20
6.84963731352288
 30
0.0
 11
3.57657075649051
 21
7.19924361273547
 31
0.0
  0
LINE
  8
5
  6
CONTINUOUS
 62
5
 10
3.57657075649051
 20
7.52365306155437
 30
0.0
 11
3.57657075649051
 21
7.87325936076697
 31
0.0
  0
LINE
  8
5
  6
CONTINUOUS
 62
5
 10
4.1749959533409
 20
7.27798377021579
 30
0.0
 11
4.1749959533409
 21
7.44491290407406
 31
0.0
  0
LINE
  8
5
  6
CONTINUOUS
 62
5
 10
3.65531091397083
 20
7.27798377021579
 30
0.0
 11
4.1749959533409
 21
7.27798377021579
 31
0.0
  0
LINE
  8
5
  6
CONTINUOUS
 62
5
 10
4.1749959533409
 20
7.44491290407406
 30
0.0
 11
3.65531091397082
 21
7.44491290407406
 31
0.0
  0
LINE
  8
5
  6
CONTINUOUS
 62
5
 10
3.65531091397083
 20
6.77089715604256
 30
0.0
 11
4.39808712738366
 21
6.77089715604256
 31
0.0
  0
LINE
  8
5
  6
CONTINUOUS
 62
5
 10
4.44808712738366
 20
6.77089715604256
 30
0.0
 11
5.6599442997976
 21
6.77089715604256
 31
0.0
  0
LINE
  8
5
  6
CONTINUOUS
 62
5
 10
5.73868445727791
 20
6.84963731352288
 30
0.0
 11
5.73868445727791
 21
7.87325936076697
 31
0.0
  0
LINE
  8
5
  6
CONTINUOUS
 62
5
 10
5.6599442997976
 20
7.95199951824728
 30
0.0
 11
4.39233251429412
 21
7.95199951824728
 31
0.0
  0
LINE
  8
5
  6
CONTINUOUS
 62
5
 10
4.34233251429412
 20
7.95199951824728
 30
0.0
 11
3.65531091397083
 21
7.95199951824728
 31
0.0
  0
ARC
  8
5
  6
CONTINUOUS
 62
5
 10
3.79192508720368
 20
7.75514912453899
 30
0.0
 40
0.0669291338522574
 50
270.000000006429
 51
1.67195652939549E-8
  0
ARC
  8
5
  6
CONTINUOUS
 62
5
 10
3.79192508720668
 20
7.75514912455101
 30
0.0
 40
0.066929133852258
 50
6.4298347884841E-9
 51
90.0000000064306
  0
ARC
  8
5
  6
CONTINUOUS
 62
5
 10
3.79192508720067
 20
7.75514912456002
 30
0.0
 40
0.0669291338522579
 50
90.000000001286
 51
180.000000011576
  0
ARC
  8
5
  6
CONTINUOUS
 62
5
 10
3.79192508720368
 20
6.96774754973584
 30
0.0
 40
0.0669291338522574
 50
270.000000006429
 51
1.67195652939549E-8
  0
ARC
  8
5
  6
CONTINUOUS
 62
5
 10
3.79192508720668
 20
6.96774754974786
 30
0.0
 40
0.066929133852258
 50
6.4298347884841E-9
 51
90.0000000064306
  0
ARC
  8
5
  6
CONTINUOUS
 62
5
 10
3.79192508720067
 20
6.96774754975687
 30
0.0
 40
0.0669291338522579
 50
90.000000001286
 51
180.000000011576
  0
ARC
  8
5
  6
CONTINUOUS
 62
5
 10
5.05364508720368
 20
7.69609400642875
 30
0.0
 40
0.0669291338522587
 50
270.000000006429
 51
1.67199660438447E-8
  0
ARC
  8
5
  6
CONTINUOUS
 62
5
 10
5.05364508720668
 20
7.69609400644077
 30
0.0
 40
0.0669291338522568
 50
6.42959942743767E-9
 51
90.0000000064304
  0
ARC
  8
5
  6
CONTINUOUS
 62
5
 10
5.05364508719767
 20
7.69609400643776
 30
0.0
 40
0.0669291338582671
 50
180.000000001285
 51
270.000000011575
  0
ARC
  8
5
  6
CONTINUOUS
 62
5
 10
3.6553109139726
 20
7.87325936078288
 30
0.0
 40
0.0787401574732451
 50
90.0000000012861
 51
180.000000011576
  0
ARC
  8
5
  6
CONTINUOUS
 62
5
 10
3.65531091396905
 20
6.84963731352465
 30
0.0
 40
0.0787401574803151
 50
180.000000001286
 51
270.000000011576
  0
ARC
  8
5
  6
CONTINUOUS
 62
5
 10
3.65531091397259
 20
7.19924361275138
 30
0.0
 40
0.0787401574732445
 50
90.0000000012857
 51
180.000000011576
  0
ARC
  8
5
  6
CONTINUOUS
 62
5
 10
3.65531091396906
 20
7.52365306155614
 30
0.0
 40
0.0787401574803148
 50
180.000000001286
 51
270.000000011576
  0
ARC
  8
5
  6
CONTINUOUS
 62
5
 10
5.6599442998029
 20
6.84963731351404
 30
0.0
 40
0.0787401574732448
 50
270.000000006429
 51
1.67187129053002E-8
  0
ARC
  8
5
  6
CONTINUOUS
 62
5
 10
5.0536450872111
 20
7.36144833712503
 30
0.0
 40
0.1771653543148
 50
270.000000006429
 51
1.67196352661579E-8
  0
ARC
  8
5
  6
CONTINUOUS
 62
5
 10
5.05364508721906
 20
7.36144833715685
 30
0.0
 40
0.177165354314801
 50
6.42998745510881E-9
 51
90.0000000064305
  0
ARC
  8
5
  6
CONTINUOUS
 62
5
 10
5.05364508720315
 20
7.36144833718072
 30
0.0
 40
0.177165354314801
 50
90.0000000012859
 51
180.000000011576
  0
ARC
  8
5
  6
CONTINUOUS
 62
5
 10
5.05364508720368
 20
7.02680266784607
 30
0.0
 40
0.0669291338522583
 50
270.000000006429
 51
1.67203477104065E-8
  0
ARC
  8
5
  6
CONTINUOUS
 62
5
 10
5.05364508720067
 20
7.0268026678671
 30
0.0
 40
0.0669291338522574
 50
90.0000000012857
 51
180.000000011576
  0
ARC
  8
5
  6
CONTINUOUS
 62
5
 10
5.05364508719767
 20
7.02680266785508
 30
0.0
 40
0.0669291338582666
 50
180.000000001285
 51
270.000000011575
  0
LINE
  8
5
  6
CONTINUOUS
 62
5
 10
3.57657075649051
 20
8.28757780883989
 30
0.0
 11
3.57657075649051
 21
8.63718410805249
 31
0.0
  0
LINE
  8
5
  6
CONTINUOUS
 62
5
 10
3.57657075649051
 20
8.96159355687138
 30
0.0
 11
3.57657075649051
 21
9.31119985608398
 31
0.0
  0
LINE
  8
5
  6
CONTINUOUS
 62
5
 10
4.1749959533409
 20
8.7159242655328
 30
0.0
 11
4.1749959533409
 21
8.88285339939107
 31
0.0
  0
LINE
  8
5
  6
CONTINUOUS
 62
5
 10
3.65531091397083
 20
8.7159242655328
 30
0.0
 11
4.1749959533409
 21
8.7159242655328
 31
0.0
  0
LINE
  8
5
  6
CONTINUOUS
 62
5
 10
4.1749959533409
 20
8.88285339939107
 30
0.0
 11
3.65531091397082
 21
8.88285339939107
 31
0.0
  0
LINE
  8
5
  6
CONTINUOUS
 62
5
 10
3.65531091397083
 20
8.20883765135957
 30
0.0
 11
4.81676877709117
 21
8.20883765135957
 31
0.0
  0
LINE
  8
5
  6
CONTINUOUS
 62
5
 10
4.86676877709117
 20
8.20883765135957
 30
0.0
 11
5.6599442997976
 21
8.20883765135957
 31
0.0
  0
LINE
  8
5
  6
CONTINUOUS
 62
5
 10
5.73868445727791
 20
8.28757780883989
 30
0.0
 11
5.73868445727791
 21
9.31119985608398
 31
0.0
  0
LINE
  8
5
  6
CONTINUOUS
 62
5
 10
5.6599442997976
 20
9.38994001356429
 30
0.0
 11
4.92410986851888
 21
9.38994001356429
 31
0.0
  0
LINE
  8
5
  6
CONTINUOUS
 62
5
 10
4.87410986851888
 20
9.38994001356429
 30
0.0
 11
3.65531091397083
 21
9.3899400135643
 31
0.0
  0
ARC
  8
5
  6
CONTINUOUS
 62
5
 10
3.79192508720368
 20
9.193089619856
 30
0.0
 40
0.0669291338522591
 50
270.00000000643
 51
1.67211873768424E-8
  0
ARC
  8
5
  6
CONTINUOUS
 62
5
 10
3.79192508720668
 20
9.19308961986803
 30
0.0
 40
0.066929133852258
 50
6.42980934404665E-9
 51
90.0000000064302
  0
ARC
  8
5
  6
CONTINUOUS
 62
5
 10
3.79192508720067
 20
9.19308961987703
 30
0.0
 40
0.066929133852258
 50
90.0000000012862
 51
180.000000011576
  0
ARC
  8
5
  6
CONTINUOUS
 62
5
 10
3.79192508720668
 20
8.40568804506487
 30
0.0
 40
0.0669291338522565
 50
6.43008923285861E-9
 51
90.0000000064314
  0
ARC
  8
5
  6
CONTINUOUS
 62
5
 10
3.79192508720067
 20
8.40568804507388
 30
0.0
 40
0.0669291338522566
 50
90.0000000012849
 51
180.000000011574
  0
ARC
  8
5
  6
CONTINUOUS
 62
5
 10
3.79192508719767
 20
8.40568804506186
 30
0.0
 40
0.0669291338582668
 50
180.000000001286
 51
270.000000011576
  0
ARC
  8
5
  6
CONTINUOUS
 62
5
 10
5.05364508720368
 20
9.13403450174577
 30
0.0
 40
0.0669291338522584
 50
270.00000000643
 51
1.67202141271099E-8
  0
ARC
  8
5
  6
CONTINUOUS
 62
5
 10
5.05364508720067
 20
9.1340345017668
 30
0.0
 40
0.0669291338522578
 50
90.0000000012867
 51
180.000000011576
  0
ARC
  8
5
  6
CONTINUOUS
 62
5
 10
5.05364508719767
 20
9.13403450175478
 30
0.0
 40
0.0669291338582672
 50
180.000000001285
 51
270.000000011575
  0
ARC
  8
5
  6
CONTINUOUS
 62
5
 10
3.65531091397259
 20
9.31119985609989
 30
0.0
 40
0.0787401574732442
 50
90.000000001285
 51
180.000000011575
  0
ARC
  8
5
  6
CONTINUOUS
 62
5
 10
3.65531091396906
 20
8.28757780884166
 30
0.0
 40
0.0787401574803148
 50
180.000000001286
 51
270.000000011576
  0
ARC
  8
5
  6
CONTINUOUS
 62
5
 10
3.65531091397259
 20
8.6371841080684
 30
0.0
 40
0.0787401574732442
 50
90.000000001285
 51
180.000000011575
  0
ARC
  8
5
  6
CONTINUOUS
 62
5
 10
3.65531091396906
 20
8.96159355687315
 30
0.0
 40
0.0787401574803148
 50
180.000000001286
 51
270.000000011575
  0
ARC
  8
5
  6
CONTINUOUS
 62
5
 10
5.6599442998029
 20
8.28757780883105
 30
0.0
 40
0.078740157473244
 50
270.000000006429
 51
1.67186874608628E-8
  0
ARC
  8
5
  6
CONTINUOUS
 62
5
 10
5.0536450872111
 20
8.79938883244204
 30
0.0
 40
0.1771653543148
 50
270.000000006428
 51
1.67195462106268E-8
  0
ARC
  8
5
  6
CONTINUOUS
 62
5
 10
5.05364508720315
 20
8.79938883249772
 30
0.0
 40
0.1771653543148
 50
90.0000000012856
 51
180.000000011576
  0
ARC
  8
5
  6
CONTINUOUS
 62
5
 10
5.05364508719519
 20
8.7993888324659
 30
0.0
 40
0.177165354330707
 50
180.000000001286
 51
270.000000011576
  0
ARC
  8
5
  6
CONTINUOUS
 62
5
 10
5.05364508720668
 20
8.46474316317511
 30
0.0
 40
0.0669291338522574
 50
6.42935134417251E-9
 51
90.0000000064299
  0
ARC
  8
5
  6
CONTINUOUS
 62
5
 10
5.05364508720067
 20
8.46474316318412
 30
0.0
 40
0.0669291338522578
 50
90.0000000012867
 51
180.000000011576
  0
ARC
  8
5
  6
CONTINUOUS
 62
5
 10
5.05364508719767
 20
8.4647431631721
 30
0.0
 40
0.0669291338582672
 50
180.000000001285
 51
270.000000011575
  0
LINE
  8
5
  6
CONTINUOUS
 62
5
 10
6.17466847683454
 20
1.13688249991665
 30
0.0
 11
6.17466847683454
 21
1.60449492525754
 31
0.0
  0
LINE
  8
5
  6
CONTINUOUS
 62
5
 10
6.17466847683454
 20
1.65449492525754
 30
0.0
 11
6.17466847683454
 21
2.16050454716075
 31
0.0
  0
ARC
  8
5
  6
CONTINUOUS
 62
5
 10
6.39002280755071
 20
1.25499273614164
 30
0.0
 40
0.0669291338522569
 50
6.42886789986093E-9
 51
90.0000000064311
  0
ARC
  8
5
  6
CONTINUOUS
 62
5
 10
6.3900228075447
 20
1.25499273615065
 30
0.0
 40
0.0669291338522571
 50
90.0000000012846
 51
180.000000011575
  0
ARC
  8
5
  6
CONTINUOUS
 62
5
 10
6.25340863431661
 20
2.16050454717666
 30
0.0
 40
0.0787401574732444
 50
90.0000000012855
 51
180.000000011575
  0
ARC
  8
5
  6
CONTINUOUS
 62
5
 10
6.25340863431307
 20
1.13688249991842
 30
0.0
 40
0.0787401574803145
 50
180.000000001286
 51
270.000000011576
  0
ARC
  8
5
  6
CONTINUOUS
 62
5
 10
6.52663698078038
 20
2.16050454716605
 30
0.0
 40
0.0787401574732444
 50
6.42998109399944E-9
 51
90.0000000064308
  0
ARC
  8
5
  6
CONTINUOUS
 62
5
 10
6.52663698077685
 20
1.13688249990782
 30
0.0
 40
0.0787401574732451
 50
270.000000006428
 51
1.67178923221924E-8
  0
LINE
  8
5
  6
CONTINUOUS
 62
5
 10
6.17113015829024
 20
2.48498186529396
 30
0.0
 11
6.17113015829024
 21
3.05794181944129
 31
0.0
  0
LINE
  8
5
  6
CONTINUOUS
 62
5
 10
6.17113015829024
 20
3.10794181944129
 30
0.0
 11
6.17113015829024
 21
3.50860391253806
 31
0.0
  0
ARC
  8
5
  6
CONTINUOUS
 62
5
 10
6.3864844890064
 20
2.60309210151895
 30
0.0
 40
0.0669291338522575
 50
6.42792645567522E-9
 51
90.0000000064298
  0
ARC
  8
5
  6
CONTINUOUS
 62
5
 10
6.38648448900039
 20
2.60309210152796
 30
0.0
 40
0.0669291338522578
 50
90.0000000012852
 51
180.000000011576
  0
ARC
  8
5
  6
CONTINUOUS
 62
5
 10
6.24987031577232
 20
3.50860391255397
 30
0.0
 40
0.0787401574732442
 50
90.000000001286
 51
180.000000011576
  0
ARC
  8
5
  6
CONTINUOUS
 62
5
 10
6.24987031576878
 20
2.48498186529573
 30
0.0
 40
0.0787401574803143
 50
180.000000001286
 51
270.000000011576
  0
ARC
  8
5
  6
CONTINUOUS
 62
5
 10
6.52309866223608
 20
3.50860391254336
 30
0.0
 40
0.0787401574732453
 50
6.42868978879877E-9
 51
90.0000000064301
  0
ARC
  8
5
  6
CONTINUOUS
 62
5
 10
6.52309866223255
 20
2.48498186528513
 30
0.0
 40
0.0787401574732451
 50
270.000000006428
 51
1.67185411553474E-8
  0
LINE
  8
5
  6
CONTINUOUS
 62
5
 10
6.16759183974594
 20
3.83308123067126
 30
0.0
 11
6.16759183974594
 21
4.27205947937587
 31
0.0
  0
LINE
  8
5
  6
CONTINUOUS
 62
5
 10
6.16759183974594
 20
4.32205947937587
 30
0.0
 11
6.16759183974594
 21
4.85670327791536
 31
0.0
  0
LINE
  8
5
  6
CONTINUOUS
 62
5
 10
6.59830050116326
 20
4.85670327791536
 30
0.0
 11
6.59830050116326
 21
4.35223144789997
 31
0.0
  0
LINE
  8
5
  6
CONTINUOUS
 62
5
 10
6.59830050116326
 20
4.30223144789997
 30
0.0
 11
6.59830050116326
 21
3.83308123067126
 31
0.0
  0
LINE
  8
5
  6
CONTINUOUS
 62
5
 10
6.24633199722625
 20
4.93544343539567
 30
0.0
 11
6.51956034368296
 21
4.93544343539567
 31
0.0
  0
LINE
  8
5
  6
CONTINUOUS
 62
5
 10
6.51956034368296
 20
3.75434107319095
 30
0.0
 11
6.24633199722625
 21
3.75434107319095
 31
0.0
  0
ARC
  8
5
  6
CONTINUOUS
 62
5
 10
6.38294617046212
 20
4.7385930416994
 30
0.0
 40
0.0669291338522579
 50
6.43049634385784E-9
 51
90.000000006431
  0
ARC
  8
5
  6
CONTINUOUS
 62
5
 10
6.3829461704561
 20
4.73859304170841
 30
0.0
 40
0.0669291338522578
 50
90.0000000012852
 51
180.000000011576
  0
ARC
  8
5
  6
CONTINUOUS
 62
5
 10
6.38294617046211
 20
3.95119146689625
 30
0.0
 40
0.066929133852258
 50
6.42871523323622E-9
 51
90.0000000064302
  0
ARC
  8
5
  6
CONTINUOUS
 62
5
 10
6.38294617045609
 20
3.95119146690526
 30
0.0
 40
0.066929133852258
 50
90.0000000012854
 51
180.000000011576
  0
ARC
  8
5
  6
CONTINUOUS
 62
5
 10
6.24633199722802
 20
4.85670327793127
 30
0.0
 40
0.0787401574732442
 50
90.000000001286
 51
180.000000011576
  0
ARC
  8
5
  6
CONTINUOUS
 62
5
 10
6.5195603436918
 20
4.85670327792066
 30
0.0
 40
0.0787401574732445
 50
6.42815545561228E-9
 51
90.00000000643
  0
ARC
  8
5
  6
CONTINUOUS
 62
5
 10
6.51956034368826
 20
3.83308123066243
 30
0.0
 40
0.0787401574732435
 50
270.000000006428
 51
1.67183884887227E-8
  0
LINE
  8
5
  6
CONTINUOUS
 62
5
 10
6.16405352120164
 20
5.18118059604857
 30
0.0
 11
6.16405352120164
 21
5.65788948511831
 31
0.0
  0
LINE
  8
5
  6
CONTINUOUS
 62
5
 10
6.16405352120164
 20
5.70788948511831
 30
0.0
 11
6.16405352120164
 21
6.20480264329267
 31
0.0
  0
LINE
  8
5
  6
CONTINUOUS
 62
5
 10
6.59476218261896
 20
6.20480264329267
 30
0.0
 11
6.59476218261896
 21
5.68240455559489
 31
0.0
  0
LINE
  8
5
  6
CONTINUOUS
 62
5
 10
6.59476218261896
 20
5.63240455559489
 30
0.0
 11
6.59476218261896
 21
5.18118059604857
 31
0.0
  0
LINE
  8
5
  6
CONTINUOUS
 62
5
 10
6.24279367868195
 20
6.28354280077298
 30
0.0
 11
6.51602202513866
 21
6.28354280077298
 31
0.0
  0
ARC
  8
5
  6
CONTINUOUS
 62
5
 10
6.3794078519103
 20
6.08669240708422
 30
0.0
 40
0.0669291338582676
 50
180.000000010288
 51
359.999999999999
  0
ARC
  8
5
  6
CONTINUOUS
 62
5
 10
6.37940785191782
 20
6.08669240707671
 30
0.0
 40
0.0669291338522579
 50
6.43049634385784E-9
 51
90.000000006431
  0
ARC
  8
5
  6
CONTINUOUS
 62
5
 10
6.37940785191781
 20
5.29929083227356
 30
0.0
 40
0.066929133852258
 50
6.42904601092309E-9
 51
90.0000000064302
  0
ARC
  8
5
  6
CONTINUOUS
 62
5
 10
6.37940785191181
 20
5.29929083228257
 30
0.0
 40
0.0669291338522578
 50
90.0000000012852
 51
180.000000011576
  0
ARC
  8
5
  6
CONTINUOUS
 62
5
 10
6.24279367868372
 20
6.20480264330858
 30
0.0
 40
0.0787401574732443
 50
90.0000000012855
 51
180.000000011576
  0
ARC
  8
5
  6
CONTINUOUS
 62
5
 10
6.24279367868018
 20
5.18118059605034
 30
0.0
 40
0.0787401574803145
 50
180.000000001286
 51
270.000000011576
  0
ARC
  8
5
  6
CONTINUOUS
 62
5
 10
6.5160220251475
 20
6.20480264329797
 30
0.0
 40
0.0787401574732442
 50
6.42797734455012E-9
 51
90.0000000064302
  0
ARC
  8
5
  6
CONTINUOUS
 62
5
 10
6.51602202514396
 20
5.18118059603974
 30
0.0
 40
0.0787401574732444
 50
270.000000006427
 51
1.67170717390846E-8
  0
LINE
  8
5
  6
CONTINUOUS
 62
5
 10
6.16051520265735
 20
6.52927996142588
 30
0.0
 11
6.16051520265735
 21
6.9639921231938
 31
0.0
  0
LINE
  8
5
  6
CONTINUOUS
 62
5
 10
6.16051520265735
 20
7.0139921231938
 30
0.0
 11
6.16051520265735
 21
7.55290200866998
 31
0.0
  0
LINE
  8
5
  6
CONTINUOUS
 62
5
 10
6.59122386407467
 20
7.55290200866998
 30
0.0
 11
6.59122386407467
 21
7.0139921231938
 31
0.0
  0
LINE
  8
5
  6
CONTINUOUS
 62
5
 10
6.59122386407467
 20
6.9639921231938
 30
0.0
 11
6.59122386407467
 21
6.52927996142588
 31
0.0
  0
LINE
  8
5
  6
CONTINUOUS
 62
5
 10
6.23925536013765
 20
7.63164216615029
 30
0.0
 11
6.51248370659436
 21
7.63164216615029
 31
0.0
  0
ARC
  8
5
  6
CONTINUOUS
 62
5
 10
6.37586953337352
 20
7.43479177245402
 30
0.0
 40
0.0669291338522581
 50
6.4299365662339E-9
 51
90.0000000064308
  0
ARC
  8
5
  6
CONTINUOUS
 62
5
 10
6.3758695333675
 20
7.43479177246303
 30
0.0
 40
0.066929133852258
 50
90.0000000012853
 51
180.000000011576
  0
ARC
  8
5
  6
CONTINUOUS
 62
5
 10
6.37586953337351
 20
6.64739019765087
 30
0.0
 40
0.066929133852258
 50
6.42904601092309E-9
 51
90.0000000064302
  0
ARC
  8
5
  6
CONTINUOUS
 62
5
 10
6.3758695333675
 20
6.64739019765988
 30
0.0
 40
0.066929133852258
 50
90.0000000012853
 51
180.000000011576
  0
ARC
  8
5
  6
CONTINUOUS
 62
5
 10
6.23925536013942
 20
7.55290200868589
 30
0.0
 40
0.0787401574732442
 50
90.000000001286
 51
180.000000011576
  0
ARC
  8
5
  6
CONTINUOUS
 62
5
 10
6.23925536013588
 20
6.52927996142765
 30
0.0
 40
0.0787401574803145
 50
180.000000001286
 51
270.000000011576
  0
ARC
  8
5
  6
CONTINUOUS
 62
5
 10
6.5124837066032
 20
7.55290200867528
 30
0.0
 40
0.0787401574732439
 50
6.42896967761074E-9
 51
90.0000000064305
  0
ARC
  8
5
  6
CONTINUOUS
 62
5
 10
6.51248370659966
 20
6.52927996141705
 30
0.0
 40
0.0787401574732444
 50
270.000000006427
 51
1.67170717390846E-8
  0
LINE
  8
5
  6
CONTINUOUS
 62
5
 10
6.15697688411305
 20
7.87737932680318
 30
0.0
 11
6.15697688411305
 21
8.35929201460127
 31
0.0
  0
LINE
  8
5
  6
CONTINUOUS
 62
5
 10
6.15697688411305
 20
8.40929201460127
 30
0.0
 11
6.15697688411305
 21
8.90100137404729
 31
0.0
  0
LINE
  8
5
  6
CONTINUOUS
 62
5
 10
6.58768554553037
 20
8.90100137404729
 30
0.0
 11
6.58768554553037
 21
8.40292078222041
 31
0.0
  0
LINE
  8
5
  6
CONTINUOUS
 62
5
 10
6.58768554553037
 20
8.35292078222041
 30
0.0
 11
6.58768554553037
 21
7.87737932680318
 31
0.0
  0
LINE
  8
5
  6
CONTINUOUS
 62
5
 10
6.50894538805005
 20
7.79863916932287
 30
0.0
 11
6.23571704159335
 21
7.79863916932287
 31
0.0
  0
ARC
  8
5
  6
CONTINUOUS
 62
5
 10
6.37233121482171
 20
8.78289113783884
 30
0.0
 40
0.0669291338582676
 50
180.000000010288
 51
359.999999999998
  0
ARC
  8
5
  6
CONTINUOUS
 62
5
 10
6.37233121482321
 20
8.78289113784034
 30
0.0
 40
0.0669291338522588
 50
90.0000000012853
 51
180.000000011575
  0
ARC
  8
5
  6
CONTINUOUS
 62
5
 10
6.37233121482922
 20
7.99548956302818
 30
0.0
 40
0.066929133852258
 50
6.42904601092309E-9
 51
90.0000000064302
  0
ARC
  8
5
  6
CONTINUOUS
 62
5
 10
6.3723312148232
 20
7.99548956303718
 30
0.0
 40
0.0669291338522579
 50
90.0000000012845
 51
180.000000011575
  0
ARC
  8
5
  6
CONTINUOUS
 62
5
 10
6.23571704159512
 20
8.9010013740632
 30
0.0
 40
0.0787401574732439
 50
90.0000000012852
 51
180.000000011576
  0
ARC
  8
5
  6
CONTINUOUS
 62
5
 10
6.23571704159158
 20
7.87737932680495
 30
0.0
 40
0.0787401574803145
 50
180.000000001286
 51
270.000000011576
  0
ARC
  8
5
  6
CONTINUOUS
 62
5
 10
6.50894538805889
 20
8.90100137405259
 30
0.0
 40
0.0787401574732436
 50
6.42813001117483E-9
 51
90.0000000064301
  0
ARC
  8
5
  6
CONTINUOUS
 62
5
 10
6.50894538805536
 20
7.87737932679435
 30
0.0
 40
0.0787401574732449
 50
270.000000006427
 51
1.67173897945527E-8
  0
LINE
  8
9
  6
CONTINUOUS
 62
9
 10
6.37091335639243
 20
9.12810393886218
 30
0.0
 11
6.37739099901534
 21
8.9797415315276
 31
0.0
  0
LINE
  8
9
  6
CONTINUOUS
 62
9
 10
6.37956106352778
 20
9.02944418055169
 30
0.0
 11
6.37739099901534
 21
8.9797415315276
 31
0.0
  0
LINE
  8
9
  6
CONTINUOUS
 62
9
 10
6.37536718303478
 20
8.78374839922007
 30
0.0
 11
6.38280123807126
 21
8.84899626298368
 31
0.0
  0
LINE
  8
9
  6
CONTINUOUS
 62
9
 10
6.37288268334283
 20
8.800245008927
 30
0.0
 11
6.38280123807126
 21
8.84899626298368
 31
0.0
  0
LINE
  8
9
  6
CONTINUOUS
 62
9
 10
5.88323752861621
 20
9.35312441647187
 30
0.0
 11
5.73771503527703
 21
9.32351753050915
 31
0.0
  0
LINE
  8
9
  6
CONTINUOUS
 62
9
 10
5.78714523509414
 20
9.32914939041869
 30
0.0
 11
5.73771503527703
 21
9.32351753050915
 31
0.0
  0
LINE
  8
9
  6
CONTINUOUS
 62
9
 10
5.05668105541225
 20
9.13489176314654
 30
0.0
 11
5.06411511044873
 21
9.20013962691015
 31
0.0
  0
LINE
  8
9
  6
CONTINUOUS
 62
9
 10
5.0541965557203
 20
9.15138837285347
 30
0.0
 11
5.06411511044873
 21
9.20013962691015
 31
0.0
  0
LINE
  8
9
  6
CONTINUOUS
 62
9
 10
5.06454875288451
 20
8.82682384082459
 30
0.0
 11
5.08135985462446
 21
8.97437298728892
 31
0.0
  0
LINE
  8
9
  6
CONTINUOUS
 62
9
 10
5.07144129989282
 20
8.92562173323289
 30
0.0
 11
5.08135985462446
 21
8.97437298728892
 31
0.0
  0
LINE
  8
9
  6
CONTINUOUS
 62
9
 10
5.05102261818667
 20
8.46298969336126
 30
0.0
 11
5.06411511046175
 21
8.39863803801327
 31
0.0
  0
LINE
  8
9
  6
CONTINUOUS
 62
9
 10
5.05848325055985
 20
8.44806823783125
 30
0.0
 11
5.06411511046175
 21
8.39863803801327
 31
0.0
  0
LINE
  8
9
  6
CONTINUOUS
 62
9
 10
4.89683059347379
 20
7.84374773013063
 30
0.0
 11
5.00631904279125
 21
7.74342005084858
 31
0.0
  0
LINE
  8
9
  6
CONTINUOUS
 62
9
 10
4.9727084299582
 20
7.78009959835107
 30
0.0
 11
5.00631904279125
 21
7.74342005084858
 31
0.0
  0
LINE
  8
9
  6
CONTINUOUS
 62
9
 10
4.82804258446756
 20
7.12668506439908
 30
0.0
 11
4.92837026375944
 21
7.23617351370752
 31
0.0
  0
LINE
  8
9
  6
CONTINUOUS
 62
9
 10
4.89169071625394
 20
7.20256290087777
 30
0.0
 11
4.92837026375944
 21
7.23617351370752
 31
0.0
  0
LINE
  8
9
  6
CONTINUOUS
 62
9
 10
5.08092621215245
 20
7.2404569394789
 30
0.0
 11
5.06411511044873
 21
7.09290779301044
 31
0.0
  0
LINE
  8
9
  6
CONTINUOUS
 62
9
 10
5.07403366516839
 20
7.14165904706891
 30
0.0
 11
5.06411511044873
 21
7.09290779301044
 31
0.0
  0
LINE
  8
9
  6
CONTINUOUS
 62
9
 10
5.01356817804168
 20
6.46978112963408
 30
0.0
 11
5.04317506394854
 21
6.32425863628353
 31
0.0
  0
LINE
  8
9
  6
CONTINUOUS
 62
9
 10
5.03754320405798
 20
6.3736888361028
 30
0.0
 11
5.04317506394854
 21
6.32425863628353
 31
0.0
  0
LINE
  8
9
  6
CONTINUOUS
 62
9
 10
4.82804258446756
 20
5.68874456908207
 30
0.0
 11
4.92837026375944
 21
5.79823301839051
 31
0.0
  0
LINE
  8
9
  6
CONTINUOUS
 62
9
 10
4.89169071625394
 20
5.76462240556077
 30
0.0
 11
4.92837026375944
 21
5.79823301839051
 31
0.0
  0
LINE
  8
9
  6
CONTINUOUS
 62
9
 10
5.08092621215245
 20
5.80251644416189
 30
0.0
 11
5.06411511044873
 21
5.65496729769343
 31
0.0
  0
LINE
  8
9
  6
CONTINUOUS
 62
9
 10
5.07403366516839
 20
5.7037185517519
 30
0.0
 11
5.06411511044873
 21
5.65496729769343
 31
0.0
  0
LINE
  8
9
  6
CONTINUOUS
 62
9
 10
5.01356817804168
 20
5.03184063431707
 30
0.0
 11
5.04317506394854
 21
4.88631814096652
 31
0.0
  0
LINE
  8
9
  6
CONTINUOUS
 62
9
 10
5.03754320405798
 20
4.93574834078579
 30
0.0
 11
5.04317506394854
 21
4.88631814096652
 31
0.0
  0
LINE
  8
9
  6
CONTINUOUS
 62
9
 10
4.82804258446756
 20
4.25080407376506
 30
0.0
 11
4.92837026375944
 21
4.3602925230735
 31
0.0
  0
LINE
  8
9
  6
CONTINUOUS
 62
9
 10
4.89169071625394
 20
4.32668191024376
 30
0.0
 11
4.92837026375944
 21
4.3602925230735
 31
0.0
  0
LINE
  8
9
  6
CONTINUOUS
 62
9
 10
5.08092621215245
 20
4.36457594884488
 30
0.0
 11
5.06411511044873
 21
4.21702680237642
 31
0.0
  0
LINE
  8
9
  6
CONTINUOUS
 62
9
 10
5.07403366516839
 20
4.26577805643489
 30
0.0
 11
5.06411511044873
 21
4.21702680237642
 31
0.0
  0
LINE
  8
9
  6
CONTINUOUS
 62
9
 10
4.8968305934738
 20
3.5299262441796
 30
0.0
 11
5.00631904279125
 21
3.42959856489754
 31
0.0
  0
LINE
  8
9
  6
CONTINUOUS
 62
9
 10
4.97270842995821
 20
3.46627811240003
 30
0.0
 11
5.00631904279125
 21
3.42959856489754
 31
0.0
  0
LINE
  8
9
  6
CONTINUOUS
 62
9
 10
4.82804258446756
 20
2.81286357844804
 30
0.0
 11
4.92837026375944
 21
2.92235202775648
 31
0.0
  0
LINE
  8
9
  6
CONTINUOUS
 62
9
 10
4.89169071625394
 20
2.88874141492674
 30
0.0
 11
4.92837026375944
 21
2.92235202775648
 31
0.0
  0
LINE
  8
9
  6
CONTINUOUS
 62
9
 10
5.08092621215245
 20
2.92663545352787
 30
0.0
 11
5.06411511044873
 21
2.77908630705941
 31
0.0
  0
LINE
  8
9
  6
CONTINUOUS
 62
9
 10
5.07403366516839
 20
2.82783756111788
 30
0.0
 11
5.06411511044873
 21
2.77908630705941
 31
0.0
  0
LINE
  8
9
  6
CONTINUOUS
 62
9
 10
5.11401322791565
 20
2.15108814998442
 30
0.0
 11
5.07432732697796
 21
2.00798541405381
 31
0.0
  0
LINE
  8
9
  6
CONTINUOUS
 62
9
 10
5.09175014417797
 20
2.05458485547552
 30
0.0
 11
5.07432732697796
 21
2.00798541405381
 31
0.0
  0
LINE
  8
9
  6
CONTINUOUS
 62
9
 10
5.16039930198972
 20
1.3020927585855
 30
0.0
 11
5.10839219253188
 21
1.44119209118599
 31
0.0
  0
LINE
  8
9
  6
CONTINUOUS
 62
9
 10
5.12168730176365
 20
1.39325147614493
 30
0.0
 11
5.10839219253188
 21
1.44119209118599
 31
0.0
  0
LINE
  8
9
  6
CONTINUOUS
 62
9
 10
5.26040121202405
 20
1.21467254589875
 30
0.0
 11
5.11729847608774
 21
1.25435844681589
 31
0.0
  0
LINE
  8
9
  6
CONTINUOUS
 62
9
 10
5.16389791751195
 20
1.23693562962257
 30
0.0
 11
5.11729847608774
 21
1.25435844681589
 31
0.0
  0
LINE
  8
9
  6
CONTINUOUS
 62
9
 10
5.88526418174931
 20
1.06874655617524
 30
0.0
 11
5.73771503527825
 21
1.08555765785616
 31
0.0
  0
LINE
  8
9
  6
CONTINUOUS
 62
9
 10
5.78646628933825
 20
1.07563910314402
 30
0.0
 11
5.73771503527825
 21
1.08555765785616
 31
0.0
  0
LINE
  8
9
  6
CONTINUOUS
 62
9
 10
6.40156023437307
 20
0.90977993510234
 30
0.0
 11
6.39508259173683
 21
1.05814234243634
 31
0.0
  0
LINE
  8
9
  6
CONTINUOUS
 62
9
 10
6.39291252721993
 20
1.00843969341245
 30
0.0
 11
6.39508259173683
 21
1.05814234243634
 31
0.0
  0
LINE
  8
9
  6
CONTINUOUS
 62
9
 10
6.38711615834172
 20
1.25446728671972
 30
0.0
 11
6.38885473309664
 21
1.18807379591013
 31
0.0
  0
LINE
  8
9
  6
CONTINUOUS
 62
9
 10
6.3918918979295
 20
1.23773100213217
 30
0.0
 11
6.38885473309664
 21
1.18807379591013
 31
0.0
  0
LINE
  8
9
  6
CONTINUOUS
 62
9
 10
6.38711615834172
 20
2.04186886152287
 30
0.0
 11
6.38885473309664
 21
1.97547537071328
 31
0.0
  0
LINE
  8
9
  6
CONTINUOUS
 62
9
 10
6.3918918979295
 20
2.02513257693532
 30
0.0
 11
6.38885473309664
 21
1.97547537071328
 31
0.0
  0
LINE
  8
9
  6
CONTINUOUS
 62
9
 10
6.39802191582877
 20
2.25787930047965
 30
0.0
 11
6.39154427319254
 21
2.40624170781365
 31
0.0
  0
LINE
  8
9
  6
CONTINUOUS
 62
9
 10
6.38937420867564
 20
2.35653905878976
 30
0.0
 11
6.39154427319254
 21
2.40624170781365
 31
0.0
  0
LINE
  8
9
  6
CONTINUOUS
 62
9
 10
6.38357783979741
 20
2.60256665209703
 30
0.0
 11
6.38531641455233
 21
2.53617316128744
 31
0.0
  0
LINE
  8
9
  6
CONTINUOUS
 62
9
 10
6.38835357938519
 20
2.58583036750948
 30
0.0
 11
6.38531641455233
 21
2.53617316128744
 31
0.0
  0
LINE
  8
9
  6
CONTINUOUS
 62
9
 10
5.72396224753487
 20
3.77742695061167
 30
0.0
 11
5.68427634659617
 21
3.63432421468134
 31
0.0
  0
LINE
  8
9
  6
CONTINUOUS
 62
9
 10
5.70169916379651
 20
3.68092365610292
 30
0.0
 11
5.68427634659617
 21
3.63432421468134
 31
0.0
  0
LINE
  8
9
  6
CONTINUOUS
 62
9
 10
5.87793337560254
 20
3.90973837518289
 30
0.0
 11
5.73483063966651
 21
3.94942427610103
 31
0.0
  0
LINE
  8
9
  6
CONTINUOUS
 62
9
 10
5.78143008109059
 20
3.93200145890739
 30
0.0
 11
5.73483063966651
 21
3.94942427610103
 31
0.0
  0
LINE
  8
9
  6
CONTINUOUS
 62
9
 10
6.06401589015035
 20
3.6975143766822
 30
0.0
 11
6.18183183625748
 21
3.78791773174685
 31
0.0
  0
LINE
  8
9
  6
CONTINUOUS
 62
9
 10
6.13987311182869
 20
3.76118707623095
 30
0.0
 11
6.18183183625748
 21
3.78791773174685
 31
0.0
  0
LINE
  8
9
  6
CONTINUOUS
 62
9
 10
6.38004913430943
 20
3.95061536947919
 30
0.0
 11
6.38294617046662
 21
3.88426233303347
 31
0.0
  0
LINE
  8
9
  6
CONTINUOUS
 62
9
 10
6.38511623497212
 20
3.93396498205786
 30
0.0
 11
6.38294617046662
 21
3.88426233303347
 31
0.0
  0
LINE
  8
9
  6
CONTINUOUS
 62
9
 10
6.38952045721197
 20
3.39135093771084
 30
0.0
 11
6.39695451224845
 21
3.45659880147445
 31
0.0
  0
LINE
  8
9
  6
CONTINUOUS
 62
9
 10
6.38703595752002
 20
3.40784754741777
 30
0.0
 11
6.39695451224845
 21
3.45659880147445
 31
0.0
  0
LINE
  8
9
  6
CONTINUOUS
 62
9
 10
6.38004913430943
 20
4.73801694428234
 30
0.0
 11
6.38294617046663
 21
4.67166390783662
 31
0.0
  0
LINE
  8
9
  6
CONTINUOUS
 62
9
 10
6.38511623497213
 20
4.72136655686102
 30
0.0
 11
6.38294617046663
 21
4.67166390783662
 31
0.0
  0
LINE
  8
9
  6
CONTINUOUS
 62
9
 10
6.39094527874018
 20
4.95407803123426
 30
0.0
 11
6.38446763610395
 21
5.10244043856826
 31
0.0
  0
LINE
  8
9
  6
CONTINUOUS
 62
9
 10
6.38229757158705
 20
5.05273778954436
 30
0.0
 11
6.38446763610395
 21
5.10244043856826
 31
0.0
  0
LINE
  8
9
  6
CONTINUOUS
 62
9
 10
6.37651081576514
 20
5.2987147348565
 30
0.0
 11
6.37940785192233
 21
5.23236169841078
 31
0.0
  0
LINE
  8
9
  6
CONTINUOUS
 62
9
 10
6.38157791642783
 20
5.28206434743518
 30
0.0
 11
6.37940785192233
 21
5.23236169841078
 31
0.0
  0
LINE
  8
9
  6
CONTINUOUS
 62
9
 10
5.88704686461162
 20
6.14073120007989
 30
0.0
 11
5.73868445727791
 21
6.13425355743699
 31
0.0
  0
LINE
  8
9
  6
CONTINUOUS
 62
9
 10
5.78838710630229
 20
6.13208349293125
 30
0.0
 11
5.73868445727791
 21
6.13425355743699
 31
0.0
  0
LINE
  8
9
  6
CONTINUOUS
 62
9
 10
6.37855059052314
 20
6.08972837529384
 30
0.0
 11
6.3133027267587
 21
6.09716243032302
 31
0.0
  0
LINE
  8
9
  6
CONTINUOUS
 62
9
 10
6.36205398081649
 20
6.08724387560005
 30
0.0
 11
6.3133027267587
 21
6.09716243032302
 31
0.0
  0
LINE
  8
9
  6
CONTINUOUS
 62
9
 10
6.38740696019588
 20
6.30217739661157
 30
0.0
 11
6.38092931755965
 21
6.45053980394557
 31
0.0
  0
LINE
  8
9
  6
CONTINUOUS
 62
9
 10
6.37875925304275
 20
6.40083715492167
 30
0.0
 11
6.38092931755965
 21
6.45053980394557
 31
0.0
  0
LINE
  8
9
  6
CONTINUOUS
 62
9
 10
6.37297249722083
 20
6.64681410023381
 30
0.0
 11
6.37586953337802
 21
6.58046106378809
 31
0.0
  0
LINE
  8
9
  6
CONTINUOUS
 62
9
 10
6.37803959788352
 20
6.63016371281249
 30
0.0
 11
6.37586953337802
 21
6.58046106378809
 31
0.0
  0
LINE
  8
9
  6
CONTINUOUS
 62
9
 10
6.37297249722083
 20
7.43421567503696
 30
0.0
 11
6.37586953337803
 21
7.36786263859124
 31
0.0
  0
LINE
  8
9
  6
CONTINUOUS
 62
9
 10
6.37803959788353
 20
7.41756528761564
 30
0.0
 11
6.37586953337803
 21
7.36786263859124
 31
0.0
  0
LINE
  8
9
  6
CONTINUOUS
 62
9
 10
6.36943417867654
 20
7.99491346561111
 30
0.0
 11
6.37233121483373
 21
7.92856042916539
 31
0.0
  0
LINE
  8
9
  6
CONTINUOUS
 62
9
 10
6.37450127933923
 20
7.97826307818978
 30
0.0
 11
6.37233121483373
 21
7.92856042916539
 31
0.0
  0
LINE
  8
9
  6
CONTINUOUS
 62
9
 10
5.78819131515585
 20
8.06079665799291
 30
0.0
 11
5.70622660312348
 21
7.9369614863109
 31
0.0
  0
LINE
  8
9
  6
CONTINUOUS
 62
9
 10
5.73719670628033
 20
7.97589624212693
 30
0.0
 11
5.70622660312348
 21
7.9369614863109
 31
0.0
  0
LINE
  8
9
  6
CONTINUOUS
 62
9
 10
3.78896505171301
 20
7.75624008285405
 30
0.0
 11
3.74459904278861
 21
7.70782308013682
 31
0.0
  0
LINE
  8
9
  6
CONTINUOUS
 62
9
 10
3.78127859028808
 20
7.74143369297315
 30
0.0
 11
3.74459904278861
 21
7.70782308013682
 31
0.0
  0
LINE
  8
9
  6
CONTINUOUS
 62
9
 10
3.78930261818667
 20
8.40393457525103
 30
0.0
 11
3.80239511046175
 21
8.33958291990303
 31
0.0
  0
LINE
  8
9
  6
CONTINUOUS
 62
9
 10
3.79676325055985
 20
8.38901311972101
 30
0.0
 11
3.80239511046175
 21
8.33958291990303
 31
0.0
  0
LINE
  8
9
  6
CONTINUOUS
 62
9
 10
3.14731796756551
 20
7.98988282141948
 30
0.0
 11
3.11771108160018
 21
8.13540531475814
 31
0.0
  0
LINE
  8
9
  6
CONTINUOUS
 62
9
 10
3.1233429415106
 20
8.08597511494113
 30
0.0
 11
3.11771108160018
 21
8.13540531475814
 31
0.0
  0
LINE
  8
9
  6
CONTINUOUS
 62
9
 10
3.13011821051632
 20
8.03523080087704
 30
0.0
 11
3.11330710881155
 21
7.8876816544087
 31
0.0
  0
LINE
  8
9
  6
CONTINUOUS
 62
9
 10
3.12322566353156
 20
7.9364329084671
 30
0.0
 11
3.11330710881155
 21
7.8876816544087
 31
0.0
  0
LINE
  8
9
  6
CONTINUOUS
 62
9
 10
2.8078827515692
 20
7.65042547405602
 30
0.0
 11
2.85986065055564
 21
7.69177056180556
 31
0.0
  0
LINE
  8
9
  6
CONTINUOUS
 62
9
 10
2.81837483091524
 20
7.66431169677504
 30
0.0
 11
2.85986065055564
 21
7.69177056180556
 31
0.0
  0
LINE
  8
9
  6
CONTINUOUS
 62
9
 10
2.80721116742096
 20
8.37013091578057
 30
0.0
 11
2.80894974217588
 21
8.30373742497098
 31
0.0
  0
LINE
  8
9
  6
CONTINUOUS
 62
9
 10
2.81198690700874
 20
8.35339463119302
 30
0.0
 11
2.80894974217588
 21
8.30373742497098
 31
0.0
  0
LINE
  8
9
  6
CONTINUOUS
 62
9
 10
2.80721116742096
 20
9.07879233310341
 30
0.0
 11
2.80894974217588
 21
9.01239884229382
 31
0.0
  0
LINE
  8
9
  6
CONTINUOUS
 62
9
 10
2.81198690700874
 20
9.06205604851585
 30
0.0
 11
2.80894974217588
 21
9.01239884229382
 31
0.0
  0
LINE
  8
9
  6
CONTINUOUS
 62
9
 10
3.79052715110527
 20
9.19569163472898
 30
0.0
 11
3.72792043817688
 21
9.17352143490207
 31
0.0
  0
LINE
  8
9
  6
CONTINUOUS
 62
9
 10
3.77608578328321
 20
9.18597784011338
 30
0.0
 11
3.72792043817688
 21
9.17352143490207
 31
0.0
  0
LINE
  8
9
  6
CONTINUOUS
 62
9
 10
1.61954583896064
 20
8.70613918773869
 30
0.0
 11
1.75467850005608
 21
8.64455568613862
 31
0.0
  0
LINE
  8
9
  6
CONTINUOUS
 62
9
 10
1.71137830417684
 20
8.66905375824275
 30
0.0
 11
1.75467850005608
 21
8.64455568613862
 31
0.0
  0
LINE
  8
9
  6
CONTINUOUS
 62
9
 10
1.59391636427135
 20
9.05910729373333
 30
0.0
 11
1.59565493902627
 21
8.99271380292374
 31
0.0
  0
LINE
  8
9
  6
CONTINUOUS
 62
9
 10
1.59869210385913
 20
9.04237100914578
 30
0.0
 11
1.59565493902627
 21
8.99271380292374
 31
0.0
  0
LINE
  8
9
  6
CONTINUOUS
 62
9
 10
1.59985898168591
 20
8.39119866596131
 30
0.0
 11
1.60729303672239
 21
8.45644652972492
 31
0.0
  0
LINE
  8
9
  6
CONTINUOUS
 62
9
 10
1.59737448199396
 20
8.40769527566824
 30
0.0
 11
1.60729303672239
 21
8.45644652972492
 31
0.0
  0
LINE
  8
9
  6
CONTINUOUS
 62
9
 10
1.59545500891261
 20
7.63360282599258
 30
0.0
 11
1.60288906394909
 21
7.69885068975619
 31
0.0
  0
LINE
  8
9
  6
CONTINUOUS
 62
9
 10
1.59297050922066
 20
7.65009943569951
 30
0.0
 11
1.60288906394909
 21
7.69885068975619
 31
0.0
  0
LINE
  8
9
  6
CONTINUOUS
 62
9
 10
1.59431115920438
 20
7.32756155680938
 30
0.0
 11
1.56470427327139
 21
7.47308405015461
 31
0.0
  0
LINE
  8
9
  6
CONTINUOUS
 62
9
 10
1.57033613317083
 20
7.42365385033635
 30
0.0
 11
1.56470427327139
 21
7.47308405015461
 31
0.0
  0
LINE
  8
9
  6
CONTINUOUS
 62
9
 10
1.59504150972078
 20
6.96520769583228
 30
0.0
 11
1.5819490174489
 21
7.02955935118093
 31
0.0
  0
LINE
  8
9
  6
CONTINUOUS
 62
9
 10
1.58758087734834
 20
6.98012915136267
 30
0.0
 11
1.5819490174489
 21
7.02955935118093
 31
0.0
  0
LINE
  8
9
  6
CONTINUOUS
 62
9
 10
1.54793815876873
 20
6.41748600456275
 30
0.0
 11
1.57754504467559
 21
6.2719635112122
 31
0.0
  0
LINE
  8
9
  6
CONTINUOUS
 62
9
 10
1.57191318478503
 20
6.32139371103147
 30
0.0
 11
1.57754504467559
 21
6.2719635112122
 31
0.0
  0
LINE
  8
9
  6
CONTINUOUS
 62
9
 10
1.63254093706498
 20
6.19374601805091
 30
0.0
 11
1.61572983535152
 21
6.04619687158357
 31
0.0
  0
LINE
  8
9
  6
CONTINUOUS
 62
9
 10
1.6256483900744
 20
6.09494812564138
 30
0.0
 11
1.61572983535152
 21
6.04619687158357
 31
0.0
  0
LINE
  8
9
  6
CONTINUOUS
 62
9
 10
1.6152961928795
 20
5.75022131909057
 30
0.0
 11
1.59848509117578
 21
5.60267217262211
 31
0.0
  0
LINE
  8
9
  6
CONTINUOUS
 62
9
 10
1.60840364589544
 20
5.65142342668058
 30
0.0
 11
1.59848509117578
 21
5.60267217262211
 31
0.0
  0
LINE
  8
9
  6
CONTINUOUS
 62
9
 10
1.59958806488651
 20
5.13229912831993
 30
0.0
 11
1.59311042225693
 21
5.28066153565422
 31
0.0
  0
LINE
  8
9
  6
CONTINUOUS
 62
9
 10
1.5909403577378
 20
5.23095888663042
 30
0.0
 11
1.59311042225693
 21
5.28066153565422
 31
0.0
  0
LINE
  8
9
  6
CONTINUOUS
 62
9
 10
1.57220563992491
 20
5.18323912664183
 30
0.0
 11
1.57868328255449
 21
5.03487671930754
 31
0.0
  0
LINE
  8
9
  6
CONTINUOUS
 62
9
 10
1.58085334706469
 20
5.08457936833173
 30
0.0
 11
1.57868328255449
 21
5.03487671930754
 31
0.0
  0
LINE
  8
9
  6
CONTINUOUS
 62
9
 10
1.58664706336599
 20
4.77982846888977
 30
0.0
 11
1.59408111840247
 21
4.84507633265338
 31
0.0
  0
LINE
  8
9
  6
CONTINUOUS
 62
9
 10
1.58416256367404
 20
4.7963250785967
 30
0.0
 11
1.59408111840247
 21
4.84507633265338
 31
0.0
  0
LINE
  8
9
  6
CONTINUOUS
 62
9
 10
1.56782472105564
 20
4.46927268238718
 30
0.0
 11
1.45833627172017
 21
4.56960036164957
 31
0.0
  0
LINE
  8
9
  6
CONTINUOUS
 62
9
 10
1.4919468845598
 20
4.53292081415311
 30
0.0
 11
1.45833627172017
 21
4.56960036164957
 31
0.0
  0
LINE
  8
9
  6
CONTINUOUS
 62
9
 10
1.58623356417416
 20
4.11143333872947
 30
0.0
 11
1.57314107190228
 21
4.17578499407812
 31
0.0
  0
LINE
  8
9
  6
CONTINUOUS
 62
9
 10
1.57877293180172
 20
4.12635479425986
 30
0.0
 11
1.57314107190228
 21
4.17578499407812
 31
0.0
  0
LINE
  8
9
  6
CONTINUOUS
 62
9
 10
1.57782483408074
 20
3.75635194809042
 30
0.0
 11
1.58430247671031
 21
3.60798954075613
 31
0.0
  0
LINE
  8
9
  6
CONTINUOUS
 62
9
 10
1.58647254122052
 20
3.65769218978032
 30
0.0
 11
1.58430247671031
 21
3.60798954075613
 31
0.0
  0
LINE
  8
9
  6
CONTINUOUS
 62
9
 10
1.58224309059269
 20
3.35294129033836
 30
0.0
 11
1.58967714562917
 21
3.41818915410197
 31
0.0
  0
LINE
  8
9
  6
CONTINUOUS
 62
9
 10
1.57975859090074
 20
3.36943790004529
 30
0.0
 11
1.58967714562917
 21
3.41818915410197
 31
0.0
  0
LINE
  8
9
  6
CONTINUOUS
 62
9
 10
1.56342074828234
 20
3.04238550383577
 30
0.0
 11
1.45393229894687
 21
3.14271318309816
 31
0.0
  0
LINE
  8
9
  6
CONTINUOUS
 62
9
 10
1.4875429117865
 20
3.1060336356017
 30
0.0
 11
1.45393229894687
 21
3.14271318309816
 31
0.0
  0
LINE
  8
9
  6
CONTINUOUS
 62
9
 10
1.5802980806929
 20
2.6857527258547
 30
0.0
 11
1.53188107797169
 21
2.73011873477475
 31
0.0
  0
LINE
  8
9
  6
CONTINUOUS
 62
9
 10
1.56549169081132
 20
2.6934391872783
 30
0.0
 11
1.53188107797169
 21
2.73011873477475
 31
0.0
  0
LINE
  8
9
  6
CONTINUOUS
 62
9
 10
1.57342086131409
 20
2.3294647695393
 30
0.0
 11
1.579898503937
 21
2.18110236220472
 31
0.0
  0
LINE
  8
9
  6
CONTINUOUS
 62
9
 10
1.58206856844944
 20
2.23080501122881
 30
0.0
 11
1.579898503937
 21
2.18110236220472
 31
0.0
  0
LINE
  8
9
  6
CONTINUOUS
 62
9
 10
1.57783911781938
 20
1.92605411178696
 30
0.0
 11
1.58527317285586
 21
1.99130197555056
 31
0.0
  0
LINE
  8
9
  6
CONTINUOUS
 62
9
 10
1.57535461812743
 20
1.94255072149388
 30
0.0
 11
1.58527317285586
 21
1.99130197555056
 31
0.0
  0
LINE
  8
9
  6
CONTINUOUS
 62
9
 10
1.55901677550903
 20
1.61549832528436
 30
0.0
 11
1.44952832617356
 21
1.71582600454675
 31
0.0
  0
LINE
  8
9
  6
CONTINUOUS
 62
9
 10
1.48313893901319
 20
1.67914645705029
 30
0.0
 11
1.44952832617356
 21
1.71582600454675
 31
0.0
  0
LINE
  8
9
  6
CONTINUOUS
 62
9
 10
1.57742561862755
 20
1.25765898162665
 30
0.0
 11
1.56433312635567
 21
1.3220106369753
 31
0.0
  0
LINE
  8
9
  6
CONTINUOUS
 62
9
 10
1.56996498625511
 20
1.27258043715704
 30
0.0
 11
1.56433312635567
 21
1.3220106369753
 31
0.0
  0
LINE
  8
9
  6
CONTINUOUS
 62
9
 10
2.78724069136875
 20
1.23925644066259
 30
0.0
 11
2.7219928276043
 21
1.24669049569177
 31
0.0
  0
LINE
  8
9
  6
CONTINUOUS
 62
9
 10
2.7707440816621
 20
1.2367719409688
 30
0.0
 11
2.7219928276043
 21
1.24669049569177
 31
0.0
  0
LINE
  8
9
  6
CONTINUOUS
 62
9
 10
2.78519130355443
 20
1.94435644034638
 30
0.0
 11
2.78692987830935
 21
1.87796294953678
 31
0.0
  0
LINE
  8
9
  6
CONTINUOUS
 62
9
 10
2.78996704314221
 20
1.92762015575882
 30
0.0
 11
2.78692987830935
 21
1.87796294953678
 31
0.0
  0
LINE
  8
9
  6
CONTINUOUS
 62
9
 10
2.78960488938404
 20
2.6625315535798
 30
0.0
 11
2.79250192554123
 21
2.59617851713408
 31
0.0
  0
LINE
  8
9
  6
CONTINUOUS
 62
9
 10
2.79467199004673
 20
2.64588116615847
 30
0.0
 11
2.79250192554123
 21
2.59617851713408
 31
0.0
  0
LINE
  8
9
  6
CONTINUOUS
 62
9
 10
2.78959527632773
 20
3.37124361889778
 30
0.0
 11
2.79133385108265
 21
3.30485012808819
 31
0.0
  0
LINE
  8
9
  6
CONTINUOUS
 62
9
 10
2.79437101591551
 20
3.35450733431023
 30
0.0
 11
2.79133385108265
 21
3.30485012808819
 31
0.0
  0
LINE
  8
9
  6
CONTINUOUS
 62
9
 10
2.79400886215735
 20
4.08941873213121
 30
0.0
 11
2.79690589831454
 21
4.02306569568549
 31
0.0
  0
LINE
  8
9
  6
CONTINUOUS
 62
9
 10
2.79907596282004
 20
4.07276834470988
 30
0.0
 11
2.79690589831454
 21
4.02306569568549
 31
0.0
  0
LINE
  8
9
  6
CONTINUOUS
 62
9
 10
2.79400886215735
 20
4.79808014945404
 30
0.0
 11
2.79690589831454
 21
4.73172711300832
 31
0.0
  0
LINE
  8
9
  6
CONTINUOUS
 62
9
 10
2.79907596282004
 20
4.78142976203271
 30
0.0
 11
2.79690589831454
 21
4.73172711300832
 31
0.0
  0
LINE
  8
9
  6
CONTINUOUS
 62
9
 10
2.79841283493066
 20
5.51630591068262
 30
0.0
 11
2.80130987108785
 21
5.4499528742369
 31
0.0
  0
LINE
  8
9
  6
CONTINUOUS
 62
9
 10
2.80347993559335
 20
5.4996555232613
 30
0.0
 11
2.80130987108785
 21
5.4499528742369
 31
0.0
  0
LINE
  8
9
  6
CONTINUOUS
 62
9
 10
2.79841283493066
 20
6.22496732800545
 30
0.0
 11
2.80130987108785
 21
6.15861429155973
 31
0.0
  0
LINE
  8
9
  6
CONTINUOUS
 62
9
 10
2.80347993559335
 20
6.20831694058413
 30
0.0
 11
2.80130987108785
 21
6.15861429155973
 31
0.0
  0
LINE
  8
9
  6
CONTINUOUS
 62
9
 10
2.80281680770396
 20
6.94319308923402
 30
0.0
 11
2.80571384386115
 21
6.8768400527883
 31
0.0
  0
LINE
  8
9
  6
CONTINUOUS
 62
9
 10
2.80788390836665
 20
6.9265427018127
 30
0.0
 11
2.80571384386115
 21
6.8768400527883
 31
0.0
  0
LINE
  8
9
  6
CONTINUOUS
 62
9
 10
3.78896505171301
 20
6.9688385080509
 30
0.0
 11
3.74459904278861
 21
6.92042150533367
 31
0.0
  0
LINE
  8
9
  6
CONTINUOUS
 62
9
 10
3.78127859028808
 20
6.95403211817
 30
0.0
 11
3.74459904278861
 21
6.92042150533367
 31
0.0
  0
LINE
  8
9
  6
CONTINUOUS
 62
9
 10
3.79496105541225
 20
6.31806589062273
 30
0.0
 11
3.80239511044873
 21
6.38331375438634
 31
0.0
  0
LINE
  8
9
  6
CONTINUOUS
 62
9
 10
3.7924765557203
 20
6.33456250032966
 30
0.0
 11
3.80239511044873
 21
6.38331375438634
 31
0.0
  0
LINE
  8
9
  6
CONTINUOUS
 62
9
 10
3.78930261818667
 20
5.528053584617
 30
0.0
 11
3.80239511046175
 21
5.46370192926901
 31
0.0
  0
LINE
  8
9
  6
CONTINUOUS
 62
9
 10
3.79676325055985
 20
5.51313212908699
 30
0.0
 11
3.80239511046175
 21
5.46370192926901
 31
0.0
  0
LINE
  8
9
  6
CONTINUOUS
 62
9
 10
3.78930261818667
 20
4.87751466410313
 30
0.0
 11
3.80239511046175
 21
4.81316300875514
 31
0.0
  0
LINE
  8
9
  6
CONTINUOUS
 62
9
 10
3.79676325055985
 20
4.86259320857312
 30
0.0
 11
3.80239511046175
 21
4.81316300875514
 31
0.0
  0
LINE
  8
9
  6
CONTINUOUS
 62
9
 10
3.78930261818667
 20
4.09011308929998
 30
0.0
 11
3.80239511046175
 21
4.02576143395199
 31
0.0
  0
LINE
  8
9
  6
CONTINUOUS
 62
9
 10
3.79676325055985
 20
4.07519163376997
 30
0.0
 11
3.80239511046175
 21
4.02576143395199
 31
0.0
  0
LINE
  8
9
  6
CONTINUOUS
 62
9
 10
3.79454755622042
 20
3.4430811084111
 30
0.0
 11
3.78145506394854
 21
3.50743276375974
 31
0.0
  0
LINE
  8
9
  6
CONTINUOUS
 62
9
 10
3.78708692384798
 20
3.45800256394148
 30
0.0
 11
3.78145506394854
 21
3.50743276375974
 31
0.0
  0
LINE
  8
9
  6
CONTINUOUS
 62
9
 10
3.79454755622042
 20
2.65567953360795
 30
0.0
 11
3.78145506394854
 21
2.72003118895659
 31
0.0
  0
LINE
  8
9
  6
CONTINUOUS
 62
9
 10
3.78708692384798
 20
2.67060098913833
 30
0.0
 11
3.78145506394854
 21
2.72003118895659
 31
0.0
  0
LINE
  8
9
  6
CONTINUOUS
 62
9
 10
3.79454755622042
 20
2.00514061309408
 30
0.0
 11
3.78145506394854
 21
2.06949226844273
 31
0.0
  0
LINE
  8
9
  6
CONTINUOUS
 62
9
 10
3.78708692384798
 20
2.02006206862447
 30
0.0
 11
3.78145506394854
 21
2.06949226844273
 31
0.0
  0
LINE
  8
9
  6
CONTINUOUS
 62
9
 10
3.79454755622042
 20
1.21773903829093
 30
0.0
 11
3.78145506394854
 21
1.28209069363958
 31
0.0
  0
LINE
  8
9
  6
CONTINUOUS
 62
9
 10
3.78708692384798
 20
1.23266049382132
 30
0.0
 11
3.78145506394854
 21
1.28209069363958
 31
0.0
  0
LINE
  8
0
  6
CONTINUOUS
 62
0
 10
0.999999999998229
 20
9.3899400135643
 30
0.0
 11
3.79454755622042
 21
1.21773903829093
 31
0.0
  0
LINE
  8
0
  6
CONTINUOUS
 62
0
 10
3.78708692384798
 20
1.23266049382132
 30
0.0
 11
3.79454755622042
 21
2.00514061309408
 31
0.0
  0
LINE
  8
0
  6
CONTINUOUS
 62
0
 10
3.78708692384798
 20
2.02006206862447
 30
0.0
 11
3.79454755622042
 21
2.65567953360795
 31
0.0
  0
LINE
  8
0
  6
CONTINUOUS
 62
0
 10
3.78708692384798
 20
2.67060098913833
 30
0.0
 11
3.79454755622042
 21
3.4430811084111
 31
0.0
  0
LINE
  8
0
  6
CONTINUOUS
 62
0
 10
3.78708692384798
 20
3.45800256394148
 30
0.0
 11
3.78930261818667
 21
4.09011308929998
 31
0.0
  0
LINE
  8
0
  6
CONTINUOUS
 62
0
 10
3.79676325055985
 20
4.07519163376997
 30
0.0
 11
3.78930261818667
 21
4.87751466410313
 31
0.0
  0
LINE
  8
0
  6
CONTINUOUS
 62
0
 10
3.79676325055985
 20
4.86259320857312
 30
0.0
 11
3.78930261818667
 21
5.528053584617
 31
0.0
  0
LINE
  8
0
  6
CONTINUOUS
 62
0
 10
3.79676325055985
 20
5.51313212908699
 30
0.0
 11
3.79496105541225
 21
6.31806589062273
 31
0.0
  0
LINE
  8
0
  6
CONTINUOUS
 62
0
 10
3.7924765557203
 20
6.33456250032966
 30
0.0
 11
3.78896505171301
 21
6.9688385080509
 31
0.0
  0
LINE
  8
0
  6
CONTINUOUS
 62
0
 10
3.78127859028808
 20
6.95403211817
 30
0.0
 11
2.80281680770396
 21
6.94319308923402
 31
0.0
  0
LINE
  8
0
  6
CONTINUOUS
 62
0
 10
2.80788390836665
 20
6.9265427018127
 30
0.0
 11
2.79841283493066
 21
6.22496732800545
 31
0.0
  0
LINE
  8
0
  6
CONTINUOUS
 62
0
 10
2.80347993559335
 20
6.20831694058413
 30
0.0
 11
2.79841283493066
 21
5.51630591068262
 31
0.0
  0
LINE
  8
0
  6
CONTINUOUS
 62
0
 10
2.80347993559335
 20
5.4996555232613
 30
0.0
 11
2.79400886215735
 21
4.79808014945404
 31
0.0
  0
LINE
  8
0
  6
CONTINUOUS
 62
0
 10
2.79907596282004
 20
4.78142976203271
 30
0.0
 11
2.79400886215735
 21
4.08941873213121
 31
0.0
  0
LINE
  8
0
  6
CONTINUOUS
 62
0
 10
2.79907596282004
 20
4.07276834470988
 30
0.0
 11
2.78959527632773
 21
3.37124361889778
 31
0.0
  0
LINE
  8
0
  6
CONTINUOUS
 62
0
 10
2.79437101591551
 20
3.35450733431023
 30
0.0
 11
2.78960488938404
 21
2.6625315535798
 31
0.0
  0
LINE
  8
0
  6
CONTINUOUS
 62
0
 10
2.79467199004673
 20
2.64588116615847
 30
0.0
 11
2.78519130355443
 21
1.94435644034638
 31
0.0
  0
LINE
  8
0
  6
CONTINUOUS
 62
0
 10
2.78996704314221
 20
1.92762015575882
 30
0.0
 11
2.78724069136875
 21
1.23925644066259
 31
0.0
  0
LINE
  8
0
  6
CONTINUOUS
 62
0
 10
2.7707440816621
 20
1.2367719409688
 30
0.0
 11
1.57742561862755
 21
1.25765898162665
 31
0.0
  0
LINE
  8
0
  6
CONTINUOUS
 62
0
 10
1.56996498625511
 20
1.27258043715704
 30
0.0
 11
1.55901677550903
 21
1.61549832528436
 31
0.0
  0
LINE
  8
0
  6
CONTINUOUS
 62
0
 10
1.48313893901319
 20
1.67914645705029
 30
0.0
 11
1.57783911781938
 21
1.92605411178696
 31
0.0
  0
LINE
  8
0
  6
CONTINUOUS
 62
0
 10
1.57535461812743
 20
1.94255072149388
 30
0.0
 11
1.57342086131409
 21
2.3294647695393
 31
0.0
  0
LINE
  8
0
  6
CONTINUOUS
 62
0
 10
1.58206856844944
 20
2.23080501122881
 30
0.0
 11
1.5802980806929
 21
2.6857527258547
 31
0.0
  0
LINE
  8
0
  6
CONTINUOUS
 62
0
 10
1.56549169081132
 20
2.6934391872783
 30
0.0
 11
1.56342074828234
 21
3.04238550383577
 31
0.0
  0
LINE
  8
0
  6
CONTINUOUS
 62
0
 10
1.4875429117865
 20
3.1060336356017
 30
0.0
 11
1.58224309059269
 21
3.35294129033836
 31
0.0
  0
LINE
  8
0
  6
CONTINUOUS
 62
0
 10
1.57975859090074
 20
3.36943790004529
 30
0.0
 11
1.57782483408074
 21
3.75635194809042
 31
0.0
  0
LINE
  8
0
  6
CONTINUOUS
 62
0
 10
1.58647254122052
 20
3.65769218978032
 30
0.0
 11
1.58623356417416
 21
4.11143333872947
 31
0.0
  0
LINE
  8
0
  6
CONTINUOUS
 62
0
 10
1.57877293180172
 20
4.12635479425986
 30
0.0
 11
1.56782472105564
 21
4.46927268238718
 31
0.0
  0
LINE
  8
0
  6
CONTINUOUS
 62
0
 10
1.4919468845598
 20
4.53292081415311
 30
0.0
 11
1.58664706336599
 21
4.77982846888977
 31
0.0
  0
LINE
  8
0
  6
CONTINUOUS
 62
0
 10
1.58416256367404
 20
4.7963250785967
 30
0.0
 11
1.57220563992491
 21
5.18323912664183
 31
0.0
  0
LINE
  8
0
  6
CONTINUOUS
 62
0
 10
1.58085334706469
 20
5.08457936833173
 30
0.0
 11
1.59958806488651
 21
5.13229912831993
 31
0.0
  0
LINE
  8
0
  6
CONTINUOUS
 62
0
 10
1.5909403577378
 20
5.23095888663042
 30
0.0
 11
1.6152961928795
 21
5.75022131909057
 31
0.0
  0
LINE
  8
0
  6
CONTINUOUS
 62
0
 10
1.60840364589544
 20
5.65142342668058
 30
0.0
 11
1.63254093706498
 21
6.19374601805091
 31
0.0
  0
LINE
  8
0
  6
CONTINUOUS
 62
0
 10
1.6256483900744
 20
6.09494812564138
 30
0.0
 11
1.54793815876873
 21
6.41748600456275
 31
0.0
  0
LINE
  8
0
  6
CONTINUOUS
 62
0
 10
1.57191318478503
 20
6.32139371103147
 30
0.0
 11
1.59504150972078
 21
6.96520769583228
 31
0.0
  0
LINE
  8
0
  6
CONTINUOUS
 62
0
 10
1.58758087734834
 20
6.98012915136267
 30
0.0
 11
1.59431115920438
 21
7.32756155680938
 31
0.0
  0
LINE
  8
0
  6
CONTINUOUS
 62
0
 10
1.57033613317083
 20
7.42365385033635
 30
0.0
 11
1.59545500891261
 21
7.63360282599258
 31
0.0
  0
LINE
  8
0
  6
CONTINUOUS
 62
0
 10
1.59297050922066
 20
7.65009943569951
 30
0.0
 11
1.59985898168591
 21
8.39119866596131
 31
0.0
  0
LINE
  8
0
  6
CONTINUOUS
 62
0
 10
1.59737448199396
 20
8.40769527566824
 30
0.0
 11
1.59391636427135
 21
9.05910729373333
 31
0.0
  0
LINE
  8
0
  6
CONTINUOUS
 62
0
 10
1.59869210385913
 20
9.04237100914578
 30
0.0
 11
1.61954583896064
 21
8.70613918773869
 31
0.0
  0
LINE
  8
0
  6
CONTINUOUS
 62
0
 10
1.71137830417684
 20
8.66905375824275
 30
0.0
 11
3.79052715110527
 21
9.19569163472898
 31
0.0
  0
LINE
  8
0
  6
CONTINUOUS
 62
0
 10
3.77608578328321
 20
9.18597784011338
 30
0.0
 11
2.80721116742096
 21
9.07879233310341
 31
0.0
  0
LINE
  8
0
  6
CONTINUOUS
 62
0
 10
2.81198690700874
 20
9.06205604851585
 30
0.0
 11
2.80721116742096
 21
8.37013091578057
 31
0.0
  0
LINE
  8
0
  6
CONTINUOUS
 62
0
 10
2.81198690700874
 20
8.35339463119302
 30
0.0
 11
2.8078827515692
 21
7.65042547405602
 31
0.0
  0
LINE
  8
0
  6
CONTINUOUS
 62
0
 10
2.81837483091524
 20
7.66431169677504
 30
0.0
 11
3.13011821051632
 21
8.03523080087704
 31
0.0
  0
LINE
  8
0
  6
CONTINUOUS
 62
0
 10
3.12322566353156
 20
7.9364329084671
 30
0.0
 11
3.14731796756551
 21
7.98988282141948
 31
0.0
  0
LINE
  8
0
  6
CONTINUOUS
 62
0
 10
3.1233429415106
 20
8.08597511494113
 30
0.0
 11
3.78930261818667
 21
8.40393457525103
 31
0.0
  0
LINE
  8
0
  6
CONTINUOUS
 62
0
 10
3.79676325055985
 20
8.38901311972101
 30
0.0
 11
3.78896505171301
 21
7.75624008285405
 31
0.0
  0
LINE
  8
0
  6
CONTINUOUS
 62
0
 10
3.78127859028808
 20
7.74143369297315
 30
0.0
 11
5.78819131515585
 21
8.06079665799291
 31
0.0
  0
LINE
  8
0
  6
CONTINUOUS
 62
0
 10
5.73719670628033
 20
7.97589624212693
 30
0.0
 11
6.36943417867654
 21
7.99491346561111
 31
0.0
  0
LINE
  8
0
  6
CONTINUOUS
 62
0
 10
6.37450127933923
 20
7.97826307818978
 30
0.0
 11
6.37297249722083
 21
7.43421567503696
 31
0.0
  0
LINE
  8
0
  6
CONTINUOUS
 62
0
 10
6.37803959788353
 20
7.41756528761564
 30
0.0
 11
6.37297249722083
 21
6.64681410023381
 31
0.0
  0
LINE
  8
0
  6
CONTINUOUS
 62
0
 10
6.37803959788352
 20
6.63016371281249
 30
0.0
 11
6.38740696019588
 21
6.30217739661157
 31
0.0
  0
LINE
  8
0
  6
CONTINUOUS
 62
0
 10
6.37875925304275
 20
6.40083715492167
 30
0.0
 11
6.37855059052314
 21
6.08972837529384
 31
0.0
  0
LINE
  8
0
  6
CONTINUOUS
 62
0
 10
6.36205398081649
 20
6.08724387560005
 30
0.0
 11
5.88704686461162
 21
6.14073120007989
 31
0.0
  0
LINE
  8
0
  6
CONTINUOUS
 62
0
 10
5.78838710630229
 20
6.13208349293125
 30
0.0
 11
6.37651081576514
 21
5.2987147348565
 31
0.0
  0
LINE
  8
0
  6
CONTINUOUS
 62
0
 10
6.38157791642783
 20
5.28206434743518
 30
0.0
 11
6.39094527874018
 21
4.95407803123426
 31
0.0
  0
LINE
  8
0
  6
CONTINUOUS
 62
0
 10
6.38229757158705
 20
5.05273778954436
 30
0.0
 11
6.38004913430943
 21
4.73801694428234
 31
0.0
  0
LINE
  8
0
  6
CONTINUOUS
 62
0
 10
6.38511623497213
 20
4.72136655686102
 30
0.0
 11
6.38952045721197
 21
3.39135093771084
 31
0.0
  0
LINE
  8
0
  6
CONTINUOUS
 62
0
 10
6.38703595752002
 20
3.40784754741777
 30
0.0
 11
6.38004913430943
 21
3.95061536947919
 31
0.0
  0
LINE
  8
0
  6
CONTINUOUS
 62
0
 10
6.38511623497212
 20
3.93396498205786
 30
0.0
 11
6.06401589015035
 21
3.6975143766822
 31
0.0
  0
LINE
  8
0
  6
CONTINUOUS
 62
0
 10
6.13987311182869
 20
3.76118707623095
 30
0.0
 11
5.87793337560254
 21
3.90973837518289
 31
0.0
  0
LINE
  8
0
  6
CONTINUOUS
 62
0
 10
5.78143008109059
 20
3.93200145890739
 30
0.0
 11
5.72396224753487
 21
3.77742695061167
 31
0.0
  0
LINE
  8
0
  6
CONTINUOUS
 62
0
 10
5.70169916379651
 20
3.68092365610292
 30
0.0
 11
6.38357783979741
 21
2.60256665209703
 31
0.0
  0
LINE
  8
0
  6
CONTINUOUS
 62
0
 10
6.38835357938519
 20
2.58583036750948
 30
0.0
 11
6.39802191582877
 21
2.25787930047965
 31
0.0
  0
LINE
  8
0
  6
CONTINUOUS
 62
0
 10
6.38937420867564
 20
2.35653905878976
 30
0.0
 11
6.38711615834172
 21
2.04186886152287
 31
0.0
  0
LINE
  8
0
  6
CONTINUOUS
 62
0
 10
6.3918918979295
 20
2.02513257693532
 30
0.0
 11
6.38711615834172
 21
1.25446728671972
 31
0.0
  0
LINE
  8
0
  6
CONTINUOUS
 62
0
 10
5.78646628933825
 20
1.07563910314402
 30
0.0
 11
5.26040121202405
 21
1.21467254589875
 31
0.0
  0
LINE
  8
0
  6
CONTINUOUS
 62
0
 10
5.16389791751195
 20
1.23693562962257
 30
0.0
 11
5.16039930198972
 21
1.3020927585855
 31
0.0
  0
LINE
  8
0
  6
CONTINUOUS
 62
0
 10
5.12168730176365
 20
1.39325147614493
 30
0.0
 11
5.11401322791565
 21
2.15108814998442
 31
0.0
  0
LINE
  8
0
  6
CONTINUOUS
 62
0
 10
5.09175014417797
 20
2.05458485547552
 30
0.0
 11
5.08092621215245
 21
2.92663545352787
 31
0.0
  0
LINE
  8
0
  6
CONTINUOUS
 62
0
 10
5.07403366516839
 20
2.82783756111788
 30
0.0
 11
4.82804258446756
 21
2.81286357844804
 31
0.0
  0
LINE
  8
0
  6
CONTINUOUS
 62
0
 10
4.89169071625394
 20
2.88874141492674
 30
0.0
 11
4.8968305934738
 21
3.5299262441796
 31
0.0
  0
LINE
  8
0
  6
CONTINUOUS
 62
0
 10
4.97270842995821
 20
3.46627811240003
 30
0.0
 11
5.08092621215245
 21
4.36457594884488
 31
0.0
  0
LINE
  8
0
  6
CONTINUOUS
 62
0
 10
5.07403366516839
 20
4.26577805643489
 30
0.0
 11
4.82804258446756
 21
4.25080407376506
 31
0.0
  0
LINE
  8
0
  6
CONTINUOUS
 62
0
 10
4.89169071625394
 20
4.32668191024376
 30
0.0
 11
5.01356817804168
 21
5.03184063431707
 31
0.0
  0
LINE
  8
0
  6
CONTINUOUS
 62
0
 10
5.03754320405798
 20
4.93574834078579
 30
0.0
 11
5.08092621215245
 21
5.80251644416189
 31
0.0
  0
LINE
  8
0
  6
CONTINUOUS
 62
0
 10
5.07403366516839
 20
5.7037185517519
 30
0.0
 11
4.82804258446756
 21
5.68874456908207
 31
0.0
  0
LINE
  8
0
  6
CONTINUOUS
 62
0
 10
4.89169071625394
 20
5.76462240556077
 30
0.0
 11
5.01356817804168
 21
6.46978112963408
 31
0.0
  0
LINE
  8
0
  6
CONTINUOUS
 62
0
 10
5.03754320405798
 20
6.3736888361028
 30
0.0
 11
5.08092621215245
 21
7.2404569394789
 31
0.0
  0
LINE
  8
0
  6
CONTINUOUS
 62
0
 10
5.07403366516839
 20
7.14165904706891
 30
0.0
 11
4.82804258446756
 21
7.12668506439908
 31
0.0
  0
LINE
  8
0
  6
CONTINUOUS
 62
0
 10
4.89169071625394
 20
7.20256290087777
 30
0.0
 11
4.89683059347379
 21
7.84374773013063
 31
0.0
  0
LINE
  8
0
  6
CONTINUOUS
 62
0
 10
4.9727084299582
 20
7.78009959835107
 30
0.0
 11
5.05102261818667
 21
8.46298969336126
 31
0.0
  0
LINE
  8
0
  6
CONTINUOUS
 62
0
 10
5.05848325055985
 20
8.44806823783125
 30
0.0
 11
5.06454875288451
 21
8.82682384082459
 31
0.0
  0
LINE
  8
0
  6
CONTINUOUS
 62
0
 10
5.07144129989282
 20
8.92562173323289
 30
0.0
 11
5.05668105541225
 21
9.13489176314654
 31
0.0
  0
LINE
  8
0
  6
CONTINUOUS
 62
0
 10
5.0541965557203
 20
9.15138837285347
 30
0.0
 11
5.88323752861621
 21
9.35312441647187
 31
0.0
  0
LINE
  8
0
  6
CONTINUOUS
 62
0
 10
5.78714523509414
 20
9.32914939041869
 30
0.0
 11
6.37536718303478
 21
8.78374839922007
 31
0.0
  0
LINE
  8
0
  6
CONTINUOUS
 62
0
 10
6.37288268334283
 20
8.800245008927
 30
0.0
 11
6.37091335639243
 21
9.12810393886218
 31
0.0
  0
LINE
  8
5
  6
CONTINUOUS
 62
5
 10
6.23571704159335
 20
8.9797415315276
 30
0.0
 11
6.37739099901534
 21
8.9797415315276
 31
0.0
  0
LINE
  8
5
  6
CONTINUOUS
 62
5
 10
6.37739099901534
 20
8.9797415315276
 30
0.0
 11
6.50894538805005
 21
8.9797415315276
 31
0.0
  0
ARC
  8
5
  6
CONTINUOUS
 62
5
 10
6.37233121482922
 20
8.78289113790168
 30
0.0
 40
0.0669291337819035
 50
81.0000000074624
 51
90.0000000064335
  0
ARC
  8
5
  6
CONTINUOUS
 62
5
 10
6.37233121483024
 20
8.78289113783133
 30
0.0
 40
0.066929133851231
 50
6.42907145536055E-9
 51
81.0000000177484
  0
ARC
  8
5
  6
CONTINUOUS
 62
5
 10
5.65994429980644
 20
9.31119985609049
 30
0.0
 40
0.0787401574720346
 50
9.00000001569293
 51
90.0000000064321
  0
ARC
  8
5
  6
CONTINUOUS
 62
5
 10
5.65994429988921
 20
9.31119985608929
 30
0.0
 40
0.0787401573904692
 50
6.432034937185E-9
 51
9.00000002598269
  0
ARC
  8
5
  6
CONTINUOUS
 62
5
 10
5.05364508720669
 20
9.13403450182815
 30
0.0
 40
0.0669291337819046
 50
81.0000000074625
 51
90.0000000064334
  0
ARC
  8
5
  6
CONTINUOUS
 62
5
 10
5.05364508720771
 20
9.1340345017578
 30
0.0
 40
0.0669291338512309
 50
6.42896967761074E-9
 51
81.0000000177485
  0
ARC
  8
5
  6
CONTINUOUS
 62
5
 10
5.05364508721906
 20
8.79938883266009
 30
0.0
 40
0.177165354128568
 50
81.0000000074602
 51
90.0000000064313
  0
ARC
  8
5
  6
CONTINUOUS
 62
5
 10
5.05364508722177
 20
8.79938883247386
 30
0.0
 40
0.177165354312081
 50
6.43006378842116E-9
 51
81.0000000177494
  0
ARC
  8
5
  6
CONTINUOUS
 62
5
 10
5.05364508720471
 20
8.46474316316308
 30
0.0
 40
0.0669291338512316
 50
279.00000001672
 51
1.67206912103121E-8
  0
ARC
  8
5
  6
CONTINUOUS
 62
5
 10
5.05364508720368
 20
8.46474316309274
 30
0.0
 40
0.0669291337819082
 50
270.000000006427
 51
279.000000027007
  0
ARC
  8
5
  6
CONTINUOUS
 62
5
 10
5.05364508719217
 20
7.69609400644978
 30
0.0
 40
0.0669291338437585
 50
135.000000001286
 51
180.000000011575
  0
ARC
  8
5
  6
CONTINUOUS
 62
5
 10
5.05364508720067
 20
7.69609400645828
 30
0.0
 40
0.0669291338437575
 50
90.0000000012857
 51
135.000000011576
  0
ARC
  8
5
  6
CONTINUOUS
 62
5
 10
5.05364508719519
 20
7.3614483371489
 30
0.0
 40
0.17716535433071
 50
225.000000001286
 51
270.000000011576
  0
ARC
  8
5
  6
CONTINUOUS
 62
5
 10
5.05364508715679
 20
7.36144833713299
 30
0.0
 40
0.177165354292302
 50
179.999999996141
 51
225.000000006431
  0
ARC
  8
5
  6
CONTINUOUS
 62
5
 10
5.05364508720669
 20
7.02680266792844
 30
0.0
 40
0.0669291337819038
 50
81.0000000074624
 51
90.0000000064335
  0
ARC
  8
5
  6
CONTINUOUS
 62
5
 10
5.05364508720771
 20
7.02680266785809
 30
0.0
 40
0.0669291338512308
 50
6.42975845517174E-9
 51
81.0000000177493
  0
ARC
  8
5
  6
CONTINUOUS
 62
5
 10
5.05364508719965
 20
6.25815351113277
 30
0.0
 40
0.0669291338512308
 50
99.0000000012857
 51
180.000000011576
  0
ARC
  8
5
  6
CONTINUOUS
 62
5
 10
5.05364508720067
 20
6.25815351120313
 30
0.0
 40
0.066929133781904
 50
90.0000000012859
 51
99.0000000115755
  0
ARC
  8
5
  6
CONTINUOUS
 62
5
 10
5.05364508719519
 20
5.92350784183189
 30
0.0
 40
0.177165354330709
 50
225.000000001286
 51
270.000000011576
  0
ARC
  8
5
  6
CONTINUOUS
 62
5
 10
5.05364508715679
 20
5.92350784181598
 30
0.0
 40
0.177165354292302
 50
179.999999996141
 51
225.000000006431
  0
ARC
  8
5
  6
CONTINUOUS
 62
5
 10
5.05364508720668
 20
5.58886217261143
 30
0.0
 40
0.0669291337819043
 50
81.0000000074576
 51
90.0000000064286
  0
ARC
  8
5
  6
CONTINUOUS
 62
5
 10
5.05364508720771
 20
5.58886217254108
 30
0.0
 40
0.0669291338512308
 50
6.42975845517174E-9
 51
81.0000000177493
  0
ARC
  8
5
  6
CONTINUOUS
 62
5
 10
5.05364508719965
 20
4.82021301581576
 30
0.0
 40
0.0669291338512308
 50
99.0000000012857
 51
180.000000011576
  0
ARC
  8
5
  6
CONTINUOUS
 62
5
 10
5.05364508720067
 20
4.82021301588612
 30
0.0
 40
0.066929133781904
 50
90.0000000012859
 51
99.0000000115755
  0
ARC
  8
5
  6
CONTINUOUS
 62
5
 10
5.05364508719519
 20
4.48556734651488
 30
0.0
 40
0.177165354330709
 50
225.000000001286
 51
270.000000011576
  0
ARC
  8
5
  6
CONTINUOUS
 62
5
 10
5.05364508715679
 20
4.48556734649897
 30
0.0
 40
0.177165354292302
 50
179.999999996141
 51
225.000000006431
  0
ARC
  8
5
  6
CONTINUOUS
 62
5
 10
5.05364508720668
 20
4.15092167729442
 30
0.0
 40
0.0669291337819043
 50
81.0000000074576
 51
90.0000000064286
  0
ARC
  8
5
  6
CONTINUOUS
 62
5
 10
5.05364508720771
 20
4.15092167722407
 30
0.0
 40
0.0669291338512308
 50
6.42975845517174E-9
 51
81.0000000177493
  0
ARC
  8
5
  6
CONTINUOUS
 62
5
 10
5.05364508719217
 20
3.38227252049874
 30
0.0
 40
0.0669291338437579
 50
135.000000001285
 51
180.000000011576
  0
ARC
  8
5
  6
CONTINUOUS
 62
5
 10
5.05364508720067
 20
3.38227252050724
 30
0.0
 40
0.0669291338437576
 50
90.0000000012849
 51
135.000000011575
  0
ARC
  8
5
  6
CONTINUOUS
 62
5
 10
5.05364508719519
 20
3.04762685119786
 30
0.0
 40
0.177165354330709
 50
225.000000001286
 51
270.000000011576
  0
ARC
  8
5
  6
CONTINUOUS
 62
5
 10
5.05364508715679
 20
3.04762685118195
 30
0.0
 40
0.177165354292302
 50
179.999999996141
 51
225.000000006431
  0
ARC
  8
5
  6
CONTINUOUS
 62
5
 10
5.05364508720668
 20
2.71298118197741
 30
0.0
 40
0.0669291337819047
 50
81.0000000074576
 51
90.0000000064286
  0
ARC
  8
5
  6
CONTINUOUS
 62
5
 10
5.05364508720771
 20
2.71298118190706
 30
0.0
 40
0.066929133851231
 50
6.42917323311035E-9
 51
81.0000000177491
  0
ARC
  8
5
  6
CONTINUOUS
 62
5
 10
5.05364508720668
 20
1.94433202520465
 30
0.0
 40
0.0669291338203211
 50
72.0000000084894
 51
90.0000000064317
  0
ARC
  8
5
  6
CONTINUOUS
 62
5
 10
5.05364508720895
 20
1.94433202517272
 30
0.0
 40
0.0669291338499945
 50
6.42978389960919E-9
 51
72.000000018778
  0
ARC
  8
5
  6
CONTINUOUS
 62
5
 10
5.05364508721709
 20
1.60968635585699
 30
0.0
 40
0.177165354308813
 50
288.000000016719
 51
1.67196607105953E-8
  0
ARC
  8
5
  6
CONTINUOUS
 62
5
 10
5.0536450872111
 20
1.60968635577245
 30
0.0
 40
0.177165354230265
 50
270.000000006429
 51
288.000000027009
  0
ARC
  8
5
  6
CONTINUOUS
 62
5
 10
5.05364508723561
 20
1.27504068657802
 30
0.0
 40
0.0669291338203273
 50
342.000000016718
 51
1.67188910163624E-8
  0
ARC
  8
5
  6
CONTINUOUS
 62
5
 10
5.05364508720368
 20
1.27504068657576
 30
0.0
 40
0.066929133849996
 50
270.000000006428
 51
342.000000027008
  0
ARC
  8
5
  6
CONTINUOUS
 62
5
 10
5.65994429988567
 20
1.09787533224599
 30
0.0
 40
0.0787401573904758
 50
351.000000016719
 51
1.6719171700313E-8
  0
ARC
  8
5
  6
CONTINUOUS
 62
5
 10
5.6599442998029
 20
1.09787533224478
 30
0.0
 40
0.0787401574720366
 50
270.000000006429
 51
351.000000027009
  0
LINE
  8
5
  6
CONTINUOUS
 62
5
 10
6.52663698077154
 20
1.05814234243634
 30
0.0
 11
6.39508259173683
 21
1.05814234243634
 31
0.0
  0
LINE
  8
5
  6
CONTINUOUS
 62
5
 10
6.39508259173683
 20
1.05814234243634
 30
0.0
 11
6.25340863431484
 21
1.05814234243634
 31
0.0
  0
ARC
  8
5
  6
CONTINUOUS
 62
5
 10
6.3900228075432
 20
1.25499273613713
 30
0.0
 40
0.0669291338582679
 50
269.000000000028
 51
1.0288560061348E-8
  0
ARC
  8
5
  6
CONTINUOUS
 62
5
 10
6.39002280753708
 20
1.25499273613112
 30
0.0
 40
0.066929133852152
 50
179.999999994853
 51
269.000000005173
  0
ARC
  8
5
  6
CONTINUOUS
 62
5
 10
6.3900228075432
 20
2.04239431094028
 30
0.0
 40
0.0669291338582678
 50
269.000000000028
 51
1.02884646447075E-8
  0
ARC
  8
5
  6
CONTINUOUS
 62
5
 10
6.39002280753708
 20
2.04239431093427
 30
0.0
 40
0.0669291338521519
 50
179.999999994853
 51
269.000000005173
  0
LINE
  8
5
  6
CONTINUOUS
 62
5
 10
6.52309866222724
 20
2.40624170781365
 30
0.0
 11
6.39154427319254
 21
2.40624170781365
 31
0.0
  0
LINE
  8
5
  6
CONTINUOUS
 62
5
 10
6.39154427319254
 20
2.40624170781365
 30
0.0
 11
6.24987031577055
 21
2.40624170781365
 31
0.0
  0
ARC
  8
5
  6
CONTINUOUS
 62
5
 10
6.38648448899889
 20
2.60309210151444
 30
0.0
 40
0.0669291338582675
 50
269.000000000028
 51
1.02881783947862E-8
  0
ARC
  8
5
  6
CONTINUOUS
 62
5
 10
6.38648448899277
 20
2.60309210150843
 30
0.0
 40
0.066929133852152
 50
179.999999994853
 51
269.000000005173
  0
ARC
  8
5
  6
CONTINUOUS
 62
5
 10
5.65994429980644
 20
3.5594378748588
 30
0.0
 40
0.0787401574356723
 50
72.0000000084883
 51
90.0000000064304
  0
ARC
  8
5
  6
CONTINUOUS
 62
5
 10
5.6599442998091
 20
3.55943787482123
 30
0.0
 40
0.0787401574705807
 50
6.43187034348023E-9
 51
72.0000000187794
  0
ARC
  8
5
  6
CONTINUOUS
 62
5
 10
5.65994429984047
 20
3.97375632288002
 30
0.0
 40
0.0787401574356731
 50
342.000000016718
 51
1.67177460166771E-8
  0
ARC
  8
5
  6
CONTINUOUS
 62
5
 10
5.6599442998029
 20
3.97375632287735
 30
0.0
 40
0.0787401574705824
 50
270.00000000643
 51
342.000000027009
  0
ARC
  8
5
  6
CONTINUOUS
 62
5
 10
6.24633199722448
 20
3.83308123067303
 30
0.0
 40
0.0787401574803146
 50
215.0000000008
 51
270.000000011576
  0
ARC
  8
5
  6
CONTINUOUS
 62
5
 10
6.24633199720206
 20
3.83308123066596
 30
0.0
 40
0.0787401574578897
 50
179.999999996141
 51
215.000000005945
  0
ARC
  8
5
  6
CONTINUOUS
 62
5
 10
6.38294617046061
 20
3.95119146688573
 30
0.0
 40
0.0669291338522573
 50
270.000000015434
 51
1.54339405639418E-8
  0
ARC
  8
5
  6
CONTINUOUS
 62
5
 10
6.3829461704546
 20
3.95119146689174
 30
0.0
 40
0.0669291338582679
 50
179.999999999999
 51
270.00000002058
  0
ARC
  8
5
  6
CONTINUOUS
 62
5
 10
6.3864844890064
 20
3.39049367639245
 30
0.0
 40
0.0669291337819032
 50
81.0000000074575
 51
90.0000000064287
  0
ARC
  8
5
  6
CONTINUOUS
 62
5
 10
6.38648448900743
 20
3.3904936763221
 30
0.0
 40
0.0669291338512309
 50
6.429096899798E-9
 51
81.0000000177492
  0
ARC
  8
5
  6
CONTINUOUS
 62
5
 10
6.38294617046062
 20
4.73859304168888
 30
0.0
 40
0.0669291338522577
 50
270.000000015434
 51
1.54335652584894E-8
  0
ARC
  8
5
  6
CONTINUOUS
 62
5
 10
6.38294617045461
 20
4.73859304169489
 30
0.0
 40
0.0669291338582674
 50
179.999999999999
 51
270.000000020579
  0
LINE
  8
5
  6
CONTINUOUS
 62
5
 10
6.51602202513866
 20
5.10244043856826
 30
0.0
 11
6.38446763610395
 21
5.10244043856826
 31
0.0
  0
LINE
  8
5
  6
CONTINUOUS
 62
5
 10
6.38446763610395
 20
5.10244043856826
 30
0.0
 11
6.24279367868195
 21
5.10244043856826
 31
0.0
  0
ARC
  8
5
  6
CONTINUOUS
 62
5
 10
6.37940785191632
 20
5.29929083226304
 30
0.0
 40
0.0669291338522573
 50
270.000000015434
 51
1.54339405639418E-8
  0
ARC
  8
5
  6
CONTINUOUS
 62
5
 10
6.37940785191031
 20
5.29929083226905
 30
0.0
 40
0.0669291338582678
 50
179.999999999999
 51
270.00000002058
  0
LINE
  8
5
  6
CONTINUOUS
 62
5
 10
5.73868445727791
 20
5.41169681820586
 30
0.0
 11
5.73868445727791
 21
6.13425355743699
 31
0.0
  0
LINE
  8
5
  6
CONTINUOUS
 62
5
 10
5.73868445727791
 20
6.13425355743699
 30
0.0
 11
5.73868445727791
 21
6.43531886544996
 31
0.0
  0
ARC
  8
5
  6
CONTINUOUS
 62
5
 10
6.37940785184145
 20
6.08669240708572
 30
0.0
 40
0.0669291337819041
 50
171.000000001285
 51
180.000000011575
  0
ARC
  8
5
  6
CONTINUOUS
 62
5
 10
6.3794078519118
 20
6.08669240708675
 30
0.0
 40
0.0669291338512309
 50
90.0000000012852
 51
171.000000011575
  0
LINE
  8
5
  6
CONTINUOUS
 62
5
 10
6.51248370659436
 20
6.45053980394557
 30
0.0
 11
6.38092931755965
 21
6.45053980394557
 31
0.0
  0
LINE
  8
5
  6
CONTINUOUS
 62
5
 10
6.38092931755965
 20
6.45053980394557
 30
0.0
 11
6.23925536013765
 21
6.45053980394557
 31
0.0
  0
ARC
  8
5
  6
CONTINUOUS
 62
5
 10
6.37586953337201
 20
6.64739019764035
 30
0.0
 40
0.0669291338522573
 50
270.000000015434
 51
1.54339405639418E-8
  0
ARC
  8
5
  6
CONTINUOUS
 62
5
 10
6.375869533366
 20
6.64739019764636
 30
0.0
 40
0.0669291338582678
 50
179.999999999999
 51
270.00000002058
  0
ARC
  8
5
  6
CONTINUOUS
 62
5
 10
6.37586953337202
 20
7.4347917724435
 30
0.0
 40
0.0669291338522573
 50
270.000000015434
 51
1.54339405639418E-8
  0
ARC
  8
5
  6
CONTINUOUS
 62
5
 10
6.37586953336601
 20
7.43479177244951
 30
0.0
 40
0.0669291338582678
 50
179.999999999999
 51
270.00000002058
  0
ARC
  8
5
  6
CONTINUOUS
 62
5
 10
6.37233121482772
 20
7.99548956301765
 30
0.0
 40
0.0669291338522577
 50
270.000000015434
 51
1.54335652584894E-8
  0
ARC
  8
5
  6
CONTINUOUS
 62
5
 10
6.37233121482171
 20
7.99548956302366
 30
0.0
 40
0.0669291338582674
 50
179.999999999999
 51
270.000000020579
  0
ARC
  8
5
  6
CONTINUOUS
 62
5
 10
5.65994429980644
 20
7.87325936078696
 30
0.0
 40
0.0787401574585523
 50
54.0000000105476
 51
90.0000000064318
  0
ARC
  8
5
  6
CONTINUOUS
 62
5
 10
5.65994429981325
 20
7.87325936077227
 30
0.0
 40
0.0787401574664354
 50
6.43237923222927E-9
 51
54.0000000208381
  0
ARC
  8
5
  6
CONTINUOUS
 62
5
 10
3.79192508719767
 20
7.755149124548
 30
0.0
 40
0.0669291338582676
 50
225.000000001285
 51
270.000000011575
  0
ARC
  8
5
  6
CONTINUOUS
 62
5
 10
3.79192508718316
 20
7.75514912454199
 30
0.0
 40
0.0669291338437582
 50
179.999999996141
 51
225.000000006431
  0
ARC
  8
5
  6
CONTINUOUS
 62
5
 10
3.7919250872047
 20
8.40568804505285
 30
0.0
 40
0.0669291338512308
 50
279.000000016718
 51
1.67196670717047E-8
  0
ARC
  8
5
  6
CONTINUOUS
 62
5
 10
3.79192508720368
 20
8.40568804498249
 30
0.0
 40
0.0669291337819035
 50
270.000000006427
 51
279.000000027007
  0
ARC
  8
5
  6
CONTINUOUS
 62
5
 10
3.10539340718013
 20
8.21317605022851
 30
0.0
 40
0.078740157472036
 50
279.000000016718
 51
1.6718884655253E-8
  0
ARC
  8
5
  6
CONTINUOUS
 62
5
 10
3.10539340717892
 20
8.21317605014574
 30
0.0
 40
0.0787401573904741
 50
270.000000006427
 51
279.000000027007
  0
ARC
  8
5
  6
CONTINUOUS
 62
5
 10
3.10098943440915
 20
7.80991091901811
 30
0.0
 40
0.0787401573904773
 50
81.0000000074608
 51
90.000000006432
  0
ARC
  8
5
  6
CONTINUOUS
 62
5
 10
3.10098943441036
 20
7.80991091893534
 30
0.0
 40
0.0787401574720365
 50
6.43049634385784E-9
 51
81.0000000177491
  0
ARC
  8
5
  6
CONTINUOUS
 62
5
 10
2.80571384385664
 20
7.6524306039797
 30
0.0
 40
0.0669291338464721
 50
36.0000000126038
 51
90.0000000064301
  0
ARC
  8
5
  6
CONTINUOUS
 62
5
 10
2.80571384386913
 20
7.65243060397392
 30
0.0
 40
0.0669291338397691
 50
6.43123423254394E-9
 51
36.0000000228951
  0
ARC
  8
5
  6
CONTINUOUS
 62
5
 10
2.81011781662244
 20
8.37065636519798
 30
0.0
 40
0.066929133858268
 50
269.000000000028
 51
1.02884837280356E-8
  0
ARC
  8
5
  6
CONTINUOUS
 62
5
 10
2.81011781661632
 20
8.37065636519197
 30
0.0
 40
0.0669291338521519
 50
179.999999994853
 51
269.000000005173
  0
ARC
  8
5
  6
CONTINUOUS
 62
5
 10
2.81011781662244
 20
9.07931778252082
 30
0.0
 40
0.066929133858268
 50
269.000000000028
 51
1.02884837280356E-8
  0
ARC
  8
5
  6
CONTINUOUS
 62
5
 10
2.81011781661632
 20
9.07931778251481
 30
0.0
 40
0.0669291338521519
 50
179.999999994853
 51
269.000000005173
  0
ARC
  8
5
  6
CONTINUOUS
 62
5
 10
3.79192508719767
 20
9.19308961986501
 30
0.0
 40
0.0669291338582681
 50
197.000000001056
 51
270.000000011574
  0
ARC
  8
5
  6
CONTINUOUS
 62
5
 10
3.79192508715746
 20
9.193089619859
 30
0.0
 40
0.0669291338180558
 50
179.99999999614
 51
197.000000006201
  0
ARC
  8
5
  6
CONTINUOUS
 62
5
 10
1.59682301353909
 20
8.72498707384349
 30
0.0
 40
0.177165354264445
 50
333.000000015433
 51
1.54334380363021E-8
  0
ARC
  8
5
  6
CONTINUOUS
 62
5
 10
1.59682301347283
 20
8.7249870738594
 30
0.0
 40
0.177165354330709
 50
179.999999999999
 51
333.000000020579
  0
ARC
  8
5
  6
CONTINUOUS
 62
5
 10
1.59682301347283
 20
9.05963274315074
 30
0.0
 40
0.066929133858268
 50
269.000000000028
 51
1.02884837280356E-8
  0
ARC
  8
5
  6
CONTINUOUS
 62
5
 10
1.59682301346671
 20
9.05963274314473
 30
0.0
 40
0.0669291338521519
 50
179.999999994853
 51
269.000000005173
  0
ARC
  8
5
  6
CONTINUOUS
 62
5
 10
1.59682301348035
 20
8.39034140464292
 30
0.0
 40
0.066929133781902
 50
81.0000000074623
 51
90.0000000064336
  0
ARC
  8
5
  6
CONTINUOUS
 62
5
 10
1.59682301348137
 20
8.39034140457257
 30
0.0
 40
0.0669291338512316
 50
6.42959942743767E-9
 51
81.0000000177487
  0
ARC
  8
5
  6
CONTINUOUS
 62
5
 10
1.59241904070705
 20
7.63274556467419
 30
0.0
 40
0.0669291337819008
 50
81.0000000074622
 51
90.0000000064337
  0
ARC
  8
5
  6
CONTINUOUS
 62
5
 10
1.59241904070807
 20
7.63274556460384
 30
0.0
 40
0.0669291338512308
 50
6.43052178829529E-9
 51
81.0000000177493
  0
ARC
  8
5
  6
CONTINUOUS
 62
5
 10
1.59241904070079
 20
7.29809989534378
 30
0.0
 40
0.177165354312082
 50
99.0000000012853
 51
180.000000011576
  0
ARC
  8
5
  6
CONTINUOUS
 62
5
 10
1.59241904070351
 20
7.29809989553001
 30
0.0
 40
0.177165354128571
 50
90.0000000012868
 51
99.0000000115766
  0
ARC
  8
5
  6
CONTINUOUS
 62
5
 10
1.59241904070001
 20
6.96345422603017
 30
0.0
 40
0.0669291338512308
 50
99.0000000012849
 51
180.000000011576
  0
ARC
  8
5
  6
CONTINUOUS
 62
5
 10
1.59241904070103
 20
6.96345422610053
 30
0.0
 40
0.066929133781904
 50
90.0000000012859
 51
99.0000000115755
  0
ARC
  8
5
  6
CONTINUOUS
 62
5
 10
1.5880150679267
 20
6.20585838606144
 30
0.0
 40
0.0669291338512308
 50
99.0000000012849
 51
180.000000011576
  0
ARC
  8
5
  6
CONTINUOUS
 62
5
 10
1.58801506792772
 20
6.2058583861318
 30
0.0
 40
0.066929133781904
 50
90.0000000012859
 51
99.0000000115755
  0
ARC
  8
5
  6
CONTINUOUS
 62
5
 10
1.5880150679461
 20
5.87121271695474
 30
0.0
 40
0.177165354128572
 50
81.0000000074585
 51
90.0000000064297
  0
ARC
  8
5
  6
CONTINUOUS
 62
5
 10
1.58801506794882
 20
5.87121271676851
 30
0.0
 40
0.177165354312083
 50
6.42891878873584E-9
 51
81.0000000177484
  0
ARC
  8
5
  6
CONTINUOUS
 62
5
 10
1.58801506793373
 20
5.53656704754011
 30
0.0
 40
0.0669291337819013
 50
81.0000000074574
 51
90.0000000064288
  0
ARC
  8
5
  6
CONTINUOUS
 62
5
 10
1.58801506793476
 20
5.53656704746976
 30
0.0
 40
0.066929133851231
 50
6.4299365662339E-9
 51
81.0000000177491
  0
LINE
  8
5
  6
CONTINUOUS
 62
5
 10
3.09658546162701
 20
5.28066153565422
 30
0.0
 11
1.59311042225693
 21
5.28066153565422
 31
0.0
  0
LINE
  8
5
  6
CONTINUOUS
 62
5
 10
1.59311042225693
 20
5.28066153565422
 30
0.0
 11
1.09195207580024
 21
5.28066153565422
 31
0.0
  0
LINE
  8
5
  6
CONTINUOUS
 62
5
 10
1.08754810302693
 20
5.03487671930754
 30
0.0
 11
1.57868328255449
 21
5.03487671930754
 31
0.0
  0
LINE
  8
5
  6
CONTINUOUS
 62
5
 10
1.57868328255449
 20
5.03487671930754
 30
0.0
 11
3.0921814888537
 21
5.03487671930754
 31
0.0
  0
ARC
  8
5
  6
CONTINUOUS
 62
5
 10
1.58361109516042
 20
4.77897120757138
 30
0.0
 40
0.0669291337819013
 50
81.0000000074574
 51
90.0000000064288
  0
ARC
  8
5
  6
CONTINUOUS
 62
5
 10
1.58361109516145
 20
4.77897120750103
 30
0.0
 40
0.066929133851231
 50
6.4299365662339E-9
 51
81.0000000177491
  0
ARC
  8
5
  6
CONTINUOUS
 62
5
 10
1.58361109513439
 20
4.44432553824097
 30
0.0
 40
0.177165354292302
 50
135.000000001286
 51
180.000000011576
  0
ARC
  8
5
  6
CONTINUOUS
 62
5
 10
1.58361109515689
 20
4.44432553826347
 30
0.0
 40
0.177165354292302
 50
90.0000000012854
 51
135.000000011576
  0
ARC
  8
5
  6
CONTINUOUS
 62
5
 10
1.58361109515338
 20
4.10967986892736
 30
0.0
 40
0.0669291338512308
 50
99.0000000012849
 51
180.000000011576
  0
ARC
  8
5
  6
CONTINUOUS
 62
5
 10
1.58361109515441
 20
4.10967986899772
 30
0.0
 40
0.066929133781904
 50
90.0000000012859
 51
99.0000000115755
  0
LINE
  8
5
  6
CONTINUOUS
 62
5
 10
1.08314413025362
 20
3.60798954075613
 30
0.0
 11
1.58430247671031
 21
3.60798954075613
 31
0.0
  0
LINE
  8
5
  6
CONTINUOUS
 62
5
 10
1.58430247671031
 20
3.60798954075613
 30
0.0
 11
3.08777751608039
 21
3.60798954075613
 31
0.0
  0
ARC
  8
5
  6
CONTINUOUS
 62
5
 10
1.57920712238712
 20
3.35208402901997
 30
0.0
 40
0.0669291337819013
 50
81.0000000074574
 51
90.0000000064288
  0
ARC
  8
5
  6
CONTINUOUS
 62
5
 10
1.57920712238815
 20
3.35208402894962
 30
0.0
 40
0.066929133851231
 50
6.4299365662339E-9
 51
81.0000000177491
  0
ARC
  8
5
  6
CONTINUOUS
 62
5
 10
1.57920712236109
 20
3.01743835968956
 30
0.0
 40
0.177165354292302
 50
135.000000001286
 51
180.000000011576
  0
ARC
  8
5
  6
CONTINUOUS
 62
5
 10
1.57920712238359
 20
3.01743835971206
 30
0.0
 40
0.177165354292302
 50
90.0000000012854
 51
135.000000011576
  0
ARC
  8
5
  6
CONTINUOUS
 62
5
 10
1.57920712237261
 20
2.68279269037595
 30
0.0
 40
0.0669291338437583
 50
135.000000001286
 51
180.000000011576
  0
ARC
  8
5
  6
CONTINUOUS
 62
5
 10
1.57920712238111
 20
2.68279269038445
 30
0.0
 40
0.0669291338437583
 50
90.0000000012852
 51
135.000000011576
  0
LINE
  8
5
  6
CONTINUOUS
 62
5
 10
1.07874015748031
 20
2.18110236220472
 30
0.0
 11
1.579898503937
 21
2.18110236220472
 31
0.0
  0
LINE
  8
5
  6
CONTINUOUS
 62
5
 10
1.579898503937
 20
2.18110236220472
 30
0.0
 11
3.08337354330709
 21
2.18110236220472
 31
0.0
  0
ARC
  8
5
  6
CONTINUOUS
 62
5
 10
1.57480314961381
 20
1.92519685046856
 30
0.0
 40
0.0669291337819032
 50
81.0000000074526
 51
90.0000000064239
  0
ARC
  8
5
  6
CONTINUOUS
 62
5
 10
1.57480314961484
 20
1.92519685039821
 30
0.0
 40
0.0669291338512305
 50
6.42866434436132E-9
 51
81.0000000177487
  0
ARC
  8
5
  6
CONTINUOUS
 62
5
 10
1.57480314958778
 20
1.59055118113815
 30
0.0
 40
0.177165354292302
 50
135.000000001286
 51
180.000000011576
  0
ARC
  8
5
  6
CONTINUOUS
 62
5
 10
1.57480314961028
 20
1.59055118116065
 30
0.0
 40
0.177165354292302
 50
90.0000000012854
 51
135.000000011576
  0
ARC
  8
5
  6
CONTINUOUS
 62
5
 10
1.57480314960678
 20
1.25590551182454
 30
0.0
 40
0.0669291338512308
 50
99.0000000012849
 51
180.000000011576
  0
ARC
  8
5
  6
CONTINUOUS
 62
5
 10
1.5748031496078
 20
1.2559055118949
 30
0.0
 40
0.0669291337819036
 50
90.000000001281
 51
99.0000000115707
  0
ARC
  8
5
  6
CONTINUOUS
 62
5
 10
2.78809795268706
 20
1.23622047245448
 30
0.0
 40
0.0669291337819041
 50
171.00000000129
 51
180.000000011579
  0
ARC
  8
5
  6
CONTINUOUS
 62
5
 10
2.78809795275741
 20
1.2362204724555
 30
0.0
 40
0.0669291338512315
 50
90.0000000012861
 51
171.000000011578
  0
ARC
  8
5
  6
CONTINUOUS
 62
5
 10
2.78809795275591
 20
1.94488188976378
 30
0.0
 40
0.066929133858268
 50
269.000000000028
 51
1.02884837280356E-8
  0
ARC
  8
5
  6
CONTINUOUS
 62
5
 10
2.78809795274979
 20
1.94488188975777
 30
0.0
 40
0.0669291338521516
 50
179.999999997428
 51
269.000000005174
  0
ARC
  8
5
  6
CONTINUOUS
 62
5
 10
2.79250192553522
 20
2.66310765098634
 30
0.0
 40
0.0669291338522576
 50
270.000000015434
 51
1.54336415918017E-8
  0
ARC
  8
5
  6
CONTINUOUS
 62
5
 10
2.79250192552921
 20
2.66310765099235
 30
0.0
 40
0.0669291338582675
 50
179.999999999998
 51
270.000000020579
  0
ARC
  8
5
  6
CONTINUOUS
 62
5
 10
2.79250192552921
 20
3.37176906831519
 30
0.0
 40
0.0669291338582676
 50
269.000000000028
 51
1.02881020614739E-8
  0
ARC
  8
5
  6
CONTINUOUS
 62
5
 10
2.79250192552309
 20
3.37176906830918
 30
0.0
 40
0.0669291338521519
 50
179.999999994853
 51
269.000000005173
  0
ARC
  8
5
  6
CONTINUOUS
 62
5
 10
2.79690589830853
 20
4.08999482953775
 30
0.0
 40
0.0669291338522576
 50
270.000000015434
 51
1.54336415918017E-8
  0
ARC
  8
5
  6
CONTINUOUS
 62
5
 10
2.79690589830252
 20
4.08999482954376
 30
0.0
 40
0.0669291338582675
 50
179.999999999999
 51
270.000000020579
  0
ARC
  8
5
  6
CONTINUOUS
 62
5
 10
2.79690589830853
 20
4.79865624686058
 30
0.0
 40
0.0669291338522576
 50
270.000000015434
 51
1.54336415918017E-8
  0
ARC
  8
5
  6
CONTINUOUS
 62
5
 10
2.79690589830252
 20
4.79865624686659
 30
0.0
 40
0.0669291338582675
 50
179.999999999999
 51
270.000000020579
  0
ARC
  8
5
  6
CONTINUOUS
 62
5
 10
2.80130987108184
 20
5.51688200808916
 30
0.0
 40
0.0669291338522576
 50
270.000000015434
 51
1.54336415918017E-8
  0
ARC
  8
5
  6
CONTINUOUS
 62
5
 10
2.80130987107583
 20
5.51688200809517
 30
0.0
 40
0.0669291338582675
 50
179.999999999999
 51
270.000000020579
  0
ARC
  8
5
  6
CONTINUOUS
 62
5
 10
2.80130987108184
 20
6.22554342541199
 30
0.0
 40
0.0669291338522576
 50
270.000000015434
 51
1.54336415918017E-8
  0
ARC
  8
5
  6
CONTINUOUS
 62
5
 10
2.80130987107583
 20
6.225543425418
 30
0.0
 40
0.0669291338582675
 50
179.999999999999
 51
270.000000020579
  0
ARC
  8
5
  6
CONTINUOUS
 62
5
 10
2.80571384385514
 20
6.94376918664056
 30
0.0
 40
0.0669291338522576
 50
270.000000015434
 51
1.54336415918017E-8
  0
ARC
  8
5
  6
CONTINUOUS
 62
5
 10
2.80571384384913
 20
6.94376918664657
 30
0.0
 40
0.0669291338582675
 50
179.999999999999
 51
270.000000020579
  0
ARC
  8
5
  6
CONTINUOUS
 62
5
 10
3.79192508719767
 20
6.96774754974485
 30
0.0
 40
0.0669291338582676
 50
225.000000001285
 51
270.000000011575
  0
ARC
  8
5
  6
CONTINUOUS
 62
5
 10
3.79192508718316
 20
6.96774754973884
 30
0.0
 40
0.0669291338437582
 50
179.999999996141
 51
225.000000006431
  0
ARC
  8
5
  6
CONTINUOUS
 62
5
 10
3.79192508720668
 20
6.31720862930434
 30
0.0
 40
0.0669291337819043
 50
81.0000000074576
 51
90.0000000064286
  0
ARC
  8
5
  6
CONTINUOUS
 62
5
 10
3.79192508720771
 20
6.31720862923399
 30
0.0
 40
0.0669291338512307
 50
6.43054723273274E-9
 51
81.0000000177497
  0
ARC
  8
5
  6
CONTINUOUS
 62
5
 10
3.79192508720471
 20
5.52980705441883
 30
0.0
 40
0.0669291338512309
 50
279.000000016719
 51
1.67202968215316E-8
  0
ARC
  8
5
  6
CONTINUOUS
 62
5
 10
3.79192508720368
 20
5.52980705434847
 30
0.0
 40
0.0669291337819048
 50
270.000000006427
 51
279.000000027007
  0
ARC
  8
5
  6
CONTINUOUS
 62
5
 10
3.79192508720471
 20
4.87926813390496
 30
0.0
 40
0.0669291338512309
 50
279.000000016719
 51
1.67202968215316E-8
  0
ARC
  8
5
  6
CONTINUOUS
 62
5
 10
3.79192508720368
 20
4.8792681338346
 30
0.0
 40
0.0669291337819048
 50
270.000000006427
 51
279.000000027007
  0
ARC
  8
5
  6
CONTINUOUS
 62
5
 10
3.79192508720471
 20
4.09186655910181
 30
0.0
 40
0.0669291338512309
 50
279.000000016719
 51
1.67202968215316E-8
  0
ARC
  8
5
  6
CONTINUOUS
 62
5
 10
3.79192508720368
 20
4.09186655903145
 30
0.0
 40
0.0669291337819048
 50
270.000000006427
 51
279.000000027007
  0
ARC
  8
5
  6
CONTINUOUS
 62
5
 10
3.79192508719965
 20
3.44132763860898
 30
0.0
 40
0.0669291338512312
 50
99.0000000012863
 51
180.000000011576
  0
ARC
  8
5
  6
CONTINUOUS
 62
5
 10
3.79192508720067
 20
3.44132763867934
 30
0.0
 40
0.0669291337819038
 50
90.0000000012855
 51
99.0000000115755
  0
ARC
  8
5
  6
CONTINUOUS
 62
5
 10
3.79192508719965
 20
2.65392606380583
 30
0.0
 40
0.0669291338512312
 50
99.0000000012863
 51
180.000000011576
  0
ARC
  8
5
  6
CONTINUOUS
 62
5
 10
3.79192508720067
 20
2.65392606387619
 30
0.0
 40
0.0669291337819038
 50
90.0000000012855
 51
99.0000000115755
  0
ARC
  8
5
  6
CONTINUOUS
 62
5
 10
3.79192508719965
 20
2.00338714329197
 30
0.0
 40
0.0669291338512311
 50
99.0000000012855
 51
180.000000011575
  0
ARC
  8
5
  6
CONTINUOUS
 62
5
 10
3.79192508720068
 20
2.00338714336233
 30
0.0
 40
0.0669291337819043
 50
90.0000000012903
 51
99.0000000115804
  0
ARC
  8
5
  6
CONTINUOUS
 62
5
 10
3.79192508719965
 20
1.21598556848882
 30
0.0
 40
0.0669291338512311
 50
99.0000000012858
 51
180.000000011575
  0
ARC
  8
5
  6
CONTINUOUS
 62
5
 10
3.79192508720068
 20
1.21598556855918
 30
0.0
 40
0.0669291337819045
 50
90.0000000012907
 51
99.0000000115804
  0
LINE
  8
0
  6
CONTINUOUS
 62
0
 10
0.87201986386654
 20
8.64882016255668
 30
0.0
 11
0.87201986386654
 21
8.69882016255668
 31
0.0
  0
LINE
  8
2
  6
CONTINUOUS
 62
2
 10
1.02201986386654
 20
8.69882016255668
 30
0.0
 11
0.87201986386654
 21
8.69882016255668
 31
0.0
  0
LINE
  8
2
  6
CONTINUOUS
 62
2
 10
1.02201986386654
 20
8.64882016255668
 30
0.0
 11
0.87201986386654
 21
8.64882016255668
 31
0.0
  0
LINE
  8
0
  6
CONTINUOUS
 62
0
 10
3.33413356465394
 20
8.62943938174456
 30
0.0
 11
3.33413356465394
 21
8.67943938174456
 31
0.0
  0
LINE
  8
2
  6
CONTINUOUS
 62
2
 10
3.18413356465394
 20
8.67943938174456
 30
0.0
 11
3.33413356465394
 21
8.67943938174456
 31
0.0
  0
LINE
  8
2
  6
CONTINUOUS
 62
2
 10
3.18413356465394
 20
8.62943938174456
 30
0.0
 11
3.33413356465394
 21
8.62943938174456
 31
0.0
  0
LINE
  8
0
  6
CONTINUOUS
 62
0
 10
0.86761589109323
 20
7.21464238246021
 30
0.0
 11
0.86761589109323
 21
7.26464238246022
 31
0.0
  0
LINE
  8
2
  6
CONTINUOUS
 62
2
 10
1.01761589109323
 20
7.26464238246022
 30
0.0
 11
0.86761589109323
 21
7.26464238246022
 31
0.0
  0
LINE
  8
2
  6
CONTINUOUS
 62
2
 10
1.01761589109323
 20
7.21464238246021
 30
0.0
 11
0.86761589109323
 21
7.21464238246021
 31
0.0
  0
LINE
  8
0
  6
CONTINUOUS
 62
0
 10
3.32972959188063
 20
7.22433277286627
 30
0.0
 11
3.32972959188063
 21
7.27433277286627
 31
0.0
  0
LINE
  8
2
  6
CONTINUOUS
 62
2
 10
3.17972959188063
 20
7.27433277286627
 30
0.0
 11
3.32972959188063
 21
7.27433277286627
 31
0.0
  0
LINE
  8
2
  6
CONTINUOUS
 62
2
 10
3.17972959188063
 20
7.22433277286627
 30
0.0
 11
3.32972959188063
 21
7.22433277286627
 31
0.0
  0
LINE
  8
0
  6
CONTINUOUS
 62
0
 10
0.86321191831992
 20
5.76108382155164
 30
0.0
 11
0.86321191831992
 21
5.81108382155164
 31
0.0
  0
LINE
  8
2
  6
CONTINUOUS
 62
2
 10
1.01321191831992
 20
5.81108382155164
 30
0.0
 11
0.86321191831992
 21
5.81108382155164
 31
0.0
  0
LINE
  8
2
  6
CONTINUOUS
 62
2
 10
1.01321191831992
 20
5.76108382155164
 30
0.0
 11
0.86321191831992
 21
5.76108382155164
 31
0.0
  0
LINE
  8
0
  6
CONTINUOUS
 62
0
 10
3.32532561910732
 20
5.75139343114558
 30
0.0
 11
3.32532561910732
 21
5.80139343114558
 31
0.0
  0
LINE
  8
2
  6
CONTINUOUS
 62
2
 10
3.17532561910732
 20
5.80139343114558
 30
0.0
 11
3.32532561910732
 21
5.80139343114558
 31
0.0
  0
LINE
  8
2
  6
CONTINUOUS
 62
2
 10
3.17532561910732
 20
5.75139343114558
 30
0.0
 11
3.32532561910732
 21
5.75139343114558
 31
0.0
  0
LINE
  8
0
  6
CONTINUOUS
 62
0
 10
0.85880794554661
 20
4.39473877429757
 30
0.0
 11
0.85880794554661
 21
4.44473877429757
 31
0.0
  0
LINE
  8
2
  6
CONTINUOUS
 62
2
 10
1.00880794554661
 20
4.44473877429757
 30
0.0
 11
0.85880794554661
 21
4.44473877429757
 31
0.0
  0
LINE
  8
2
  6
CONTINUOUS
 62
2
 10
1.00880794554661
 20
4.39473877429757
 30
0.0
 11
0.85880794554661
 21
4.39473877429757
 31
0.0
  0
LINE
  8
0
  6
CONTINUOUS
 62
0
 10
3.32092164633402
 20
4.38504838389152
 30
0.0
 11
3.32092164633402
 21
4.43504838389152
 31
0.0
  0
LINE
  8
2
  6
CONTINUOUS
 62
2
 10
3.17092164633402
 20
4.43504838389152
 30
0.0
 11
3.32092164633402
 21
4.43504838389152
 31
0.0
  0
LINE
  8
2
  6
CONTINUOUS
 62
2
 10
3.17092164633402
 20
4.38504838389152
 30
0.0
 11
3.32092164633402
 21
4.38504838389152
 31
0.0
  0
LINE
  8
0
  6
CONTINUOUS
 62
0
 10
0.85440397277331
 20
2.96056099420111
 30
0.0
 11
0.85440397277331
 21
3.01056099420111
 31
0.0
  0
LINE
  8
2
  6
CONTINUOUS
 62
2
 10
1.00440397277331
 20
3.01056099420111
 30
0.0
 11
0.85440397277331
 21
3.01056099420111
 31
0.0
  0
LINE
  8
2
  6
CONTINUOUS
 62
2
 10
1.00440397277331
 20
2.96056099420111
 30
0.0
 11
0.85440397277331
 21
2.96056099420111
 31
0.0
  0
LINE
  8
0
  6
CONTINUOUS
 62
0
 10
3.31651767356071
 20
3.06037381284878
 30
0.0
 11
3.31651767356071
 21
3.11037381284877
 31
0.0
  0
LINE
  8
2
  6
CONTINUOUS
 62
2
 10
3.16651767356071
 20
3.11037381284877
 30
0.0
 11
3.31651767356071
 21
3.11037381284877
 31
0.0
  0
LINE
  8
2
  6
CONTINUOUS
 62
2
 10
3.16651767356071
 20
3.06037381284878
 30
0.0
 11
3.31651767356071
 21
3.06037381284878
 31
0.0
  0
LINE
  8
0
  6
CONTINUOUS
 62
0
 10
0.85
 20
1.52917302993518
 30
0.0
 11
0.85
 21
1.57917302993518
 31
0.0
  0
LINE
  8
2
  6
CONTINUOUS
 62
2
 10
1
 20
1.57917302993518
 30
0.0
 11
0.85
 21
1.57917302993518
 31
0.0
  0
LINE
  8
2
  6
CONTINUOUS
 62
2
 10
1
 20
1.52917302993518
 30
0.0
 11
0.85
 21
1.52917302993518
 31
0.0
  0
LINE
  8
0
  6
CONTINUOUS
 62
0
 10
3.3121137007874
 20
1.55393177206225
 30
0.0
 11
3.3121137007874
 21
1.60393177206225
 31
0.0
  0
LINE
  8
2
  6
CONTINUOUS
 62
2
 10
3.1621137007874
 20
1.60393177206225
 30
0.0
 11
3.3121137007874
 21
1.60393177206225
 31
0.0
  0
LINE
  8
2
  6
CONTINUOUS
 62
2
 10
3.1621137007874
 20
1.55393177206225
 30
0.0
 11
3.3121137007874
 21
1.55393177206225
 31
0.0
  0
LINE
  8
0
  6
CONTINUOUS
 62
0
 10
4.43108597846339
 20
0.869135174774511
 30
0.0
 11
4.48108597846339
 21
0.869135174774511
 31
0.0
  0
LINE
  8
2
  6
CONTINUOUS
 62
2
 10
4.48108597846339
 20
1.01913517477451
 30
0.0
 11
4.48108597846339
 21
0.869135174774511
 31
0.0
  0
LINE
  8
2
  6
CONTINUOUS
 62
2
 10
4.43108597846339
 20
1.01913517477451
 30
0.0
 11
4.43108597846339
 21
0.869135174774511
 31
0.0
  0
LINE
  8
0
  6
CONTINUOUS
 62
0
 10
4.46478226197287
 20
2.35023753697924
 30
0.0
 11
4.41478226197287
 21
2.35023753697924
 31
0.0
  0
LINE
  8
2
  6
CONTINUOUS
 62
2
 10
4.41478226197287
 20
2.20023753697924
 30
0.0
 11
4.41478226197287
 21
2.35023753697924
 31
0.0
  0
LINE
  8
2
  6
CONTINUOUS
 62
2
 10
4.46478226197287
 20
2.20023753697924
 30
0.0
 11
4.46478226197287
 21
2.35023753697924
 31
0.0
  0
LINE
  8
0
  6
CONTINUOUS
 62
0
 10
4.74076164549339
 20
2.30707567009152
 30
0.0
 11
4.79076164549339
 21
2.30707567009152
 31
0.0
  0
LINE
  8
2
  6
CONTINUOUS
 62
2
 10
4.74076164549339
 20
2.45707567009152
 30
0.0
 11
4.74076164549339
 21
2.30707567009152
 31
0.0
  0
LINE
  8
2
  6
CONTINUOUS
 62
2
 10
4.79076164549339
 20
2.45707567009152
 30
0.0
 11
4.79076164549339
 21
2.30707567009152
 31
0.0
  0
LINE
  8
0
  6
CONTINUOUS
 62
0
 10
4.82740696614728
 20
3.78817803229624
 30
0.0
 11
4.77740696614728
 21
3.78817803229624
 31
0.0
  0
LINE
  8
2
  6
CONTINUOUS
 62
2
 10
4.77740696614728
 20
3.63817803229624
 30
0.0
 11
4.77740696614728
 21
3.78817803229624
 31
0.0
  0
LINE
  8
2
  6
CONTINUOUS
 62
2
 10
4.82740696614728
 20
3.63817803229624
 30
0.0
 11
4.82740696614728
 21
3.78817803229624
 31
0.0
  0
LINE
  8
0
  6
CONTINUOUS
 62
0
 10
4.41761654518184
 20
3.74501616540854
 30
0.0
 11
4.46761654518184
 21
3.74501616540854
 31
0.0
  0
LINE
  8
2
  6
CONTINUOUS
 62
2
 10
4.46761654518184
 20
3.89501616540854
 30
0.0
 11
4.46761654518184
 21
3.74501616540854
 31
0.0
  0
LINE
  8
2
  6
CONTINUOUS
 62
2
 10
4.41761654518184
 20
3.89501616540854
 30
0.0
 11
4.41761654518184
 21
3.74501616540854
 31
0.0
  0
LINE
  8
0
  6
CONTINUOUS
 62
0
 10
4.45434426384556
 20
5.22611852761326
 30
0.0
 11
4.40434426384556
 21
5.22611852761326
 31
0.0
  0
LINE
  8
2
  6
CONTINUOUS
 62
2
 10
4.45434426384556
 20
5.07611852761326
 30
0.0
 11
4.45434426384556
 21
5.22611852761326
 31
0.0
  0
LINE
  8
2
  6
CONTINUOUS
 62
2
 10
4.40434426384556
 20
5.07611852761326
 30
0.0
 11
4.40434426384556
 21
5.22611852761326
 31
0.0
  0
LINE
  8
0
  6
CONTINUOUS
 62
0
 10
4.80868874664205
 20
5.18295666072555
 30
0.0
 11
4.85868874664205
 21
5.18295666072555
 31
0.0
  0
LINE
  8
2
  6
CONTINUOUS
 62
2
 10
4.85868874664205
 20
5.33295666072555
 30
0.0
 11
4.85868874664205
 21
5.18295666072555
 31
0.0
  0
LINE
  8
2
  6
CONTINUOUS
 62
2
 10
4.80868874664205
 20
5.33295666072555
 30
0.0
 11
4.80868874664205
 21
5.18295666072555
 31
0.0
  0
LINE
  8
0
  6
CONTINUOUS
 62
0
 10
4.87384962734018
 20
6.66405902293027
 30
0.0
 11
4.82384962734018
 21
6.66405902293027
 31
0.0
  0
LINE
  8
2
  6
CONTINUOUS
 62
2
 10
4.82384962734018
 20
6.51405902293027
 30
0.0
 11
4.82384962734018
 21
6.66405902293027
 31
0.0
  0
LINE
  8
2
  6
CONTINUOUS
 62
2
 10
4.87384962734018
 20
6.51405902293027
 30
0.0
 11
4.87384962734018
 21
6.66405902293027
 31
0.0
  0
LINE
  8
0
  6
CONTINUOUS
 62
0
 10
4.39808712738366
 20
6.62089715604256
 30
0.0
 11
4.44808712738366
 21
6.62089715604256
 31
0.0
  0
LINE
  8
2
  6
CONTINUOUS
 62
2
 10
4.44808712738366
 20
6.77089715604256
 30
0.0
 11
4.44808712738366
 21
6.62089715604256
 31
0.0
  0
LINE
  8
2
  6
CONTINUOUS
 62
2
 10
4.39808712738366
 20
6.77089715604256
 30
0.0
 11
4.39808712738366
 21
6.62089715604256
 31
0.0
  0
LINE
  8
0
  6
CONTINUOUS
 62
0
 10
4.39233251429412
 20
8.10199951824728
 30
0.0
 11
4.34233251429412
 21
8.10199951824728
 31
0.0
  0
LINE
  8
2
  6
CONTINUOUS
 62
2
 10
4.39233251429412
 20
7.95199951824728
 30
0.0
 11
4.39233251429412
 21
8.10199951824728
 31
0.0
  0
LINE
  8
2
  6
CONTINUOUS
 62
2
 10
4.34233251429412
 20
7.95199951824728
 30
0.0
 11
4.34233251429412
 21
8.10199951824728
 31
0.0
  0
LINE
  8
0
  6
CONTINUOUS
 62
0
 10
4.81676877709117
 20
8.05883765135957
 30
0.0
 11
4.86676877709117
 21
8.05883765135957
 31
0.0
  0
LINE
  8
2
  6
CONTINUOUS
 62
2
 10
4.86676877709117
 20
8.20883765135957
 30
0.0
 11
4.86676877709117
 21
8.05883765135957
 31
0.0
  0
LINE
  8
2
  6
CONTINUOUS
 62
2
 10
4.81676877709117
 20
8.20883765135957
 30
0.0
 11
4.81676877709117
 21
8.05883765135957
 31
0.0
  0
LINE
  8
0
  6
CONTINUOUS
 62
0
 10
4.92410986851888
 20
9.53994001356429
 30
0.0
 11
4.87410986851888
 21
9.53994001356429
 31
0.0
  0
LINE
  8
2
  6
CONTINUOUS
 62
2
 10
4.87410986851888
 20
9.38994001356429
 30
0.0
 11
4.87410986851888
 21
9.53994001356429
 31
0.0
  0
LINE
  8
2
  6
CONTINUOUS
 62
2
 10
4.92410986851888
 20
9.38994001356429
 30
0.0
 11
4.92410986851888
 21
9.53994001356429
 31
0.0
  0
LINE
  8
0
  6
CONTINUOUS
 62
0
 10
6.00697688411305
 20
8.35929201460127
 30
0.0
 11
6.00697688411305
 21
8.40929201460127
 31
0.0
  0
LINE
  8
2
  6
CONTINUOUS
 62
2
 10
6.15697688411305
 20
8.40929201460127
 30
0.0
 11
6.00697688411305
 21
8.40929201460127
 31
0.0
  0
LINE
  8
2
  6
CONTINUOUS
 62
2
 10
6.15697688411305
 20
8.35929201460127
 30
0.0
 11
6.00697688411305
 21
8.35929201460127
 31
0.0
  0
LINE
  8
0
  6
CONTINUOUS
 62
0
 10
6.73768554553037
 20
8.40292078222041
 30
0.0
 11
6.73768554553037
 21
8.35292078222041
 31
0.0
  0
LINE
  8
2
  6
CONTINUOUS
 62
2
 10
6.58768554553037
 20
8.35292078222041
 30
0.0
 11
6.73768554553037
 21
8.35292078222041
 31
0.0
  0
LINE
  8
2
  6
CONTINUOUS
 62
2
 10
6.58768554553037
 20
8.40292078222041
 30
0.0
 11
6.73768554553037
 21
8.40292078222041
 31
0.0
  0
LINE
  8
0
  6
CONTINUOUS
 62
0
 10
6.01051520265735
 20
6.9639921231938
 30
0.0
 11
6.01051520265735
 21
7.0139921231938
 31
0.0
  0
LINE
  8
2
  6
CONTINUOUS
 62
2
 10
6.16051520265735
 20
7.0139921231938
 30
0.0
 11
6.01051520265735
 21
7.0139921231938
 31
0.0
  0
LINE
  8
2
  6
CONTINUOUS
 62
2
 10
6.16051520265735
 20
6.9639921231938
 30
0.0
 11
6.01051520265735
 21
6.9639921231938
 31
0.0
  0
LINE
  8
0
  6
CONTINUOUS
 62
0
 10
6.74122386407467
 20
7.0139921231938
 30
0.0
 11
6.74122386407467
 21
6.9639921231938
 31
0.0
  0
LINE
  8
2
  6
CONTINUOUS
 62
2
 10
6.59122386407467
 20
6.9639921231938
 30
0.0
 11
6.74122386407467
 21
6.9639921231938
 31
0.0
  0
LINE
  8
2
  6
CONTINUOUS
 62
2
 10
6.59122386407467
 20
7.0139921231938
 30
0.0
 11
6.74122386407467
 21
7.0139921231938
 31
0.0
  0
LINE
  8
0
  6
CONTINUOUS
 62
0
 10
6.74476218261896
 20
5.68240455559489
 30
0.0
 11
6.74476218261896
 21
5.63240455559489
 31
0.0
  0
LINE
  8
2
  6
CONTINUOUS
 62
2
 10
6.59476218261896
 20
5.63240455559489
 30
0.0
 11
6.74476218261896
 21
5.63240455559489
 31
0.0
  0
LINE
  8
2
  6
CONTINUOUS
 62
2
 10
6.59476218261896
 20
5.68240455559489
 30
0.0
 11
6.74476218261896
 21
5.68240455559489
 31
0.0
  0
LINE
  8
0
  6
CONTINUOUS
 62
0
 10
6.01405352120164
 20
5.65788948511831
 30
0.0
 11
6.01405352120164
 21
5.70788948511831
 31
0.0
  0
LINE
  8
2
  6
CONTINUOUS
 62
2
 10
6.16405352120164
 20
5.70788948511831
 30
0.0
 11
6.01405352120164
 21
5.70788948511831
 31
0.0
  0
LINE
  8
2
  6
CONTINUOUS
 62
2
 10
6.16405352120164
 20
5.65788948511831
 30
0.0
 11
6.01405352120164
 21
5.65788948511831
 31
0.0
  0
LINE
  8
0
  6
CONTINUOUS
 62
0
 10
6.74830050116326
 20
4.35223144789997
 30
0.0
 11
6.74830050116326
 21
4.30223144789997
 31
0.0
  0
LINE
  8
2
  6
CONTINUOUS
 62
2
 10
6.59830050116326
 20
4.30223144789997
 30
0.0
 11
6.74830050116326
 21
4.30223144789997
 31
0.0
  0
LINE
  8
2
  6
CONTINUOUS
 62
2
 10
6.59830050116326
 20
4.35223144789997
 30
0.0
 11
6.74830050116326
 21
4.35223144789997
 31
0.0
  0
LINE
  8
0
  6
CONTINUOUS
 62
0
 10
6.01759183974594
 20
4.27205947937587
 30
0.0
 11
6.01759183974594
 21
4.32205947937587
 31
0.0
  0
LINE
  8
2
  6
CONTINUOUS
 62
2
 10
6.16759183974594
 20
4.32205947937587
 30
0.0
 11
6.01759183974594
 21
4.32205947937587
 31
0.0
  0
LINE
  8
2
  6
CONTINUOUS
 62
2
 10
6.16759183974594
 20
4.27205947937587
 30
0.0
 11
6.01759183974594
 21
4.27205947937587
 31
0.0
  0
LINE
  8
0
  6
CONTINUOUS
 62
0
 10
6.39291252721993
 20
1.00843969341245
 30
0.0
 11
5.88526418174931
 21
1.06874655617524
 31
0.0
  0
LINE
  8
0
  6
CONTINUOUS
 62
0
 10
6.3918918979295
 20
1.23773100213217
 30
0.0
 11
6.40156023437307
 21
0.90977993510234
 31
0.0
  0
ARC
  8
5
  6
CONTINUOUS
 62
5
 10
6.3900228075447
 20
2.0423943109538
 30
0.0
 40
0.0669291338522581
 50
90.0000000012862
 51
180.000000011576
  0
LINE
  8
5
  6
CONTINUOUS
 62
5
 10
6.60537713825186
 20
2.16050454716075
 30
0.0
 11
6.60537713825186
 21
1.65449492525754
 31
0.0
  0
LINE
  8
5
  6
CONTINUOUS
 62
5
 10
6.60537713825186
 20
1.60449492525754
 30
0.0
 11
6.60537713825186
 21
1.13688249991665
 31
0.0
  0
ARC
  8
5
  6
CONTINUOUS
 62
5
 10
6.39002280755071
 20
2.04239431094479
 30
0.0
 40
0.0669291338522563
 50
6.42838445554935E-9
 51
90.0000000064308
  0
LINE
  8
5
  6
CONTINUOUS
 62
5
 10
6.25340863431484
 20
2.23924470464106
 30
0.0
 11
6.52663698077154
 21
2.23924470464106
 31
0.0
  0
ARC
  8
5
  6
CONTINUOUS
 62
5
 10
6.38648448900039
 20
3.39049367633111
 30
0.0
 40
0.0669291338522578
 50
90.0000000012852
 51
180.000000011576
  0
LINE
  8
5
  6
CONTINUOUS
 62
5
 10
6.60183881970756
 20
3.50860391253806
 30
0.0
 11
6.60183881970756
 21
3.09053526981035
 31
0.0
  0
LINE
  8
5
  6
CONTINUOUS
 62
5
 10
6.60183881970756
 20
3.04053526981035
 30
0.0
 11
6.60183881970756
 21
2.48498186529396
 31
0.0
  0
ARC
  8
5
  6
CONTINUOUS
 62
5
 10
6.38648448899889
 20
3.39049367632961
 30
0.0
 40
0.0669291338582676
 50
180.000000010288
 51
359.999999999998
  0
LINE
  8
5
  6
CONTINUOUS
 62
5
 10
6.24987031577055
 20
3.58734407001837
 30
0.0
 11
6.52309866222724
 21
3.58734407001837
 31
0.0
  0
LINE
  8
0
  6
CONTINUOUS
 62
0
 10
6.75183881970756
 20
3.09053526981035
 30
0.0
 11
6.75183881970756
 21
3.04053526981035
 31
0.0
  0
LINE
  8
2
  6
CONTINUOUS
 62
2
 10
6.60183881970756
 20
3.04053526981035
 30
0.0
 11
6.75183881970756
 21
3.04053526981035
 31
0.0
  0
LINE
  8
2
  6
CONTINUOUS
 62
2
 10
6.60183881970756
 20
3.09053526981035
 30
0.0
 11
6.75183881970756
 21
3.09053526981035
 31
0.0
  0
LINE
  8
0
  6
CONTINUOUS
 62
0
 10
6.02113015829024
 20
3.05794181944129
 30
0.0
 11
6.02113015829024
 21
3.10794181944129
 31
0.0
  0
LINE
  8
2
  6
CONTINUOUS
 62
2
 10
6.17113015829024
 20
3.10794181944129
 30
0.0
 11
6.02113015829024
 21
3.10794181944129
 31
0.0
  0
LINE
  8
2
  6
CONTINUOUS
 62
2
 10
6.17113015829024
 20
3.05794181944129
 30
0.0
 11
6.02113015829024
 21
3.05794181944129
 31
0.0
  0
LINE
  8
0
  6
CONTINUOUS
 62
0
 10
6.75537713825186
 20
1.65449492525754
 30
0.0
 11
6.75537713825186
 21
1.60449492525754
 31
0.0
  0
LINE
  8
2
  6
CONTINUOUS
 62
2
 10
6.60537713825186
 20
1.60449492525754
 30
0.0
 11
6.75537713825186
 21
1.60449492525754
 31
0.0
  0
LINE
  8
2
  6
CONTINUOUS
 62
2
 10
6.60537713825186
 20
1.65449492525754
 30
0.0
 11
6.75537713825186
 21
1.65449492525754
 31
0.0
  0
LINE
  8
0
  6
CONTINUOUS
 62
0
 10
6.02466847683454
 20
1.60449492525754
 30
0.0
 11
6.02466847683454
 21
1.65449492525754
 31
0.0
  0
LINE
  8
2
  6
CONTINUOUS
 62
2
 10
6.17466847683454
 20
1.65449492525754
 30
0.0
 11
6.02466847683454
 21
1.65449492525754
 31
0.0
  0
LINE
  8
2
  6
CONTINUOUS
 62
2
 10
6.17466847683454
 20
1.60449492525754
 30
0.0
 11
6.02466847683454
 21
1.60449492525754
 31
0.0
  0
ENDSEC
  0
EOF
