  0
SECTION
  2
HEADER
  9
$ACADVER
  1
AC1003
  9
$EXTMIN
 10
1
 20
1.80866141731976
  9
$EXTMAX
 10
4.23584560602428
 20
0.899999999999732
  9
$INSBASE
 10
2.61792280301214
 20
1.35433070865974
999
Created with OMAX Layout for Windows. (http://www.omax.com) 5/4/2015
  0
ENDSEC
  0
SECTION
  2
TABLES
  0
TABLE
  2
LAYER
 70
    10
  0
LAYER
  2
0
 70
     0
 62
     7
  6
CONTINUOUS
  0
LAYER
  2
1
 70
     0
 62
     7
  6
CONTINUOUS
  0
LAYER
  2
2
 70
     0
 62
     7
  6
CONTINUOUS
  0
LAYER
  2
3
 70
     0
 62
     7
  6
CONTINUOUS
  0
LAYER
  2
4
 70
     0
 62
     7
  6
CONTINUOUS
  0
LAYER
  2
5
 70
     0
 62
     7
  6
CONTINUOUS
  0
LAYER
  2
6
 70
     0
 62
     7
  6
CONTINUOUS
  0
LAYER
  2
7
 70
     0
 62
     7
  6
CONTINUOUS
  0
LAYER
  2
8
 70
     0
 62
     7
  6
CONTINUOUS
  0
LAYER
  2
9
 70
     0
 62
     7
  6
CONTINUOUS
  0
LAYER
  2
10
 70
     0
 62
     7
  6
CONTINUOUS
  0
LAYER
  2
11
 70
     0
 62
     7
  6
CONTINUOUS
  0
LAYER
  2
12
 70
     0
 62
     7
  6
CONTINUOUS
  0
LAYER
  2
13
 70
     0
 62
     7
  6
CONTINUOUS
  0
LAYER
  2
14
 70
     0
 62
     7
  6
CONTINUOUS
  0
LAYER
  2
15
 70
     0
 62
     7
  6
CONTINUOUS
  0
LAYER
  2
16
 70
     0
 62
     7
  6
CONTINUOUS
  0
LAYER
  2
17
 70
     0
 62
     7
  6
CONTINUOUS
  0
LAYER
  2
18
 70
     0
 62
     7
  6
CONTINUOUS
  0
LAYER
  2
19
 70
     0
 62
     7
  6
CONTINUOUS
  0
LAYER
  2
20
 70
     0
 62
     7
  6
CONTINUOUS
  0
LAYER
  2
21
 70
     0
 62
     7
  6
CONTINUOUS
  0
LAYER
  2
22
 70
     0
 62
     7
  6
CONTINUOUS
  0
LAYER
  2
23
 70
     0
 62
     7
  6
CONTINUOUS
  0
LAYER
  2
24
 70
     0
 62
     7
  6
CONTINUOUS
  0
LAYER
  2
25
 70
     0
 62
     7
  6
CONTINUOUS
  0
LAYER
  2
26
 70
     0
 62
     7
  6
CONTINUOUS
  0
LAYER
  2
27
 70
     0
 62
     7
  6
CONTINUOUS
  0
LAYER
  2
28
 70
     0
 62
     7
  6
CONTINUOUS
  0
LAYER
  2
29
 70
     0
 62
     7
  6
CONTINUOUS
  0
LAYER
  2
30
 70
     0
 62
     7
  6
CONTINUOUS
  0
LAYER
  2
31
 70
     0
 62
     7
  6
CONTINUOUS
  0
ENDTAB
  0
ENDSEC
  0
SECTION
  2
ENTITIES
  0
LINE
  8
3
  6
CONTINUOUS
 62
3
 10
2.57480314962044
 20
1.4330708661435
 30
0.0
 11
3.28346456692913
 21
1.43307086614173
 31
0.0
  0
LINE
  8
3
  6
CONTINUOUS
 62
3
 10
3.28346456692913
 20
1.43307086614173
 30
0.0
 11
3.28346456692913
 21
1.2755905511811
 31
0.0
  0
LINE
  8
3
  6
CONTINUOUS
 62
3
 10
2.49606299213482
 20
1.62992125984252
 30
0.0
 11
2.49606299212422
 21
1.51181102360791
 31
0.0
  0
LINE
  8
3
  6
CONTINUOUS
 62
3
 10
3.28346456692913
 20
1.2755905511811
 30
0.0
 11
2.5748031496063
 21
1.27559055118287
 31
0.0
  0
LINE
  8
3
  6
CONTINUOUS
 62
3
 10
2.49606299212775
 20
1.19685039368665
 30
0.0
 11
2.49606299212422
 21
1.07874015748031
 31
0.0
  0
LINE
  8
3
  6
CONTINUOUS
 62
3
 10
2.41732283465981
 20
0.999999999998228
 30
0.0
 11
2.35029570675134
 21
0.999999999999732
 31
0.0
  0
LINE
  8
3
  6
CONTINUOUS
 62
3
 10
2.32529570675134
 20
1.00000000000029
 30
0.0
 11
2.25984251969918
 21
1.00000000000176
 31
0.0
  0
LINE
  8
3
  6
CONTINUOUS
 62
3
 10
2.18110236220296
 20
1.07874015746617
 30
0.0
 11
2.18110236221356
 21
1.19685039370079
 31
0.0
  0
LINE
  8
3
  6
CONTINUOUS
 62
3
 10
2.10236220472441
 20
1.27559055117227
 30
0.0
 11
1
 21
1.2755905511811
 31
0.0
  0
LINE
  8
3
  6
CONTINUOUS
 62
3
 10
1
 20
1.43307086614173
 30
0.0
 11
2.10236220473855
 21
1.43307086613997
 31
0.0
  0
LINE
  8
3
  6
CONTINUOUS
 62
3
 10
2.18110236220296
 20
1.51181102362205
 30
0.0
 11
2.18110236220649
 21
1.62992125982838
 31
0.0
  0
LINE
  8
3
  6
CONTINUOUS
 62
3
 10
2.27559055118251
 20
1.56692913384696
 30
0.0
 11
2.27559055117968
 21
1.14173228345326
 31
0.0
  0
LINE
  8
3
  6
CONTINUOUS
 62
3
 10
2.25984251968504
 20
1.7086614173246
 30
0.0
 11
2.33180509312545
 21
1.70866141731976
 31
0.0
  0
LINE
  8
3
  6
CONTINUOUS
 62
3
 10
2.35680509312545
 20
1.70866141731807
 30
0.0
 11
2.41732283464567
 21
1.708661417314
 31
0.0
  0
LINE
  8
3
  6
CONTINUOUS
 62
3
 10
1
 20
1.2755905511811
 30
0.0
 11
1
 21
1.43307086614173
 31
0.0
  0
ARC
  8
3
  6
CONTINUOUS
 62
3
 10
2.10236220474032
 20
1.19685039369902
 30
0.0
 40
0.0787401574732447
 50
1.28596186880933E-9
 51
90.0000000115756
  0
ARC
  8
3
  6
CONTINUOUS
 62
3
 10
2.2598425196762
 20
1.07874015747501
 30
0.0
 40
0.0787401574732444
 50
180.000000006431
 51
270.000000016721
  0
ARC
  8
3
  6
CONTINUOUS
 62
3
 10
2.41732283465097
 20
1.07874015747147
 30
0.0
 40
0.0787401574732439
 50
270.00000000643
 51
6.43009559396798E-9
  0
ARC
  8
3
  6
CONTINUOUS
 62
3
 10
2.41732283466158
 20
1.62992125984075
 30
0.0
 40
0.0787401574732447
 50
1.28512220237342E-9
 51
90.000000011575
  0
ARC
  8
3
  6
CONTINUOUS
 62
3
 10
2.25984251968681
 20
1.62992125984429
 30
0.0
 40
0.0787401574803155
 50
90.0000000012852
 51
180.000000011576
  0
ARC
  8
3
  6
CONTINUOUS
 62
3
 10
2.33858267716465
 20
1.14173228345891
 30
0.0
 40
0.0629921259849631
 50
180.000000005146
 51
5.14365664195643E-9
  0
ARC
  8
3
  6
CONTINUOUS
 62
3
 10
2.33858267716606
 20
1.56692913384696
 30
0.0
 40
0.0629921259835491
 50
1.02902393942198E-8
 51
179.999999999999
  0
ARC
  8
3
  6
CONTINUOUS
 62
3
 10
2.10236220472971
 20
1.51181102361321
 30
0.0
 40
0.0787401574732446
 50
270.000000006429
 51
6.42895059428265E-9
  0
ARC
  8
3
  6
CONTINUOUS
 62
3
 10
2.57480314959746
 20
1.51181102361675
 30
0.0
 40
0.0787401574732444
 50
180.000000006431
 51
270.000000016721
  0
ARC
  8
3
  6
CONTINUOUS
 62
3
 10
2.57480314960807
 20
1.19685039370256
 30
0.0
 40
0.0787401574803152
 50
90.0000000012855
 51
180.000000011576
  0
LINE
  8
3
  6
CONTINUOUS
 62
3
 10
3.88652897572536
 20
1.3966592906346
 30
0.0
 11
3.99522992030866
 21
1.35174879891456
 31
0.0
  0
ARC
  8
3
  6
CONTINUOUS
 62
3
 10
3.92088497607545
 20
1.32580960721017
 30
0.0
 40
0.0787401574758227
 50
247.551719505143
 51
19.2340450051452
  0
ARC
  8
3
  6
CONTINUOUS
 62
3
 10
3.99605218080514
 20
1.50774358359509
 30
0.0
 40
0.0590551181102362
 50
269.999999999999
 51
89.9999999999998
  0
ARC
  8
3
  6
CONTINUOUS
 62
3
 10
3.99605218079313
 20
1.5077435835951
 30
0.0
 40
0.059055118110219
 50
89.9999999986431
 51
243.000000021935
  0
ARC
  8
3
  6
CONTINUOUS
 62
3
 10
3.92088497605574
 20
1.32580960713141
 30
0.0
 40
0.314960629898354
 50
187.714835313793
 51
263.288060226374
  0
ARC
  8
3
  6
CONTINUOUS
 62
3
 10
3.92088497605574
 20
1.32580960713141
 30
0.0
 40
0.314960629898356
 50
267.835912725554
 51
332.530940072309
  0
ARC
  8
3
  6
CONTINUOUS
 62
3
 10
3.92088497610662
 20
1.32580960727114
 30
0.0
 40
0.31496062991766
 50
332.530940045487
 51
86.1281311855017
  0
ARC
  8
3
  6
CONTINUOUS
 62
3
 10
3.92088497610662
 20
1.32580960727113
 30
0.0
 40
0.314960629917659
 50
90.6759836844038
 51
139.485765784894
  0
LINE
  8
9
  6
CONTINUOUS
 62
9
 10
3.46262529598068
 20
1.25719282856361
 30
0.0
 11
3.60877522044446
 21
1.28352841937332
 31
0.0
  0
LINE
  8
9
  6
CONTINUOUS
 62
9
 10
3.55923114076104
 20
1.27900662013816
 30
0.0
 11
3.60877522044446
 21
1.28352841937332
 31
0.0
  0
LINE
  8
9
  6
CONTINUOUS
 62
9
 10
3.91855457149601
 20
1.32890976007076
 30
0.0
 11
3.84269144511935
 21
1.31654763564081
 31
0.0
  0
LINE
  8
9
  6
CONTINUOUS
 62
9
 10
3.89230430881754
 20
1.32023901149061
 30
0.0
 11
3.84269144511935
 21
1.31654763564081
 31
0.0
  0
LINE
  8
9
  6
CONTINUOUS
 62
9
 10
3.99337997512443
 20
1.50809165874961
 30
0.0
 11
3.96924171822079
 21
1.45512508806673
 31
0.0
  0
LINE
  8
9
  6
CONTINUOUS
 62
9
 10
3.99373979032089
 20
1.49842528394826
 30
0.0
 11
3.96924171822079
 21
1.45512508806673
 31
0.0
  0
LINE
  8
9
  6
CONTINUOUS
 62
9
 10
3.43271456692913
 20
1.2755905511945
 30
0.0
 11
3.28346456692913
 21
1.2755905511811
 31
0.0
  0
LINE
  8
9
  6
CONTINUOUS
 62
9
 10
3.28346456693583
 20
1.2258405511811
 30
0.0
 11
3.28346456692913
 21
1.2755905511811
 31
0.0
  0
LINE
  8
9
  6
CONTINUOUS
 62
9
 10
2.33969500511583
 20
1.4427425891143
 30
0.0
 11
2.40157480314961
 21
1.44544431946007
 31
0.0
  0
LINE
  8
9
  6
CONTINUOUS
 62
9
 10
2.35187215412572
 20
1.44761438397697
 30
0.0
 11
2.40157480314961
 21
1.44544431946007
 31
0.0
  0
LINE
  8
0
  6
CONTINUOUS
 62
0
 10
1
 20
1.7086614173246
 30
0.0
 11
2.33969500511583
 21
1.4427425891143
 31
0.0
  0
LINE
  8
0
  6
CONTINUOUS
 62
0
 10
3.99373979032089
 20
1.49842528394826
 30
0.0
 11
3.91855457149601
 21
1.32890976007076
 31
0.0
  0
LINE
  8
0
  6
CONTINUOUS
 62
0
 10
3.89230430881754
 20
1.32023901149061
 30
0.0
 11
3.46262529598068
 21
1.25719282856361
 31
0.0
  0
ARC
  8
3
  6
CONTINUOUS
 62
3
 10
3.9208849758783
 20
1.32580960727471
 30
0.0
 40
0.31496062974176
 50
139.485765758406
 51
187.714835343958
  0
ARC
  8
3
  6
CONTINUOUS
 62
3
 10
3.92088497605894
 20
1.32580960720881
 30
0.0
 40
0.0787401574682628
 50
186.755171965478
 51
247.551719515865
  0
ARC
  8
3
  6
CONTINUOUS
 62
3
 10
3.92088497607008
 20
1.32580960721725
 30
0.0
 40
0.0787401574803149
 50
115.869394000431
 51
186.755171970623
  0
ARC
  8
3
  6
CONTINUOUS
 62
3
 10
3.9960521807879
 20
1.507743583573
 30
0.0
 40
0.0590551180881484
 50
243.000000016721
 51
270.000000016721
  0
LINE
  8
3
  6
CONTINUOUS
 62
3
 10
2.40157480314961
 20
1.14173228346457
 30
0.0
 11
2.40157480314961
 21
1.44544431946007
 31
0.0
  0
LINE
  8
3
  6
CONTINUOUS
 62
3
 10
2.40157480314961
 20
1.44544431946007
 30
0.0
 11
2.40157480314961
 21
1.56692913385827
 31
0.0
  0
LINE
  8
0
  6
CONTINUOUS
 62
0
 10
3.28346456693583
 20
1.2258405511811
 30
0.0
 11
3.99337997512443
 21
1.50809165874961
 31
0.0
  0
LINE
  8
0
  6
CONTINUOUS
 62
0
 10
2.35187215412572
 20
1.44761438397697
 30
0.0
 11
3.43271456692913
 21
1.2755905511945
 31
0.0
  0
LINE
  8
0
  6
CONTINUOUS
 62
0
 10
2.33180509313219
 20
1.80866141731976
 30
0.0
 11
2.35680509313219
 21
1.80866141731807
 31
0.0
  0
LINE
  8
2
  6
CONTINUOUS
 62
2
 10
2.35680509312545
 20
1.70866141731807
 30
0.0
 11
2.35680509313219
 21
1.80866141731807
 31
0.0
  0
LINE
  8
2
  6
CONTINUOUS
 62
2
 10
2.33180509312545
 20
1.70866141731976
 30
0.0
 11
2.33180509313219
 21
1.80866141731976
 31
0.0
  0
LINE
  8
0
  6
CONTINUOUS
 62
0
 10
2.3502957067491
 20
0.899999999999732
 30
0.0
 11
2.3252957067491
 21
0.900000000000294
 31
0.0
  0
LINE
  8
2
  6
CONTINUOUS
 62
2
 10
2.32529570675134
 20
1.00000000000029
 30
0.0
 11
2.3252957067491
 21
0.900000000000294
 31
0.0
  0
LINE
  8
2
  6
CONTINUOUS
 62
2
 10
2.35029570675134
 20
0.999999999999732
 30
0.0
 11
2.3502957067491
 21
0.899999999999732
 31
0.0
  0
LINE
  8
0
  6
CONTINUOUS
 62
0
 10
3.94494140485491
 20
1.74001246790084
 30
0.0
 11
3.91995768676711
 21
1.74070942849601
 31
0.0
  0
LINE
  8
2
  6
CONTINUOUS
 62
2
 10
3.94215283048572
 20
1.6400513561974
 30
0.0
 11
3.94494140485491
 21
1.74001246790084
 31
0.0
  0
LINE
  8
2
  6
CONTINUOUS
 62
2
 10
3.91716911239792
 20
1.64074831679257
 30
0.0
 11
3.91995768676711
 21
1.74070942849601
 31
0.0
  0
LINE
  8
0
  6
CONTINUOUS
 62
0
 10
3.87633505041902
 20
0.913307454861035
 30
0.0
 11
3.90125354852276
 21
0.911373449738081
 31
0.0
  0
LINE
  8
2
  6
CONTINUOUS
 62
2
 10
3.90899160021912
 20
1.01107361300748
 30
0.0
 11
3.90125354852276
 21
0.911373449738081
 31
0.0
  0
LINE
  8
2
  6
CONTINUOUS
 62
2
 10
3.88407310211537
 20
1.01300761813043
 30
0.0
 11
3.87633505041902
 21
0.913307454861035
 31
0.0
  0
ENDSEC
  0
EOF
