  0
SECTION
  2
HEADER
  9
$ACADVER
  1
AC1003
  9
$EXTMIN
 10
0.751637592663671
 20
3.4672273129853
  9
$EXTMAX
 10
4.80142120937337
 20
0.999999999998697
  9
$INSBASE
 10
2.77652940101852
 20
2.233613656492
999
Created with OMAX Layout for Windows. (http://www.omax.com) 4/29/2015
  0
ENDSEC
  0
SECTION
  2
TABLES
  0
TABLE
  2
LAYER
 70
    10
  0
LAYER
  2
0
 70
     0
 62
     7
  6
CONTINUOUS
  0
LAYER
  2
1
 70
     0
 62
     7
  6
CONTINUOUS
  0
LAYER
  2
2
 70
     0
 62
     7
  6
CONTINUOUS
  0
LAYER
  2
3
 70
     0
 62
     7
  6
CONTINUOUS
  0
LAYER
  2
4
 70
     0
 62
     7
  6
CONTINUOUS
  0
LAYER
  2
5
 70
     0
 62
     7
  6
CONTINUOUS
  0
LAYER
  2
6
 70
     0
 62
     7
  6
CONTINUOUS
  0
LAYER
  2
7
 70
     0
 62
     7
  6
CONTINUOUS
  0
LAYER
  2
8
 70
     0
 62
     7
  6
CONTINUOUS
  0
LAYER
  2
9
 70
     0
 62
     7
  6
CONTINUOUS
  0
LAYER
  2
10
 70
     0
 62
     7
  6
CONTINUOUS
  0
LAYER
  2
11
 70
     0
 62
     7
  6
CONTINUOUS
  0
LAYER
  2
12
 70
     0
 62
     7
  6
CONTINUOUS
  0
LAYER
  2
13
 70
     0
 62
     7
  6
CONTINUOUS
  0
LAYER
  2
14
 70
     0
 62
     7
  6
CONTINUOUS
  0
LAYER
  2
15
 70
     0
 62
     7
  6
CONTINUOUS
  0
LAYER
  2
16
 70
     0
 62
     7
  6
CONTINUOUS
  0
LAYER
  2
17
 70
     0
 62
     7
  6
CONTINUOUS
  0
LAYER
  2
18
 70
     0
 62
     7
  6
CONTINUOUS
  0
LAYER
  2
19
 70
     0
 62
     7
  6
CONTINUOUS
  0
LAYER
  2
20
 70
     0
 62
     7
  6
CONTINUOUS
  0
LAYER
  2
21
 70
     0
 62
     7
  6
CONTINUOUS
  0
LAYER
  2
22
 70
     0
 62
     7
  6
CONTINUOUS
  0
LAYER
  2
23
 70
     0
 62
     7
  6
CONTINUOUS
  0
LAYER
  2
24
 70
     0
 62
     7
  6
CONTINUOUS
  0
LAYER
  2
25
 70
     0
 62
     7
  6
CONTINUOUS
  0
LAYER
  2
26
 70
     0
 62
     7
  6
CONTINUOUS
  0
LAYER
  2
27
 70
     0
 62
     7
  6
CONTINUOUS
  0
LAYER
  2
28
 70
     0
 62
     7
  6
CONTINUOUS
  0
LAYER
  2
29
 70
     0
 62
     7
  6
CONTINUOUS
  0
LAYER
  2
30
 70
     0
 62
     7
  6
CONTINUOUS
  0
LAYER
  2
31
 70
     0
 62
     7
  6
CONTINUOUS
  0
ENDTAB
  0
ENDSEC
  0
SECTION
  2
ENTITIES
  0
LINE
  8
3
  6
CONTINUOUS
 62
3
 10
0.851637592671268
 20
1.03937007874723
 30
0.0
 11
0.851637592671268
 21
2.10866099739806
 31
0.0
  0
LINE
  8
3
  6
CONTINUOUS
 62
3
 10
0.85163759266367
 20
2.13366099739806
 30
0.0
 11
0.85163759266367
 21
3.27219515749445
 31
0.0
  0
ARC
  8
3
  6
CONTINUOUS
 62
3
 10
1.59966909463257
 20
1.04528024550651
 30
0.0
 40
0.039370072839565
 50
240.476665475613
 51
359.999986485903
  0
ARC
  8
3
  6
CONTINUOUS
 62
3
 10
1.25045650605836
 20
0.428634835565382
 30
0.0
 40
0.669291336876076
 50
60.4766804564303
 51
120.478981492595
  0
ARC
  8
3
  6
CONTINUOUS
 62
3
 10
1.24533838006691
 20
3.05172271654029
 30
0.0
 40
0.108267716539082
 50
359.999999997427
 51
179.999999992282
  0
ARC
  8
3
  6
CONTINUOUS
 62
3
 10
1.2453383800742
 20
2.87455736222902
 30
0.0
 40
0.108267716531791
 50
180.000000002572
 51
359.999999987137
  0
ARC
  8
3
  6
CONTINUOUS
 62
3
 10
0.930377750136914
 20
3.27219515748208
 30
0.0
 40
0.0787401574732443
 50
89.9999999807057
 51
179.999999990996
  0
ARC
  8
3
  6
CONTINUOUS
 62
3
 10
1.56029901000684
 20
3.27219515749357
 30
0.0
 40
0.0787401574652921
 50
359.999999990354
 51
90.0000000006455
  0
ARC
  8
3
  6
CONTINUOUS
 62
3
 10
0.891007671411424
 20
1.03937007873885
 30
0.0
 40
0.0393700787401565
 50
179.999999987809
 51
300.478979998098
  0
LINE
  8
3
  6
CONTINUOUS
 62
3
 10
1.8563108041929
 20
1.04480074475545
 30
0.0
 11
1.8563108041929
 21
2.2688656446407
 31
0.0
  0
LINE
  8
3
  6
CONTINUOUS
 62
3
 10
1.85631080418531
 20
2.2938656446407
 30
0.0
 11
1.85631080418531
 21
3.27762582350268
 31
0.0
  0
LINE
  8
3
  6
CONTINUOUS
 62
3
 10
2.14174387504946
 20
3.0571533825631
 30
0.0
 11
2.14174387506405
 21
2.87998802823239
 31
0.0
  0
LINE
  8
3
  6
CONTINUOUS
 62
3
 10
2.56497222152759
 20
3.35636598096709
 30
0.0
 11
1.93505096168507
 21
3.35636598096355
 31
0.0
  0
ARC
  8
3
  6
CONTINUOUS
 62
3
 10
2.6043423061542
 20
1.05071091151474
 30
0.0
 40
0.0393700728395673
 50
240.476665475617
 51
359.999986485907
  0
ARC
  8
3
  6
CONTINUOUS
 62
3
 10
2.25512971758
 20
0.434065501573595
 30
0.0
 40
0.669291336876087
 50
60.4766804564308
 51
120.478981492595
  0
ARC
  8
3
  6
CONTINUOUS
 62
3
 10
2.25001159158854
 20
3.05715338254852
 30
0.0
 40
0.108267716539078
 50
359.999999997427
 51
179.999999992282
  0
ARC
  8
3
  6
CONTINUOUS
 62
3
 10
2.25001159159583
 20
2.87998802823725
 30
0.0
 40
0.108267716531786
 50
180.000000002572
 51
359.999999987137
  0
ARC
  8
3
  6
CONTINUOUS
 62
3
 10
1.93505096165856
 20
3.27762582349031
 30
0.0
 40
0.0787401574732442
 50
89.9999999807059
 51
179.999999990996
  0
ARC
  8
3
  6
CONTINUOUS
 62
3
 10
2.56497222152848
 20
3.2776258235018
 30
0.0
 40
0.0787401574652918
 50
359.999999990354
 51
90.0000000006451
  0
ARC
  8
3
  6
CONTINUOUS
 62
3
 10
1.89568088293305
 20
1.04480074474707
 30
0.0
 40
0.0393700787401569
 50
179.999999987809
 51
300.478979998099
  0
LINE
  8
3
  6
CONTINUOUS
 62
3
 10
2.86098401571454
 20
1.05023141076368
 30
0.0
 11
2.86098401571454
 21
2.09236899937339
 31
0.0
  0
LINE
  8
3
  6
CONTINUOUS
 62
3
 10
2.86098401570695
 20
2.11736899937339
 30
0.0
 11
2.86098401570695
 21
3.2830564895109
 31
0.0
  0
LINE
  8
3
  6
CONTINUOUS
 62
3
 10
3.1464170865711
 20
3.06258404857132
 30
0.0
 11
3.14641708658569
 21
2.88541869424061
 31
0.0
  0
LINE
  8
3
  6
CONTINUOUS
 62
3
 10
3.56964543304923
 20
3.36179664697532
 30
0.0
 11
2.93972417320671
 21
3.36179664697177
 31
0.0
  0
ARC
  8
3
  6
CONTINUOUS
 62
3
 10
3.60901551767583
 20
1.05614157752296
 30
0.0
 40
0.0393700728395656
 50
240.476665475613
 51
359.999986485903
  0
ARC
  8
3
  6
CONTINUOUS
 62
3
 10
3.25980292910163
 20
0.439496167581832
 30
0.0
 40
0.669291336876076
 50
60.4766804564303
 51
120.478981492594
  0
ARC
  8
3
  6
CONTINUOUS
 62
3
 10
3.25468480311018
 20
3.06258404855674
 30
0.0
 40
0.108267716539077
 50
359.999999997427
 51
179.999999992282
  0
ARC
  8
3
  6
CONTINUOUS
 62
3
 10
3.25468480311747
 20
2.88541869424547
 30
0.0
 40
0.108267716531786
 50
180.000000002572
 51
359.999999987138
  0
ARC
  8
3
  6
CONTINUOUS
 62
3
 10
2.9397241731802
 20
3.28305648949853
 30
0.0
 40
0.0787401574732438
 50
89.9999999807063
 51
179.999999990996
  0
ARC
  8
3
  6
CONTINUOUS
 62
3
 10
3.56964543305011
 20
3.28305648951003
 30
0.0
 40
0.0787401574652916
 50
359.999999990347
 51
90.0000000006378
  0
ARC
  8
3
  6
CONTINUOUS
 62
3
 10
2.90035409445469
 20
1.0502314107553
 30
0.0
 40
0.0393700787401569
 50
179.999999987809
 51
300.478979998098
  0
LINE
  8
3
  6
CONTINUOUS
 62
3
 10
3.86565722723618
 20
1.0556620767719
 30
0.0
 11
3.86565722723618
 21
2.2610087620381
 31
0.0
  0
LINE
  8
3
  6
CONTINUOUS
 62
3
 10
3.86565722722858
 20
2.2860087620381
 30
0.0
 11
3.86565722722858
 21
3.28848715551913
 31
0.0
  0
LINE
  8
3
  6
CONTINUOUS
 62
3
 10
4.15109029809273
 20
3.06801471457955
 30
0.0
 11
4.15109029810732
 21
2.89084936024884
 31
0.0
  0
LINE
  8
3
  6
CONTINUOUS
 62
3
 10
4.57431864457086
 20
3.36722731298354
 30
0.0
 11
3.94439738472834
 21
3.36722731298
 31
0.0
  0
ARC
  8
3
  6
CONTINUOUS
 62
3
 10
4.61368872919747
 20
1.06157224353119
 30
0.0
 40
0.0393700728395673
 50
240.476665475617
 51
359.999986485907
  0
ARC
  8
3
  6
CONTINUOUS
 62
3
 10
4.26447614062327
 20
0.444926833590054
 30
0.0
 40
0.669291336876076
 50
60.4766804564307
 51
120.478981492595
  0
ARC
  8
3
  6
CONTINUOUS
 62
3
 10
4.25935801463182
 20
3.06801471456497
 30
0.0
 40
0.108267716539082
 50
359.999999997427
 51
179.999999992282
  0
ARC
  8
3
  6
CONTINUOUS
 62
3
 10
4.25935801463911
 20
2.8908493602537
 30
0.0
 40
0.108267716531791
 50
180.000000002572
 51
359.999999987138
  0
ARC
  8
3
  6
CONTINUOUS
 62
3
 10
3.94439738470183
 20
3.28848715550676
 30
0.0
 40
0.0787401574732442
 50
89.9999999807063
 51
179.999999990996
  0
ARC
  8
3
  6
CONTINUOUS
 62
3
 10
4.57431864457175
 20
3.28848715551825
 30
0.0
 40
0.0787401574652919
 50
359.999999990354
 51
90.000000000645
  0
ARC
  8
3
  6
CONTINUOUS
 62
3
 10
3.90502730597633
 20
1.05566207676352
 30
0.0
 40
0.0393700787401563
 50
179.999999987809
 51
300.478979998098
  0
LINE
  8
9
  6
CONTINUOUS
 62
9
 10
4.80142120937337
 20
2.98448146771998
 30
0.0
 11
4.65305880203704
 21
2.97800382513703
 31
0.0
  0
LINE
  8
9
  6
CONTINUOUS
 62
9
 10
4.70276145106054
 20
2.97583376061121
 30
0.0
 11
4.65305880203704
 21
2.97800382513703
 31
0.0
  0
LINE
  8
9
  6
CONTINUOUS
 62
9
 10
4.26026800927887
 20
2.9799554437635
 30
0.0
 11
4.3676257311709
 21
2.98464278311036
 31
0.0
  0
LINE
  8
9
  6
CONTINUOUS
 62
9
 10
4.31792308214798
 20
2.98681284764958
 30
0.0
 11
4.3676257311709
 21
2.98464278311036
 31
0.0
  0
LINE
  8
9
  6
CONTINUOUS
 62
9
 10
3.79674799785173
 20
2.97905080171175
 30
0.0
 11
3.6483855905154
 21
2.9725731591288
 31
0.0
  0
LINE
  8
9
  6
CONTINUOUS
 62
9
 10
3.6980882395389
 20
2.97040309460298
 30
0.0
 11
3.6483855905154
 21
2.9725731591288
 31
0.0
  0
LINE
  8
9
  6
CONTINUOUS
 62
9
 10
3.25559479775722
 20
2.97452477775527
 30
0.0
 11
3.36295251964926
 21
2.97921211710213
 31
0.0
  0
LINE
  8
9
  6
CONTINUOUS
 62
9
 10
3.31324987062634
 20
2.98138218164135
 30
0.0
 11
3.36295251964926
 21
2.97921211710213
 31
0.0
  0
LINE
  8
9
  6
CONTINUOUS
 62
9
 10
2.7920747863301
 20
2.97362013570353
 30
0.0
 11
2.64371237899377
 21
2.96714249312058
 31
0.0
  0
LINE
  8
9
  6
CONTINUOUS
 62
9
 10
2.69341502801727
 20
2.96497242859475
 30
0.0
 11
2.64371237899377
 21
2.96714249312058
 31
0.0
  0
LINE
  8
9
  6
CONTINUOUS
 62
9
 10
2.25092158623559
 20
2.96909411174705
 30
0.0
 11
2.35827930812762
 21
2.97378145109391
 31
0.0
  0
LINE
  8
9
  6
CONTINUOUS
 62
9
 10
2.3085766591047
 20
2.97595151563313
 30
0.0
 11
2.35827930812762
 21
2.97378145109391
 31
0.0
  0
LINE
  8
9
  6
CONTINUOUS
 62
9
 10
1.78740157480846
 20
2.9681894696953
 30
0.0
 11
1.63903916747213
 21
2.96171182711235
 31
0.0
  0
LINE
  8
9
  6
CONTINUOUS
 62
9
 10
1.68874181649563
 20
2.95954176258653
 30
0.0
 11
1.63903916747213
 21
2.96171182711235
 31
0.0
  0
LINE
  8
9
  6
CONTINUOUS
 62
9
 10
1.24624837471396
 20
2.96366344573882
 30
0.0
 11
1.35360609660599
 21
2.96835078508568
 31
0.0
  0
LINE
  8
9
  6
CONTINUOUS
 62
9
 10
1.30390344758307
 20
2.9705208496249
 30
0.0
 11
1.35360609660599
 21
2.96835078508568
 31
0.0
  0
LINE
  8
0
  6
CONTINUOUS
 62
0
 10
0.851637592668979
 20
3.4672273129853
 30
0.0
 11
1.24624837471396
 21
2.96366344573882
 31
0.0
  0
LINE
  8
0
  6
CONTINUOUS
 62
0
 10
1.30390344758307
 20
2.9705208496249
 30
0.0
 11
1.78740157480846
 21
2.9681894696953
 31
0.0
  0
LINE
  8
0
  6
CONTINUOUS
 62
0
 10
1.68874181649563
 20
2.95954176258653
 30
0.0
 11
2.25092158623559
 21
2.96909411174705
 31
0.0
  0
LINE
  8
0
  6
CONTINUOUS
 62
0
 10
2.3085766591047
 20
2.97595151563313
 30
0.0
 11
2.7920747863301
 21
2.97362013570353
 31
0.0
  0
LINE
  8
0
  6
CONTINUOUS
 62
0
 10
2.69341502801727
 20
2.96497242859475
 30
0.0
 11
3.25559479775722
 21
2.97452477775527
 31
0.0
  0
LINE
  8
0
  6
CONTINUOUS
 62
0
 10
3.31324987062634
 20
2.98138218164135
 30
0.0
 11
3.79674799785173
 21
2.97905080171175
 31
0.0
  0
LINE
  8
0
  6
CONTINUOUS
 62
0
 10
3.6980882395389
 20
2.97040309460298
 30
0.0
 11
4.26026800927887
 21
2.9799554437635
 31
0.0
  0
LINE
  8
0
  6
CONTINUOUS
 62
0
 10
4.31792308214798
 20
2.98681284764958
 30
0.0
 11
4.80142120937337
 21
2.98448146771998
 31
0.0
  0
LINE
  8
3
  6
CONTINUOUS
 62
3
 10
4.65305880203704
 20
3.28848715550499
 30
0.0
 11
4.65305880203704
 21
2.97800382513703
 31
0.0
  0
LINE
  8
3
  6
CONTINUOUS
 62
3
 10
4.65305880203704
 20
2.97800382513703
 30
0.0
 11
4.65305880203704
 21
2.31735491639575
 31
0.0
  0
LINE
  8
3
  6
CONTINUOUS
 62
3
 10
4.65305880203704
 20
2.29235491639575
 30
0.0
 11
4.65305880203704
 21
1.06157223424515
 31
0.0
  0
LINE
  8
3
  6
CONTINUOUS
 62
3
 10
4.3676257311709
 20
2.8908493602294
 30
0.0
 11
4.3676257311709
 21
2.98464278311036
 31
0.0
  0
LINE
  8
3
  6
CONTINUOUS
 62
3
 10
4.3676257311709
 20
2.98464278311036
 30
0.0
 11
4.3676257311709
 21
3.06801471456011
 31
0.0
  0
LINE
  8
3
  6
CONTINUOUS
 62
3
 10
3.6483855905154
 20
3.28305648949676
 30
0.0
 11
3.6483855905154
 21
2.9725731591288
 31
0.0
  0
LINE
  8
3
  6
CONTINUOUS
 62
3
 10
3.6483855905154
 20
2.9725731591288
 30
0.0
 11
3.6483855905154
 21
2.10107700134871
 31
0.0
  0
LINE
  8
3
  6
CONTINUOUS
 62
3
 10
3.6483855905154
 20
2.07607700134871
 30
0.0
 11
3.6483855905154
 21
1.05614156823692
 31
0.0
  0
LINE
  8
3
  6
CONTINUOUS
 62
3
 10
3.36295251964926
 20
2.88541869422117
 30
0.0
 11
3.36295251964926
 21
2.97921211710213
 31
0.0
  0
LINE
  8
3
  6
CONTINUOUS
 62
3
 10
3.36295251964926
 20
2.97921211710213
 30
0.0
 11
3.36295251964926
 21
3.06258404855188
 31
0.0
  0
LINE
  8
3
  6
CONTINUOUS
 62
3
 10
2.64371237899377
 20
3.27762582348854
 30
0.0
 11
2.64371237899377
 21
2.96714249312058
 31
0.0
  0
LINE
  8
3
  6
CONTINUOUS
 62
3
 10
2.64371237899377
 20
2.96714249312058
 30
0.0
 11
2.64371237899377
 21
2.28300431262425
 31
0.0
  0
LINE
  8
3
  6
CONTINUOUS
 62
3
 10
2.64371237899377
 20
2.25800431262425
 30
0.0
 11
2.64371237899377
 21
1.0507109022287
 31
0.0
  0
LINE
  8
3
  6
CONTINUOUS
 62
3
 10
2.35827930812762
 20
2.87998802821295
 30
0.0
 11
2.35827930812762
 21
2.97378145109391
 31
0.0
  0
LINE
  8
3
  6
CONTINUOUS
 62
3
 10
2.35827930812762
 20
2.97378145109391
 30
0.0
 11
2.35827930812762
 21
3.05715338254366
 31
0.0
  0
LINE
  8
3
  6
CONTINUOUS
 62
3
 10
1.63903916747213
 20
3.27219515748031
 30
0.0
 11
1.63903916747213
 21
2.96171182711235
 31
0.0
  0
LINE
  8
3
  6
CONTINUOUS
 62
3
 10
1.63903916747213
 20
2.96171182711235
 30
0.0
 11
1.63903916747213
 21
2.11736899937339
 31
0.0
  0
LINE
  8
3
  6
CONTINUOUS
 62
3
 10
1.63903916747213
 20
2.09236899937339
 30
0.0
 11
1.63903916747213
 21
1.04528023622047
 31
0.0
  0
LINE
  8
3
  6
CONTINUOUS
 62
3
 10
1.35360609660599
 20
2.87455736220472
 30
0.0
 11
1.35360609660599
 21
2.96835078508568
 31
0.0
  0
LINE
  8
3
  6
CONTINUOUS
 62
3
 10
1.35360609660599
 20
2.96835078508568
 30
0.0
 11
1.35360609660599
 21
3.05172271653543
 31
0.0
  0
LINE
  8
3
  6
CONTINUOUS
 62
3
 10
1.56029901000595
 20
3.35093531495886
 30
0.0
 11
0.93037775016343
 21
3.35093531495532
 31
0.0
  0
LINE
  8
3
  6
CONTINUOUS
 62
3
 10
1.13707066352783
 20
3.05172271655487
 30
0.0
 11
1.13707066354241
 21
2.87455736222416
 31
0.0
  0
LINE
  8
0
  6
CONTINUOUS
 62
0
 10
0.751637592671268
 20
2.10866099739806
 30
0.0
 11
0.751637592663671
 21
2.13366099739806
 31
0.0
  0
LINE
  8
2
  6
CONTINUOUS
 62
2
 10
0.85163759266367
 20
2.13366099739806
 30
0.0
 11
0.751637592663671
 21
2.13366099739806
 31
0.0
  0
LINE
  8
2
  6
CONTINUOUS
 62
2
 10
0.851637592671268
 20
2.10866099739806
 30
0.0
 11
0.751637592671268
 21
2.10866099739806
 31
0.0
  0
LINE
  8
0
  6
CONTINUOUS
 62
0
 10
1.73903916747213
 20
2.11736899937339
 30
0.0
 11
1.73903916747213
 21
2.09236899937339
 31
0.0
  0
LINE
  8
2
  6
CONTINUOUS
 62
2
 10
1.63903916747213
 20
2.09236899937339
 30
0.0
 11
1.73903916747213
 21
2.09236899937339
 31
0.0
  0
LINE
  8
2
  6
CONTINUOUS
 62
2
 10
1.63903916747213
 20
2.11736899937339
 30
0.0
 11
1.73903916747213
 21
2.11736899937339
 31
0.0
  0
LINE
  8
0
  6
CONTINUOUS
 62
0
 10
1.7563108041929
 20
2.2688656446407
 30
0.0
 11
1.75631080418531
 21
2.2938656446407
 31
0.0
  0
LINE
  8
2
  6
CONTINUOUS
 62
2
 10
1.85631080418531
 20
2.2938656446407
 30
0.0
 11
1.75631080418531
 21
2.2938656446407
 31
0.0
  0
LINE
  8
2
  6
CONTINUOUS
 62
2
 10
1.8563108041929
 20
2.2688656446407
 30
0.0
 11
1.7563108041929
 21
2.2688656446407
 31
0.0
  0
LINE
  8
0
  6
CONTINUOUS
 62
0
 10
2.74371237899377
 20
2.28300431262425
 30
0.0
 11
2.74371237899377
 21
2.25800431262425
 31
0.0
  0
LINE
  8
2
  6
CONTINUOUS
 62
2
 10
2.64371237899377
 20
2.25800431262425
 30
0.0
 11
2.74371237899377
 21
2.25800431262425
 31
0.0
  0
LINE
  8
2
  6
CONTINUOUS
 62
2
 10
2.64371237899377
 20
2.28300431262425
 30
0.0
 11
2.74371237899377
 21
2.28300431262425
 31
0.0
  0
LINE
  8
0
  6
CONTINUOUS
 62
0
 10
2.76098401571454
 20
2.09236899937339
 30
0.0
 11
2.76098401570695
 21
2.11736899937339
 31
0.0
  0
LINE
  8
2
  6
CONTINUOUS
 62
2
 10
2.86098401570695
 20
2.11736899937339
 30
0.0
 11
2.76098401570695
 21
2.11736899937339
 31
0.0
  0
LINE
  8
2
  6
CONTINUOUS
 62
2
 10
2.86098401571454
 20
2.09236899937339
 30
0.0
 11
2.76098401571454
 21
2.09236899937339
 31
0.0
  0
LINE
  8
0
  6
CONTINUOUS
 62
0
 10
3.7483855905154
 20
2.10107700134871
 30
0.0
 11
3.7483855905154
 21
2.07607700134871
 31
0.0
  0
LINE
  8
2
  6
CONTINUOUS
 62
2
 10
3.6483855905154
 20
2.07607700134871
 30
0.0
 11
3.7483855905154
 21
2.07607700134871
 31
0.0
  0
LINE
  8
2
  6
CONTINUOUS
 62
2
 10
3.6483855905154
 20
2.10107700134871
 30
0.0
 11
3.7483855905154
 21
2.10107700134871
 31
0.0
  0
LINE
  8
0
  6
CONTINUOUS
 62
0
 10
3.76565722723618
 20
2.2610087620381
 30
0.0
 11
3.76565722722858
 21
2.2860087620381
 31
0.0
  0
LINE
  8
2
  6
CONTINUOUS
 62
2
 10
3.86565722722858
 20
2.2860087620381
 30
0.0
 11
3.76565722722858
 21
2.2860087620381
 31
0.0
  0
LINE
  8
2
  6
CONTINUOUS
 62
2
 10
3.86565722723618
 20
2.2610087620381
 30
0.0
 11
3.76565722723618
 21
2.2610087620381
 31
0.0
  0
LINE
  8
0
  6
CONTINUOUS
 62
0
 10
4.75305880203704
 20
2.31735491639575
 30
0.0
 11
4.75305880203704
 21
2.29235491639575
 31
0.0
  0
LINE
  8
2
  6
CONTINUOUS
 62
2
 10
4.65305880203704
 20
2.29235491639575
 30
0.0
 11
4.75305880203704
 21
2.29235491639575
 31
0.0
  0
LINE
  8
2
  6
CONTINUOUS
 62
2
 10
4.65305880203704
 20
2.31735491639575
 30
0.0
 11
4.75305880203704
 21
2.31735491639575
 31
0.0
  0
ENDSEC
  0
EOF
