  0
SECTION
  2
HEADER
  9
$ACADVER
  1
AC1003
  9
$EXTMIN
 10
0.999999999994691
 20
5.82882328273359
  9
$EXTMAX
 10
4.95799975648829
 20
0.84999999999891
  9
$INSBASE
 10
2.97899987824149
 20
3.33941164136625
999
Created with OMAX Layout for Windows. (http://www.omax.com) 4/29/2015
  0
ENDSEC
  0
SECTION
  2
TABLES
  0
TABLE
  2
LAYER
 70
    10
  0
LAYER
  2
0
 70
     0
 62
     7
  6
CONTINUOUS
  0
LAYER
  2
1
 70
     0
 62
     7
  6
CONTINUOUS
  0
LAYER
  2
2
 70
     0
 62
     7
  6
CONTINUOUS
  0
LAYER
  2
3
 70
     0
 62
     7
  6
CONTINUOUS
  0
LAYER
  2
4
 70
     0
 62
     7
  6
CONTINUOUS
  0
LAYER
  2
5
 70
     0
 62
     7
  6
CONTINUOUS
  0
LAYER
  2
6
 70
     0
 62
     7
  6
CONTINUOUS
  0
LAYER
  2
7
 70
     0
 62
     7
  6
CONTINUOUS
  0
LAYER
  2
8
 70
     0
 62
     7
  6
CONTINUOUS
  0
LAYER
  2
9
 70
     0
 62
     7
  6
CONTINUOUS
  0
LAYER
  2
10
 70
     0
 62
     7
  6
CONTINUOUS
  0
LAYER
  2
11
 70
     0
 62
     7
  6
CONTINUOUS
  0
LAYER
  2
12
 70
     0
 62
     7
  6
CONTINUOUS
  0
LAYER
  2
13
 70
     0
 62
     7
  6
CONTINUOUS
  0
LAYER
  2
14
 70
     0
 62
     7
  6
CONTINUOUS
  0
LAYER
  2
15
 70
     0
 62
     7
  6
CONTINUOUS
  0
LAYER
  2
16
 70
     0
 62
     7
  6
CONTINUOUS
  0
LAYER
  2
17
 70
     0
 62
     7
  6
CONTINUOUS
  0
LAYER
  2
18
 70
     0
 62
     7
  6
CONTINUOUS
  0
LAYER
  2
19
 70
     0
 62
     7
  6
CONTINUOUS
  0
LAYER
  2
20
 70
     0
 62
     7
  6
CONTINUOUS
  0
LAYER
  2
21
 70
     0
 62
     7
  6
CONTINUOUS
  0
LAYER
  2
22
 70
     0
 62
     7
  6
CONTINUOUS
  0
LAYER
  2
23
 70
     0
 62
     7
  6
CONTINUOUS
  0
LAYER
  2
24
 70
     0
 62
     7
  6
CONTINUOUS
  0
LAYER
  2
25
 70
     0
 62
     7
  6
CONTINUOUS
  0
LAYER
  2
26
 70
     0
 62
     7
  6
CONTINUOUS
  0
LAYER
  2
27
 70
     0
 62
     7
  6
CONTINUOUS
  0
LAYER
  2
28
 70
     0
 62
     7
  6
CONTINUOUS
  0
LAYER
  2
29
 70
     0
 62
     7
  6
CONTINUOUS
  0
LAYER
  2
30
 70
     0
 62
     7
  6
CONTINUOUS
  0
LAYER
  2
31
 70
     0
 62
     7
  6
CONTINUOUS
  0
ENDTAB
  0
ENDSEC
  0
SECTION
  2
ENTITIES
  0
LINE
  8
3
  6
CONTINUOUS
 62
3
 10
4.63188976377953
 20
1.38385826772383
 30
0.0
 11
2.87992125984252
 21
1.38385826770924
 31
0.0
  0
LINE
  8
3
  6
CONTINUOUS
 62
3
 10
1.87598425196851
 20
1.38385826772383
 30
0.0
 11
1.30511811023622
 21
1.38385826770924
 31
0.0
  0
LINE
  8
3
  6
CONTINUOUS
 62
3
 10
1.30511811025566
 20
1.60039370078011
 30
0.0
 11
1.87598425198795
 21
1.60039370078497
 31
0.0
  0
LINE
  8
3
  6
CONTINUOUS
 62
3
 10
2.87992125986196
 20
1.60039370078011
 30
0.0
 11
4.63188976379897
 21
1.60039370078497
 31
0.0
  0
LINE
  8
3
  6
CONTINUOUS
 62
3
 10
0.999999999994691
 20
1.90551181103776
 30
0.0
 11
1.0000000000053
 21
1.07874015749445
 31
0.0
  0
LINE
  8
3
  6
CONTINUOUS
 62
3
 10
1.07874015748031
 20
0.999999999994691
 30
0.0
 11
2.58076525277102
 21
0.99999999999891
 31
0.0
  0
LINE
  8
3
  6
CONTINUOUS
 62
3
 10
2.63076525277102
 20
0.999999999999051
 30
0.0
 11
4.85826771653543
 21
1.00000000000531
 31
0.0
  0
LINE
  8
3
  6
CONTINUOUS
 62
3
 10
4.93700787402105
 20
1.07874015748032
 30
0.0
 11
4.93700787401751
 21
1.90551181100948
 31
0.0
  0
ARC
  8
3
  6
CONTINUOUS
 62
3
 10
1.30511811025566
 20
1.49212598424468
 30
0.0
 40
0.108267716535434
 50
89.9999999999998
 51
270
  0
ARC
  8
3
  6
CONTINUOUS
 62
3
 10
2.87992125986196
 20
1.49212598424468
 30
0.0
 40
0.108267716535434
 50
89.9999999999998
 51
270
  0
ARC
  8
3
  6
CONTINUOUS
 62
3
 10
4.63188976379852
 20
1.4921259842591
 30
0.0
 40
0.108267716525874
 50
323.99999999257
 51
89.9999999997592
  0
ARC
  8
3
  6
CONTINUOUS
 62
3
 10
1.87598425197679
 20
1.49212598425264
 30
0.0
 40
0.108267716528814
 50
269.999999995617
 51
26.9999999806481
  0
ARC
  8
3
  6
CONTINUOUS
 62
3
 10
4.85826771653631
 20
1.90551181102274
 30
0.0
 40
0.0787401574812005
 50
359.999999990351
 51
90.0000000006415
  0
ARC
  8
3
  6
CONTINUOUS
 62
3
 10
4.8582677165478
 20
1.07874015747855
 30
0.0
 40
0.0787401574732454
 50
269.999999990994
 51
1.28491864687381E-9
  0
ARC
  8
3
  6
CONTINUOUS
 62
3
 10
1.07874015746352
 20
1.90551181103511
 30
0.0
 40
0.0787401574688274
 50
89.9999999877819
 51
179.999999998072
  0
ARC
  8
3
  6
CONTINUOUS
 62
3
 10
1.07874015748561
 20
1.07874015747501
 30
0.0
 40
0.0787401574803146
 50
179.999999985851
 51
269.999999996141
  0
LINE
  8
3
  6
CONTINUOUS
 62
3
 10
4.63888705793527
 20
2.61538203913488
 30
0.0
 11
2.88691855399826
 21
2.6153820391203
 31
0.0
  0
LINE
  8
3
  6
CONTINUOUS
 62
3
 10
1.88298154612425
 20
2.61538203913488
 30
0.0
 11
1.31211540439197
 21
2.61538203912029
 31
0.0
  0
LINE
  8
3
  6
CONTINUOUS
 62
3
 10
1.3121154044114
 20
2.83191747219116
 30
0.0
 11
1.88298154614369
 21
2.83191747219602
 31
0.0
  0
LINE
  8
3
  6
CONTINUOUS
 62
3
 10
2.8869185540177
 20
2.83191747219116
 30
0.0
 11
4.63888705795471
 21
2.83191747219602
 31
0.0
  0
LINE
  8
3
  6
CONTINUOUS
 62
3
 10
1.00699729415044
 20
3.13703558244881
 30
0.0
 11
1.00699729416105
 21
2.31026392890551
 31
0.0
  0
LINE
  8
3
  6
CONTINUOUS
 62
3
 10
1.08573745163606
 20
2.23152377140575
 30
0.0
 11
3.49741078717357
 21
2.23152377141252
 31
0.0
  0
LINE
  8
3
  6
CONTINUOUS
 62
3
 10
3.54741078717357
 20
2.23152377141266
 30
0.0
 11
4.86526501069118
 21
2.23152377141636
 31
0.0
  0
LINE
  8
3
  6
CONTINUOUS
 62
3
 10
4.9440051681768
 20
2.31026392889137
 30
0.0
 11
4.94400516817326
 21
3.13703558242053
 31
0.0
  0
ARC
  8
3
  6
CONTINUOUS
 62
3
 10
1.3121154044114
 20
2.72364975565573
 30
0.0
 40
0.108267716535434
 50
89.9999999999998
 51
270
  0
ARC
  8
3
  6
CONTINUOUS
 62
3
 10
2.8869185540177
 20
2.72364975565573
 30
0.0
 40
0.108267716535433
 50
89.9999999999998
 51
270
  0
ARC
  8
3
  6
CONTINUOUS
 62
3
 10
4.63888705795426
 20
2.72364975567015
 30
0.0
 40
0.108267716525874
 50
323.999999992571
 51
89.9999999997592
  0
ARC
  8
3
  6
CONTINUOUS
 62
3
 10
1.88298154614198
 20
2.72364975566698
 30
0.0
 40
0.108267716529042
 50
287.999999991434
 51
89.9999999990894
  0
ARC
  8
3
  6
CONTINUOUS
 62
3
 10
4.86526501069206
 20
3.13703558243379
 30
0.0
 40
0.0787401574812009
 50
359.999999990351
 51
90.0000000006411
  0
ARC
  8
3
  6
CONTINUOUS
 62
3
 10
4.86526501070355
 20
2.3102639288896
 30
0.0
 40
0.0787401574732454
 50
269.999999990994
 51
1.28491864687381E-9
  0
ARC
  8
3
  6
CONTINUOUS
 62
3
 10
1.08573745161927
 20
3.13703558244616
 30
0.0
 40
0.0787401574688276
 50
89.9999999877827
 51
179.999999998073
  0
ARC
  8
3
  6
CONTINUOUS
 62
3
 10
1.08573745164136
 20
2.31026392888607
 30
0.0
 40
0.0787401574803146
 50
179.999999985851
 51
269.999999996141
  0
LINE
  8
3
  6
CONTINUOUS
 62
3
 10
1.88997884027999
 20
3.84690581054593
 30
0.0
 11
1.31911269854771
 21
3.84690581053135
 31
0.0
  0
LINE
  8
3
  6
CONTINUOUS
 62
3
 10
1.31911269856715
 20
4.06344124360221
 30
0.0
 11
1.88997884029943
 21
4.06344124360707
 31
0.0
  0
LINE
  8
3
  6
CONTINUOUS
 62
3
 10
2.89391584817345
 20
4.06344124360221
 30
0.0
 11
4.64588435211046
 21
4.06344124360707
 31
0.0
  0
LINE
  8
3
  6
CONTINUOUS
 62
3
 10
1.01399458830618
 20
4.36855935385987
 30
0.0
 11
1.01399458831679
 21
3.54178770031656
 31
0.0
  0
LINE
  8
3
  6
CONTINUOUS
 62
3
 10
1.0927347457918
 20
3.4630475428168
 30
0.0
 11
2.43382207550036
 21
3.46304754282057
 31
0.0
  0
LINE
  8
3
  6
CONTINUOUS
 62
3
 10
2.48382207550036
 20
3.46304754282071
 30
0.0
 11
4.87226230484692
 21
3.46304754282741
 31
0.0
  0
LINE
  8
3
  6
CONTINUOUS
 62
3
 10
4.95100246233254
 20
3.54178770030242
 30
0.0
 11
4.951002462329
 21
4.36855935383159
 31
0.0
  0
ARC
  8
3
  6
CONTINUOUS
 62
3
 10
1.31911269856715
 20
3.95517352706678
 30
0.0
 40
0.108267716535433
 50
89.9999999999998
 51
270
  0
ARC
  8
3
  6
CONTINUOUS
 62
3
 10
2.89391584817345
 20
3.95517352707043
 30
0.0
 40
0.108267716531786
 50
89.9999999999998
 51
270
  0
ARC
  8
3
  6
CONTINUOUS
 62
3
 10
4.64588435209102
 20
3.95517352707286
 30
0.0
 40
0.108267716534217
 50
269.999999999999
 51
89.9999999999998
  0
ARC
  8
3
  6
CONTINUOUS
 62
3
 10
1.88997884029772
 20
3.95517352707803
 30
0.0
 40
0.108267716529042
 50
287.999999991433
 51
89.9999999990894
  0
ARC
  8
3
  6
CONTINUOUS
 62
3
 10
4.87226230484781
 20
4.36855935384484
 30
0.0
 40
0.0787401574811965
 50
359.999999990353
 51
90.0000000006444
  0
ARC
  8
3
  6
CONTINUOUS
 62
3
 10
4.87226230485929
 20
3.54178770030065
 30
0.0
 40
0.0787401574732444
 50
269.999999990995
 51
1.28532575787304E-9
  0
ARC
  8
3
  6
CONTINUOUS
 62
3
 10
1.092734745775
 20
4.36855935385722
 30
0.0
 40
0.0787401574688232
 50
89.9999999877789
 51
179.999999998069
  0
ARC
  8
3
  6
CONTINUOUS
 62
3
 10
1.0927347457971
 20
3.54178770029712
 30
0.0
 40
0.0787401574803149
 50
179.999999985851
 51
269.999999996141
  0
LINE
  8
3
  6
CONTINUOUS
 62
3
 10
1.89697613443574
 20
5.07842958195699
 30
0.0
 11
1.32610999270345
 21
5.07842958194241
 31
0.0
  0
LINE
  8
3
  6
CONTINUOUS
 62
3
 10
1.32610999272289
 20
5.29496501501327
 30
0.0
 11
1.89697613445518
 21
5.29496501501813
 31
0.0
  0
LINE
  8
3
  6
CONTINUOUS
 62
3
 10
2.90091314232919
 20
5.29496501501327
 30
0.0
 11
4.6528816462662
 21
5.29496501501813
 31
0.0
  0
LINE
  8
3
  6
CONTINUOUS
 62
3
 10
1.02099188246193
 20
5.60008312527092
 30
0.0
 11
1.02099188247254
 21
4.77331147172761
 31
0.0
  0
LINE
  8
3
  6
CONTINUOUS
 62
3
 10
4.87925959901681
 20
5.67882328273533
 30
0.0
 11
3.02261372549296
 21
5.67882328273359
 31
0.0
  0
LINE
  8
3
  6
CONTINUOUS
 62
3
 10
2.97261372549296
 20
5.67882328273354
 30
0.0
 11
1.09973203996169
 21
5.67882328273179
 31
0.0
  0
LINE
  8
3
  6
CONTINUOUS
 62
3
 10
4.95799975648829
 20
4.77331147171347
 30
0.0
 11
4.95799975648475
 21
5.60008312524264
 31
0.0
  0
ARC
  8
3
  6
CONTINUOUS
 62
3
 10
1.32610999272289
 20
5.18669729847784
 30
0.0
 40
0.108267716535433
 50
89.9999999999998
 51
270
  0
ARC
  8
3
  6
CONTINUOUS
 62
3
 10
2.90091314232919
 20
5.18669729848148
 30
0.0
 40
0.108267716531791
 50
89.9999999999998
 51
270
  0
ARC
  8
3
  6
CONTINUOUS
 62
3
 10
4.65288164624676
 20
5.18669729848391
 30
0.0
 40
0.108267716534221
 50
269.999999999999
 51
89.9999999999998
  0
ARC
  8
3
  6
CONTINUOUS
 62
3
 10
1.89697613445346
 20
5.18669729848909
 30
0.0
 40
0.108267716529041
 50
287.999999991433
 51
89.9999999990894
  0
ARC
  8
3
  6
CONTINUOUS
 62
3
 10
4.87925959901151
 20
5.60008312526208
 30
0.0
 40
0.0787401574732452
 50
359.999999985851
 51
89.9999999961413
  0
ARC
  8
3
  6
CONTINUOUS
 62
3
 10
4.8792595990124
 20
4.77331147170905
 30
0.0
 40
0.0787401574758923
 50
269.999999992922
 51
3.21267192263694E-9
  0
ARC
  8
3
  6
CONTINUOUS
 62
3
 10
1.09973203993518
 20
5.60008312525855
 30
0.0
 40
0.0787401574732441
 50
89.9999999807062
 51
179.999999990996
  0
ARC
  8
3
  6
CONTINUOUS
 62
3
 10
1.0997320399502
 20
4.77331147171082
 30
0.0
 40
0.078740157477661
 50
179.999999987782
 51
269.999999998072
  0
LINE
  8
9
  6
CONTINUOUS
 62
9
 10
4.33113265410891
 20
4.54620890689654
 30
0.0
 11
4.32465501153263
 21
4.69457131423316
 31
0.0
  0
LINE
  8
9
  6
CONTINUOUS
 62
9
 10
4.32248494700457
 20
4.64486866520975
 30
0.0
 11
4.32465501153263
 21
4.69457131423316
 31
0.0
  0
LINE
  8
9
  6
CONTINUOUS
 62
9
 10
4.32491440439253
 20
5.18578730384193
 30
0.0
 11
4.32960174373457
 21
5.07842958194969
 31
0.0
  0
LINE
  8
9
  6
CONTINUOUS
 62
9
 10
4.3317718082671
 20
5.1281322309729
 30
0.0
 11
4.32960174373457
 21
5.07842958194969
 31
0.0
  0
LINE
  8
9
  6
CONTINUOUS
 62
9
 10
4.31118007481391
 20
4.59566191866324
 30
0.0
 11
4.31765771737688
 21
4.44729951132604
 31
0.0
  0
LINE
  8
9
  6
CONTINUOUS
 62
9
 10
4.3198277819094
 20
4.49700216034925
 30
0.0
 11
4.31765771737688
 21
4.44729951132604
 31
0.0
  0
LINE
  8
9
  6
CONTINUOUS
 62
9
 10
4.31791711023679
 20
3.95426353243088
 30
0.0
 11
4.32260444957883
 21
3.84690581053864
 31
0.0
  0
LINE
  8
9
  6
CONTINUOUS
 62
9
 10
4.32477451411135
 20
3.89660845956185
 30
0.0
 11
4.32260444957883
 21
3.84690581053864
 31
0.0
  0
LINE
  8
9
  6
CONTINUOUS
 62
9
 10
4.69446008295191
 20
3.36413814725219
 30
0.0
 11
4.70093772551487
 21
3.21577573991499
 31
0.0
  0
LINE
  8
9
  6
CONTINUOUS
 62
9
 10
4.70310779004739
 20
3.2654783889382
 30
0.0
 11
4.70093772551487
 21
3.21577573991499
 31
0.0
  0
LINE
  8
9
  6
CONTINUOUS
 62
9
 10
4.60575374540222
 20
2.73991688582155
 30
0.0
 11
4.72647748055761
 21
2.6600115885855
 31
0.0
  0
LINE
  8
9
  6
CONTINUOUS
 62
9
 10
4.68754272476181
 20
2.69098169176779
 30
0.0
 11
4.72647748055761
 21
2.6600115885855
 31
0.0
  0
LINE
  8
9
  6
CONTINUOUS
 62
9
 10
4.77989688670783
 20
2.13261437584114
 30
0.0
 11
4.78637452927079
 21
1.98425196850394
 31
0.0
  0
LINE
  8
9
  6
CONTINUOUS
 62
9
 10
4.78854459380332
 20
2.03395461752715
 30
0.0
 11
4.78637452927079
 21
1.98425196850394
 31
0.0
  0
LINE
  8
9
  6
CONTINUOUS
 62
9
 10
4.59875645124648
 20
1.50839311441051
 30
0.0
 11
4.71948018640187
 21
1.42848781717445
 31
0.0
  0
LINE
  8
9
  6
CONTINUOUS
 62
9
 10
4.68054543060607
 20
1.45945792035674
 30
0.0
 11
4.71948018640187
 21
1.42848781717445
 31
0.0
  0
LINE
  8
9
  6
CONTINUOUS
 62
9
 10
1.8432004090698
 20
1.46815175374155
 30
0.0
 11
1.97245149377071
 21
1.54127849896996
 31
0.0
  0
LINE
  8
9
  6
CONTINUOUS
 62
9
 10
1.92718092053902
 20
1.52064751016007
 30
0.0
 11
1.97245149377071
 21
1.54127849896996
 31
0.0
  0
LINE
  8
9
  6
CONTINUOUS
 62
9
 10
1.8777594562787
 20
2.72413179830378
 30
0.0
 11
1.91643811047622
 21
2.62068103835264
 31
0.0
  0
LINE
  8
9
  6
CONTINUOUS
 62
9
 10
1.90314300127811
 20
2.66862165340303
 30
0.0
 11
1.91643811047622
 21
2.62068103835264
 31
0.0
  0
LINE
  8
9
  6
CONTINUOUS
 62
9
 10
1.88475675043444
 20
3.95565556971483
 30
0.0
 11
1.92343540463196
 21
3.85220480976369
 31
0.0
  0
LINE
  8
9
  6
CONTINUOUS
 62
9
 10
1.91014029543385
 20
3.90014542481408
 30
0.0
 11
1.92343540463196
 21
3.85220480976369
 31
0.0
  0
LINE
  8
9
  6
CONTINUOUS
 62
9
 10
1.89175404459019
 20
5.18717934112589
 30
0.0
 11
1.93043269878771
 21
5.08372858117475
 31
0.0
  0
LINE
  8
9
  6
CONTINUOUS
 62
9
 10
1.9171375895896
 20
5.13166919622514
 30
0.0
 11
1.93043269878771
 21
5.08372858117475
 31
0.0
  0
LINE
  8
0
  6
CONTINUOUS
 62
0
 10
1
 20
5.7788232827371
 30
0.0
 11
1.89175404459019
 21
5.18717934112589
 31
0.0
  0
LINE
  8
0
  6
CONTINUOUS
 62
0
 10
1.9171375895896
 20
5.13166919622514
 30
0.0
 11
1.88475675043444
 21
3.95565556971483
 31
0.0
  0
LINE
  8
0
  6
CONTINUOUS
 62
0
 10
1.91014029543385
 20
3.90014542481408
 30
0.0
 11
1.8777594562787
 21
2.72413179830378
 31
0.0
  0
LINE
  8
0
  6
CONTINUOUS
 62
0
 10
1.90314300127811
 20
2.66862165340303
 30
0.0
 11
1.8432004090698
 21
1.46815175374155
 31
0.0
  0
LINE
  8
0
  6
CONTINUOUS
 62
0
 10
1.92718092053902
 20
1.52064751016007
 30
0.0
 11
4.59875645124648
 21
1.50839311441051
 31
0.0
  0
LINE
  8
0
  6
CONTINUOUS
 62
0
 10
4.68054543060607
 20
1.45945792035674
 30
0.0
 11
4.77989688670783
 21
2.13261437584114
 31
0.0
  0
LINE
  8
0
  6
CONTINUOUS
 62
0
 10
4.78854459380332
 20
2.03395461752715
 30
0.0
 11
4.60575374540222
 21
2.73991688582155
 31
0.0
  0
LINE
  8
0
  6
CONTINUOUS
 62
0
 10
4.68754272476181
 20
2.69098169176779
 30
0.0
 11
4.69446008295191
 21
3.36413814725219
 31
0.0
  0
LINE
  8
0
  6
CONTINUOUS
 62
0
 10
4.70310779004739
 20
3.2654783889382
 30
0.0
 11
4.31791711023679
 21
3.95426353243088
 31
0.0
  0
LINE
  8
0
  6
CONTINUOUS
 62
0
 10
4.32477451411135
 20
3.89660845956185
 30
0.0
 11
4.31118007481391
 21
4.59566191866324
 31
0.0
  0
LINE
  8
0
  6
CONTINUOUS
 62
0
 10
4.3198277819094
 20
4.49700216034925
 30
0.0
 11
4.32491440439253
 21
5.18578730384193
 31
0.0
  0
LINE
  8
0
  6
CONTINUOUS
 62
0
 10
4.3317718082671
 20
5.1281322309729
 30
0.0
 11
4.33113265410891
 21
4.54620890689654
 31
0.0
  0
LINE
  8
3
  6
CONTINUOUS
 62
3
 10
1.09973203994755
 20
4.69457131423316
 30
0.0
 11
2.96561643133712
 21
4.69457131423316
 31
0.0
  0
LINE
  8
3
  6
CONTINUOUS
 62
3
 10
4.65288164624676
 20
5.07842958194969
 30
0.0
 11
4.32960174373457
 21
5.07842958194969
 31
0.0
  0
LINE
  8
3
  6
CONTINUOUS
 62
3
 10
4.32960174373457
 20
5.07842958194969
 30
0.0
 11
2.90091314230975
 21
5.07842958194969
 31
0.0
  0
LINE
  8
3
  6
CONTINUOUS
 62
3
 10
4.87226230484692
 20
4.44729951132604
 30
0.0
 11
4.31765771737688
 21
4.44729951132604
 31
0.0
  0
LINE
  8
3
  6
CONTINUOUS
 62
3
 10
4.31765771737688
 20
4.44729951132604
 30
0.0
 11
2.47682478134479
 21
4.44729951132604
 31
0.0
  0
LINE
  8
3
  6
CONTINUOUS
 62
3
 10
2.42682478134479
 20
4.44729951132604
 30
0.0
 11
1.0927347457918
 21
4.44729951132604
 31
0.0
  0
LINE
  8
3
  6
CONTINUOUS
 62
3
 10
4.64588435209102
 20
3.84690581053864
 30
0.0
 11
4.32260444957883
 21
3.84690581053864
 31
0.0
  0
LINE
  8
3
  6
CONTINUOUS
 62
3
 10
4.32260444957883
 20
3.84690581053864
 30
0.0
 11
2.89391584815401
 21
3.84690581053864
 31
0.0
  0
LINE
  8
3
  6
CONTINUOUS
 62
3
 10
4.86526501069118
 20
3.21577573991499
 30
0.0
 11
4.70093772551487
 21
3.21577573991499
 31
0.0
  0
LINE
  8
3
  6
CONTINUOUS
 62
3
 10
4.70093772551487
 20
3.21577573991499
 30
0.0
 11
3.52641890470648
 21
3.21577573991499
 31
0.0
  0
LINE
  8
3
  6
CONTINUOUS
 62
3
 10
3.47641890470648
 20
3.21577573991499
 30
0.0
 11
1.08573745163606
 21
3.21577573991499
 31
0.0
  0
ARC
  8
3
  6
CONTINUOUS
 62
3
 10
4.63888705795229
 20
2.72364975565123
 30
0.0
 40
0.108267716516353
 50
269.999999990995
 51
324.000000001285
  0
LINE
  8
3
  6
CONTINUOUS
 62
3
 10
4.85826771653543
 20
1.98425196850394
 30
0.0
 11
4.78637452927079
 21
1.98425196850394
 31
0.0
  0
LINE
  8
3
  6
CONTINUOUS
 62
3
 10
4.78637452927079
 20
1.98425196850394
 30
0.0
 11
2.62376795861542
 21
1.98425196850394
 31
0.0
  0
LINE
  8
3
  6
CONTINUOUS
 62
3
 10
2.57376795861542
 20
1.98425196850394
 30
0.0
 11
1.07874015748031
 21
1.98425196850394
 31
0.0
  0
ARC
  8
3
  6
CONTINUOUS
 62
3
 10
4.63188976379655
 20
1.49212598424018
 30
0.0
 40
0.108267716516352
 50
269.999999990995
 51
324.000000001285
  0
ARC
  8
3
  6
CONTINUOUS
 62
3
 10
1.87598425198066
 20
1.4921259842654
 30
0.0
 40
0.108267716519568
 50
26.999999975561
 51
89.9999999961408
  0
ARC
  8
3
  6
CONTINUOUS
 62
3
 10
1.88298154614127
 20
2.72364975560893
 30
0.0
 40
0.108267716474051
 50
269.999999990994
 51
288.000000001284
  0
ARC
  8
3
  6
CONTINUOUS
 62
3
 10
1.889978840297
 20
3.95517352701998
 30
0.0
 40
0.108267716474051
 50
269.999999990995
 51
288.000000001284
  0
ARC
  8
3
  6
CONTINUOUS
 62
3
 10
1.89697613445275
 20
5.18669729843104
 30
0.0
 40
0.108267716474052
 50
269.999999990996
 51
288.000000001286
  0
LINE
  8
0
  6
CONTINUOUS
 62
0
 10
3.02261372549282
 20
5.82882328273359
 30
0.0
 11
2.97261372549282
 21
5.82882328273354
 31
0.0
  0
LINE
  8
2
  6
CONTINUOUS
 62
2
 10
2.97261372549296
 20
5.67882328273354
 30
0.0
 11
2.97261372549282
 21
5.82882328273354
 31
0.0
  0
LINE
  8
2
  6
CONTINUOUS
 62
2
 10
3.02261372549296
 20
5.67882328273359
 30
0.0
 11
3.02261372549282
 21
5.82882328273359
 31
0.0
  0
LINE
  8
0
  6
CONTINUOUS
 62
0
 10
2.96561643133712
 20
4.54457131423316
 30
0.0
 11
3.01561643133712
 21
4.54457131423316
 31
0.0
  0
LINE
  8
2
  6
CONTINUOUS
 62
2
 10
3.01561643133712
 20
4.69457131423316
 30
0.0
 11
3.01561643133712
 21
4.54457131423316
 31
0.0
  0
LINE
  8
2
  6
CONTINUOUS
 62
2
 10
2.96561643133712
 20
4.69457131423316
 30
0.0
 11
2.96561643133712
 21
4.54457131423316
 31
0.0
  0
LINE
  8
3
  6
CONTINUOUS
 62
3
 10
4.32465501153263
 20
4.69457131423316
 30
0.0
 11
4.87925959900267
 21
4.69457131423316
 31
0.0
  0
LINE
  8
3
  6
CONTINUOUS
 62
3
 10
3.01561643133712
 20
4.69457131423316
 30
0.0
 11
4.32465501153263
 21
4.69457131423316
 31
0.0
  0
LINE
  8
0
  6
CONTINUOUS
 62
0
 10
2.47682478134479
 20
4.59729951132604
 30
0.0
 11
2.42682478134479
 21
4.59729951132604
 31
0.0
  0
LINE
  8
2
  6
CONTINUOUS
 62
2
 10
2.42682478134479
 20
4.44729951132604
 30
0.0
 11
2.42682478134479
 21
4.59729951132604
 31
0.0
  0
LINE
  8
2
  6
CONTINUOUS
 62
2
 10
2.47682478134479
 20
4.44729951132604
 30
0.0
 11
2.47682478134479
 21
4.59729951132604
 31
0.0
  0
LINE
  8
0
  6
CONTINUOUS
 62
0
 10
2.43382207550079
 20
3.31304754282057
 30
0.0
 11
2.48382207550079
 21
3.31304754282071
 31
0.0
  0
LINE
  8
2
  6
CONTINUOUS
 62
2
 10
2.48382207550036
 20
3.46304754282071
 30
0.0
 11
2.48382207550079
 21
3.31304754282071
 31
0.0
  0
LINE
  8
2
  6
CONTINUOUS
 62
2
 10
2.43382207550036
 20
3.46304754282057
 30
0.0
 11
2.43382207550079
 21
3.31304754282057
 31
0.0
  0
LINE
  8
0
  6
CONTINUOUS
 62
0
 10
3.52641890470648
 20
3.36577573991499
 30
0.0
 11
3.47641890470648
 21
3.36577573991499
 31
0.0
  0
LINE
  8
2
  6
CONTINUOUS
 62
2
 10
3.47641890470648
 20
3.21577573991499
 30
0.0
 11
3.47641890470648
 21
3.36577573991499
 31
0.0
  0
LINE
  8
2
  6
CONTINUOUS
 62
2
 10
3.52641890470648
 20
3.21577573991499
 30
0.0
 11
3.52641890470648
 21
3.36577573991499
 31
0.0
  0
LINE
  8
0
  6
CONTINUOUS
 62
0
 10
3.49741078717399
 20
2.08152377141252
 30
0.0
 11
3.54741078717399
 21
2.08152377141266
 31
0.0
  0
LINE
  8
2
  6
CONTINUOUS
 62
2
 10
3.54741078717357
 20
2.23152377141266
 30
0.0
 11
3.54741078717399
 21
2.08152377141266
 31
0.0
  0
LINE
  8
2
  6
CONTINUOUS
 62
2
 10
3.49741078717357
 20
2.23152377141252
 30
0.0
 11
3.49741078717399
 21
2.08152377141252
 31
0.0
  0
LINE
  8
0
  6
CONTINUOUS
 62
0
 10
2.62376795861542
 20
2.13425196850394
 30
0.0
 11
2.57376795861542
 21
2.13425196850394
 31
0.0
  0
LINE
  8
2
  6
CONTINUOUS
 62
2
 10
2.57376795861542
 20
1.98425196850394
 30
0.0
 11
2.57376795861542
 21
2.13425196850394
 31
0.0
  0
LINE
  8
2
  6
CONTINUOUS
 62
2
 10
2.62376795861542
 20
1.98425196850394
 30
0.0
 11
2.62376795861542
 21
2.13425196850394
 31
0.0
  0
LINE
  8
0
  6
CONTINUOUS
 62
0
 10
2.58076525277144
 20
0.84999999999891
 30
0.0
 11
2.63076525277144
 21
0.849999999999051
 31
0.0
  0
LINE
  8
2
  6
CONTINUOUS
 62
2
 10
2.63076525277102
 20
0.999999999999051
 30
0.0
 11
2.63076525277144
 21
0.849999999999051
 31
0.0
  0
LINE
  8
2
  6
CONTINUOUS
 62
2
 10
2.58076525277102
 20
0.99999999999891
 30
0.0
 11
2.58076525277144
 21
0.84999999999891
 31
0.0
  0
ENDSEC
  0
EOF
