  0
SECTION
  2
HEADER
  9
$ACADVER
  1
AC1003
  9
$EXTMIN
 10
0.999999999999995
 20
2.33368938379609
  9
$EXTMAX
 10
4.68779543969826
 20
0.849999999999754
  9
$INSBASE
 10
2.84389771984913
 20
1.59184469189792
999
Created with OMAX Layout for Windows. (http://www.omax.com) 4/30/2015
  0
ENDSEC
  0
SECTION
  2
TABLES
  0
TABLE
  2
LAYER
 70
    10
  0
LAYER
  2
0
 70
     0
 62
     7
  6
CONTINUOUS
  0
LAYER
  2
1
 70
     0
 62
     7
  6
CONTINUOUS
  0
LAYER
  2
2
 70
     0
 62
     7
  6
CONTINUOUS
  0
LAYER
  2
3
 70
     0
 62
     7
  6
CONTINUOUS
  0
LAYER
  2
4
 70
     0
 62
     7
  6
CONTINUOUS
  0
LAYER
  2
5
 70
     0
 62
     7
  6
CONTINUOUS
  0
LAYER
  2
6
 70
     0
 62
     7
  6
CONTINUOUS
  0
LAYER
  2
7
 70
     0
 62
     7
  6
CONTINUOUS
  0
LAYER
  2
8
 70
     0
 62
     7
  6
CONTINUOUS
  0
LAYER
  2
9
 70
     0
 62
     7
  6
CONTINUOUS
  0
LAYER
  2
10
 70
     0
 62
     7
  6
CONTINUOUS
  0
LAYER
  2
11
 70
     0
 62
     7
  6
CONTINUOUS
  0
LAYER
  2
12
 70
     0
 62
     7
  6
CONTINUOUS
  0
LAYER
  2
13
 70
     0
 62
     7
  6
CONTINUOUS
  0
LAYER
  2
14
 70
     0
 62
     7
  6
CONTINUOUS
  0
LAYER
  2
15
 70
     0
 62
     7
  6
CONTINUOUS
  0
LAYER
  2
16
 70
     0
 62
     7
  6
CONTINUOUS
  0
LAYER
  2
17
 70
     0
 62
     7
  6
CONTINUOUS
  0
LAYER
  2
18
 70
     0
 62
     7
  6
CONTINUOUS
  0
LAYER
  2
19
 70
     0
 62
     7
  6
CONTINUOUS
  0
LAYER
  2
20
 70
     0
 62
     7
  6
CONTINUOUS
  0
LAYER
  2
21
 70
     0
 62
     7
  6
CONTINUOUS
  0
LAYER
  2
22
 70
     0
 62
     7
  6
CONTINUOUS
  0
LAYER
  2
23
 70
     0
 62
     7
  6
CONTINUOUS
  0
LAYER
  2
24
 70
     0
 62
     7
  6
CONTINUOUS
  0
LAYER
  2
25
 70
     0
 62
     7
  6
CONTINUOUS
  0
LAYER
  2
26
 70
     0
 62
     7
  6
CONTINUOUS
  0
LAYER
  2
27
 70
     0
 62
     7
  6
CONTINUOUS
  0
LAYER
  2
28
 70
     0
 62
     7
  6
CONTINUOUS
  0
LAYER
  2
29
 70
     0
 62
     7
  6
CONTINUOUS
  0
LAYER
  2
30
 70
     0
 62
     7
  6
CONTINUOUS
  0
LAYER
  2
31
 70
     0
 62
     7
  6
CONTINUOUS
  0
ENDTAB
  0
ENDSEC
  0
SECTION
  2
ENTITIES
  0
LINE
  8
3
  6
CONTINUOUS
 62
3
 10
3.90690452756436
 20
1.67716535433601
 30
0.0
 11
3.51308562992656
 21
1.67716535433071
 31
0.0
  0
LINE
  8
3
  6
CONTINUOUS
 62
3
 10
3.51308562992656
 20
1.50393700787402
 30
0.0
 11
3.9069045275785
 21
1.50393700787225
 31
0.0
  0
LINE
  8
3
  6
CONTINUOUS
 62
3
 10
3.98564468504998
 20
1.07874015748031
 30
0.0
 11
3.98564468504645
 21
1.42519685037956
 31
0.0
  0
LINE
  8
3
  6
CONTINUOUS
 62
3
 10
3.51308562992656
 20
1.67716535433071
 30
0.0
 11
3.51308562992656
 21
1.50393700787402
 31
0.0
  0
LINE
  8
3
  6
CONTINUOUS
 62
3
 10
3.90690452756436
 20
1.0000000000053
 30
0.0
 11
2.47851073509338
 21
0.999999999999942
 31
0.0
  0
LINE
  8
3
  6
CONTINUOUS
 62
3
 10
2.42851073509338
 20
0.999999999999754
 30
0.0
 11
1.07874015748561
 21
0.999999999994692
 31
0.0
  0
LINE
  8
3
  6
CONTINUOUS
 62
3
 10
1.07874015749975
 20
2.18110236219942
 30
0.0
 11
2.4370217998677
 21
2.18110236220112
 31
0.0
  0
LINE
  8
3
  6
CONTINUOUS
 62
3
 10
2.4870217998677
 20
2.18110236220118
 30
0.0
 11
3.9069045275785
 21
2.18110236220296
 31
0.0
  0
LINE
  8
3
  6
CONTINUOUS
 62
3
 10
0.999999999999995
 20
2.10236220473855
 30
0.0
 11
1.0000000000106
 21
1.07874015749445
 31
0.0
  0
LINE
  8
3
  6
CONTINUOUS
 62
3
 10
2.02038137795806
 20
1.88582677165354
 30
0.0
 11
2.00351078872999
 21
1.88582677319091
 31
0.0
  0
LINE
  8
3
  6
CONTINUOUS
 62
3
 10
2.0035107886592
 20
1.29527558909247
 30
0.0
 11
2.02038137795806
 21
1.29527559055118
 31
0.0
  0
ARC
  8
3
  6
CONTINUOUS
 62
3
 10
3.83721948819278
 20
1.1968503937068
 30
0.0
 40
0.0669291338612728
 50
179.999999994854
 51
359.999999984564
  0
ARC
  8
3
  6
CONTINUOUS
 62
3
 10
3.83721948818924
 20
1.19685039370658
 30
0.0
 40
0.0669291338577366
 50
44.9999999723316
 51
179.999999994667
  0
ARC
  8
3
  6
CONTINUOUS
 62
3
 10
3.90690452757938
 20
2.10236220473767
 30
0.0
 40
0.0787401574652911
 50
359.999999990353
 51
90.0000000006449
  0
ARC
  8
3
  6
CONTINUOUS
 62
3
 10
3.90690452757408
 20
1.7559055118066
 30
0.0
 40
0.078740157470592
 50
269.999999992926
 51
3.21636136606743E-9
  0
ARC
  8
3
  6
CONTINUOUS
 62
3
 10
3.90690452757674
 20
1.07874015747854
 30
0.0
 40
0.0787401574732438
 50
269.999999990996
 51
1.28605728544977E-9
  0
ARC
  8
3
  6
CONTINUOUS
 62
3
 10
3.83721948819278
 20
1.98425196850995
 30
0.0
 40
0.066929133861273
 50
179.999999994854
 51
359.999999984564
  0
ARC
  8
3
  6
CONTINUOUS
 62
3
 10
3.83721948819237
 20
1.98425196850743
 30
0.0
 40
0.0669291338608619
 50
8.99999997603013
 51
179.999999992694
  0
ARC
  8
3
  6
CONTINUOUS
 62
3
 10
3.9069045275732
 20
1.425196850399
 30
0.0
 40
0.0787401574732446
 50
359.999999985849
 51
89.9999999961411
  0
ARC
  8
3
  6
CONTINUOUS
 62
3
 10
1.07874015747324
 20
2.10236220472618
 30
0.0
 40
0.0787401574732447
 50
89.999999980706
 51
179.999999990996
  0
ARC
  8
3
  6
CONTINUOUS
 62
3
 10
1.07874015749092
 20
1.07874015747501
 30
0.0
 40
0.0787401574803149
 50
179.999999985851
 51
269.999999996141
  0
ARC
  8
3
  6
CONTINUOUS
 62
3
 10
2.40423964567459
 20
1.9251968503967
 30
0.0
 40
0.066929133858268
 50
359.999999997427
 51
179.999999992281
  0
ARC
  8
3
  6
CONTINUOUS
 62
3
 10
2.40423964567309
 20
1.25590551181703
 30
0.0
 40
0.0669291338612725
 50
179.999999994854
 51
359.999999984564
  0
ARC
  8
3
  6
CONTINUOUS
 62
3
 10
2.40423964569544
 20
1.25590551183011
 30
0.0
 40
0.0669291338389229
 50
359.999999973362
 51
99.0000000001599
  0
ARC
  8
3
  6
CONTINUOUS
 62
3
 10
2.40423964565796
 20
1.59055118110067
 30
0.0
 40
0.177165354328232
 50
139.485765758729
 51
302.70422049174
  0
ARC
  8
3
  6
CONTINUOUS
 62
3
 10
2.40423964568002
 20
1.59055118111899
 30
0.0
 40
0.177165354333106
 50
319.892954336291
 51
139.485765767869
  0
ARC
  8
3
  6
CONTINUOUS
 62
3
 10
2.50028322807554
 20
1.59055118114169
 30
0.0
 40
0.577901835741457
 50
149.273256979069
 51
210.72674302093
  0
ARC
  8
3
  6
CONTINUOUS
 62
3
 10
1.41299212598805
 20
1.23622047244696
 30
0.0
 40
0.0669291338612728
 50
179.999999994854
 51
359.999999984564
  0
ARC
  8
3
  6
CONTINUOUS
 62
3
 10
1.41299212596719
 20
1.23622047246131
 30
0.0
 40
0.0669291338404081
 50
80.999999957595
 51
180.00000000714
  0
ARC
  8
3
  6
CONTINUOUS
 62
3
 10
1.41299212598805
 20
1.94488188976979
 30
0.0
 40
0.0669291338612728
 50
179.999999994854
 51
359.999999984564
  0
ARC
  8
3
  6
CONTINUOUS
 62
3
 10
1.41299212598764
 20
1.94488188976727
 30
0.0
 40
0.0669291338608616
 50
8.99999997602994
 51
179.999999992694
  0
LINE
  8
3
  6
CONTINUOUS
 62
3
 10
4.29094504599747
 20
2.18393938379609
 30
0.0
 11
4.29094504599747
 21
1.6027095622249
 31
0.0
  0
LINE
  8
3
  6
CONTINUOUS
 62
3
 10
4.29094504599747
 20
1.5777095622249
 30
0.0
 11
4.29094504599747
 21
1.00283702159137
 31
0.0
  0
LINE
  8
3
  6
CONTINUOUS
 62
3
 10
4.58779543969826
 20
1.00283702159137
 30
0.0
 11
4.58779543969826
 21
1.56919849745078
 31
0.0
  0
LINE
  8
3
  6
CONTINUOUS
 62
3
 10
4.58779543969826
 20
1.59419849745078
 30
0.0
 11
4.58779543969826
 21
2.18393938379609
 31
0.0
  0
LINE
  8
3
  6
CONTINUOUS
 62
3
 10
4.58779543969826
 20
2.18393938379609
 30
0.0
 11
4.29094504599747
 21
2.18393938379609
 31
0.0
  0
LINE
  8
3
  6
CONTINUOUS
 62
3
 10
4.29094504599747
 20
1.00283702159137
 30
0.0
 11
4.58779543969826
 21
1.00283702159137
 31
0.0
  0
ARC
  8
3
  6
CONTINUOUS
 62
3
 10
4.43937024284636
 20
1.98708899010132
 30
0.0
 40
0.0669291338612723
 50
179.999999994854
 51
359.999999984564
  0
ARC
  8
3
  6
CONTINUOUS
 62
3
 10
4.43937024284866
 20
1.98708899009966
 30
0.0
 40
0.0669291338589722
 50
359.999999985982
 51
152.99999998438
  0
ARC
  8
3
  6
CONTINUOUS
 62
3
 10
4.43937024284636
 20
1.19968741529817
 30
0.0
 40
0.0669291338612723
 50
179.999999994854
 51
359.999999984564
  0
ARC
  8
3
  6
CONTINUOUS
 62
3
 10
4.43937024285096
 20
1.19968741529751
 30
0.0
 40
0.0669291338566736
 50
359.999999985128
 51
134.999999986131
  0
LINE
  8
9
  6
CONTINUOUS
 62
9
 10
4.14169504599747
 20
2.18393938382289
 30
0.0
 11
4.29094504599747
 21
2.18393938379609
 31
0.0
  0
LINE
  8
9
  6
CONTINUOUS
 62
9
 10
4.29094504600417
 20
2.23368938379609
 30
0.0
 11
4.29094504599747
 21
2.18393938379609
 31
0.0
  0
LINE
  8
9
  6
CONTINUOUS
 62
9
 10
4.4388140459745
 20
1.99055074059717
 30
0.0
 11
4.37973594792487
 21
2.01747418103298
 31
0.0
  0
LINE
  8
9
  6
CONTINUOUS
 62
9
 10
4.42303614378844
 20
1.99297610890115
 30
0.0
 11
4.37973594792487
 21
2.01747418103298
 31
0.0
  0
LINE
  8
9
  6
CONTINUOUS
 62
9
 10
4.13400709238158
 20
1.97637111176833
 30
0.0
 11
3.98564468504467
 21
1.9698934691987
 31
0.0
  0
LINE
  8
9
  6
CONTINUOUS
 62
9
 10
4.03534733406798
 20
1.96772340466841
 30
0.0
 11
3.98564468504467
 21
1.9698934691987
 31
0.0
  0
LINE
  8
9
  6
CONTINUOUS
 62
9
 10
3.83970422680989
 20
1.98177827782961
 30
0.0
 11
3.90332461335537
 21
1.99472199174277
 31
0.0
  0
LINE
  8
9
  6
CONTINUOUS
 62
9
 10
3.8538944135338
 20
1.98909013187242
 30
0.0
 11
3.90332461335537
 21
1.99472199174277
 31
0.0
  0
LINE
  8
9
  6
CONTINUOUS
 62
9
 10
3.84068368286408
 20
1.1963096286132
 30
0.0
 11
3.88454553261335
 21
1.24417643810197
 31
0.0
  0
LINE
  8
9
  6
CONTINUOUS
 62
9
 10
3.8478659851018
 20
1.21056582527881
 30
0.0
 11
3.88454553261335
 21
1.24417643810197
 31
0.0
  0
LINE
  8
9
  6
CONTINUOUS
 62
9
 10
4.43991100792976
 20
1.2031516099559
 30
0.0
 11
4.39204419844492
 21
1.24701345970946
 31
0.0
  0
LINE
  8
9
  6
CONTINUOUS
 62
9
 10
4.42565481126479
 20
1.2103339121949
 30
0.0
 11
4.39204419844492
 21
1.24701345970946
 31
0.0
  0
LINE
  8
9
  6
CONTINUOUS
 62
9
 10
2.42209634274622
 20
1.56704143890951
 30
0.0
 11
2.53974318279012
 21
1.47641812628111
 31
0.0
  0
LINE
  8
9
  6
CONTINUOUS
 62
9
 10
2.50312649395366
 20
1.51009720879018
 30
0.0
 11
2.53974318279012
 21
1.47641812628111
 31
0.0
  0
LINE
  8
9
  6
CONTINUOUS
 62
9
 10
2.40671333634314
 20
1.2583902504204
 30
0.0
 11
2.39376962243569
 21
1.32201063696704
 31
0.0
  0
LINE
  8
9
  6
CONTINUOUS
 62
9
 10
2.3994014823016
 20
1.27258043714496
 30
0.0
 11
2.39376962243569
 21
1.32201063696704
 31
0.0
  0
LINE
  8
9
  6
CONTINUOUS
 62
9
 10
1.98459547066072
 20
1.75771764353979
 30
0.0
 11
2.02038137795806
 21
1.75928008998875
 31
0.0
  0
LINE
  8
9
  6
CONTINUOUS
 62
9
 10
1.98459547066156
 20
1.76084253645698
 30
0.0
 11
2.02038137795806
 21
1.75928008998875
 31
0.0
  0
LINE
  8
9
  6
CONTINUOUS
 62
9
 10
2.40203607396274
 20
1.9271638222395
 30
0.0
 11
2.35078766271865
 21
1.88491789215127
 31
0.0
  0
LINE
  8
9
  6
CONTINUOUS
 62
9
 10
2.39178794060764
 20
1.91309660243094
 30
0.0
 11
2.35078766271865
 21
1.88491789215127
 31
0.0
  0
LINE
  8
9
  6
CONTINUOUS
 62
9
 10
1.41547686460516
 20
1.94240819908945
 30
0.0
 11
1.47909725115064
 21
1.95535191300261
 31
0.0
  0
LINE
  8
9
  6
CONTINUOUS
 62
9
 10
1.42966705132907
 20
1.94972005313226
 30
0.0
 11
1.47909725115064
 21
1.95535191300261
 31
0.0
  0
LINE
  8
9
  6
CONTINUOUS
 62
9
 10
1.41611257208309
 20
1.23781918683295
 30
0.0
 11
1.42346214925217
 21
1.30232559759574
 31
0.0
  0
LINE
  8
9
  6
CONTINUOUS
 62
9
 10
1.41354359450051
 20
1.25357434354379
 30
0.0
 11
1.42346214925217
 21
1.30232559759574
 31
0.0
  0
LINE
  8
0
  6
CONTINUOUS
 62
0
 10
0.999999999999995
 20
2.33368938379609
 30
0.0
 11
1.41611257208309
 21
1.23781918683295
 31
0.0
  0
LINE
  8
0
  6
CONTINUOUS
 62
0
 10
1.41354359450051
 20
1.25357434354379
 30
0.0
 11
1.41547686460516
 21
1.94240819908945
 31
0.0
  0
LINE
  8
0
  6
CONTINUOUS
 62
0
 10
1.42966705132907
 20
1.94972005313226
 30
0.0
 11
2.40203607396274
 21
1.9271638222395
 31
0.0
  0
LINE
  8
0
  6
CONTINUOUS
 62
0
 10
2.39178794060764
 20
1.91309660243094
 30
0.0
 11
1.98459547066072
 21
1.75771764353979
 31
0.0
  0
LINE
  8
0
  6
CONTINUOUS
 62
0
 10
1.98459547066156
 20
1.76084253645698
 30
0.0
 11
2.40671333634314
 21
1.2583902504204
 31
0.0
  0
LINE
  8
0
  6
CONTINUOUS
 62
0
 10
2.3994014823016
 20
1.27258043714496
 30
0.0
 11
2.42209634274622
 21
1.56704143890951
 31
0.0
  0
LINE
  8
0
  6
CONTINUOUS
 62
0
 10
2.50312649395366
 20
1.51009720879018
 30
0.0
 11
4.43991100792976
 21
1.2031516099559
 31
0.0
  0
LINE
  8
0
  6
CONTINUOUS
 62
0
 10
4.42565481126479
 20
1.2103339121949
 30
0.0
 11
3.84068368286408
 21
1.1963096286132
 31
0.0
  0
LINE
  8
0
  6
CONTINUOUS
 62
0
 10
3.8478659851018
 20
1.21056582527881
 30
0.0
 11
3.83970422680989
 21
1.98177827782961
 31
0.0
  0
LINE
  8
0
  6
CONTINUOUS
 62
0
 10
3.8538944135338
 20
1.98909013187242
 30
0.0
 11
4.13400709238158
 21
1.97637111176833
 31
0.0
  0
LINE
  8
0
  6
CONTINUOUS
 62
0
 10
4.03534733406798
 20
1.96772340466841
 30
0.0
 11
4.4388140459745
 21
1.99055074059717
 31
0.0
  0
LINE
  8
0
  6
CONTINUOUS
 62
0
 10
4.42303614378844
 20
1.99297610890115
 30
0.0
 11
4.14169504599747
 21
2.18393938382289
 31
0.0
  0
ARC
  8
3
  6
CONTINUOUS
 62
3
 10
4.43937024281832
 20
1.98708899009681
 30
0.0
 40
0.0669291338332347
 50
152.999999970416
 51
179.999999990996
  0
LINE
  8
3
  6
CONTINUOUS
 62
3
 10
3.98564468504467
 20
1.75590551181102
 30
0.0
 11
3.98564468504467
 21
1.9698934691987
 31
0.0
  0
LINE
  8
3
  6
CONTINUOUS
 62
3
 10
3.98564468504467
 20
1.9698934691987
 30
0.0
 11
3.98564468504467
 21
2.10236220472441
 31
0.0
  0
ARC
  8
3
  6
CONTINUOUS
 62
3
 10
3.83721948827215
 20
1.98425196850845
 30
0.0
 40
0.0669291337819047
 50
359.999999985849
 51
8.99999998584919
  0
ARC
  8
3
  6
CONTINUOUS
 62
3
 10
3.8372194882103
 20
1.1968503937053
 30
0.0
 40
0.0669291338437586
 50
359.99999998585
 51
44.9999999858503
  0
ARC
  8
3
  6
CONTINUOUS
 62
3
 10
4.43937024282885
 20
1.19968741529366
 30
0.0
 40
0.0669291338437587
 50
134.999999970416
 51
179.999999990996
  0
ARC
  8
3
  6
CONTINUOUS
 62
3
 10
2.4042396457549
 20
1.59055118104076
 30
0.0
 40
0.177165354225445
 50
302.704220475827
 51
319.892954340042
  0
ARC
  8
3
  6
CONTINUOUS
 62
3
 10
2.40423964566305
 20
1.25590551181252
 30
0.0
 40
0.0669291338512307
 50
98.9999999704163
 51
179.999999990996
  0
LINE
  8
3
  6
CONTINUOUS
 62
3
 10
2.02038137795806
 20
1.29527559055118
 30
0.0
 11
2.02038137795806
 21
1.75928008998875
 31
0.0
  0
LINE
  8
3
  6
CONTINUOUS
 62
3
 10
2.02038137795806
 20
1.75928008998875
 30
0.0
 11
2.02038137795806
 21
1.88582677165354
 31
0.0
  0
ARC
  8
3
  6
CONTINUOUS
 62
3
 10
2.40423964567459
 20
1.9251968503937
 30
0.0
 40
0.0669291338582683
 50
179.999999989709
 51
216.999999999971
  0
ARC
  8
3
  6
CONTINUOUS
 62
3
 10
2.4042396456766
 20
1.92519685038769
 30
0.0
 40
0.0669291338562571
 50
216.999999994826
 51
5.14386019745604E-9
  0
ARC
  8
3
  6
CONTINUOUS
 62
3
 10
1.41299212606742
 20
1.94488188976829
 30
0.0
 40
0.0669291337819037
 50
359.999999985849
 51
8.99999998584925
  0
ARC
  8
3
  6
CONTINUOUS
 62
3
 10
1.41299212599809
 20
1.23622047244546
 30
0.0
 40
0.0669291338512306
 50
359.99999998585
 51
80.9999999858505
  0
LINE
  8
0
  6
CONTINUOUS
 62
0
 10
2.43702179986751
 20
2.33110236220112
 30
0.0
 11
2.48702179986751
 21
2.33110236220118
 31
0.0
  0
LINE
  8
2
  6
CONTINUOUS
 62
2
 10
2.4870217998677
 20
2.18110236220118
 30
0.0
 11
2.48702179986751
 21
2.33110236220118
 31
0.0
  0
LINE
  8
2
  6
CONTINUOUS
 62
2
 10
2.4370217998677
 20
2.18110236220112
 30
0.0
 11
2.43702179986751
 21
2.33110236220112
 31
0.0
  0
LINE
  8
0
  6
CONTINUOUS
 62
0
 10
2.47851073509394
 20
0.849999999999942
 30
0.0
 11
2.42851073509394
 21
0.849999999999754
 31
0.0
  0
LINE
  8
2
  6
CONTINUOUS
 62
2
 10
2.42851073509338
 20
0.999999999999754
 30
0.0
 11
2.42851073509394
 21
0.849999999999754
 31
0.0
  0
LINE
  8
2
  6
CONTINUOUS
 62
2
 10
2.47851073509338
 20
0.999999999999942
 30
0.0
 11
2.47851073509394
 21
0.849999999999942
 31
0.0
  0
LINE
  8
0
  6
CONTINUOUS
 62
0
 10
4.19094504599747
 20
1.6027095622249
 30
0.0
 11
4.19094504599747
 21
1.5777095622249
 31
0.0
  0
LINE
  8
2
  6
CONTINUOUS
 62
2
 10
4.29094504599747
 20
1.5777095622249
 30
0.0
 11
4.19094504599747
 21
1.5777095622249
 31
0.0
  0
LINE
  8
2
  6
CONTINUOUS
 62
2
 10
4.29094504599747
 20
1.6027095622249
 30
0.0
 11
4.19094504599747
 21
1.6027095622249
 31
0.0
  0
LINE
  8
0
  6
CONTINUOUS
 62
0
 10
4.68779543969826
 20
1.56919849745078
 30
0.0
 11
4.68779543969826
 21
1.59419849745078
 31
0.0
  0
LINE
  8
2
  6
CONTINUOUS
 62
2
 10
4.58779543969826
 20
1.59419849745078
 30
0.0
 11
4.68779543969826
 21
1.59419849745078
 31
0.0
  0
LINE
  8
2
  6
CONTINUOUS
 62
2
 10
4.58779543969826
 20
1.56919849745078
 30
0.0
 11
4.68779543969826
 21
1.56919849745078
 31
0.0
  0
ENDSEC
  0
EOF
