  0
SECTION
  2
HEADER
  9
$ACADVER
  1
AC1003
  9
$EXTMIN
 10
1
 20
9.37008472440945
  9
$EXTMAX
 10
8.5826831496063
 20
1
  9
$INSBASE
 10
4.79134157480315
 20
5.18504236220472
999
Created with OMAX Layout for Windows. (http://www.omax.com) 5/4/2015
  0
ENDSEC
  0
SECTION
  2
TABLES
  0
TABLE
  2
LAYER
 70
    10
  0
LAYER
  2
0
 70
     0
 62
     7
  6
CONTINUOUS
  0
LAYER
  2
1
 70
     0
 62
     7
  6
CONTINUOUS
  0
LAYER
  2
2
 70
     0
 62
     7
  6
CONTINUOUS
  0
LAYER
  2
3
 70
     0
 62
     7
  6
CONTINUOUS
  0
LAYER
  2
4
 70
     0
 62
     7
  6
CONTINUOUS
  0
LAYER
  2
5
 70
     0
 62
     7
  6
CONTINUOUS
  0
LAYER
  2
6
 70
     0
 62
     7
  6
CONTINUOUS
  0
LAYER
  2
7
 70
     0
 62
     7
  6
CONTINUOUS
  0
LAYER
  2
8
 70
     0
 62
     7
  6
CONTINUOUS
  0
LAYER
  2
9
 70
     0
 62
     7
  6
CONTINUOUS
  0
LAYER
  2
10
 70
     0
 62
     7
  6
CONTINUOUS
  0
LAYER
  2
11
 70
     0
 62
     7
  6
CONTINUOUS
  0
LAYER
  2
12
 70
     0
 62
     7
  6
CONTINUOUS
  0
LAYER
  2
13
 70
     0
 62
     7
  6
CONTINUOUS
  0
LAYER
  2
14
 70
     0
 62
     7
  6
CONTINUOUS
  0
LAYER
  2
15
 70
     0
 62
     7
  6
CONTINUOUS
  0
LAYER
  2
16
 70
     0
 62
     7
  6
CONTINUOUS
  0
LAYER
  2
17
 70
     0
 62
     7
  6
CONTINUOUS
  0
LAYER
  2
18
 70
     0
 62
     7
  6
CONTINUOUS
  0
LAYER
  2
19
 70
     0
 62
     7
  6
CONTINUOUS
  0
LAYER
  2
20
 70
     0
 62
     7
  6
CONTINUOUS
  0
LAYER
  2
21
 70
     0
 62
     7
  6
CONTINUOUS
  0
LAYER
  2
22
 70
     0
 62
     7
  6
CONTINUOUS
  0
LAYER
  2
23
 70
     0
 62
     7
  6
CONTINUOUS
  0
LAYER
  2
24
 70
     0
 62
     7
  6
CONTINUOUS
  0
LAYER
  2
25
 70
     0
 62
     7
  6
CONTINUOUS
  0
LAYER
  2
26
 70
     0
 62
     7
  6
CONTINUOUS
  0
LAYER
  2
27
 70
     0
 62
     7
  6
CONTINUOUS
  0
LAYER
  2
28
 70
     0
 62
     7
  6
CONTINUOUS
  0
LAYER
  2
29
 70
     0
 62
     7
  6
CONTINUOUS
  0
LAYER
  2
30
 70
     0
 62
     7
  6
CONTINUOUS
  0
LAYER
  2
31
 70
     0
 62
     7
  6
CONTINUOUS
  0
ENDTAB
  0
ENDSEC
  0
SECTION
  2
ENTITIES
  0
LINE
  8
3
  6
CONTINUOUS
 62
3
 10
7.9324468503937
 20
1.70591401574803
 30
0.0
 11
8.5826831496063
 21
1.70591401574803
 31
0.0
  0
LINE
  8
3
  6
CONTINUOUS
 62
3
 10
8.5826831496063
 20
1.70591401574803
 30
0.0
 11
8.5826831496063
 21
8.66417070866142
 31
0.0
  0
LINE
  8
3
  6
CONTINUOUS
 62
3
 10
8.5826831496063
 20
8.66417070866142
 30
0.0
 11
7.9324468503937
 21
8.66417070866142
 31
0.0
  0
LINE
  8
3
  6
CONTINUOUS
 62
3
 10
1.70591401574803
 20
8.71984842519685
 30
0.0
 11
1.70591401574803
 21
9.37008472440945
 31
0.0
  0
LINE
  8
3
  6
CONTINUOUS
 62
3
 10
7.87676913385827
 20
9.37008472440945
 30
0.0
 11
7.87676913385827
 21
8.71984842519685
 31
0.0
  0
LINE
  8
3
  6
CONTINUOUS
 62
3
 10
1.70591401574803
 20
9.37008472440945
 30
0.0
 11
7.87676913385827
 21
9.37008472440945
 31
0.0
  0
LINE
  8
3
  6
CONTINUOUS
 62
3
 10
1.70591401574803
 20
1.6502362992126
 30
0.0
 11
1.70591401574803
 21
1
 31
0.0
  0
LINE
  8
3
  6
CONTINUOUS
 62
3
 10
1.70591401574803
 20
1
 30
0.0
 11
7.87676913385827
 21
1
 31
0.0
  0
LINE
  8
3
  6
CONTINUOUS
 62
3
 10
7.87676913385827
 20
1
 30
0.0
 11
7.87676913385827
 21
1.6502362992126
 31
0.0
  0
LINE
  8
3
  6
CONTINUOUS
 62
3
 10
1
 20
1.70591401574803
 30
0.0
 11
1
 21
8.66417070866142
 31
0.0
  0
LINE
  8
3
  6
CONTINUOUS
 62
3
 10
1
 20
8.66417070866142
 30
0.0
 11
1.65023633858268
 21
8.66417070866142
 31
0.0
  0
LINE
  8
3
  6
CONTINUOUS
 62
3
 10
2.86220755905512
 20
3.01968803149606
 30
0.0
 11
2.70472724409449
 21
3.01968803149606
 31
0.0
  0
LINE
  8
3
  6
CONTINUOUS
 62
3
 10
6.91732566929134
 20
3.92519984251969
 30
0.0
 11
6.91732566929134
 21
3.05905811023622
 31
0.0
  0
LINE
  8
3
  6
CONTINUOUS
 62
3
 10
6.64173511811024
 20
2.46850692913385
 30
0.0
 11
2.94094771653543
 21
2.46850692913386
 31
0.0
  0
LINE
  8
3
  6
CONTINUOUS
 62
3
 10
2.90157763779528
 20
7.38976677165354
 30
0.0
 11
2.90157763779528
 21
7.86220771653543
 31
0.0
  0
LINE
  8
3
  6
CONTINUOUS
 62
3
 10
6.68110519685039
 20
7.86220771653543
 30
0.0
 11
6.68110519685039
 21
7.38976677165354
 31
0.0
  0
LINE
  8
3
  6
CONTINUOUS
 62
3
 10
2.90157763779528
 20
2.50787700787402
 30
0.0
 11
2.90157763779528
 21
2.98031795275591
 31
0.0
  0
LINE
  8
3
  6
CONTINUOUS
 62
3
 10
2.94094771653543
 20
7.90157779527559
 30
0.0
 11
6.64173511811024
 21
7.90157779527559
 31
0.0
  0
LINE
  8
3
  6
CONTINUOUS
 62
3
 10
2.90157763779528
 20
4.00394
 30
0.0
 11
2.90157763779528
 21
6.36614472440945
 31
0.0
  0
LINE
  8
3
  6
CONTINUOUS
 62
3
 10
6.68110519685039
 20
6.36614472440945
 30
0.0
 11
6.6811051968504
 21
4.00394
 31
0.0
  0
LINE
  8
3
  6
CONTINUOUS
 62
3
 10
6.68110519685039
 20
2.98031795275591
 30
0.0
 11
6.6811051968504
 21
2.50787700787402
 31
0.0
  0
LINE
  8
3
  6
CONTINUOUS
 62
3
 10
2.70472724409449
 20
7.35039669291339
 30
0.0
 11
2.86220755905512
 21
7.35039669291339
 31
0.0
  0
LINE
  8
3
  6
CONTINUOUS
 62
3
 10
2.86220755905512
 20
6.40551480314961
 30
0.0
 11
2.70472724409449
 21
6.40551480314961
 31
0.0
  0
LINE
  8
3
  6
CONTINUOUS
 62
3
 10
2.66535716535433
 20
6.44488488188976
 30
0.0
 11
2.66535716535433
 21
7.31102661417323
 31
0.0
  0
LINE
  8
3
  6
CONTINUOUS
 62
3
 10
6.72047527559055
 20
7.35039669291339
 30
0.0
 11
6.87795559055118
 21
7.35039669291339
 31
0.0
  0
LINE
  8
3
  6
CONTINUOUS
 62
3
 10
6.91732566929134
 20
7.31102661417323
 30
0.0
 11
6.91732566929134
 21
6.44488488188976
 31
0.0
  0
LINE
  8
3
  6
CONTINUOUS
 62
3
 10
6.87795559055118
 20
6.40551480314961
 30
0.0
 11
6.72047527559055
 21
6.40551480314961
 31
0.0
  0
LINE
  8
3
  6
CONTINUOUS
 62
3
 10
6.87795559055118
 20
3.01968803149606
 30
0.0
 11
6.72047527559055
 21
3.01968803149606
 31
0.0
  0
LINE
  8
3
  6
CONTINUOUS
 62
3
 10
6.72047527559055
 20
3.96456992125985
 30
0.0
 11
6.87795559055118
 21
3.96456992125984
 31
0.0
  0
LINE
  8
3
  6
CONTINUOUS
 62
3
 10
2.66535716535433
 20
3.05905811023622
 30
0.0
 11
2.66535716535433
 21
3.92519984251969
 31
0.0
  0
LINE
  8
3
  6
CONTINUOUS
 62
3
 10
2.70472724409449
 20
3.96456992125984
 30
0.0
 11
2.86220755905512
 21
3.96456992125984
 31
0.0
  0
LINE
  8
3
  6
CONTINUOUS
 62
3
 10
1.65023633858268
 20
1.70591401574803
 30
0.0
 11
1
 21
1.70591401574803
 31
0.0
  0
LINE
  8
3
  6
CONTINUOUS
 62
3
 10
1.65023633858268
 20
1.70591401574803
 30
0.0
 11
1.79610666215801
 21
1.85178436146404
 31
0.0
  0
LINE
  8
3
  6
CONTINUOUS
 62
3
 10
1.70591401574803
 20
1.6502362992126
 30
0.0
 11
1.85178436146404
 21
1.79610666215801
 31
0.0
  0
LINE
  8
3
  6
CONTINUOUS
 62
3
 10
7.78657648744829
 20
1.85178436146404
 30
0.0
 11
7.9324468503937
 21
1.70591401574803
 31
0.0
  0
LINE
  8
3
  6
CONTINUOUS
 62
3
 10
7.87676913385827
 20
1.6502362992126
 30
0.0
 11
7.73089878814226
 21
1.79610666215801
 31
0.0
  0
LINE
  8
3
  6
CONTINUOUS
 62
3
 10
7.9324468503937
 20
8.66417070866142
 30
0.0
 11
7.78657648744829
 21
8.51830036294541
 31
0.0
  0
LINE
  8
3
  6
CONTINUOUS
 62
3
 10
7.73089878814226
 20
8.57397806225144
 30
0.0
 11
7.87676913385827
 21
8.71984842519685
 31
0.0
  0
LINE
  8
3
  6
CONTINUOUS
 62
3
 10
1.70591401574803
 20
8.71984842519685
 30
0.0
 11
1.85178436146404
 21
8.57397806225144
 31
0.0
  0
LINE
  8
3
  6
CONTINUOUS
 62
3
 10
1.79610666215801
 20
8.51830036294541
 30
0.0
 11
1.65023633858268
 21
8.66417070866142
 31
0.0
  0
ARC
  8
3
  6
CONTINUOUS
 62
3
 10
2.70472724409449
 20
3.92519984251969
 30
0.0
 40
0.0393700787401574
 50
89.9999999999998
 51
180
  0
ARC
  8
3
  6
CONTINUOUS
 62
3
 10
2.27756188976378
 20
3.49212897637795
 30
0.0
 40
0.108267716535433
 50
179.999999999999
 51
359.999999999999
  0
ARC
  8
3
  6
CONTINUOUS
 62
3
 10
2.27756188976378
 20
3.49212897637795
 30
0.0
 40
0.108267716535433
 50
359.999999999999
 51
180
  0
ARC
  8
3
  6
CONTINUOUS
 62
3
 10
7.30512094488189
 20
3.49212897637795
 30
0.0
 40
0.108267716535433
 50
180
 51
360
  0
ARC
  8
3
  6
CONTINUOUS
 62
3
 10
7.30512094488189
 20
3.49212897637795
 30
0.0
 40
0.108267716535433
 50
359.999999999999
 51
180
  0
ARC
  8
3
  6
CONTINUOUS
 62
3
 10
7.30512094488189
 20
6.87795574803149
 30
0.0
 40
0.108267716535434
 50
180
 51
3.81666561775622E-14
  0
ARC
  8
3
  6
CONTINUOUS
 62
3
 10
7.30512094488189
 20
6.8779557480315
 30
0.0
 40
0.108267716535434
 50
5.08888749034163E-14
 51
180
  0
ARC
  8
3
  6
CONTINUOUS
 62
3
 10
2.27756188976378
 20
6.87795574803149
 30
0.0
 40
0.108267716535433
 50
179.999999999999
 51
359.999999999999
  0
ARC
  8
3
  6
CONTINUOUS
 62
3
 10
2.27756188976378
 20
6.8779557480315
 30
0.0
 40
0.108267716535433
 50
359.999999999999
 51
180
  0
ARC
  8
3
  6
CONTINUOUS
 62
3
 10
2.70472724409449
 20
3.05905811023622
 30
0.0
 40
0.0393700787401579
 50
180
 51
270
  0
ARC
  8
3
  6
CONTINUOUS
 62
3
 10
2.86220755905512
 20
4.00394
 30
0.0
 40
0.0393700787401579
 50
269.999999999999
 51
359.999999999999
  0
ARC
  8
3
  6
CONTINUOUS
 62
3
 10
2.86220755905512
 20
2.98031795275591
 30
0.0
 40
0.0393700787401574
 50
359.999999999999
 51
89.9999999999992
  0
ARC
  8
3
  6
CONTINUOUS
 62
3
 10
7.40945165354331
 20
4.82468350393701
 30
0.0
 40
0.0885826771653542
 50
179.999999999999
 51
359.999999999999
  0
ARC
  8
3
  6
CONTINUOUS
 62
3
 10
7.40945165354331
 20
4.82468350393701
 30
0.0
 40
0.0885826771653542
 50
359.999999999999
 51
180
  0
ARC
  8
3
  6
CONTINUOUS
 62
3
 10
6.8818925984252
 20
4.82468350393701
 30
0.0
 40
0.0885826771653546
 50
180
 51
8.90555310809785E-14
  0
ARC
  8
3
  6
CONTINUOUS
 62
3
 10
6.8818925984252
 20
4.82468350393701
 30
0.0
 40
0.0885826771653546
 50
1.01777749806833E-13
 51
180
  0
ARC
  8
3
  6
CONTINUOUS
 62
3
 10
6.8818925984252
 20
5.4467307480315
 30
0.0
 40
0.0885826771653542
 50
179.999999999999
 51
359.999999999999
  0
ARC
  8
3
  6
CONTINUOUS
 62
3
 10
6.8818925984252
 20
5.4467307480315
 30
0.0
 40
0.0885826771653542
 50
359.999999999999
 51
180
  0
ARC
  8
3
  6
CONTINUOUS
 62
3
 10
7.40945165354331
 20
5.4467307480315
 30
0.0
 40
0.0885826771653542
 50
180
 51
8.90555310809785E-14
  0
ARC
  8
3
  6
CONTINUOUS
 62
3
 10
7.40945165354331
 20
5.4467307480315
 30
0.0
 40
0.0885826771653542
 50
1.01777749806833E-13
 51
180
  0
ARC
  8
3
  6
CONTINUOUS
 62
3
 10
2.70079023622047
 20
4.82468350393701
 30
0.0
 40
0.0885826771653544
 50
179.999999999999
 51
359.999999999999
  0
ARC
  8
3
  6
CONTINUOUS
 62
3
 10
2.70079023622047
 20
4.82468350393701
 30
0.0
 40
0.0885826771653544
 50
359.999999999999
 51
180
  0
ARC
  8
3
  6
CONTINUOUS
 62
3
 10
2.17323118110236
 20
4.82468350393701
 30
0.0
 40
0.0885826771653544
 50
179.999999999999
 51
359.999999999999
  0
ARC
  8
3
  6
CONTINUOUS
 62
3
 10
2.17323118110236
 20
4.82468350393701
 30
0.0
 40
0.0885826771653544
 50
359.999999999999
 51
180
  0
ARC
  8
3
  6
CONTINUOUS
 62
3
 10
2.70079023622047
 20
5.4467307480315
 30
0.0
 40
0.0885826771653544
 50
179.999999999999
 51
359.999999999999
  0
ARC
  8
3
  6
CONTINUOUS
 62
3
 10
2.70079023622047
 20
5.4467307480315
 30
0.0
 40
0.0885826771653544
 50
359.999999999999
 51
180
  0
ARC
  8
3
  6
CONTINUOUS
 62
3
 10
2.17323118110236
 20
5.4467307480315
 30
0.0
 40
0.0885826771653544
 50
179.999999999999
 51
359.999999999999
  0
ARC
  8
3
  6
CONTINUOUS
 62
3
 10
2.17323118110236
 20
5.4467307480315
 30
0.0
 40
0.0885826771653544
 50
359.999999999999
 51
180
  0
ARC
  8
3
  6
CONTINUOUS
 62
3
 10
6.64173511811024
 20
2.50787700787402
 30
0.0
 40
0.0393700787401654
 50
269.999999999999
 51
359.999999999999
  0
ARC
  8
3
  6
CONTINUOUS
 62
3
 10
6.64173511811024
 20
7.86220771653543
 30
0.0
 40
0.039370078740157
 50
359.999999999997
 51
89.9999999999979
  0
ARC
  8
3
  6
CONTINUOUS
 62
3
 10
2.94094771653543
 20
7.86220771653543
 30
0.0
 40
0.0393700787401576
 50
89.9999999999995
 51
179.999999999999
  0
ARC
  8
3
  6
CONTINUOUS
 62
3
 10
2.94094771653543
 20
2.50787700787402
 30
0.0
 40
0.0393700787401576
 50
180
 51
270
  0
ARC
  8
3
  6
CONTINUOUS
 62
3
 10
6.87795559055118
 20
3.05905811023622
 30
0.0
 40
0.0393700787401574
 50
269.999999999999
 51
359.999999999999
  0
ARC
  8
3
  6
CONTINUOUS
 62
3
 10
6.87795559055118
 20
3.92519984251969
 30
0.0
 40
0.0393700787401572
 50
1.39944405984395E-13
 51
90.0000000000001
  0
ARC
  8
3
  6
CONTINUOUS
 62
3
 10
6.72047527559055
 20
2.98031795275591
 30
0.0
 40
0.0393700787401574
 50
89.9999999999998
 51
180
  0
ARC
  8
3
  6
CONTINUOUS
 62
3
 10
6.72047527559055
 20
4.00394
 30
0.0
 40
0.039370078740153
 50
180
 51
270
  0
ARC
  8
3
  6
CONTINUOUS
 62
3
 10
6.87795559055118
 20
6.44488488188976
 30
0.0
 40
0.0393700787401565
 50
269.999999999999
 51
359.999999999999
  0
ARC
  8
3
  6
CONTINUOUS
 62
3
 10
6.87795559055118
 20
7.31102661417323
 30
0.0
 40
0.0393700787401574
 50
359.999999999999
 51
89.9999999999998
  0
ARC
  8
3
  6
CONTINUOUS
 62
3
 10
6.72047527559055
 20
6.36614472440945
 30
0.0
 40
0.0393700787401574
 50
89.9999999999998
 51
180
  0
ARC
  8
3
  6
CONTINUOUS
 62
3
 10
6.72047527559055
 20
7.38976677165354
 30
0.0
 40
0.0393700787401574
 50
180.000000000001
 51
270.000000000001
  0
ARC
  8
3
  6
CONTINUOUS
 62
3
 10
2.70472724409449
 20
7.31102661417323
 30
0.0
 40
0.0393700787401581
 50
89.9999999999988
 51
179.999999999999
  0
ARC
  8
3
  6
CONTINUOUS
 62
3
 10
2.70472724409449
 20
6.44488488188976
 30
0.0
 40
0.0393700787401576
 50
180
 51
270
  0
ARC
  8
3
  6
CONTINUOUS
 62
3
 10
2.86220755905512
 20
7.38976677165354
 30
0.0
 40
0.0393700787401576
 50
269.999999999999
 51
359.999999999999
  0
ARC
  8
3
  6
CONTINUOUS
 62
3
 10
2.86220755905512
 20
6.36614472440945
 30
0.0
 40
0.0393700787401576
 50
1.39944405984395E-13
 51
90.0000000000001
  0
ARC
  8
3
  6
CONTINUOUS
 62
3
 10
1.82394551181102
 20
1.82394551181102
 30
0.0
 40
0.0393700787401548
 50
315
 51
135
  0
ARC
  8
3
  6
CONTINUOUS
 62
3
 10
7.75873763779528
 20
1.82394551181102
 30
0.0
 40
0.0393700787401603
 50
135
 51
225
  0
ARC
  8
3
  6
CONTINUOUS
 62
3
 10
7.75873763779528
 20
1.82394551181102
 30
0.0
 40
0.0393700787401607
 50
44.9999999999996
 51
135
  0
ARC
  8
3
  6
CONTINUOUS
 62
3
 10
7.75873763779528
 20
8.54613921259843
 30
0.0
 40
0.039370078740162
 50
224.999999999999
 51
314.999999999999
  0
ARC
  8
3
  6
CONTINUOUS
 62
3
 10
7.75873763779528
 20
8.54613921259842
 30
0.0
 40
0.0393700787401601
 50
135
 51
225
  0
ARC
  8
3
  6
CONTINUOUS
 62
3
 10
1.82394551181103
 20
8.54613921259842
 30
0.0
 40
0.039370078740159
 50
225.000000000001
 51
45.0000000000014
  0
ARC
  8
3
  6
CONTINUOUS
 62
3
 10
7.28621779527559
 20
9.05512409448819
 30
0.0
 40
0.108267716535433
 50
179.999999999999
 51
359.999999999999
  0
ARC
  8
3
  6
CONTINUOUS
 62
3
 10
7.28621779527559
 20
9.05512409448819
 30
0.0
 40
0.108267716535433
 50
359.999999999999
 51
180
  0
ARC
  8
3
  6
CONTINUOUS
 62
3
 10
1.31496062992126
 20
8.07361937007874
 30
0.0
 40
0.108267716535433
 50
179.999999999999
 51
359.999999999999
  0
ARC
  8
3
  6
CONTINUOUS
 62
3
 10
1.31496062992126
 20
8.07361937007874
 30
0.0
 40
0.108267716535433
 50
359.999999999999
 51
180
  0
ARC
  8
3
  6
CONTINUOUS
 62
3
 10
2.29638665354331
 20
1.31496062992126
 30
0.0
 40
0.108267716535433
 50
180
 51
360
  0
ARC
  8
3
  6
CONTINUOUS
 62
3
 10
2.29638665354331
 20
1.31496062992126
 30
0.0
 40
0.108267716535433
 50
359.999999999999
 51
180
  0
ARC
  8
3
  6
CONTINUOUS
 62
3
 10
8.26772251968504
 20
2.29646535433071
 30
0.0
 40
0.108267716535432
 50
180
 51
360
  0
ARC
  8
3
  6
CONTINUOUS
 62
3
 10
8.26772251968504
 20
2.29646535433071
 30
0.0
 40
0.108267716535432
 50
359.999999999999
 51
180
  0
ENDSEC
  0
EOF
