  0
SECTION
  2
HEADER
  9
$ACADVER
  1
AC1003
  9
$EXTMIN
 10
0.900080196098234
 20
1.80866141732076
  9
$EXTMAX
 10
3.33321456692913
 20
0.528724213181182
  9
$INSBASE
 10
2.11664738151368
 20
1.16869281525097
999
Created with OMAX Layout for Windows. (http://www.omax.com) 4/30/2015
  0
ENDSEC
  0
SECTION
  2
TABLES
  0
TABLE
  2
LAYER
 70
    10
  0
LAYER
  2
0
 70
     0
 62
     7
  6
CONTINUOUS
  0
LAYER
  2
1
 70
     0
 62
     7
  6
CONTINUOUS
  0
LAYER
  2
2
 70
     0
 62
     7
  6
CONTINUOUS
  0
LAYER
  2
3
 70
     0
 62
     7
  6
CONTINUOUS
  0
LAYER
  2
4
 70
     0
 62
     7
  6
CONTINUOUS
  0
LAYER
  2
5
 70
     0
 62
     7
  6
CONTINUOUS
  0
LAYER
  2
6
 70
     0
 62
     7
  6
CONTINUOUS
  0
LAYER
  2
7
 70
     0
 62
     7
  6
CONTINUOUS
  0
LAYER
  2
8
 70
     0
 62
     7
  6
CONTINUOUS
  0
LAYER
  2
9
 70
     0
 62
     7
  6
CONTINUOUS
  0
LAYER
  2
10
 70
     0
 62
     7
  6
CONTINUOUS
  0
LAYER
  2
11
 70
     0
 62
     7
  6
CONTINUOUS
  0
LAYER
  2
12
 70
     0
 62
     7
  6
CONTINUOUS
  0
LAYER
  2
13
 70
     0
 62
     7
  6
CONTINUOUS
  0
LAYER
  2
14
 70
     0
 62
     7
  6
CONTINUOUS
  0
LAYER
  2
15
 70
     0
 62
     7
  6
CONTINUOUS
  0
LAYER
  2
16
 70
     0
 62
     7
  6
CONTINUOUS
  0
LAYER
  2
17
 70
     0
 62
     7
  6
CONTINUOUS
  0
LAYER
  2
18
 70
     0
 62
     7
  6
CONTINUOUS
  0
LAYER
  2
19
 70
     0
 62
     7
  6
CONTINUOUS
  0
LAYER
  2
20
 70
     0
 62
     7
  6
CONTINUOUS
  0
LAYER
  2
21
 70
     0
 62
     7
  6
CONTINUOUS
  0
LAYER
  2
22
 70
     0
 62
     7
  6
CONTINUOUS
  0
LAYER
  2
23
 70
     0
 62
     7
  6
CONTINUOUS
  0
LAYER
  2
24
 70
     0
 62
     7
  6
CONTINUOUS
  0
LAYER
  2
25
 70
     0
 62
     7
  6
CONTINUOUS
  0
LAYER
  2
26
 70
     0
 62
     7
  6
CONTINUOUS
  0
LAYER
  2
27
 70
     0
 62
     7
  6
CONTINUOUS
  0
LAYER
  2
28
 70
     0
 62
     7
  6
CONTINUOUS
  0
LAYER
  2
29
 70
     0
 62
     7
  6
CONTINUOUS
  0
LAYER
  2
30
 70
     0
 62
     7
  6
CONTINUOUS
  0
LAYER
  2
31
 70
     0
 62
     7
  6
CONTINUOUS
  0
ENDTAB
  0
ENDSEC
  0
SECTION
  2
ENTITIES
  0
LINE
  8
3
  6
CONTINUOUS
 62
3
 10
3.28346456692913
 20
1.43307086614173
 30
0.0
 11
2.57480314962044
 21
1.4330708661435
 31
0.0
  0
LINE
  8
3
  6
CONTINUOUS
 62
3
 10
3.28346456692913
 20
1.2755905511811
 30
0.0
 11
3.28346456692913
 21
1.43307086614173
 31
0.0
  0
LINE
  8
3
  6
CONTINUOUS
 62
3
 10
2.49606299212422
 20
1.51181102360791
 30
0.0
 11
2.49606299213482
 21
1.62992125984252
 31
0.0
  0
LINE
  8
3
  6
CONTINUOUS
 62
3
 10
2.5748031496063
 20
1.27559055118287
 30
0.0
 11
3.28346456692913
 21
1.2755905511811
 31
0.0
  0
LINE
  8
3
  6
CONTINUOUS
 62
3
 10
2.49606299212422
 20
1.07874015748032
 30
0.0
 11
2.49606299212775
 21
1.19685039368665
 31
0.0
  0
LINE
  8
3
  6
CONTINUOUS
 62
3
 10
2.25984251969918
 20
1.00000000000176
 30
0.0
 11
2.32816040964492
 21
1.00000000000023
 31
0.0
  0
LINE
  8
3
  6
CONTINUOUS
 62
3
 10
2.35316040964492
 20
0.999999999999674
 30
0.0
 11
2.41732283465981
 21
0.999999999998237
 31
0.0
  0
LINE
  8
3
  6
CONTINUOUS
 62
3
 10
2.18110236221356
 20
1.19685039370079
 30
0.0
 11
2.18110236220296
 21
1.07874015746617
 31
0.0
  0
LINE
  8
3
  6
CONTINUOUS
 62
3
 10
1
 20
1.2755905511811
 30
0.0
 11
2.10236220472441
 21
1.27559055117227
 31
0.0
  0
LINE
  8
3
  6
CONTINUOUS
 62
3
 10
1
 20
1.43307086614173
 30
0.0
 11
1
 21
1.2755905511811
 31
0.0
  0
LINE
  8
3
  6
CONTINUOUS
 62
3
 10
2.10236220473855
 20
1.43307086613997
 30
0.0
 11
1
 21
1.43307086614173
 31
0.0
  0
LINE
  8
3
  6
CONTINUOUS
 62
3
 10
2.18110236220649
 20
1.62992125982838
 30
0.0
 11
2.18110236220296
 21
1.51181102362205
 31
0.0
  0
LINE
  8
3
  6
CONTINUOUS
 62
3
 10
2.27559055117968
 20
1.14173228345326
 30
0.0
 11
2.27559055118251
 21
1.56692913384696
 31
0.0
  0
LINE
  8
3
  6
CONTINUOUS
 62
3
 10
2.41732283464567
 20
1.708661417314
 30
0.0
 11
2.34190462475873
 21
1.70866141731908
 31
0.0
  0
LINE
  8
3
  6
CONTINUOUS
 62
3
 10
2.31690462475872
 20
1.70866141732076
 30
0.0
 11
2.25984251968504
 21
1.7086614173246
 31
0.0
  0
ARC
  8
3
  6
CONTINUOUS
 62
3
 10
2.10236220474032
 20
1.19685039369902
 30
0.0
 40
0.0787401574732447
 50
1.28636897980856E-9
 51
90.000000011576
  0
ARC
  8
3
  6
CONTINUOUS
 62
3
 10
2.2598425196762
 20
1.07874015747501
 30
0.0
 40
0.0787401574732444
 50
180.000000006431
 51
270.000000016721
  0
ARC
  8
3
  6
CONTINUOUS
 62
3
 10
2.41732283465097
 20
1.07874015747148
 30
0.0
 40
0.0787401574732442
 50
270.00000000643
 51
6.43015284395224E-9
  0
ARC
  8
3
  6
CONTINUOUS
 62
3
 10
2.41732283466158
 20
1.62992125984075
 30
0.0
 40
0.0787401574732444
 50
1.28489320243636E-9
 51
90.0000000115756
  0
ARC
  8
3
  6
CONTINUOUS
 62
3
 10
2.25984251968681
 20
1.62992125984429
 30
0.0
 40
0.0787401574803148
 50
90.0000000012856
 51
180.000000011576
  0
ARC
  8
3
  6
CONTINUOUS
 62
3
 10
2.33858267716465
 20
1.14173228345891
 30
0.0
 40
0.0629921259849628
 50
180.000000005145
 51
5.14436908620508E-9
  0
ARC
  8
3
  6
CONTINUOUS
 62
3
 10
2.33858267716606
 20
1.56692913384696
 30
0.0
 40
0.0629921259835491
 50
1.02897305054708E-8
 51
180
  0
ARC
  8
3
  6
CONTINUOUS
 62
3
 10
2.10236220472971
 20
1.51181102361321
 30
0.0
 40
0.0787401574732446
 50
270.000000006429
 51
6.42997473289008E-9
  0
ARC
  8
3
  6
CONTINUOUS
 62
3
 10
2.57480314959746
 20
1.51181102361675
 30
0.0
 40
0.0787401574732442
 50
180.000000006431
 51
270.000000016721
  0
ARC
  8
3
  6
CONTINUOUS
 62
3
 10
2.57480314960807
 20
1.19685039370256
 30
0.0
 40
0.0787401574803148
 50
90.0000000012858
 51
180.000000011576
  0
LINE
  8
3
  6
CONTINUOUS
 62
3
 10
1.2728907609203
 20
0.917135612034787
 30
0.0
 11
1.39660586353535
 21
0.866021923461934
 31
0.0
  0
ARC
  8
3
  6
CONTINUOUS
 62
3
 10
1.31496062992686
 20
0.843684843126577
 30
0.0
 40
0.0846456692861076
 50
247.551719005144
 51
15.3009610051451
  0
ARC
  8
3
  6
CONTINUOUS
 62
3
 10
1.39012783464567
 20
1.02561881951089
 30
0.0
 40
0.0590551181102361
 50
1.02894760610963E-8
 51
179.999999999998
  0
ARC
  8
3
  6
CONTINUOUS
 62
3
 10
1.31496062988252
 20
0.843684843094853
 30
0.0
 40
0.314960629913672
 50
139.485765763085
 51
180.020575320333
  0
ARC
  8
3
  6
CONTINUOUS
 62
3
 10
1.31496062988252
 20
0.843684843094854
 30
0.0
 40
0.314960629913673
 50
184.568427819293
 51
302.704220506879
  0
LINE
  8
9
  6
CONTINUOUS
 62
9
 10
3.28346456692243
 20
1.58232086614173
 30
0.0
 11
3.28346456692913
 21
1.43307086614173
 31
0.0
  0
LINE
  8
9
  6
CONTINUOUS
 62
9
 10
3.33321456692913
 20
1.4330708661462
 30
0.0
 11
3.28346456692913
 21
1.43307086614173
 31
0.0
  0
LINE
  8
9
  6
CONTINUOUS
 62
9
 10
2.33969500511607
 20
1.27063910204463
 30
0.0
 11
2.40157480314961
 21
1.27334083239595
 31
0.0
  0
LINE
  8
9
  6
CONTINUOUS
 62
9
 10
2.35187215412552
 20
1.27551089690839
 30
0.0
 11
2.40157480314961
 21
1.27334083239595
 31
0.0
  0
LINE
  8
9
  6
CONTINUOUS
 62
9
 10
1.71171940258366
 20
1.08304372228561
 30
0.0
 11
1.58689349678442
 21
1.00259586957677
 31
0.0
  0
LINE
  8
9
  6
CONTINUOUS
 62
9
 10
1.63090100026744
 20
1.02579936364969
 30
0.0
 11
1.58689349678442
 21
1.00259586957677
 31
0.0
  0
LINE
  8
9
  6
CONTINUOUS
 62
9
 10
1.31265799218909
 20
0.847050513125864
 30
0.0
 11
1.23090258414044
 21
0.833728223763271
 31
0.0
  0
LINE
  8
9
  6
CONTINUOUS
 62
9
 10
1.28051544784186
 20
0.837419599569606
 30
0.0
 11
1.23090258414044
 21
0.833728223763271
 31
0.0
  0
LINE
  8
9
  6
CONTINUOUS
 62
9
 10
1.38743407731236
 20
1.02554458421845
 30
0.0
 11
1.37187879955487
 21
0.969454064608292
 31
0.0
  0
LINE
  8
9
  6
CONTINUOUS
 62
9
 10
1.38930161675738
 20
1.01605350602906
 30
0.0
 11
1.37187879955487
 21
0.969454064608292
 31
0.0
  0
LINE
  8
0
  6
CONTINUOUS
 62
0
 10
1
 20
1.7086614173246
 30
0.0
 11
1.38743407731236
 21
1.02554458421845
 31
0.0
  0
LINE
  8
0
  6
CONTINUOUS
 62
0
 10
1.38930161675738
 20
1.01605350602906
 30
0.0
 11
1.31265799218909
 21
0.847050513125864
 31
0.0
  0
LINE
  8
0
  6
CONTINUOUS
 62
0
 10
1.28051544784186
 20
0.837419599569606
 30
0.0
 11
1.71171940258366
 21
1.08304372228561
 31
0.0
  0
LINE
  8
0
  6
CONTINUOUS
 62
0
 10
1.63090100026744
 20
1.02579936364969
 30
0.0
 11
2.33969500511607
 21
1.27063910204463
 31
0.0
  0
LINE
  8
0
  6
CONTINUOUS
 62
0
 10
2.35187215412552
 20
1.27551089690839
 30
0.0
 11
3.28346456692243
 21
1.58232086614173
 31
0.0
  0
LINE
  8
3
  6
CONTINUOUS
 62
3
 10
2.40157480314961
 20
1.56692913385827
 30
0.0
 11
2.40157480314961
 21
1.27334083239595
 31
0.0
  0
LINE
  8
3
  6
CONTINUOUS
 62
3
 10
2.40157480314961
 20
1.27334083239595
 30
0.0
 11
2.40157480314961
 21
1.14173228346457
 31
0.0
  0
ARC
  8
3
  6
CONTINUOUS
 62
3
 10
1.31496062993418
 20
0.843684843198055
 30
0.0
 40
0.314960629885908
 50
30.3009877878479
 51
139.485765783463
  0
ARC
  8
3
  6
CONTINUOUS
 62
3
 10
1.31496063024799
 20
0.843684843058329
 30
0.0
 40
0.314960629685473
 50
302.704220454525
 51
2.9778746980026
  0
ARC
  8
3
  6
CONTINUOUS
 62
3
 10
1.31496063024798
 20
0.843684843058331
 30
0.0
 40
0.314960629685476
 50
7.52572720025745
 51
30.3009878385949
  0
ARC
  8
3
  6
CONTINUOUS
 62
3
 10
1.31496062990918
 20
0.843684843125523
 30
0.0
 40
0.084645669278382
 50
186.755171915485
 51
247.551719015933
  0
ARC
  8
3
  6
CONTINUOUS
 62
3
 10
1.31496062992115
 20
0.843684843134595
 30
0.0
 40
0.0846456692913385
 50
119.802477000498
 51
186.755171920629
  0
ARC
  8
3
  6
CONTINUOUS
 62
3
 10
1.39012783464952
 20
1.02561881950559
 30
0.0
 40
0.0590551181063835
 50
252.000000015434
 51
1.54334634807396E-8
  0
ARC
  8
3
  6
CONTINUOUS
 62
3
 10
1.39012783464567
 20
1.02561881951089
 30
0.0
 40
0.0590551181102362
 50
179.999999999998
 51
252.000000020579
  0
LINE
  8
0
  6
CONTINUOUS
 62
0
 10
0.900080196098234
 20
0.839568148108966
 30
0.0
 11
0.901080830965713
 21
0.814594749192842
 31
0.0
  0
LINE
  8
2
  6
CONTINUOUS
 62
2
 10
1.00100065514466
 20
0.818598339587631
 30
0.0
 11
0.901080830965713
 21
0.814594749192842
 31
0.0
  0
LINE
  8
2
  6
CONTINUOUS
 62
2
 10
1.00000002027718
 20
0.843571738503754
 30
0.0
 11
0.900080196098234
 21
0.839568148108966
 31
0.0
  0
LINE
  8
0
  6
CONTINUOUS
 62
0
 10
1.72907616434195
 20
0.869200441175824
 30
0.0
 11
1.72678844203545
 21
0.894088957608304
 31
0.0
  0
LINE
  8
2
  6
CONTINUOUS
 62
2
 10
1.62949595924606
 20
0.860047149250968
 30
0.0
 11
1.72907616434195
 21
0.869200441175824
 31
0.0
  0
LINE
  8
2
  6
CONTINUOUS
 62
2
 10
1.62720823693957
 20
0.884935665683448
 30
0.0
 11
1.72678844203545
 21
0.894088957608304
 31
0.0
  0
LINE
  8
0
  6
CONTINUOUS
 62
0
 10
2.32816040964268
 20
0.900000000000233
 30
0.0
 11
2.35316040964268
 21
0.899999999999674
 31
0.0
  0
LINE
  8
2
  6
CONTINUOUS
 62
2
 10
2.35316040964492
 20
0.999999999999674
 30
0.0
 11
2.35316040964268
 21
0.899999999999674
 31
0.0
  0
LINE
  8
2
  6
CONTINUOUS
 62
2
 10
2.32816040964492
 20
1.00000000000023
 30
0.0
 11
2.32816040964268
 21
0.900000000000233
 31
0.0
  0
LINE
  8
0
  6
CONTINUOUS
 62
0
 10
2.34190462476546
 20
1.80866141731908
 30
0.0
 11
2.31690462476546
 21
1.80866141732076
 31
0.0
  0
LINE
  8
2
  6
CONTINUOUS
 62
2
 10
2.31690462475872
 20
1.70866141732076
 30
0.0
 11
2.31690462476546
 21
1.80866141732076
 31
0.0
  0
LINE
  8
2
  6
CONTINUOUS
 62
2
 10
2.34190462475873
 20
1.70866141731908
 30
0.0
 11
2.34190462476546
 21
1.80866141731908
 31
0.0
  0
ENDSEC
  0
EOF
